<svg viewBox="0 0 1200 800" xmlns="http://www.w3.org/2000/svg">
  <defs>
    <style>
      .title-text { font-family: 'Segoe UI', Arial, sans-serif; font-size: 24px; font-weight: bold; fill: #1e3a8a; }
      .subtitle-text { font-family: 'Segoe UI', Arial, sans-serif; font-size: 18px; font-weight: 600; fill: #1e40af; }
      .label-text { font-family: 'Segoe UI', Arial, sans-serif; font-size: 14px; font-weight: 500; fill: #374151; }
      .value-text { font-family: 'Segoe UI', Arial, sans-serif; font-size: 12px; font-weight: 600; fill: #dc2626; }
      .formula-text { font-family: 'Segoe UI', Arial, sans-serif; font-size: 11px; font-weight: 500; fill: #059669; }
      .magnetic-field { stroke: #7c3aed; fill: none; stroke-width: 2; }
      .current-flow { stroke: #dc2626; fill: #dc2626; stroke-width: 2; }
      .conductor { stroke: #f59e0b; fill: #fed7aa; stroke-width: 2; }
      .coil-wire { stroke: #4338ca; fill: none; stroke-width: 2; }
      .motion-arrow { stroke: #16a34a; fill: #16a34a; stroke-width: 3; }
    </style>
    
    <marker id="arrowhead" markerWidth="10" markerHeight="7" refX="9" refY="3.5" orient="auto">
      <polygon points="0 0, 10 3.5, 0 7" fill="#374151" />
    </marker>
    
    <marker id="field-arrow" markerWidth="8" markerHeight="6" refX="7" refY="3" orient="auto">
      <polygon points="0 0, 8 3, 0 6" fill="#7c3aed" />
    </marker>
    
    <marker id="current-arrow" markerWidth="8" markerHeight="6" refX="7" refY="3" orient="auto">
      <polygon points="0 0, 8 3, 0 6" fill="#dc2626" />
    </marker>
    
    <marker id="motion-arrow" markerWidth="10" markerHeight="7" refX="9" refY="3.5" orient="auto">
      <polygon points="0 0, 10 3.5, 0 7" fill="#16a34a" />
    </marker>
  </defs>

  <!-- Background -->
  <rect width="1200" height="800" fill="#f8fafc"/>

  <!-- Main Title -->
  <text x="600" y="30" text-anchor="middle" class="title-text">Electromagnetic Induction Principles</text>
  <text x="600" y="55" text-anchor="middle" class="subtitle-text">Complete Overview of Induction Laws</text>

  <!-- Core Laws -->
  <g id="coreLaws" transform="translate(50, 80)">
    <rect x="0" y="0" width="1100" height="120" fill="#f0f9ff" stroke="#3b82f6" stroke-width="2" rx="5"/>
    <text x="550" y="25" text-anchor="middle" class="subtitle-text">Fundamental Laws</text>
    
    <!-- Faraday's Law -->
    <g transform="translate(50, 40)">
      <rect x="0" y="0" width="320" height="60" fill="white" stroke="#7c3aed" stroke-width="2" rx="3"/>
      <text x="160" y="20" text-anchor="middle" class="label-text" fill="#7c3aed">Faraday's Law</text>
      <text x="160" y="40" text-anchor="middle" class="value-text">ε = -N(dΦ/dt)</text>
      <text x="160" y="55" text-anchor="middle" class="formula-text">EMF ∝ Rate of flux change</text>
    </g>
    
    <!-- Lenz Law -->
    <g transform="translate(390, 40)">
      <rect x="0" y="0" width="320" height="60" fill="white" stroke="#f59e0b" stroke-width="2" rx="3"/>
      <text x="160" y="20" text-anchor="middle" class="label-text" fill="#f59e0b">Lenz's Law</text>
      <text x="160" y="40" text-anchor="middle" class="value-text">Direction of ε</text>
      <text x="160" y="55" text-anchor="middle" class="formula-text">Opposes the change causing it</text>
    </g>
    
    <!-- Fleming's Rule -->
    <g transform="translate(730, 40)">
      <rect x="0" y="0" width="320" height="60" fill="white" stroke="#16a34a" stroke-width="2" rx="3"/>
      <text x="160" y="20" text-anchor="middle" class="label-text" fill="#16a34a">Fleming's Right Hand Rule</text>
      <text x="160" y="40" text-anchor="middle" class="value-text">F⃗ = q(v⃗ × B⃗)</text>
      <text x="160" y="55" text-anchor="middle" class="formula-text">Motion, Field, Current relation</text>
    </g>
  </g>

  <!-- Motional EMF -->
  <g id="motionalEMF" transform="translate(50, 220)">
    <rect x="0" y="0" width="500" height="200" fill="#fef7cd" stroke="#f59e0b" stroke-width="2" rx="5"/>
    <text x="250" y="25" text-anchor="middle" class="subtitle-text">Motional EMF</text>
    
    <!-- Moving conductor in B field -->
    <g transform="translate(50, 50)">
      <!-- Magnetic field -->
      <rect x="50" y="20" width="150" height="80" fill="rgba(124, 58, 237, 0.1)" stroke="#7c3aed" stroke-width="2" stroke-dasharray="3,3"/>
      <text x="125" y="15" text-anchor="middle" class="formula-text">B field (into page)</text>
      
      <!-- Field dots -->
      <circle cx="80" cy="40" r="2" fill="#7c3aed"/>
      <text x="80" y="44" text-anchor="middle" style="font-size: 8px;">×</text>
      <circle cx="125" cy="40" r="2" fill="#7c3aed"/>
      <text x="125" y="44" text-anchor="middle" style="font-size: 8px;">×</text>
      <circle cx="170" cy="40" r="2" fill="#7c3aed"/>
      <text x="170" y="44" text-anchor="middle" style="font-size: 8px;">×</text>
      
      <circle cx="80" cy="80" r="2" fill="#7c3aed"/>
      <text x="80" y="84" text-anchor="middle" style="font-size: 8px;">×</text>
      <circle cx="125" cy="80" r="2" fill="#7c3aed"/>
      <text x="125" y="84" text-anchor="middle" style="font-size: 8px;">×</text>
      <circle cx="170" cy="80" r="2" fill="#7c3aed"/>
      <text x="170" y="84" text-anchor="middle" style="font-size: 8px;">×</text>
      
      <!-- Moving conductor -->
      <line x1="100" y1="25" x2="100" y2="95" class="conductor" stroke-width="4"/>
      
      <!-- Motion arrow -->
      <line x1="100" y1="10" x2="130" y2="10" class="motion-arrow" marker-end="url(#motion-arrow)"/>
      <text x="115" y="7" text-anchor="middle" class="formula-text" fill="#16a34a">v</text>
      
      <!-- EMF arrow -->
      <line x1="95" y1="50" x2="90" y2="45" class="current-flow" marker-end="url(#current-arrow)"/>
      <text x="80" y="40" class="formula-text">EMF</text>
    </g>
    
    <text x="250" y="140" text-anchor="middle" class="label-text">Formula: ε = BLv</text>
    <text x="250" y="160" text-anchor="middle" class="formula-text">Applications: Generators, Hall sensors</text>
    <text x="250" y="180" text-anchor="middle" class="value-text">Mechanical → Electrical Energy</text>
  </g>

  <!-- Transformer EMF -->
  <g id="transformerEMF" transform="translate(600, 220)">
    <rect x="0" y="0" width="550" height="200" fill="#f0fdf4" stroke="#16a34a" stroke-width="2" rx="5"/>
    <text x="275" y="25" text-anchor="middle" class="subtitle-text">Transformer EMF (Mutual Induction)</text>
    
    <!-- Transformer setup -->
    <g transform="translate(50, 50)">
      <!-- Core -->
      <rect x="180" y="40" width="90" height="60" fill="#6b7280" stroke="#374151" stroke-width="2" rx="3"/>
      <text x="225" y="75" text-anchor="middle" class="formula-text" fill="white">Core</text>
      
      <!-- Primary coil -->
      <ellipse cx="150" cy="70" rx="20" ry="25" class="coil-wire"/>
      <text x="115" y="75" text-anchor="middle" class="formula-text">Primary</text>
      <text x="115" y="90" text-anchor="middle" class="formula-text">N₁</text>
      
      <!-- Secondary coil -->
      <ellipse cx="300" cy="70" rx="20" ry="25" class="coil-wire"/>
      <text x="335" y="75" text-anchor="middle" class="formula-text">Secondary</text>
      <text x="335" y="90" text-anchor="middle" class="formula-text">N₂</text>
      
      <!-- AC source -->
      <circle cx="90" cy="70" r="15" fill="white" stroke="#374151" stroke-width="2"/>
      <path d="M 83,65 Q 90,75 97,65" stroke="#374151" stroke-width="2" fill="none"/>
      <path d="M 83,75 Q 90,65 97,75" stroke="#374151" stroke-width="2" fill="none"/>
      
      <!-- Load -->
      <rect x="360" y="65" width="15" height="10" fill="white" stroke="#374151" stroke-width="2"/>
      <text x="367" y="72" text-anchor="middle" class="formula-text">R</text>
      
      <!-- Connections -->
      <line x1="105" y1="70" x2="130" y2="70" class="coil-wire"/>
      <line x1="320" y1="70" x2="360" y2="70" class="coil-wire"/>
      
      <!-- Flux lines -->
      <path d="M 170,55 Q 225,45 280,55" stroke="#2563eb" stroke-width="2" stroke-dasharray="3,2" marker-end="url(#field-arrow)"/>
      <path d="M 170,85 Q 225,95 280,85" stroke="#2563eb" stroke-width="2" stroke-dasharray="3,2" marker-start="url(#field-arrow)"/>
    </g>
    
    <text x="275" y="140" text-anchor="middle" class="label-text">Mutual Induction: M₁₂ = M₂₁</text>
    <text x="275" y="160" text-anchor="middle" class="formula-text">ε₂ = -M(di₁/dt), Voltage ratio = N₂/N₁</text>
    <text x="275" y="180" text-anchor="middle" class="value-text">Electrical → Electrical Energy Transfer</text>
  </g>

  <!-- Self Inductance -->
  <g id="selfInductance" transform="translate(50, 440)">
    <rect x="0" y="0" width="500" height="180" fill="#fdf2f8" stroke="#ec4899" stroke-width="2" rx="5"/>
    <text x="250" y="25" text-anchor="middle" class="subtitle-text">Self-Inductance</text>
    
    <!-- Inductor with back EMF -->
    <g transform="translate(100, 50)">
      <!-- Inductor coil -->
      <ellipse cx="150" cy="50" rx="40" ry="20" class="coil-wire" stroke="#ec4899" stroke-width="3"/>
      <ellipse cx="150" cy="50" rx="25" ry="12" fill="none" class="coil-wire" stroke="#ec4899"/>
      
      <!-- Current -->
      <line x1="80" y1="50" x2="60" y2="50" class="current-flow" marker-end="url(#current-arrow)"/>
      <text x="50" y="45" class="formula-text">i(t)</text>
      
      <!-- Back EMF -->
      <line x1="220" y1="50" x2="240" y2="50" class="current-flow" marker-start="url(#current-arrow)"/>
      <text x="250" y="45" class="formula-text">Back EMF</text>
      <text x="250" y="60" class="formula-text">ε = -L(di/dt)</text>
      
      <!-- Self flux -->
      <path d="M 150,30 Q 100,50 150,70" stroke="#ec4899" stroke-width="2" stroke-dasharray="3,2" marker-end="url(#field-arrow)"/>
      <path d="M 150,70 Q 200,50 150,30" stroke="#ec4899" stroke-width="2" stroke-dasharray="5,5"/>
      
      <text x="80" y="70" text-anchor="middle" class="formula-text">Self flux</text>
    </g>
    
    <text x="250" y="120" text-anchor="middle" class="label-text">L = Φ/i = μ₀μᵣN²A/l</text>
    <text x="250" y="140" text-anchor="middle" class="formula-text">Energy stored: U = ½Li²</text>
    <text x="250" y="160" text-anchor="middle" class="value-text">Opposes current changes</text>
  </g>

  <!-- Applications -->
  <g id="applications" transform="translate(600, 440)">
    <rect x="0" y="0" width="550" height="180" fill="#f8fafc" stroke="#6b7280" stroke-width="2" rx="5"/>
    <text x="275" y="25" text-anchor="middle" class="subtitle-text">Key Applications</text>
    
    <g transform="translate(50, 50)">
      <text x="0" y="0" class="label-text">Generators &amp;amp; Motors:</text>
      <text x="0" y="20" class="formula-text">• AC/DC generators (motional EMF)</text>
      <text x="0" y="35" class="formula-text">• Induction motors (rotating fields)</text>
      
      <text x="0" y="60" class="label-text">Transformers:</text>
      <text x="0" y="80" class="formula-text">• Power distribution systems</text>
      <text x="0" y="95" class="formula-text">• Voltage level conversion</text>
      
      <text x="250" y="0" class="label-text">Modern Applications:</text>
      <text x="250" y="20" class="formula-text">• Wireless charging (mutual induction)</text>
      <text x="250" y="35" class="formula-text">• Induction heating systems</text>
      <text x="250" y="50" class="formula-text">• Eddy current brakes</text>
      
      <text x="250" y="75" class="label-text">Electronic Circuits:</text>
      <text x="250" y="95" class="formula-text">• Inductors in filters</text>
      <text x="250" y="110" class="formula-text">• Energy storage elements</text>
    </g>
  </g>

  <!-- Summary -->
  <g id="summary" transform="translate(50, 640)">
    <text x="550" y="0" text-anchor="middle" class="subtitle-text">Key Principles Summary</text>
    <text x="0" y="25" class="formula-text">1. Changing magnetic flux induces EMF (Faraday) 2. Induced EMF opposes change (Lenz) 3. Direction given by Fleming's rules</text>
    <text x="0" y="45" class="formula-text">4. Motional EMF: conductor moving in B field 5. Transformer EMF: changing flux in stationary coil</text>
    <text x="0" y="65" class="formula-text">6. Self-inductance opposes current change 7. Mutual inductance enables energy transfer</text>
  </g>
</svg>