<svg viewBox="0 0 1200 800" xmlns="http://www.w3.org/2000/svg">
  <defs>
    <linearGradient id="magnetGrad" x1="0%" y1="0%" x2="100%" y2="0%">
      <stop offset="0%" style="stop-color:#ff4444;stop-opacity:1" />
      <stop offset="50%" style="stop-color:#ffaaaa;stop-opacity:1" />
      <stop offset="100%" style="stop-color:#4444ff;stop-opacity:1" />
    </linearGradient>
    <linearGradient id="coilGrad" x1="0%" y1="0%" x2="100%" y2="100%">
      <stop offset="0%" style="stop-color:#d35400;stop-opacity:1" />
      <stop offset="100%" style="stop-color:#e67e22;stop-opacity:1" />
    </linearGradient>
    <marker id="arrowhead" markerWidth="10" markerHeight="7" refX="10" refY="3.5" orient="auto">
      <polygon points="0 0, 10 3.5, 0 7" fill="#333" />
    </marker>
    <marker id="fieldArrow" markerWidth="8" markerHeight="6" refX="8" refY="3" orient="auto">
      <polygon points="0 0, 8 3, 0 6" fill="#0066cc" />
    </marker>
    <marker id="currentArrow" markerWidth="8" markerHeight="6" refX="8" refY="3" orient="auto">
      <polygon points="0 0, 8 3, 0 6" fill="#e74c3c" />
    </marker>
  </defs>
  
  <!-- Background -->
  <rect width="1200" height="800" fill="#f8f9fa"/>
  
  <!-- Title -->
  <text x="600" y="30" text-anchor="middle" font-family="Arial, sans-serif" font-size="24" font-weight="bold" fill="#2c3e50">
    Faraday's &amp;amp; Lenz's Laws, Fleming's Rules
  </text>
  
  <!-- Faraday's Law -->
  <g id="faraday-law">
    <text x="200" y="70" text-anchor="middle" font-family="Arial, sans-serif" font-size="16" font-weight="bold" fill="#34495e">
      Faraday's Law of Electromagnetic Induction
    </text>
    
    <!-- Moving magnet and coil -->
    <g transform="translate(50,90)">
      <!-- Coil -->
      <g transform="translate(200,30)">
        <ellipse cx="0" cy="20" rx="25" ry="8" fill="none" stroke="url(#coilGrad)" stroke-width="4"/>
        <ellipse cx="0" cy="35" rx="25" ry="8" fill="none" stroke="url(#coilGrad)" stroke-width="4"/>
        <ellipse cx="0" cy="50" rx="25" ry="8" fill="none" stroke="url(#coilGrad)" stroke-width="4"/>
        <ellipse cx="0" cy="65" rx="25" ry="8" fill="none" stroke="url(#coilGrad)" stroke-width="4"/>
        <text x="0" y="90" text-anchor="middle" font-family="Arial, sans-serif" font-size="12" fill="#333" font-weight="bold">N turns</text>
      </g>
      
      <!-- Moving magnet -->
      <g transform="translate(100,35)">
        <rect x="0" y="0" width="60" height="40" fill="url(#magnetGrad)" rx="5"/>
        <text x="15" y="25" font-family="Arial, sans-serif" font-size="14" fill="white" font-weight="bold">N</text>
        <text x="35" y="25" font-family="Arial, sans-serif" font-size="14" fill="white" font-weight="bold">S</text>
        <path d="M-20 20 L0 20" stroke="#333" stroke-width="3" marker-end="url(#arrowhead)"/>
        <text x="-25" y="15" font-family="Arial, sans-serif" font-size="12" fill="#333" font-weight="bold">v</text>
      </g>
      
      <!-- Magnetic field lines -->
      <g stroke="#0066cc" stroke-width="2" fill="none" opacity="0.6">
        <path d="M150 25 Q175 20 200 25" marker-end="url(#fieldArrow)"/>
        <path d="M150 35 Q175 30 200 35" marker-end="url(#fieldArrow)"/>
        <path d="M150 45 Q175 40 200 45" marker-end="url(#fieldArrow)"/>
        <path d="M150 55 Q175 50 200 55" marker-end="url(#fieldArrow)"/>
        <path d="M150 65 Q175 60 200 65" marker-end="url(#fieldArrow)"/>
        <path d="M150 75 Q175 70 200 75" marker-end="url(#fieldArrow)"/>
      </g>
      
      <!-- EMF indication -->
      <g transform="translate(240,50)">
        <circle cx="0" cy="0" r="3" fill="#ff0000"/>
        <circle cx="0" cy="30" r="3" fill="#0000ff"/>
        <text x="10" y="5" font-family="Arial, sans-serif" font-size="12" fill="#ff0000" font-weight="bold">+</text>
        <text x="10" y="35" font-family="Arial, sans-serif" font-size="12" fill="#0000ff" font-weight="bold">-</text>
        <text x="15" y="20" font-family="Arial, sans-serif" font-size="12" fill="#333" font-weight="bold">EMF</text>
      </g>
    </g>
    
    <!-- Faraday's equation -->
    <g transform="translate(50,230)">
      <rect x="0" y="0" width="300" height="80" fill="#ecf0f1" stroke="#bdc3c7" stroke-width="2" rx="5"/>
      <text x="150" y="25" text-anchor="middle" font-family="Arial, sans-serif" font-size="16" fill="#2c3e50" font-weight="bold">Faraday's Law</text>
      <text x="150" y="45" text-anchor="middle" font-family="Arial, sans-serif" font-size="18" fill="#e74c3c" font-weight="bold">ε = -N × (dΦ/dt)</text>
      <text x="150" y="65" text-anchor="middle" font-family="Arial, sans-serif" font-size="12" fill="#7f8c8d">EMF proportional to rate of flux change</text>
    </g>
  </g>
  
  <!-- Lenz's Law -->
  <g id="lenz-law">
    <text x="600" y="70" text-anchor="middle" font-family="Arial, sans-serif" font-size="16" font-weight="bold" fill="#34495e">
      Lenz's Law - Direction of Induced EMF
    </text>
    
    <!-- Approaching magnet -->
    <g transform="translate(450,90)">
      <text x="150" y="20" text-anchor="middle" font-family="Arial, sans-serif" font-size="14" fill="#333" font-weight="bold">Magnet Approaching</text>
      
      <!-- Magnet moving towards coil -->
      <rect x="50" y="30" width="40" height="25" fill="url(#magnetGrad)" rx="3"/>
      <text x="60" y="45" font-family="Arial, sans-serif" font-size="12" fill="white" font-weight="bold">N</text>
      <text x="75" y="45" font-family="Arial, sans-serif" font-size="12" fill="white" font-weight="bold">S</text>
      <path d="M30 42 L50 42" stroke="#333" stroke-width="2" marker-end="url(#arrowhead)"/>
      
      <!-- Coil -->
      <g transform="translate(150,25)">
        <circle cx="0" cy="20" r="18" fill="none" stroke="#d35400" stroke-width="3"/>
        <!-- Induced current (clockwise to oppose flux increase) -->
        <path d="M15 5 A18 18 0 0 1 15 35" fill="none" stroke="#e74c3c" stroke-width="3" marker-end="url(#currentArrow)"/>
        <text x="0" y="50" text-anchor="middle" font-family="Arial, sans-serif" font-size="10" fill="#333">Opposition current</text>
      </g>
      
      <!-- Flux increase indication -->
      <g transform="translate(120,35)">
        <path d="M0 10 L20 10" stroke="#0066cc" stroke-width="2" marker-end="url(#fieldArrow)"/>
        <text x="10" y="5" text-anchor="middle" font-family="Arial, sans-serif" font-size="10" fill="#0066cc">Φ ↑</text>
      </g>
    </g>
    
    <!-- Receding magnet -->
    <g transform="translate(450,160)">
      <text x="150" y="20" text-anchor="middle" font-family="Arial, sans-serif" font-size="14" fill="#333" font-weight="bold">Magnet Receding</text>
      
      <!-- Magnet moving away from coil -->
      <rect x="200" y="30" width="40" height="25" fill="url(#magnetGrad)" rx="3"/>
      <text x="210" y="45" font-family="Arial, sans-serif" font-size="12" fill="white" font-weight="bold">N</text>
      <text x="225" y="45" font-family="Arial, sans-serif" font-size="12" fill="white" font-weight="bold">S</text>
      <path d="M200 42 L220 42" stroke="#333" stroke-width="2" marker-end="url(#arrowhead)"/>
      
      <!-- Coil -->
      <g transform="translate(150,25)">
        <circle cx="0" cy="20" r="18" fill="none" stroke="#d35400" stroke-width="3"/>
        <!-- Induced current (counterclockwise to oppose flux decrease) -->
        <path d="M-15 5 A18 18 0 0 0 -15 35" fill="none" stroke="#e74c3c" stroke-width="3" marker-end="url(#currentArrow)"/>
        <text x="0" y="50" text-anchor="middle" font-family="Arial, sans-serif" font-size="10" fill="#333">Assisting current</text>
      </g>
      
      <!-- Flux decrease indication -->
      <g transform="translate(120,35)">
        <path d="M20 10 L0 10" stroke="#0066cc" stroke-width="2" marker-end="url(#fieldArrow)"/>
        <text x="10" y="5" text-anchor="middle" font-family="Arial, sans-serif" font-size="10" fill="#0066cc">Φ ↓</text>
      </g>
    </g>
    
    <!-- Lenz's equation -->
    <g transform="translate(450,230)">
      <rect x="0" y="0" width="300" height="80" fill="#ecf0f1" stroke="#bdc3c7" stroke-width="2" rx="5"/>
      <text x="150" y="25" text-anchor="middle" font-family="Arial, sans-serif" font-size="16" fill="#2c3e50" font-weight="bold">Lenz's Law</text>
      <text x="150" y="45" text-anchor="middle" font-family="Arial, sans-serif" font-size="14" fill="#e74c3c" font-weight="bold">Induced EMF opposes the change</text>
      <text x="150" y="65" text-anchor="middle" font-family="Arial, sans-serif" font-size="12" fill="#7f8c8d">Negative sign in Faraday's law</text>
    </g>
  </g>
  
  <!-- Fleming's Right Hand Rule -->
  <g id="fleming-right">
    <text x="1000" y="70" text-anchor="middle" font-family="Arial, sans-serif" font-size="16" font-weight="bold" fill="#34495e">
      Fleming's Right Hand Rule
    </text>
    <text x="1000" y="90" text-anchor="middle" font-family="Arial, sans-serif" font-size="14" fill="#666">(Generator Action)</text>
    
    <!-- Right hand illustration -->
    <g transform="translate(900,110)">
      <!-- Palm outline -->
      <path d="M50 20 Q70 10 90 20 L90 80 Q90 100 70 100 L30 100 Q10 100 10 80 L10 40 Q10 20 30 20 Z" 
            fill="#fdbcb4" stroke="#d4ac0d" stroke-width="2"/>
      
      <!-- Thumb (Motion/Velocity) -->
      <g transform="translate(20,30) rotate(-30)">
        <ellipse cx="0" cy="0" rx="15" ry="8" fill="#f8c471" stroke="#d4ac0d" stroke-width="2"/>
        <text x="25" y="5" font-family="Arial, sans-serif" font-size="12" fill="#d68910" font-weight="bold">Motion (v)</text>
        <path d="M15 0 L35 0" stroke="#333" stroke-width="2" marker-end="url(#arrowhead)"/>
      </g>
      
      <!-- First finger (Magnetic Field) -->
      <g transform="translate(50,10)">
        <ellipse cx="0" cy="0" rx="8" ry="15" fill="#f8c471" stroke="#d4ac0d" stroke-width="2"/>
        <text x="15" y="5" font-family="Arial, sans-serif" font-size="12" fill="#0066cc" font-weight="bold">Field (B)</text>
        <path d="M0 -15 L0 -35" stroke="#0066cc" stroke-width="2" marker-end="url(#fieldArrow)"/>
      </g>
      
      <!-- Middle finger (Current/EMF) -->
      <g transform="translate(70,30) rotate(90)">
        <ellipse cx="0" cy="0" rx="8" ry="15" fill="#f8c471" stroke="#d4ac0d" stroke-width="2"/>
        <text x="20" y="5" font-family="Arial, sans-serif" font-size="12" fill="#e74c3c" font-weight="bold">EMF/Current</text>
        <path d="M0 15 L0 35" stroke="#e74c3c" stroke-width="2" marker-end="url(#currentArrow)"/>
      </g>
    </g>
    
    <!-- Right hand rule description -->
    <g transform="translate(850,220)">
      <rect x="0" y="0" width="300" height="90" fill="#ecf0f1" stroke="#bdc3c7" stroke-width="2" rx="5"/>
      <text x="150" y="20" text-anchor="middle" font-family="Arial, sans-serif" font-size="14" fill="#2c3e50" font-weight="bold">Fleming's Right Hand Rule</text>
      <text x="20" y="40" font-family="Arial, sans-serif" font-size="12" fill="#333">• Thumb: Direction of motion (velocity)</text>
      <text x="20" y="55" font-family="Arial, sans-serif" font-size="12" fill="#333">• First finger: Magnetic field direction</text>
      <text x="20" y="70" font-family="Arial, sans-serif" font-size="12" fill="#333">• Middle finger: Induced EMF/current</text>
    </g>
  </g>
  
  <!-- Fleming's Left Hand Rule -->
  <g id="fleming-left">
    <text x="200" y="360" text-anchor="middle" font-family="Arial, sans-serif" font-size="16" font-weight="bold" fill="#34495e">
      Fleming's Left Hand Rule
    </text>
    <text x="200" y="380" text-anchor="middle" font-family="Arial, sans-serif" font-size="14" fill="#666">(Motor Action)</text>
    
    <!-- Left hand illustration -->
    <g transform="translate(100,400)">
      <!-- Palm outline (mirrored) -->
      <path d="M150 20 Q130 10 110 20 L110 80 Q110 100 130 100 L170 100 Q190 100 190 80 L190 40 Q190 20 170 20 Z" 
            fill="#fdbcb4" stroke="#d4ac0d" stroke-width="2"/>
      
      <!-- Thumb (Force) -->
      <g transform="translate(180,30) rotate(30)">
        <ellipse cx="0" cy="0" rx="15" ry="8" fill="#f8c471" stroke="#d4ac0d" stroke-width="2"/>
        <text x="-50" y="5" font-family="Arial, sans-serif" font-size="12" fill="#27ae60" font-weight="bold">Force (F)</text>
        <path d="-15 0 L-35 0" stroke="#27ae60" stroke-width="2" marker-end="url(#arrowhead)"/>
      </g>
      
      <!-- First finger (Magnetic Field) -->
      <g transform="translate(150,10)">
        <ellipse cx="0" cy="0" rx="8" ry="15" fill="#f8c471" stroke="#d4ac0d" stroke-width="2"/>
        <text x="-50" y="5" font-family="Arial, sans-serif" font-size="12" fill="#0066cc" font-weight="bold">Field (B)</text>
        <path d="M0 -15 L0 -35" stroke="#0066cc" stroke-width="2" marker-end="url(#fieldArrow)"/>
      </g>
      
      <!-- Middle finger (Current) -->
      <g transform="translate(130,30) rotate(-90)">
        <ellipse cx="0" cy="0" rx="8" ry="15" fill="#f8c471" stroke="#d4ac0d" stroke-width="2"/>
        <text x="-55" y="5" font-family="Arial, sans-serif" font-size="12" fill="#e74c3c" font-weight="bold">Current (I)</text>
        <path d="M0 -15 L0 -35" stroke="#e74c3c" stroke-width="2" marker-end="url(#currentArrow)"/>
      </g>
    </g>
    
    <!-- Left hand rule description -->
    <g transform="translate(50,520)">
      <rect x="0" y="0" width="300" height="90" fill="#ecf0f1" stroke="#bdc3c7" stroke-width="2" rx="5"/>
      <text x="150" y="20" text-anchor="middle" font-family="Arial, sans-serif" font-size="14" fill="#2c3e50" font-weight="bold">Fleming's Left Hand Rule</text>
      <text x="20" y="40" font-family="Arial, sans-serif" font-size="12" fill="#333">• Thumb: Direction of force/motion</text>
      <text x="20" y="55" font-family="Arial, sans-serif" font-size="12" fill="#333">• First finger: Magnetic field direction</text>
      <text x="20" y="70" font-family="Arial, sans-serif" font-size="12" fill="#333">• Middle finger: Current direction</text>
    </g>
  </g>
  
  <!-- Practical Applications -->
  <g id="applications">
    <text x="600" y="360" text-anchor="middle" font-family="Arial, sans-serif" font-size="16" font-weight="bold" fill="#34495e">
      Practical Applications
    </text>
    
    <!-- Generator -->
    <g transform="translate(450,380)">
      <text x="50" y="20" text-anchor="middle" font-family="Arial, sans-serif" font-size="14" fill="#333" font-weight="bold">Electric Generator</text>
      
      <!-- Simple generator diagram -->
      <g transform="translate(25,30)">
        <!-- Magnet poles -->
        <rect x="0" y="10" width="15" height="30" fill="url(#magnetGrad)" rx="3"/>
        <rect x="35" y="10" width="15" height="30" fill="url(#magnetGrad)" rx="3"/>
        <text x="7" y="30" text-anchor="middle" font-family="Arial, sans-serif" font-size="10" fill="white" font-weight="bold">N</text>
        <text x="42" y="30" text-anchor="middle" font-family="Arial, sans-serif" font-size="10" fill="white" font-weight="bold">S</text>
        
        <!-- Rotating coil -->
        <g transform="translate(25,25) rotate(45)">
          <rect x="-8" y="-6" width="16" height="12" fill="none" stroke="#e74c3c" stroke-width="2" rx="2"/>
        </g>
        
        <!-- Rotation indicator -->
        <path d="M20 15 A10 10 0 0 1 30 15" fill="none" stroke="#333" stroke-width="1" marker-end="url(#arrowhead)"/>
        
        <!-- Output terminals -->
        <circle cx="55" cy="25" r="2" fill="#333"/>
        <circle cx="65" cy="25" r="2" fill="#333"/>
        <line x1="55" y1="25" x2="65" y2="25" stroke="#333" stroke-width="2"/>
      </g>
      
      <text x="50" y="90" text-anchor="middle" font-family="Arial, sans-serif" font-size="10" fill="#666">Mechanical → Electrical</text>
      <text x="50" y="105" text-anchor="middle" font-family="Arial, sans-serif" font-size="10" fill="#666">Uses Fleming's Right Rule</text>
    </g>
    
    <!-- Motor -->
    <g transform="translate(600,380)">
      <text x="50" y="20" text-anchor="middle" font-family="Arial, sans-serif" font-size="14" fill="#333" font-weight="bold">Electric Motor</text>
      
      <!-- Simple motor diagram -->
      <g transform="translate(25,30)">
        <!-- Magnet poles -->
        <rect x="0" y="10" width="15" height="30" fill="url(#magnetGrad)" rx="3"/>
        <rect x="35" y="10" width="15" height="30" fill="url(#magnetGrad)" rx="3"/>
        <text x="7" y="30" text-anchor="middle" font-family="Arial, sans-serif" font-size="10" fill="white" font-weight="bold">N</text>
        <text x="42" y="30" text-anchor="middle" font-family="Arial, sans-serif" font-size="10" fill="white" font-weight="bold">S</text>
        
        <!-- Current-carrying conductor -->
        <rect x="20" y="20" width="10" height="10" fill="none" stroke="#e74c3c" stroke-width="2" rx="2"/>
        <path d="M25 15 L25 5" stroke="#e74c3c" stroke-width="2" marker-end="url(#currentArrow)"/>
        
        <!-- Force direction -->
        <path d="M25 35 L25 45" stroke="#27ae60" stroke-width="2" marker-end="url(#arrowhead)"/>
        <text x="30" y="50" font-family="Arial, sans-serif" font-size="10" fill="#27ae60">F</text>
        
        <!-- Input terminals -->
        <circle cx="55" cy="25" r="2" fill="#333"/>
        <circle cx="65" cy="25" r="2" fill="#333"/>
        <line x1="55" y1="25" x2="65" y2="25" stroke="#333" stroke-width="2"/>
        <text x="60" y="35" text-anchor="middle" font-family="Arial, sans-serif" font-size="8" fill="#333">DC</text>
      </g>
      
      <text x="50" y="90" text-anchor="middle" font-family="Arial, sans-serif" font-size="10" fill="#666">Electrical → Mechanical</text>
      <text x="50" y="105" text-anchor="middle" font-family="Arial, sans-serif" font-size="10" fill="#666">Uses Fleming's Left Rule</text>
    </g>
    
    <!-- Transformer -->
    <g transform="translate(750,380)">
      <text x="50" y="20" text-anchor="middle" font-family="Arial, sans-serif" font-size="14" fill="#333" font-weight="bold">Transformer</text>
      
      <!-- Simple transformer diagram -->
      <g transform="translate(15,30)">
        <!-- Core -->
        <rect x="30" y="15" width="8" height="30" fill="#7f8c8d" rx="2"/>
        <rect x="42" y="15" width="8" height="30" fill="#7f8c8d" rx="2"/>
        
        <!-- Primary coil -->
        <ellipse cx="20" cy="30" rx="8" ry="5" fill="none" stroke="#3498db" stroke-width="2"/>
        <ellipse cx="20" cy="35" rx="8" ry="5" fill="none" stroke="#3498db" stroke-width="2"/>
        
        <!-- Secondary coil -->
        <ellipse cx="60" cy="25" rx="8" ry="4" fill="none" stroke="#e74c3c" stroke-width="2"/>
        <ellipse cx="60" cy="30" rx="8" ry="4" fill="none" stroke="#e74c3c" stroke-width="2"/>
        <ellipse cx="60" cy="35" rx="8" ry="4" fill="none" stroke="#e74c3c" stroke-width="2"/>
        <ellipse cx="60" cy="40" rx="8" ry="4" fill="none" stroke="#e74c3c" stroke-width="2"/>
        
        <!-- AC input -->
        <path d="M0 30 Q5 25 10 30 Q15 35 20 30" fill="none" stroke="#3498db" stroke-width="2"/>
        
        <!-- AC output -->
        <path d="M60 32 Q65 27 70 32 Q75 37 80 32" fill="none" stroke="#e74c3c" stroke-width="2"/>
      </g>
      
      <text x="50" y="90" text-anchor="middle" font-family="Arial, sans-serif" font-size="10" fill="#666">Mutual Induction</text>
      <text x="50" y="105" text-anchor="middle" font-family="Arial, sans-serif" font-size="10" fill="#666">Uses Faraday's Law</text>
    </g>
  </g>
  
  <!-- Summary of Laws -->
  <g id="summary">
    <rect x="450" y="520" width="300" height="120" fill="#ecf0f1" stroke="#bdc3c7" stroke-width="2" rx="10"/>
    <text x="600" y="545" text-anchor="middle" font-family="Arial, sans-serif" font-size="16" font-weight="bold" fill="#2c3e50">
      Summary of Electromagnetic Laws
    </text>
    
    <g transform="translate(470,560)">
      <text x="0" y="15" font-family="Arial, sans-serif" font-size="12" fill="#2c3e50" font-weight="bold">• Faraday's Law:</text>
      <text x="20" y="30" font-family="Arial, sans-serif" font-size="11" fill="#7f8c8d">EMF induced proportional to rate of flux change</text>
      
      <text x="0" y="50" font-family="Arial, sans-serif" font-size="12" fill="#2c3e50" font-weight="bold">• Lenz's Law:</text>
      <text x="20" y="65" font-family="Arial, sans-serif" font-size="11" fill="#7f8c8d">Induced EMF opposes the change causing it</text>
      
      <text x="0" y="85" font-family="Arial, sans-serif" font-size="12" fill="#2c3e50" font-weight="bold">• Fleming's Rules:</text>
      <text x="20" y="100" font-family="Arial, sans-serif" font-size="11" fill="#7f8c8d">Determine directions in generators and motors</text>
    </g>
  </g>
  
  <!-- Conservation of Energy Note -->
  <g id="energy-conservation">
    <rect x="50" y="650" width="500" height="60" fill="#fff3cd" stroke="#ffc107" stroke-width="2" rx="5"/>
    <text x="300" y="675" text-anchor="middle" font-family="Arial, sans-serif" font-size="14" font-weight="bold" fill="#856404">
      Energy Conservation Principle
    </text>
    <text x="300" y="695" text-anchor="middle" font-family="Arial, sans-serif" font-size="12" fill="#856404">
      Lenz's law ensures energy is conserved - work must be done against induced EMF
    </text>
  </g>
  
  <!-- Mathematical Relations -->
  <g id="math-relations">
    <rect x="650" y="650" width="500" height="60" fill="#d1ecf1" stroke="#17a2b8" stroke-width="2" rx="5"/>
    <text x="900" y="675" text-anchor="middle" font-family="Arial, sans-serif" font-size="14" font-weight="bold" fill="#0c5460">
      Key Mathematical Relations
    </text>
    <text x="900" y="695" text-anchor="middle" font-family="Arial, sans-serif" font-size="12" fill="#0c5460">
      ε = -N(dΦ/dt) = -N d(BA cos θ)/dt = BLv (for moving conductor)
    </text>
  </g>
</svg>