<svg viewBox="0 0 1200 800" xmlns="http://www.w3.org/2000/svg">
  <defs>
    <linearGradient id="airCoreGrad" x1="0%" y1="0%" x2="100%" y2="100%">
      <stop offset="0%" style="stop-color:#3498db;stop-opacity:1" />
      <stop offset="100%" style="stop-color:#2980b9;stop-opacity:1" />
    </linearGradient>
    <linearGradient id="ironCoreGrad" x1="0%" y1="0%" x2="100%" y2="100%">
      <stop offset="0%" style="stop-color:#95a5a6;stop-opacity:1" />
      <stop offset="100%" style="stop-color:#7f8c8d;stop-opacity:1" />
    </linearGradient>
    <linearGradient id="ferriteCoreGrad" x1="0%" y1="0%" x2="100%" y2="100%">
      <stop offset="0%" style="stop-color:#8e44ad;stop-opacity:1" />
      <stop offset="100%" style="stop-color:#6c3483;stop-opacity:1" />
    </linearGradient>
    <linearGradient id="toroidGrad" x1="0%" y1="0%" x2="100%" y2="100%">
      <stop offset="0%" style="stop-color:#e74c3c;stop-opacity:1" />
      <stop offset="100%" style="stop-color:#c0392b;stop-opacity:1" />
    </linearGradient>
    <linearGradient id="variableGrad" x1="0%" y1="0%" x2="100%" y2="100%">
      <stop offset="0%" style="stop-color:#f39c12;stop-opacity:1" />
      <stop offset="100%" style="stop-color:#d68910;stop-opacity:1" />
    </linearGradient>
    <marker id="arrowhead" markerWidth="10" markerHeight="7" refX="10" refY="3.5" orient="auto">
      <polygon points="0 0, 10 3.5, 0 7" fill="#333" />
    </marker>
  </defs>
  
  <!-- Background -->
  <rect width="1200" height="800" fill="#f8f9fa"/>
  
  <!-- Title -->
  <text x="600" y="30" text-anchor="middle" font-family="Arial, sans-serif" font-size="24" font-weight="bold" fill="#2c3e50">
    Inductor Types and Applications
  </text>
  
  <!-- Air-Core Inductors -->
  <g id="air-core">
    <text x="150" y="70" text-anchor="middle" font-family="Arial, sans-serif" font-size="16" font-weight="bold" fill="#34495e">
      Air-Core Inductors
    </text>
    
    <!-- Air-core solenoid -->
    <g transform="translate(75,90)">
      <ellipse cx="75" cy="15" rx="35" ry="10" fill="none" stroke="url(#airCoreGrad)" stroke-width="4"/>
      <ellipse cx="75" cy="25" rx="35" ry="10" fill="none" stroke="url(#airCoreGrad)" stroke-width="4"/>
      <ellipse cx="75" cy="35" rx="35" ry="10" fill="none" stroke="url(#airCoreGrad)" stroke-width="4"/>
      <ellipse cx="75" cy="45" rx="35" ry="10" fill="none" stroke="url(#airCoreGrad)" stroke-width="4"/>
      <ellipse cx="75" cy="55" rx="35" ry="10" fill="none" stroke="url(#airCoreGrad)" stroke-width="4"/>
      <ellipse cx="75" cy="65" rx="35" ry="10" fill="none" stroke="url(#airCoreGrad)" stroke-width="4"/>
      
      <!-- Air indication -->
      <text x="75" y="40" text-anchor="middle" font-family="Arial, sans-serif" font-size="12" fill="#85c1e9" font-weight="bold">AIR</text>
      
      <!-- Terminals -->
      <circle cx="35" cy="25" r="3" fill="#333"/>
      <circle cx="115" cy="55" r="3" fill="#333"/>
      <line x1="25" y1="25" x2="35" y2="25" stroke="#333" stroke-width="3"/>
      <line x1="115" y1="55" x2="125" y2="55" stroke="#333" stroke-width="3"/>
    </g>
    
    <!-- Characteristics -->
    <g transform="translate(25,180)">
      <rect x="0" y="0" width="250" height="120" fill="#ebf3fd" stroke="#3498db" stroke-width="2" rx="5"/>
      <text x="125" y="20" text-anchor="middle" font-family="Arial, sans-serif" font-size="14" fill="#1f4e79" font-weight="bold">
        Air-Core Characteristics
      </text>
      
      <g transform="translate(15,30)">
        <text x="0" y="15" font-family="Arial, sans-serif" font-size="12" fill="#2c3e50">• Low inductance (μH to mH)</text>
        <text x="0" y="30" font-family="Arial, sans-serif" font-size="12" fill="#2c3e50">• Linear characteristics</text>
        <text x="0" y="45" font-family="Arial, sans-serif" font-size="12" fill="#2c3e50">• No magnetic saturation</text>
        <text x="0" y="60" font-family="Arial, sans-serif" font-size="12" fill="#2c3e50">• High frequency operation</text>
        <text x="0" y="75" font-family="Arial, sans-serif" font-size="12" fill="#2c3e50">• Low losses</text>
      </g>
    </g>
  </g>
  
  <!-- Iron-Core Inductors -->
  <g id="iron-core">
    <text x="400" y="70" text-anchor="middle" font-family="Arial, sans-serif" font-size="16" font-weight="bold" fill="#34495e">
      Iron-Core Inductors
    </text>
    
    <!-- Iron-core inductor -->
    <g transform="translate(325,90)">
      <!-- Iron core -->
      <rect x="50" y="10" width="50" height="60" fill="url(#ironCoreGrad)" rx="5"/>
      <text x="75" y="45" text-anchor="middle" font-family="Arial, sans-serif" font-size="10" fill="white" font-weight="bold">IRON</text>
      
      <!-- Coil windings -->
      <ellipse cx="35" cy="25" rx="20" ry="8" fill="none" stroke="url(#airCoreGrad)" stroke-width="4"/>
      <ellipse cx="35" cy="35" rx="20" ry="8" fill="none" stroke="url(#airCoreGrad)" stroke-width="4"/>
      <ellipse cx="35" cy="45" rx="20" ry="8" fill="none" stroke="url(#airCoreGrad)" stroke-width="4"/>
      <ellipse cx="35" cy="55" rx="20" ry="8" fill="none" stroke="url(#airCoreGrad)" stroke-width="4"/>
      
      <ellipse cx="115" cy="25" rx="20" ry="8" fill="none" stroke="url(#airCoreGrad)" stroke-width="4"/>
      <ellipse cx="115" cy="35" rx="20" ry="8" fill="none" stroke="url(#airCoreGrad)" stroke-width="4"/>
      <ellipse cx="115" cy="45" rx="20" ry="8" fill="none" stroke="url(#airCoreGrad)" stroke-width="4"/>
      <ellipse cx="115" cy="55" rx="20" ry="8" fill="none" stroke="url(#airCoreGrad)" stroke-width="4"/>
      
      <!-- Terminals -->
      <circle cx="10" cy="35" r="3" fill="#333"/>
      <circle cx="140" cy="45" r="3" fill="#333"/>
      <line x1="0" y1="35" x2="10" y2="35" stroke="#333" stroke-width="3"/>
      <line x1="140" y1="45" x2="150" y2="45" stroke="#333" stroke-width="3"/>
    </g>
    
    <!-- Characteristics -->
    <g transform="translate(275,180)">
      <rect x="0" y="0" width="250" height="120" fill="#f4f6f7" stroke="#95a5a6" stroke-width="2" rx="5"/>
      <text x="125" y="20" text-anchor="middle" font-family="Arial, sans-serif" font-size="14" fill="#2c3e50" font-weight="bold">
        Iron-Core Characteristics
      </text>
      
      <g transform="translate(15,30)">
        <text x="0" y="15" font-family="Arial, sans-serif" font-size="12" fill="#2c3e50">• High inductance (mH to H)</text>
        <text x="0" y="30" font-family="Arial, sans-serif" font-size="12" fill="#2c3e50">• Non-linear (saturation)</text>
        <text x="0" y="45" font-family="Arial, sans-serif" font-size="12" fill="#2c3e50">• Hysteresis losses</text>
        <text x="0" y="60" font-family="Arial, sans-serif" font-size="12" fill="#2c3e50">• Low frequency operation</text>
        <text x="0" y="75" font-family="Arial, sans-serif" font-size="12" fill="#2c3e50">• High permeability (μ = 1000-10000)</text>
      </g>
    </g>
  </g>
  
  <!-- Ferrite-Core Inductors -->
  <g id="ferrite-core">
    <text x="650" y="70" text-anchor="middle" font-family="Arial, sans-serif" font-size="16" font-weight="bold" fill="#34495e">
      Ferrite-Core Inductors
    </text>
    
    <!-- Ferrite-core inductor -->
    <g transform="translate(575,90)">
      <!-- Ferrite core -->
      <rect x="50" y="10" width="50" height="60" fill="url(#ferriteCoreGrad)" rx="5"/>
      <text x="75" y="40" text-anchor="middle" font-family="Arial, sans-serif" font-size="9" fill="white" font-weight="bold">FERRITE</text>
      
      <!-- Coil windings -->
      <ellipse cx="35" cy="25" rx="20" ry="8" fill="none" stroke="url(#airCoreGrad)" stroke-width="4"/>
      <ellipse cx="35" cy="35" rx="20" ry="8" fill="none" stroke="url(#airCoreGrad)" stroke-width="4"/>
      <ellipse cx="35" cy="45" rx="20" ry="8" fill="none" stroke="url(#airCoreGrad)" stroke-width="4"/>
      <ellipse cx="35" cy="55" rx="20" ry="8" fill="none" stroke="url(#airCoreGrad)" stroke-width="4"/>
      
      <ellipse cx="115" cy="25" rx="20" ry="8" fill="none" stroke="url(#airCoreGrad)" stroke-width="4"/>
      <ellipse cx="115" cy="35" rx="20" ry="8" fill="none" stroke="url(#airCoreGrad)" stroke-width="4"/>
      <ellipse cx="115" cy="45" rx="20" ry="8" fill="none" stroke="url(#airCoreGrad)" stroke-width="4"/>
      <ellipse cx="115" cy="55" rx="20" ry="8" fill="none" stroke="url(#airCoreGrad)" stroke-width="4"/>
      
      <!-- Terminals -->
      <circle cx="10" cy="35" r="3" fill="#333"/>
      <circle cx="140" cy="45" r="3" fill="#333"/>
      <line x1="0" y1="35" x2="10" y2="35" stroke="#333" stroke-width="3"/>
      <line x1="140" y1="45" x2="150" y2="45" stroke="#333" stroke-width="3"/>
    </g>
    
    <!-- Characteristics -->
    <g transform="translate(525,180)">
      <rect x="0" y="0" width="250" height="120" fill="#f4ecf7" stroke="#8e44ad" stroke-width="2" rx="5"/>
      <text x="125" y="20" text-anchor="middle" font-family="Arial, sans-serif" font-size="14" fill="#6c3483" font-weight="bold">
        Ferrite-Core Characteristics
      </text>
      
      <g transform="translate(15,30)">
        <text x="0" y="15" font-family="Arial, sans-serif" font-size="12" fill="#2c3e50">• Medium inductance (μH to mH)</text>
        <text x="0" y="30" font-family="Arial, sans-serif" font-size="12" fill="#2c3e50">• High frequency operation</text>
        <text x="0" y="45" font-family="Arial, sans-serif" font-size="12" fill="#2c3e50">• Low eddy current losses</text>
        <text x="0" y="60" font-family="Arial, sans-serif" font-size="12" fill="#2c3e50">• Temperature stable</text>
        <text x="0" y="75" font-family="Arial, sans-serif" font-size="12" fill="#2c3e50">• High permeability (μ = 100-1000)</text>
      </g>
    </g>
  </g>
  
  <!-- Toroidal Inductors -->
  <g id="toroidal">
    <text x="900" y="70" text-anchor="middle" font-family="Arial, sans-serif" font-size="16" font-weight="bold" fill="#34495e">
      Toroidal Inductors
    </text>
    
    <!-- Toroidal inductor -->
    <g transform="translate(825,90)">
      <!-- Toroidal core -->
      <circle cx="75" cy="40" r="35" fill="none" stroke="url(#ironCoreGrad)" stroke-width="15"/>
      
      <!-- Windings around torus -->
      <g transform="translate(75,40)">
        <ellipse cx="-25" cy="0" rx="8" ry="25" fill="none" stroke="url(#toroidGrad)" stroke-width="3"/>
        <ellipse cx="-15" cy="0" rx="8" ry="25" fill="none" stroke="url(#toroidGrad)" stroke-width="3"/>
        <ellipse cx="-5" cy="0" rx="8" ry="25" fill="none" stroke="url(#toroidGrad)" stroke-width="3"/>
        <ellipse cx="5" cy="0" rx="8" ry="25" fill="none" stroke="url(#toroidGrad)" stroke-width="3"/>
        <ellipse cx="15" cy="0" rx="8" ry="25" fill="none" stroke="url(#toroidGrad)" stroke-width="3"/>
        <ellipse cx="25" cy="0" rx="8" ry="25" fill="none" stroke="url(#toroidGrad)" stroke-width="3"/>
      </g>
      
      <!-- Terminals -->
      <circle cx="45" cy="15" r="3" fill="#333"/>
      <circle cx="105" cy="65" r="3" fill="#333"/>
      <line x1="35" y1="15" x2="45" y2="15" stroke="#333" stroke-width="3"/>
      <line x1="105" y1="65" x2="115" y2="65" stroke="#333" stroke-width="3"/>
    </g>
    
    <!-- Characteristics -->
    <g transform="translate(775,180)">
      <rect x="0" y="0" width="250" height="120" fill="#fdeaea" stroke="#e74c3c" stroke-width="2" rx="5"/>
      <text x="125" y="20" text-anchor="middle" font-family="Arial, sans-serif" font-size="14" fill="#c0392b" font-weight="bold">
        Toroidal Characteristics
      </text>
      
      <g transform="translate(15,30)">
        <text x="0" y="15" font-family="Arial, sans-serif" font-size="12" fill="#2c3e50">• Closed magnetic circuit</text>
        <text x="0" y="30" font-family="Arial, sans-serif" font-size="12" fill="#2c3e50">• Low external field leakage</text>
        <text x="0" y="45" font-family="Arial, sans-serif" font-size="12" fill="#2c3e50">• High efficiency</text>
        <text x="0" y="60" font-family="Arial, sans-serif" font-size="12" fill="#2c3e50">• Compact size</text>
        <text x="0" y="75" font-family="Arial, sans-serif" font-size="12" fill="#2c3e50">• Low electromagnetic interference</text>
      </g>
    </g>
  </g>
  
  <!-- Variable Inductors -->
  <g id="variable">
    <text x="200" y="330" text-anchor="middle" font-family="Arial, sans-serif" font-size="16" font-weight="bold" fill="#34495e">
      Variable Inductors
    </text>
    
    <!-- Variable inductor -->
    <g transform="translate(125,350)">
      <!-- Fixed coil -->
      <ellipse cx="75" cy="15" rx="35" ry="10" fill="none" stroke="url(#variableGrad)" stroke-width="4"/>
      <ellipse cx="75" cy="25" rx="35" ry="10" fill="none" stroke="url(#variableGrad)" stroke-width="4"/>
      <ellipse cx="75" cy="35" rx="35" ry="10" fill="none" stroke="url(#variableGrad)" stroke-width="4"/>
      <ellipse cx="75" cy="45" rx="35" ry="10" fill="none" stroke="url(#variableGrad)" stroke-width="4"/>
      <ellipse cx="75" cy="55" rx="35" ry="10" fill="none" stroke="url(#variableGrad)" stroke-width="4"/>
      
      <!-- Movable core -->
      <rect x="70" y="0" width="10" height="40" fill="url(#ironCoreGrad)" rx="2"/>
      <path d="M75 0 L75 -15" stroke="#333" stroke-width="2" marker-end="url(#arrowhead)"/>
      <path d="M75 0 L75 15" stroke="#333" stroke-width="2" marker-end="url(#arrowhead)"/>
      <text x="85" y="-5" font-family="Arial, sans-serif" font-size="10" fill="#333">Adjust</text>
      
      <!-- Terminals -->
      <circle cx="35" cy="25" r="3" fill="#333"/>
      <circle cx="115" cy="55" r="3" fill="#333"/>
      <line x1="25" y1="25" x2="35" y2="25" stroke="#333" stroke-width="3"/>
      <line x1="115" y1="55" x2="125" y2="55" stroke="#333" stroke-width="3"/>
    </g>
    
    <!-- Characteristics -->
    <g transform="translate(75,440)">
      <rect x="0" y="0" width="250" height="100" fill="#fef9e7" stroke="#f39c12" stroke-width="2" rx="5"/>
      <text x="125" y="20" text-anchor="middle" font-family="Arial, sans-serif" font-size="14" fill="#d68910" font-weight="bold">
        Variable Characteristics
      </text>
      
      <g transform="translate(15,30)">
        <text x="0" y="15" font-family="Arial, sans-serif" font-size="12" fill="#2c3e50">• Adjustable inductance</text>
        <text x="0" y="30" font-family="Arial, sans-serif" font-size="12" fill="#2c3e50">• Tuning applications</text>
        <text x="0" y="45" font-family="Arial, sans-serif" font-size="12" fill="#2c3e50">• Frequency control</text>
        <text x="0" y="60" font-family="Arial, sans-serif" font-size="12" fill="#2c3e50">• Filter adjustment</text>
      </g>
    </g>
  </g>
  
  <!-- SMD Inductors -->
  <g id="smd">
    <text x="500" y="330" text-anchor="middle" font-family="Arial, sans-serif" font-size="16" font-weight="bold" fill="#34495e">
      SMD/Chip Inductors
    </text>
    
    <!-- SMD inductor -->
    <g transform="translate(425,350)">
      <!-- Chip body -->
      <rect x="50" y="20" width="50" height="25" fill="#34495e" rx="3"/>
      
      <!-- Spiral trace -->
      <g transform="translate(75,32.5)">
        <path d="M-15 0 Q-10 -8 0 -8 Q10 -8 15 0 Q15 8 0 8 Q-5 8 -8 4" 
              fill="none" stroke="#f39c12" stroke-width="2"/>
        <circle cx="0" cy="0" r="2" fill="#f39c12"/>
      </g>
      
      <!-- SMD pads -->
      <rect x="35" y="25" width="15" height="15" fill="#bdc3c7" rx="2"/>
      <rect x="100" y="25" width="15" height="15" fill="#bdc3c7" rx="2"/>
      
      <!-- Size marking -->
      <text x="75" y="60" text-anchor="middle" font-family="Arial, sans-serif" font-size="10" fill="#333">0805/1206/1210</text>
    </g>
    
    <!-- Characteristics -->
    <g transform="translate(375,440)">
      <rect x="0" y="0" width="250" height="100" fill="#eaecee" stroke="#34495e" stroke-width="2" rx="5"/>
      <text x="125" y="20" text-anchor="middle" font-family="Arial, sans-serif" font-size="14" fill="#2c3e50" font-weight="bold">
        SMD Characteristics
      </text>
      
      <g transform="translate(15,30)">
        <text x="0" y="15" font-family="Arial, sans-serif" font-size="12" fill="#2c3e50">• Compact size</text>
        <text x="0" y="30" font-family="Arial, sans-serif" font-size="12" fill="#2c3e50">• High frequency capability</text>
        <text x="0" y="45" font-family="Arial, sans-serif" font-size="12" fill="#2c3e50">• Automated assembly</text>
        <text x="0" y="60" font-family="Arial, sans-serif" font-size="12" fill="#2c3e50">• Low profile (nH to μH)</text>
      </g>
    </g>
  </g>
  
  <!-- Chokes -->
  <g id="chokes">
    <text x="800" y="330" text-anchor="middle" font-family="Arial, sans-serif" font-size="16" font-weight="bold" fill="#34495e">
      Chokes (RF Inductors)
    </text>
    
    <!-- RF choke -->
    <g transform="translate(725,350)">
      <!-- Ferrite bead -->
      <ellipse cx="75" cy="32" rx="40" ry="15" fill="url(#ferriteCoreGrad)" opacity="0.8"/>
      
      <!-- Wire through bead -->
      <line x1="30" y1="32" x2="120" y2="32" stroke="#d35400" stroke-width="6"/>
      
      <!-- Multiple turns indication -->
      <g transform="translate(75,32)">
        <circle cx="-10" cy="0" r="3" fill="none" stroke="#d35400" stroke-width="2"/>
        <circle cx="0" cy="0" r="3" fill="none" stroke="#d35400" stroke-width="2"/>
        <circle cx="10" cy="0" r="3" fill="none" stroke="#d35400" stroke-width="2"/>
      </g>
      
      <!-- Terminals -->
      <circle cx="25" cy="32" r="3" fill="#333"/>
      <circle cx="125" cy="32" r="3" fill="#333"/>
      <line x1="15" y1="32" x2="25" y2="32" stroke="#333" stroke-width="3"/>
      <line x1="125" y1="32" x2="135" y2="32" stroke="#333" stroke-width="3"/>
    </g>
    
    <!-- Characteristics -->
    <g transform="translate(675,440)">
      <rect x="0" y="0" width="250" height="100" fill="#f4ecf7" stroke="#8e44ad" stroke-width="2" rx="5"/>
      <text x="125" y="20" text-anchor="middle" font-family="Arial, sans-serif" font-size="14" fill="#6c3483" font-weight="bold">
        Choke Characteristics
      </text>
      
      <g transform="translate(15,30)">
        <text x="0" y="15" font-family="Arial, sans-serif" font-size="12" fill="#2c3e50">• High impedance at RF</text>
        <text x="0" y="30" font-family="Arial, sans-serif" font-size="12" fill="#2c3e50">• Filter unwanted frequencies</text>
        <text x="0" y="45" font-family="Arial, sans-serif" font-size="12" fill="#2c3e50">• EMI suppression</text>
        <text x="0" y="60" font-family="Arial, sans-serif" font-size="12" fill="#2c3e50">• Wide frequency range</text>
      </g>
    </g>
  </g>
  
  <!-- Applications -->
  <g id="applications">
    <text x="600" y="580" text-anchor="middle" font-family="Arial, sans-serif" font-size="18" font-weight="bold" fill="#2c3e50">
      Applications of Different Inductor Types
    </text>
    
    <g transform="translate(50,600)">
      <rect x="0" y="0" width="1100" height="180" fill="white" stroke="#dee2e6" stroke-width="2" rx="8"/>
      
      <!-- Application categories -->
      <g transform="translate(30,30)">
        <!-- Power Applications -->
        <g transform="translate(0,0)">
          <rect x="0" y="0" width="200" height="120" fill="#d5e8d4" stroke="#27ae60" stroke-width="2" rx="5"/>
          <text x="100" y="20" text-anchor="middle" font-family="Arial, sans-serif" font-size="14" fill="#1e8449" font-weight="bold">
            Power Applications
          </text>
          
          <g transform="translate(15,35)">
            <text x="0" y="15" font-family="Arial, sans-serif" font-size="12" fill="#2c3e50" font-weight="bold">Iron-Core:</text>
            <text x="0" y="30" font-family="Arial, sans-serif" font-size="11" fill="#666">• Power transformers</text>
            <text x="0" y="42" font-family="Arial, sans-serif" font-size="11" fill="#666">• Chokes in power supplies</text>
            <text x="0" y="54" font-family="Arial, sans-serif" font-size="11" fill="#666">• Energy storage</text>
            <text x="0" y="66" font-family="Arial, sans-serif" font-size="11" fill="#666">• Current limiting</text>
          </g>
        </g>
        
        <!-- RF/HF Applications -->
        <g transform="translate(220,0)">
          <rect x="0" y="0" width="200" height="120" fill="#dbeafe" stroke="#3498db" stroke-width="2" rx="5"/>
          <text x="100" y="20" text-anchor="middle" font-family="Arial, sans-serif" font-size="14" fill="#1f4e79" font-weight="bold">
            RF/HF Applications
          </text>
          
          <g transform="translate(15,35)">
            <text x="0" y="15" font-family="Arial, sans-serif" font-size="12" fill="#2c3e50" font-weight="bold">Air/Ferrite-Core:</text>
            <text x="0" y="30" font-family="Arial, sans-serif" font-size="11" fill="#666">• RF oscillators</text>
            <text x="0" y="42" font-family="Arial, sans-serif" font-size="11" fill="#666">• Antenna tuning</text>
            <text x="0" y="54" font-family="Arial, sans-serif" font-size="11" fill="#666">• Filter circuits</text>
            <text x="0" y="66" font-family="Arial, sans-serif" font-size="11" fill="#666">• EMI suppression</text>
          </g>
        </g>
        
        <!-- Precision Applications -->
        <g transform="translate(440,0)">
          <rect x="0" y="0" width="200" height="120" fill="#fef7cd" stroke="#f39c12" stroke-width="2" rx="5"/>
          <text x="100" y="20" text-anchor="middle" font-family="Arial, sans-serif" font-size="14" fill="#b7950b" font-weight="bold">
            Precision Applications
          </text>
          
          <g transform="translate(15,35)">
            <text x="0" y="15" font-family="Arial, sans-serif" font-size="12" fill="#2c3e50" font-weight="bold">Variable:</text>
            <text x="0" y="30" font-family="Arial, sans-serif" font-size="11" fill="#666">• Tuned circuits</text>
            <text x="0" y="42" font-family="Arial, sans-serif" font-size="11" fill="#666">• Frequency adjustment</text>
            <text x="0" y="54" font-family="Arial, sans-serif" font-size="11" fill="#666">• Matching networks</text>
            <text x="0" y="66" font-family="Arial, sans-serif" font-size="11" fill="#666">• Calibration circuits</text>
          </g>
        </g>
        
        <!-- Digital Applications -->
        <g transform="translate(660,0)">
          <rect x="0" y="0" width="200" height="120" fill="#f4ecf7" stroke="#8e44ad" stroke-width="2" rx="5"/>
          <text x="100" y="20" text-anchor="middle" font-family="Arial, sans-serif" font-size="14" fill="#6c3483" font-weight="bold">
            Digital Applications
          </text>
          
          <g transform="translate(15,35)">
            <text x="0" y="15" font-family="Arial, sans-serif" font-size="12" fill="#2c3e50" font-weight="bold">SMD/Ferrite:</text>
            <text x="0" y="30" font-family="Arial, sans-serif" font-size="11" fill="#666">• Switch-mode supplies</text>
            <text x="0" y="42" font-family="Arial, sans-serif" font-size="11" fill="#666">• Digital filtering</text>
            <text x="0" y="54" font-family="Arial, sans-serif" font-size="11" fill="#666">• EMI filtering</text>
            <text x="0" y="66" font-family="Arial, sans-serif" font-size="11" fill="#666">• DC-DC converters</text>
          </g>
        </g>
        
        <!-- Special Applications -->
        <g transform="translate(880,0)">
          <rect x="0" y="0" width="170" height="120" fill="#fdeaea" stroke="#e74c3c" stroke-width="2" rx="5"/>
          <text x="85" y="20" text-anchor="middle" font-family="Arial, sans-serif" font-size="14" fill="#c0392b" font-weight="bold">
            Special Applications
          </text>
          
          <g transform="translate(15,35)">
            <text x="0" y="15" font-family="Arial, sans-serif" font-size="12" fill="#2c3e50" font-weight="bold">Toroidal:</text>
            <text x="0" y="30" font-family="Arial, sans-serif" font-size="11" fill="#666">• Current transformers</text>
            <text x="0" y="42" font-family="Arial, sans-serif" font-size="11" fill="#666">• Common mode chokes</text>
            <text x="0" y="54" font-family="Arial, sans-serif" font-size="11" fill="#666">• Pulse transformers</text>
            <text x="0" y="66" font-family="Arial, sans-serif" font-size="11" fill="#666">• Flyback transformers</text>
          </g>
        </g>
      </g>
    </g>
  </g>
</svg>