<svg viewBox="0 0 1200 800" xmlns="http://www.w3.org/2000/svg">
  <defs>
    <style>
      .title-text { font-family: 'Segoe UI', Arial, sans-serif; font-size: 24px; font-weight: bold; fill: #1e3a8a; }
      .subtitle-text { font-family: 'Segoe UI', Arial, sans-serif; font-size: 18px; font-weight: 600; fill: #1e40af; }
      .label-text { font-family: 'Segoe UI', Arial, sans-serif; font-size: 14px; font-weight: 500; fill: #374151; }
      .value-text { font-family: 'Segoe UI', Arial, sans-serif; font-size: 12px; font-weight: 600; fill: #dc2626; }
      .formula-text { font-family: 'Segoe UI', Arial, sans-serif; font-size: 11px; font-weight: 500; fill: #059669; }
      .air-core { stroke: #f59e0b; fill: none; stroke-width: 2; }
      .iron-core { stroke: #7c3aed; fill: #6b7280; stroke-width: 2; }
      .ferrite-core { stroke: #dc2626; fill: #374151; stroke-width: 2; }
      .toroidal { stroke: #16a34a; fill: none; stroke-width: 2; }
      .coil-wire { stroke: #4338ca; fill: none; stroke-width: 2; }
      .symbol-line { stroke: #374151; fill: none; stroke-width: 2; }
    </style>
    
    <marker id="arrowhead" markerWidth="10" markerHeight="7" refX="9" refY="3.5" orient="auto">
      <polygon points="0 0, 10 3.5, 0 7" fill="#374151" />
    </marker>
  </defs>

  <!-- Background -->
  <rect width="1200" height="800" fill="#f8fafc"/>

  <!-- Main Title -->
  <text x="600" y="30" text-anchor="middle" class="title-text">Types of Inductors &amp;amp; Their Applications</text>
  <text x="600" y="55" text-anchor="middle" class="subtitle-text">Core Material Classification &amp;amp; Usage</text>

  <!-- Air Core Inductors -->
  <g id="airCoreSection" transform="translate(50, 100)">
    <rect x="0" y="0" width="250" height="200" fill="#fef7cd" stroke="#f59e0b" stroke-width="2" rx="5"/>
    <text x="125" y="25" text-anchor="middle" class="subtitle-text">AIR CORE</text>
    
    <!-- Air core coil -->
    <g id="airCoil" transform="translate(50, 50)">
      <ellipse cx="30" cy="25" rx="6" ry="15" class="air-core"/>
      <ellipse cx="40" cy="25" rx="6" ry="15" class="air-core"/>
      <ellipse cx="50" cy="25" rx="6" ry="15" class="air-core"/>
      <ellipse cx="60" cy="25" rx="6" ry="15" class="air-core"/>
      <ellipse cx="70" cy="25" rx="6" ry="15" class="air-core"/>
      <ellipse cx="80" cy="25" rx="6" ry="15" class="air-core"/>
      <ellipse cx="90" cy="25" rx="6" ry="15" class="air-core"/>
      <ellipse cx="100" cy="25" rx="6" ry="15" class="air-core"/>
      <ellipse cx="110" cy="25" rx="6" ry="15" class="air-core"/>
      <ellipse cx="120" cy="25" rx="6" ry="15" class="air-core"/>
      
      <line x1="24" y1="25" x2="10" y2="25" class="coil-wire"/>
      <line x1="126" y1="25" x2="140" y2="25" class="coil-wire"/>
      
      <text x="75" y="60" text-anchor="middle" class="formula-text">L = μ₀n²A/l</text>
    </g>
    
    <text x="125" y="120" text-anchor="middle" class="label-text">Characteristics:</text>
    <text x="10" y="140" class="formula-text">• No saturation</text>
    <text x="10" y="155" class="formula-text">• Linear with current</text>
    <text x="10" y="170" class="formula-text">• High frequency use</text>
    <text x="10" y="185" class="formula-text">• Q factor: 50-200</text>
  </g>

  <!-- Iron Core Inductors -->
  <g id="ironCoreSection" transform="translate(320, 100)">
    <rect x="0" y="0" width="250" height="200" fill="#f3f4ff" stroke="#7c3aed" stroke-width="2" rx="5"/>
    <text x="125" y="25" text-anchor="middle" class="subtitle-text">IRON CORE</text>
    
    <!-- Iron core inductor -->
    <g id="ironCoil" transform="translate(50, 50)">
      <rect x="60" y="15" width="30" height="20" fill="#6b7280" stroke="#374151" stroke-width="2" rx="2"/>
      <text x="75" y="27" text-anchor="middle" class="formula-text" fill="white">Fe</text>
      
      <ellipse cx="50" cy="25" rx="8" ry="12" class="iron-core"/>
      <ellipse cx="100" cy="25" rx="8" ry="12" class="iron-core"/>
      
      <line x1="42" y1="25" x2="25" y2="25" class="coil-wire"/>
      <line x1="108" y1="25" x2="125" y2="25" class="coil-wire"/>
      
      <text x="75" y="60" text-anchor="middle" class="formula-text">L = μ₀μᵣn²A/l</text>
      <text x="75" y="75" text-anchor="middle" class="formula-text">μᵣ = 1000-5000</text>
    </g>
    
    <text x="125" y="120" text-anchor="middle" class="label-text">Characteristics:</text>
    <text x="10" y="140" class="formula-text">• High permeability</text>
    <text x="10" y="155" class="formula-text">• Magnetic saturation</text>
    <text x="10" y="170" class="formula-text">• Low frequency use</text>
    <text x="10" y="185" class="formula-text">• Q factor: 10-100</text>
  </g>

  <!-- Ferrite Core Inductors -->
  <g id="ferriteCoreSection" transform="translate(590, 100)">
    <rect x="0" y="0" width="250" height="200" fill="#fef2f2" stroke="#dc2626" stroke-width="2" rx="5"/>
    <text x="125" y="25" text-anchor="middle" class="subtitle-text">FERRITE CORE</text>
    
    <!-- Ferrite core inductor -->
    <g id="ferriteCoil" transform="translate(50, 50)">
      <!-- E-core ferrite -->
      <path d="M 60,15 L 90,15 L 90,18 L 80,18 L 80,23 L 85,23 L 85,27 L 80,27 L 80,32 L 90,32 L 90,35 L 60,35 L 60,32 L 70,32 L 70,27 L 65,27 L 65,23 L 70,23 L 70,18 L 60,18 Z" 
            fill="#374151" stroke="#dc2626" stroke-width="2"/>
      
      <ellipse cx="75" cy="22" rx="5" ry="3" class="ferrite-core"/>
      <ellipse cx="75" cy="28" rx="5" ry="3" class="ferrite-core"/>
      
      <line x1="60" y1="25" x2="40" y2="25" class="coil-wire"/>
      <line x1="90" y1="25" x2="110" y2="25" class="coil-wire"/>
      
      <text x="75" y="60" text-anchor="middle" class="formula-text">High freq capability</text>
    </g>
    
    <text x="125" y="120" text-anchor="middle" class="label-text">Characteristics:</text>
    <text x="10" y="140" class="formula-text">• Moderate permeability</text>
    <text x="10" y="155" class="formula-text">• Low eddy losses</text>
    <text x="10" y="170" class="formula-text">• MHz frequency</text>
    <text x="10" y="185" class="formula-text">• Q factor: 20-200</text>
  </g>

  <!-- Toroidal Inductors -->
  <g id="toroidalSection" transform="translate(860, 100)">
    <rect x="0" y="0" width="250" height="200" fill="#f0fdf4" stroke="#16a34a" stroke-width="2" rx="5"/>
    <text x="125" y="25" text-anchor="middle" class="subtitle-text">TOROIDAL</text>
    
    <!-- Toroidal inductor -->
    <g id="toroidCoil" transform="translate(50, 50)">
      <ellipse cx="75" cy="25" rx="25" ry="18" class="toroidal"/>
      <ellipse cx="75" cy="25" rx="12" ry="10" fill="#f8fafc" stroke="#16a34a" stroke-width="2"/>
      
      <!-- Winding indication -->
      <ellipse cx="60" cy="25" rx="5" ry="3" class="toroidal"/>
      <ellipse cx="90" cy="25" rx="5" ry="3" class="toroidal"/>
      <ellipse cx="75" cy="15" rx="3" ry="5" class="toroidal"/>
      <ellipse cx="75" cy="35" rx="3" ry="5" class="toroidal"/>
      
      <text x="75" y="60" text-anchor="middle" class="formula-text">Closed magnetic path</text>
    </g>
    
    <text x="125" y="120" text-anchor="middle" class="label-text">Characteristics:</text>
    <text x="10" y="140" class="formula-text">• Minimal EMI</text>
    <text x="10" y="155" class="formula-text">• Compact size</text>
    <text x="10" y="170" class="formula-text">• Good efficiency</text>
    <text x="10" y="185" class="formula-text">• Q factor: 30-150</text>
  </g>

  <!-- Applications Table -->
  <g id="applicationsTable" transform="translate(50, 350)">
    <text x="550" y="0" text-anchor="middle" class="subtitle-text">Applications Comparison</text>
    
    <rect x="0" y="20" width="1100" height="300" fill="white" stroke="#d1d5db" stroke-width="1" rx="5"/>
    
    <!-- Table Headers -->
    <rect x="0" y="20" width="1100" height="40" fill="#f3f4f6" stroke="#d1d5db" stroke-width="1"/>
    <line x1="275" y1="20" x2="275" y2="320" stroke="#d1d5db" stroke-width="1"/>
    <line x1="550" y1="20" x2="550" y2="320" stroke="#d1d5db" stroke-width="1"/>
    <line x1="825" y1="20" x2="825" y2="320" stroke="#d1d5db" stroke-width="1"/>
    
    <text x="137" y="45" text-anchor="middle" class="subtitle-text">Air Core</text>
    <text x="412" y="45" text-anchor="middle" class="subtitle-text">Iron Core</text>
    <text x="687" y="45" text-anchor="middle" class="subtitle-text">Ferrite Core</text>
    <text x="962" y="45" text-anchor="middle" class="subtitle-text">Toroidal</text>
    
    <!-- Applications -->
    <g id="appRows">
      <!-- Row 1 -->
      <line x1="0" y1="60" x2="1100" y2="60" stroke="#d1d5db" stroke-width="1"/>
      <text x="20" y="85" class="formula-text">• RF circuits</text>
      <text x="295" y="85" class="formula-text">• Power transformers</text>
      <text x="570" y="85" class="formula-text">• Switch-mode supplies</text>
      <text x="845" y="85" class="formula-text">• Power supplies</text>
      
      <!-- Row 2 -->
      <line x1="0" y1="100" x2="1100" y2="100" stroke="#d1d5db" stroke-width="1"/>
      <text x="20" y="125" class="formula-text">• Tuning circuits</text>
      <text x="295" y="125" class="formula-text">• Audio transformers</text>
      <text x="570" y="125" class="formula-text">• RF chokes</text>
      <text x="845" y="125" class="formula-text">• Filter circuits</text>
      
      <!-- Row 3 -->
      <line x1="0" y1="140" x2="1100" y2="140" stroke="#d1d5db" stroke-width="1"/>
      <text x="20" y="165" class="formula-text">• Antenna matching</text>
      <text x="295" y="165" class="formula-text">• Choke coils</text>
      <text x="570" y="165" class="formula-text">• EMI filters</text>
      <text x="845" y="165" class="formula-text">• Common mode chokes</text>
      
      <!-- Row 4 -->
      <line x1="0" y1="180" x2="1100" y2="180" stroke="#d1d5db" stroke-width="1"/>
      <text x="20" y="205" class="formula-text">• Oscillator circuits</text>
      <text x="295" y="205" class="formula-text">• 50-60 Hz applications</text>
      <text x="570" y="205" class="formula-text">• High freq transformers</text>
      <text x="845" y="205" class="formula-text">• Compact designs</text>
      
      <!-- Frequency Range -->
      <line x1="0" y1="220" x2="1100" y2="220" stroke="#d1d5db" stroke-width="1"/>
      <text x="20" y="240" class="label-text">Frequency Range:</text>
      <text x="20" y="255" class="value-text">MHz - GHz</text>
      <text x="295" y="240" class="label-text">Frequency Range:</text>
      <text x="295" y="255" class="value-text">DC - kHz</text>
      <text x="570" y="240" class="label-text">Frequency Range:</text>
      <text x="570" y="255" class="value-text">kHz - MHz</text>
      <text x="845" y="240" class="label-text">Frequency Range:</text>
      <text x="845" y="255" class="value-text">DC - MHz</text>
      
      <!-- Inductance Range -->
      <line x1="0" y1="260" x2="1100" y2="260" stroke="#d1d5db" stroke-width="1"/>
      <text x="20" y="280" class="label-text">Inductance Range:</text>
      <text x="20" y="295" class="value-text">nH - mH</text>
      <text x="295" y="280" class="label-text">Inductance Range:</text>
      <text x="295" y="295" class="value-text">mH - H</text>
      <text x="570" y="280" class="label-text">Inductance Range:</text>
      <text x="570" y="295" class="value-text">μH - mH</text>
      <text x="845" y="280" class="label-text">Inductance Range:</text>
      <text x="845" y="295" class="value-text">μH - H</text>
    </g>
  </g>

  <!-- Selection Guide -->
  <g id="selectionGuide" transform="translate(50, 680)">
    <text x="550" y="0" text-anchor="middle" class="subtitle-text">Selection Guidelines</text>
    <text x="0" y="25" class="formula-text">1. High Frequency (>1MHz): Choose Air Core or Ferrite - minimal losses at high frequencies</text>
    <text x="0" y="45" class="formula-text">2. High Inductance (&amp;gt;1H): Choose Iron Core - high permeability for large inductance values</text>
    <text x="0" y="65" class="formula-text">3. Space Constrained: Choose Toroidal - compact design with good performance</text>
    <text x="0" y="85" class="formula-text">4. Low EMI Required: Choose Toroidal - closed magnetic path reduces electromagnetic interference</text>
  </g>
</svg>