<svg viewBox="0 0 1800 1400" xmlns="http://www.w3.org/2000/svg">
  <defs>
    <linearGradient id="bgGrad" x1="0%" y1="0%" x2="100%" y2="100%">
      <stop offset="0%" style="stop-color:#f8f9fa;stop-opacity:1" />
      <stop offset="100%" style="stop-color:#e9ecef;stop-opacity:1" />
    </linearGradient>
    <linearGradient id="coreGrad" x1="0%" y1="0%" x2="100%" y2="0%">
      <stop offset="0%" style="stop-color:#6c757d;stop-opacity:0.8" />
      <stop offset="100%" style="stop-color:#adb5bd;stop-opacity:0.8" />
    </linearGradient>
    <linearGradient id="copperGrad" x1="0%" y1="0%" x2="100%" y2="0%">
      <stop offset="0%" style="stop-color:#fd7e14;stop-opacity:0.8" />
      <stop offset="100%" style="stop-color:#ffb366;stop-opacity:0.8" />
    </linearGradient>
    <linearGradient id="airGrad" x1="0%" y1="0%" x2="100%" y2="0%">
      <stop offset="0%" style="stop-color:#007bff;stop-opacity:0.3" />
      <stop offset="100%" style="stop-color:#66b3ff;stop-opacity:0.3" />
    </linearGradient>
    <linearGradient id="ferromagneticGrad" x1="0%" y1="0%" x2="100%" y2="0%">
      <stop offset="0%" style="stop-color:#495057;stop-opacity:0.9" />
      <stop offset="100%" style="stop-color:#6f7478;stop-opacity:0.9" />
    </linearGradient>
    <marker id="arrowhead" markerWidth="10" markerHeight="7" refX="9" refY="3.5" orient="auto">
      <polygon points="0 0, 10 3.5, 0 7" fill="#333" />
    </marker>
    <marker id="fieldArrow" markerWidth="8" markerHeight="6" refX="7" refY="3" orient="auto">
      <polygon points="0 0, 8 3, 0 6" fill="#007bff" />
    </marker>
  </defs>

  <!-- Background -->
  <rect width="1800" height="1400" fill="url(#bgGrad)" />

  <!-- Main Title -->
  <text x="900" y="40" text-anchor="middle" font-family="Arial, sans-serif" font-size="28" font-weight="bold" fill="#2c3e50">
    Inductor Construction, Types &amp; Characteristics
  </text>

  <!-- Basic Construction Section -->
  <g transform="translate(50,80)">
    <rect x="0" y="0" width="800" height="280" fill="rgba(0,123,255,0.1)" rx="15" />
    <text x="400" y="25" text-anchor="middle" font-family="Arial, sans-serif" font-size="20" font-weight="bold" fill="#007bff">
      BASIC INDUCTOR CONSTRUCTION
    </text>

    <!-- Cross-sectional View -->
    <g transform="translate(50,50)">
      <text x="150" y="20" text-anchor="middle" font-family="Arial, sans-serif" font-size="16" font-weight="bold" fill="#333">
        Cross-Sectional View
      </text>

      <!-- Core -->
      <rect x="80" y="40" width="140" height="80" fill="url(#coreGrad)" rx="10" />
      <text x="150" y="85" text-anchor="middle" font-family="Arial, sans-serif" font-size="12" font-weight="bold" fill="white">
        CORE
      </text>
      <text x="150" y="140" text-anchor="middle" font-family="Arial, sans-serif" font-size="11" fill="#333">
        Ferromagnetic Material
      </text>

      <!-- Windings -->
      <g stroke="url(#copperGrad)" stroke-width="8" fill="none">
        <!-- Left side windings -->
        <path d="M 60,50 Q 70,40 80,50 Q 70,60 80,70 Q 70,80 80,90 Q 70,100 80,110" />
        <path d="M 55,55 Q 65,45 75,55 Q 65,65 75,75 Q 65,85 75,95 Q 65,105 75,115" />
        <path d="M 50,60 Q 60,50 70,60 Q 60,70 70,80 Q 60,90 70,100 Q 60,110 70,120" />

        <!-- Right side windings -->
        <path d="M 220,50 Q 230,40 240,50 Q 230,60 240,70 Q 230,80 240,90 Q 230,100 240,110" />
        <path d="M 225,55 Q 235,45 245,55 Q 235,65 245,75 Q 235,85 245,95 Q 235,105 245,115" />
        <path d="M 230,60 Q 240,50 250,60 Q 240,70 250,80 Q 240,90 250,100 Q 240,110 250,120" />
      </g>

      <!-- Terminals -->
      <circle cx="30" cy="80" r="5" fill="#333" />
      <circle cx="270" cy="80" r="5" fill="#333" />
      <line x1="30" y1="80" x2="50" y2="80" stroke="#333" stroke-width="3" />
      <line x1="250" y1="80" x2="270" y2="80" stroke="#333" stroke-width="3" />

      <!-- Labels -->
      <text x="30" y="100" text-anchor="middle" font-family="Arial, sans-serif" font-size="10" fill="#333">Terminal A</text>
      <text x="270" y="100" text-anchor="middle" font-family="Arial, sans-serif" font-size="10" fill="#333">Terminal B</text>
      <text x="150" y="160" text-anchor="middle" font-family="Arial, sans-serif" font-size="11" fill="#fd7e14">
        Copper Wire Windings (N turns)
      </text>
    </g>

    <!-- Magnetic Field Lines -->
    <g transform="translate(400,50)">
      <text x="150" y="20" text-anchor="middle" font-family="Arial, sans-serif" font-size="16" font-weight="bold" fill="#333">
        Magnetic Field Pattern
      </text>

      <!-- Core outline -->
      <rect x="80" y="40" width="140" height="80" fill="none" stroke="#6c757d" stroke-width="2" stroke-dasharray="5,5" />

      <!-- Field lines inside core -->
      <g stroke="#007bff" stroke-width="2" fill="none" marker-end="url(#fieldArrow)">
        <line x1="90" y1="60" x2="210" y2="60" />
        <line x1="90" y1="80" x2="210" y2="80" />
        <line x1="90" y1="100" x2="210" y2="100" />
      </g>

      <!-- External field lines -->
      <g stroke="#007bff" stroke-width="2" fill="none" marker-end="url(#fieldArrow)">
        <path d="M 220,50 Q 260,30 280,50 Q 300,70 280,90 Q 260,110 220,90" />
        <path d="M 80,50 Q 40,30 20,50 Q 0,70 20,90 Q 40,110 80,90" />
        <path d="M 220,70 Q 270,40 310,70 Q 310,100 270,100 Q 220,100 220,70" />
        <path d="M 80,70 Q 30,40 -10,70 Q -10,100 30,100 Q 80,100 80,70" />
      </g>

      <!-- Current direction -->
      <circle cx="60" cy="60" r="8" fill="none" stroke="#fd7e14" stroke-width="3" />
      <text x="60" y="65" text-anchor="middle" font-family="Arial, sans-serif" font-size="12" fill="#fd7e14">⊗</text>
      <text x="60" y="80" text-anchor="middle" font-family="Arial, sans-serif" font-size="9" fill="#fd7e14">Into page</text>

      <circle cx="240" cy="60" r="8" fill="none" stroke="#fd7e14" stroke-width="3" />
      <text x="240" y="67" text-anchor="middle" font-family="Arial, sans-serif" font-size="12" fill="#fd7e14">⊙</text>
      <text x="240" y="80" text-anchor="middle" font-family="Arial, sans-serif" font-size="9" fill="#fd7e14">Out of page</text>

      <text x="150" y="160" text-anchor="middle" font-family="Arial, sans-serif" font-size="11" fill="#333">
        Φ = B × A = μ₀μᵣNI × A/l
      </text>
      <text x="150" y="175" text-anchor="middle" font-family="Arial, sans-serif" font-size="11" fill="#333">
        L = N²μ₀μᵣA/l (Henry)
      </text>
    </g>

    <!-- Key Parameters -->
    <g transform="translate(50,190)">
      <rect x="0" y="0" width="700" height="80" fill="rgba(40,167,69,0.1)" rx="10" />
      <text x="350" y="20" text-anchor="middle" font-family="Arial, sans-serif" font-size="14" font-weight="bold" fill="#28a745">
        Key Design Parameters
      </text>

      <g transform="translate(50,35)">
        <text x="0" y="15" font-family="Arial, sans-serif" font-size="12" font-weight="bold" fill="#333">Number of Turns (N):</text>
        <text x="0" y="30" font-family="Arial, sans-serif" font-size="11" fill="#333">More turns → Higher inductance (L ∝ N²)</text>

        <text x="200" y="15" font-family="Arial, sans-serif" font-size="12" font-weight="bold" fill="#333">Core Material (μᵣ):</text>
        <text x="200" y="30" font-family="Arial, sans-serif" font-size="11" fill="#333">Higher permeability → Higher inductance</text>

        <text x="400" y="15" font-family="Arial, sans-serif" font-size="12" font-weight="bold" fill="#333">Core Geometry:</text>
        <text x="400" y="30" font-family="Arial, sans-serif" font-size="11" fill="#333">Area (A) ↑, Length (l) ↓ → L ↑</text>
      </g>
    </g>
  </g>

  <!-- Types Section -->
  <g transform="translate(870,80)">
    <rect x="0" y="0" width="880" height="680" fill="rgba(108,117,125,0.1)" rx="15" />
    <text x="440" y="25" text-anchor="middle" font-family="Arial, sans-serif" font-size="20" font-weight="bold" fill="#6c757d">
      INDUCTOR TYPES &amp; CLASSIFICATION
    </text>

    <!-- Air Core Inductors -->
    <g transform="translate(30,50)">
      <rect x="0" y="0" width="400" height="190" fill="rgba(0,123,255,0.1)" rx="10" />
      <text x="200" y="20" text-anchor="middle" font-family="Arial, sans-serif" font-size="16" font-weight="bold" fill="#007bff">
        AIR CORE INDUCTORS
      </text>

      <!-- Solenoid -->
      <g transform="translate(30,40)">
        <text x="80" y="15" text-anchor="middle" font-family="Arial, sans-serif" font-size="12" font-weight="bold" fill="#333">
          Solenoid Type
        </text>

        <!-- Coil representation -->
        <g stroke="#fd7e14" stroke-width="3" fill="none">
          <ellipse cx="80" cy="40" rx="25" ry="8" />
          <ellipse cx="80" cy="50" rx="25" ry="8" />
          <ellipse cx="80" cy="60" rx="25" ry="8" />
          <ellipse cx="80" cy="70" rx="25" ry="8" />
          <ellipse cx="80" cy="80" rx="25" ry="8" />
          <ellipse cx="80" cy="90" rx="25" ry="8" />
        </g>

        <!-- Air core indication -->
        <text x="80" y="105" text-anchor="middle" font-family="Arial, sans-serif" font-size="10" fill="#007bff">Air Core</text>
        <text x="80" y="120" text-anchor="middle" font-family="Arial, sans-serif" font-size="9" fill="#333">L = μ₀N²A/l</text>
      </g>

      <!-- Toroidal -->
      <g transform="translate(200,40)">
        <text x="80" y="15" text-anchor="middle" font-family="Arial, sans-serif" font-size="12" font-weight="bold" fill="#333">
          Toroidal Type
        </text>

        <!-- Toroidal core -->
        <circle cx="80" cy="65" r="30" fill="none" stroke="#6c757d" stroke-width="8" />
        <circle cx="80" cy="65" r="15" fill="white" stroke="none" />

        <!-- Windings -->
        <g stroke="#fd7e14" stroke-width="2" fill="none">
          <path d="M 65,45 Q 70,40 75,45 Q 70,50 75,55 Q 70,60 75,65" />
          <path d="M 85,45 Q 90,40 95,45 Q 90,50 95,55 Q 90,60 95,65" />
          <path d="M 65,75 Q 70,80 75,75 Q 70,70 75,65" />
          <path d="M 85,75 Q 90,80 95,75 Q 90,70 95,65" />
        </g>

        <text x="80" y="105" text-anchor="middle" font-family="Arial, sans-serif" font-size="10" fill="#007bff">Toroidal Air Core</text>
        <text x="80" y="120" text-anchor="middle" font-family="Arial, sans-serif" font-size="9" fill="#333">Closed flux path</text>
      </g>

      <!-- Characteristics -->
      <g transform="translate(30,140)">
        <text x="0" y="15" font-family="Arial, sans-serif" font-size="12" font-weight="bold" fill="#007bff">Characteristics:</text>
        <text x="0" y="30" font-family="Arial, sans-serif" font-size="11" fill="#333">• Low inductance values (μH to mH)</text>
        <text x="0" y="45" font-family="Arial, sans-serif" font-size="11" fill="#333">• No core losses, linear behavior</text>
        <text x="200" y="30" font-family="Arial, sans-serif" font-size="11" fill="#333">• High frequency applications</text>
        <text x="200" y="45" font-family="Arial, sans-serif" font-size="11" fill="#333">• RF circuits, resonant tanks</text>
      </g>
    </g>

    <!-- Iron Core Inductors -->
    <g transform="translate(450,50)">
      <rect x="0" y="0" width="400" height="190" fill="rgba(220,53,69,0.1)" rx="10" />
      <text x="200" y="20" text-anchor="middle" font-family="Arial, sans-serif" font-size="16" font-weight="bold" fill="#dc3545">
        IRON CORE INDUCTORS
      </text>

      <!-- Laminated Core -->
      <g transform="translate(30,40)">
        <text x="80" y="15" text-anchor="middle" font-family="Arial, sans-serif" font-size="12" font-weight="bold" fill="#333">
          Laminated Core
        </text>

        <!-- Core stack -->
        <g>
          <rect x="60" y="35" width="40" height="8" fill="#495057" />
          <rect x="60" y="45" width="40" height="8" fill="#6c757d" />
          <rect x="60" y="55" width="40" height="8" fill="#495057" />
          <rect x="60" y="65" width="40" height="8" fill="#6c757d" />
          <rect x="60" y="75" width="40" height="8" fill="#495057" />
        </g>

        <!-- Windings -->
        <g stroke="#fd7e14" stroke-width="3" fill="none">
          <path d="M 50,40 Q 55,35 60,40 Q 55,45 60,50 Q 55,55 60,60 Q 55,65 60,70 Q 55,75 60,80" />
          <path d="M 100,40 Q 105,35 110,40 Q 105,45 110,50 Q 105,55 110,60 Q 105,65 110,70 Q 105,75 110,80" />
        </g>

        <text x="80" y="100" text-anchor="middle" font-family="Arial, sans-serif" font-size="10" fill="#dc3545">Laminated Iron</text>
        <text x="80" y="115" text-anchor="middle" font-family="Arial, sans-serif" font-size="9" fill="#333">Reduces eddy currents</text>
      </g>

      <!-- Solid Core -->
      <g transform="translate(200,40)">
        <text x="80" y="15" text-anchor="middle" font-family="Arial, sans-serif" font-size="12" font-weight="bold" fill="#333">
          Solid Iron Core
        </text>

        <!-- Solid core -->
        <rect x="60" y="35" width="40" height="48" fill="url(#ferromagneticGrad)" rx="5" />

        <!-- Windings -->
        <g stroke="#fd7e14" stroke-width="3" fill="none">
          <path d="M 50,40 Q 55,35 60,40 Q 55,45 60,50 Q 55,55 60,60 Q 55,65 60,70 Q 55,75 60,80" />
          <path d="M 100,40 Q 105,35 110,40 Q 105,45 110,50 Q 105,55 110,60 Q 105,65 110,70 Q 105,75 110,80" />
        </g>

        <text x="80" y="100" text-anchor="middle" font-family="Arial, sans-serif" font-size="10" fill="#dc3545">Solid Iron</text>
        <text x="80" y="115" text-anchor="middle" font-family="Arial, sans-serif" font-size="9" fill="#333">High inductance</text>
      </g>

      <!-- Characteristics -->
      <g transform="translate(30,140)">
        <text x="0" y="15" font-family="Arial, sans-serif" font-size="12" font-weight="bold" fill="#dc3545">Characteristics:</text>
        <text x="0" y="30" font-family="Arial, sans-serif" font-size="11" fill="#333">• High inductance values (mH to H)</text>
        <text x="0" y="45" font-family="Arial, sans-serif" font-size="11" fill="#333">• Core saturation effects</text>
        <text x="200" y="30" font-family="Arial, sans-serif" font-size="11" fill="#333">• Low frequency applications</text>
        <text x="200" y="45" font-family="Arial, sans-serif" font-size="11" fill="#333">• Power supplies, transformers</text>
      </g>
    </g>

    <!-- Ferrite Core Inductors -->
    <g transform="translate(30,260)">
      <rect x="0" y="0" width="400" height="190" fill="rgba(255,193,7,0.1)" rx="10" />
      <text x="200" y="20" text-anchor="middle" font-family="Arial, sans-serif" font-size="16" font-weight="bold" fill="#ffc107">
        FERRITE CORE INDUCTORS
      </text>

      <!-- Pot Core -->
      <g transform="translate(30,40)">
        <text x="80" y="15" text-anchor="middle" font-family="Arial, sans-serif" font-size="12" font-weight="bold" fill="#333">
          Pot Core
        </text>

        <!-- Pot core shape -->
        <path d="M 60,35 L 60,50 Q 60,55 65,55 L 95,55 Q 100,55 100,50 L 100,35 Q 100,30 95,30 L 65,30 Q 60,30 60,35 Z"
              fill="#6f42c1" stroke="#6f42c1" stroke-width="2" />
        <path d="M 60,75 L 60,60 Q 60,55 65,55 L 95,55 Q 100,55 100,60 L 100,75 Q 100,80 95,80 L 65,80 Q 60,80 60,75 Z"
              fill="#6f42c1" stroke="#6f42c1" stroke-width="2" />

        <!-- Bobbin with windings -->
        <rect x="75" y="50" width="10" height="10" fill="#fd7e14" />
        <g stroke="#fd7e14" stroke-width="2" fill="none">
          <circle cx="80" cy="45" r="3" />
          <circle cx="80" cy="50" r="5" />
          <circle cx="80" cy="55" r="7" />
          <circle cx="80" cy="60" r="5" />
          <circle cx="80" cy="65" r="3" />
        </g>

        <text x="80" y="100" text-anchor="middle" font-family="Arial, sans-serif" font-size="10" fill="#6f42c1">Ferrite Pot Core</text>
        <text x="80" y="115" text-anchor="middle" font-family="Arial, sans-serif" font-size="9" fill="#333">Shielded, low EMI</text>
      </g>

      <!-- E-Core -->
      <g transform="translate(200,40)">
        <text x="80" y="15" text-anchor="middle" font-family="Arial, sans-serif" font-size="12" font-weight="bold" fill="#333">
          E-I Core
        </text>

        <!-- E-core shape -->
        <path d="M 60,35 L 100,35 L 100,40 L 85,40 L 85,50 L 95,50 L 95,55 L 85,55 L 85,65 L 100,65 L 100,70 L 60,70 Z"
              fill="#6f42c1" />
        <!-- I-core -->
        <rect x="60" y="75" width="40" height="8" fill="#6f42c1" />

        <!-- Windings on center leg -->
        <g stroke="#fd7e14" stroke-width="3" fill="none">
          <path d="M 75,40 Q 80,35 85,40 Q 80,45 85,50 Q 80,55 85,60 Q 80,65 85,70" />
        </g>

        <text x="80" y="100" text-anchor="middle" font-family="Arial, sans-serif" font-size="10" fill="#6f42c1">Ferrite E-I Core</text>
        <text x="80" y="115" text-anchor="middle" font-family="Arial, sans-serif" font-size="9" fill="#333">Transformers, chokes</text>
      </g>

      <!-- Characteristics -->
      <g transform="translate(30,140)">
        <text x="0" y="15" font-family="Arial, sans-serif" font-size="12" font-weight="bold" fill="#ffc107">Characteristics:</text>
        <text x="0" y="30" font-family="Arial, sans-serif" font-size="11" fill="#333">• Medium to high inductance</text>
        <text x="0" y="45" font-family="Arial, sans-serif" font-size="11" fill="#333">• Wide frequency range</text>
        <text x="200" y="30" font-family="Arial, sans-serif" font-size="11" fill="#333">• Low core losses</text>
        <text x="200" y="45" font-family="Arial, sans-serif" font-size="11" fill="#333">• Switch-mode power supplies</text>
      </g>
    </g>

    <!-- Variable Inductors -->
    <g transform="translate(450,260)">
      <rect x="0" y="0" width="400" height="190" fill="rgba(40,167,69,0.1)" rx="10" />
      <text x="200" y="20" text-anchor="middle" font-family="Arial, sans-serif" font-size="16" font-weight="bold" fill="#28a745">
        VARIABLE INDUCTORS
      </text>

      <!-- Slug-Tuned -->
      <g transform="translate(30,40)">
        <text x="80" y="15" text-anchor="middle" font-family="Arial, sans-serif" font-size="12" font-weight="bold" fill="#333">
          Slug-Tuned
        </text>

        <!-- Coil -->
        <g stroke="#fd7e14" stroke-width="3" fill="none">
          <ellipse cx="80" cy="45" rx="20" ry="6" />
          <ellipse cx="80" cy="52" rx="20" ry="6" />
          <ellipse cx="80" cy="59" rx="20" ry="6" />
          <ellipse cx="80" cy="66" rx="20" ry="6" />
          <ellipse cx="80" cy="73" rx="20" ry="6" />
        </g>

        <!-- Adjustable slug -->
        <rect x="75" y="40" width="10" height="40" fill="#6f42c1" rx="2" />
        <polygon points="77,35 83,35 80,40" fill="#333" />
        <text x="90" y="45" font-family="Arial, sans-serif" font-size="8" fill="#333">Adjustable</text>
        <text x="90" y="55" font-family="Arial, sans-serif" font-size="8" fill="#333">ferrite slug</text>

        <text x="80" y="95" text-anchor="middle" font-family="Arial, sans-serif" font-size="10" fill="#28a745">Variable Core</text>
        <text x="80" y="110" text-anchor="middle" font-family="Arial, sans-serif" font-size="9" fill="#333">Tuning circuits</text>
      </g>

      <!-- Tapped -->
      <g transform="translate(200,40)">
        <text x="80" y="15" text-anchor="middle" font-family="Arial, sans-serif" font-size="12" font-weight="bold" fill="#333">
          Tapped Inductor
        </text>

        <!-- Coil with taps -->
        <g stroke="#fd7e14" stroke-width="3" fill="none">
          <ellipse cx="80" cy="45" rx="20" ry="6" />
          <ellipse cx="80" cy="52" rx="20" ry="6" />
          <ellipse cx="80" cy="59" rx="20" ry="6" />
          <ellipse cx="80" cy="66" rx="20" ry="6" />
          <ellipse cx="80" cy="73" rx="20" ry="6" />
        </g>

        <!-- Tap points -->
        <circle cx="100" cy="52" r="2" fill="#333" />
        <circle cx="100" cy="66" r="2" fill="#333" />
        <line x1="100" y1="52" x2="110" y2="52" stroke="#333" stroke-width="2" />
        <line x1="100" y1="66" x2="110" y2="66" stroke="#333" stroke-width="2" />

        <text x="115" y="56" font-family="Arial, sans-serif" font-size="8" fill="#333">Tap 1</text>
        <text x="115" y="70" font-family="Arial, sans-serif" font-size="8" fill="#333">Tap 2</text>

        <text x="80" y="95" text-anchor="middle" font-family="Arial, sans-serif" font-size="10" fill="#28a745">Multiple Taps</text>
        <text x="80" y="110" text-anchor="middle" font-family="Arial, sans-serif" font-size="9" fill="#333">Impedance matching</text>
      </g>

      <!-- Characteristics -->
      <g transform="translate(30,140)">
        <text x="0" y="15" font-family="Arial, sans-serif" font-size="12" font-weight="bold" fill="#28a745">Characteristics:</text>
        <text x="0" y="30" font-family="Arial, sans-serif" font-size="11" fill="#333">• Adjustable inductance values</text>
        <text x="0" y="45" font-family="Arial, sans-serif" font-size="11" fill="#333">• Tuning and matching circuits</text>
        <text x="200" y="30" font-family="Arial, sans-serif" font-size="11" fill="#333">• Antenna tuners</text>
        <text x="200" y="45" font-family="Arial, sans-serif" font-size="11" fill="#333">• Oscillator frequency control</text>
      </g>
    </g>

    <!-- Specialty Types -->
    <g transform="translate(30,470)">
      <rect x="0" y="0" width="820" height="190" fill="rgba(111,66,193,0.1)" rx="10" />
      <text x="410" y="20" text-anchor="middle" font-family="Arial, sans-serif" font-size="16" font-weight="bold" fill="#6f42c1">
        SPECIALTY INDUCTOR TYPES
      </text>

      <!-- Multilayer -->
      <g transform="translate(30,40)">
        <text x="80" y="15" text-anchor="middle" font-family="Arial, sans-serif" font-size="12" font-weight="bold" fill="#333">
          Multilayer Chip
        </text>

        <!-- Chip inductor -->
        <rect x="60" y="35" width="40" height="20" fill="#17a2b8" rx="3" />
        <rect x="58" y="33" width="44" height="24" fill="none" stroke="#17a2b8" stroke-width="2" rx="3" />

        <!-- Internal layers indication -->
        <g stroke="#fd7e14" stroke-width="1" fill="none" opacity="0.7">
          <path d="M 65,40 Q 70,38 75,40 Q 80,42 85,40 Q 90,38 95,40" />
          <path d="M 65,45 Q 70,43 75,45 Q 80,47 85,45 Q 90,43 95,45" />
          <path d="M 65,50 Q 70,48 75,50 Q 80,52 85,50 Q 90,48 95,50" />
        </g>

        <!-- Pads -->
        <rect x="55" y="40" width="8" height="10" fill="#ffc107" />
        <rect x="97" y="40" width="8" height="10" fill="#ffc107" />

        <text x="80" y="75" text-anchor="middle" font-family="Arial, sans-serif" font-size="10" fill="#17a2b8">SMD Inductor</text>
        <text x="80" y="90" text-anchor="middle" font-family="Arial, sans-serif" font-size="9" fill="#333">Compact size</text>
      </g>

      <!-- Power Inductor -->
      <g transform="translate(180,40)">
        <text x="80" y="15" text-anchor="middle" font-family="Arial, sans-serif" font-size="12" font-weight="bold" fill="#333">
          Power Inductor
        </text>

        <!-- Large core -->
        <rect x="55" y="35" width="50" height="30" fill="url(#ferromagneticGrad)" rx="8" />

        <!-- Heavy windings -->
        <g stroke="#fd7e14" stroke-width="6" fill="none">
          <path d="M 45,40 Q 50,35 55,40 Q 50,45 55,50 Q 50,55 55,60" />
          <path d="M 105,40 Q 110,35 115,40 Q 110,45 115,50 Q 110,55 115,60" />
        </g>

        <!-- Heat dissipation fins -->
        <g stroke="#6c757d" stroke-width="2">
          <line x1="50" y1="30" x2="50" y2="25" />
          <line x1="55" y1="28" x2="55" y2="23" />
          <line x1="60" y1="30" x2="60" y2="25" />
          <line x1="110" y1="30" x2="110" y2="25" />
          <line x1="115" y1="28" x2="115" y2="23" />
          <line x1="120" y1="30" x2="120" y2="25" />
        </g>

        <text x="80" y="80" text-anchor="middle" font-family="Arial, sans-serif" font-size="10" fill="#6f42c1">High Current</text>
        <text x="80" y="95" text-anchor="middle" font-family="Arial, sans-serif" font-size="9" fill="#333">DC-DC converters</text>
      </g>

      <!-- Common Mode Choke -->
      <g transform="translate(330,40)">
        <text x="80" y="15" text-anchor="middle" font-family="Arial, sans-serif" font-size="12" font-weight="bold" fill="#333">
          Common Mode Choke
        </text>

        <!-- Toroidal core -->
        <circle cx="80" cy="50" r="20" fill="none" stroke="#6c757d" stroke-width="6" />

        <!-- Dual windings -->
        <g stroke="#fd7e14" stroke-width="3" fill="none">
          <!-- Winding 1 -->
          <path d="M 65,35 Q 70,30 75,35 Q 70,40 75,45" />
          <path d="M 85,35 Q 90,30 95,35 Q 90,40 95,45" />
          <!-- Winding 2 -->
          <path d="M 65,55 Q 70,60 75,55 Q 70,50 75,45" />
          <path d="M 85,55 Q 90,60 95,55 Q 90,50 95,45" />
        </g>

        <!-- Terminals -->
        <circle cx="50" cy="40" r="2" fill="#333" />
        <circle cx="110" cy="40" r="2" fill="#333" />
        <circle cx="50" cy="60" r="2" fill="#333" />
        <circle cx="110" cy="60" r="2" fill="#333" />

        <text x="80" y="80" text-anchor="middle" font-family="Arial, sans-serif" font-size="10" fill="#6f42c1">EMI Filter</text>
        <text x="80" y="95" text-anchor="middle" font-family="Arial, sans-serif" font-size="9" fill="#333">Noise suppression</text>
      </g>

      <!-- Current Sense -->
      <g transform="translate(480,40)">
        <text x="80" y="15" text-anchor="middle" font-family="Arial, sans-serif" font-size="12" font-weight="bold" fill="#333">
          Current Sense
        </text>

        <!-- Low-value inductor -->
        <rect x="65" y="40" width="30" height="15" fill="#17a2b8" rx="3" />

        <!-- Minimal windings -->
        <g stroke="#fd7e14" stroke-width="2" fill="none">
          <path d="M 60,47 Q 65,45 70,47" />
          <path d="M 90,47 Q 95,45 100,47" />
        </g>

        <!-- Sense terminals -->
        <circle cx="75" cy="35" r="2" fill="#dc3545" />
        <circle cx="85" cy="35" r="2" fill="#dc3545" />
        <line x1="75" y1="35" x2="75" y2="25" stroke="#dc3545" stroke-width="1" />
        <line x1="85" y1="35" x2="85" y2="25" stroke="#dc3545" stroke-width="1" />

        <text x="80" y="20" text-anchor="middle" font-family="Arial, sans-serif" font-size="8" fill="#dc3545">Sense</text>

        <text x="80" y="75" text-anchor="middle" font-family="Arial, sans-serif" font-size="10" fill="#6f42c1">Low Value</text>
        <text x="80" y="90" text-anchor="middle" font-family="Arial, sans-serif" font-size="9" fill="#333">Current monitoring</text>
      </g>

      <!-- Delay Line -->
      <g transform="translate(630,40)">
        <text x="80" y="15" text-anchor="middle" font-family="Arial, sans-serif" font-size="12" font-weight="bold" fill="#333">
          Delay Line
        </text>

        <!-- Helical delay line -->
        <g stroke="#fd7e14" stroke-width="3" fill="none">
          <ellipse cx="70" cy="42" rx="8" ry="3" />
          <ellipse cx="75" cy="45" rx="8" ry="3" />
          <ellipse cx="80" cy="48" rx="8" ry="3" />
          <ellipse cx="85" cy="51" rx="8" ry="3" />
          <ellipse cx="90" cy="54" rx="8" ry="3" />
        </g>

        <!-- Shield -->
        <rect x="55" y="35" width="50" height="25" fill="none" stroke="#6c757d" stroke-width="2" stroke-dasharray="3,3" />

        <text x="80" y="75" text-anchor="middle" font-family="Arial, sans-serif" font-size="10" fill="#6f42c1">Signal Delay</text>
        <text x="80" y="90" text-anchor="middle" font-family="Arial, sans-serif" font-size="9" fill="#333">Timing circuits</text>
      </g>

      <!-- Characteristics -->
      <g transform="translate(30,115)">
        <text x="0" y="15" font-family="Arial, sans-serif" font-size="12" font-weight="bold" fill="#6f42c1">Applications:</text>
        <text x="0" y="30" font-family="Arial, sans-serif" font-size="11" fill="#333">• Surface mount technology</text>
        <text x="0" y="45" font-family="Arial, sans-serif" font-size="11" fill="#333">• High power applications</text>
        <text x="150" y="30" font-family="Arial, sans-serif" font-size="11" fill="#333">• EMI/RFI suppression</text>
        <text x="150" y="45" font-family="Arial, sans-serif" font-size="11" fill="#333">• Current measurement</text>
        <text x="300" y="30" font-family="Arial, sans-serif" font-size="11" fill="#333">• Signal processing</text>
        <text x="300" y="45" font-family="Arial, sans-serif" font-size="11" fill="#333">• Timing applications</text>
      </g>
    </g>
  </g>

  <!-- Characteristics Comparison -->
  <g transform="translate(50,780)">
    <rect x="0" y="0" width="1700" height="200" fill="rgba(23,162,184,0.1)" rx="15" />
    <text x="850" y="25" text-anchor="middle" font-family="Arial, sans-serif" font-size="20" font-weight="bold" fill="#17a2b8">
      PERFORMANCE CHARACTERISTICS COMPARISON
    </text>

    <!-- Comparison Table -->
    <g transform="translate(50,50)">
      <!-- Headers -->
      <rect x="0" y="0" width="150" height="30" fill="rgba(52,58,64,0.1)" />
      <text x="75" y="20" text-anchor="middle" font-family="Arial, sans-serif" font-size="12" font-weight="bold" fill="#333">Core Type</text>

      <rect x="150" y="0" width="120" height="30" fill="rgba(52,58,64,0.1)" />
      <text x="210" y="20" text-anchor="middle" font-family="Arial, sans-serif" font-size="12" font-weight="bold" fill="#333">Inductance Range</text>

      <rect x="270" y="0" width="120" height="30" fill="rgba(52,58,64,0.1)" />
      <text x="330" y="20" text-anchor="middle" font-family="Arial, sans-serif" font-size="12" font-weight="bold" fill="#333">Frequency Range</text>

      <rect x="390" y="0" width="100" height="30" fill="rgba(52,58,64,0.1)" />
      <text x="440" y="20" text-anchor="middle" font-family="Arial, sans-serif" font-size="12" font-weight="bold" fill="#333">Q Factor</text>

      <rect x="490" y="0" width="120" height="30" fill="rgba(52,58,64,0.1)" />
      <text x="550" y="20" text-anchor="middle" font-family="Arial, sans-serif" font-size="12" font-weight="bold" fill="#333">Temperature Stability</text>

      <rect x="610" y="0" width="140" height="30" fill="rgba(52,58,64,0.1)" />
      <text x="680" y="20" text-anchor="middle" font-family="Arial, sans-serif" font-size="12" font-weight="bold" fill="#333">Typical Applications</text>

      <!-- Air Core Row -->
      <rect x="0" y="30" width="150" height="25" fill="rgba(0,123,255,0.1)" />
      <text x="75" y="47" text-anchor="middle" font-family="Arial, sans-serif" font-size="11" fill="#007bff">Air Core</text>

      <text x="210" y="47" text-anchor="middle" font-family="Arial, sans-serif" font-size="11" fill="#333">1 μH - 10 mH</text>
      <text x="330" y="47" text-anchor="middle" font-family="Arial, sans-serif" font-size="11" fill="#333">1 MHz - 1 GHz</text>
      <text x="440" y="47" text-anchor="middle" font-family="Arial, sans-serif" font-size="11" fill="#333">High (>100)</text>
      <text x="550" y="47" text-anchor="middle" font-family="Arial, sans-serif" font-size="11" fill="#333">Excellent</text>
      <text x="680" y="47" text-anchor="middle" font-family="Arial, sans-serif" font-size="11" fill="#333">RF circuits, resonant tanks</text>

      <!-- Iron Core Row -->
      <rect x="0" y="55" width="150" height="25" fill="rgba(220,53,69,0.1)" />
      <text x="75" y="72" text-anchor="middle" font-family="Arial, sans-serif" font-size="11" fill="#dc3545">Iron Core</text>

      <text x="210" y="72" text-anchor="middle" font-family="Arial, sans-serif" font-size="11" fill="#333">1 mH - 10 H</text>
      <text x="330" y="72" text-anchor="middle" font-family="Arial, sans-serif" font-size="11" fill="#333">50 Hz - 10 kHz</text>
      <text x="440" y="72" text-anchor="middle" font-family="Arial, sans-serif" font-size="11" fill="#333">Low (10-50)</text>
      <text x="550" y="72" text-anchor="middle" font-family="Arial, sans-serif" font-size="11" fill="#333">Poor</text>
      <text x="680" y="72" text-anchor="middle" font-family="Arial, sans-serif" font-size="11" fill="#333">Power supplies, transformers</text>

      <!-- Ferrite Core Row -->
      <rect x="0" y="80" width="150" height="25" fill="rgba(111,66,193,0.1)" />
      <text x="75" y="97" text-anchor="middle" font-family="Arial, sans-serif" font-size="11" fill="#6f42c1">Ferrite Core</text>

      <text x="210" y="97" text-anchor="middle" font-family="Arial, sans-serif" font-size="11" fill="#333">10 μH - 100 mH</text>
      <text x="330" y="97" text-anchor="middle" font-family="Arial, sans-serif" font-size="11" fill="#333">10 kHz - 100 MHz</text>
      <text x="440" y="97" text-anchor="middle" font-family="Arial, sans-serif" font-size="11" fill="#333">Medium (50-200)</text>
      <text x="550" y="97" text-anchor="middle" font-family="Arial, sans-serif" font-size="11" fill="#333">Good</text>
      <text x="680" y="97" text-anchor="middle" font-family="Arial, sans-serif" font-size="11" fill="#333">SMPS, EMI filters</text>

      <!-- Powdered Iron Row -->
      <rect x="0" y="105" width="150" height="25" fill="rgba(255,193,7,0.1)" />
      <text x="75" y="122" text-anchor="middle" font-family="Arial, sans-serif" font-size="11" fill="#ffc107">Powdered Iron</text>

      <text x="210" y="122" text-anchor="middle" font-family="Arial, sans-serif" font-size="11" fill="#333">1 μH - 1 mH</text>
      <text x="330" y="122" text-anchor="middle" font-family="Arial, sans-serif" font-size="11" fill="#333">100 kHz - 50 MHz</text>
      <text x="440" y="122" text-anchor="middle" font-family="Arial, sans-serif" font-size="11" fill="#333">Medium (100-300)</text>
      <text x="550" y="122" text-anchor="middle" font-family="Arial, sans-serif" font-size="11" fill="#333">Good</text>
      <text x="680" y="122" text-anchor="middle" font-family="Arial, sans-serif" font-size="11" fill="#333">Energy storage, filters</text>
    </g>
  </g>

  <!-- Selection Guide -->
  <g transform="translate(50,1000)">
    <rect x="0" y="0" width="1700" height="160" fill="rgba(40,167,69,0.1)" rx="15" />
    <text x="850" y="25" text-anchor="middle" font-family="Arial, sans-serif" font-size="20" font-weight="bold" fill="#28a745">
      INDUCTOR SELECTION GUIDE
    </text>

    <g transform="translate(50,50)">
      <g transform="translate(0,0)">
        <text x="0" y="20" font-family="Arial, sans-serif" font-size="16" font-weight="bold" fill="#28a745">Selection Criteria:</text>
        <text x="0" y="40" font-family="Arial, sans-serif" font-size="12" fill="#333">1. Inductance Value (L): Determine required inductance for circuit function</text>
        <text x="0" y="55" font-family="Arial, sans-serif" font-size="12" fill="#333">2. Operating Frequency: Choose core material appropriate for frequency range</text>
        <text x="0" y="70" font-family="Arial, sans-serif" font-size="12" fill="#333">3. Current Rating: Ensure core doesn't saturate at maximum current</text>
        <text x="0" y="85" font-family="Arial, sans-serif" font-size="12" fill="#333">4. DC Resistance (DCR): Minimize power losses in high-current applications</text>
        <text x="0" y="100" font-family="Arial, sans-serif" font-size="12" fill="#333">5. Physical Size: Consider space constraints and mounting requirements</text>
      </g>

      <g transform="translate(850,0)">
        <text x="0" y="20" font-family="Arial, sans-serif" font-size="16" font-weight="bold" fill="#28a745">Design Formulas:</text>
        <text x="0" y="40" font-family="Arial, sans-serif" font-size="12" fill="#333">Inductance: L = N²μ₀μᵣA/l (Henry)</text>
        <text x="0" y="55" font-family="Arial, sans-serif" font-size="12" fill="#333">Energy Stored: E = ½LI² (Joules)</text>
        <text x="0" y="70" font-family="Arial, sans-serif" font-size="12" fill="#333">Reactance: XL = 2πfL (Ohms)</text>
        <text x="0" y="85" font-family="Arial, sans-serif" font-size="12" fill="#333">Quality Factor: Q = XL/R = ωL/R</text>
        <text x="0" y="100" font-family="Arial, sans-serif" font-size="12" fill="#333">Time Constant: τ = L/R (seconds)</text>
      </g>
    </g>
  </g>

  <!-- Footer -->
  <g transform="translate(50,1180)">
    <text x="850" y="20" text-anchor="middle" font-family="Arial, sans-serif" font-size="16" font-weight="bold" fill="#495057">
      Proper inductor selection is critical for optimal circuit performance and efficiency
    </text>
    <text x="850" y="40" text-anchor="middle" font-family="Arial, sans-serif" font-size="12" fill="#6c757d">
      Essential for: Energy Storage | Filtering | Impedance Matching | EMI Suppression | Power Conversion
    </text>
  </g>
</svg>