<svg viewBox="0 0 1200 800" xmlns="http://www.w3.org/2000/svg">
  <defs>
    <linearGradient id="coilGrad1" x1="0%" y1="0%" x2="100%" y2="100%">
      <stop offset="0%" style="stop-color:#3498db;stop-opacity:1" />
      <stop offset="100%" style="stop-color:#2980b9;stop-opacity:1" />
    </linearGradient>
    <linearGradient id="coilGrad2" x1="0%" y1="0%" x2="100%" y2="100%">
      <stop offset="0%" style="stop-color:#e74c3c;stop-opacity:1" />
      <stop offset="100%" style="stop-color:#c0392b;stop-opacity:1" />
    </linearGradient>
    <linearGradient id="coreGrad" x1="0%" y1="0%" x2="100%" y2="100%">
      <stop offset="0%" style="stop-color:#95a5a6;stop-opacity:1" />
      <stop offset="100%" style="stop-color:#7f8c8d;stop-opacity:1" />
    </linearGradient>
    <marker id="arrowhead" markerWidth="10" markerHeight="7" refX="10" refY="3.5" orient="auto">
      <polygon points="0 0, 10 3.5, 0 7" fill="#333" />
    </marker>
    <marker id="fieldArrow" markerWidth="8" markerHeight="6" refX="8" refY="3" orient="auto">
      <polygon points="0 0, 8 3, 0 6" fill="#9b59b6" />
    </marker>
    <marker id="currentArrow" markerWidth="8" markerHeight="6" refX="8" refY="3" orient="auto">
      <polygon points="0 0, 8 3, 0 6" fill="#e74c3c" />
    </marker>
  </defs>
  
  <!-- Background -->
  <rect width="1200" height="800" fill="#f8f9fa"/>
  
  <!-- Title -->
  <text x="600" y="30" text-anchor="middle" font-family="Arial, sans-serif" font-size="24" font-weight="bold" fill="#2c3e50">
    Self-Inductance and Mutual Inductance
  </text>
  
  <!-- Self-Inductance -->
  <g id="self-inductance">
    <text x="300" y="70" text-anchor="middle" font-family="Arial, sans-serif" font-size="18" font-weight="bold" fill="#34495e">
      Self-Inductance
    </text>
    
    <!-- Single coil with changing current -->
    <g transform="translate(150,90)">
      <!-- Coil -->
      <g transform="translate(150,50)">
        <ellipse cx="0" cy="15" rx="45" ry="12" fill="none" stroke="url(#coilGrad1)" stroke-width="4"/>
        <ellipse cx="0" cy="30" rx="45" ry="12" fill="none" stroke="url(#coilGrad1)" stroke-width="4"/>
        <ellipse cx="0" cy="45" rx="45" ry="12" fill="none" stroke="url(#coilGrad1)" stroke-width="4"/>
        <ellipse cx="0" cy="60" rx="45" ry="12" fill="none" stroke="url(#coilGrad1)" stroke-width="4"/>
        <ellipse cx="0" cy="75" rx="45" ry="12" fill="none" stroke="url(#coilGrad1)" stroke-width="4"/>
        <text x="0" y="105" text-anchor="middle" font-family="Arial, sans-serif" font-size="12" fill="#333" font-weight="bold">L (Henry)</text>
      </g>
      
      <!-- Current source -->
      <g transform="translate(50,90)">
        <circle cx="0" cy="0" r="20" fill="none" stroke="#f39c12" stroke-width="3"/>
        <text x="0" y="5" text-anchor="middle" font-family="Arial, sans-serif" font-size="14" fill="#f39c12" font-weight="bold">AC</text>
        <path d="M-30 0 L-20 0" stroke="#e74c3c" stroke-width="3" marker-end="url(#currentArrow)"/>
        <text x="-35" y="-5" font-family="Arial, sans-serif" font-size="12" fill="#e74c3c" font-weight="bold">i(t)</text>
      </g>
      
      <!-- Changing current indication -->
      <g transform="translate(80,120)">
        <path d="M0 0 Q20 -15 40 0 Q60 15 80 0" fill="none" stroke="#f39c12" stroke-width="3"/>
        <text x="40" y="-25" text-anchor="middle" font-family="Arial, sans-serif" font-size="12" fill="#f39c12" font-weight="bold">di/dt</text>
      </g>
      
      <!-- Connection wire -->
      <path d="M70 90 L105 90" stroke="#333" stroke-width="3"/>
      <path d="M195 90 L230 90" stroke="#333" stroke-width="3"/>
      
      <!-- Self-induced magnetic field -->
      <g transform="translate(150,70)" opacity="0.6">
        <ellipse cx="0" cy="20" rx="60" ry="18" fill="none" stroke="#9b59b6" stroke-width="2" stroke-dasharray="4,3"/>
        <ellipse cx="0" cy="20" rx="75" ry="23" fill="none" stroke="#9b59b6" stroke-width="2" stroke-dasharray="4,3"/>
        <ellipse cx="0" cy="20" rx="90" ry="28" fill="none" stroke="#9b59b6" stroke-width="2" stroke-dasharray="4,3"/>
        <text x="0" y="-10" text-anchor="middle" font-family="Arial, sans-serif" font-size="12" fill="#9b59b6" font-weight="bold">Self-Field Φ</text>
      </g>
      
      <!-- Self-induced EMF -->
      <g transform="translate(250,90)">
        <circle cx="0" cy="0" r="15" fill="none" stroke="#e74c3c" stroke-width="3"/>
        <text x="0" y="5" text-anchor="middle" font-family="Arial, sans-serif" font-size="12" fill="#e74c3c" font-weight="bold">ε</text>
        <text x="25" y="5" font-family="Arial, sans-serif" font-size="12" fill="#e74c3c" font-weight="bold">= -L(di/dt)</text>
      </g>
    </g>
    
    <!-- Self-inductance explanation -->
    <g transform="translate(50,220)">
      <rect x="0" y="0" width="500" height="100" fill="#ecf0f1" stroke="#bdc3c7" stroke-width="2" rx="8"/>
      <text x="250" y="25" text-anchor="middle" font-family="Arial, sans-serif" font-size="16" fill="#2c3e50" font-weight="bold">
        Self-Inductance Characteristics
      </text>
      
      <g transform="translate(20,40)">
        <circle cx="8" cy="8" r="6" fill="#3498db"/>
        <text x="8" y="12" text-anchor="middle" font-family="Arial, sans-serif" font-size="10" fill="white" font-weight="bold">1</text>
        <text x="25" y="12" font-family="Arial, sans-serif" font-size="13" fill="#2c3e50">Current change creates changing magnetic flux</text>
        
        <circle cx="8" cy="30" r="6" fill="#e74c3c"/>
        <text x="8" y="34" text-anchor="middle" font-family="Arial, sans-serif" font-size="10" fill="white" font-weight="bold">2</text>
        <text x="25" y="34" font-family="Arial, sans-serif" font-size="13" fill="#2c3e50">Self-induced EMF opposes current change (Lenz's Law)</text>
        
        <circle cx="8" cy="52" r="6" fill="#27ae60"/>
        <text x="8" y="56" text-anchor="middle" font-family="Arial, sans-serif" font-size="10" fill="white" font-weight="bold">3</text>
        <text x="25" y="56" font-family="Arial, sans-serif" font-size="13" fill="#2c3e50">L = Φ/I = N²μA/l (depends on coil geometry)</text>
      </g>
    </g>
  </g>
  
  <!-- Mutual Inductance -->
  <g id="mutual-inductance">
    <text x="900" y="70" text-anchor="middle" font-family="Arial, sans-serif" font-size="18" font-weight="bold" fill="#34495e">
      Mutual Inductance
    </text>
    
    <!-- Two coupled coils -->
    <g transform="translate(700,90)">
      <!-- Iron core -->
      <rect x="120" y="45" width="20" height="110" fill="url(#coreGrad)" rx="5"/>
      <rect x="160" y="45" width="20" height="110" fill="url(#coreGrad)" rx="5"/>
      <text x="150" y="40" text-anchor="middle" font-family="Arial, sans-serif" font-size="12" fill="#333" font-weight="bold">Iron Core</text>
      
      <!-- Primary coil -->
      <g transform="translate(80,50)">
        <ellipse cx="25" cy="15" rx="20" ry="8" fill="none" stroke="url(#coilGrad1)" stroke-width="4"/>
        <ellipse cx="25" cy="25" rx="20" ry="8" fill="none" stroke="url(#coilGrad1)" stroke-width="4"/>
        <ellipse cx="25" cy="35" rx="20" ry="8" fill="none" stroke="url(#coilGrad1)" stroke-width="4"/>
        <ellipse cx="25" cy="45" rx="20" ry="8" fill="none" stroke="url(#coilGrad1)" stroke-width="4"/>
        <ellipse cx="25" cy="55" rx="20" ry="8" fill="none" stroke="url(#coilGrad1)" stroke-width="4"/>
        <text x="25" y="75" text-anchor="middle" font-family="Arial, sans-serif" font-size="12" fill="#3498db" font-weight="bold">Primary</text>
        <text x="25" y="90" text-anchor="middle" font-family="Arial, sans-serif" font-size="12" fill="#3498db" font-weight="bold">N₁</text>
        
        <!-- Primary terminals -->
        <circle cx="0" cy="35" r="3" fill="#333"/>
        <circle cx="50" cy="35" r="3" fill="#333"/>
      </g>
      
      <!-- Secondary coil -->
      <g transform="translate(200,50)">
        <ellipse cx="25" cy="15" rx="20" ry="8" fill="none" stroke="url(#coilGrad2)" stroke-width="4"/>
        <ellipse cx="25" cy="25" rx="20" ry="8" fill="none" stroke="url(#coilGrad2)" stroke-width="4"/>
        <ellipse cx="25" cy="35" rx="20" ry="8" fill="none" stroke="url(#coilGrad2)" stroke-width="4"/>
        <ellipse cx="25" cy="45" rx="20" ry="8" fill="none" stroke="url(#coilGrad2)" stroke-width="4"/>
        <ellipse cx="25" cy="55" rx="20" ry="8" fill="none" stroke="url(#coilGrad2)" stroke-width="4"/>
        <ellipse cx="25" cy="65" rx="20" ry="8" fill="none" stroke="url(#coilGrad2)" stroke-width="4"/>
        <ellipse cx="25" cy="75" rx="20" ry="8" fill="none" stroke="url(#coilGrad2)" stroke-width="4"/>
        <text x="25" y="95" text-anchor="middle" font-family="Arial, sans-serif" font-size="12" fill="#e74c3c" font-weight="bold">Secondary</text>
        <text x="25" y="110" text-anchor="middle" font-family="Arial, sans-serif" font-size="12" fill="#e74c3c" font-weight="bold">N₂</text>
        
        <!-- Secondary terminals -->
        <circle cx="0" cy="45" r="3" fill="#333"/>
        <circle cx="50" cy="45" r="3" fill="#333"/>
      </g>
      
      <!-- Primary current source -->
      <g transform="translate(30,80)">
        <circle cx="0" cy="0" r="15" fill="none" stroke="#f39c12" stroke-width="3"/>
        <text x="0" y="4" text-anchor="middle" font-family="Arial, sans-serif" font-size="10" fill="#f39c12" font-weight="bold">AC</text>
        <path d="M-25 0 L-15 0" stroke="#e74c3c" stroke-width="2" marker-end="url(#currentArrow)"/>
        <text x="-30" y="-5" font-family="Arial, sans-serif" font-size="10" fill="#e74c3c" font-weight="bold">i₁</text>
      </g>
      
      <!-- Secondary load -->
      <g transform="translate(280,90)">
        <rect x="0" y="0" width="25" height="15" fill="none" stroke="#8e44ad" stroke-width="2" rx="2"/>
        <path d="M3 3 L6 12 L9 3 L12 12 L15 3 L18 12 L21 3" stroke="#8e44ad" stroke-width="2" fill="none"/>
        <text x="12" y="25" text-anchor="middle" font-family="Arial, sans-serif" font-size="10" fill="#333">Load</text>
        <path d="M-15 7 L0 7" stroke="#e74c3c" stroke-width="2" marker-end="url(#currentArrow)"/>
        <text x="-20" y="2" font-family="Arial, sans-serif" font-size="10" fill="#e74c3c" font-weight="bold">i₂</text>
      </g>
      
      <!-- Connection wires -->
      <path d="M45 115 L80 115" stroke="#333" stroke-width="2"/>
      <path d="M130 115 L200 115" stroke="#333" stroke-width="2"/>
      <path d="M250 95 L280 95" stroke="#333" stroke-width="2"/>
      <path d="M250 115 L320 115 L320 105 L305 105" stroke="#333" stroke-width="2"/>
      
      <!-- Mutual magnetic field -->
      <g transform="translate(150,80)" opacity="0.6">
        <path d="M-40 10 Q0 5 40 10 Q60 15 80 10" fill="none" stroke="#9b59b6" stroke-width="3" stroke-dasharray="5,3"/>
        <path d="M-40 30 Q0 25 40 30 Q60 35 80 30" fill="none" stroke="#9b59b6" stroke-width="3" stroke-dasharray="5,3"/>
        <text x="20" y="0" text-anchor="middle" font-family="Arial, sans-serif" font-size="12" fill="#9b59b6" font-weight="bold">Φ₁₂</text>
      </g>
    </g>
    
    <!-- Mutual inductance explanation -->
    <g transform="translate(650,220)">
      <rect x="0" y="0" width="500" height="100" fill="#ecf0f1" stroke="#bdc3c7" stroke-width="2" rx="8"/>
      <text x="250" y="25" text-anchor="middle" font-family="Arial, sans-serif" font-size="16" fill="#2c3e50" font-weight="bold">
        Mutual Inductance Characteristics
      </text>
      
      <g transform="translate(20,40)">
        <circle cx="8" cy="8" r="6" fill="#3498db"/>
        <text x="8" y="12" text-anchor="middle" font-family="Arial, sans-serif" font-size="10" fill="white" font-weight="bold">1</text>
        <text x="25" y="12" font-family="Arial, sans-serif" font-size="13" fill="#2c3e50">Current in coil 1 creates magnetic flux linking coil 2</text>
        
        <circle cx="8" cy="30" r="6" fill="#e74c3c"/>
        <text x="8" y="34" text-anchor="middle" font-family="Arial, sans-serif" font-size="10" fill="white" font-weight="bold">2</text>
        <text x="25" y="34" font-family="Arial, sans-serif" font-size="13" fill="#2c3e50">EMF induced in coil 2: ε₂ = -M(di₁/dt)</text>
        
        <circle cx="8" cy="52" r="6" fill="#27ae60"/>
        <text x="8" y="56" text-anchor="middle" font-family="Arial, sans-serif" font-size="10" fill="white" font-weight="bold">3</text>
        <text x="25" y="56" font-family="Arial, sans-serif" font-size="13" fill="#2c3e50">M = k√(L₁L₂), where k is coupling coefficient</text>
      </g>
    </g>
  </g>
  
  <!-- Inductance Formulas -->
  <g id="formulas">
    <text x="600" y="350" text-anchor="middle" font-family="Arial, sans-serif" font-size="18" font-weight="bold" fill="#2c3e50">
      Key Formulas and Relationships
    </text>
    
    <!-- Self-inductance formulas -->
    <g transform="translate(50,380)">
      <rect x="0" y="0" width="500" height="140" fill="#d6eaf8" stroke="#3498db" stroke-width="2" rx="8"/>
      <text x="250" y="25" text-anchor="middle" font-family="Arial, sans-serif" font-size="16" fill="#1f4e79" font-weight="bold">
        Self-Inductance Formulas
      </text>
      
      <g transform="translate(20,40)">
        <text x="0" y="15" font-family="Arial, sans-serif" font-size="14" fill="#1f4e79" font-weight="bold">Basic Definition:</text>
        <text x="150" y="15" font-family="Arial, sans-serif" font-size="14" fill="#2c3e50">L = Φ/I = NΦ/I</text>
        
        <text x="0" y="35" font-family="Arial, sans-serif" font-size="14" fill="#1f4e79" font-weight="bold">Induced EMF:</text>
        <text x="150" y="35" font-family="Arial, sans-serif" font-size="14" fill="#2c3e50">ε = -L(di/dt)</text>
        
        <text x="0" y="55" font-family="Arial, sans-serif" font-size="14" fill="#1f4e79" font-weight="bold">Solenoid:</text>
        <text x="150" y="55" font-family="Arial, sans-serif" font-size="14" fill="#2c3e50">L = μ₀n²Al = μ₀N²A/l</text>
        
        <text x="0" y="75" font-family="Arial, sans-serif" font-size="14" fill="#1f4e79" font-weight="bold">Energy Stored:</text>
        <text x="150" y="75" font-family="Arial, sans-serif" font-size="14" fill="#2c3e50">W = ½LI²</text>
        
        <text x="0" y="95" font-family="Arial, sans-serif" font-size="14" fill="#1f4e79" font-weight="bold">Units:</text>
        <text x="150" y="95" font-family="Arial, sans-serif" font-size="14" fill="#2c3e50">Henry (H) = Weber/Ampere = V·s/A</text>
      </g>
    </g>
    
    <!-- Mutual inductance formulas -->
    <g transform="translate(650,380)">
      <rect x="0" y="0" width="500" height="140" fill="#fadbd8" stroke="#e74c3c" stroke-width="2" rx="8"/>
      <text x="250" y="25" text-anchor="middle" font-family="Arial, sans-serif" font-size="16" fill="#7b241c" font-weight="bold">
        Mutual Inductance Formulas
      </text>
      
      <g transform="translate(20,40)">
        <text x="0" y="15" font-family="Arial, sans-serif" font-size="14" fill="#7b241c" font-weight="bold">Basic Definition:</text>
        <text x="150" y="15" font-family="Arial, sans-serif" font-size="14" fill="#2c3e50">M = Φ₁₂/I₁ = Φ₂₁/I₂</text>
        
        <text x="0" y="35" font-family="Arial, sans-serif" font-size="14" fill="#7b241c" font-weight="bold">Induced EMF:</text>
        <text x="150" y="35" font-family="Arial, sans-serif" font-size="14" fill="#2c3e50">ε₂ = -M(di₁/dt)</text>
        
        <text x="0" y="55" font-family="Arial, sans-serif" font-size="14" fill="#7b241c" font-weight="bold">Coupling:</text>
        <text x="150" y="55" font-family="Arial, sans-serif" font-size="14" fill="#2c3e50">M = k√(L₁L₂), 0 ≤ k ≤ 1</text>
        
        <text x="0" y="75" font-family="Arial, sans-serif" font-size="14" fill="#7b241c" font-weight="bold">Reciprocity:</text>
        <text x="150" y="75" font-family="Arial, sans-serif" font-size="14" fill="#2c3e50">M₁₂ = M₂₁ = M</text>
        
        <text x="0" y="95" font-family="Arial, sans-serif" font-size="14" fill="#7b241c" font-weight="bold">Perfect Coupling:</text>
        <text x="150" y="95" font-family="Arial, sans-serif" font-size="14" fill="#2c3e50">k = 1 → M = √(L₁L₂)</text>
      </g>
    </g>
  </g>
  
  <!-- Coupling Coefficient -->
  <g id="coupling">
    <text x="300" y="550" text-anchor="middle" font-family="Arial, sans-serif" font-size="16" font-weight="bold" fill="#34495e">
      Coupling Coefficient (k)
    </text>
    
    <g transform="translate(50,570)">
      <!-- Tight coupling -->
      <g transform="translate(0,0)">
        <text x="100" y="15" text-anchor="middle" font-family="Arial, sans-serif" font-size="14" fill="#333" font-weight="bold">Tight Coupling (k ≈ 1)</text>
        <ellipse cx="80" cy="40" rx="15" ry="8" fill="none" stroke="#3498db" stroke-width="3"/>
        <ellipse cx="80" cy="50" rx="15" ry="8" fill="none" stroke="#3498db" stroke-width="3"/>
        <ellipse cx="120" cy="40" rx="15" ry="8" fill="none" stroke="#e74c3c" stroke-width="3"/>
        <ellipse cx="120" cy="50" rx="15" ry="8" fill="none" stroke="#e74c3c" stroke-width="3"/>
        <rect x="95" y="35" width="10" height="20" fill="#7f8c8d" rx="2"/>
        <text x="100" y="75" text-anchor="middle" font-family="Arial, sans-serif" font-size="12" fill="#666">Common core</text>
        <text x="100" y="90" text-anchor="middle" font-family="Arial, sans-serif" font-size="12" fill="#666">Transformers</text>
      </g>
      
      <!-- Loose coupling -->
      <g transform="translate(250,0)">
        <text x="100" y="15" text-anchor="middle" font-family="Arial, sans-serif" font-size="14" fill="#333" font-weight="bold">Loose Coupling (k &amp;lt; 0.5)</text>
        <ellipse cx="60" cy="45" rx="15" ry="8" fill="none" stroke="#3498db" stroke-width="3"/>
        <ellipse cx="60" cy="55" rx="15" ry="8" fill="none" stroke="#3498db" stroke-width="3"/>
        <ellipse cx="140" cy="45" rx="15" ry="8" fill="none" stroke="#e74c3c" stroke-width="3"/>
        <ellipse cx="140" cy="55" rx="15" ry="8" fill="none" stroke="#e74c3c" stroke-width="3"/>
        <text x="100" y="75" text-anchor="middle" font-family="Arial, sans-serif" font-size="12" fill="#666">Air core</text>
        <text x="100" y="90" text-anchor="middle" font-family="Arial, sans-serif" font-size="12" fill="#666">RF circuits</text>
      </g>
    </g>
  </g>
  
  <!-- Applications -->
  <g id="applications">
    <text x="900" y="550" text-anchor="middle" font-family="Arial, sans-serif" font-size="16" font-weight="bold" fill="#34495e">
      Practical Applications
    </text>
    
    <g transform="translate(700,570)">
      <!-- Self-inductance applications -->
      <g transform="translate(0,0)">
        <text x="100" y="15" text-anchor="middle" font-family="Arial, sans-serif" font-size="14" fill="#3498db" font-weight="bold">Self-Inductance</text>
        <g transform="translate(50,25)">
          <ellipse cx="25" cy="15" rx="20" ry="6" fill="none" stroke="#3498db" stroke-width="3"/>
          <ellipse cx="25" cy="25" rx="20" ry="6" fill="none" stroke="#3498db" stroke-width="3"/>
          <ellipse cx="25" cy="35" rx="20" ry="6" fill="none" stroke="#3498db" stroke-width="3"/>
          <rect x="15" y="10" width="20" height="30" fill="#7f8c8d" opacity="0.5" rx="2"/>
        </g>
        <text x="100" y="75" text-anchor="middle" font-family="Arial, sans-serif" font-size="12" fill="#666">• Chokes</text>
        <text x="100" y="90" text-anchor="middle" font-family="Arial, sans-serif" font-size="12" fill="#666">• Energy storage</text>
        <text x="100" y="105" text-anchor="middle" font-family="Arial, sans-serif" font-size="12" fill="#666">• Current limiters</text>
      </g>
      
      <!-- Mutual inductance applications -->
      <g transform="translate(250,0)">
        <text x="100" y="15" text-anchor="middle" font-family="Arial, sans-serif" font-size="14" fill="#e74c3c" font-weight="bold">Mutual Inductance</text>
        <g transform="translate(30,25)">
          <ellipse cx="25" cy="20" rx="15" ry="5" fill="none" stroke="#3498db" stroke-width="3"/>
          <ellipse cx="25" cy="28" rx="15" ry="5" fill="none" stroke="#3498db" stroke-width="3"/>
          <ellipse cx="65" cy="20" rx="15" ry="5" fill="none" stroke="#e74c3c" stroke-width="3"/>
          <ellipse cx="65" cy="28" rx="15" ry="5" fill="none" stroke="#e74c3c" stroke-width="3"/>
          <rect x="38" y="15" width="14" height="18" fill="#7f8c8d" rx="2"/>
        </g>
        <text x="100" y="75" text-anchor="middle" font-family="Arial, sans-serif" font-size="12" fill="#666">• Transformers</text>
        <text x="100" y="90" text-anchor="middle" font-family="Arial, sans-serif" font-size="12" fill="#666">• Wireless charging</text>
        <text x="100" y="105" text-anchor="middle" font-family="Arial, sans-serif" font-size="12" fill="#666">• Induction motors</text>
      </g>
    </g>
  </g>
  
  <!-- Factors Affecting Inductance -->
  <g id="factors">
    <rect x="50" y="700" width="1100" height="80" fill="#f8f9fa" stroke="#dee2e6" stroke-width="2" rx="8"/>
    <text x="600" y="725" text-anchor="middle" font-family="Arial, sans-serif" font-size="16" fill="#2c3e50" font-weight="bold">
      Factors Affecting Inductance
    </text>
    
    <g transform="translate(80,740)">
      <text x="0" y="15" font-family="Arial, sans-serif" font-size="13" fill="#2c3e50" font-weight="bold">• Number of Turns (N):</text>
      <text x="200" y="15" font-family="Arial, sans-serif" font-size="12" fill="#666">L ∝ N² (quadratic relationship)</text>
      
      <text x="0" y="35" font-family="Arial, sans-serif" font-size="13" fill="#2c3e50" font-weight="bold">• Core Material (μ):</text>
      <text x="200" y="35" font-family="Arial, sans-serif" font-size="12" fill="#666">Iron core: μᵣ = 1000-10000, Air core: μᵣ = 1</text>
      
      <text x="450" y="15" font-family="Arial, sans-serif" font-size="13" fill="#2c3e50" font-weight="bold">• Cross-sectional Area (A):</text>
      <text x="650" y="15" font-family="Arial, sans-serif" font-size="12" fill="#666">L ∝ A (larger area → higher inductance)</text>
      
      <text x="450" y="35" font-family="Arial, sans-serif" font-size="13" fill="#2c3e50" font-weight="bold">• Length of Coil (l):</text>
      <text x="650" y="35" font-family="Arial, sans-serif" font-size="12" fill="#666">L ∝ 1/l (shorter coil → higher inductance)</text>
    </g>
  </g>
</svg>