<svg viewBox="0 0 1200 900" xmlns="http://www.w3.org/2000/svg">
  <defs>
    <style>
      .title-text { font-family: 'Segoe UI', Arial, sans-serif; font-size: 24px; font-weight: bold; fill: #1e3a8a; }
      .subtitle-text { font-family: 'Segoe UI', Arial, sans-serif; font-size: 18px; font-weight: 600; fill: #1e40af; }
      .label-text { font-family: 'Segoe UI', Arial, sans-serif; font-size: 14px; font-weight: 500; fill: #374151; }
      .value-text { font-family: 'Segoe UI', Arial, sans-serif; font-size: 12px; font-weight: 600; fill: #dc2626; }
      .formula-text { font-family: 'Segoe UI', Arial, sans-serif; font-size: 11px; font-weight: 500; fill: #059669; }
      .self-color { stroke: #7c3aed; fill: #7c3aed; }
      .mutual-color { stroke: #f59e0b; fill: #f59e0b; }
      .current-primary { stroke: #dc2626; fill: #dc2626; }
      .current-secondary { stroke: #16a34a; fill: #16a34a; }
      .coil-wire { stroke: #4338ca; fill: none; stroke-width: 2; }
      .flux-line { stroke: #2563eb; fill: none; stroke-width: 2; stroke-dasharray: 3,2; }
      .core-material { fill: #6b7280; stroke: #374151; stroke-width: 1; }
    </style>
    
    <marker id="arrowhead" markerWidth="10" markerHeight="7" refX="9" refY="3.5" orient="auto">
      <polygon points="0 0, 10 3.5, 0 7" fill="#374151" />
    </marker>
    
    <marker id="flux-arrow" markerWidth="8" markerHeight="6" refX="7" refY="3" orient="auto">
      <polygon points="0 0, 8 3, 0 6" fill="#2563eb" />
    </marker>
    
    <marker id="current-arrow" markerWidth="8" markerHeight="6" refX="7" refY="3" orient="auto">
      <polygon points="0 0, 8 3, 0 6" fill="#dc2626" />
    </marker>
    
    <linearGradient id="selfBg" x1="0%" y1="0%" x2="100%" y2="100%">
      <stop offset="0%" style="stop-color:#f3f4ff;stop-opacity:1" />
      <stop offset="100%" style="stop-color:#e0e7ff;stop-opacity:1" />
    </linearGradient>
    
    <linearGradient id="mutualBg" x1="0%" y1="0%" x2="100%" y2="100%">
      <stop offset="0%" style="stop-color:#fef7cd;stop-opacity:1" />
      <stop offset="100%" style="stop-color:#fef3c7;stop-opacity:1" />
    </linearGradient>
    
    <radialGradient id="coilCore" cx="50%" cy="50%" r="50%">
      <stop offset="0%" style="stop-color:#9ca3af;stop-opacity:1" />
      <stop offset="100%" style="stop-color:#6b7280;stop-opacity:1" />
    </radialGradient>
  </defs>

  <!-- Background -->
  <rect width="1200" height="900" fill="#f8fafc"/>

  <!-- Main Title -->
  <text x="600" y="30" text-anchor="middle" class="title-text">Self-Inductance &amp;amp; Mutual Inductance</text>
  <text x="600" y="55" text-anchor="middle" class="subtitle-text">Electromagnetic Induction Phenomena</text>

  <!-- Self-Inductance Section -->
  <g id="selfInductanceSection">
    <rect x="50" y="80" width="550" height="380" rx="10" fill="url(#selfBg)" stroke="#7c3aed" stroke-width="2"/>
    <text x="325" y="105" text-anchor="middle" class="subtitle-text">SELF-INDUCTANCE</text>
    
    <!-- Self-Inductance Demonstration -->
    <g id="selfDemo" transform="translate(100, 130)">
      <text x="200" y="0" text-anchor="middle" class="label-text">Single Coil - Self-Induced EMF</text>
      
      <!-- Single coil with core -->
      <g id="singleCoil">
        <!-- Iron core -->
        <rect x="180" y="30" width="40" height="120" rx="5" fill="url(#coilCore)" stroke="#374151" stroke-width="2"/>
        <text x="200" y="25" text-anchor="middle" class="formula-text">Iron Core</text>
        
        <!-- Coil windings -->
        <g id="coilWindings">
          <!-- Left side windings -->
          <ellipse cx="165" cy="50" rx="15" ry="10" class="coil-wire"/>
          <ellipse cx="165" cy="70" rx="15" ry="10" class="coil-wire"/>
          <ellipse cx="165" cy="90" rx="15" ry="10" class="coil-wire"/>
          <ellipse cx="165" cy="110" rx="15" ry="10" class="coil-wire"/>
          <ellipse cx="165" cy="130" rx="15" ry="10" class="coil-wire"/>
          
          <!-- Right side windings -->
          <ellipse cx="235" cy="50" rx="15" ry="10" class="coil-wire"/>
          <ellipse cx="235" cy="70" rx="15" ry="10" class="coil-wire"/>
          <ellipse cx="235" cy="90" rx="15" ry="10" class="coil-wire"/>
          <ellipse cx="235" cy="110" rx="15" ry="10" class="coil-wire"/>
          <ellipse cx="235" cy="130" rx="15" ry="10" class="coil-wire"/>
          
          <text x="200" y="170" text-anchor="middle" class="formula-text">N turns</text>
        </g>
        
        <!-- AC source -->
        <g id="acSource" transform="translate(50, 80)">
          <circle cx="0" cy="0" r="20" fill="white" stroke="#374151" stroke-width="2"/>
          <path d="M -8,-5 Q 0,5 8,-5" stroke="#374151" stroke-width="2" fill="none"/>
          <path d="M -8,5 Q 0,-5 8,5" stroke="#374151" stroke-width="2" fill="none"/>
          <text x="0" y="30" text-anchor="middle" class="formula-text">AC Source</text>
          <text x="0" y="45" text-anchor="middle" class="formula-text">i(t) = I sin(ωt)</text>
        </g>
        
        <!-- Connecting wires -->
        <line x1="70" y1="80" x2="150" y2="50" class="coil-wire"/>
        <line x1="70" y1="80" x2="150" y2="130" class="coil-wire"/>
        
        <!-- Current direction -->
        <circle cx="120" cy="65" r="3" fill="#dc2626"/>
        <text x="130" y="70" class="formula-text">i(t)</text>
        <line x1="110" y1="65" x2="95" y2="65" class="current-primary" stroke-width="2" marker-end="url(#current-arrow)"/>
      </g>
      
      <!-- Magnetic flux -->
      <g id="selfFlux">
        <!-- Flux lines through coil -->
        <path d="M 200,40 Q 160,90 200,140" class="flux-line" marker-end="url(#flux-arrow)"/>
        <path d="M 200,45 Q 155,90 200,135" class="flux-line" marker-end="url(#flux-arrow)"/>
        <path d="M 200,50 Q 150,90 200,130" class="flux-line" marker-end="url(#flux-arrow)"/>
        
        <!-- External flux return path -->
        <path d="M 200,140 Q 280,120 300,90 Q 280,60 200,40" class="flux-line" stroke-dasharray="5,5"/>
        
        <text x="320" y="90" class="formula-text">Φ(t)</text>
        <text x="270" y="50" class="formula-text">Self flux</text>
      </g>
      
      <!-- Back EMF indication -->
      <g id="backEMF" transform="translate(350, 80)">
        <circle cx="0" cy="0" r="15" fill="white" stroke="#374151" stroke-width="2"/>
        <text x="0" y="5" text-anchor="middle" class="label-text">V</text>
        <text x="0" y="25" text-anchor="middle" class="formula-text">Back EMF</text>
        <text x="0" y="40" text-anchor="middle" class="formula-text">ε = -L(di/dt)</text>
        
        <!-- Connection -->
        <line x1="250" y1="50" x2="320" y2="65" stroke="#374151" stroke-width="2"/>
        <line x1="250" y1="130" x2="320" y2="95" stroke="#374151" stroke-width="2"/>
        <line x1="320" y1="65" x2="-15" y2="80" stroke="#374151" stroke-width="2"/>
        <line x1="320" y1="95" x2="-15" y2="80" stroke="#374151" stroke-width="2"/>
        
        <!-- Polarity indication -->
        <text x="-25" y="75" class="value-text">-</text>
        <text x="-25" y="90" class="value-text">+</text>
      </g>
      
      <!-- Self-inductance value -->
      <text x="200" y="200" text-anchor="middle" class="formula-text">L = Φ/i = μ₀μᵣN²A/l</text>
      <text x="200" y="220" text-anchor="middle" class="value-text">Self-inductance depends on coil geometry</text>
    </g>
    
    <!-- Self-Inductance Formula -->
    <g id="selfFormula" transform="translate(70, 380)">
      <rect x="0" y="0" width="480" height="60" rx="5" fill="white" stroke="#7c3aed" stroke-width="2"/>
      <text x="240" y="25" text-anchor="middle" class="subtitle-text">Self-Inductance Formula</text>
      <text x="50" y="45" class="formula-text">Back EMF: ε = -L(di/dt), Energy: U = ½Li²</text>
      <text x="350" y="45" class="value-text">Unit: Henry (H)</text>
    </g>
  </g>

  <!-- Mutual Inductance Section -->
  <g id="mutualInductanceSection">
    <rect x="650" y="80" width="500" height="380" rx="10" fill="url(#mutualBg)" stroke="#f59e0b" stroke-width="2"/>
    <text x="900" y="105" text-anchor="middle" class="subtitle-text">MUTUAL INDUCTANCE</text>
    
    <!-- Mutual Inductance Demonstration -->
    <g id="mutualDemo" transform="translate(680, 130)">
      <text x="200" y="0" text-anchor="middle" class="label-text">Two Coupled Coils</text>
      
      <!-- Transformer structure -->
      <g id="transformer">
        <!-- Common core -->
        <rect x="180" y="30" width="40" height="120" rx="5" fill="url(#coilCore)" stroke="#374151" stroke-width="2"/>
        <text x="200" y="25" text-anchor="middle" class="formula-text">Common Core</text>
        
        <!-- Primary coil (left) -->
        <g id="primaryCoil">
          <ellipse cx="155" cy="50" rx="15" ry="8" class="coil-wire"/>
          <ellipse cx="155" cy="65" rx="15" ry="8" class="coil-wire"/>
          <ellipse cx="155" cy="80" rx="15" ry="8" class="coil-wire"/>
          <ellipse cx="155" cy="95" rx="15" ry="8" class="coil-wire"/>
          <ellipse cx="155" cy="110" rx="15" ry="8" class="coil-wire"/>
          <ellipse cx="155" cy="125" rx="15" ry="8" class="coil-wire"/>
          <text x="155" y="145" text-anchor="middle" class="formula-text">Primary</text>
          <text x="155" y="160" text-anchor="middle" class="formula-text">N₁ turns</text>
        </g>
        
        <!-- Secondary coil (right) -->
        <g id="secondaryCoil">
          <ellipse cx="245" cy="55" rx="15" ry="8" class="coil-wire" stroke="#16a34a"/>
          <ellipse cx="245" cy="70" rx="15" ry="8" class="coil-wire" stroke="#16a34a"/>
          <ellipse cx="245" cy="85" rx="15" ry="8" class="coil-wire" stroke="#16a34a"/>
          <ellipse cx="245" cy="100" rx="15" ry="8" class="coil-wire" stroke="#16a34a"/>
          <ellipse cx="245" cy="115" rx="15" ry="8" class="coil-wire" stroke="#16a34a"/>
          <text x="245" y="145" text-anchor="middle" class="formula-text">Secondary</text>
          <text x="245" y="160" text-anchor="middle" class="formula-text">N₂ turns</text>
        </g>
        
        <!-- AC source for primary -->
        <g id="primarySource" transform="translate(70, 80)">
          <circle cx="0" cy="0" r="15" fill="white" stroke="#374151" stroke-width="2"/>
          <path d="M -6,-3 Q 0,3 6,-3" stroke="#374151" stroke-width="1.5" fill="none"/>
          <path d="M -6,3 Q 0,-3 6,3" stroke="#374151" stroke-width="1.5" fill="none"/>
          <text x="0" y="25" text-anchor="middle" class="formula-text">AC</text>
          
          <!-- Primary current -->
          <text x="0" y="-25" text-anchor="middle" class="formula-text">i₁(t)</text>
        </g>
        
        <!-- Load on secondary -->
        <g id="secondaryLoad" transform="translate(330, 80)">
          <rect x="-10" y="-8" width="20" height="16" fill="white" stroke="#374151" stroke-width="2"/>
          <text x="0" y="4" text-anchor="middle" class="formula-text">R</text>
          <text x="0" y="25" text-anchor="middle" class="formula-text">Load</text>
          
          <!-- Secondary current -->
          <text x="0" y="-25" text-anchor="middle" class="formula-text">i₂(t)</text>
        </g>
        
        <!-- Connections -->
        <line x1="85" y1="80" x2="140" y2="60" class="coil-wire"/>
        <line x1="85" y1="80" x2="140" y2="120" class="coil-wire"/>
        <line x1="260" y1="65" x2="320" y2="72" stroke="#16a34a" stroke-width="2"/>
        <line x1="260" y1="105" x2="320" y2="88" stroke="#16a34a" stroke-width="2"/>
        
        <!-- Current directions -->
        <circle cx="120" cy="90" r="2" class="current-primary"/>
        <line x1="110" y1="90" x2="100" y2="90" class="current-primary" stroke-width="2" marker-end="url(#current-arrow)"/>
        
        <circle cx="280" cy="85" r="2" class="current-secondary"/>
        <line x1="290" y1="85" x2="300" y2="85" class="current-secondary" stroke-width="2" marker-end="url(#arrowhead)"/>
      </g>
      
      <!-- Mutual flux -->
      <g id="mutualFlux">
        <!-- Primary flux linking secondary -->
        <path d="M 200,40 Q 130,90 200,140" class="flux-line" marker-end="url(#flux-arrow)"/>
        <path d="M 200,45 Q 135,90 200,135" class="flux-line" marker-end="url(#flux-arrow)"/>
        <path d="M 200,50 Q 140,90 200,130" class="flux-line" marker-end="url(#flux-arrow)"/>
        
        <!-- External return path -->
        <path d="M 200,140 Q 300,150 350,100 Q 300,40 200,40" class="flux-line" stroke-dasharray="5,5"/>
        
        <text x="120" y="90" class="formula-text">Φ₂₁</text>
        <text x="270" y="40" class="formula-text">Mutual flux</text>
      </g>
      
      <!-- Induced EMF in secondary -->
      <g id="inducedEMF" transform="translate(350, 120)">
        <circle cx="0" cy="0" r="12" fill="white" stroke="#16a34a" stroke-width="2"/>
        <text x="0" y="4" text-anchor="middle" class="formula-text">V₂</text>
        <text x="0" y="20" text-anchor="middle" class="formula-text">ε₂ = -M(di₁/dt)</text>
        
        <!-- Polarity -->
        <text x="-15" y="-5" class="value-text">-</text>
        <text x="-15" y="8" class="value-text">+</text>
      </g>
      
      <!-- Coupling coefficient -->
      <text x="200" y="190" text-anchor="middle" class="formula-text">M = k√(L₁L₂), where k is coupling coefficient</text>
      <text x="200" y="210" text-anchor="middle" class="value-text">k = 1 (perfect coupling), k = 0 (no coupling)</text>
    </g>
    
    <!-- Mutual Inductance Formula -->
    <g id="mutualFormula" transform="translate(670, 380)">
      <rect x="0" y="0" width="460" height="60" rx="5" fill="white" stroke="#f59e0b" stroke-width="2"/>
      <text x="230" y="25" text-anchor="middle" class="subtitle-text">Mutual Inductance Formula</text>
      <text x="50" y="45" class="formula-text">ε₂ = -M(di₁/dt), M₁₂ = M₂₁ = M</text>
      <text x="320" y="45" class="value-text">Unit: Henry (H)</text>
    </g>
  </g>

  <!-- Factors Affecting Inductance -->
  <g id="factorsSection" transform="translate(50, 490)">
    <text x="550" y="20" text-anchor="middle" class="subtitle-text">Factors Affecting Inductance &amp;amp; Applications</text>
    
    <rect x="0" y="40" width="1100" height="300" fill="white" stroke="#d1d5db" stroke-width="1" rx="8"/>
    
    <!-- Self-Inductance Factors -->
    <g id="selfFactors" transform="translate(50, 80)">
      <text x="200" y="0" text-anchor="middle" class="label-text">Self-Inductance Factors</text>
      <rect x="20" y="20" width="360" height="200" fill="#f3f4ff" stroke="#7c3aed" stroke-width="2" rx="5"/>
      
      <!-- Coil geometry -->
      <g id="geometryFactors" transform="translate(40, 40)">
        <!-- Number of turns -->
        <g id="turnsEffect">
          <text x="0" y="15" class="formula-text">1. Number of turns (N):</text>
          <text x="20" y="30" class="formula-text">L ∝ N²</text>
          
          <!-- Visual representation -->
          <g transform="translate(200, 10)">
            <ellipse cx="20" cy="0" rx="8" ry="5" class="coil-wire"/>
            <ellipse cx="20" cy="10" rx="8" ry="5" class="coil-wire"/>
            <text x="35" y="8" class="formula-text">Few turns → Low L</text>
            
            <ellipse cx="80" cy="-5" rx="8" ry="5" class="coil-wire"/>
            <ellipse cx="80" cy="0" rx="8" ry="5" class="coil-wire"/>
            <ellipse cx="80" cy="5" rx="8" ry="5" class="coil-wire"/>
            <ellipse cx="80" cy="10" rx="8" ry="5" class="coil-wire"/>
            <ellipse cx="80" cy="15" rx="8" ry="5" class="coil-wire"/>
            <text x="95" y="8" class="formula-text">Many turns → High L</text>
          </g>
        </g>
        
        <!-- Cross-sectional area -->
        <g id="areaEffect" transform="translate(0, 50)">
          <text x="0" y="15" class="formula-text">2. Cross-sectional area (A):</text>
          <text x="20" y="30" class="formula-text">L ∝ A</text>
          
          <!-- Visual comparison -->
          <g transform="translate(200, 10)">
            <ellipse cx="20" cy="5" rx="6" ry="8" class="coil-wire"/>
            <text x="30" y="8" class="formula-text">Small A</text>
            
            <ellipse cx="80" cy="5" rx="12" ry="8" class="coil-wire"/>
            <text x="95" y="8" class="formula-text">Large A</text>
          </g>
        </g>
        
        <!-- Core material -->
        <g id="materialEffect" transform="translate(0, 100)">
          <text x="0" y="15" class="formula-text">3. Core material (μᵣ):</text>
          <text x="20" y="30" class="formula-text">L ∝ μᵣ</text>
          
          <!-- Material comparison -->
          <g transform="translate(150, 0)">
            <rect x="0" y="5" width="15" height="20" fill="white" stroke="#6b7280"/>
            <text x="7" y="17" text-anchor="middle" class="formula-text">Air</text>
            <text x="7" y="35" text-anchor="middle" class="formula-text">μᵣ = 1</text>
            
            <rect x="50" y="5" width="15" height="20" fill="#6b7280" stroke="#374151"/>
            <text x="57" y="17" text-anchor="middle" class="formula-text">Iron</text>
            <text x="57" y="35" text-anchor="middle" class="formula-text">μᵣ >> 1</text>
          </g>
        </g>
        
        <!-- Length -->
        <g id="lengthEffect" transform="translate(0, 150)">
          <text x="0" y="15" class="formula-text">4. Coil length (l): L ∝ 1/l</text>
          <text x="150" y="15" class="formula-text">Shorter coil → Higher inductance</text>
        </g>
      </g>
    </g>
    
    <!-- Mutual Inductance Factors -->
    <g id="mutualFactors" transform="translate(450, 80)">
      <text x="200" y="0" text-anchor="middle" class="label-text">Mutual Inductance Factors</text>
      <rect x="20" y="20" width="360" height="200" fill="#fef7cd" stroke="#f59e0b" stroke-width="2" rx="5"/>
      
      <g id="couplingFactors" transform="translate(40, 40)">
        <!-- Coupling coefficient -->
        <g id="couplingK">
          <text x="0" y="15" class="formula-text">1. Coupling coefficient (k):</text>
          <text x="20" y="30" class="formula-text">M = k√(L₁L₂)</text>
          
          <!-- Coupling visualization -->
          <g transform="translate(200, 0)">
            <ellipse cx="15" cy="15" rx="8" ry="12" class="coil-wire"/>
            <ellipse cx="25" cy="15" rx="8" ry="12" class="coil-wire" stroke="#16a34a"/>
            <text x="20" y="35" text-anchor="middle" class="formula-text">k ≈ 1</text>
            <text x="20" y="50" text-anchor="middle" class="formula-text">Close</text>
            
            <ellipse cx="80" cy="15" rx="8" ry="12" class="coil-wire"/>
            <ellipse cx="120" cy="15" rx="8" ry="12" class="coil-wire" stroke="#16a34a"/>
            <text x="100" y="35" text-anchor="middle" class="formula-text">k ≈ 0</text>
            <text x="100" y="50" text-anchor="middle" class="formula-text">Far apart</text>
          </g>
        </g>
        
        <!-- Relative position -->
        <g id="positionEffect" transform="translate(0, 70)">
          <text x="0" y="15" class="formula-text">2. Relative position &amp;amp; orientation:</text>
          <text x="20" y="30" class="formula-text">Maximum when coaxial</text>
          
          <!-- Position visualization -->
          <g transform="translate(200, 0)">
            <ellipse cx="20" cy="15" rx="6" ry="10" class="coil-wire"/>
            <ellipse cx="30" cy="15" rx="6" ry="10" class="coil-wire" stroke="#16a34a"/>
            <text x="25" y="35" text-anchor="middle" class="formula-text">Coaxial</text>
            <text x="25" y="50" text-anchor="middle" class="formula-text">Max M</text>
            
            <ellipse cx="80" cy="15" rx="6" ry="10" class="coil-wire"/>
            <ellipse cx="100" cy="15" rx="10" ry="6" class="coil-wire" stroke="#16a34a"/>
            <text x="90" y="35" text-anchor="middle" class="formula-text">Perpendicular</text>
            <text x="90" y="50" text-anchor="middle" class="formula-text">Min M</text>
          </g>
        </g>
        
        <!-- Core material -->
        <g id="mutualCore" transform="translate(0, 140)">
          <text x="0" y="15" class="formula-text">3. Common core material:</text>
          <text x="20" y="30" class="formula-text">Iron core increases M significantly</text>
          
          <g transform="translate(200, 0)">
            <rect x="15" y="5" width="8" height="20" fill="#6b7280"/>
            <ellipse cx="10" cy="15" rx="6" ry="10" class="coil-wire"/>
            <ellipse cx="28" cy="15" rx="6" ry="10" class="coil-wire" stroke="#16a34a"/>
            <text x="19" y="35" text-anchor="middle" class="formula-text">Iron core</text>
          </g>
        </g>
      </g>
    </g>
  </g>

  <!-- Applications -->
  <g id="applications" transform="translate(50, 810)">
    <text x="550" y="0" text-anchor="middle" class="subtitle-text">Applications</text>
    <text x="0" y="25" class="formula-text">Self-Inductance: Inductors in filters, energy storage, chokes in AC circuits, fluorescent lamp ballasts</text>
    <text x="0" y="45" class="formula-text">Mutual Inductance: Transformers (power distribution), wireless power transfer, induction heating, coupled circuits</text>
    <text x="0" y="65" class="formula-text">Both phenomena are fundamental to electromagnetic devices and AC circuit analysis</text>
  </g>
</svg>