<svg viewBox="0 0 1000 800" xmlns="http://www.w3.org/2000/svg">
  <defs>
    <linearGradient id="airCoreGrad" x1="0%" y1="0%" x2="100%" y2="100%">
      <stop offset="0%" style="stop-color:#87CEEB;stop-opacity:1" />
      <stop offset="100%" style="stop-color:#4682B4;stop-opacity:1" />
    </linearGradient>
    <linearGradient id="ironCoreGrad" x1="0%" y1="0%" x2="100%" y2="100%">
      <stop offset="0%" style="stop-color:#A0A0A0;stop-opacity:1" />
      <stop offset="100%" style="stop-color:#606060;stop-opacity:1" />
    </linearGradient>
    <linearGradient id="ferriteCoreGrad" x1="0%" y1="0%" x2="100%" y2="100%">
      <stop offset="0%" style="stop-color:#8B4513;stop-opacity:1" />
      <stop offset="100%" style="stop-color:#654321;stop-opacity:1" />
    </linearGradient>
    <linearGradient id="coilGrad" x1="0%" y1="0%" x2="100%" y2="100%">
      <stop offset="0%" style="stop-color:#FFB366;stop-opacity:1" />
      <stop offset="100%" style="stop-color:#FF8C42;stop-opacity:1" />
    </linearGradient>
    <linearGradient id="variableGrad" x1="0%" y1="0%" x2="100%" y2="100%">
      <stop offset="0%" style="stop-color:#9B59B6;stop-opacity:1" />
      <stop offset="100%" style="stop-color:#8E44AD;stop-opacity:1" />
    </linearGradient>
    <marker id="arrowhead" markerWidth="10" markerHeight="7" refX="9" refY="3.5" orient="auto">
      <polygon points="0 0, 10 3.5, 0 7" fill="#333" />
    </marker>
  </defs>

  <!-- Background -->
  <rect width="1000" height="800" fill="#F8F9FA"/>

  <!-- Title -->
  <text x="500" y="40" font-family="Arial, sans-serif" font-size="32" font-weight="bold" text-anchor="middle" fill="#2C3E50">
    Types of Inductors
  </text>

  <!-- Air Core Inductors -->
  <g transform="translate(50, 80)">
    <rect x="0" y="0" width="280" height="160" rx="10" fill="#E8F4FD" stroke="#2196F3" stroke-width="2"/>
    <text x="140" y="25" font-family="Arial, sans-serif" font-size="18" font-weight="bold" text-anchor="middle" fill="#2196F3">
      Air Core Inductors
    </text>

    <!-- Air core inductor diagram -->
    <g transform="translate(70, 50)">
      <ellipse cx="70" cy="15" rx="30" ry="8" fill="none" stroke="url(#coilGrad)" stroke-width="4"/>
      <ellipse cx="70" cy="25" rx="30" ry="8" fill="none" stroke="url(#coilGrad)" stroke-width="4"/>
      <ellipse cx="70" cy="35" rx="30" ry="8" fill="none" stroke="url(#coilGrad)" stroke-width="4"/>
      <ellipse cx="70" cy="45" rx="30" ry="8" fill="none" stroke="url(#coilGrad)" stroke-width="4"/>
      <ellipse cx="70" cy="55" rx="30" ry="8" fill="none" stroke="url(#coilGrad)" stroke-width="4"/>
      
      <!-- Air indication -->
      <text x="70" y="35" font-family="Arial, sans-serif" font-size="12" text-anchor="middle" fill="#87CEEB" font-weight="bold">
        Air
      </text>
      <text x="70" y="75" font-family="Arial, sans-serif" font-size="12" text-anchor="middle" fill="#666">
        No Core Material
      </text>
    </g>

    <!-- Characteristics -->
    <rect x="15" y="120" width="250" height="30" rx="3" fill="white" stroke="#2196F3" stroke-width="1"/>
    <text x="20" y="135" font-family="Arial, sans-serif" font-size="11" fill="#333">
      • Low inductance • High Q-factor • RF applications
    </text>
    <text x="20" y="145" font-family="Arial, sans-serif" font-size="11" fill="#333">
      • No core losses • Linear characteristics
    </text>
  </g>

  <!-- Iron Core Inductors -->
  <g transform="translate(360, 80)">
    <rect x="0" y="0" width="280" height="160" rx="10" fill="#F5F5F5" stroke="#666" stroke-width="2"/>
    <text x="140" y="25" font-family="Arial, sans-serif" font-size="18" font-weight="bold" text-anchor="middle" fill="#666">
      Iron Core Inductors
    </text>

    <!-- Iron core inductor diagram -->
    <g transform="translate(70, 50)">
      <!-- Iron core -->
      <rect x="55" y="10" width="30" height="50" fill="url(#ironCoreGrad)" rx="3"/>
      <text x="70" y="35" font-family="Arial, sans-serif" font-size="10" text-anchor="middle" fill="white" font-weight="bold">
        Iron
      </text>
      
      <!-- Coil -->
      <ellipse cx="45" cy="15" rx="15" ry="6" fill="none" stroke="url(#coilGrad)" stroke-width="3"/>
      <ellipse cx="45" cy="25" rx="15" ry="6" fill="none" stroke="url(#coilGrad)" stroke-width="3"/>
      <ellipse cx="45" cy="35" rx="15" ry="6" fill="none" stroke="url(#coilGrad)" stroke-width="3"/>
      <ellipse cx="45" cy="45" rx="15" ry="6" fill="none" stroke="url(#coilGrad)" stroke-width="3"/>
      <ellipse cx="45" cy="55" rx="15" ry="6" fill="none" stroke="url(#coilGrad)" stroke-width="3"/>
      
      <ellipse cx="95" cy="15" rx="15" ry="6" fill="none" stroke="url(#coilGrad)" stroke-width="3"/>
      <ellipse cx="95" cy="25" rx="15" ry="6" fill="none" stroke="url(#coilGrad)" stroke-width="3"/>
      <ellipse cx="95" cy="35" rx="15" ry="6" fill="none" stroke="url(#coilGrad)" stroke-width="3"/>
      <ellipse cx="95" cy="45" rx="15" ry="6" fill="none" stroke="url(#coilGrad)" stroke-width="3"/>
      <ellipse cx="95" cy="55" rx="15" ry="6" fill="none" stroke="url(#coilGrad)" stroke-width="3"/>
      
      <text x="70" y="75" font-family="Arial, sans-serif" font-size="12" text-anchor="middle" fill="#666">
        High Permeability Core
      </text>
    </g>

    <!-- Characteristics -->
    <rect x="15" y="120" width="250" height="30" rx="3" fill="white" stroke="#666" stroke-width="1"/>
    <text x="20" y="135" font-family="Arial, sans-serif" font-size="11" fill="#333">
      • High inductance • Low Q-factor • Power applications
    </text>
    <text x="20" y="145" font-family="Arial, sans-serif" font-size="11" fill="#333">
      • Core saturation • Hysteresis losses
    </text>
  </g>

  <!-- Ferrite Core Inductors -->
  <g transform="translate(670, 80)">
    <rect x="0" y="0" width="280" height="160" rx="10" fill="#FDF5E6" stroke="#8B4513" stroke-width="2"/>
    <text x="140" y="25" font-family="Arial, sans-serif" font-size="18" font-weight="bold" text-anchor="middle" fill="#8B4513">
      Ferrite Core Inductors
    </text>

    <!-- Ferrite core inductor diagram -->
    <g transform="translate(70, 50)">
      <!-- Ferrite core -->
      <rect x="55" y="10" width="30" height="50" fill="url(#ferriteCoreGrad)" rx="3"/>
      <text x="70" y="32" font-family="Arial, sans-serif" font-size="9" text-anchor="middle" fill="white" font-weight="bold">
        Ferrite
      </text>
      <text x="70" y="42" font-family="Arial, sans-serif" font-size="9" text-anchor="middle" fill="white" font-weight="bold">
        Core
      </text>
      
      <!-- Coil -->
      <ellipse cx="45" cy="15" rx="15" ry="6" fill="none" stroke="url(#coilGrad)" stroke-width="3"/>
      <ellipse cx="45" cy="25" rx="15" ry="6" fill="none" stroke="url(#coilGrad)" stroke-width="3"/>
      <ellipse cx="45" cy="35" rx="15" ry="6" fill="none" stroke="url(#coilGrad)" stroke-width="3"/>
      <ellipse cx="45" cy="45" rx="15" ry="6" fill="none" stroke="url(#coilGrad)" stroke-width="3"/>
      <ellipse cx="45" cy="55" rx="15" ry="6" fill="none" stroke="url(#coilGrad)" stroke-width="3"/>
      
      <ellipse cx="95" cy="15" rx="15" ry="6" fill="none" stroke="url(#coilGrad)" stroke-width="3"/>
      <ellipse cx="95" cy="25" rx="15" ry="6" fill="none" stroke="url(#coilGrad)" stroke-width="3"/>
      <ellipse cx="95" cy="35" rx="15" ry="6" fill="none" stroke="url(#coilGrad)" stroke-width="3"/>
      <ellipse cx="95" cy="45" rx="15" ry="6" fill="none" stroke="url(#coilGrad)" stroke-width="3"/>
      <ellipse cx="95" cy="55" rx="15" ry="6" fill="none" stroke="url(#coilGrad)" stroke-width="3"/>
      
      <text x="70" y="75" font-family="Arial, sans-serif" font-size="12" text-anchor="middle" fill="#666">
        High Frequency Core
      </text>
    </g>

    <!-- Characteristics -->
    <rect x="15" y="120" width="250" height="30" rx="3" fill="white" stroke="#8B4513" stroke-width="1"/>
    <text x="20" y="135" font-family="Arial, sans-serif" font-size="11" fill="#333">
      • Medium inductance • Good Q-factor • RF/HF applications
    </text>
    <text x="20" y="145" font-family="Arial, sans-serif" font-size="11" fill="#333">
      • Low eddy current losses • Temperature stable
    </text>
  </g>

  <!-- Variable Inductors -->
  <g transform="translate(50, 260)">
    <rect x="0" y="0" width="280" height="160" rx="10" fill="#F4E5F7" stroke="#9C27B0" stroke-width="2"/>
    <text x="140" y="25" font-family="Arial, sans-serif" font-size="18" font-weight="bold" text-anchor="middle" fill="#9C27B0">
      Variable Inductors
    </text>

    <!-- Variable inductor diagram -->
    <g transform="translate(70, 50)">
      <!-- Variable core -->
      <rect x="60" y="10" width="20" height="50" fill="url(#variableGrad)" rx="3"/>
      <text x="70" y="35" font-family="Arial, sans-serif" font-size="10" text-anchor="middle" fill="white" font-weight="bold">
        Core
      </text>
      
      <!-- Coil -->
      <ellipse cx="50" cy="15" rx="18" ry="6" fill="none" stroke="url(#coilGrad)" stroke-width="3"/>
      <ellipse cx="50" cy="25" rx="18" ry="6" fill="none" stroke="url(#coilGrad)" stroke-width="3"/>
      <ellipse cx="50" cy="35" rx="18" ry="6" fill="none" stroke="url(#coilGrad)" stroke-width="3"/>
      <ellipse cx="50" cy="45" rx="18" ry="6" fill="none" stroke="url(#coilGrad)" stroke-width="3"/>
      <ellipse cx="50" cy="55" rx="18" ry="6" fill="none" stroke="url(#coilGrad)" stroke-width="3"/>
      
      <ellipse cx="90" cy="15" rx="18" ry="6" fill="none" stroke="url(#coilGrad)" stroke-width="3"/>
      <ellipse cx="90" cy="25" rx="18" ry="6" fill="none" stroke="url(#coilGrad)" stroke-width="3"/>
      <ellipse cx="90" cy="35" rx="18" ry="6" fill="none" stroke="url(#coilGrad)" stroke-width="3"/>
      <ellipse cx="90" cy="45" rx="18" ry="6" fill="none" stroke="url(#coilGrad)" stroke-width="3"/>
      <ellipse cx="90" cy="55" rx="18" ry="6" fill="none" stroke="url(#coilGrad)" stroke-width="3"/>
      
      <!-- Movement arrow -->
      <path d="M 70 5 L 70 -5" stroke="#9C27B0" stroke-width="3" marker-end="url(#arrowhead)"/>
      <path d="M 70 70 L 70 80" stroke="#9C27B0" stroke-width="3" marker-end="url(#arrowhead)"/>
      <text x="85" y="0" font-family="Arial, sans-serif" font-size="10" fill="#9C27B0" font-weight="bold">
        Adjustable
      </text>
      
      <text x="70" y="95" font-family="Arial, sans-serif" font-size="12" text-anchor="middle" fill="#666">
        Adjustable Inductance
      </text>
    </g>

    <!-- Characteristics -->
    <rect x="15" y="120" width="250" height="30" rx="3" fill="white" stroke="#9C27B0" stroke-width="1"/>
    <text x="20" y="135" font-family="Arial, sans-serif" font-size="11" fill="#333">
      • Tunable inductance • Circuit tuning applications
    </text>
    <text x="20" y="145" font-family="Arial, sans-serif" font-size="11" fill="#333">
      • Manual or motorized adjustment
    </text>
  </g>

  <!-- Toroidal Inductors -->
  <g transform="translate(360, 260)">
    <rect x="0" y="0" width="280" height="160" rx="10" fill="#E8F8E8" stroke="#4CAF50" stroke-width="2"/>
    <text x="140" y="25" font-family="Arial, sans-serif" font-size="18" font-weight="bold" text-anchor="middle" fill="#4CAF50">
      Toroidal Inductors
    </text>

    <!-- Toroidal inductor diagram -->
    <g transform="translate(70, 50)">
      <!-- Toroidal core -->
      <circle cx="70" cy="35" r="25" fill="none" stroke="url(#ferriteCoreGrad)" stroke-width="8"/>
      <circle cx="70" cy="35" r="15" fill="#F8F9FA"/>
      
      <!-- Winding -->
      <g opacity="0.8">
        <ellipse cx="50" cy="25" rx="8" ry="4" fill="none" stroke="url(#coilGrad)" stroke-width="3"/>
        <ellipse cx="60" cy="15" rx="8" ry="4" fill="none" stroke="url(#coilGrad)" stroke-width="3"/>
        <ellipse cx="80" cy="15" rx="8" ry="4" fill="none" stroke="url(#coilGrad)" stroke-width="3"/>
        <ellipse cx="90" cy="25" rx="8" ry="4" fill="none" stroke="url(#coilGrad)" stroke-width="3"/>
        <ellipse cx="90" cy="45" rx="8" ry="4" fill="none" stroke="url(#coilGrad)" stroke-width="3"/>
        <ellipse cx="80" cy="55" rx="8" ry="4" fill="none" stroke="url(#coilGrad)" stroke-width="3"/>
        <ellipse cx="60" cy="55" rx="8" ry="4" fill="none" stroke="url(#coilGrad)" stroke-width="3"/>
        <ellipse cx="50" cy="45" rx="8" ry="4" fill="none" stroke="url(#coilGrad)" stroke-width="3"/>
      </g>
      
      <text x="70" y="85" font-family="Arial, sans-serif" font-size="12" text-anchor="middle" fill="#666">
        Doughnut Shaped Core
      </text>
    </g>

    <!-- Characteristics -->
    <rect x="15" y="120" width="250" height="30" rx="3" fill="white" stroke="#4CAF50" stroke-width="1"/>
    <text x="20" y="135" font-family="Arial, sans-serif" font-size="11" fill="#333">
      • Closed magnetic path • High efficiency • Low EMI
    </text>
    <text x="20" y="145" font-family="Arial, sans-serif" font-size="11" fill="#333">
      • Compact size • Power supplies
    </text>
  </g>

  <!-- Multilayer Inductors -->
  <g transform="translate(670, 260)">
    <rect x="0" y="0" width="280" height="160" rx="10" fill="#FFF8E1" stroke="#FF8F00" stroke-width="2"/>
    <text x="140" y="25" font-family="Arial, sans-serif" font-size="18" font-weight="bold" text-anchor="middle" fill="#FF8F00">
      Multilayer Inductors
    </text>

    <!-- Multilayer inductor diagram -->
    <g transform="translate(70, 50)">
      <!-- Ceramic substrate -->
      <rect x="40" y="20" width="60" height="30" fill="#E0E0E0" stroke="#666" stroke-width="2" rx="3"/>
      
      <!-- Multiple layers -->
      <g opacity="0.9">
        <rect x="42" y="22" width="56" height="4" fill="url(#coilGrad)" rx="1"/>
        <rect x="42" y="28" width="56" height="4" fill="url(#coilGrad)" rx="1"/>
        <rect x="42" y="34" width="56" height="4" fill="url(#coilGrad)" rx="1"/>
        <rect x="42" y="40" width="56" height="4" fill="url(#coilGrad)" rx="1"/>
        <rect x="42" y="46" width="56" height="4" fill="url(#coilGrad)" rx="1"/>
      </g>
      
      <!-- Connection points -->
      <circle cx="35" cy="35" r="3" fill="#333"/>
      <circle cx="105" cy="35" r="3" fill="#333"/>
      <line x1="30" y1="35" x2="35" y2="35" stroke="#333" stroke-width="2"/>
      <line x1="105" y1="35" x2="110" y2="35" stroke="#333" stroke-width="2"/>
      
      <text x="70" y="70" font-family="Arial, sans-serif" font-size="12" text-anchor="middle" fill="#666">
        Layered Construction
      </text>
    </g>

    <!-- Characteristics -->
    <rect x="15" y="120" width="250" height="30" rx="3" fill="white" stroke="#FF8F00" stroke-width="1"/>
    <text x="20" y="135" font-family="Arial, sans-serif" font-size="11" fill="#333">
      • Very small size • SMD mounting • High frequency
    </text>
    <text x="20" y="145" font-family="Arial, sans-serif" font-size="11" fill="#333">
      • Mobile devices • Precise values
    </text>
  </g>

  <!-- Comparison Table -->
  <g transform="translate(50, 440)">
    <rect x="0" y="0" width="900" height="200" rx="10" fill="#F3E5F5" stroke="#7B1FA2" stroke-width="2"/>
    <text x="450" y="25" font-family="Arial, sans-serif" font-size="20" font-weight="bold" text-anchor="middle" fill="#7B1FA2">
      Inductor Comparison and Selection Guide
    </text>

    <!-- Table headers -->
    <rect x="20" y="40" width="120" height="25" fill="#E8F5E8" stroke="#4CAF50" stroke-width="1"/>
    <text x="80" y="55" font-family="Arial, sans-serif" font-size="12" font-weight="bold" text-anchor="middle" fill="#4CAF50">
      Type
    </text>
    
    <rect x="140" y="40" width="100" height="25" fill="#E3F2FD" stroke="#2196F3" stroke-width="1"/>
    <text x="190" y="55" font-family="Arial, sans-serif" font-size="12" font-weight="bold" text-anchor="middle" fill="#2196F3">
      Inductance
    </text>
    
    <rect x="240" y="40" width="100" height="25" fill="#FFF3E0" stroke="#FF8F00" stroke-width="1"/>
    <text x="290" y="55" font-family="Arial, sans-serif" font-size="12" font-weight="bold" text-anchor="middle" fill="#FF8F00">
      Q-Factor
    </text>

    <rect x="340" y="40" width="120" height="25" fill="#FFEBEE" stroke="#F44336" stroke-width="1"/>
    <text x="400" y="55" font-family="Arial, sans-serif" font-size="12" font-weight="bold" text-anchor="middle" fill="#F44336">
      Frequency Range
    </text>

    <rect x="460" y="40" width="160" height="25" fill="#F3E5F5" stroke="#9C27B0" stroke-width="1"/>
    <text x="540" y="55" font-family="Arial, sans-serif" font-size="12" font-weight="bold" text-anchor="middle" fill="#9C27B0">
      Applications
    </text>

    <rect x="620" y="40" width="120" height="25" fill="#ECEFF1" stroke="#607D8B" stroke-width="1"/>
    <text x="680" y="55" font-family="Arial, sans-serif" font-size="12" font-weight="bold" text-anchor="middle" fill="#607D8B">
      Advantages
    </text>

    <rect x="740" y="40" width="140" height="25" fill="#E8F5E8" stroke="#795548" stroke-width="1"/>
    <text x="810" y="55" font-family="Arial, sans-serif" font-size="12" font-weight="bold" text-anchor="middle" fill="#795548">
      Disadvantages
    </text>

    <!-- Air Core Row -->
    <g transform="translate(0, 65)">
      <rect x="20" y="0" width="120" height="20" fill="white" stroke="#E0E0E0" stroke-width="1"/>
      <text x="80" y="14" font-family="Arial, sans-serif" font-size="11" text-anchor="middle" fill="#333">Air Core</text>
      
      <rect x="140" y="0" width="100" height="20" fill="white" stroke="#E0E0E0" stroke-width="1"/>
      <text x="190" y="14" font-family="Arial, sans-serif" font-size="11" text-anchor="middle" fill="#333">Low (μH)</text>
      
      <rect x="240" y="0" width="100" height="20" fill="white" stroke="#E0E0E0" stroke-width="1"/>
      <text x="290" y="14" font-family="Arial, sans-serif" font-size="11" text-anchor="middle" fill="#333">Very High</text>

      <rect x="340" y="0" width="120" height="20" fill="white" stroke="#E0E0E0" stroke-width="1"/>
      <text x="400" y="14" font-family="Arial, sans-serif" font-size="11" text-anchor="middle" fill="#333">HF/VHF/UHF</text>

      <rect x="460" y="0" width="160" height="20" fill="white" stroke="#E0E0E0" stroke-width="1"/>
      <text x="540" y="14" font-family="Arial, sans-serif" font-size="10" text-anchor="middle" fill="#333">RF circuits, oscillators</text>

      <rect x="620" y="0" width="120" height="20" fill="white" stroke="#E0E0E0" stroke-width="1"/>
      <text x="680" y="14" font-family="Arial, sans-serif" font-size="10" text-anchor="middle" fill="#333">No core losses, stable</text>

      <rect x="740" y="0" width="140" height="20" fill="white" stroke="#E0E0E0" stroke-width="1"/>
      <text x="810" y="14" font-family="Arial, sans-serif" font-size="10" text-anchor="middle" fill="#333">Large size, low L</text>
    </g>

    <!-- Iron Core Row -->
    <g transform="translate(0, 85)">
      <rect x="20" y="0" width="120" height="20" fill="#F8F9FA" stroke="#E0E0E0" stroke-width="1"/>
      <text x="80" y="14" font-family="Arial, sans-serif" font-size="11" text-anchor="middle" fill="#333">Iron Core</text>
      
      <rect x="140" y="0" width="100" height="20" fill="#F8F9FA" stroke="#E0E0E0" stroke-width="1"/>
      <text x="190" y="14" font-family="Arial, sans-serif" font-size="11" text-anchor="middle" fill="#333">Very High (H)</text>
      
      <rect x="240" y="0" width="100" height="20" fill="#F8F9FA" stroke="#E0E0E0" stroke-width="1"/>
      <text x="290" y="14" font-family="Arial, sans-serif" font-size="11" text-anchor="middle" fill="#333">Low</text>

      <rect x="340" y="0" width="120" height="20" fill="#F8F9FA" stroke="#E0E0E0" stroke-width="1"/>
      <text x="400" y="14" font-family="Arial, sans-serif" font-size="11" text-anchor="middle" fill="#333">DC - LF</text>

      <rect x="460" y="0" width="160" height="20" fill="#F8F9FA" stroke="#E0E0E0" stroke-width="1"/>
      <text x="540" y="14" font-family="Arial, sans-serif" font-size="10" text-anchor="middle" fill="#333">Power supplies, chokes</text>

      <rect x="620" y="0" width="120" height="20" fill="#F8F9FA" stroke="#E0E0E0" stroke-width="1"/>
      <text x="680" y="14" font-family="Arial, sans-serif" font-size="10" text-anchor="middle" fill="#333">High inductance</text>

      <rect x="740" y="0" width="140" height="20" fill="#F8F9FA" stroke="#E0E0E0" stroke-width="1"/>
      <text x="810" y="14" font-family="Arial, sans-serif" font-size="10" text-anchor="middle" fill="#333">Core losses, saturation</text>
    </g>

    <!-- Ferrite Core Row -->
    <g transform="translate(0, 105)">
      <rect x="20" y="0" width="120" height="20" fill="white" stroke="#E0E0E0" stroke-width="1"/>
      <text x="80" y="14" font-family="Arial, sans-serif" font-size="11" text-anchor="middle" fill="#333">Ferrite Core</text>
      
      <rect x="140" y="0" width="100" height="20" fill="white" stroke="#E0E0E0" stroke-width="1"/>
      <text x="190" y="14" font-family="Arial, sans-serif" font-size="11" text-anchor="middle" fill="#333">High (mH)</text>
      
      <rect x="240" y="0" width="100" height="20" fill="white" stroke="#E0E0E0" stroke-width="1"/>
      <text x="290" y="14" font-family="Arial, sans-serif" font-size="11" text-anchor="middle" fill="#333">Medium-High</text>

      <rect x="340" y="0" width="120" height="20" fill="white" stroke="#E0E0E0" stroke-width="1"/>
      <text x="400" y="14" font-family="Arial, sans-serif" font-size="11" text-anchor="middle" fill="#333">HF - UHF</text>

      <rect x="460" y="0" width="160" height="20" fill="white" stroke="#E0E0E0" stroke-width="1"/>
      <text x="540" y="14" font-family="Arial, sans-serif" font-size="10" text-anchor="middle" fill="#333">Switching, RF transformers</text>

      <rect x="620" y="0" width="120" height="20" fill="white" stroke="#E0E0E0" stroke-width="1"/>
      <text x="680" y="14" font-family="Arial, sans-serif" font-size="10" text-anchor="middle" fill="#333">Low eddy losses</text>

      <rect x="740" y="0" width="140" height="20" fill="white" stroke="#E0E0E0" stroke-width="1"/>
      <text x="810" y="14" font-family="Arial, sans-serif" font-size="10" text-anchor="middle" fill="#333">Temperature sensitive</text>
    </g>

    <!-- Toroidal Row -->
    <g transform="translate(0, 125)">
      <rect x="20" y="0" width="120" height="20" fill="#F8F9FA" stroke="#E0E0E0" stroke-width="1"/>
      <text x="80" y="14" font-family="Arial, sans-serif" font-size="11" text-anchor="middle" fill="#333">Toroidal</text>
      
      <rect x="140" y="0" width="100" height="20" fill="#F8F9FA" stroke="#E0E0E0" stroke-width="1"/>
      <text x="190" y="14" font-family="Arial, sans-serif" font-size="11" text-anchor="middle" fill="#333">High</text>
      
      <rect x="240" y="0" width="100" height="20" fill="#F8F9FA" stroke="#E0E0E0" stroke-width="1"/>
      <text x="290" y="14" font-family="Arial, sans-serif" font-size="11" text-anchor="middle" fill="#333">High</text>

      <rect x="340" y="0" width="120" height="20" fill="#F8F9FA" stroke="#E0E0E0" stroke-width="1"/>
      <text x="400" y="14" font-family="Arial, sans-serif" font-size="11" text-anchor="middle" fill="#333">DC - HF</text>

      <rect x="460" y="0" width="160" height="20" fill="#F8F9FA" stroke="#E0E0E0" stroke-width="1"/>
      <text x="540" y="14" font-family="Arial, sans-serif" font-size="10" text-anchor="middle" fill="#333">Power supplies, filters</text>

      <rect x="620" y="0" width="120" height="20" fill="#F8F9FA" stroke="#E0E0E0" stroke-width="1"/>
      <text x="680" y="14" font-family="Arial, sans-serif" font-size="10" text-anchor="middle" fill="#333">Compact, low EMI</text>

      <rect x="740" y="0" width="140" height="20" fill="#F8F9FA" stroke="#E0E0E0" stroke-width="1"/>
      <text x="810" y="14" font-family="Arial, sans-serif" font-size="10" text-anchor="middle" fill="#333">Difficult to wind</text>
    </g>

    <!-- Multilayer Row -->
    <g transform="translate(0, 145)">
      <rect x="20" y="0" width="120" height="20" fill="white" stroke="#E0E0E0" stroke-width="1"/>
      <text x="80" y="14" font-family="Arial, sans-serif" font-size="11" text-anchor="middle" fill="#333">Multilayer</text>
      
      <rect x="140" y="0" width="100" height="20" fill="white" stroke="#E0E0E0" stroke-width="1"/>
      <text x="190" y="14" font-family="Arial, sans-serif" font-size="11" text-anchor="middle" fill="#333">Low-Medium</text>
      
      <rect x="240" y="0" width="100" height="20" fill="white" stroke="#E0E0E0" stroke-width="1"/>
      <text x="290" y="14" font-family="Arial, sans-serif" font-size="11" text-anchor="middle" fill="#333">Medium</text>

      <rect x="340" y="0" width="120" height="20" fill="white" stroke="#E0E0E0" stroke-width="1"/>
      <text x="400" y="14" font-family="Arial, sans-serif" font-size="11" text-anchor="middle" fill="#333">VHF - UHF</text>

      <rect x="460" y="0" width="160" height="20" fill="white" stroke="#E0E0E0" stroke-width="1"/>
      <text x="540" y="14" font-family="Arial, sans-serif" font-size="10" text-anchor="middle" fill="#333">Mobile devices, SMD</text>

      <rect x="620" y="0" width="120" height="20" fill="white" stroke="#E0E0E0" stroke-width="1"/>
      <text x="680" y="14" font-family="Arial, sans-serif" font-size="10" text-anchor="middle" fill="#333">Very small, precise</text>

      <rect x="740" y="0" width="140" height="20" fill="white" stroke="#E0E0E0" stroke-width="1"/>
      <text x="810" y="14" font-family="Arial, sans-serif" font-size="10" text-anchor="middle" fill="#333">Limited power</text>
    </g>
  </g>

  <!-- Selection Guidelines -->
  <g transform="translate(50, 660)">
    <rect x="0" y="0" width="900" height="100" rx="10" fill="#ECEFF1" stroke="#607D8B" stroke-width="2"/>
    <text x="450" y="25" font-family="Arial, sans-serif" font-size="18" font-weight="bold" text-anchor="middle" fill="#607D8B">
      Selection Guidelines
    </text>

    <!-- Guidelines -->
    <g transform="translate(40, 40)">
      <circle cx="8" cy="8" r="6" fill="#4CAF50"/>
      <text x="8" y="12" font-family="Arial, sans-serif" font-size="10" font-weight="bold" text-anchor="middle" fill="white">1</text>
      <text x="25" y="12" font-family="Arial, sans-serif" font-size="13" fill="#333" font-weight="bold">
        High Q-factor needed → Air core or ferrite core
      </text>

      <circle cx="8" cy="30" r="6" fill="#2196F3"/>
      <text x="8" y="34" font-family="Arial, sans-serif" font-size="10" font-weight="bold" text-anchor="middle" fill="white">2</text>
      <text x="25" y="34" font-family="Arial, sans-serif" font-size="13" fill="#333" font-weight="bold">
        High inductance needed → Iron core or toroidal
      </text>

      <circle cx="8" cy="52" r="6" fill="#FF9800"/>
      <text x="8" y="56" font-family="Arial, sans-serif" font-size="10" font-weight="bold" text-anchor="middle" fill="white">3</text>
      <text x="25" y="56" font-family="Arial, sans-serif" font-size="13" fill="#333" font-weight="bold">
        Space constraint → Multilayer or toroidal
      </text>
    </g>

    <g transform="translate(450, 40)">
      <circle cx="8" cy="8" r="6" fill="#9C27B0"/>
      <text x="8" y="12" font-family="Arial, sans-serif" font-size="10" font-weight="bold" text-anchor="middle" fill="white">4</text>
      <text x="25" y="12" font-family="Arial, sans-serif" font-size="13" fill="#333" font-weight="bold">
        Low EMI required → Toroidal or shielded
      </text>

      <circle cx="8" cy="30" r="6" fill="#E74C3C"/>
      <text x="8" y="34" font-family="Arial, sans-serif" font-size="10" font-weight="bold" text-anchor="middle" fill="white">5</text>
      <text x="25" y="34" font-family="Arial, sans-serif" font-size="13" fill="#333" font-weight="bold">
        High frequency → Air core or ferrite core
      </text>

      <circle cx="8" cy="52" r="6" fill="#795548"/>
      <text x="8" y="56" font-family="Arial, sans-serif" font-size="10" font-weight="bold" text-anchor="middle" fill="white">6</text>
      <text x="25" y="56" font-family="Arial, sans-serif" font-size="13" fill="#333" font-weight="bold">
        Power applications → Iron core with proper rating
      </text>
    </g>
  </g>
</svg>