<?xml version="1.0" encoding="UTF-8"?>
<svg viewBox="0 0 1800 1400" xmlns="http://www.w3.org/2000/svg">
  <defs>
    <style>
      .title { font-family: Arial, sans-serif; font-size: 28px; font-weight: bold; fill: #2c3e50; }
      .subtitle { font-family: Arial, sans-serif; font-size: 20px; font-weight: bold; fill: #34495e; }
      .text { font-family: Arial, sans-serif; font-size: 14px; fill: #2c3e50; }
      .small-text { font-family: Arial, sans-serif; font-size: 12px; fill: #2c3e50; }
      .code { font-family: 'Courier New', monospace; font-size: 12px; fill: #2c3e50; }
      .highlight { fill: #3498db; }
      .warning { fill: #e74c3c; }
      .success { fill: #27ae60; }
      .info { fill: #f39c12; }
    </style>
  </defs>

  <!-- Background -->
  <rect width="1800" height="1400" fill="#f8f9fa"/>

  <!-- Title -->
  <text x="900" y="40" text-anchor="middle" class="title">Binary Search Tree - Detailed Operations</text>
  <text x="900" y="70" text-anchor="middle" class="text">Insert, Delete, Search with Step-by-Step Implementation</text>

  <!-- BST Insert Operation -->
  <g transform="translate(50, 100)">
    <text x="0" y="0" class="subtitle">1. BST Insert Operation</text>

    <g transform="translate(0, 40)">
      <text x="0" y="0" class="text" font-weight="bold">Insert 25 into existing BST:</text>

      <!-- Original BST -->
      <g transform="translate(0, 30)">
        <text x="0" y="-10" class="small-text">Original BST:</text>

        <!-- Tree structure -->
        <g transform="translate(100, 0)">
          <!-- Root -->
          <circle cx="100" cy="20" r="15" fill="#3498db" stroke="#2980b9" stroke-width="2"/>
          <text x="100" y="26" text-anchor="middle" class="small-text" fill="white">50</text>

          <!-- Level 1 -->
          <circle cx="50" cy="70" r="12" fill="#27ae60" stroke="#229954" stroke-width="2"/>
          <text x="50" y="76" text-anchor="middle" class="small-text" fill="white">30</text>

          <circle cx="150" cy="70" r="12" fill="#27ae60" stroke="#229954" stroke-width="2"/>
          <text x="150" y="76" text-anchor="middle" class="small-text" fill="white">70</text>

          <!-- Level 2 -->
          <circle cx="25" cy="120" r="10" fill="#f39c12" stroke="#e67e22" stroke-width="2"/>
          <text x="25" y="125" text-anchor="middle" class="small-text" fill="white">20</text>

          <circle cx="75" cy="120" r="10" fill="#f39c12" stroke="#e67e22" stroke-width="2"/>
          <text x="75" y="125" text-anchor="middle" class="small-text" fill="white">40</text>

          <circle cx="125" cy="120" r="10" fill="#f39c12" stroke="#e67e22" stroke-width="2"/>
          <text x="125" y="125" text-anchor="middle" class="small-text" fill="white">60</text>

          <circle cx="175" cy="120" r="10" fill="#f39c12" stroke="#e67e22" stroke-width="2"/>
          <text x="175" y="125" text-anchor="middle" class="small-text" fill="white">80</text>

          <!-- Edges -->
          <line x1="100" y1="35" x2="50" y2="58" stroke="#2c3e50" stroke-width="2"/>
          <line x1="100" y1="35" x2="150" y2="58" stroke="#2c3e50" stroke-width="2"/>

          <line x1="50" y1="82" x2="25" y2="110" stroke="#2c3e50" stroke-width="1"/>
          <line x1="50" y1="82" x2="75" y2="110" stroke="#2c3e50" stroke-width="1"/>

          <line x1="150" y1="82" x2="125" y2="110" stroke="#2c3e50" stroke-width="1"/>
          <line x1="150" y1="82" x2="175" y2="110" stroke="#2c3e50" stroke-width="1"/>
        </g>
      </g>

      <!-- Insert Process -->
      <g transform="translate(300, 30)">
        <text x="0" y="-10" class="small-text">Insert 25 - Step by step:</text>

        <rect x="0" y="10" width="300" height="120" fill="#ecf0f1" stroke="#bdc3c7" stroke-width="1" rx="5"/>
        <text x="10" y="30" class="small-text">1. Start at root (50): 25 &lt; 50 → go left</text>
        <text x="10" y="50" class="small-text">2. At node (30): 25 &lt; 30 → go left</text>
        <text x="10" y="70" class="small-text">3. At node (20): 25 > 20 → go right</text>
        <text x="10" y="90" class="small-text">4. Right child is NULL → insert 25 here</text>
        <text x="10" y="110" class="small-text" fill="#27ae60">5. New node 25 added as right child of 20</text>
      </g>

      <!-- Result BST -->
      <g transform="translate(0, 180)">
        <text x="0" y="-10" class="small-text">BST after inserting 25:</text>

        <g transform="translate(100, 0)">
          <!-- Root -->
          <circle cx="100" cy="20" r="15" fill="#3498db" stroke="#2980b9" stroke-width="2"/>
          <text x="100" y="26" text-anchor="middle" class="small-text" fill="white">50</text>

          <!-- Level 1 -->
          <circle cx="50" cy="70" r="12" fill="#27ae60" stroke="#229954" stroke-width="2"/>
          <text x="50" y="76" text-anchor="middle" class="small-text" fill="white">30</text>

          <circle cx="150" cy="70" r="12" fill="#27ae60" stroke="#229954" stroke-width="2"/>
          <text x="150" y="76" text-anchor="middle" class="small-text" fill="white">70</text>

          <!-- Level 2 -->
          <circle cx="25" cy="120" r="10" fill="#f39c12" stroke="#e67e22" stroke-width="2"/>
          <text x="25" y="125" text-anchor="middle" class="small-text" fill="white">20</text>

          <circle cx="75" cy="120" r="10" fill="#f39c12" stroke="#e67e22" stroke-width="2"/>
          <text x="75" y="125" text-anchor="middle" class="small-text" fill="white">40</text>

          <circle cx="125" cy="120" r="10" fill="#f39c12" stroke="#e67e22" stroke-width="2"/>
          <text x="125" y="125" text-anchor="middle" class="small-text" fill="white">60</text>

          <circle cx="175" cy="120" r="10" fill="#f39c12" stroke="#e67e22" stroke-width="2"/>
          <text x="175" y="125" text-anchor="middle" class="small-text" fill="white">80</text>

          <!-- New node -->
          <circle cx="40" cy="170" r="10" fill="#e74c3c" stroke="#c0392b" stroke-width="3"/>
          <text x="40" y="175" text-anchor="middle" class="small-text" fill="white">25</text>
          <text x="40" y="195" text-anchor="middle" class="small-text" fill="#e74c3c">NEW</text>

          <!-- Edges -->
          <line x1="100" y1="35" x2="50" y2="58" stroke="#2c3e50" stroke-width="2"/>
          <line x1="100" y1="35" x2="150" y2="58" stroke="#2c3e50" stroke-width="2"/>

          <line x1="50" y1="82" x2="25" y2="110" stroke="#2c3e50" stroke-width="1"/>
          <line x1="50" y1="82" x2="75" y2="110" stroke="#2c3e50" stroke-width="1"/>

          <line x1="150" y1="82" x2="125" y2="110" stroke="#2c3e50" stroke-width="1"/>
          <line x1="150" y1="82" x2="175" y2="110" stroke="#2c3e50" stroke-width="1"/>

          <!-- New edge -->
          <line x1="25" y1="130" x2="40" y2="160" stroke="#e74c3c" stroke-width="2"/>
        </g>
      </g>
    </g>
  </g>

  <!-- BST Search Operation -->
  <g transform="translate(50, 450)">
    <text x="0" y="0" class="subtitle">2. BST Search Operation</text>

    <g transform="translate(0, 40)">
      <text x="0" y="0" class="text" font-weight="bold">Search for value 60:</text>

      <!-- Search visualization -->
      <g transform="translate(100, 30)">
        <!-- Root - visited -->
        <circle cx="100" cy="20" r="15" fill="#f39c12" stroke="#e67e22" stroke-width="3"/>
        <text x="100" y="26" text-anchor="middle" class="small-text" fill="white">50</text>
        <text x="100" y="45" text-anchor="middle" class="small-text" fill="#f39c12">Step 1</text>

        <!-- Level 1 -->
        <circle cx="50" cy="70" r="12" fill="#bdc3c7" stroke="#95a5a6" stroke-width="2"/>
        <text x="50" y="76" text-anchor="middle" class="small-text">30</text>

        <circle cx="150" cy="70" r="12" fill="#f39c12" stroke="#e67e22" stroke-width="3"/>
        <text x="150" y="76" text-anchor="middle" class="small-text" fill="white">70</text>
        <text x="150" y="95" text-anchor="middle" class="small-text" fill="#f39c12">Step 2</text>

        <!-- Level 2 -->
        <circle cx="25" cy="120" r="10" fill="#bdc3c7" stroke="#95a5a6" stroke-width="1"/>
        <text x="25" y="125" text-anchor="middle" class="small-text">20</text>

        <circle cx="75" cy="120" r="10" fill="#bdc3c7" stroke="#95a5a6" stroke-width="1"/>
        <text x="75" y="125" text-anchor="middle" class="small-text">40</text>

        <circle cx="125" cy="120" r="10" fill="#27ae60" stroke="#229954" stroke-width="3"/>
        <text x="125" y="125" text-anchor="middle" class="small-text" fill="white">60</text>
        <text x="125" y="145" text-anchor="middle" class="small-text" fill="#27ae60">FOUND!</text>

        <circle cx="175" cy="120" r="10" fill="#bdc3c7" stroke="#95a5a6" stroke-width="1"/>
        <text x="175" y="125" text-anchor="middle" class="small-text">80</text>

        <!-- Edges - path highlighted -->
        <line x1="100" y1="35" x2="50" y2="58" stroke="#bdc3c7" stroke-width="1"/>
        <line x1="100" y1="35" x2="150" y2="58" stroke="#f39c12" stroke-width="3"/>

        <line x1="50" y1="82" x2="25" y2="110" stroke="#bdc3c7" stroke-width="1"/>
        <line x1="50" y1="82" x2="75" y2="110" stroke="#bdc3c7" stroke-width="1"/>

        <line x1="150" y1="82" x2="125" y2="110" stroke="#27ae60" stroke-width="3"/>
        <line x1="150" y1="82" x2="175" y2="110" stroke="#bdc3c7" stroke-width="1"/>

        <!-- Search path arrows -->
        <path d="M 115 35 L 135 58" stroke="#f39c12" stroke-width="2" marker-end="url(#arrowhead-orange)"/>
        <path d="M 135 82 L 125 110" stroke="#27ae60" stroke-width="2" marker-end="url(#arrowhead-green)"/>
      </g>

      <!-- Search steps -->
      <g transform="translate(300, 30)">
        <rect x="0" y="0" width="350" height="100" fill="#ecf0f1" stroke="#bdc3c7" stroke-width="1" rx="5"/>
        <text x="10" y="20" class="small-text" font-weight="bold">Search Algorithm Steps:</text>
        <text x="15" y="40" class="small-text">1. Start at root (50): 60 > 50 → go right</text>
        <text x="15" y="55" class="small-text">2. At node (70): 60 &lt; 70 → go left</text>
        <text x="15" y="70" class="small-text">3. At node (60): 60 = 60 → FOUND!</text>
        <text x="15" y="85" class="small-text" fill="#27ae60">Time Complexity: O(log n) average case</text>
      </g>
    </g>
  </g>

  <!-- Arrow markers -->
  <defs>
    <marker id="arrowhead-orange" markerWidth="10" markerHeight="7" refX="9" refY="3.5" orient="auto">
      <polygon points="0 0, 10 3.5, 0 7" fill="#f39c12"/>
    </marker>
    <marker id="arrowhead-green" markerWidth="10" markerHeight="7" refX="9" refY="3.5" orient="auto">
      <polygon points="0 0, 10 3.5, 0 7" fill="#27ae60"/>
    </marker>
    <marker id="arrowhead-red" markerWidth="10" markerHeight="7" refX="9" refY="3.5" orient="auto">
      <polygon points="0 0, 10 3.5, 0 7" fill="#e74c3c"/>
    </marker>
  </defs>

  <!-- BST Delete Operation -->
  <g transform="translate(50, 650)">
    <text x="0" y="0" class="subtitle">3. BST Delete Operation (Three Cases)</text>

    <!-- Case 1: Delete Leaf Node -->
    <g transform="translate(0, 40)">
      <text x="0" y="0" class="text" font-weight="bold">Case 1: Delete Leaf Node (20)</text>

      <!-- Before deletion -->
      <g transform="translate(0, 30)">
        <text x="0" y="-10" class="small-text">Before:</text>
        <g transform="translate(50, 0)">
          <circle cx="50" cy="20" r="12" fill="#3498db" stroke="#2980b9" stroke-width="2"/>
          <text x="50" y="26" text-anchor="middle" class="small-text" fill="white">30</text>

          <circle cx="25" cy="60" r="10" fill="#e74c3c" stroke="#c0392b" stroke-width="3"/>
          <text x="25" y="65" text-anchor="middle" class="small-text" fill="white">20</text>
          <text x="25" y="85" text-anchor="middle" class="small-text" fill="#e74c3c">DELETE</text>

          <circle cx="75" cy="60" r="10" fill="#27ae60" stroke="#229954" stroke-width="2"/>
          <text x="75" y="65" text-anchor="middle" class="small-text" fill="white">40</text>

          <line x1="50" y1="32" x2="25" y2="50" stroke="#2c3e50" stroke-width="1"/>
          <line x1="50" y1="32" x2="75" y2="50" stroke="#2c3e50" stroke-width="1"/>
        </g>
      </g>

      <!-- After deletion -->
      <g transform="translate(150, 30)">
        <text x="0" y="-10" class="small-text">After:</text>
        <g transform="translate(50, 0)">
          <circle cx="50" cy="20" r="12" fill="#3498db" stroke="#2980b9" stroke-width="2"/>
          <text x="50" y="26" text-anchor="middle" class="small-text" fill="white">30</text>

          <circle cx="75" cy="60" r="10" fill="#27ae60" stroke="#229954" stroke-width="2"/>
          <text x="75" y="65" text-anchor="middle" class="small-text" fill="white">40</text>

          <line x1="50" y1="32" x2="75" y2="50" stroke="#2c3e50" stroke-width="1"/>

          <text x="25" y="65" class="small-text" fill="#95a5a6">NULL</text>
        </g>
      </g>
    </g>

    <!-- Case 2: Delete Node with One Child -->
    <g transform="translate(350, 40)">
      <text x="0" y="0" class="text" font-weight="bold">Case 2: Delete Node with One Child (30)</text>

      <!-- Before deletion -->
      <g transform="translate(0, 30)">
        <text x="0" y="-10" class="small-text">Before:</text>
        <g transform="translate(50, 0)">
          <circle cx="50" cy="20" r="12" fill="#e74c3c" stroke="#c0392b" stroke-width="3"/>
          <text x="50" y="26" text-anchor="middle" class="small-text" fill="white">30</text>
          <text x="50" y="45" text-anchor="middle" class="small-text" fill="#e74c3c">DELETE</text>

          <circle cx="75" cy="60" r="10" fill="#27ae60" stroke="#229954" stroke-width="2"/>
          <text x="75" y="65" text-anchor="middle" class="small-text" fill="white">40</text>

          <line x1="50" y1="32" x2="75" y2="50" stroke="#2c3e50" stroke-width="1"/>
        </g>
      </g>

      <!-- After deletion -->
      <g transform="translate(150, 30)">
        <text x="0" y="-10" class="small-text">After:</text>
        <g transform="translate(50, 0)">
          <circle cx="50" cy="20" r="12" fill="#27ae60" stroke="#229954" stroke-width="2"/>
          <text x="50" y="26" text-anchor="middle" class="small-text" fill="white">40</text>
          <text x="50" y="45" text-anchor="middle" class="small-text" fill="#27ae60">MOVED UP</text>
        </g>
      </g>
    </g>

    <!-- Case 3: Delete Node with Two Children -->
    <g transform="translate(0, 150)">
      <text x="0" y="0" class="text" font-weight="bold">Case 3: Delete Node with Two Children (50)</text>

      <!-- Before deletion -->
      <g transform="translate(0, 30)">
        <text x="0" y="-10" class="small-text">Before:</text>
        <g transform="translate(100, 0)">
          <circle cx="100" cy="20" r="15" fill="#e74c3c" stroke="#c0392b" stroke-width="3"/>
          <text x="100" y="26" text-anchor="middle" class="small-text" fill="white">50</text>
          <text x="100" y="45" text-anchor="middle" class="small-text" fill="#e74c3c">DELETE</text>

          <circle cx="50" cy="70" r="12" fill="#27ae60" stroke="#229954" stroke-width="2"/>
          <text x="50" y="76" text-anchor="middle" class="small-text" fill="white">30</text>

          <circle cx="150" cy="70" r="12" fill="#27ae60" stroke="#229954" stroke-width="2"/>
          <text x="150" y="76" text-anchor="middle" class="small-text" fill="white">70</text>

          <circle cx="125" cy="120" r="10" fill="#f39c12" stroke="#e67e22" stroke-width="3"/>
          <text x="125" y="125" text-anchor="middle" class="small-text" fill="white">60</text>
          <text x="125" y="145" text-anchor="middle" class="small-text" fill="#f39c12">SUCCESSOR</text>

          <circle cx="175" cy="120" r="10" fill="#3498db" stroke="#2980b9" stroke-width="2"/>
          <text x="175" y="125" text-anchor="middle" class="small-text" fill="white">80</text>

          <line x1="100" y1="35" x2="50" y2="58" stroke="#2c3e50" stroke-width="2"/>
          <line x1="100" y1="35" x2="150" y2="58" stroke="#2c3e50" stroke-width="2"/>
          <line x1="150" y1="82" x2="125" y2="110" stroke="#2c3e50" stroke-width="1"/>
          <line x1="150" y1="82" x2="175" y2="110" stroke="#2c3e50" stroke-width="1"/>
        </g>
      </g>

      <!-- After deletion -->
      <g transform="translate(350, 30)">
        <text x="0" y="-10" class="small-text">After (replace with inorder successor):</text>
        <g transform="translate(100, 0)">
          <circle cx="100" cy="20" r="15" fill="#f39c12" stroke="#e67e22" stroke-width="3"/>
          <text x="100" y="26" text-anchor="middle" class="small-text" fill="white">60</text>
          <text x="100" y="45" text-anchor="middle" class="small-text" fill="#f39c12">REPLACED</text>

          <circle cx="50" cy="70" r="12" fill="#27ae60" stroke="#229954" stroke-width="2"/>
          <text x="50" y="76" text-anchor="middle" class="small-text" fill="white">30</text>

          <circle cx="150" cy="70" r="12" fill="#27ae60" stroke="#229954" stroke-width="2"/>
          <text x="150" y="76" text-anchor="middle" class="small-text" fill="white">70</text>

          <circle cx="175" cy="120" r="10" fill="#3498db" stroke="#2980b9" stroke-width="2"/>
          <text x="175" y="125" text-anchor="middle" class="small-text" fill="white">80</text>

          <line x1="100" y1="35" x2="50" y2="58" stroke="#2c3e50" stroke-width="2"/>
          <line x1="100" y1="35" x2="150" y2="58" stroke="#2c3e50" stroke-width="2"/>
          <line x1="150" y1="82" x2="175" y2="110" stroke="#2c3e50" stroke-width="1"/>
        </g>
      </g>

      <!-- Algorithm explanation -->
      <g transform="translate(0, 120)">
        <rect x="0" y="0" width="650" height="80" fill="#ecf0f1" stroke="#bdc3c7" stroke-width="1" rx="5"/>
        <text x="10" y="20" class="small-text" font-weight="bold">Two Children Deletion Algorithm:</text>
        <text x="15" y="35" class="small-text">1. Find inorder successor (smallest value in right subtree)</text>
        <text x="15" y="50" class="small-text">2. Replace node's value with successor's value</text>
        <text x="15" y="65" class="small-text">3. Delete the successor node (which has at most one child)</text>
      </g>
    </g>
  </g>

  <!-- Implementation -->
  <g transform="translate(900, 100)">
    <text x="0" y="0" class="subtitle">BST Operations Implementation</text>

    <rect x="0" y="30" width="700" height="500" fill="#2c3e50" stroke="#34495e" stroke-width="2" rx="5"/>

    <text x="20" y="55" class="code" fill="#3498db">class TreeNode:</text>
    <text x="40" y="75" class="code" fill="#ecf0f1">def __init__(self, val):</text>
    <text x="60" y="95" class="code" fill="#ecf0f1">self.val = val</text>
    <text x="60" y="115" class="code" fill="#ecf0f1">self.left = None</text>
    <text x="60" y="135" class="code" fill="#ecf0f1">self.right = None</text>

    <text x="20" y="165" class="code" fill="#f39c12"># Insert Operation</text>
    <text x="20" y="185" class="code" fill="#3498db">def insert(root, val):</text>
    <text x="40" y="205" class="code" fill="#ecf0f1">if not root:</text>
    <text x="60" y="225" class="code" fill="#27ae60">return TreeNode(val)</text>
    <text x="40" y="245" class="code" fill="#ecf0f1">if val &lt; root.val:</text>
    <text x="60" y="265" class="code" fill="#ecf0f1">root.left = insert(root.left, val)</text>
    <text x="40" y="285" class="code" fill="#ecf0f1">else:</text>
    <text x="60" y="305" class="code" fill="#ecf0f1">root.right = insert(root.right, val)</text>
    <text x="40" y="325" class="code" fill="#27ae60">return root</text>

    <text x="20" y="355" class="code" fill="#f39c12"># Search Operation</text>
    <text x="20" y="375" class="code" fill="#3498db">def search(root, val):</text>
    <text x="40" y="395" class="code" fill="#ecf0f1">if not root or root.val == val:</text>
    <text x="60" y="415" class="code" fill="#27ae60">return root</text>
    <text x="40" y="435" class="code" fill="#ecf0f1">if val &lt; root.val:</text>
    <text x="60" y="455" class="code" fill="#ecf0f1">return search(root.left, val)</text>
    <text x="40" y="475" class="code" fill="#ecf0f1">return search(root.right, val)</text>

    <text x="20" y="505" class="code" fill="#f39c12"># Find minimum (for deletion)</text>
    <text x="20" y="525" class="code" fill="#3498db">def find_min(root):</text>
  </g>

  <!-- Time Complexity Analysis -->
  <g transform="translate(900, 650)">
    <text x="0" y="0" class="subtitle">Time Complexity Analysis</text>

    <rect x="0" y="20" width="700" height="200" fill="#ecf0f1" stroke="#bdc3c7" stroke-width="2" rx="5"/>

    <!-- Headers -->
    <text x="20" y="45" class="text" font-weight="bold">Operation</text>
    <text x="150" y="45" class="text" font-weight="bold">Best Case</text>
    <text x="270" y="45" class="text" font-weight="bold">Average Case</text>
    <text x="400" y="45" class="text" font-weight="bold">Worst Case</text>
    <text x="530" y="45" class="text" font-weight="bold">Notes</text>

    <!-- Insert -->
    <text x="20" y="70" class="text">Insert</text>
    <text x="150" y="70" class="text" fill="#27ae60">O(log n)</text>
    <text x="270" y="70" class="text" fill="#27ae60">O(log n)</text>
    <text x="400" y="70" class="text" fill="#e74c3c">O(n)</text>
    <text x="530" y="70" class="small-text">Worst: skewed tree</text>

    <!-- Search -->
    <text x="20" y="95" class="text">Search</text>
    <text x="150" y="95" class="text" fill="#27ae60">O(log n)</text>
    <text x="270" y="95" class="text" fill="#27ae60">O(log n)</text>
    <text x="400" y="95" class="text" fill="#e74c3c">O(n)</text>
    <text x="530" y="95" class="small-text">Depends on tree height</text>

    <!-- Delete -->
    <text x="20" y="120" class="text">Delete</text>
    <text x="150" y="120" class="text" fill="#27ae60">O(log n)</text>
    <text x="270" y="120" class="text" fill="#27ae60">O(log n)</text>
    <text x="400" y="120" class="text" fill="#e74c3c">O(n)</text>
    <text x="530" y="120" class="small-text">May need successor</text>

    <!-- Min/Max -->
    <text x="20" y="145" class="text">Find Min/Max</text>
    <text x="150" y="145" class="text" fill="#27ae60">O(log n)</text>
    <text x="270" y="145" class="text" fill="#27ae60">O(log n)</text>
    <text x="400" y="145" class="text" fill="#e74c3c">O(n)</text>
    <text x="530" y="145" class="small-text">Leftmost/rightmost</text>

    <!-- Space -->
    <text x="20" y="170" class="text">Space</text>
    <text x="150" y="170" class="text" fill="#27ae60">O(log n)</text>
    <text x="270" y="170" class="text" fill="#27ae60">O(log n)</text>
    <text x="400" y="170" class="text" fill="#e74c3c">O(n)</text>
    <text x="530" y="170" class="small-text">Recursion stack</text>

    <!-- Balanced vs Unbalanced -->
    <text x="20" y="200" class="text" font-weight="bold" fill="#f39c12">Balanced BST maintains O(log n) height</text>
  </g>

  <!-- BST Properties -->
  <g transform="translate(50, 1200)">
    <text x="0" y="0" class="subtitle">BST Properties &amp; Applications</text>

    <rect x="0" y="20" width="1500" height="120" fill="#ecf0f1" stroke="#bdc3c7" stroke-width="2" rx="5"/>

    <!-- Properties -->
    <g transform="translate(50, 50)">
      <text x="0" y="0" class="text" font-weight="bold" fill="#3498db">Properties:</text>
      <text x="10" y="20" class="small-text">• Inorder traversal gives sorted sequence</text>
      <text x="10" y="35" class="small-text">• No duplicate values allowed</text>
      <text x="10" y="50" class="small-text">• Left subtree &lt; root &lt; right subtree</text>
      <text x="10" y="65" class="small-text">• Recursive structure</text>
    </g>

    <!-- Applications -->
    <g transform="translate(350, 50)">
      <text x="0" y="0" class="text" font-weight="bold" fill="#27ae60">Applications:</text>
      <text x="10" y="20" class="small-text">• Database indexing</text>
      <text x="10" y="35" class="small-text">• Expression parsing</text>
      <text x="10" y="50" class="small-text">• File system organization</text>
      <text x="10" y="65" class="small-text">• Priority queues</text>
    </g>

    <!-- Advantages -->
    <g transform="translate(650, 50)">
      <text x="0" y="0" class="text" font-weight="bold" fill="#e74c3c">Advantages:</text>
      <text x="10" y="20" class="small-text">• Efficient search/insert/delete</text>
      <text x="10" y="35" class="small-text">• Dynamic size</text>
      <text x="10" y="50" class="small-text">• Maintains sorted order</text>
      <text x="10" y="65" class="small-text">• No memory waste</text>
    </g>

    <!-- Disadvantages -->
    <g transform="translate(950, 50)">
      <text x="0" y="0" class="text" font-weight="bold" fill="#f39c12">Disadvantages:</text>
      <text x="10" y="20" class="small-text">• Can become unbalanced</text>
      <text x="10" y="35" class="small-text">• No random access</text>
      <text x="10" y="50" class="small-text">• Extra memory for pointers</text>
      <text x="10" y="65" class="small-text">• Complex deletion</text>
    </g>

    <!-- Improvements -->
    <g transform="translate(1250, 50)">
      <text x="0" y="0" class="text" font-weight="bold" fill="#9b59b6">Improvements:</text>
      <text x="10" y="20" class="small-text">• AVL trees (self-balancing)</text>
      <text x="10" y="35" class="small-text">• Red-Black trees</text>
      <text x="10" y="50" class="small-text">• Splay trees</text>
      <text x="10" y="65" class="small-text">• B-trees for databases</text>
    </g>
  </g>

</svg>