<?xml version="1.0" encoding="UTF-8"?>
<svg viewBox="0 0 1800 1400" xmlns="http://www.w3.org/2000/svg">
  <defs>
    <style>
      .title { font-family: Arial, sans-serif; font-size: 28px; font-weight: bold; fill: #2c3e50; }
      .subtitle { font-family: Arial, sans-serif; font-size: 20px; font-weight: bold; fill: #34495e; }
      .text { font-family: Arial, sans-serif; font-size: 14px; fill: #2c3e50; }
      .small-text { font-family: Arial, sans-serif; font-size: 12px; fill: #2c3e50; }
      .code { font-family: 'Courier New', monospace; font-size: 12px; fill: #2c3e50; }
      .highlight { fill: #3498db; }
      .warning { fill: #e74c3c; }
      .success { fill: #27ae60; }
      .info { fill: #f39c12; }
    </style>
  </defs>

  <!-- Background -->
  <rect width="1800" height="1400" fill="#f8f9fa"/>

  <!-- Title -->
  <text x="900" y="40" text-anchor="middle" class="title">Tree Data Structures - Binary Trees &amp; Operations</text>
  <text x="900" y="70" text-anchor="middle" class="text">Hierarchical Data Organization with Traversal Algorithms</text>

  <!-- Tree Terminology Section -->
  <g transform="translate(50, 100)">
    <text x="0" y="0" class="subtitle">1. Tree Terminology</text>

    <!-- Sample Tree for Terminology -->
    <g transform="translate(0, 40)">
      <text x="0" y="0" class="text" font-weight="bold">Sample Binary Tree with Terminology:</text>

      <!-- Tree Structure -->
      <g transform="translate(150, 40)">
        <!-- Level 0 - Root -->
        <circle cx="200" cy="20" r="18" fill="#e74c3c" stroke="#c0392b" stroke-width="2"/>
        <text x="200" y="26" text-anchor="middle" class="text" fill="white" font-weight="bold">A</text>
        <text x="200" y="55" text-anchor="middle" class="small-text" fill="#e74c3c">Root</text>

        <!-- Level 1 -->
        <circle cx="120" cy="80" r="15" fill="#3498db" stroke="#2980b9" stroke-width="2"/>
        <text x="120" y="86" text-anchor="middle" class="small-text" fill="white">B</text>

        <circle cx="280" cy="80" r="15" fill="#3498db" stroke="#2980b9" stroke-width="2"/>
        <text x="280" y="86" text-anchor="middle" class="small-text" fill="white">C</text>

        <!-- Level 2 -->
        <circle cx="80" cy="140" r="15" fill="#27ae60" stroke="#229954" stroke-width="2"/>
        <text x="80" y="146" text-anchor="middle" class="small-text" fill="white">D</text>

        <circle cx="160" cy="140" r="15" fill="#27ae60" stroke="#229954" stroke-width="2"/>
        <text x="160" y="146" text-anchor="middle" class="small-text" fill="white">E</text>

        <circle cx="240" cy="140" r="15" fill="#27ae60" stroke="#229954" stroke-width="2"/>
        <text x="240" y="146" text-anchor="middle" class="small-text" fill="white">F</text>

        <circle cx="320" cy="140" r="15" fill="#27ae60" stroke="#229954" stroke-width="2"/>
        <text x="320" y="146" text-anchor="middle" class="small-text" fill="white">G</text>

        <!-- Level 3 - Leaves -->
        <circle cx="40" cy="200" r="12" fill="#f39c12" stroke="#e67e22" stroke-width="2"/>
        <text x="40" y="206" text-anchor="middle" class="small-text" fill="white">H</text>
        <text x="40" y="230" text-anchor="middle" class="small-text" fill="#f39c12">Leaf</text>

        <circle cx="120" cy="200" r="12" fill="#f39c12" stroke="#e67e22" stroke-width="2"/>
        <text x="120" y="206" text-anchor="middle" class="small-text" fill="white">I</text>
        <text x="120" y="230" text-anchor="middle" class="small-text" fill="#f39c12">Leaf</text>

        <!-- Edges -->
        <line x1="200" y1="38" x2="120" y2="65" stroke="#2c3e50" stroke-width="2"/>
        <line x1="200" y1="38" x2="280" y2="65" stroke="#2c3e50" stroke-width="2"/>

        <line x1="120" y1="95" x2="80" y2="125" stroke="#2c3e50" stroke-width="2"/>
        <line x1="120" y1="95" x2="160" y2="125" stroke="#2c3e50" stroke-width="2"/>

        <line x1="280" y1="95" x2="240" y2="125" stroke="#2c3e50" stroke-width="2"/>
        <line x1="280" y1="95" x2="320" y2="125" stroke="#2c3e50" stroke-width="2"/>

        <line x1="80" y1="155" x2="40" y2="188" stroke="#2c3e50" stroke-width="2"/>
        <line x1="160" y1="155" x2="120" y2="188" stroke="#2c3e50" stroke-width="2"/>

        <!-- Level indicators -->
        <text x="0" y="25" class="small-text">Level 0</text>
        <text x="0" y="85" class="small-text">Level 1</text>
        <text x="0" y="145" class="small-text">Level 2</text>
        <text x="0" y="205" class="small-text">Level 3</text>

        <!-- Additional labels -->
        <text x="120" y="110" text-anchor="middle" class="small-text" fill="#3498db">Internal Node</text>
        <text x="280" y="110" text-anchor="middle" class="small-text" fill="#3498db">Internal Node</text>

        <!-- Parent-Child relationship -->
        <path d="M 180 75 Q 190 70 200 75" stroke="#9b59b6" stroke-width="2" fill="none"/>
        <text x="200" y="110" text-anchor="middle" class="small-text" fill="#9b59b6">Parent of B, C</text>

        <path d="M 100 135 Q 110 130 120 135" stroke="#9b59b6" stroke-width="2" fill="none"/>
        <text x="120" y="170" text-anchor="middle" class="small-text" fill="#9b59b6">Parent of D, E</text>
      </g>

      <!-- Terminology Definitions -->
      <g transform="translate(450, 40)">
        <rect x="0" y="0" width="350" height="220" fill="#ecf0f1" stroke="#bdc3c7" stroke-width="2" rx="5"/>

        <text x="20" y="25" class="text" font-weight="bold">Tree Terminology:</text>

        <text x="20" y="50" class="small-text" font-weight="bold" fill="#e74c3c">Root:</text>
        <text x="20" y="65" class="small-text">Topmost node (A)</text>

        <text x="20" y="85" class="small-text" font-weight="bold" fill="#f39c12">Leaf:</text>
        <text x="20" y="100" class="small-text">Node with no children (H, I, F, G)</text>

        <text x="20" y="120" class="small-text" font-weight="bold" fill="#3498db">Internal Node:</text>
        <text x="20" y="135" class="small-text">Node with at least one child (A, B, C, D, E)</text>

        <text x="20" y="155" class="small-text" font-weight="bold" fill="#9b59b6">Parent:</text>
        <text x="20" y="170" class="small-text">Node with children (A is parent of B, C)</text>

        <text x="20" y="190" class="small-text" font-weight="bold">Height:</text>
        <text x="20" y="205" class="small-text">3 (longest path from root to leaf)</text>
      </g>
    </g>
  </g>

  <!-- Binary Tree Properties Section -->
  <g transform="translate(50, 380)">
    <text x="0" y="0" class="subtitle">2. Binary Tree Properties</text>

    <g transform="translate(0, 40)">
      <rect x="0" y="0" width="800" height="120" fill="#ecf0f1" stroke="#bdc3c7" stroke-width="2" rx="5"/>

      <text x="20" y="25" class="text" font-weight="bold">Binary Tree Rules:</text>
      <text x="30" y="45" class="text">• Each node has at most 2 children (left and right)</text>
      <text x="30" y="65" class="text">• Left subtree values &lt; parent &lt; right subtree values (for BST)</text>
      <text x="30" y="85" class="text">• Maximum nodes at level i = 2^i</text>
      <text x="30" y="105" class="text">• Maximum nodes in tree of height h = 2^(h+1) - 1</text>
    </g>

    <!-- Full vs Complete Binary Trees -->
    <g transform="translate(0, 180)">
      <text x="0" y="0" class="text" font-weight="bold">Types of Binary Trees:</text>

      <!-- Full Binary Tree -->
      <g transform="translate(0, 30)">
        <text x="0" y="0" class="text" fill="#27ae60">Full Binary Tree (every node has 0 or 2 children):</text>

        <g transform="translate(50, 20)">
          <circle cx="80" cy="20" r="12" fill="#27ae60" stroke="#229954" stroke-width="2"/>
          <text x="80" y="26" text-anchor="middle" class="small-text" fill="white">1</text>

          <circle cx="50" cy="60" r="12" fill="#27ae60" stroke="#229954" stroke-width="2"/>
          <text x="50" y="66" text-anchor="middle" class="small-text" fill="white">2</text>

          <circle cx="110" cy="60" r="12" fill="#27ae60" stroke="#229954" stroke-width="2"/>
          <text x="110" y="66" text-anchor="middle" class="small-text" fill="white">3</text>

          <circle cx="30" cy="100" r="12" fill="#27ae60" stroke="#229954" stroke-width="2"/>
          <text x="30" y="106" text-anchor="middle" class="small-text" fill="white">4</text>

          <circle cx="70" cy="100" r="12" fill="#27ae60" stroke="#229954" stroke-width="2"/>
          <text x="70" y="106" text-anchor="middle" class="small-text" fill="white">5</text>

          <!-- Edges -->
          <line x1="80" y1="32" x2="50" y2="48" stroke="#229954" stroke-width="2"/>
          <line x1="80" y1="32" x2="110" y2="48" stroke="#229954" stroke-width="2"/>
          <line x1="50" y1="72" x2="30" y2="88" stroke="#229954" stroke-width="2"/>
          <line x1="50" y1="72" x2="70" y2="88" stroke="#229954" stroke-width="2"/>
        </g>
      </g>

      <!-- Complete Binary Tree -->
      <g transform="translate(250, 30)">
        <text x="0" y="0" class="text" fill="#3498db">Complete Binary Tree (all levels filled except last, filled left to right):</text>

        <g transform="translate(50, 20)">
          <circle cx="80" cy="20" r="12" fill="#3498db" stroke="#2980b9" stroke-width="2"/>
          <text x="80" y="26" text-anchor="middle" class="small-text" fill="white">1</text>

          <circle cx="50" cy="60" r="12" fill="#3498db" stroke="#2980b9" stroke-width="2"/>
          <text x="50" y="66" text-anchor="middle" class="small-text" fill="white">2</text>

          <circle cx="110" cy="60" r="12" fill="#3498db" stroke="#2980b9" stroke-width="2"/>
          <text x="110" y="66" text-anchor="middle" class="small-text" fill="white">3</text>

          <circle cx="30" cy="100" r="12" fill="#3498db" stroke="#2980b9" stroke-width="2"/>
          <text x="30" y="106" text-anchor="middle" class="small-text" fill="white">4</text>

          <circle cx="70" cy="100" r="12" fill="#3498db" stroke="#2980b9" stroke-width="2"/>
          <text x="70" y="106" text-anchor="middle" class="small-text" fill="white">5</text>

          <circle cx="90" cy="100" r="12" fill="#3498db" stroke="#2980b9" stroke-width="2"/>
          <text x="90" y="106" text-anchor="middle" class="small-text" fill="white">6</text>

          <!-- Edges -->
          <line x1="80" y1="32" x2="50" y2="48" stroke="#2980b9" stroke-width="2"/>
          <line x1="80" y1="32" x2="110" y2="48" stroke="#2980b9" stroke-width="2"/>
          <line x1="50" y1="72" x2="30" y2="88" stroke="#2980b9" stroke-width="2"/>
          <line x1="50" y1="72" x2="70" y2="88" stroke="#2980b9" stroke-width="2"/>
          <line x1="110" y1="72" x2="90" y2="88" stroke="#2980b9" stroke-width="2"/>
        </g>
      </g>

      <!-- Perfect Binary Tree -->
      <g transform="translate(550, 30)">
        <text x="0" y="0" class="text" fill="#e74c3c">Perfect Binary Tree (all internal nodes have 2 children, all leaves at same level):</text>

        <g transform="translate(50, 20)">
          <circle cx="80" cy="20" r="12" fill="#e74c3c" stroke="#c0392b" stroke-width="2"/>
          <text x="80" y="26" text-anchor="middle" class="small-text" fill="white">1</text>

          <circle cx="50" cy="60" r="12" fill="#e74c3c" stroke="#c0392b" stroke-width="2"/>
          <text x="50" y="66" text-anchor="middle" class="small-text" fill="white">2</text>

          <circle cx="110" cy="60" r="12" fill="#e74c3c" stroke="#c0392b" stroke-width="2"/>
          <text x="110" y="66" text-anchor="middle" class="small-text" fill="white">3</text>

          <circle cx="30" cy="100" r="12" fill="#e74c3c" stroke="#c0392b" stroke-width="2"/>
          <text x="30" y="106" text-anchor="middle" class="small-text" fill="white">4</text>

          <circle cx="70" cy="100" r="12" fill="#e74c3c" stroke="#c0392b" stroke-width="2"/>
          <text x="70" y="106" text-anchor="middle" class="small-text" fill="white">5</text>

          <circle cx="90" cy="100" r="12" fill="#e74c3c" stroke="#c0392b" stroke-width="2"/>
          <text x="90" y="106" text-anchor="middle" class="small-text" fill="white">6</text>

          <circle cx="130" cy="100" r="12" fill="#e74c3c" stroke="#c0392b" stroke-width="2"/>
          <text x="130" y="106" text-anchor="middle" class="small-text" fill="white">7</text>

          <!-- Edges -->
          <line x1="80" y1="32" x2="50" y2="48" stroke="#c0392b" stroke-width="2"/>
          <line x1="80" y1="32" x2="110" y2="48" stroke="#c0392b" stroke-width="2"/>
          <line x1="50" y1="72" x2="30" y2="88" stroke="#c0392b" stroke-width="2"/>
          <line x1="50" y1="72" x2="70" y2="88" stroke="#c0392b" stroke-width="2"/>
          <line x1="110" y1="72" x2="90" y2="88" stroke="#c0392b" stroke-width="2"/>
          <line x1="110" y1="72" x2="130" y2="88" stroke="#c0392b" stroke-width="2"/>
        </g>
      </g>
    </g>
  </g>

  <!-- Tree Traversal Section -->
  <g transform="translate(50, 700)">
    <text x="0" y="0" class="subtitle">3. Tree Traversal Algorithms</text>

    <!-- Sample Tree for Traversal -->
    <g transform="translate(0, 40)">
      <text x="0" y="0" class="text" font-weight="bold">Sample Tree for Traversal Examples:</text>

      <g transform="translate(100, 30)">
        <!-- Tree for traversal examples -->
        <circle cx="100" cy="20" r="15" fill="#f39c12" stroke="#e67e22" stroke-width="2"/>
        <text x="100" y="26" text-anchor="middle" class="text" fill="white" font-weight="bold">1</text>

        <circle cx="60" cy="70" r="15" fill="#f39c12" stroke="#e67e22" stroke-width="2"/>
        <text x="60" y="76" text-anchor="middle" class="text" fill="white" font-weight="bold">2</text>

        <circle cx="140" cy="70" r="15" fill="#f39c12" stroke="#e67e22" stroke-width="2"/>
        <text x="140" y="76" text-anchor="middle" class="text" fill="white" font-weight="bold">3</text>

        <circle cx="30" cy="120" r="15" fill="#f39c12" stroke="#e67e22" stroke-width="2"/>
        <text x="30" y="126" text-anchor="middle" class="text" fill="white" font-weight="bold">4</text>

        <circle cx="90" cy="120" r="15" fill="#f39c12" stroke="#e67e22" stroke-width="2"/>
        <text x="90" y="126" text-anchor="middle" class="text" fill="white" font-weight="bold">5</text>

        <!-- Edges -->
        <line x1="100" y1="35" x2="60" y2="55" stroke="#e67e22" stroke-width="2"/>
        <line x1="100" y1="35" x2="140" y2="55" stroke="#e67e22" stroke-width="2"/>
        <line x1="60" y1="85" x2="30" y2="105" stroke="#e67e22" stroke-width="2"/>
        <line x1="60" y1="85" x2="90" y2="105" stroke="#e67e22" stroke-width="2"/>
      </g>

      <!-- Traversal Results -->
      <g transform="translate(300, 30)">
        <rect x="0" y="0" width="450" height="160" fill="#ecf0f1" stroke="#bdc3c7" stroke-width="2" rx="5"/>

        <text x="20" y="25" class="text" font-weight="bold">Traversal Results:</text>

        <text x="20" y="50" class="text" font-weight="bold" fill="#e74c3c">Preorder (Root → Left → Right):</text>
        <text x="30" y="70" class="text">1 → 2 → 4 → 5 → 3</text>
        <text x="250" y="70" class="small-text">Visit root first, then subtrees</text>

        <text x="20" y="95" class="text" font-weight="bold" fill="#27ae60">Inorder (Left → Root → Right):</text>
        <text x="30" y="115" class="text">4 → 2 → 5 → 1 → 3</text>
        <text x="250" y="115" class="small-text">For BST, gives sorted order</text>

        <text x="20" y="140" class="text" font-weight="bold" fill="#3498db">Postorder (Left → Right → Root):</text>
        <text x="30" y="160" class="text">4 → 5 → 2 → 3 → 1</text>
        <text x="250" y="160" class="small-text">Visit root last, useful for deletion</text>
      </g>
    </g>
  </g>

  <!-- Binary Search Tree Section -->
  <g transform="translate(50, 950)">
    <text x="0" y="0" class="subtitle">4. Binary Search Tree (BST)</text>

    <g transform="translate(0, 40)">
      <rect x="0" y="0" width="800" height="80" fill="#e74c3c" stroke="#c0392b" stroke-width="2" rx="5"/>
      <text x="20" y="25" class="text" font-weight="bold" fill="white">BST Property:</text>
      <text x="20" y="45" class="text" fill="white">• Left subtree values &lt; root value &lt; right subtree values</text>
      <text x="20" y="65" class="text" fill="white">• This property applies recursively to all subtrees</text>
    </g>

    <!-- BST Example -->
    <g transform="translate(0, 140)">
      <text x="0" y="0" class="text" font-weight="bold">BST Example with Search, Insert, Delete Operations:</text>

      <!-- BST Tree Structure -->
      <g transform="translate(100, 30)">
        <!-- Root -->
        <circle cx="150" cy="30" r="18" fill="#3498db" stroke="#2980b9" stroke-width="2"/>
        <text x="150" y="36" text-anchor="middle" class="text" fill="white" font-weight="bold">50</text>

        <!-- Level 1 -->
        <circle cx="80" cy="80" r="15" fill="#27ae60" stroke="#229954" stroke-width="2"/>
        <text x="80" y="86" text-anchor="middle" class="small-text" fill="white">30</text>

        <circle cx="220" cy="80" r="15" fill="#27ae60" stroke="#229954" stroke-width="2"/>
        <text x="220" y="86" text-anchor="middle" class="small-text" fill="white">70</text>

        <!-- Level 2 -->
        <circle cx="50" cy="130" r="12" fill="#f39c12" stroke="#e67e22" stroke-width="2"/>
        <text x="50" y="136" text-anchor="middle" class="small-text" fill="white">20</text>

        <circle cx="110" cy="130" r="12" fill="#f39c12" stroke="#e67e22" stroke-width="2"/>
        <text x="110" y="136" text-anchor="middle" class="small-text" fill="white">40</text>

        <circle cx="190" cy="130" r="12" fill="#f39c12" stroke="#e67e22" stroke-width="2"/>
        <text x="190" y="136" text-anchor="middle" class="small-text" fill="white">60</text>

        <circle cx="250" cy="130" r="12" fill="#f39c12" stroke="#e67e22" stroke-width="2"/>
        <text x="250" y="136" text-anchor="middle" class="small-text" fill="white">80</text>

        <!-- Edges -->
        <line x1="150" y1="48" x2="80" y2="65" stroke="#2c3e50" stroke-width="2"/>
        <line x1="150" y1="48" x2="220" y2="65" stroke="#2c3e50" stroke-width="2"/>

        <line x1="80" y1="95" x2="50" y2="118" stroke="#2c3e50" stroke-width="2"/>
        <line x1="80" y1="95" x2="110" y2="118" stroke="#2c3e50" stroke-width="2"/>

        <line x1="220" y1="95" x2="190" y2="118" stroke="#2c3e50" stroke-width="2"/>
        <line x1="220" y1="95" x2="250" y2="118" stroke="#2c3e50" stroke-width="2"/>

        <!-- BST Property Annotations -->
        <text x="0" y="85" class="small-text" fill="#27ae60">&lt; 50</text>
        <text x="270" y="85" class="small-text" fill="#27ae60">> 50</text>
        <text x="30" y="135" class="small-text" fill="#f39c12">&lt; 30</text>
        <text x="130" y="135" class="small-text" fill="#f39c12">> 30</text>
        <text x="170" y="135" class="small-text" fill="#f39c12">&lt; 70</text>
        <text x="270" y="135" class="small-text" fill="#f39c12">> 70</text>
      </g>

      <!-- BST Operations -->
      <g transform="translate(400, 30)">
        <rect x="0" y="0" width="350" height="150" fill="#ecf0f1" stroke="#bdc3c7" stroke-width="2" rx="5"/>

        <text x="20" y="25" class="text" font-weight="bold">BST Operations:</text>

        <text x="20" y="50" class="text" font-weight="bold" fill="#3498db">Search:</text>
        <text x="30" y="65" class="small-text">Compare with root, go left if smaller, right if larger</text>
        <text x="30" y="80" class="small-text">Time: O(log n) average, O(n) worst case</text>

        <text x="20" y="105" class="text" font-weight="bold" fill="#27ae60">Insert:</text>
        <text x="30" y="120" class="small-text">Find correct position using search, add as leaf</text>

        <text x="20" y="140" class="text" font-weight="bold" fill="#e74c3c">Delete:</text>
        <text x="30" y="155" class="small-text">3 cases: leaf, one child, two children</text>
      </g>
    </g>
  </g>

  <!-- Tree Implementation -->
  <g transform="translate(900, 700)">
    <text x="0" y="0" class="subtitle">Tree Node Implementation</text>

    <rect x="0" y="30" width="700" height="350" fill="#2c3e50" stroke="#34495e" stroke-width="2" rx="5"/>

    <text x="20" y="55" class="code" fill="#3498db">class TreeNode:</text>
    <text x="40" y="75" class="code" fill="#ecf0f1">def __init__(self, data):</text>
    <text x="60" y="95" class="code" fill="#ecf0f1">self.data = data</text>
    <text x="60" y="115" class="code" fill="#ecf0f1">self.left = None</text>
    <text x="60" y="135" class="code" fill="#ecf0f1">self.right = None</text>

    <text x="20" y="165" class="code" fill="#f39c12"># Inorder Traversal</text>
    <text x="20" y="185" class="code" fill="#3498db">def inorder(root):</text>
    <text x="40" y="205" class="code" fill="#ecf0f1">if root:</text>
    <text x="60" y="225" class="code" fill="#ecf0f1">inorder(root.left)</text>
    <text x="60" y="245" class="code" fill="#ecf0f1">print(root.data)</text>
    <text x="60" y="265" class="code" fill="#ecf0f1">inorder(root.right)</text>

    <text x="20" y="295" class="code" fill="#f39c12"># BST Search</text>
    <text x="20" y="315" class="code" fill="#3498db">def search(root, key):</text>
    <text x="40" y="335" class="code" fill="#ecf0f1">if not root or root.data == key:</text>
    <text x="60" y="355" class="code" fill="#27ae60">return root</text>
    <text x="40" y="375" class="code" fill="#ecf0f1">if key &lt; root.data:</text>
  </g>

  <!-- Tree Applications -->
  <g transform="translate(50, 1200)">
    <text x="0" y="0" class="subtitle">Tree Applications</text>

    <rect x="0" y="20" width="1500" height="150" fill="#ecf0f1" stroke="#bdc3c7" stroke-width="2" rx="5"/>

    <!-- Application 1 -->
    <g transform="translate(50, 50)">
      <rect x="0" y="0" width="180" height="70" fill="#3498db" stroke="#2980b9" stroke-width="1" rx="3"/>
      <text x="90" y="20" text-anchor="middle" class="text" fill="white" font-weight="bold">File Systems</text>
      <text x="90" y="35" text-anchor="middle" class="small-text" fill="white">Directory hierarchy</text>
      <text x="90" y="50" text-anchor="middle" class="small-text" fill="white">Folders and files</text>
      <text x="90" y="65" text-anchor="middle" class="small-text" fill="white">Path navigation</text>
    </g>

    <!-- Application 2 -->
    <g transform="translate(260, 50)">
      <rect x="0" y="0" width="180" height="70" fill="#27ae60" stroke="#229954" stroke-width="1" rx="3"/>
      <text x="90" y="20" text-anchor="middle" class="text" fill="white" font-weight="bold">Expression Trees</text>
      <text x="90" y="35" text-anchor="middle" class="small-text" fill="white">Mathematical expressions</text>
      <text x="90" y="50" text-anchor="middle" class="small-text" fill="white">Operator precedence</text>
      <text x="90" y="65" text-anchor="middle" class="small-text" fill="white">Compiler design</text>
    </g>

    <!-- Application 3 -->
    <g transform="translate(470, 50)">
      <rect x="0" y="0" width="180" height="70" fill="#e74c3c" stroke="#c0392b" stroke-width="1" rx="3"/>
      <text x="90" y="20" text-anchor="middle" class="text" fill="white" font-weight="bold">Decision Trees</text>
      <text x="90" y="35" text-anchor="middle" class="small-text" fill="white">Machine learning</text>
      <text x="90" y="50" text-anchor="middle" class="small-text" fill="white">Classification algorithms</text>
      <text x="90" y="65" text-anchor="middle" class="small-text" fill="white">Expert systems</text>
    </g>

    <!-- Application 4 -->
    <g transform="translate(680, 50)">
      <rect x="0" y="0" width="180" height="70" fill="#f39c12" stroke="#e67e22" stroke-width="1" rx="3"/>
      <text x="90" y="20" text-anchor="middle" class="text" fill="white" font-weight="bold">Database Indexing</text>
      <text x="90" y="35" text-anchor="middle" class="small-text" fill="white">B-trees, B+ trees</text>
      <text x="90" y="50" text-anchor="middle" class="small-text" fill="white">Fast data retrieval</text>
      <text x="90" y="65" text-anchor="middle" class="small-text" fill="white">SQL optimization</text>
    </g>

    <!-- Application 5 -->
    <g transform="translate(890, 50)">
      <rect x="0" y="0" width="180" height="70" fill="#9b59b6" stroke="#8e44ad" stroke-width="1" rx="3"/>
      <text x="90" y="20" text-anchor="middle" class="text" fill="white" font-weight="bold">Heap Data Structure</text>
      <text x="90" y="35" text-anchor="middle" class="small-text" fill="white">Priority queues</text>
      <text x="90" y="50" text-anchor="middle" class="small-text" fill="white">Heap sort algorithm</text>
      <text x="90" y="65" text-anchor="middle" class="small-text" fill="white">Graph algorithms</text>
    </g>

    <!-- Application 6 -->
    <g transform="translate(1100, 50)">
      <rect x="0" y="0" width="180" height="70" fill="#1abc9c" stroke="#16a085" stroke-width="1" rx="3"/>
      <text x="90" y="20" text-anchor="middle" class="text" fill="white" font-weight="bold">Game Trees</text>
      <text x="90" y="35" text-anchor="middle" class="small-text" fill="white">Chess, tic-tac-toe</text>
      <text x="90" y="50" text-anchor="middle" class="small-text" fill="white">Minimax algorithm</text>
      <text x="90" y="65" text-anchor="middle" class="small-text" fill="white">AI game playing</text>
    </g>
  </g>

</svg>