<svg viewBox="0 0 1800 1400" xmlns="http://www.w3.org/2000/svg">
  <defs>
    <linearGradient id="bgGrad" x1="0%" y1="0%" x2="100%" y2="100%">
      <stop offset="0%" style="stop-color:#f8f9fa;stop-opacity:1" />
      <stop offset="100%" style="stop-color:#e9ecef;stop-opacity:1" />
    </linearGradient>
    <linearGradient id="screenGrad" x1="0%" y1="0%" x2="100%" y2="100%">
      <stop offset="0%" style="stop-color:#212529;stop-opacity:1" />
      <stop offset="100%" style="stop-color:#495057;stop-opacity:1" />
    </linearGradient>
    <linearGradient id="dmmGrad" x1="0%" y1="0%" x2="100%" y2="100%">
      <stop offset="0%" style="stop-color:#ffc107;stop-opacity:0.8" />
      <stop offset="100%" style="stop-color:#ffda6a;stop-opacity:0.8" />
    </linearGradient>
    <linearGradient id="oscilloscopeGrad" x1="0%" y1="0%" x2="100%" y2="100%">
      <stop offset="0%" style="stop-color:#007bff;stop-opacity:0.8" />
      <stop offset="100%" style="stop-color:#66b3ff;stop-opacity:0.8" />
    </linearGradient>
    <linearGradient id="spectrumGrad" x1="0%" y1="0%" x2="100%" y2="100%">
      <stop offset="0%" style="stop-color:#28a745;stop-opacity:0.8" />
      <stop offset="100%" style="stop-color:#6bcf7f;stop-opacity:0.8" />
    </linearGradient>
    <linearGradient id="functionGrad" x1="0%" y1="0%" x2="100%" y2="100%">
      <stop offset="0%" style="stop-color:#dc3545;stop-opacity:0.8" />
      <stop offset="100%" style="stop-color:#ff6b6b;stop-opacity:0.8" />
    </linearGradient>
    <linearGradient id="powerGrad" x1="0%" y1="0%" x2="100%" y2="100%">
      <stop offset="0%" style="stop-color:#6f42c1;stop-opacity:0.8" />
      <stop offset="100%" style="stop-color:#a985d1;stop-opacity:0.8" />
    </linearGradient>
    <linearGradient id="lcmeterGrad" x1="0%" y1="0%" x2="100%" y2="100%">
      <stop offset="0%" style="stop-color:#fd7e14;stop-opacity:0.8" />
      <stop offset="100%" style="stop-color:#ffb366;stop-opacity:0.8" />
    </linearGradient>
    <linearGradient id="waveformGrad" x1="0%" y1="0%" x2="100%" y2="0%">
      <stop offset="0%" style="stop-color:#00ff00;stop-opacity:0.8" />
      <stop offset="100%" style="stop-color:#00ff00;stop-opacity:0.3" />
    </linearGradient>
    <marker id="arrowhead" markerWidth="10" markerHeight="7" refX="9" refY="3.5" orient="auto">
      <polygon points="0 0, 10 3.5, 0 7" fill="#333" />
    </marker>
  </defs>

  <!-- Background -->
  <rect width="1800" height="1400" fill="url(#bgGrad)" />

  <!-- Main Title -->
  <text x="900" y="40" text-anchor="middle" font-family="Arial, sans-serif" font-size="28" font-weight="bold" fill="#2c3e50">
    Digital Measurement Instruments Guide
  </text>

  <!-- Digital Multimeter Section -->
  <g transform="translate(50,80)">
    <rect x="0" y="0" width="540" height="300" fill="rgba(255,193,7,0.1)" rx="15" />
    <text x="270" y="25" text-anchor="middle" font-family="Arial, sans-serif" font-size="18" font-weight="bold" fill="#ffc107">
      DIGITAL MULTIMETER (DMM)
    </text>

    <!-- DMM Illustration -->
    <g transform="translate(50,50)">
      <!-- Body -->
      <rect x="50" y="20" width="120" height="180" fill="url(#dmmGrad)" rx="10" />

      <!-- Screen -->
      <rect x="70" y="40" width="80" height="30" fill="url(#screenGrad)" rx="3" />
      <text x="110" y="58" text-anchor="middle" font-family="monospace" font-size="12" fill="#00ff00">
        12.34V
      </text>

      <!-- Rotary switch -->
      <circle cx="110" cy="100" r="25" fill="#6c757d" />
      <circle cx="110" cy="100" r="20" fill="#495057" />
      <line x1="110" y1="100" x2="125" y2="85" stroke="#fff" stroke-width="3" />

      <!-- Switch positions -->
      <g font-family="Arial, sans-serif" font-size="8" fill="#333">
        <text x="135" y="75" text-anchor="middle">V~</text>
        <text x="140" y="105" text-anchor="middle">V-</text>
        <text x="135" y="135" text-anchor="middle">A</text>
        <text x="110" y="145" text-anchor="middle">Ω</text>
        <text x="85" y="135" text-anchor="middle">→|</text>
        <text x="80" y="105" text-anchor="middle">OFF</text>
        <text x="85" y="75" text-anchor="middle">Hz</text>
      </g>

      <!-- Input jacks -->
      <circle cx="80" cy="150" r="8" fill="#dc3545" />
      <circle cx="110" cy="150" r="8" fill="#333" />
      <circle cx="140" cy="150" r="8" fill="#dc3545" />

      <text x="80" y="175" text-anchor="middle" font-family="Arial, sans-serif" font-size="8" fill="#333">
        VΩHz
      </text>
      <text x="110" y="175" text-anchor="middle" font-family="Arial, sans-serif" font-size="8" fill="#333">
        COM
      </text>
      <text x="140" y="175" text-anchor="middle" font-family="Arial, sans-serif" font-size="8" fill="#333">
        10A
      </text>

      <!-- Test leads -->
      <line x1="80" y1="158" x2="60" y2="220" stroke="#dc3545" stroke-width="4" />
      <line x1="110" y1="158" x2="130" y2="220" stroke="#333" stroke-width="4" />
    </g>

    <!-- Features -->
    <g transform="translate(250,50)">
      <text x="0" y="20" font-family="Arial, sans-serif" font-size="14" font-weight="bold" fill="#333">
        Key Features:
      </text>
      <text x="0" y="40" font-family="Arial, sans-serif" font-size="12" fill="#333">
        • Auto-ranging capability
      </text>
      <text x="0" y="55" font-family="Arial, sans-serif" font-size="12" fill="#333">
        • True RMS measurement
      </text>
      <text x="0" y="70" font-family="Arial, sans-serif" font-size="12" fill="#333">
        • Data logging function
      </text>
      <text x="0" y="85" font-family="Arial, sans-serif" font-size="12" fill="#333">
        • PC connectivity (USB/RS232)
      </text>
      <text x="0" y="100" font-family="Arial, sans-serif" font-size="12" fill="#333">
        • Safety ratings (CAT II/III)
      </text>

      <text x="0" y="130" font-family="Arial, sans-serif" font-size="14" font-weight="bold" fill="#333">
        Typical Specifications:
      </text>
      <text x="0" y="150" font-family="Arial, sans-serif" font-size="11" fill="#333">
        • DC Voltage: 0.1mV - 1000V
      </text>
      <text x="0" y="165" font-family="Arial, sans-serif" font-size="11" fill="#333">
        • AC Voltage: 0.1mV - 750V
      </text>
      <text x="0" y="180" font-family="Arial, sans-serif" font-size="11" fill="#333">
        • Current: 0.1μA - 10A
      </text>
      <text x="0" y="195" font-family="Arial, sans-serif" font-size="11" fill="#333">
        • Resistance: 0.1Ω - 100MΩ
      </text>
      <text x="0" y="210" font-family="Arial, sans-serif" font-size="11" fill="#333">
        • Accuracy: ±0.025% basic DC
      </text>
    </g>
  </g>

  <!-- Digital Oscilloscope Section -->
  <g transform="translate(610,80)">
    <rect x="0" y="0" width="540" height="300" fill="rgba(0,123,255,0.1)" rx="15" />
    <text x="270" y="25" text-anchor="middle" font-family="Arial, sans-serif" font-size="18" font-weight="bold" fill="#007bff">
      DIGITAL STORAGE OSCILLOSCOPE (DSO)
    </text>

    <!-- Oscilloscope Illustration -->
    <g transform="translate(50,50)">
      <!-- Main body -->
      <rect x="0" y="20" width="200" height="150" fill="url(#oscilloscopeGrad)" rx="10" />

      <!-- Screen -->
      <rect x="15" y="35" width="120" height="90" fill="url(#screenGrad)" rx="5" />

      <!-- Grid -->
      <g stroke="#004d00" stroke-width="0.5" opacity="0.5">
        <line x1="15" y1="50" x2="135" y2="50" />
        <line x1="15" y1="65" x2="135" y2="65" />
        <line x1="15" y1="80" x2="135" y2="80" />
        <line x1="15" y1="95" x2="135" y2="95" />
        <line x1="15" y1="110" x2="135" y2="110" />
        <line x1="30" y1="35" x2="30" y2="125" />
        <line x1="45" y1="35" x2="45" y2="125" />
        <line x1="60" y1="35" x2="60" y2="125" />
        <line x1="75" y1="35" x2="75" y2="125" />
        <line x1="90" y1="35" x2="90" y2="125" />
        <line x1="105" y1="35" x2="105" y2="125" />
        <line x1="120" y1="35" x2="120" y2="125" />
      </g>

      <!-- Waveform traces -->
      <path d="M 15,80 Q 25,65 35,80 Q 45,95 55,80 Q 65,65 75,80 Q 85,95 95,80 Q 105,65 115,80 Q 125,95 135,80"
            fill="none" stroke="#00ff00" stroke-width="2" />
      <path d="M 15,95 Q 30,80 45,95 Q 60,110 75,95 Q 90,80 105,95 Q 120,110 135,95"
            fill="none" stroke="#ffff00" stroke-width="2" />

      <!-- Control knobs -->
      <circle cx="155" cy="50" r="8" fill="#6c757d" />
      <circle cx="180" cy="50" r="8" fill="#6c757d" />
      <circle cx="155" cy="75" r="8" fill="#6c757d" />
      <circle cx="180" cy="75" r="8" fill="#6c757d" />

      <!-- Button panel -->
      <rect x="140" y="90" width="50" height="60" fill="#495057" rx="3" />
      <rect x="145" y="95" width="15" height="8" fill="#28a745" rx="2" />
      <rect x="165" y="95" width="15" height="8" fill="#dc3545" rx="2" />
      <rect x="145" y="108" width="15" height="8" fill="#ffc107" rx="2" />
      <rect x="165" y="108" width="15" height="8" fill="#007bff" rx="2" />

      <!-- Channel inputs -->
      <circle cx="30" cy="185" r="6" fill="#ffc107" />
      <circle cx="60" cy="185" r="6" fill="#dc3545" />
      <circle cx="90" cy="185" r="6" fill="#007bff" />
      <circle cx="120" cy="185" r="6" fill="#28a745" />

      <text x="30" y="200" text-anchor="middle" font-family="Arial, sans-serif" font-size="8" fill="#333">
        CH1
      </text>
      <text x="60" y="200" text-anchor="middle" font-family="Arial, sans-serif" font-size="8" fill="#333">
        CH2
      </text>
      <text x="90" y="200" text-anchor="middle" font-family="Arial, sans-serif" font-size="8" fill="#333">
        CH3
      </text>
      <text x="120" y="200" text-anchor="middle" font-family="Arial, sans-serif" font-size="8" fill="#333">
        CH4
      </text>
    </g>

    <!-- Oscilloscope Features -->
    <g transform="translate(280,50)">
      <text x="0" y="20" font-family="Arial, sans-serif" font-size="14" font-weight="bold" fill="#333">
        Advanced Features:
      </text>
      <text x="0" y="40" font-family="Arial, sans-serif" font-size="12" fill="#333">
        • Mixed Signal Oscilloscope (MSO)
      </text>
      <text x="0" y="55" font-family="Arial, sans-serif" font-size="12" fill="#333">
        • FFT spectrum analysis
      </text>
      <text x="0" y="70" font-family="Arial, sans-serif" font-size="12" fill="#333">
        • Protocol decoding (I2C, SPI, CAN)
      </text>
      <text x="0" y="85" font-family="Arial, sans-serif" font-size="12" fill="#333">
        • Arbitrary waveform generator
      </text>
      <text x="0" y="100" font-family="Arial, sans-serif" font-size="12" fill="#333">
        • Automated measurements
      </text>

      <text x="0" y="130" font-family="Arial, sans-serif" font-size="14" font-weight="bold" fill="#333">
        Typical Specifications:
      </text>
      <text x="0" y="150" font-family="Arial, sans-serif" font-size="11" fill="#333">
        • Bandwidth: 100MHz - 8GHz
      </text>
      <text x="0" y="165" font-family="Arial, sans-serif" font-size="11" fill="#333">
        • Sample Rate: 1GSa/s - 80GSa/s
      </text>
      <text x="0" y="180" font-family="Arial, sans-serif" font-size="11" fill="#333">
        • Memory Depth: 1Mpts - 1Gpts
      </text>
      <text x="0" y="195" font-family="Arial, sans-serif" font-size="11" fill="#333">
        • Channels: 2-8 analog + 16 digital
      </text>
      <text x="0" y="210" font-family="Arial, sans-serif" font-size="11" fill="#333">
        • Vertical sensitivity: 1mV/div
      </text>
    </g>
  </g>

  <!-- Function Generator Section -->
  <g transform="translate(1170,80)">
    <rect x="0" y="0" width="580" height="300" fill="rgba(220,53,69,0.1)" rx="15" />
    <text x="290" y="25" text-anchor="middle" font-family="Arial, sans-serif" font-size="18" font-weight="bold" fill="#dc3545">
      ARBITRARY FUNCTION GENERATOR (AFG)
    </text>

    <!-- Function Generator Illustration -->
    <g transform="translate(50,50)">
      <!-- Main body -->
      <rect x="0" y="20" width="180" height="120" fill="url(#functionGrad)" rx="10" />

      <!-- Screen -->
      <rect x="15" y="35" width="80" height="50" fill="url(#screenGrad)" rx="3" />

      <!-- Waveform preview -->
      <path d="M 20,60 Q 30,45 40,60 Q 50,75 60,60 Q 70,45 80,60 Q 85,75 90,60"
            fill="none" stroke="#00ff00" stroke-width="2" />

      <!-- Frequency display -->
      <text x="55" y="100" text-anchor="middle" font-family="monospace" font-size="10" fill="#00ff00">
        1.000 kHz
      </text>

      <!-- Control knobs -->
      <circle cx="115" cy="50" r="12" fill="#6c757d" />
      <circle cx="145" cy="50" r="12" fill="#6c757d" />
      <circle cx="165" cy="50" r="12" fill="#6c757d" />

      <text x="115" y="75" text-anchor="middle" font-family="Arial, sans-serif" font-size="8" fill="#333">
        FREQ
      </text>
      <text x="145" y="75" text-anchor="middle" font-family="Arial, sans-serif" font-size="8" fill="#333">
        AMP
      </text>
      <text x="165" y="75" text-anchor="middle" font-family="Arial, sans-serif" font-size="8" fill="#333">
        OFFSET
      </text>

      <!-- Waveform buttons -->
      <rect x="105" y="90" width="20" height="15" fill="#28a745" rx="2" />
      <rect x="130" y="90" width="20" height="15" fill="#ffc107" rx="2" />
      <rect x="155" y="90" width="20" height="15" fill="#007bff" rx="2" />

      <!-- Waveform symbols -->
      <path d="M 110,97 Q 115,92 120,97 Q 115,102 120,97" fill="none" stroke="white" stroke-width="1" />
      <polygon points="135,92 145,92 140,102" fill="white" />
      <rect x="160" y="95" width="10" height="4" fill="white" />

      <!-- Output connector -->
      <circle cx="90" cy="155" r="8" fill="#ffc107" />
      <text x="90" y="175" text-anchor="middle" font-family="Arial, sans-serif" font-size="8" fill="#333">
        OUTPUT
      </text>
    </g>

    <!-- Function Generator Features -->
    <g transform="translate(260,50)">
      <text x="0" y="20" font-family="Arial, sans-serif" font-size="14" font-weight="bold" fill="#333">
        Waveform Types:
      </text>
      <text x="0" y="40" font-family="Arial, sans-serif" font-size="12" fill="#333">
        • Sine, Square, Triangle, Ramp
      </text>
      <text x="0" y="55" font-family="Arial, sans-serif" font-size="12" fill="#333">
        • Pulse, Noise, DC
      </text>
      <text x="0" y="70" font-family="Arial, sans-serif" font-size="12" fill="#333">
        • Arbitrary waveforms (ARB)
      </text>
      <text x="0" y="85" font-family="Arial, sans-serif" font-size="12" fill="#333">
        • Modulated signals (AM, FM, PM)
      </text>
      <text x="0" y="100" font-family="Arial, sans-serif" font-size="12" fill="#333">
        • Sweep and burst modes
      </text>

      <text x="0" y="130" font-family="Arial, sans-serif" font-size="14" font-weight="bold" fill="#333">
        Typical Specifications:
      </text>
      <text x="0" y="150" font-family="Arial, sans-serif" font-size="11" fill="#333">
        • Frequency: 1μHz - 80MHz
      </text>
      <text x="0" y="165" font-family="Arial, sans-serif" font-size="11" fill="#333">
        • Amplitude: 1mVpp - 10Vpp
      </text>
      <text x="0" y="180" font-family="Arial, sans-serif" font-size="11" fill="#333">
        • Resolution: 14-16 bit vertical
      </text>
      <text x="0" y="195" font-family="Arial, sans-serif" font-size="11" fill="#333">
        • Memory: 1M - 128M points
      </text>
      <text x="0" y="210" font-family="Arial, sans-serif" font-size="11" fill="#333">
        • Accuracy: ±1ppm frequency
      </text>
    </g>
  </g>

  <!-- Spectrum Analyzer Section -->
  <g transform="translate(50,400)">
    <rect x="0" y="0" width="540" height="280" fill="rgba(40,167,69,0.1)" rx="15" />
    <text x="270" y="25" text-anchor="middle" font-family="Arial, sans-serif" font-size="18" font-weight="bold" fill="#28a745">
      SPECTRUM ANALYZER
    </text>

    <!-- Spectrum Analyzer Illustration -->
    <g transform="translate(50,50)">
      <!-- Main body -->
      <rect x="0" y="20" width="200" height="140" fill="url(#spectrumGrad)" rx="10" />

      <!-- Screen -->
      <rect x="15" y="35" width="130" height="80" fill="url(#screenGrad)" rx="5" />

      <!-- Frequency grid -->
      <g stroke="#004d00" stroke-width="0.5" opacity="0.5">
        <line x1="15" y1="45" x2="145" y2="45" />
        <line x1="15" y1="55" x2="145" y2="55" />
        <line x1="15" y1="65" x2="145" y2="65" />
        <line x1="15" y1="75" x2="145" y2="75" />
        <line x1="15" y1="85" x2="145" y2="85" />
        <line x1="15" y1="95" x2="145" y2="95" />
        <line x1="15" y1="105" x2="145" y2="105" />
        <line x1="30" y1="35" x2="30" y2="115" />
        <line x1="45" y1="35" x2="45" y2="115" />
        <line x1="60" y1="35" x2="60" y2="115" />
        <line x1="75" y1="35" x2="75" y2="115" />
        <line x1="90" y1="35" x2="90" y2="115" />
        <line x1="105" y1="35" x2="105" y2="115" />
        <line x1="120" y1="35" x2="120" y2="115" />
        <line x1="135" y1="35" x2="135" y2="115" />
      </g>

      <!-- Spectrum trace -->
      <path d="M 15,105 L 25,105 L 30,95 L 35,105 L 45,100 L 55,85 L 65,70 L 75,85 L 85,100 L 95,105 L 105,90 L 115,105 L 125,100 L 135,105 L 145,105"
            fill="none" stroke="#00ff00" stroke-width="2" />

      <!-- Marker -->
      <line x1="65" y1="35" x2="65" y2="115" stroke="#ffff00" stroke-width="1" stroke-dasharray="2,2" />
      <circle cx="65" cy="70" r="2" fill="#ffff00" />

      <!-- Control panel -->
      <rect x="155" y="35" width="35" height="80" fill="#495057" rx="3" />

      <!-- Frequency controls -->
      <circle cx="172" cy="50" r="6" fill="#6c757d" />
      <circle cx="172" cy="70" r="6" fill="#6c757d" />
      <circle cx="172" cy="90" r="6" fill="#6c757d" />

      <!-- Input connector -->
      <circle cx="80" cy="175" r="8" fill="#ffc107" />
      <text x="80" y="195" text-anchor="middle" font-family="Arial, sans-serif" font-size="8" fill="#333">
        RF INPUT
      </text>
      <text x="80" y="205" text-anchor="middle" font-family="Arial, sans-serif" font-size="8" fill="#333">
        50Ω
      </text>
    </g>

    <!-- Spectrum Analyzer Features -->
    <g transform="translate(280,50)">
      <text x="0" y="20" font-family="Arial, sans-serif" font-size="14" font-weight="bold" fill="#333">
        Analysis Capabilities:
      </text>
      <text x="0" y="40" font-family="Arial, sans-serif" font-size="12" fill="#333">
        • Frequency domain analysis
      </text>
      <text x="0" y="55" font-family="Arial, sans-serif" font-size="12" fill="#333">
        • Harmonic distortion measurement
      </text>
      <text x="0" y="70" font-family="Arial, sans-serif" font-size="12" fill="#333">
        • Spurious signal detection
      </text>
      <text x="0" y="85" font-family="Arial, sans-serif" font-size="12" fill="#333">
        • EMI/EMC pre-compliance
      </text>
      <text x="0" y="100" font-family="Arial, sans-serif" font-size="12" fill="#333">
        • Phase noise analysis
      </text>

      <text x="0" y="130" font-family="Arial, sans-serif" font-size="14" font-weight="bold" fill="#333">
        Key Specifications:
      </text>
      <text x="0" y="150" font-family="Arial, sans-serif" font-size="11" fill="#333">
        • Frequency Range: 9kHz - 26.5GHz
      </text>
      <text x="0" y="165" font-family="Arial, sans-serif" font-size="11" fill="#333">
        • Resolution BW: 1Hz - 10MHz
      </text>
      <text x="0" y="180" font-family="Arial, sans-serif" font-size="11" fill="#333">
        • Dynamic Range: >140dB
      </text>
      <text x="0" y="195" font-family="Arial, sans-serif" font-size="11" fill="#333">
        • Noise Floor: -165dBm/Hz
      </text>
      <text x="0" y="210" font-family="Arial, sans-serif" font-size="11" fill="#333">
        • Amplitude Accuracy: ±0.3dB
      </text>
    </g>
  </g>

  <!-- Power Meter Section -->
  <g transform="translate(610,400)">
    <rect x="0" y="0" width="540" height="280" fill="rgba(111,66,193,0.1)" rx="15" />
    <text x="270" y="25" text-anchor="middle" font-family="Arial, sans-serif" font-size="18" font-weight="bold" fill="#6f42c1">
      DIGITAL POWER METER
    </text>

    <!-- Power Meter Illustration -->
    <g transform="translate(50,50)">
      <!-- Main body -->
      <rect x="0" y="20" width="180" height="140" fill="url(#powerGrad)" rx="10" />

      <!-- Main display -->
      <rect x="15" y="35" width="110" height="40" fill="url(#screenGrad)" rx="3" />
      <text x="70" y="50" text-anchor="middle" font-family="monospace" font-size="11" fill="#00ff00">
        1.234 kW
      </text>
      <text x="70" y="65" text-anchor="middle" font-family="monospace" font-size="9" fill="#00ff00">
        240.5 V  5.13 A
      </text>

      <!-- Secondary displays -->
      <rect x="15" y="85" width="35" height="20" fill="url(#screenGrad)" rx="2" />
      <text x="32" y="98" text-anchor="middle" font-family="monospace" font-size="8" fill="#00ff00">
        0.95 PF
      </text>

      <rect x="60" y="85" width="35" height="20" fill="url(#screenGrad)" rx="2" />
      <text x="77" y="98" text-anchor="middle" font-family="monospace" font-size="8" fill="#00ff00">
        50.0 Hz
      </text>

      <rect x="105" y="85" width="35" height="20" fill="url(#screenGrad)" rx="2" />
      <text x="122" y="98" text-anchor="middle" font-family="monospace" font-size="8" fill="#00ff00">
        2.1% THD
      </text>

      <!-- Control buttons -->
      <rect x="130" y="35" width="40" height="70" fill="#495057" rx="3" />
      <rect x="135" y="40" width="30" height="8" fill="#28a745" rx="1" />
      <rect x="135" y="52" width="30" height="8" fill="#ffc107" rx="1" />
      <rect x="135" y="64" width="30" height="8" fill="#dc3545" rx="1" />
      <rect x="135" y="76" width="30" height="8" fill="#007bff" rx="1" />
      <rect x="135" y="88" width="30" height="8" fill="#6f42c1" rx="1" />

      <!-- Input terminals -->
      <circle cx="30" cy="175" r="6" fill="#dc3545" />
      <circle cx="60" cy="175" r="6" fill="#333" />
      <circle cx="90" cy="175" r="6" fill="#007bff" />
      <circle cx="120" cy="175" r="6" fill="#28a745" />

      <text x="30" y="190" text-anchor="middle" font-family="Arial, sans-serif" font-size="7" fill="#333">
        V1
      </text>
      <text x="60" y="190" text-anchor="middle" font-family="Arial, sans-serif" font-size="7" fill="#333">
        N
      </text>
      <text x="90" y="190" text-anchor="middle" font-family="Arial, sans-serif" font-size="7" fill="#333">
        V2
      </text>
      <text x="120" y="190" text-anchor="middle" font-family="Arial, sans-serif" font-size="7" fill="#333">
        V3
      </text>

      <!-- Current clamps -->
      <ellipse cx="150" cy="175" rx="12" ry="6" fill="#fd7e14" />
      <text x="150" y="190" text-anchor="middle" font-family="Arial, sans-serif" font-size="7" fill="#333">
        CT
      </text>
    </g>

    <!-- Power Meter Features -->
    <g transform="translate(260,50)">
      <text x="0" y="20" font-family="Arial, sans-serif" font-size="14" font-weight="bold" fill="#333">
        Measurement Parameters:
      </text>
      <text x="0" y="40" font-family="Arial, sans-serif" font-size="12" fill="#333">
        • Real Power (W, kW, MW)
      </text>
      <text x="0" y="55" font-family="Arial, sans-serif" font-size="12" fill="#333">
        • Reactive Power (VAR)
      </text>
      <text x="0" y="70" font-family="Arial, sans-serif" font-size="12" fill="#333">
        • Apparent Power (VA)
      </text>
      <text x="0" y="85" font-family="Arial, sans-serif" font-size="12" fill="#333">
        • Power Factor &amp; Phase Angle
      </text>
      <text x="0" y="100" font-family="Arial, sans-serif" font-size="12" fill="#333">
        • Energy (kWh, kVARh)
      </text>
      <text x="0" y="115" font-family="Arial, sans-serif" font-size="12" fill="#333">
        • THD &amp; Individual Harmonics
      </text>

      <text x="0" y="145" font-family="Arial, sans-serif" font-size="14" font-weight="bold" fill="#333">
        Advanced Features:
      </text>
      <text x="0" y="165" font-family="Arial, sans-serif" font-size="11" fill="#333">
        • 3-phase measurement capability
      </text>
      <text x="0" y="180" font-family="Arial, sans-serif" font-size="11" fill="#333">
        • Data logging &amp; trending
      </text>
      <text x="0" y="195" font-family="Arial, sans-serif" font-size="11" fill="#333">
        • Ethernet/USB connectivity
      </text>
      <text x="0" y="210" font-family="Arial, sans-serif" font-size="11" fill="#333">
        • Accuracy: ±0.1% reading
      </text>
    </g>
  </g>

  <!-- LCR Meter Section -->
  <g transform="translate(1170,400)">
    <rect x="0" y="0" width="580" height="280" fill="rgba(253,126,20,0.1)" rx="15" />
    <text x="290" y="25" text-anchor="middle" font-family="Arial, sans-serif" font-size="18" font-weight="bold" fill="#fd7e14">
      LCR METER &amp; IMPEDANCE ANALYZER
    </text>

    <!-- LCR Meter Illustration -->
    <g transform="translate(50,50)">
      <!-- Main body -->
      <rect x="0" y="20" width="160" height="120" fill="url(#lcmeterGrad)" rx="10" />

      <!-- Main display -->
      <rect x="15" y="35" width="90" height="35" fill="url(#screenGrad)" rx="3" />
      <text x="60" y="48" text-anchor="middle" font-family="monospace" font-size="10" fill="#00ff00">
        L: 1.234 mH
      </text>
      <text x="60" y="60" text-anchor="middle" font-family="monospace" font-size="10" fill="#00ff00">
        Q: 125.6
      </text>

      <!-- Secondary display -->
      <rect x="15" y="80" width="90" height="20" fill="url(#screenGrad)" rx="2" />
      <text x="60" y="93" text-anchor="middle" font-family="monospace" font-size="8" fill="#00ff00">
        f: 1.000 kHz
      </text>

      <!-- Test frequency buttons -->
      <rect x="115" y="35" width="35" height="65" fill="#495057" rx="3" />
      <rect x="120" y="40" width="25" height="8" fill="#28a745" rx="1" />
      <rect x="120" y="52" width="25" height="8" fill="#ffc107" rx="1" />
      <rect x="120" y="64" width="25" height="8" fill="#dc3545" rx="1" />
      <rect x="120" y="76" width="25" height="8" fill="#007bff" rx="1" />
      <rect x="120" y="88" width="25" height="8" fill="#6f42c1" rx="1" />

      <!-- Test terminals -->
      <circle cx="40" cy="155" r="6" fill="#dc3545" />
      <circle cx="80" cy="155" r="6" fill="#333" />
      <circle cx="120" cy="155" r="6" fill="#28a745" />

      <text x="40" y="170" text-anchor="middle" font-family="Arial, sans-serif" font-size="8" fill="#333">
        Hcur
      </text>
      <text x="80" y="170" text-anchor="middle" font-family="Arial, sans-serif" font-size="8" fill="#333">
        Lpot
      </text>
      <text x="120" y="170" text-anchor="middle" font-family="Arial, sans-serif" font-size="8" fill="#333">
        Hpot
      </text>

      <!-- Test fixture -->
      <rect x="170" y="50" width="40" height="60" fill="#adb5bd" rx="5" />
      <circle cx="190" cy="70" r="3" fill="#333" />
      <circle cx="190" cy="90" r="3" fill="#333" />
      <text x="190" y="120" text-anchor="middle" font-family="Arial, sans-serif" font-size="8" fill="#333">
        Test Fixture
      </text>
    </g>

    <!-- LCR Meter Features -->
    <g transform="translate(280,50)">
      <text x="0" y="20" font-family="Arial, sans-serif" font-size="14" font-weight="bold" fill="#333">
        Measurement Parameters:
      </text>
      <text x="0" y="40" font-family="Arial, sans-serif" font-size="12" fill="#333">
        • Inductance (L) &amp; Quality Factor (Q)
      </text>
      <text x="0" y="55" font-family="Arial, sans-serif" font-size="12" fill="#333">
        • Capacitance (C) &amp; Dissipation (D)
      </text>
      <text x="0" y="70" font-family="Arial, sans-serif" font-size="12" fill="#333">
        • Resistance (R) &amp; Impedance (Z)
      </text>
      <text x="0" y="85" font-family="Arial, sans-serif" font-size="12" fill="#333">
        • Phase angle &amp; Loss tangent
      </text>
      <text x="0" y="100" font-family="Arial, sans-serif" font-size="12" fill="#333">
        • ESR &amp; Equivalent circuits
      </text>

      <text x="0" y="130" font-family="Arial, sans-serif" font-size="14" font-weight="bold" fill="#333">
        Test Conditions:
      </text>
      <text x="0" y="150" font-family="Arial, sans-serif" font-size="11" fill="#333">
        • Frequency: 40Hz - 110MHz
      </text>
      <text x="0" y="165" font-family="Arial, sans-serif" font-size="11" fill="#333">
        • Test Signal: 5mV - 2V
      </text>
      <text x="0" y="180" font-family="Arial, sans-serif" font-size="11" fill="#333">
        • DC Bias: ±40V capability
      </text>
      <text x="0" y="195" font-family="Arial, sans-serif" font-size="11" fill="#333">
        • Measurement Speed: 3ms
      </text>
      <text x="0" y="210" font-family="Arial, sans-serif" font-size="11" fill="#333">
        • Accuracy: 0.05% basic accuracy
      </text>
    </g>
  </g>

  <!-- Measurement Techniques Section -->
  <g transform="translate(50,700)">
    <rect x="0" y="0" width="1700" height="200" fill="rgba(23,162,184,0.05)" rx="15" />
    <text x="850" y="25" text-anchor="middle" font-family="Arial, sans-serif" font-size="20" font-weight="bold" fill="#17a2b8">
      MEASUREMENT TECHNIQUES &amp; BEST PRACTICES
    </text>

    <g transform="translate(50,50)">
      <!-- General Guidelines -->
      <g transform="translate(0,0)">
        <text x="0" y="20" font-family="Arial, sans-serif" font-size="16" font-weight="bold" fill="#17a2b8">
          General Measurement Guidelines:
        </text>
        <text x="0" y="40" font-family="Arial, sans-serif" font-size="12" fill="#333">
          • Always check instrument calibration before use
        </text>
        <text x="0" y="55" font-family="Arial, sans-serif" font-size="12" fill="#333">
          • Use appropriate measurement ranges and resolution
        </text>
        <text x="0" y="70" font-family="Arial, sans-serif" font-size="12" fill="#333">
          • Consider loading effects on circuit under test
        </text>
        <text x="0" y="85" font-family="Arial, sans-serif" font-size="12" fill="#333">
          • Ensure proper grounding and shielding
        </text>
        <text x="0" y="100" font-family="Arial, sans-serif" font-size="12" fill="#333">
          • Account for cable and connector losses
        </text>
        <text x="0" y="115" font-family="Arial, sans-serif" font-size="12" fill="#333">
          • Use appropriate probes and accessories
        </text>
      </g>

      <!-- Safety -->
      <g transform="translate(420,0)">
        <text x="0" y="20" font-family="Arial, sans-serif" font-size="16" font-weight="bold" fill="#dc3545">
          Safety Considerations:
        </text>
        <text x="0" y="40" font-family="Arial, sans-serif" font-size="12" fill="#333">
          • Verify instrument safety ratings (CAT I-IV)
        </text>
        <text x="0" y="55" font-family="Arial, sans-serif" font-size="12" fill="#333">
          • De-energize circuits before connection
        </text>
        <text x="0" y="70" font-family="Arial, sans-serif" font-size="12" fill="#333">
          • Use proper PPE for high voltage work
        </text>
        <text x="0" y="85" font-family="Arial, sans-serif" font-size="12" fill="#333">
          • Follow lockout/tagout procedures
        </text>
        <text x="0" y="100" font-family="Arial, sans-serif" font-size="12" fill="#333">
          • Understand maximum input specifications
        </text>
        <text x="0" y="115" font-family="Arial, sans-serif" font-size="12" fill="#333">
          • Use isolation transformers when needed
        </text>
      </g>

      <!-- Accuracy -->
      <g transform="translate(840,0)">
        <text x="0" y="20" font-family="Arial, sans-serif" font-size="16" font-weight="bold" fill="#28a745">
          Accuracy &amp; Uncertainty:
        </text>
        <text x="0" y="40" font-family="Arial, sans-serif" font-size="12" fill="#333">
          • Understand specification format (±% reading ±% range)
        </text>
        <text x="0" y="55" font-family="Arial, sans-serif" font-size="12" fill="#333">
          • Consider temperature coefficient effects
        </text>
        <text x="0" y="70" font-family="Arial, sans-serif" font-size="12" fill="#333">
          • Account for aging and drift over time
        </text>
        <text x="0" y="85" font-family="Arial, sans-serif" font-size="12" fill="#333">
          • Perform regular calibration verification
        </text>
        <text x="0" y="100" font-family="Arial, sans-serif" font-size="12" fill="#333">
          • Document measurement uncertainty budget
        </text>
        <text x="0" y="115" font-family="Arial, sans-serif" font-size="12" fill="#333">
          • Use traceable reference standards
        </text>
      </g>

      <!-- Data Management -->
      <g transform="translate(1260,0)">
        <text x="0" y="20" font-family="Arial, sans-serif" font-size="16" font-weight="bold" fill="#6f42c1">
          Data Management:
        </text>
        <text x="0" y="40" font-family="Arial, sans-serif" font-size="12" fill="#333">
          • Use consistent file naming conventions
        </text>
        <text x="0" y="55" font-family="Arial, sans-serif" font-size="12" fill="#333">
          • Include measurement conditions in records
        </text>
        <text x="0" y="70" font-family="Arial, sans-serif" font-size="12" fill="#333">
          • Implement version control for setups
        </text>
        <text x="0" y="85" font-family="Arial, sans-serif" font-size="12" fill="#333">
          • Export data in standard formats
        </text>
        <text x="0" y="100" font-family="Arial, sans-serif" font-size="12" fill="#333">
          • Maintain instrument configuration backups
        </text>
        <text x="0" y="115" font-family="Arial, sans-serif" font-size="12" fill="#333">
          • Document test procedures thoroughly
        </text>
      </g>
    </g>
  </g>

  <!-- Applications Section -->
  <g transform="translate(50,920)">
    <rect x="0" y="0" width="1700" height="160" fill="rgba(255,193,7,0.05)" rx="15" />
    <text x="850" y="25" text-anchor="middle" font-family="Arial, sans-serif" font-size="20" font-weight="bold" fill="#ffc107">
      PRACTICAL APPLICATIONS &amp; USE CASES
    </text>

    <g transform="translate(50,50)">
      <!-- Electronics Design -->
      <g transform="translate(0,0)">
        <text x="0" y="20" font-family="Arial, sans-serif" font-size="14" font-weight="bold" fill="#ffc107">
          Electronics Design &amp; Development:
        </text>
        <text x="0" y="40" font-family="Arial, sans-serif" font-size="11" fill="#333">
          • Circuit characterization and validation
        </text>
        <text x="0" y="55" font-family="Arial, sans-serif" font-size="11" fill="#333">
          • Component parameter verification
        </text>
        <text x="0" y="70" font-family="Arial, sans-serif" font-size="11" fill="#333">
          • Signal integrity analysis
        </text>
        <text x="0" y="85" font-family="Arial, sans-serif" font-size="11" fill="#333">
          • EMI/EMC troubleshooting
        </text>
        <text x="0" y="100" font-family="Arial, sans-serif" font-size="11" fill="#333">
          • Power supply design verification
        </text>
      </g>

      <!-- Manufacturing -->
      <g transform="translate(340,0)">
        <text x="0" y="20" font-family="Arial, sans-serif" font-size="14" font-weight="bold" fill="#ffc107">
          Manufacturing &amp; Quality Control:
        </text>
        <text x="0" y="40" font-family="Arial, sans-serif" font-size="11" fill="#333">
          • Automated test equipment (ATE)
        </text>
        <text x="0" y="55" font-family="Arial, sans-serif" font-size="11" fill="#333">
          • In-circuit testing (ICT)
        </text>
        <text x="0" y="70" font-family="Arial, sans-serif" font-size="11" fill="#333">
          • Functional test verification
        </text>
        <text x="0" y="85" font-family="Arial, sans-serif" font-size="11" fill="#333">
          • Component screening and sorting
        </text>
        <text x="0" y="100" font-family="Arial, sans-serif" font-size="11" fill="#333">
          • Statistical process control
        </text>
      </g>

      <!-- Maintenance -->
      <g transform="translate(680,0)">
        <text x="0" y="20" font-family="Arial, sans-serif" font-size="14" font-weight="bold" fill="#ffc107">
          Maintenance &amp; Troubleshooting:
        </text>
        <text x="0" y="40" font-family="Arial, sans-serif" font-size="11" fill="#333">
          • Equipment diagnostics and repair
        </text>
        <text x="0" y="55" font-family="Arial, sans-serif" font-size="11" fill="#333">
          • Preventive maintenance testing
        </text>
        <text x="0" y="70" font-family="Arial, sans-serif" font-size="11" fill="#333">
          • Intermittent fault detection
        </text>
        <text x="0" y="85" font-family="Arial, sans-serif" font-size="11" fill="#333">
          • Component aging analysis
        </text>
        <text x="0" y="100" font-family="Arial, sans-serif" font-size="11" fill="#333">
          • System performance monitoring
        </text>
      </g>

      <!-- Research -->
      <g transform="translate(1020,0)">
        <text x="0" y="20" font-family="Arial, sans-serif" font-size="14" font-weight="bold" fill="#ffc107">
          Research &amp; Development:
        </text>
        <text x="0" y="40" font-family="Arial, sans-serif" font-size="11" fill="#333">
          • Material characterization
        </text>
        <text x="0" y="55" font-family="Arial, sans-serif" font-size="11" fill="#333">
          • Device modeling and simulation
        </text>
        <text x="0" y="70" font-family="Arial, sans-serif" font-size="11" fill="#333">
          • High-frequency measurements
        </text>
        <text x="0" y="85" font-family="Arial, sans-serif" font-size="11" fill="#333">
          • Temperature and environmental testing
        </text>
        <text x="0" y="100" font-family="Arial, sans-serif" font-size="11" fill="#333">
          • Novel device development
        </text>
      </g>

      <!-- Education -->
      <g transform="translate(1360,0)">
        <text x="0" y="20" font-family="Arial, sans-serif" font-size="14" font-weight="bold" fill="#ffc107">
          Education &amp; Training:
        </text>
        <text x="0" y="40" font-family="Arial, sans-serif" font-size="11" fill="#333">
          • Laboratory experiments
        </text>
        <text x="0" y="55" font-family="Arial, sans-serif" font-size="11" fill="#333">
          • Demonstration of principles
        </text>
        <text x="0" y="70" font-family="Arial, sans-serif" font-size="11" fill="#333">
          • Hands-on measurement training
        </text>
        <text x="0" y="85" font-family="Arial, sans-serif" font-size="11" fill="#333">
          • Instrumentation familiarization
        </text>
        <text x="0" y="100" font-family="Arial, sans-serif" font-size="11" fill="#333">
          • Technical skill development
        </text>
      </g>
    </g>
  </g>

  <!-- Footer -->
  <g transform="translate(50,1100)">
    <text x="850" y="20" text-anchor="middle" font-family="Arial, sans-serif" font-size="16" font-weight="bold" fill="#495057">
      Digital measurement instruments provide precise, automated, and documented measurement capabilities
    </text>
    <text x="850" y="40" text-anchor="middle" font-family="Arial, sans-serif" font-size="12" fill="#6c757d">
      Essential for: Design Verification | Quality Control | Manufacturing Test | Research &amp; Development | Education &amp; Training
    </text>
  </g>
</svg>