<svg viewBox="0 0 1200 900" xmlns="http://www.w3.org/2000/svg">
  <defs>
    <style>
      .title-text { font-family: 'Segoe UI', Arial, sans-serif; font-size: 24px; font-weight: bold; fill: #1e3a8a; }
      .subtitle-text { font-family: 'Segoe UI', Arial, sans-serif; font-size: 18px; font-weight: 600; fill: #1e40af; }
      .label-text { font-family: 'Segoe UI', Arial, sans-serif; font-size: 14px; font-weight: 500; fill: #374151; }
      .value-text { font-family: 'Segoe UI', Arial, sans-serif; font-size: 12px; font-weight: 600; fill: #dc2626; }
      .formula-text { font-family: 'Segoe UI', Arial, sans-serif; font-size: 11px; font-weight: 500; fill: #059669; }
      .measurement-device { stroke: #374151; fill: #f9fafb; stroke-width: 2; }
      .connection-wire { stroke: #6b7280; stroke-width: 2; fill: none; }
      .current-path { stroke: #dc2626; stroke-width: 3; fill: none; }
      .voltage-probe { stroke: #2563eb; stroke-width: 2; fill: none; }
    </style>
    
    <marker id="arrowhead" markerWidth="10" markerHeight="7" refX="9" refY="3.5" orient="auto">
      <polygon points="0 0, 10 3.5, 0 7" fill="#374151" />
    </marker>
    
    <marker id="current-arrow" markerWidth="8" markerHeight="6" refX="7" refY="3" orient="auto">
      <polygon points="0 0, 8 3, 0 6" fill="#dc2626" />
    </marker>
    
    <marker id="voltage-arrow" markerWidth="8" markerHeight="6" refX="7" refY="3" orient="auto">
      <polygon points="0 0, 8 3, 0 6" fill="#2563eb" />
    </marker>
    
    <linearGradient id="meterBg" x1="0%" y1="0%" x2="100%" y2="100%">
      <stop offset="0%" style="stop-color:#f8fafc;stop-opacity:1" />
      <stop offset="100%" style="stop-color:#f1f5f9;stop-opacity:1" />
    </linearGradient>
    
    <linearGradient id="displayBg" x1="0%" y1="0%" x2="100%" y2="100%">
      <stop offset="0%" style="stop-color:#1f2937;stop-opacity:1" />
      <stop offset="100%" style="stop-color:#374151;stop-opacity:1" />
    </linearGradient>
  </defs>

  <!-- Background -->
  <rect width="1200" height="900" fill="#f8fafc"/>

  <!-- Main Title -->
  <text x="600" y="30" text-anchor="middle" class="title-text">Electrical Measurements &amp;amp; Instrumentation</text>
  <text x="600" y="55" text-anchor="middle" class="subtitle-text">Practical Laboratory Techniques &amp;amp; Equipment</text>

  <!-- Multimeter Section -->
  <g id="multimeterSection" transform="translate(50, 80)">
    <rect x="0" y="0" width="350" height="250" fill="#f0f9ff" stroke="#3b82f6" stroke-width="2" rx="8"/>
    <text x="175" y="25" text-anchor="middle" class="subtitle-text" fill="#3b82f6">Digital Multimeter (DMM)</text>
    
    <!-- Multimeter body -->
    <g id="multimeter" transform="translate(75, 50)">
      <rect x="0" y="0" width="200" height="150" fill="url(#meterBg)" stroke="#374151" stroke-width="3" rx="10"/>
      
      <!-- Display -->
      <rect x="20" y="20" width="160" height="40" fill="url(#displayBg)" stroke="#1f2937" stroke-width="2" rx="3"/>
      <text x="100" y="45" text-anchor="middle" class="value-text" fill="#10b981">12.45 V</text>
      
      <!-- Rotary switch -->
      <circle cx="100" cy="100" r="25" fill="#d1d5db" stroke="#6b7280" stroke-width="3"/>
      <circle cx="100" cy="100" r="3" fill="#374151"/>
      <line x1="100" y1="100" x2="115" y2="90" stroke="#374151" stroke-width="3"/>
      
      <!-- Switch positions -->
      <text x="70" y="75" text-anchor="middle" class="formula-text">V</text>
      <text x="130" y="75" text-anchor="middle" class="formula-text">A</text>
      <text x="70" y="125" text-anchor="middle" class="formula-text">Ω</text>
      <text x="130" y="125" text-anchor="middle" class="formula-text">Hz</text>
      
      <!-- Input jacks -->
      <circle cx="60" cy="130" r="5" fill="#dc2626" stroke="#b91c1c" stroke-width="2"/>
      <circle cx="100" cy="130" r="5" fill="#374151" stroke="#1f2937" stroke-width="2"/>
      <circle cx="140" cy="130" r="5" fill="#dc2626" stroke="#b91c1c" stroke-width="2"/>
      
      <text x="60" y="145" text-anchor="middle" class="formula-text">V/Ω</text>
      <text x="100" y="145" text-anchor="middle" class="formula-text">COM</text>
      <text x="140" y="145" text-anchor="middle" class="formula-text">A</text>
    </g>
    
    <!-- Test leads -->
    <line x1="175" y1="210" x2="175" y2="230" class="connection-wire" stroke="#dc2626"/>
    <line x1="175" y1="210" x2="175" y2="230" class="connection-wire" stroke="#374151" transform="translate(25,0)"/>
    
    <text x="175" y="245" text-anchor="middle" class="formula-text">Measures: V, I, R, Continuity, Frequency</text>
  </g>

  <!-- Clamp Meter Section -->
  <g id="clampMeterSection" transform="translate(450, 80)">
    <rect x="0" y="0" width="300" height="250" fill="#fef7cd" stroke="#f59e0b" stroke-width="2" rx="8"/>
    <text x="150" y="25" text-anchor="middle" class="subtitle-text" fill="#f59e0b">Clamp-on Ammeter</text>
    
    <!-- Clamp meter -->
    <g id="clampMeter" transform="translate(50, 50)">
      <!-- Body -->
      <rect x="60" y="60" width="80" height="120" fill="url(#meterBg)" stroke="#374151" stroke-width="3" rx="8"/>
      
      <!-- Display -->
      <rect x="70" y="75" width="60" height="25" fill="url(#displayBg)" stroke="#1f2937" stroke-width="2" rx="2"/>
      <text x="100" y="92" text-anchor="middle" class="value-text" fill="#10b981">15.2 A</text>
      
      <!-- Clamp jaws -->
      <path d="M 50,40 Q 30,20 30,60 Q 30,80 50,100" fill="none" stroke="#374151" stroke-width="4"/>
      <path d="M 150,40 Q 170,20 170,60 Q 170,80 150,100" fill="none" stroke="#374151" stroke-width="4"/>
      
      <!-- Trigger -->
      <rect x="140" y="120" width="20" height="40" fill="#dc2626" stroke="#b91c1c" stroke-width="2" rx="3"/>
      <text x="150" y="142" text-anchor="middle" class="formula-text" fill="white">PUSH</text>
      
      <!-- Current-carrying conductor -->
      <circle cx="100" cy="40" r="25" fill="none" stroke="#dc2626" stroke-width="4" stroke-dasharray="5,5"/>
      <line x1="75" y1="40" x2="125" y2="40" stroke="#dc2626" stroke-width="6"/>
      <text x="100" y="25" text-anchor="middle" class="formula-text">Current-carrying wire</text>
      
      <!-- Current direction -->
      <line x1="110" y1="35" x2="120" y2="35" class="current-path" marker-end="url(#current-arrow)"/>
    </g>
    
    <text x="150" y="220" text-anchor="middle" class="formula-text">Non-contact AC/DC current measurement</text>
    <text x="150" y="235" text-anchor="middle" class="formula-text">Magnetic field sensing principle</text>
  </g>

  <!-- Oscilloscope Section -->
  <g id="oscilloscopeSection" transform="translate(800, 80)">
    <rect x="0" y="0" width="350" height="250" fill="#f0fdf4" stroke="#10b981" stroke-width="2" rx="8"/>
    <text x="175" y="25" text-anchor="middle" class="subtitle-text" fill="#10b981">Digital Oscilloscope</text>
    
    <!-- Oscilloscope -->
    <g id="oscilloscope" transform="translate(50, 50)">
      <!-- Body -->
      <rect x="0" y="0" width="250" height="150" fill="url(#meterBg)" stroke="#374151" stroke-width="3" rx="8"/>
      
      <!-- Screen -->
      <rect x="20" y="20" width="150" height="100" fill="#1f2937" stroke="#374151" stroke-width="2" rx="3"/>
      
      <!-- Waveform grid -->
      <g id="grid" opacity="0.3">
        <line x1="30" y1="70" x2="160" y2="70" stroke="#10b981" stroke-width="1"/>
        <line x1="95" y1="30" x2="95" y2="110" stroke="#10b981" stroke-width="1"/>
        <!-- Vertical grid lines -->
        <line x1="45" y1="30" x2="45" y2="110" stroke="#6b7280" stroke-width="0.5"/>
        <line x1="60" y1="30" x2="60" y2="110" stroke="#6b7280" stroke-width="0.5"/>
        <line x1="75" y1="30" x2="75" y2="110" stroke="#6b7280" stroke-width="0.5"/>
        <line x1="110" y1="30" x2="110" y2="110" stroke="#6b7280" stroke-width="0.5"/>
        <line x1="125" y1="30" x2="125" y2="110" stroke="#6b7280" stroke-width="0.5"/>
        <line x1="140" y1="30" x2="140" y2="110" stroke="#6b7280" stroke-width="0.5"/>
        <!-- Horizontal grid lines -->
        <line x1="30" y1="45" x2="160" y2="45" stroke="#6b7280" stroke-width="0.5"/>
        <line x1="30" y1="55" x2="160" y2="55" stroke="#6b7280" stroke-width="0.5"/>
        <line x1="30" y1="85" x2="160" y2="85" stroke="#6b7280" stroke-width="0.5"/>
        <line x1="30" y1="95" x2="160" y2="95" stroke="#6b7280" stroke-width="0.5"/>
      </g>
      
      <!-- AC Waveform -->
      <path d="M 30,70 Q 45,45 60,70 Q 75,95 90,70 Q 105,45 120,70 Q 135,95 150,70" 
            stroke="#10b981" stroke-width="3" fill="none"/>
      
      <!-- Controls -->
      <circle cx="200" cy="40" r="12" fill="#d1d5db" stroke="#6b7280" stroke-width="2"/>
      <text x="200" y="30" text-anchor="middle" class="formula-text">V/div</text>
      
      <circle cx="200" cy="70" r="12" fill="#d1d5db" stroke="#6b7280" stroke-width="2"/>
      <text x="200" y="60" text-anchor="middle" class="formula-text">Time</text>
      
      <circle cx="200" cy="100" r="12" fill="#d1d5db" stroke="#6b7280" stroke-width="2"/>
      <text x="200" y="90" text-anchor="middle" class="formula-text">Trig</text>
      
      <!-- Probes -->
      <line x1="95" y1="130" x2="95" y2="150" stroke="#2563eb" stroke-width="3"/>
      <text x="95" y="165" text-anchor="middle" class="formula-text">Ch1</text>
    </g>
    
    <text x="175" y="220" text-anchor="middle" class="formula-text">Waveform visualization, frequency, amplitude</text>
    <text x="175" y="235" text-anchor="middle" class="formula-text">Time domain analysis</text>
  </g>

  <!-- Power Meter Section -->
  <g id="powerMeterSection" transform="translate(50, 360)">
    <rect x="0" y="0" width="500" height="200" fill="#fdf2f8" stroke="#ec4899" stroke-width="2" rx="8"/>
    <text x="250" y="25" text-anchor="middle" class="subtitle-text" fill="#ec4899">Power &amp;amp; Energy Measurement</text>
    
    <!-- Wattmeter -->
    <g id="wattmeter" transform="translate(50, 50)">
      <text x="80" y="0" text-anchor="middle" class="label-text">Wattmeter Connection</text>
      
      <!-- Power supply -->
      <circle cx="30" cy="50" r="20" fill="white" stroke="#374151" stroke-width="2"/>
      <path d="M 22,45 Q 30,55 38,45" stroke="#374151" stroke-width="2" fill="none"/>
      <path d="M 22,55 Q 30,45 38,55" stroke="#374151" stroke-width="2" fill="none"/>
      <text x="30" y="75" text-anchor="middle" class="formula-text">AC Supply</text>
      
      <!-- Wattmeter -->
      <rect x="100" y="30" width="60" height="40" class="measurement-device" rx="5"/>
      <text x="130" y="52" text-anchor="middle" class="value-text">W</text>
      
      <!-- Load -->
      <rect x="220" y="40" width="30" height="20" fill="white" stroke="#374151" stroke-width="2"/>
      <text x="235" y="53" text-anchor="middle" class="formula-text">Load</text>
      
      <!-- Current coil connection (series) -->
      <line x1="50" y1="50" x2="100" y2="50" class="current-path" marker-end="url(#current-arrow)"/>
      <line x1="160" y1="50" x2="220" y2="50" class="current-path" marker-end="url(#current-arrow)"/>
      <line x1="250" y1="50" x2="280" y2="50" class="current-path"/>
      <line x1="280" y1="50" x2="280" y2="80" class="current-path"/>
      <line x1="280" y1="80" x2="30" y2="80" class="current-path"/>
      <line x1="30" y1="80" x2="30" y2="70" class="current-path" marker-end="url(#current-arrow)"/>
      
      <!-- Voltage coil connection (parallel) -->
      <line x1="100" y1="35" x2="80" y2="35" class="voltage-probe" marker-end="url(#voltage-arrow)"/>
      <line x1="80" y1="35" x2="80" y2="50" class="voltage-probe"/>
      <line x1="160" y1="35" x2="200" y2="35" class="voltage-probe" marker-end="url(#voltage-arrow)"/>
      <line x1="200" y1="35" x2="200" y2="50" class="voltage-probe"/>
      
      <text x="130" y="100" text-anchor="middle" class="formula-text">P = VI cos φ</text>
    </g>
    
    <!-- Energy meter -->
    <g id="energyMeter" transform="translate(350, 50)">
      <text x="70" y="0" text-anchor="middle" class="label-text">Energy Meter</text>
      
      <rect x="20" y="20" width="100" height="70" class="measurement-device" rx="8"/>
      
      <!-- Digital display -->
      <rect x="30" y="30" width="80" height="25" fill="url(#displayBg)" stroke="#1f2937" stroke-width="1" rx="2"/>
      <text x="70" y="47" text-anchor="middle" class="value-text" fill="#10b981">1234.5</text>
      <text x="70" y="65" text-anchor="middle" class="formula-text">kWh</text>
      
      <!-- Rotating disc (mechanical) -->
      <circle cx="70" cy="75" r="8" fill="none" stroke="#6b7280" stroke-width="2" stroke-dasharray="2,2"/>
      <line x1="70" y1="75" x2="75" y2="70" stroke="#374151" stroke-width="2"/>
      
      <text x="70" y="110" text-anchor="middle" class="formula-text">Energy = ∫P dt</text>
    </g>
  </g>

  <!-- 3-Phase Measurement Setup -->
  <g id="threePhaseSection" transform="translate(600, 360)">
    <rect x="0" y="0" width="550" height="200" fill="#f0f9ff" stroke="#3b82f6" stroke-width="2" rx="8"/>
    <text x="275" y="25" text-anchor="middle" class="subtitle-text" fill="#3b82f6">3-Phase Power Measurement</text>
    
    <!-- 3-Phase supply -->
    <g id="threePhaseMeasurement" transform="translate(50, 50)">
      <!-- Generator -->
      <circle cx="50" cy="70" r="25" fill="white" stroke="#374151" stroke-width="2"/>
      <text x="50" y="75" text-anchor="middle" class="formula-text">3φ G</text>
      
      <!-- Phase conductors -->
      <line x1="75" y1="50" x2="150" y2="50" stroke="#dc2626" stroke-width="3"/>
      <line x1="75" y1="70" x2="150" y2="70" stroke="#f59e0b" stroke-width="3"/>
      <line x1="75" y1="90" x2="150" y2="90" stroke="#2563eb" stroke-width="3"/>
      
      <!-- Phase labels -->
      <text x="110" y="45" text-anchor="middle" class="formula-text" fill="#dc2626">R</text>
      <text x="110" y="65" text-anchor="middle" class="formula-text" fill="#f59e0b">Y</text>
      <text x="110" y="85" text-anchor="middle" class="formula-text" fill="#2563eb">B</text>
      
      <!-- Two-wattmeter method -->
      <rect x="180" y="40" width="40" height="25" class="measurement-device" rx="3"/>
      <text x="200" y="55" text-anchor="middle" class="formula-text">W1</text>
      
      <rect x="180" y="80" width="40" height="25" class="measurement-device" rx="3"/>
      <text x="200" y="95" text-anchor="middle" class="formula-text">W2</text>
      
      <!-- Load -->
      <g id="threePhaseLoad" transform="translate(280, 50)">
        <circle cx="30" cy="20" r="15" fill="white" stroke="#374151" stroke-width="2"/>
        <text x="30" y="25" text-anchor="middle" class="formula-text">M</text>
        <text x="30" y="40" text-anchor="middle" class="formula-text">3φ Motor</text>
      </g>
      
      <!-- Connections for W1 -->
      <line x1="150" y1="50" x2="180" y2="50" class="current-path"/>
      <line x1="220" y1="50" x2="280" y2="50" class="current-path"/>
      <line x1="190" y1="40" x2="190" y2="30" class="voltage-probe"/>
      <line x1="190" y1="30" x2="150" y2="30" class="voltage-probe"/>
      <line x1="150" y1="30" x2="150" y2="70" class="voltage-probe"/>
      
      <!-- Connections for W2 -->
      <line x1="150" y1="90" x2="180" y2="90" class="current-path"/>
      <line x1="220" y1="90" x2="280" y2="90" class="current-path"/>
      <line x1="190" y1="105" x2="190" y2="115" class="voltage-probe"/>
      <line x1="190" y1="115" x2="150" y2="115" class="voltage-probe"/>
      <line x1="150" y1="115" x2="150" y2="70" class="voltage-probe"/>
      
      <!-- Return path -->
      <line x1="310" y1="50" x2="350" y2="50" class="connection-wire"/>
      <line x1="310" y1="70" x2="350" y2="70" class="connection-wire"/>
      <line x1="310" y1="90" x2="350" y2="90" class="connection-wire"/>
      <line x1="350" y1="50" x2="350" y2="90" class="connection-wire"/>
      <line x1="350" y1="90" x2="350" y2="120" class="connection-wire"/>
      <line x1="350" y1="120" x2="50" y2="120" class="connection-wire"/>
      <line x1="50" y1="120" x2="50" y2="95" class="connection-wire"/>
    </g>
    
    <text x="275" y="170" text-anchor="middle" class="formula-text">Total Power = W₁ + W₂</text>
    <text x="275" y="185" text-anchor="middle" class="formula-text">Power Factor = cos(tan⁻¹(√3(W₁-W₂)/(W₁+W₂)))</text>
  </g>

  <!-- Safety and Best Practices -->
  <g id="safetySection" transform="translate(50, 580)">
    <rect x="0" y="0" width="1100" height="150" fill="#fef2f2" stroke="#dc2626" stroke-width="2" rx="8"/>
    <text x="550" y="25" text-anchor="middle" class="subtitle-text" fill="#dc2626">Safety Practices &amp;amp; Best Practices</text>
    
    <!-- Safety guidelines -->
    <g transform="translate(50, 50)">
      <text x="0" y="0" class="label-text">Electrical Safety Rules:</text>
      <text x="0" y="20" class="formula-text">• Always switch OFF supply before making connections</text>
      <text x="0" y="35" class="formula-text">• Check instrument ratings before use (voltage, current limits)</text>
      <text x="0" y="50" class="formula-text">• Use proper fuses and circuit breakers</text>
      <text x="0" y="65" class="formula-text">• Verify polarity and phase sequence</text>
      <text x="0" y="80" class="formula-text">• Ground equipment properly</text>
      
      <text x="400" y="0" class="label-text">Measurement Best Practices:</text>
      <text x="400" y="20" class="formula-text">• Select appropriate range before measurement</text>
      <text x="400" y="35" class="formula-text">• Use high impedance voltmeters (>10MΩ)</text>
      <text x="400" y="50" class="formula-text">• Connect ammeters in series, voltmeters in parallel</text>
      <text x="400" y="65" class="formula-text">• Account for instrument loading effects</text>
      <text x="400" y="80" class="formula-text">• Calibrate instruments regularly</text>
      
      <text x="800" y="0" class="label-text">Common Applications:</text>
      <text x="800" y="20" class="formula-text">• Verify Ohm's law: V = IR</text>
      <text x="800" y="35" class="formula-text">• Kirchhoff's laws verification</text>
      <text x="800" y="50" class="formula-text">• Power factor measurement</text>
      <text x="800" y="65" class="formula-text">• 3-phase system analysis</text>
      <text x="800" y="80" class="formula-text">• Energy consumption monitoring</text>
    </g>
  </g>

  <!-- Practical Exercises Reference -->
  <g id="practicalRef" transform="translate(50, 750)">
    <rect x="0" y="0" width="1100" height="120" fill="#f0fdf4" stroke="#10b981" stroke-width="2" rx="8"/>
    <text x="550" y="25" text-anchor="middle" class="subtitle-text" fill="#10b981">Laboratory Exercises (As per GTU Syllabus)</text>
    
    <g transform="translate(50, 50)">
      <text x="0" y="0" class="label-text">DC Measurements:</text>
      <text x="0" y="18" class="formula-text">• Verify Ohm's law using DMM</text>
      <text x="0" y="33" class="formula-text">• Kirchhoff's current &amp;amp; voltage law verification</text>
      <text x="0" y="48" class="formula-text">• Series/parallel resistance measurement</text>
      <text x="0" y="63" class="formula-text">• Battery voltage &amp;amp; capacity testing</text>
      
      <text x="300" y="0" class="label-text">AC Measurements:</text>
      <text x="300" y="18" class="formula-text">• Single-phase power &amp;amp; power factor</text>
      <text x="300" y="33" class="formula-text">• 3-phase voltage &amp;amp; current relationships</text>
      <text x="300" y="48" class="formula-text">• Star &amp;amp; Delta connection verification</text>
      <text x="300" y="63" class="formula-text">• Power consumption using energy meters</text>
      
      <text x="650" y="0" class="label-text">Advanced Measurements:</text>
      <text x="650" y="18" class="formula-text">• Electromagnetic induction demonstration</text>
      <text x="650" y="33" class="formula-text">• Inductor identification &amp;amp; testing</text>
      <text x="650" y="48" class="formula-text">• Solar/Wind system component testing</text>
      <text x="650" y="63" class="formula-text">• Clamp meter for non-invasive measurements</text>
    </g>
  </g>
</svg>