<svg viewBox="0 0 1400 1000" xmlns="http://www.w3.org/2000/svg">
  <defs>
    <style>
      .title-text { font-family: 'Segoe UI', Arial, sans-serif; font-size: 26px; font-weight: bold; fill: #1e3a8a; }
      .subtitle-text { font-family: 'Segoe UI', Arial, sans-serif; font-size: 18px; font-weight: 600; fill: #1e40af; }
      .label-text { font-family: 'Segoe UI', Arial, sans-serif; font-size: 14px; font-weight: 500; fill: #374151; }
      .value-text { font-family: 'Segoe UI', Arial, sans-serif; font-size: 12px; font-weight: 600; fill: #dc2626; }
      .formula-text { font-family: 'Segoe UI', Arial, sans-serif; font-size: 11px; font-weight: 500; fill: #059669; }
      .problem-text { font-family: 'Segoe UI', Arial, sans-serif; font-size: 12px; font-weight: 500; fill: #ef4444; }
      .solution-text { font-family: 'Segoe UI', Arial, sans-serif; font-size: 11px; font-weight: 500; fill: #10b981; }
      .warning-color { stroke: #f59e0b; fill: #fef3c7; }
      .error-color { stroke: #dc2626; fill: #fee2e2; }
      .success-color { stroke: #10b981; fill: #dcfce7; }
      .info-color { stroke: #3b82f6; fill: #dbeafe; }
    </style>
    
    <marker id="arrowhead" markerWidth="10" markerHeight="7" refX="9" refY="3.5" orient="auto">
      <polygon points="0 0, 10 3.5, 0 7" fill="#374151" />
    </marker>
    
    <marker id="warning-arrow" markerWidth="10" markerHeight="7" refX="9" refY="3.5" orient="auto">
      <polygon points="0 0, 10 3.5, 0 7" fill="#f59e0b" />
    </marker>
    
    <marker id="error-arrow" markerWidth="10" markerHeight="7" refX="9" refY="3.5" orient="auto">
      <polygon points="0 0, 10 3.5, 0 7" fill="#dc2626" />
    </marker>
  </defs>

  <!-- Background -->
  <rect width="1400" height="1000" fill="#f8fafc"/>

  <!-- Main Title -->
  <text x="700" y="35" text-anchor="middle" class="title-text">Electrical Systems Troubleshooting Guide</text>
  <text x="700" y="65" text-anchor="middle" class="subtitle-text">Common Problems, Diagnosis &amp;amp; Solutions</text>

  <!-- DC Circuit Problems -->
  <g id="dcProblems" transform="translate(50, 90)">
    <rect x="0" y="0" width="420" height="280" class="info-color" stroke-width="2" rx="8"/>
    <text x="210" y="25" text-anchor="middle" class="subtitle-text" fill="#3b82f6">DC CIRCUIT PROBLEMS</text>
    
    <!-- Problem 1: No Current Flow -->
    <g id="dcProblem1" transform="translate(20, 50)">
      <rect x="0" y="0" width="380" height="70" fill="white" stroke="#dc2626" stroke-width="2" rx="5"/>
      <text x="10" y="20" class="problem-text">Problem: No current flow in circuit</text>
      
      <!-- Simple circuit diagram -->
      <g transform="translate(10, 30)">
        <circle cx="20" cy="15" r="8" fill="white" stroke="#374151" stroke-width="2"/>
        <text x="20" y="19" text-anchor="middle" class="formula-text">V</text>
        
        <line x1="28" y1="15" x2="50" y2="15" stroke="#374151" stroke-width="2"/>
        <rect x="50" y="10" width="20" height="10" fill="white" stroke="#374151" stroke-width="2"/>
        <text x="60" y="17" text-anchor="middle" class="formula-text">R</text>
        <line x1="70" y1="15" x2="90" y2="15" stroke="#374151" stroke-width="2"/>
        <line x1="90" y1="15" x2="90" y2="30" stroke="#374151" stroke-width="2"/>
        <line x1="90" y1="30" x2="20" y2="30" stroke="#374151" stroke-width="2"/>
        <line x1="20" y1="30" x2="20" y2="23" stroke="#374151" stroke-width="2"/>
        
        <!-- X mark indicating problem -->
        <g transform="translate(45, 20)">
          <line x1="0" y1="0" x2="10" y2="10" stroke="#dc2626" stroke-width="3"/>
          <line x1="10" y1="0" x2="0" y2="10" stroke="#dc2626" stroke-width="3"/>
        </g>
      </g>
      
      <text x="120" y="45" class="solution-text">Check: Open circuit, blown fuse, loose connections</text>
      <text x="120" y="60" class="solution-text">Use: Continuity test, visual inspection, voltage measurement</text>
    </g>
    
    <!-- Problem 2: Excessive Current -->
    <g id="dcProblem2" transform="translate(20, 130)">
      <rect x="0" y="0" width="380" height="70" fill="white" stroke="#f59e0b" stroke-width="2" rx="5"/>
      <text x="10" y="20" class="problem-text">Problem: Excessive current (circuit overload)</text>
      
      <!-- Circuit with ammeter showing high reading -->
      <g transform="translate(10, 30)">
        <circle cx="20" cy="15" r="8" fill="white" stroke="#374151" stroke-width="2"/>
        <text x="20" y="19" text-anchor="middle" class="formula-text">12V</text>
        
        <circle cx="50" cy="15" r="8" fill="white" stroke="#dc2626" stroke-width="2"/>
        <text x="50" y="19" text-anchor="middle" class="value-text">10A!</text>
        
        <rect x="70" y="10" width="20" height="10" fill="#dc2626" stroke="#b91c1c" stroke-width="2"/>
        <text x="80" y="17" text-anchor="middle" class="formula-text" fill="white">1Ω</text>
      </g>
      
      <text x="120" y="45" class="solution-text">Check: Short circuit, wrong resistance values</text>
      <text x="120" y="60" class="solution-text">Solution: Verify R values, check for shorts, add protection</text>
    </g>
    
    <!-- Problem 3: Wrong Voltage -->
    <g id="dcProblem3" transform="translate(20, 210)">
      <rect x="0" y="0" width="380" height="50" fill="white" stroke="#8b5cf6" stroke-width="2" rx="5"/>
      <text x="10" y="20" class="problem-text">Problem: Unexpected voltage readings</text>
      <text x="120" y="35" class="solution-text">Check: Series/parallel connections, Kirchhoff's laws application</text>
    </g>
  </g>

  <!-- AC Circuit Problems -->
  <g id="acProblems" transform="translate(490, 90)">
    <rect x="0" y="0" width="420" height="280" class="warning-color" stroke-width="2" rx="8"/>
    <text x="210" y="25" text-anchor="middle" class="subtitle-text" fill="#f59e0b">AC CIRCUIT PROBLEMS</text>
    
    <!-- Problem 1: Power Factor Issues -->
    <g id="acProblem1" transform="translate(20, 50)">
      <rect x="0" y="0" width="380" height="70" fill="white" stroke="#dc2626" stroke-width="2" rx="5"/>
      <text x="10" y="20" class="problem-text">Problem: Poor power factor (high reactive power)</text>
      
      <!-- Power triangle showing poor PF -->
      <g transform="translate(10, 30)">
        <line x1="20" y1="25" x2="70" y2="25" stroke="#10b981" stroke-width="3"/>
        <line x1="70" y1="25" x2="70" y2="10" stroke="#dc2626" stroke-width="3"/>
        <line x1="20" y1="25" x2="70" y2="10" stroke="#3b82f6" stroke-width="3"/>
        
        <text x="45" y="35" text-anchor="middle" class="formula-text">P (kW)</text>
        <text x="75" y="20" text-anchor="middle" class="formula-text">Q (kVAR)</text>
        <text x="40" y="15" text-anchor="middle" class="formula-text">S (kVA)</text>
        <text x="25" y="20" text-anchor="middle" class="value-text">cosφ = 0.6</text>
      </g>
      
      <text x="120" y="45" class="solution-text">Solution: Add capacitor bank for PF correction</text>
      <text x="120" y="60" class="solution-text">Calculate: C = P(tanφ₁ - tanφ₂) / (2πfV²)</text>
    </g>
    
    <!-- Problem 2: Phase Imbalance -->
    <g id="acProblem2" transform="translate(20, 130)">
      <rect x="0" y="0" width="380" height="70" fill="white" stroke="#f59e0b" stroke-width="2" rx="5"/>
      <text x="10" y="20" class="problem-text">Problem: 3-phase voltage/current imbalance</text>
      
      <!-- 3-phase phasor diagram showing imbalance -->
      <g transform="translate(40, 30)">
        <line x1="0" y1="0" x2="25" y2="0" stroke="#dc2626" stroke-width="3" marker-end="url(#arrowhead)"/>
        <line x1="0" y1="0" x2="-12" y2="-21" stroke="#f59e0b" stroke-width="2" marker-end="url(#arrowhead)"/>
        <line x1="0" y1="0" x2="-18" y2="15" stroke="#2563eb" stroke-width="4" marker-end="url(#arrowhead)"/>
        
        <text x="30" y="5" class="formula-text">VR</text>
        <text x="-20" y="-25" class="formula-text">VY</text>
        <text x="-30" y="20" class="formula-text">VB</text>
      </g>
      
      <text x="120" y="45" class="solution-text">Check: Loose connections, unequal loads, phase sequence</text>
      <text x="120" y="60" class="solution-text">Measure: Individual phase voltages and currents</text>
    </g>
    
    <!-- Problem 3: Harmonic Distortion -->
    <g id="acProblem3" transform="translate(20, 210)">
      <rect x="0" y="0" width="380" height="50" fill="white" stroke="#8b5cf6" stroke-width="2" rx="5"/>
      <text x="10" y="20" class="problem-text">Problem: Non-sinusoidal waveforms (harmonics)</text>
      <text x="120" y="35" class="solution-text">Use: Harmonic filters, isolation transformers</text>
    </g>
  </g>

  <!-- Induction Problems -->
  <g id="inductionProblems" transform="translate(930, 90)">
    <rect x="0" y="0" width="420" height="280" class="error-color" stroke-width="2" rx="8"/>
    <text x="210" y="25" text-anchor="middle" class="subtitle-text" fill="#dc2626">INDUCTION SYSTEM PROBLEMS</text>
    
    <!-- Problem 1: Transformer Issues -->
    <g id="inductionProblem1" transform="translate(20, 50)">
      <rect x="0" y="0" width="380" height="70" fill="white" stroke="#dc2626" stroke-width="2" rx="5"/>
      <text x="10" y="20" class="problem-text">Problem: Transformer not working properly</text>
      
      <!-- Transformer diagram -->
      <g transform="translate(10, 30)">
        <ellipse cx="30" cy="15" rx="8" ry="12" fill="none" stroke="#f59e0b" stroke-width="2"/>
        <rect x="38" y="8" width="14" height="14" fill="#6b7280" stroke="#374151" stroke-width="2"/>
        <ellipse cx="60" cy="15" rx="8" ry="12" fill="none" stroke="#16a34a" stroke-width="2"/>
        
        <!-- Warning symbol -->
        <polygon points="75,5 85,20 65,20" fill="#dc2626" stroke="#b91c1c" stroke-width="2"/>
        <text x="75" y="17" text-anchor="middle" class="formula-text" fill="white">!</text>
      </g>
      
      <text x="120" y="45" class="solution-text">Check: Turn ratio, insulation, core losses, overheating</text>
      <text x="120" y="60" class="solution-text">Test: Open circuit, short circuit tests</text>
    </g>
    
    <!-- Problem 2: Motor Starting Issues -->
    <g id="inductionProblem2" transform="translate(20, 130)">
      <rect x="0" y="0" width="380" height="70" fill="white" stroke="#f59e0b" stroke-width="2" rx="5"/>
      <text x="10" y="20" class="problem-text">Problem: Induction motor won't start</text>
      
      <!-- Motor with starting issue -->
      <g transform="translate(10, 30)">
        <circle cx="40" cy="15" r="12" fill="none" stroke="#f59e0b" stroke-width="3"/>
        <text x="40" y="19" text-anchor="middle" class="formula-text">M</text>
        
        <!-- No rotation indicator -->
        <line x1="35" y1="10" x2="45" y2="20" stroke="#dc2626" stroke-width="3"/>
        <line x1="45" y1="10" x2="35" y2="20" stroke="#dc2626" stroke-width="3"/>
      </g>
      
      <text x="120" y="45" class="solution-text">Check: Phase failure, low voltage, rotor problems</text>
      <text x="120" y="60" class="solution-text">Measure: Phase voltages, starting current, insulation</text>
    </g>
    
    <!-- Problem 3: Eddy Current Losses -->
    <g id="inductionProblem3" transform="translate(20, 210)">
      <rect x="0" y="0" width="380" height="50" fill="white" stroke="#8b5cf6" stroke-width="2" rx="5"/>
      <text x="10" y="20" class="problem-text">Problem: Excessive heating in magnetic cores</text>
      <text x="120" y="35" class="solution-text">Solution: Use laminated cores, reduce operating frequency</text>
    </g>
  </g>

  <!-- Measurement Problems -->
  <g id="measurementProblems" transform="translate(50, 390)">
    <rect x="0" y="0" width="650" height="220" fill="#f0f9ff" stroke="#3b82f6" stroke-width="2" rx="8"/>
    <text x="325" y="25" text-anchor="middle" class="subtitle-text" fill="#3b82f6">MEASUREMENT &amp;amp; INSTRUMENTATION PROBLEMS</text>
    
    <!-- Problem 1: Incorrect Readings -->
    <g id="measureProblem1" transform="translate(20, 50)">
      <rect x="0" y="0" width="610" height="50" fill="white" stroke="#dc2626" stroke-width="2" rx="5"/>
      <text x="10" y="20" class="problem-text">Problem: Multimeter shows incorrect or unstable readings</text>
      <text x="10" y="35" class="solution-text">Check: Battery level, range selection, lead connections, calibration, contact resistance</text>
    </g>
    
    <!-- Problem 2: Loading Effects -->
    <g id="measureProblem2" transform="translate(20, 110)">
      <rect x="0" y="0" width="610" height="50" fill="white" stroke="#f59e0b" stroke-width="2" rx="5"/>
      <text x="10" y="20" class="problem-text">Problem: Measurements affecting circuit behavior (loading effect)</text>
      <text x="10" y="35" class="solution-text">Use: High impedance instruments, appropriate range, minimal circuit disturbance</text>
    </g>
    
    <!-- Problem 3: Safety Issues -->
    <g id="measureProblem3" transform="translate(20, 170)">
      <rect x="0" y="0" width="610" height="30" fill="white" stroke="#dc2626" stroke-width="2" rx="5"/>
      <text x="10" y="20" class="problem-text">Problem: Safety concerns during measurement</text>
      <text x="300" y="20" class="solution-text">Follow: Lockout/tagout, proper PPE, voltage rating checks</text>
    </g>
  </g>

  <!-- Green Energy Problems -->
  <g id="greenEnergyProblems" transform="translate(720, 390)">
    <rect x="0" y="0" width="630" height="220" fill="#f0fdf4" stroke="#10b981" stroke-width="2" rx="8"/>
    <text x="315" y="25" text-anchor="middle" class="subtitle-text" fill="#10b981">GREEN ENERGY SYSTEM PROBLEMS</text>
    
    <!-- Problem 1: Solar Panel Issues -->
    <g id="solarProblem1" transform="translate(20, 50)">
      <rect x="0" y="0" width="590" height="50" fill="white" stroke="#f59e0b" stroke-width="2" rx="5"/>
      <text x="10" y="20" class="problem-text">Problem: Low solar panel output power</text>
      <text x="10" y="35" class="solution-text">Check: Shading, dust, temperature, connections, panel degradation, MPPT operation</text>
    </g>
    
    <!-- Problem 2: Wind Turbine Issues -->
    <g id="windProblem1" transform="translate(20, 110)">
      <rect x="0" y="0" width="590" height="50" fill="white" stroke="#2563eb" stroke-width="2" rx="5"/>
      <text x="10" y="20" class="problem-text">Problem: Wind turbine not generating expected power</text>
      <text x="10" y="35" class="solution-text">Check: Wind speed, blade condition, gearbox, generator, control system</text>
    </g>
    
    <!-- Problem 3: Energy Storage -->
    <g id="energyStorageProblem1" transform="translate(20, 170)">
      <rect x="0" y="0" width="590" height="30" fill="white" stroke="#8b5cf6" stroke-width="2" rx="5"/>
      <text x="10" y="20" class="problem-text">Problem: Battery storage system issues</text>
      <text x="300" y="20" class="solution-text">Monitor: SOC, voltage levels, temperature, cycle count</text>
    </g>
  </g>

  <!-- Troubleshooting Flowchart -->
  <g id="troubleshootingFlow" transform="translate(50, 630)">
    <rect x="0" y="0" width="1300" height="300" fill="white" stroke="#6b7280" stroke-width="2" rx="8"/>
    <text x="650" y="25" text-anchor="middle" class="subtitle-text">SYSTEMATIC TROUBLESHOOTING FLOWCHART</text>
    
    <!-- Step 1 -->
    <g id="step1" transform="translate(50, 50)">
      <rect x="0" y="0" width="120" height="60" fill="#dbeafe" stroke="#3b82f6" stroke-width="2" rx="5"/>
      <text x="60" y="25" text-anchor="middle" class="label-text">1. IDENTIFY</text>
      <text x="60" y="40" text-anchor="middle" class="formula-text">Problem</text>
      <text x="60" y="55" text-anchor="middle" class="formula-text">Symptoms</text>
    </g>
    
    <!-- Arrow 1 -->
    <line x1="170" y1="80" x2="210" y2="80" stroke="#374151" stroke-width="3" marker-end="url(#arrowhead)"/>
    
    <!-- Step 2 -->
    <g id="step2" transform="translate(220, 50)">
      <rect x="0" y="0" width="120" height="60" fill="#fef3c7" stroke="#f59e0b" stroke-width="2" rx="5"/>
      <text x="60" y="25" text-anchor="middle" class="label-text">2. GATHER</text>
      <text x="60" y="40" text-anchor="middle" class="formula-text">Information</text>
      <text x="60" y="55" text-anchor="middle" class="formula-text">Data</text>
    </g>
    
    <!-- Arrow 2 -->
    <line x1="340" y1="80" x2="380" y2="80" stroke="#374151" stroke-width="3" marker-end="url(#arrowhead)"/>
    
    <!-- Step 3 -->
    <g id="step3" transform="translate(390, 50)">
      <rect x="0" y="0" width="120" height="60" fill="#fee2e2" stroke="#dc2626" stroke-width="2" rx="5"/>
      <text x="60" y="25" text-anchor="middle" class="label-text">3. HYPOTHESIZE</text>
      <text x="60" y="40" text-anchor="middle" class="formula-text">Possible</text>
      <text x="60" y="55" text-anchor="middle" class="formula-text">Causes</text>
    </g>
    
    <!-- Arrow 3 -->
    <line x1="510" y1="80" x2="550" y2="80" stroke="#374151" stroke-width="3" marker-end="url(#arrowhead)"/>
    
    <!-- Step 4 -->
    <g id="step4" transform="translate(560, 50)">
      <rect x="0" y="0" width="120" height="60" fill="#f3e8ff" stroke="#8b5cf6" stroke-width="2" rx="5"/>
      <text x="60" y="25" text-anchor="middle" class="label-text">4. TEST</text>
      <text x="60" y="40" text-anchor="middle" class="formula-text">Hypothesis</text>
      <text x="60" y="55" text-anchor="middle" class="formula-text">Measure</text>
    </g>
    
    <!-- Arrow 4 -->
    <line x1="680" y1="80" x2="720" y2="80" stroke="#374151" stroke-width="3" marker-end="url(#arrowhead)"/>
    
    <!-- Step 5 -->
    <g id="step5" transform="translate(730, 50)">
      <rect x="0" y="0" width="120" height="60" fill="#dcfce7" stroke="#10b981" stroke-width="2" rx="5"/>
      <text x="60" y="25" text-anchor="middle" class="label-text">5. IMPLEMENT</text>
      <text x="60" y="40" text-anchor="middle" class="formula-text">Solution</text>
      <text x="60" y="55" text-anchor="middle" class="formula-text">Fix</text>
    </g>
    
    <!-- Arrow 5 -->
    <line x1="850" y1="80" x2="890" y2="80" stroke="#374151" stroke-width="3" marker-end="url(#arrowhead)"/>
    
    <!-- Step 6 -->
    <g id="step6" transform="translate(900, 50)">
      <rect x="0" y="0" width="120" height="60" fill="#fdf2f8" stroke="#ec4899" stroke-width="2" rx="5"/>
      <text x="60" y="25" text-anchor="middle" class="label-text">6. VERIFY</text>
      <text x="60" y="40" text-anchor="middle" class="formula-text">Solution</text>
      <text x="60" y="55" text-anchor="middle" class="formula-text">Works</text>
    </g>
    
    <!-- Feedback arrow -->
    <path d="M 900,130 Q 500,160 220,130" stroke="#dc2626" stroke-width="2" fill="none" stroke-dasharray="5,5" marker-end="url(#error-arrow)"/>
    <text x="560" y="150" text-anchor="middle" class="formula-text" fill="#dc2626">If problem persists, repeat process</text>
    
    <!-- Tools and Techniques -->
    <g id="toolsTechniques" transform="translate(100, 180)">
      <text x="500" y="0" text-anchor="middle" class="label-text">Common Tools &amp;amp; Techniques</text>
      
      <g transform="translate(0, 20)">
        <text x="0" y="0" class="formula-text">Visual Inspection:</text>
        <text x="0" y="15" class="formula-text">• Loose connections</text>
        <text x="0" y="30" class="formula-text">• Burnt components</text>
        <text x="0" y="45" class="formula-text">• Physical damage</text>
        
        <text x="200" y="0" class="formula-text">Electrical Testing:</text>
        <text x="200" y="15" class="formula-text">• Continuity check</text>
        <text x="200" y="30" class="formula-text">• Voltage measurement</text>
        <text x="200" y="45" class="formula-text">• Current measurement</text>
        
        <text x="400" y="0" class="formula-text">Analytical Methods:</text>
        <text x="400" y="15" class="formula-text">• Circuit analysis</text>
        <text x="400" y="30" class="formula-text">• Power calculations</text>
        <text x="400" y="45" class="formula-text">• Efficiency analysis</text>
        
        <text x="600" y="0" class="formula-text">Safety Procedures:</text>
        <text x="600" y="15" class="formula-text">• Lockout/tagout</text>
        <text x="600" y="30" class="formula-text">• PPE requirements</text>
        <text x="600" y="45" class="formula-text">• Proper grounding</text>
        
        <text x="800" y="0" class="formula-text">Documentation:</text>
        <text x="800" y="15" class="formula-text">• Record findings</text>
        <text x="800" y="30" class="formula-text">• Solution steps</text>
        <text x="800" y="45" class="formula-text">• Preventive measures</text>
      </g>
    </g>
  </g>

  <!-- Emergency Procedures -->
  <g id="emergencyProcedures" transform="translate(50, 950)">
    <rect x="0" y="0" width="1300" height="40" fill="#fef2f2" stroke="#dc2626" stroke-width="3" rx="5"/>
    <text x="650" y="15" text-anchor="middle" class="label-text" fill="#dc2626">⚠️ EMERGENCY: Electrical shock, fire, or equipment failure</text>
    <text x="650" y="30" text-anchor="middle" class="formula-text">1. Disconnect power immediately 2. Ensure personal safety 3. Call emergency services 4. Provide first aid if qualified</text>
  </g>
</svg>