<svg viewBox="0 0 1400 1000" xmlns="http://www.w3.org/2000/svg">
  <defs>
    <style>
      .title-text { font-family: 'Segoe UI', Arial, sans-serif; font-size: 28px; font-weight: bold; fill: #1e3a8a; }
      .subtitle-text { font-family: 'Segoe UI', Arial, sans-serif; font-size: 18px; font-weight: 600; fill: #1e40af; }
      .label-text { font-family: 'Segoe UI', Arial, sans-serif; font-size: 14px; font-weight: 500; fill: #374151; }
      .value-text { font-family: 'Segoe UI', Arial, sans-serif; font-size: 12px; font-weight: 600; fill: #dc2626; }
      .formula-text { font-family: 'Segoe UI', Arial, sans-serif; font-size: 11px; font-weight: 500; fill: #059669; }
      .dc-color { stroke: #3b82f6; fill: #3b82f6; }
      .ac-color { stroke: #f59e0b; fill: #f59e0b; }
      .induction-color { stroke: #8b5cf6; fill: #8b5cf6; }
      .green-color { stroke: #10b981; fill: #10b981; }
      .connection-line { stroke: #6b7280; stroke-width: 2; fill: none; }
      .flow-arrow { stroke: #dc2626; fill: #dc2626; stroke-width: 2; }
    </style>
    
    <marker id="arrowhead" markerWidth="10" markerHeight="7" refX="9" refY="3.5" orient="auto">
      <polygon points="0 0, 10 3.5, 0 7" fill="#6b7280" />
    </marker>
    
    <marker id="flow-arrow" markerWidth="10" markerHeight="7" refX="9" refY="3.5" orient="auto">
      <polygon points="0 0, 10 3.5, 0 7" fill="#dc2626" />
    </marker>
    
    <linearGradient id="dcBg" x1="0%" y1="0%" x2="100%" y2="100%">
      <stop offset="0%" style="stop-color:#dbeafe;stop-opacity:1" />
      <stop offset="100%" style="stop-color:#bfdbfe;stop-opacity:1" />
    </linearGradient>
    
    <linearGradient id="acBg" x1="0%" y1="0%" x2="100%" y2="100%">
      <stop offset="0%" style="stop-color:#fef7cd;stop-opacity:1" />
      <stop offset="100%" style="stop-color:#fef3c7;stop-opacity:1" />
    </linearGradient>
    
    <linearGradient id="inductionBg" x1="0%" y1="0%" x2="100%" y2="100%">
      <stop offset="0%" style="stop-color:#f3f4ff;stop-opacity:1" />
      <stop offset="100%" style="stop-color:#e0e7ff;stop-opacity:1" />
    </linearGradient>
    
    <linearGradient id="greenBg" x1="0%" y1="0%" x2="100%" y2="100%">
      <stop offset="0%" style="stop-color:#ecfdf5;stop-opacity:1" />
      <stop offset="100%" style="stop-color:#d1fae5;stop-opacity:1" />
    </linearGradient>
  </defs>

  <!-- Background -->
  <rect width="1400" height="1000" fill="#f8fafc"/>

  <!-- Main Title -->
  <text x="700" y="40" text-anchor="middle" class="title-text">Electrical Engineering Applications in Industry</text>
  <text x="700" y="70" text-anchor="middle" class="subtitle-text">From Fundamentals to Real-World Implementation</text>

  <!-- DC Applications Section -->
  <g id="dcApplications" transform="translate(50, 100)">
    <rect x="0" y="0" width="300" height="350" rx="10" fill="url(#dcBg)" stroke="#3b82f6" stroke-width="3"/>
    <text x="150" y="30" text-anchor="middle" class="subtitle-text" fill="#3b82f6">DC POWER SYSTEMS</text>
    
    <!-- Battery Bank -->
    <g transform="translate(50, 50)">
      <rect x="0" y="0" width="200" height="80" fill="white" stroke="#3b82f6" stroke-width="2" rx="5"/>
      <text x="100" y="20" text-anchor="middle" class="label-text">Data Center UPS</text>
      
      <!-- Battery cells -->
      <g id="batteryCells">
        <rect x="20" y="30" width="30" height="40" fill="#dc2626" stroke="#b91c1c" stroke-width="2" rx="3"/>
        <text x="35" y="52" text-anchor="middle" class="formula-text" fill="white">12V</text>
        <rect x="60" y="30" width="30" height="40" fill="#dc2626" stroke="#b91c1c" stroke-width="2" rx="3"/>
        <text x="75" y="52" text-anchor="middle" class="formula-text" fill="white">12V</text>
        <rect x="100" y="30" width="30" height="40" fill="#dc2626" stroke="#b91c1c" stroke-width="2" rx="3"/>
        <text x="115" y="52" text-anchor="middle" class="formula-text" fill="white">12V</text>
        <rect x="140" y="30" width="30" height="40" fill="#dc2626" stroke="#b91c1c" stroke-width="2" rx="3"/>
        <text x="155" y="52" text-anchor="middle" class="formula-text" fill="white">12V</text>
        
        <!-- Series connection -->
        <line x1="50" y1="50" x2="60" y2="50" class="connection-line"/>
        <line x1="90" y1="50" x2="100" y2="50" class="connection-line"/>
        <line x1="130" y1="50" x2="140" y2="50" class="connection-line"/>
      </g>
      
      <text x="100" y="95" text-anchor="middle" class="formula-text">Series: 48V Total (Kirchhoff's Laws)</text>
    </g>
    
    <!-- Electric Vehicle -->
    <g transform="translate(50, 150)">
      <rect x="0" y="0" width="200" height="80" fill="white" stroke="#3b82f6" stroke-width="2" rx="5"/>
      <text x="100" y="20" text-anchor="middle" class="label-text">Electric Vehicle Drive</text>
      
      <!-- EV battery -->
      <rect x="20" y="30" width="60" height="30" fill="#16a34a" stroke="#15803d" stroke-width="2" rx="3"/>
      <text x="50" y="48" text-anchor="middle" class="formula-text" fill="white">Li-ion</text>
      
      <!-- Motor controller -->
      <rect x="100" y="30" width="80" height="30" fill="#6b7280" stroke="#374151" stroke-width="2" rx="3"/>
      <text x="140" y="48" text-anchor="middle" class="formula-text" fill="white">Motor Control</text>
      
      <!-- Connection -->
      <line x1="80" y1="45" x2="100" y2="45" class="connection-line" marker-end="url(#arrowhead)"/>
      
      <text x="100" y="75" text-anchor="middle" class="formula-text">Ohm's Law: V = IR, Power calculations</text>
    </g>
    
    <!-- LED Lighting -->
    <g transform="translate(50, 250)">
      <rect x="0" y="0" width="200" height="80" fill="white" stroke="#3b82f6" stroke-width="2" rx="5"/>
      <text x="100" y="20" text-anchor="middle" class="label-text">LED Lighting Systems</text>
      
      <!-- LED array -->
      <circle cx="40" cy="45" r="8" fill="#fbbf24" stroke="#f59e0b" stroke-width="2"/>
      <circle cx="70" cy="45" r="8" fill="#fbbf24" stroke="#f59e0b" stroke-width="2"/>
      <circle cx="100" cy="45" r="8" fill="#fbbf24" stroke="#f59e0b" stroke-width="2"/>
      <circle cx="130" cy="45" r="8" fill="#fbbf24" stroke="#f59e0b" stroke-width="2"/>
      <circle cx="160" cy="45" r="8" fill="#fbbf24" stroke="#f59e0b" stroke-width="2"/>
      
      <!-- Resistor for current limiting -->
      <rect x="20" y="60" width="160" height="10" fill="#8b5a2b" stroke="#7c2d12" stroke-width="1" rx="2"/>
      <text x="100" y="68" text-anchor="middle" class="formula-text" fill="white">Current Limiting Resistor</text>
      
      <text x="100" y="95" text-anchor="middle" class="formula-text">Series/Parallel: R_eq calculations</text>
    </g>
  </g>

  <!-- AC Applications Section -->
  <g id="acApplications" transform="translate(400, 100)">
    <rect x="0" y="0" width="300" height="350" rx="10" fill="url(#acBg)" stroke="#f59e0b" stroke-width="3"/>
    <text x="150" y="30" text-anchor="middle" class="subtitle-text" fill="#f59e0b">AC POWER SYSTEMS</text>
    
    <!-- Power Grid -->
    <g transform="translate(50, 50)">
      <rect x="0" y="0" width="200" height="80" fill="white" stroke="#f59e0b" stroke-width="2" rx="5"/>
      <text x="100" y="20" text-anchor="middle" class="label-text">Electrical Power Grid</text>
      
      <!-- Generator -->
      <circle cx="40" cy="50" r="15" fill="#dc2626" stroke="#b91c1c" stroke-width="2"/>
      <text x="40" y="55" text-anchor="middle" class="formula-text" fill="white">G</text>
      
      <!-- Transformer -->
      <ellipse cx="100" cy="45" rx="15" ry="10" fill="none" stroke="#f59e0b" stroke-width="2"/>
      <ellipse cx="100" cy="55" rx="15" ry="10" fill="none" stroke="#f59e0b" stroke-width="2"/>
      <text x="100" y="40" text-anchor="middle" class="formula-text">Step-up</text>
      
      <!-- Transmission lines -->
      <line x1="115" y1="50" x2="160" y2="50" class="connection-line" stroke-width="3"/>
      <line x1="115" y1="45" x2="160" y2="45" class="connection-line" stroke-width="3"/>
      <line x1="115" y1="55" x2="160" y2="55" class="connection-line" stroke-width="3"/>
      
      <!-- Load -->
      <rect x="160" y="45" width="20" height="10" fill="#6b7280" stroke="#374151" stroke-width="1"/>
      
      <text x="100" y="75" text-anchor="middle" class="formula-text">3-Phase: √3 relationships, Power Factor</text>
    </g>
    
    <!-- Industrial Motor -->
    <g transform="translate(50, 150)">
      <rect x="0" y="0" width="200" height="80" fill="white" stroke="#f59e0b" stroke-width="2" rx="5"/>
      <text x="100" y="20" text-anchor="middle" class="label-text">Induction Motor Drive</text>
      
      <!-- Motor -->
      <circle cx="60" cy="50" r="20" fill="none" stroke="#f59e0b" stroke-width="3"/>
      <ellipse cx="60" cy="50" rx="12" ry="8" fill="none" stroke="#f59e0b" stroke-width="2"/>
      <text x="60" y="55" text-anchor="middle" class="formula-text">M</text>
      
      <!-- VFD -->
      <rect x="110" y="35" width="60" height="30" fill="#6b7280" stroke="#374151" stroke-width="2" rx="3"/>
      <text x="140" y="53" text-anchor="middle" class="formula-text" fill="white">VFD</text>
      
      <!-- Connection -->
      <line x1="80" y1="50" x2="110" y2="50" class="connection-line" marker-end="url(#arrowhead)"/>
      
      <text x="100" y="75" text-anchor="middle" class="formula-text">RLC Circuits, Reactive Power</text>
    </g>
    
    <!-- HVAC System -->
    <g transform="translate(50, 250)">
      <rect x="0" y="0" width="200" height="80" fill="white" stroke="#f59e0b" stroke-width="2" rx="5"/>
      <text x="100" y="20" text-anchor="middle" class="label-text">HVAC Power Systems</text>
      
      <!-- Compressor motor -->
      <circle cx="50" cy="45" r="12" fill="#60a5fa" stroke="#3b82f6" stroke-width="2"/>
      <text x="50" y="50" text-anchor="middle" class="formula-text" fill="white">C</text>
      
      <!-- Fan motor -->
      <circle cx="100" cy="45" r="12" fill="#34d399" stroke="#10b981" stroke-width="2"/>
      <text x="100" y="50" text-anchor="middle" class="formula-text" fill="white">F</text>
      
      <!-- Power factor correction -->
      <rect x="130" y="35" width="40" height="20" fill="#f3e8ff" stroke="#8b5cf6" stroke-width="2" rx="2"/>
      <text x="150" y="48" text-anchor="middle" class="formula-text">PFC</text>
      
      <text x="100" y="75" text-anchor="middle" class="formula-text">Power Triangle, Capacitor Banks</text>
    </g>
  </g>

  <!-- Electromagnetic Induction Applications -->
  <g id="inductionApplications" transform="translate(750, 100)">
    <rect x="0" y="0" width="300" height="350" rx="10" fill="url(#inductionBg)" stroke="#8b5cf6" stroke-width="3"/>
    <text x="150" y="30" text-anchor="middle" class="subtitle-text" fill="#8b5cf6">INDUCTION APPLICATIONS</text>
    
    <!-- Wireless Charging -->
    <g transform="translate(50, 50)">
      <rect x="0" y="0" width="200" height="80" fill="white" stroke="#8b5cf6" stroke-width="2" rx="5"/>
      <text x="100" y="20" text-anchor="middle" class="label-text">Wireless Power Transfer</text>
      
      <!-- Charging pad -->
      <ellipse cx="60" cy="50" rx="25" ry="15" fill="none" stroke="#8b5cf6" stroke-width="3"/>
      <ellipse cx="60" cy="50" rx="15" ry="8" fill="none" stroke="#8b5cf6" stroke-width="2"/>
      <text x="60" y="40" text-anchor="middle" class="formula-text">Tx Coil</text>
      
      <!-- Device coil -->
      <ellipse cx="140" cy="50" rx="25" ry="15" fill="none" stroke="#ec4899" stroke-width="3"/>
      <ellipse cx="140" cy="50" rx="15" ry="8" fill="none" stroke="#ec4899" stroke-width="2"/>
      <text x="140" y="40" text-anchor="middle" class="formula-text">Rx Coil</text>
      
      <!-- Magnetic field lines -->
      <path d="M 85,45 Q 100,35 115,45" stroke="#7c3aed" stroke-width="2" stroke-dasharray="3,2" fill="none"/>
      <path d="M 85,55 Q 100,65 115,55" stroke="#7c3aed" stroke-width="2" stroke-dasharray="3,2" fill="none"/>
      
      <text x="100" y="75" text-anchor="middle" class="formula-text">Mutual Induction: M₁₂ = M₂₁</text>
    </g>
    
    <!-- Transformer Station -->
    <g transform="translate(50, 150)">
      <rect x="0" y="0" width="200" height="80" fill="white" stroke="#8b5cf6" stroke-width="2" rx="5"/>
      <text x="100" y="20" text-anchor="middle" class="label-text">Distribution Transformer</text>
      
      <!-- High voltage side -->
      <ellipse cx="50" cy="50" rx="15" ry="20" fill="none" stroke="#dc2626" stroke-width="2"/>
      <text x="35" y="55" text-anchor="middle" class="formula-text">HV</text>
      <text x="35" y="40" text-anchor="middle" class="formula-text">11kV</text>
      
      <!-- Core -->
      <rect x="65" y="35" width="70" height="30" fill="#6b7280" stroke="#374151" stroke-width="2" rx="3"/>
      <text x="100" y="53" text-anchor="middle" class="formula-text" fill="white">Iron Core</text>
      
      <!-- Low voltage side -->
      <ellipse cx="150" cy="50" rx="15" ry="20" fill="none" stroke="#16a34a" stroke-width="2"/>
      <text x="165" y="55" text-anchor="middle" class="formula-text">LV</text>
      <text x="165" y="40" text-anchor="middle" class="formula-text">415V</text>
      
      <text x="100" y="75" text-anchor="middle" class="formula-text">Faraday's Law: ε = -N(dΦ/dt)</text>
    </g>
    
    <!-- Induction Heating -->
    <g transform="translate(50, 250)">
      <rect x="0" y="0" width="200" height="80" fill="white" stroke="#8b5cf6" stroke-width="2" rx="5"/>
      <text x="100" y="20" text-anchor="middle" class="label-text">Induction Heating System</text>
      
      <!-- Induction coil -->
      <ellipse cx="80" cy="50" rx="30" ry="20" fill="none" stroke="#f59e0b" stroke-width="3"/>
      <ellipse cx="80" cy="50" rx="20" ry="12" fill="none" stroke="#f59e0b" stroke-width="2"/>
      
      <!-- Workpiece -->
      <circle cx="80" cy="50" r="8" fill="#ef4444" stroke="#dc2626" stroke-width="2"/>
      
      <!-- High frequency supply -->
      <rect x="130" y="40" width="50" height="20" fill="#6366f1" stroke="#4f46e5" stroke-width="2" rx="3"/>
      <text x="155" y="53" text-anchor="middle" class="formula-text" fill="white">RF Gen</text>
      
      <text x="100" y="75" text-anchor="middle" class="formula-text">Eddy Currents, Lenz Law Opposition</text>
    </g>
  </g>

  <!-- Green Energy Applications -->
  <g id="greenApplications" transform="translate(1100, 100)">
    <rect x="0" y="0" width="250" height="350" rx="10" fill="url(#greenBg)" stroke="#10b981" stroke-width="3"/>
    <text x="125" y="30" text-anchor="middle" class="subtitle-text" fill="#10b981">GREEN ENERGY</text>
    
    <!-- Solar Farm -->
    <g transform="translate(25, 50)">
      <rect x="0" y="0" width="200" height="80" fill="white" stroke="#10b981" stroke-width="2" rx="5"/>
      <text x="100" y="20" text-anchor="middle" class="label-text">Solar Power Plant</text>
      
      <!-- Solar panels -->
      <rect x="20" y="30" width="30" height="20" fill="#3b82f6" stroke="#1d4ed8" stroke-width="2" rx="2"/>
      <rect x="55" y="30" width="30" height="20" fill="#3b82f6" stroke="#1d4ed8" stroke-width="2" rx="2"/>
      <rect x="90" y="30" width="30" height="20" fill="#3b82f6" stroke="#1d4ed8" stroke-width="2" rx="2"/>
      
      <!-- Inverter -->
      <rect x="140" y="35" width="40" height="15" fill="#f59e0b" stroke="#d97706" stroke-width="2" rx="3"/>
      <text x="160" y="45" text-anchor="middle" class="formula-text" fill="white">INV</text>
      
      <!-- Connection -->
      <line x1="120" y1="40" x2="140" y2="40" class="connection-line" marker-end="url(#arrowhead)"/>
      
      <text x="100" y="65" text-anchor="middle" class="formula-text">DC → AC, Series/Parallel Arrays</text>
    </g>
    
    <!-- Wind Farm -->
    <g transform="translate(25, 150)">
      <rect x="0" y="0" width="200" height="80" fill="white" stroke="#10b981" stroke-width="2" rx="5"/>
      <text x="100" y="20" text-anchor="middle" class="label-text">Wind Power System</text>
      
      <!-- Wind turbine -->
      <circle cx="60" cy="45" r="3" fill="#374151"/>
      <line x1="60" y1="45" x2="45" y2="35" stroke="#10b981" stroke-width="3"/>
      <line x1="60" y1="45" x2="75" y2="30" stroke="#10b981" stroke-width="3"/>
      <line x1="60" y1="45" x2="70" y2="60" stroke="#10b981" stroke-width="3"/>
      
      <!-- Generator -->
      <circle cx="120" cy="45" r="15" fill="#f59e0b" stroke="#d97706" stroke-width="2"/>
      <text x="120" y="50" text-anchor="middle" class="formula-text" fill="white">G</text>
      
      <!-- Grid connection -->
      <rect x="150" y="40" width="30" height="10" fill="#6b7280" stroke="#374151" stroke-width="1" rx="2"/>
      <text x="165" y="47" text-anchor="middle" class="formula-text" fill="white">Grid</text>
      
      <text x="100" y="70" text-anchor="middle" class="formula-text">Electromagnetic Generation</text>
    </g>
    
    <!-- Energy Storage -->
    <g transform="translate(25, 250)">
      <rect x="0" y="0" width="200" height="80" fill="white" stroke="#10b981" stroke-width="2" rx="5"/>
      <text x="100" y="20" text-anchor="middle" class="label-text">Battery Energy Storage</text>
      
      <!-- Battery modules -->
      <rect x="30" y="30" width="25" height="35" fill="#16a34a" stroke="#15803d" stroke-width="2" rx="3"/>
      <rect x="60" y="30" width="25" height="35" fill="#16a34a" stroke="#15803d" stroke-width="2" rx="3"/>
      <rect x="90" y="30" width="25" height="35" fill="#16a34a" stroke="#15803d" stroke-width="2" rx="3"/>
      <rect x="120" y="30" width="25" height="35" fill="#16a34a" stroke="#15803d" stroke-width="2" rx="3"/>
      
      <!-- BMS -->
      <rect x="155" y="40" width="30" height="15" fill="#8b5cf6" stroke="#7c3aed" stroke-width="2" rx="2"/>
      <text x="170" y="50" text-anchor="middle" class="formula-text" fill="white">BMS</text>
      
      <text x="100" y="75" text-anchor="middle" class="formula-text">Grid-Scale Energy Storage</text>
    </g>
  </g>

  <!-- Central Integration Hub -->
  <g id="integrationHub" transform="translate(600, 500)">
    <circle cx="100" cy="100" r="80" fill="white" stroke="#374151" stroke-width="4"/>
    <text x="100" y="95" text-anchor="middle" class="subtitle-text">SMART GRID</text>
    <text x="100" y="115" text-anchor="middle" class="label-text">Integration</text>
    
    <!-- Connection lines from each section to center -->
    <line x1="100" y1="20" x2="200" y2="100" class="connection-line" stroke-width="3" marker-end="url(#arrowhead)"/>
    <line x1="0" y1="20" x2="200" y2="100" class="connection-line" stroke-width="3" marker-end="url(#arrowhead)"/>
    <line x1="-50" y1="100" x2="20" y2="100" class="connection-line" stroke-width="3" marker-end="url(#arrowhead)"/>
    <line x1="300" y1="100" x2="180" y2="100" class="connection-line" stroke-width="3" marker-end="url(#arrowhead)"/>
    
    <!-- Labels for connections -->
    <text x="150" y="60" text-anchor="middle" class="formula-text" transform="rotate(-45 150 60)">DC Systems</text>
    <text x="50" y="60" text-anchor="middle" class="formula-text" transform="rotate(45 50 60)">AC Power</text>
    <text x="50" y="120" text-anchor="middle" class="formula-text">Induction</text>
    <text x="250" y="120" text-anchor="middle" class="formula-text">Renewables</text>
  </g>

  <!-- Key Concepts Integration -->
  <g id="conceptsIntegration" transform="translate(50, 650)">
    <rect x="0" y="0" width="1300" height="200" fill="white" stroke="#6b7280" stroke-width="2" rx="10"/>
    <text x="650" y="30" text-anchor="middle" class="subtitle-text">Fundamental Concepts Applied Across All Systems</text>
    
    <!-- DC Concepts -->
    <g transform="translate(50, 50)">
      <rect x="0" y="0" width="280" height="120" fill="url(#dcBg)" stroke="#3b82f6" stroke-width="2" rx="5"/>
      <text x="140" y="25" text-anchor="middle" class="label-text" fill="#3b82f6">DC Circuit Principles</text>
      <text x="20" y="50" class="formula-text">• Ohm's Law: V = IR</text>
      <text x="20" y="70" class="formula-text">• Kirchhoff's Laws: ΣV = 0, ΣI = 0</text>
      <text x="20" y="90" class="formula-text">• Power: P = VI = I²R = V²/R</text>
      <text x="20" y="110" class="formula-text">• Series/Parallel combinations</text>
    </g>
    
    <!-- AC Concepts -->
    <g transform="translate(350, 50)">
      <rect x="0" y="0" width="280" height="120" fill="url(#acBg)" stroke="#f59e0b" stroke-width="2" rx="5"/>
      <text x="140" y="25" text-anchor="middle" class="label-text" fill="#f59e0b">AC Circuit Principles</text>
      <text x="20" y="50" class="formula-text">• RMS, Average, Peak values</text>
      <text x="20" y="70" class="formula-text">• Reactive power, Power Factor</text>
      <text x="20" y="90" class="formula-text">• 3-Phase: VL = √3·VPh</text>
      <text x="20" y="110" class="formula-text">• Star/Delta connections</text>
    </g>
    
    <!-- Induction Concepts -->
    <g transform="translate(650, 50)">
      <rect x="0" y="0" width="280" height="120" fill="url(#inductionBg)" stroke="#8b5cf6" stroke-width="2" rx="5"/>
      <text x="140" y="25" text-anchor="middle" class="label-text" fill="#8b5cf6">Induction Principles</text>
      <text x="20" y="50" class="formula-text">• Faraday's Law: ε = -N(dΦ/dt)</text>
      <text x="20" y="70" class="formula-text">• Lenz Law: Opposition to change</text>
      <text x="20" y="90" class="formula-text">• Self &amp; Mutual inductance</text>
      <text x="20" y="110" class="formula-text">• Energy storage: U = ½Li²</text>
    </g>
    
    <!-- Green Energy Concepts -->
    <g transform="translate(950, 50)">
      <rect x="0" y="0" width="280" height="120" fill="url(#greenBg)" stroke="#10b981" stroke-width="2" rx="5"/>
      <text x="140" y="25" text-anchor="middle" class="label-text" fill="#10b981">Green Energy Systems</text>
      <text x="20" y="50" class="formula-text">• Solar PV: DC generation</text>
      <text x="20" y="70" class="formula-text">• Wind: AC generation</text>
      <text x="20" y="90" class="formula-text">• Energy storage systems</text>
      <text x="20" y="110" class="formula-text">• Grid integration challenges</text>
    </g>
  </g>

  <!-- Industry Impact -->
  <g id="industryImpact" transform="translate(50, 870)">
    <text x="650" y="0" text-anchor="middle" class="subtitle-text">Industry Applications Impact</text>
    <text x="0" y="25" class="formula-text">Manufacturing: Motor drives, power quality, energy efficiency • Healthcare: UPS systems, precision instrumentation</text>
    <text x="0" y="45" class="formula-text">Transportation: EV charging, rail electrification • Buildings: HVAC, lighting, smart systems</text>
    <text x="0" y="65" class="formula-text">Telecommunications: DC power systems, backup power • Renewable Integration: Grid stability, energy storage</text>
  </g>
</svg>