<svg viewBox="0 0 1600 1200" xmlns="http://www.w3.org/2000/svg">>
  <defs>
    <linearGradient id="analogGrad" x1="0%" y1="0%" x2="100%" y2="100%">
      <stop offset="0%" style="stop-color:#e8f5e8;stop-opacity:1" />
      <stop offset="100%" style="stop-color:#f8fff8;stop-opacity:1" />
    </linearGradient>
    <linearGradient id="digitalGrad" x1="0%" y1="0%" x2="100%" y2="100%">>
      <stop offset="0%" style="stop-color:#e8f4fd;stop-opacity:1" />
      <stop offset="100%" style="stop-color:#f8fbff;stop-opacity:1" />
    </linearGradient>
    <linearGradient id="precisionGrad" x1="0%" y1="0%" x2="100%" y2="100%">>
      <stop offset="0%" style="stop-color:#fff8e8;stop-opacity:1" />
      <stop offset="100%" style="stop-color:#fffef8;stop-opacity:1" />
    </linearGradient>
    <linearGradient id="modernGrad" x1="0%" y1="0%" x2="100%" y2="100%">>
      <stop offset="0%" style="stop-color:#f8e8ff;stop-opacity:1" />
      <stop offset="100%" style="stop-color:#fef8ff;stop-opacity:1" />
    </linearGradient>
    <filter id="shadow">>
      <feGaussianBlur in="SourceAlpha" stdDeviation="3"/>
      <feOffset dx="2" dy="2" result="offset" />
      <feFlood flood-color="#cccccc"/>
      <feComposite in2="offset" operator="in"/>
      <feMerge>
        <feMergeNode/>
        <feMergeNode in="SourceGraphic"/>
      </feMerge>
    </filter>>
  </defs>

  <!-- Background -->>
  <rect width="1600" height="1200" fill="#f8f9fa"/>

  <!-- Title -->
  <text x="800" y="30" text-anchor="middle" font-family="Arial, sans-serif" font-size="28" font-weight="bold" fill="#2c3e50">Electrical Measurement Techniques Comparison</text>
  <text x="800" y="55" text-anchor="middle" font-family="Arial, sans-serif" font-size="16" fill="#7f8c8d">>Comprehensive comparison of measurement methods, accuracy, and applications</text>

  <!-- Analog Measurement Techniques -->>
  <g id="analogSection">
    <rect x="50" y="80" width="750" height="220" fill="url(#analogGrad)" stroke="#27ae60" stroke-width="3" rx="15" filter="url(#shadow)"/>
    <text x="425" y="110" text-anchor="middle" font-family="Arial, sans-serif" font-size="20" font-weight="bold" fill="#27ae60">Analog Measurement Techniques</text>

    <!-- Moving Coil -->>
    <g id="movingCoil" transform="translate(80,130)">
      <rect x="0" y="0" width="160" height="140" fill="white" stroke="#27ae60" stroke-width="2" rx="5"/>
      <text x="80" y="20" text-anchor="middle" font-family="Arial, sans-serif" font-size="14" font-weight="bold" fill="#27ae60">Moving Coil (DC)</text>

      <!-- Meter diagram -->>
      <g transform="translate(30,30)">
        <circle cx="50" cy="40" r="35" fill="none" stroke="#2c3e50" stroke-width="2"/>
        <path d="M25,40 A25,25 0 0,1 75,40" fill="none" stroke="#e74c3c" stroke-width="2"/>
        <line x1="50" y1="40" x2="65" y2="25" stroke="#e74c3c" stroke-width="2"/>
        <polygon points="63,23 67,25 65,29" fill="#e74c3c"/>

        <!-- Scale markings -->
        <g stroke="#2c3e50" stroke-width="1">
          <line x1="20" y1="40" x2="25" y2="40"/>
          <line x1="75" y1="40" x2="80" y2="40"/>
          <line x1="30" y1="15" x2="32" y2="18"/>
          <line x1="70" y1="15" x2="68" y2="18"/>
        </g>
        <text x="15" y="45" font-family="Arial, sans-serif" font-size="8" fill="#2c3e50">>0</text>
        <text x="78" y="45" font-family="Arial, sans-serif" font-size="8" fill="#2c3e50">>Max</text>
      </g>>

      <text x="10" y="105" font-family="Arial, sans-serif" font-size="10" font-weight="bold" fill="#2c3e50">Characteristics:</text>
      <text x="10" y="118" font-family="Arial, sans-serif" font-size="9" fill="#2c3e50">>" Accuracy: 2-5%</text>
      <text x="10" y="130" font-family="Arial, sans-serif" font-size="9" fill="#2c3e50">>" DC only</text>
    </g>>

    <!-- Moving Iron -->
    <g id="movingIron" transform="translate(260,130)">
      <rect x="0" y="0" width="160" height="140" fill="white" stroke="#27ae60" stroke-width="2" rx="5"/>
      <text x="80" y="20" text-anchor="middle" font-family="Arial, sans-serif" font-size="14" font-weight="bold" fill="#27ae60">Moving Iron (AC/DC)</text>

      <!-- Meter diagram -->>
      <g transform="translate(30,30)">
        <circle cx="50" cy="40" r="35" fill="none" stroke="#2c3e50" stroke-width="2"/>
        <path d="M25,40 A25,25 0 0,1 75,40" fill="none" stroke="#3498db" stroke-width="2"/>
        <line x1="50" y1="40" x2="35" y2="30" stroke="#3498db" stroke-width="2"/>
        <polygon points="33,28 37,30 35,34" fill="#3498db"/>

        <!-- Iron pieces -->
        <rect x="45" y="50" width="10" height="8" fill="#8b4513" stroke="#654321" stroke-width="1"/>
        <rect x="40" y="58" width="20" height="4" fill="#8b4513" stroke="#654321" stroke-width="1"/>
      </g>

      <text x="10" y="105" font-family="Arial, sans-serif" font-size="10" font-weight="bold" fill="#2c3e50">>Characteristics:</text>
      <text x="10" y="118" font-family="Arial, sans-serif" font-size="9" fill="#2c3e50">>" Accuracy: 1-3%</text>
      <text x="10" y="130" font-family="Arial, sans-serif" font-size="9" fill="#2c3e50">>" AC and DC</text>
    </g>>

    <!-- Electrodynamic -->
    <g id="electrodynamic" transform="translate(440,130)">
      <rect x="0" y="0" width="160" height="140" fill="white" stroke="#27ae60" stroke-width="2" rx="5"/>
      <text x="80" y="20" text-anchor="middle" font-family="Arial, sans-serif" font-size="14" font-weight="bold" fill="#27ae60">Electrodynamic</text>

      <!-- Meter diagram -->>
      <g transform="translate(30,30)">
        <circle cx="50" cy="40" r="35" fill="none" stroke="#2c3e50" stroke-width="2"/>
        <path d="M25,40 A25,25 0 0,1 75,40" fill="none" stroke="#8e44ad" stroke-width="2"/>
        <line x1="50" y1="40" x2="70" y2="30" stroke="#8e44ad" stroke-width="2"/>
        <polygon points="68,28 72,30 70,34" fill="#8e44ad"/>

        <!-- Coils -->
        <circle cx="40" cy="35" r="8" fill="none" stroke="#e67e22" stroke-width="2"/>
        <circle cx="60" cy="45" r="8" fill="none" stroke="#e67e22" stroke-width="2"/>
      </g>

      <text x="10" y="105" font-family="Arial, sans-serif" font-size="10" font-weight="bold" fill="#2c3e50">>Characteristics:</text>
      <text x="10" y="118" font-family="Arial, sans-serif" font-size="9" fill="#2c3e50">>" Accuracy: 0.5-1%</text>
      <text x="10" y="130" font-family="Arial, sans-serif" font-size="9" fill="#2c3e50">>" Power measurement</text>
    </g>>

    <!-- Analog Advantages/Disadvantages -->
    <g id="analogProscons" transform="translate(620,130)">
      <rect x="0" y="0" width="160" height="140" fill="white" stroke="#27ae60" stroke-width="2" rx="5"/>
      <text x="80" y="20" text-anchor="middle" font-family="Arial, sans-serif" font-size="14" font-weight="bold" fill="#27ae60">Pros &amp; Cons</text>

      <text x="10" y="40" font-family="Arial, sans-serif" font-size="10" font-weight="bold" fill="#27ae60">>Advantages:</text>
      <text x="15" y="52" font-family="Arial, sans-serif" font-size="9" fill="#2c3e50">>" No power required</text>
      <text x="15" y="63" font-family="Arial, sans-serif" font-size="9" fill="#2c3e50">>" Continuous indication</text>
      <text x="15" y="74" font-family="Arial, sans-serif" font-size="9" fill="#2c3e50">>" Simple operation</text>

      <text x="10" y="90" font-family="Arial, sans-serif" font-size="10" font-weight="bold" fill="#e74c3c">>Disadvantages:</text>
      <text x="15" y="102" font-family="Arial, sans-serif" font-size="9" fill="#2c3e50">>" Lower accuracy</text>
      <text x="15" y="113" font-family="Arial, sans-serif" font-size="9" fill="#2c3e50">>" Parallax errors</text>
      <text x="15" y="124" font-family="Arial, sans-serif" font-size="9" fill="#2c3e50">>" Limited features</text>
    </g>>
  </g>

  <!-- Digital Measurement Techniques -->>
  <g id="digitalSection">
    <rect x="830" y="80" width="720" height="220" fill="url(#digitalGrad)" stroke="#3498db" stroke-width="3" rx="15" filter="url(#shadow)"/>
    <text x="1190" y="110" text-anchor="middle" font-family="Arial, sans-serif" font-size="20" font-weight="bold" fill="#3498db">Digital Measurement Techniques</text>

    <!-- Digital Multimeter -->>
    <g id="digitalMultimeter" transform="translate(860,130)">
      <rect x="0" y="0" width="160" height="140" fill="white" stroke="#3498db" stroke-width="2" rx="5"/>
      <text x="80" y="20" text-anchor="middle" font-family="Arial, sans-serif" font-size="14" font-weight="bold" fill="#3498db">Digital Multimeter</text>

      <!-- DMM display -->>
      <g transform="translate(20,30)">
        <rect x="0" y="0" width="120" height="50" fill="#2c3e50" stroke="#34495e" stroke-width="2" rx="3"/>
        <rect x="5" y="5" width="110" height="25" fill="#1abc9c" stroke="#16a085" stroke-width="1" rx="2"/>
        <text x="60" y="22" text-anchor="middle" font-family="Arial, sans-serif" font-size="14" font-weight="bold" fill="#2c3e50">12.847 V</text>

        <!-- Function selector -->>
        <circle cx="60" cy="65" r="12" fill="#e74c3c" stroke="#c0392b" stroke-width="2"/>
        <text x="60" y="70" text-anchor="middle" font-family="Arial, sans-serif" font-size="8" fill="white">VDC</text>

        <!-- Test leads -->>
        <circle cx="25" cy="65" r="3" fill="#e74c3c"/>
        <circle cx="35" cy="65" r="3" fill="#2c3e50"/>
        <circle cx="85" cy="65" r="3" fill="#e74c3c"/>
        <circle cx="95" cy="65" r="3" fill="#2c3e50"/>
      </g>

      <text x="10" y="105" font-family="Arial, sans-serif" font-size="10" font-weight="bold" fill="#2c3e50">>Characteristics:</text>
      <text x="10" y="118" font-family="Arial, sans-serif" font-size="9" fill="#2c3e50">>" Accuracy: 0.05-0.5%</text>
      <text x="10" y="130" font-family="Arial, sans-serif" font-size="9" fill="#2c3e50">>" High resolution</text>
    </g>>

    <!-- Oscilloscope -->
    <g id="digitalOscilloscope" transform="translate(1040,130)">
      <rect x="0" y="0" width="160" height="140" fill="white" stroke="#3498db" stroke-width="2" rx="5"/>
      <text x="80" y="20" text-anchor="middle" font-family="Arial, sans-serif" font-size="14" font-weight="bold" fill="#3498db">Digital Oscilloscope</text>

      <!-- Scope display -->>
      <g transform="translate(20,30)">
        <rect x="0" y="0" width="120" height="60" fill="#2c3e50" stroke="#34495e" stroke-width="2" rx="3"/>
        <rect x="5" y="5" width="110" height="50" fill="#1abc9c" stroke="#16a085" stroke-width="1" rx="2"/>

        <!-- Grid -->
        <g stroke="#85c1e9" stroke-width="0.5" opacity="0.7">
          <line x1="15" y1="10" x2="15" y2="50"/>
          <line x1="35" y1="10" x2="35" y2="50"/>
          <line x1="55" y1="10" x2="55" y2="50"/>
          <line x1="75" y1="10" x2="75" y2="50"/>
          <line x1="95" y1="10" x2="95" y2="50"/>
          <line x1="10" y1="15" x2="110" y2="15"/>
          <line x1="10" y1="25" x2="110" y2="25"/>
          <line x1="10" y1="35" x2="110" y2="35"/>
          <line x1="10" y1="45" x2="110" y2="45"/>
        </g>

        <!-- Waveform -->>
        <path d="M10,30 Q20,15 30,30 T50,30 T70,30 T90,30 T110,30" fill="none" stroke="#f39c12" stroke-width="2"/>
      </g>

      <text x="10" y="105" font-family="Arial, sans-serif" font-size="10" font-weight="bold" fill="#2c3e50">>Characteristics:</text>
      <text x="10" y="118" font-family="Arial, sans-serif" font-size="9" fill="#2c3e50">>" High bandwidth</text>
      <text x="10" y="130" font-family="Arial, sans-serif" font-size="9" fill="#2c3e50">>" Storage &amp; analysis</text>
    </g>>

    <!-- Spectrum Analyzer -->
    <g id="spectrumAnalyzer" transform="translate(1220,130)">
      <rect x="0" y="0" width="160" height="140" fill="white" stroke="#3498db" stroke-width="2" rx="5"/>
      <text x="80" y="20" text-anchor="middle" font-family="Arial, sans-serif" font-size="14" font-weight="bold" fill="#3498db">Spectrum Analyzer</text>

      <!-- Spectrum display -->>
      <g transform="translate(20,30)">
        <rect x="0" y="0" width="120" height="60" fill="#2c3e50" stroke="#34495e" stroke-width="2" rx="3"/>
        <rect x="5" y="5" width="110" height="50" fill="#1abc9c" stroke="#16a085" stroke-width="1" rx="2"/>

        <!-- Frequency spectrum -->
        <rect x="15" y="35" width="3" height="15" fill="#f39c12"/>
        <rect x="25" y="25" width="3" height="25" fill="#f39c12"/>
        <rect x="35" y="40" width="3" height="10" fill="#f39c12"/>
        <rect x="45" y="30" width="3" height="20" fill="#f39c12"/>
        <rect x="55" y="45" width="3" height="5" fill="#f39c12"/>
        <rect x="65" y="35" width="3" height="15" fill="#f39c12"/>
        <rect x="75" y="20" width="3" height="30" fill="#f39c12"/>
        <rect x="85" y="40" width="3" height="10" fill="#f39c12"/>
        <rect x="95" y="42" width="3" height="8" fill="#f39c12"/>

        <!-- Axis labels -->
        <text x="10" y="68" font-family="Arial, sans-serif" font-size="6" fill="#ecf0f1">0</text>
        <text x="105" y="68" font-family="Arial, sans-serif" font-size="6" fill="#ecf0f1">>f</text>
      </g>>

      <text x="10" y="105" font-family="Arial, sans-serif" font-size="10" font-weight="bold" fill="#2c3e50">Characteristics:</text>
      <text x="10" y="118" font-family="Arial, sans-serif" font-size="9" fill="#2c3e50">>" Frequency domain</text>
      <text x="10" y="130" font-family="Arial, sans-serif" font-size="9" fill="#2c3e50">>" Harmonic analysis</text>
    </g>>

    <!-- Digital Network Analyzer -->
    <g id="networkAnalyzer" transform="translate(1400,130)">
      <rect x="0" y="0" width="120" height="140" fill="white" stroke="#3498db" stroke-width="2" rx="5"/>
      <text x="60" y="20" text-anchor="middle" font-family="Arial, sans-serif" font-size="12" font-weight="bold" fill="#3498db">Network Analyzer</text>

      <!-- Smith chart display -->>
      <g transform="translate(20,30)">
        <circle cx="40" cy="35" r="30" fill="none" stroke="#8e44ad" stroke-width="1"/>
        <circle cx="40" cy="35" r="15" fill="none" stroke="#8e44ad" stroke-width="0.5"/>
        <line x1="10" y1="35" x2="70" y2="35" stroke="#8e44ad" stroke-width="0.5"/>
        <line x1="40" y1="5" x2="40" y2="65" stroke="#8e44ad" stroke-width="0.5"/>

        <!-- Impedance point -->
        <circle cx="50" cy="25" r="2" fill="#e74c3c"/>
      </g>

      <text x="10" y="105" font-family="Arial, sans-serif" font-size="10" font-weight="bold" fill="#2c3e50">>Characteristics:</text>
      <text x="10" y="118" font-family="Arial, sans-serif" font-size="9" fill="#2c3e50">>" S-parameters</text>
      <text x="10" y="130" font-family="Arial, sans-serif" font-size="9" fill="#2c3e50">>" Impedance</text>
    </g>>
  </g>

  <!-- Precision Measurement Techniques -->>
  <g id="precisionSection">
    <rect x="50" y="320" width="750" height="200" fill="url(#precisionGrad)" stroke="#f39c12" stroke-width="3" rx="15" filter="url(#shadow)"/>
    <text x="425" y="350" text-anchor="middle" font-family="Arial, sans-serif" font-size="20" font-weight="bold" fill="#f39c12">Precision Measurement Techniques</text>

    <!-- Bridge Measurements -->>
    <g id="bridgeMeasurements" transform="translate(80,370)">
      <rect x="0" y="0" width="200" height="120" fill="white" stroke="#f39c12" stroke-width="2" rx="5"/>
      <text x="100" y="20" text-anchor="middle" font-family="Arial, sans-serif" font-size="14" font-weight="bold" fill="#f39c12">Bridge Measurements</text>

      <!-- Wheatstone bridge -->>
      <g transform="translate(50,30)">
        <rect x="30" y="0" width="40" height="15" fill="none" stroke="#2c3e50" stroke-width="1"/>
        <text x="50" y="11" text-anchor="middle" font-family="Arial, sans-serif" font-size="8" fill="#2c3e50">R</text>

        <rect x="75" y="20" width="15" height="40" fill="none" stroke="#2c3e50" stroke-width="1"/>>
        <text x="82" y="45" text-anchor="middle" font-family="Arial, sans-serif" font-size="8" fill="#2c3e50">R</text>

        <rect x="30" y="60" width="40" height="15" fill="none" stroke="#2c3e50" stroke-width="1"/>>
        <text x="50" y="71" text-anchor="middle" font-family="Arial, sans-serif" font-size="8" fill="#2c3e50">R</text>

        <rect x="10" y="20" width="15" height="40" fill="none" stroke="#2c3e50" stroke-width="1"/>>
        <text x="17" y="45" text-anchor="middle" font-family="Arial, sans-serif" font-size="8" fill="#2c3e50">R</text>

        <!-- Connections -->>
        <line x1="50" y1="15" x2="50" y2="20" stroke="#2c3e50" stroke-width="1"/>
        <line x1="50" y1="60" x2="50" y2="55" stroke="#2c3e50" stroke-width="1"/>
        <line x1="30" y1="37" x2="25" y2="37" stroke="#2c3e50" stroke-width="1"/>
        <line x1="70" y1="37" x2="75" y2="37" stroke="#2c3e50" stroke-width="1"/>

        <!-- Galvanometer -->
        <circle cx="50" cy="37" r="8" fill="none" stroke="#e74c3c" stroke-width="1"/>
        <text x="50" y="41" text-anchor="middle" font-family="Arial, sans-serif" font-size="6" fill="#e74c3c">G</text>
      </g>>

      <text x="10" y="85" font-family="Arial, sans-serif" font-size="10" font-weight="bold" fill="#2c3e50">Applications:</text>
      <text x="10" y="98" font-family="Arial, sans-serif" font-size="9" fill="#2c3e50">>" Resistance (Wheatstone)</text>
      <text x="10" y="110" font-family="Arial, sans-serif" font-size="9" fill="#2c3e50">>" Inductance, Capacitance (AC bridges)</text>
    </g>>

    <!-- Potentiometer -->
    <g id="potentiometer" transform="translate(300,370)">
      <rect x="0" y="0" width="200" height="120" fill="white" stroke="#f39c12" stroke-width="2" rx="5"/>
      <text x="100" y="20" text-anchor="middle" font-family="Arial, sans-serif" font-size="14" font-weight="bold" fill="#f39c12">Potentiometer</text>

      <!-- Potentiometer circuit -->>
      <g transform="translate(30,30)">
        <!-- Standard cell -->
        <rect x="0" y="0" width="30" height="15" fill="none" stroke="#27ae60" stroke-width="2"/>
        <text x="15" y="11" text-anchor="middle" font-family="Arial, sans-serif" font-size="7" fill="#27ae60">Es</text>

        <!-- Working battery -->>
        <rect x="0" y="45" width="30" height="15" fill="none" stroke="#e74c3c" stroke-width="2"/>
        <text x="15" y="56" text-anchor="middle" font-family="Arial, sans-serif" font-size="7" fill="#e74c3c">Ew</text>

        <!-- Slide wire -->>
        <rect x="60" y="20" width="80" height="8" fill="#95a5a6" stroke="#7f8c8d" stroke-width="1"/>
        <text x="100" y="16" text-anchor="middle" font-family="Arial, sans-serif" font-size="8" fill="#2c3e50">Slide Wire</text>

        <!-- Slider -->>
        <rect x="95" y="15" width="4" height="18" fill="#e74c3c" stroke="#c0392b" stroke-width="1"/>

        <!-- Galvanometer -->
        <circle cx="100" cy="40" r="8" fill="none" stroke="#2c3e50" stroke-width="1"/>
        <text x="100" y="44" text-anchor="middle" font-family="Arial, sans-serif" font-size="6" fill="#2c3e50">G</text>

        <!-- Connections -->>
        <line x1="30" y1="7" x2="97" y2="20" stroke="#2c3e50" stroke-width="1"/>
        <line x1="97" y1="32" x2="97" y2="28" stroke="#2c3e50" stroke-width="1"/>
        <line x1="60" y1="24" x2="30" y2="53" stroke="#2c3e50" stroke-width="1"/>
      </g>

      <text x="10" y="85" font-family="Arial, sans-serif" font-size="10" font-weight="bold" fill="#2c3e50">>Characteristics:</text>
      <text x="10" y="98" font-family="Arial, sans-serif" font-size="9" fill="#2c3e50">>" Accuracy: 0.01%</text>
      <text x="10" y="110" font-family="Arial, sans-serif" font-size="9" fill="#2c3e50">>" No current drawn</text>
    </g>>

    <!-- Calibration Standards -->
    <g id="calibrationStandards" transform="translate(520,370)">
      <rect x="0" y="0" width="200" height="120" fill="white" stroke="#f39c12" stroke-width="2" rx="5"/>
      <text x="100" y="20" text-anchor="middle" font-family="Arial, sans-serif" font-size="14" font-weight="bold" fill="#f39c12">Calibration Standards</text>

      <!-- Standards list -->>
      <g transform="translate(10,35)">
        <text x="0" y="15" font-family="Arial, sans-serif" font-size="11" font-weight="bold" fill="#2c3e50">Primary Standards:</text>
        <text x="5" y="28" font-family="Arial, sans-serif" font-size="9" fill="#2c3e50">>" Josephson voltage standard</text>
        <text x="5" y="40" font-family="Arial, sans-serif" font-size="9" fill="#2c3e50">>" Quantum Hall resistance</text>
        <text x="5" y="52" font-family="Arial, sans-serif" font-size="9" fill="#2c3e50">>" Cesium atomic clock</text>

        <text x="0" y="70" font-family="Arial, sans-serif" font-size="11" font-weight="bold" fill="#2c3e50">>Working Standards:</text>
        <text x="5" y="83" font-family="Arial, sans-serif" font-size="9" fill="#2c3e50">>" Zener voltage references</text>
        <text x="5" y="95" font-family="Arial, sans-serif" font-size="9" fill="#2c3e50">>" Precision resistors</text>
      </g>>
    </g>
  </g>>

  <!-- Modern Measurement Techniques -->
  <g id="modernSection">
    <rect x="830" y="320" width="720" height="200" fill="url(#modernGrad)" stroke="#8e44ad" stroke-width="3" rx="15" filter="url(#shadow)"/>
    <text x="1190" y="350" text-anchor="middle" font-family="Arial, sans-serif" font-size="20" font-weight="bold" fill="#8e44ad">Modern Measurement Techniques</text>

    <!-- Data Acquisition Systems -->>
    <g id="dataAcquisition" transform="translate(860,370)">
      <rect x="0" y="0" width="200" height="120" fill="white" stroke="#8e44ad" stroke-width="2" rx="5"/>
      <text x="100" y="20" text-anchor="middle" font-family="Arial, sans-serif" font-size="14" font-weight="bold" fill="#8e44ad">Data Acquisition</text>

      <!-- DAQ system diagram -->>
      <g transform="translate(20,30)">
        <!-- Sensor -->
        <rect x="0" y="15" width="25" height="20" fill="#27ae60" stroke="#229954" stroke-width="1" rx="2"/>
        <text x="12" y="28" text-anchor="middle" font-family="Arial, sans-serif" font-size="7" fill="white">Sensor</text>

        <!-- Signal conditioning -->>
        <rect x="40" y="15" width="25" height="20" fill="#f39c12" stroke="#e67e22" stroke-width="1" rx="2"/>
        <text x="52" y="25" text-anchor="middle" font-family="Arial, sans-serif" font-size="6" fill="white">Cond.</text>
        <text x="52" y="32" text-anchor="middle" font-family="Arial, sans-serif" font-size="6" fill="white">>Amp.</text>

        <!-- ADC -->>
        <rect x="80" y="15" width="25" height="20" fill="#e74c3c" stroke="#c0392b" stroke-width="1" rx="2"/>
        <text x="92" y="28" text-anchor="middle" font-family="Arial, sans-serif" font-size="7" fill="white">ADC</text>

        <!-- Computer -->>
        <rect x="120" y="10" width="35" height="30" fill="#3498db" stroke="#2980b9" stroke-width="1" rx="2"/>
        <rect x="125" y="15" width="25" height="15" fill="#2c3e50" stroke="#34495e" stroke-width="1"/>
        <text x="137" y="48" text-anchor="middle" font-family="Arial, sans-serif" font-size="7" fill="#2c3e50">Computer</text>

        <!-- Arrows -->>
        <polygon points="28,25 33,22 33,28" fill="#2c3e50"/>
        <polygon points="68,25 73,22 73,28" fill="#2c3e50"/>
        <polygon points="108,25 113,22 113,28" fill="#2c3e50"/>

        <!-- Labels -->
        <text x="30" y="10" text-anchor="middle" font-family="Arial, sans-serif" font-size="6" fill="#2c3e50">Analog</text>
        <text x="92" y="50" text-anchor="middle" font-family="Arial, sans-serif" font-size="6" fill="#2c3e50">>Digital</text>
      </g>>

      <text x="10" y="85" font-family="Arial, sans-serif" font-size="10" font-weight="bold" fill="#2c3e50">Features:</text>
      <text x="10" y="98" font-family="Arial, sans-serif" font-size="9" fill="#2c3e50">>" Multi-channel sampling</text>
      <text x="10" y="110" font-family="Arial, sans-serif" font-size="9" fill="#2c3e50">>" Real-time processing</text>
    </g>>

    <!-- Smart Sensors -->
    <g id="smartSensors" transform="translate(1080,370)">
      <rect x="0" y="0" width="200" height="120" fill="white" stroke="#8e44ad" stroke-width="2" rx="5"/>
      <text x="100" y="20" text-anchor="middle" font-family="Arial, sans-serif" font-size="14" font-weight="bold" fill="#8e44ad">Smart Sensors</text>

      <!-- Smart sensor block -->>
      <g transform="translate(40,30)">
        <rect x="0" y="0" width="120" height="60" fill="#ecf0f1" stroke="#bdc3c7" stroke-width="2" rx="5"/>

        <!-- Sensing element -->
        <rect x="10" y="10" width="25" height="15" fill="#27ae60" stroke="#229954" stroke-width="1"/>
        <text x="22" y="20" text-anchor="middle" font-family="Arial, sans-serif" font-size="7" fill="white">Sensor</text>

        <!-- Microprocessor -->>
        <rect x="50" y="10" width="25" height="15" fill="#3498db" stroke="#2980b9" stroke-width="1"/>
        <text x="62" y="20" text-anchor="middle" font-family="Arial, sans-serif" font-size="7" fill="white">P</text>

        <!-- Memory -->>
        <rect x="85" y="10" width="25" height="15" fill="#8e44ad" stroke="#7d3c98" stroke-width="1"/>
        <text x="97" y="20" text-anchor="middle" font-family="Arial, sans-serif" font-size="7" fill="white">Mem</text>

        <!-- Communication -->>
        <rect x="30" y="35" width="60" height="15" fill="#e67e22" stroke="#d35400" stroke-width="1"/>
        <text x="60" y="45" text-anchor="middle" font-family="Arial, sans-serif" font-size="7" fill="white">Communication</text>
      </g>>

      <text x="10" y="105" font-family="Arial, sans-serif" font-size="10" font-weight="bold" fill="#2c3e50">Capabilities:</text>
      <text x="10" y="118" font-family="Arial, sans-serif" font-size="8" fill="#2c3e50">>" Self-calibration, diagnostics, networking</text>
    </g>>

    <!-- Virtual Instrumentation -->
    <g id="virtualInstrumentation" transform="translate(1300,370)">
      <rect x="0" y="0" width="200" height="120" fill="white" stroke="#8e44ad" stroke-width="2" rx="5"/>
      <text x="100" y="20" text-anchor="middle" font-family="Arial, sans-serif" font-size="14" font-weight="bold" fill="#8e44ad">Virtual Instruments</text>

      <!-- VI concept -->>
      <g transform="translate(30,30)">
        <!-- Hardware -->
        <rect x="0" y="25" width="40" height="20" fill="#95a5a6" stroke="#7f8c8d" stroke-width="1"/>
        <text x="20" y="38" text-anchor="middle" font-family="Arial, sans-serif" font-size="8" fill="white">Hardware</text>

        <!-- Plus sign -->>
        <text x="50" y="38" text-anchor="middle" font-family="Arial, sans-serif" font-size="12" fill="#2c3e50">+</text>

        <!-- Software -->>
        <rect x="60" y="25" width="40" height="20" fill="#3498db" stroke="#2980b9" stroke-width="1"/>
        <text x="80" y="38" text-anchor="middle" font-family="Arial, sans-serif" font-size="8" fill="white">Software</text>

        <!-- Equals -->>
        <text x="110" y="38" text-anchor="middle" font-family="Arial, sans-serif" font-size="12" fill="#2c3e50">=</text>

        <!-- Virtual instrument -->>
        <rect x="120" y="20" width="50" height="30" fill="#e74c3c" stroke="#c0392b" stroke-width="2"/>
        <text x="145" y="32" text-anchor="middle" font-family="Arial, sans-serif" font-size="7" fill="white">Virtual</text>
        <text x="145" y="42" text-anchor="middle" font-family="Arial, sans-serif" font-size="7" fill="white">>Instrument</text>
      </g>>

      <text x="10" y="85" font-family="Arial, sans-serif" font-size="10" font-weight="bold" fill="#2c3e50">Advantages:</text>
      <text x="10" y="98" font-family="Arial, sans-serif" font-size="9" fill="#2c3e50">>" Flexible, upgradeable</text>
      <text x="10" y="110" font-family="Arial, sans-serif" font-size="9" fill="#2c3e50">>" Cost-effective</text>
    </g>>
  </g>

  <!-- Accuracy Comparison Chart -->>
  <g id="accuracyChart">
    <rect x="50" y="540" width="1500" height="200" fill="#f4f6f6" stroke="#85929e" stroke-width="2" rx="10"/>
    <text x="800" y="570" text-anchor="middle" font-family="Arial, sans-serif" font-size="18" font-weight="bold" fill="#5d6d7e">Accuracy and Application Comparison</text>

    <!-- Chart axes -->>
    <g transform="translate(100,590)">
      <!-- Y-axis (Accuracy) -->
      <line x1="0" y1="0" x2="0" y2="120" stroke="#2c3e50" stroke-width="2"/>
      <text x="-15" y="-10" font-family="Arial, sans-serif" font-size="12" font-weight="bold" fill="#2c3e50">Accuracy (%)</text>

      <!-- Accuracy scale -->>
      <g font-family="Arial, sans-serif" font-size="10" fill="#2c3e50">
        <line x1="-5" y1="0" x2="0" y2="0" stroke="#2c3e50" stroke-width="1"/>
        <text x="-25" y="5">5</text>

        <line x1="-5" y1="30" x2="0" y2="30" stroke="#2c3e50" stroke-width="1"/>>
        <text x="-25" y="35">1</text>

        <line x1="-5" y1="60" x2="0" y2="60" stroke="#2c3e50" stroke-width="1"/>>
        <text x="-25" y="65">0.1</text>

        <line x1="-5" y1="90" x2="0" y2="90" stroke="#2c3e50" stroke-width="1"/>>
        <text x="-35" y="95">0.01</text>

        <line x1="-5" y1="120" x2="0" y2="120" stroke="#2c3e50" stroke-width="1"/>>
        <text x="-45" y="125">0.001</text>
      </g>>

      <!-- X-axis (Applications) -->
      <line x1="0" y1="120" x2="1300" y2="120" stroke="#2c3e50" stroke-width="2"/>
      <text x="650" y="150" text-anchor="middle" font-family="Arial, sans-serif" font-size="12" font-weight="bold" fill="#2c3e50">Measurement Techniques</text>

      <!-- Technique bars -->>
      <!-- Moving Coil -->
      <rect x="50" y="120" width="80" height="-15" fill="#27ae60" stroke="#229954" stroke-width="1"/>
      <text x="90" y="140" text-anchor="middle" font-family="Arial, sans-serif" font-size="9" fill="#2c3e50">Moving Coil</text>
      <text x="90" y="100" text-anchor="middle" font-family="Arial, sans-serif" font-size="8" fill="#27ae60">>2-5%</text>

      <!-- Moving Iron -->>
      <rect x="150" y="120" width="80" height="-20" fill="#27ae60" stroke="#229954" stroke-width="1"/>
      <text x="190" y="140" text-anchor="middle" font-family="Arial, sans-serif" font-size="9" fill="#2c3e50">Moving Iron</text>
      <text x="190" y="95" text-anchor="middle" font-family="Arial, sans-serif" font-size="8" fill="#27ae60">>1-3%</text>

      <!-- Digital Multimeter -->>
      <rect x="250" y="120" width="80" height="-45" fill="#3498db" stroke="#2980b9" stroke-width="1"/>
      <text x="290" y="140" text-anchor="middle" font-family="Arial, sans-serif" font-size="9" fill="#2c3e50">Digital DMM</text>
      <text x="290" y="70" text-anchor="middle" font-family="Arial, sans-serif" font-size="8" fill="#3498db">>0.05-0.5%</text>

      <!-- Electrodynamic -->>
      <rect x="350" y="120" width="80" height="-35" fill="#27ae60" stroke="#229954" stroke-width="1"/>
      <text x="390" y="140" text-anchor="middle" font-family="Arial, sans-serif" font-size="9" fill="#2c3e50">Electrodynamic</text>
      <text x="390" y="80" text-anchor="middle" font-family="Arial, sans-serif" font-size="8" fill="#27ae60">>0.5-1%</text>

      <!-- Bridge Methods -->>
      <rect x="450" y="120" width="80" height="-55" fill="#f39c12" stroke="#e67e22" stroke-width="1"/>
      <text x="490" y="140" text-anchor="middle" font-family="Arial, sans-serif" font-size="9" fill="#2c3e50">AC Bridges</text>
      <text x="490" y="60" text-anchor="middle" font-family="Arial, sans-serif" font-size="8" fill="#f39c12">>0.02-0.1%</text>

      <!-- Potentiometer -->>
      <rect x="550" y="120" width="80" height="-90" fill="#f39c12" stroke="#e67e22" stroke-width="1"/>
      <text x="590" y="140" text-anchor="middle" font-family="Arial, sans-serif" font-size="9" fill="#2c3e50">Potentiometer</text>
      <text x="590" y="25" text-anchor="middle" font-family="Arial, sans-serif" font-size="8" fill="#f39c12">>0.01%</text>

      <!-- Precision DMM -->>
      <rect x="650" y="120" width="80" height="-75" fill="#3498db" stroke="#2980b9" stroke-width="1"/>
      <text x="690" y="140" text-anchor="middle" font-family="Arial, sans-serif" font-size="9" fill="#2c3e50">Precision DMM</text>
      <text x="690" y="40" text-anchor="middle" font-family="Arial, sans-serif" font-size="8" fill="#3498db">>0.002%</text>

      <!-- Calibrators -->>
      <rect x="750" y="120" width="80" height="-110" fill="#8e44ad" stroke="#7d3c98" stroke-width="1"/>
      <text x="790" y="140" text-anchor="middle" font-family="Arial, sans-serif" font-size="9" fill="#2c3e50">Calibrators</text>
      <text x="790" y="5" text-anchor="middle" font-family="Arial, sans-serif" font-size="8" fill="#8e44ad">>0.001%</text>

      <!-- Cost indicators -->>
      <g transform="translate(900,0)">
        <text x="0" y="10" font-family="Arial, sans-serif" font-size="12" font-weight="bold" fill="#e74c3c">Cost vs Accuracy Trade-off</text>

        <!-- Low cost -->>
        <circle cx="20" cy="25" r="8" fill="#2ecc71"/>
        <text x="35" y="30" font-family="Arial, sans-serif" font-size="10" fill="#2c3e50">Low Cost</text>

        <!-- Medium cost -->>
        <circle cx="20" cy="45" r="8" fill="#f39c12"/>
        <text x="35" y="50" font-family="Arial, sans-serif" font-size="10" fill="#2c3e50">Medium Cost</text>

        <!-- High cost -->>
        <circle cx="20" cy="65" r="8" fill="#e74c3c"/>
        <text x="35" y="70" font-family="Arial, sans-serif" font-size="10" fill="#2c3e50">High Cost</text>

        <!-- Cost indicators on bars -->>
        <circle cx="-810" cy="112" r="5" fill="#2ecc71"/>  <!-- Moving Coil -->
        <circle cx="-710" cy="110" r="5" fill="#2ecc71"/>  <!-- Moving Iron -->
        <circle cx="-610" cy="105" r="5" fill="#f39c12"/>  <!-- Digital DMM -->
        <circle cx="-510" cy="107" r="5" fill="#f39c12"/>  <!-- Electrodynamic -->
        <circle cx="-410" cy="102" r="5" fill="#e74c3c"/>  <!-- Bridges -->
        <circle cx="-310" cy="95" r="5" fill="#e74c3c"/>   <!-- Potentiometer -->
        <circle cx="-210" cy="97" r="5" fill="#e74c3c"/>   <!-- Precision DMM -->
        <circle cx="-110" cy="90" r="5" fill="#e74c3c"/>   <!-- Calibrators -->
      </g>
    </g>>
  </g>

  <!-- Application Matrix -->>
  <g id="applicationMatrix">
    <rect x="50" y="760" width="1500" height="180" fill="#e8f6f3" stroke="#1abc9c" stroke-width="2" rx="10"/>
    <text x="800" y="790" text-anchor="middle" font-family="Arial, sans-serif" font-size="18" font-weight="bold" fill="#16a085">Measurement Technique Application Matrix</text>

    <!-- Matrix headers -->>
    <g transform="translate(100,810)">
      <!-- Technique names -->
      <text x="0" y="0" font-family="Arial, sans-serif" font-size="10" font-weight="bold" fill="#2c3e50">Technique</text>
      <text x="150" y="0" font-family="Arial, sans-serif" font-size="10" font-weight="bold" fill="#2c3e50">>Voltage</text>
      <text x="220" y="0" font-family="Arial, sans-serif" font-size="10" font-weight="bold" fill="#2c3e50">>Current</text>
      <text x="290" y="0" font-family="Arial, sans-serif" font-size="10" font-weight="bold" fill="#2c3e50">>Resistance</text>
      <text x="370" y="0" font-family="Arial, sans-serif" font-size="10" font-weight="bold" fill="#2c3e50">>Power</text>
      <text x="430" y="0" font-family="Arial, sans-serif" font-size="10" font-weight="bold" fill="#2c3e50">>Frequency</text>
      <text x="510" y="0" font-family="Arial, sans-serif" font-size="10" font-weight="bold" fill="#2c3e50">>Phase</text>
      <text x="570" y="0" font-family="Arial, sans-serif" font-size="10" font-weight="bold" fill="#2c3e50">>Impedance</text>
      <text x="650" y="0" font-family="Arial, sans-serif" font-size="10" font-weight="bold" fill="#2c3e50">>Quality</text>
      <text x="720" y="0" font-family="Arial, sans-serif" font-size="10" font-weight="bold" fill="#2c3e50">>Cost</text>

      <!-- Matrix rows -->>
      <g font-family="Arial, sans-serif" font-size="9" fill="#2c3e50">
        <!-- Moving Coil -->
        <text x="0" y="20" font-weight="bold">Moving Coil</text>
        <text x="150" y="20" fill="#27ae60">>Excellent</text>
        <text x="220" y="20" fill="#27ae60">>Excellent</text>
        <text x="290" y="20" fill="#e74c3c">>Poor</text>
        <text x="370" y="20" fill="#e74c3c">>No</text>
        <text x="430" y="20" fill="#e74c3c">>No</text>
        <text x="510" y="20" fill="#e74c3c">>No</text>
        <text x="570" y="20" fill="#e74c3c">>No</text>
        <text x="650" y="20" fill="#f39c12">>Fair</text>
        <text x="720" y="20" fill="#27ae60">>Low</text>

        <!-- Digital Multimeter -->>
        <text x="0" y="40" font-weight="bold">Digital DMM</text>
        <text x="150" y="40" fill="#27ae60">>Excellent</text>
        <text x="220" y="40" fill="#27ae60">>Excellent</text>
        <text x="290" y="40" fill="#27ae60">>Excellent</text>
        <text x="370" y="40" fill="#f39c12">>Limited</text>
        <text x="430" y="40" fill="#27ae60">>Good</text>
        <text x="510" y="40" fill="#e74c3c">>No</text>
        <text x="570" y="40" fill="#f39c12">>Limited</text>
        <text x="650" y="40" fill="#27ae60">>High</text>
        <text x="720" y="40" fill="#f39c12">>Medium</text>

        <!-- Oscilloscope -->>
        <text x="0" y="60" font-weight="bold">Oscilloscope</text>
        <text x="150" y="60" fill="#27ae60">>Excellent</text>
        <text x="220" y="60" fill="#f39c12">>Good</text>
        <text x="290" y="60" fill="#e74c3c">>Poor</text>
        <text x="370" y="60" fill="#f39c12">>Good</text>
        <text x="430" y="60" fill="#27ae60">>Excellent</text>
        <text x="510" y="60" fill="#27ae60">>Excellent</text>
        <text x="570" y="60" fill="#f39c12">>Good</text>
        <text x="650" y="60" fill="#27ae60">>High</text>
        <text x="720" y="60" fill="#e74c3c">>High</text>

        <!-- AC Bridges -->>
        <text x="0" y="80" font-weight="bold">AC Bridges</text>
        <text x="150" y="80" fill="#f39c12">>Good</text>
        <text x="220" y="80" fill="#f39c12">>Good</text>
        <text x="290" y="80" fill="#27ae60">>Excellent</text>
        <text x="370" y="80" fill="#e74c3c">>No</text>
        <text x="430" y="80" fill="#f39c12">>Limited</text>
        <text x="510" y="80" fill="#f39c12">>Good</text>
        <text x="570" y="80" fill="#27ae60">>Excellent</text>
        <text x="650" y="80" fill="#27ae60">>High</text>
        <text x="720" y="80" fill="#e74c3c">>High</text>

        <!-- Spectrum Analyzer -->>
        <text x="0" y="100" font-weight="bold">Spectrum Analyzer</text>
        <text x="150" y="100" fill="#f39c12">>Good</text>
        <text x="220" y="100" fill="#e74c3c">>Poor</text>
        <text x="290" y="100" fill="#e74c3c">>No</text>
        <text x="370" y="100" fill="#27ae60">>Excellent</text>
        <text x="430" y="100" fill="#27ae60">>Excellent</text>
        <text x="510" y="100" fill="#27ae60">>Excellent</text>
        <text x="570" y="100" fill="#f39c12">>Good</text>
        <text x="650" y="100" fill="#27ae60">>High</text>
        <text x="720" y="100" fill="#e74c3c">>High</text>

        <!-- Network Analyzer -->>
        <text x="0" y="120" font-weight="bold">Network Analyzer</text>
        <text x="150" y="120" fill="#f39c12">>Good</text>
        <text x="220" y="120" fill="#f39c12">>Good</text>
        <text x="290" y="120" fill="#f39c12">>Good</text>
        <text x="370" y="120" fill="#27ae60">>Excellent</text>
        <text x="430" y="120" fill="#27ae60">>Excellent</text>
        <text x="510" y="120" fill="#27ae60">>Excellent</text>
        <text x="570" y="120" fill="#27ae60">>Excellent</text>
        <text x="650" y="120" fill="#27ae60">>High</text>
        <text x="720" y="120" fill="#e74c3c">>Very High</text>
      </g>>
    </g>

    <!-- Legend for quality indicators -->>
    <g transform="translate(1100,810)">
      <text x="0" y="0" font-family="Arial, sans-serif" font-size="10" font-weight="bold" fill="#2c3e50">Legend:</text>
      <rect x="0" y="10" width="15" height="10" fill="#27ae60"/>>
      <text x="20" y="19" font-family="Arial, sans-serif" font-size="9" fill="#2c3e50">Excellent/Good/Low</text>
      <rect x="0" y="25" width="15" height="10" fill="#f39c12"/>>
      <text x="20" y="34" font-family="Arial, sans-serif" font-size="9" fill="#2c3e50">Fair/Limited/Medium</text>
      <rect x="0" y="40" width="15" height="10" fill="#e74c3c"/>>
      <text x="20" y="49" font-family="Arial, sans-serif" font-size="9" fill="#2c3e50">Poor/No/High</text>
    </g>>
  </g>

  <!-- Selection Guidelines -->>
  <g id="selectionGuidelines">
    <rect x="50" y="960" width="1500" height="200" fill="#fef9e7" stroke="#f4d03f" stroke-width="2" rx="10"/>
    <text x="800" y="990" text-anchor="middle" font-family="Arial, sans-serif" font-size="18" font-weight="bold" fill="#b7950b">Measurement Technique Selection Guidelines</text>

    <g transform="translate(80,1010)">>
      <!-- Column 1: Basic Measurements -->
      <g>
        <text x="0" y="20" font-family="Arial, sans-serif" font-size="14" font-weight="bold" fill="#b7950b">Basic DC/AC Measurements</text>
        <text x="0" y="40" font-family="Arial, sans-serif" font-size="11" font-weight="bold" fill="#2c3e50">>For routine measurements:</text>
        <text x="5" y="55" font-family="Arial, sans-serif" font-size="10" fill="#2c3e50">>" Digital multimeter (0.1-0.5%)</text>
        <text x="5" y="70" font-family="Arial, sans-serif" font-size="10" fill="#2c3e50">>" Cost-effective, versatile</text>
        <text x="5" y="85" font-family="Arial, sans-serif" font-size="10" fill="#2c3e50">>" Suitable for most applications</text>

        <text x="0" y="110" font-family="Arial, sans-serif" font-size="11" font-weight="bold" fill="#2c3e50">>For portable applications:</text>
        <text x="5" y="125" font-family="Arial, sans-serif" font-size="10" fill="#2c3e50">>" Analog meters (2-5%)</text>
        <text x="5" y="140" font-family="Arial, sans-serif" font-size="10" fill="#2c3e50">>" No power required</text>
        <text x="5" y="155" font-family="Arial, sans-serif" font-size="10" fill="#2c3e50">>" Trending indication</text>
      </g>>

      <!-- Column 2: Precision Measurements -->
      <g transform="translate(350,0)">
        <text x="0" y="20" font-family="Arial, sans-serif" font-size="14" font-weight="bold" fill="#b7950b">Precision Measurements</text>
        <text x="0" y="40" font-family="Arial, sans-serif" font-size="11" font-weight="bold" fill="#2c3e50">>For calibration labs:</text>
        <text x="5" y="55" font-family="Arial, sans-serif" font-size="10" fill="#2c3e50">>" Precision multimeters (0.002%)</text>
        <text x="5" y="70" font-family="Arial, sans-serif" font-size="10" fill="#2c3e50">>" Potentiometer methods</text>
        <text x="5" y="85" font-family="Arial, sans-serif" font-size="10" fill="#2c3e50">>" Primary/secondary standards</text>

        <text x="0" y="110" font-family="Arial, sans-serif" font-size="11" font-weight="bold" fill="#2c3e50">>For R, L, C measurements:</text>
        <text x="5" y="125" font-family="Arial, sans-serif" font-size="10" fill="#2c3e50">>" AC bridge methods</text>
        <text x="5" y="140" font-family="Arial, sans-serif" font-size="10" fill="#2c3e50">>" LCR meters</text>
        <text x="5" y="155" font-family="Arial, sans-serif" font-size="10" fill="#2c3e50">>" Network analyzers</text>
      </g>>

      <!-- Column 3: Dynamic Measurements -->
      <g transform="translate(700,0)">
        <text x="0" y="20" font-family="Arial, sans-serif" font-size="14" font-weight="bold" fill="#b7950b">Dynamic Measurements</text>
        <text x="0" y="40" font-family="Arial, sans-serif" font-size="11" font-weight="bold" fill="#2c3e50">>For waveform analysis:</text>
        <text x="5" y="55" font-family="Arial, sans-serif" font-size="10" fill="#2c3e50">>" Digital oscilloscope</text>
        <text x="5" y="70" font-family="Arial, sans-serif" font-size="10" fill="#2c3e50">>" Time domain analysis</text>
        <text x="5" y="85" font-family="Arial, sans-serif" font-size="10" fill="#2c3e50">>" Transient capture</text>

        <text x="0" y="110" font-family="Arial, sans-serif" font-size="11" font-weight="bold" fill="#2c3e50">>For frequency analysis:</text>
        <text x="5" y="125" font-family="Arial, sans-serif" font-size="10" fill="#2c3e50">>" Spectrum analyzer</text>
        <text x="5" y="140" font-family="Arial, sans-serif" font-size="10" fill="#2c3e50">>" FFT analysis</text>
        <text x="5" y="155" font-family="Arial, sans-serif" font-size="10" fill="#2c3e50">>" Harmonic distortion</text>
      </g>>

      <!-- Column 4: System Integration -->
      <g transform="translate(1050,0)">
        <text x="0" y="20" font-family="Arial, sans-serif" font-size="14" font-weight="bold" fill="#b7950b">System Integration</text>
        <text x="0" y="40" font-family="Arial, sans-serif" font-size="11" font-weight="bold" fill="#2c3e50">>For automated testing:</text>
        <text x="5" y="55" font-family="Arial, sans-serif" font-size="10" fill="#2c3e50">>" Data acquisition systems</text>
        <text x="5" y="70" font-family="Arial, sans-serif" font-size="10" fill="#2c3e50">>" Virtual instrumentation</text>
        <text x="5" y="85" font-family="Arial, sans-serif" font-size="10" fill="#2c3e50">>" Computer control</text>

        <text x="0" y="110" font-family="Arial, sans-serif" font-size="11" font-weight="bold" fill="#2c3e50">>For industrial monitoring:</text>
        <text x="5" y="125" font-family="Arial, sans-serif" font-size="10" fill="#2c3e50">>" Smart sensors</text>
        <text x="5" y="140" font-family="Arial, sans-serif" font-size="10" fill="#2c3e50">>" Wireless networks</text>
        <text x="5" y="155" font-family="Arial, sans-serif" font-size="10" fill="#2c3e50">>" Real-time monitoring</text>
      </g>>
    </g>
  </g>>

  <!-- Footer -->
  <text x="800" y="1185" text-anchor="middle" font-family="Arial, sans-serif" font-size="10" fill="#7f8c8d">Choose measurement techniques based on required accuracy, frequency range, cost constraints, and application requirements.</text>

</svg>