<?xml version="1.0" encoding="UTF-8" standalone="no"?>
<svg xmlns="http://www.w3.org/2000/svg" width="1400" height="1200" viewBox="0 0 1400 1200">
  <title>Electronic Circuits &amp; Networks - Unit III: AC Circuit Analysis</title>
  <desc>
    Comprehensive diagram covering AC circuit analysis fundamentals including
    sinusoidal waveforms, phasor representation, impedance concepts, and power analysis.
    Course: 4331101 Electronic Circuits &amp; Networks — Unit-III
  </desc>
  <defs>
    <style type="text/css"><![CDATA[
      .title { font: bold 24px Arial, sans-serif; fill: #2c3e50; text-anchor: middle; }
      .subtitle { font: bold 18px Arial, sans-serif; fill: #34495e; text-anchor: middle; }
      .section-title { font: bold 16px Arial, sans-serif; fill: #e74c3c; text-anchor: middle; }
      .subsection-title { font: bold 14px Arial, sans-serif; fill: #2980b9; text-anchor: middle; }
      .label-text { font: 12px Arial, sans-serif; fill: #2c3e50; }
      .formula-text { font: 12px Courier, monospace; fill: #8e44ad; font-weight: bold; }
      .value-text { font: 11px Arial, sans-serif; fill: #27ae60; font-weight: bold; }
      .description-text { font: 10px Arial, sans-serif; fill: #7f8c8d; }
      .circuit-line { stroke: #2c3e50; stroke-width: 2; fill: none; }
      .thick-line { stroke: #2c3e50; stroke-width: 3; fill: none; }
      .ac-source-fill { fill: #fff3cd; stroke: #ffc107; stroke-width: 2; }
      .resistor-fill { fill: #ffebee; stroke: #f44336; stroke-width: 2; }
      .inductor-fill { fill: #e8f5e8; stroke: #4caf50; stroke-width: 2; }
      .capacitor-fill { fill: #e3f2fd; stroke: #2196f3; stroke-width: 2; }
      .phasor-fill { fill: #f3e5f5; stroke: #9c27b0; stroke-width: 2; }
      .waveform-fill { fill: #fce4ec; stroke: #e91e63; stroke-width: 2; }
      .sine-wave { stroke: #e91e63; stroke-width: 3; fill: none; }
      .cosine-wave { stroke: #2196f3; stroke-width: 2; fill: none; }
      .phase-arrow { stroke: #9c27b0; stroke-width: 2; fill: #9c27b0; }
      .grid-line { stroke: #ecf0f1; stroke-width: 1; }
      .axis-line { stroke: #34495e; stroke-width: 2; }
    ]]></style>

    <!-- Arrowhead marker -->
    <marker id="arrowhead" markerWidth="10" markerHeight="7" refX="9" refY="3.5" orient="auto">
      <polygon points="0 0, 10 3.5, 0 7" fill="#2c3e50"/>
    </marker>

    <!-- Phase arrow marker -->
    <marker id="phase-arrow" markerWidth="8" markerHeight="6" refX="7" refY="3" orient="auto">
      <polygon points="0 0, 8 3, 0 6" fill="#9c27b0"/>
    </marker>
  </defs>

  <!-- Title -->
  <text x="700" y="30" class="title">AC Circuit Analysis</text>
  <text x="700" y="55" class="subtitle">Sinusoidal Analysis, Phasors, and Impedance</text>

  <!-- SINUSOIDAL WAVEFORMS SECTION -->
  <text x="350" y="90" class="section-title">SINUSOIDAL WAVEFORMS AND REPRESENTATION</text>

  <rect x="50" y="110" width="600" height="180" class="waveform-fill" rx="10"/>
  <text x="350" y="135" class="subsection-title">Sinusoidal Voltage and Current</text>

  <!-- Coordinate system for sine wave -->
  <g transform="translate(80, 180)">
    <!-- Grid lines -->
    <line x1="0" y1="0" x2="540" y2="0" class="axis-line" marker-end="url(#arrowhead)"/>
    <line x1="0" y1="0" x2="0" y2="-80" class="axis-line" marker-end="url(#arrowhead)"/>
    <line x1="0" y1="80" x2="0" y2="0" class="axis-line"/>

    <!-- Grid -->
    <line x1="90" y1="-80" x2="90" y2="80" class="grid-line"/>
    <line x1="180" y1="-80" x2="180" y2="80" class="grid-line"/>
    <line x1="270" y1="-80" x2="270" y2="80" class="grid-line"/>
    <line x1="360" y1="-80" x2="360" y2="80" class="grid-line"/>
    <line x1="450" y1="-80" x2="450" y2="80" class="grid-line"/>

    <line x1="0" y1="-40" x2="540" y2="-40" class="grid-line"/>
    <line x1="0" y1="40" x2="540" y2="40" class="grid-line"/>

    <!-- Sine wave -->
    <path d="M 0 0 Q 22.5 -60 45 -60 Q 67.5 -60 90 0 Q 112.5 60 135 60 Q 157.5 60 180 0 Q 202.5 -60 225 -60 Q 247.5 -60 270 0 Q 292.5 60 315 60 Q 337.5 60 360 0 Q 382.5 -60 405 -60 Q 427.5 -60 450 0 Q 472.5 60 495 60 Q 517.5 60 540 0" class="sine-wave"/>

    <!-- Labels -->
    <text x="90" y="100" class="description-text" text-anchor="middle">π/2</text>
    <text x="180" y="100" class="description-text" text-anchor="middle">π</text>
    <text x="270" y="100" class="description-text" text-anchor="middle">3π/2</text>
    <text x="360" y="100" class="description-text" text-anchor="middle">2π</text>
    <text x="450" y="100" class="description-text" text-anchor="middle">5π/2</text>

    <text x="560" y="5" class="description-text">ωt</text>
    <text x="-15" y="-60" class="description-text" text-anchor="middle">+Vm</text>
    <text x="-15" y="60" class="description-text" text-anchor="middle">-Vm</text>
  </g>

  <!-- Mathematical representation -->
  <text x="70" y="220" class="label-text">Mathematical Form:</text>
  <text x="70" y="240" class="formula-text">v(t) = Vm sin(ωt + φ)</text>
  <text x="70" y="255" class="formula-text">i(t) = Im sin(ωt + φ)</text>

  <text x="350" y="220" class="label-text">Where:</text>
  <text x="350" y="235" class="description-text">• Vm, Im = Peak amplitude</text>
  <text x="350" y="247" class="description-text">• ω = Angular frequency (rad/s)</text>
  <text x="350" y="259" class="description-text">• φ = Phase angle</text>
  <text x="350" y="271" class="description-text">• f = ω/2π (frequency in Hz)</text>
  <text x="350" y="283" class="description-text">• T = 1/f = 2π/ω (period)</text>

  <!-- PHASOR REPRESENTATION -->
  <rect x="700" y="110" width="650" height="180" class="phasor-fill" rx="10"/>
  <text x="1025" y="135" class="subsection-title">Phasor Representation</text>

  <!-- Phasor diagram -->
  <g transform="translate(750, 200)">
    <!-- Coordinate system -->
    <line x1="0" y1="0" x2="120" y2="0" class="axis-line" marker-end="url(#arrowhead)"/>
    <line x1="0" y1="0" x2="0" y2="-80" class="axis-line" marker-end="url(#arrowhead)"/>
    <line x1="0" y1="80" x2="0" y2="0" class="axis-line"/>

    <!-- Phasor vectors -->
    <line x1="0" y1="0" x2="80" y2="-30" class="phase-arrow" marker-end="url(#phase-arrow)" stroke-width="3"/>
    <line x1="0" y1="0" x2="60" y2="40" class="phase-arrow" marker-end="url(#phase-arrow)" stroke-width="3"/>

    <!-- Angle arcs -->
    <path d="M 20 0 A 20 20 0 0 0 17.32 -10" stroke="#9c27b0" stroke-width="1" fill="none"/>
    <path d="M 20 0 A 20 20 0 0 1 13.3 13.3" stroke="#2196f3" stroke-width="1" fill="none"/>

    <!-- Labels -->
    <text x="85" y="-25" class="label-text">V₁∠φ₁</text>
    <text x="65" y="50" class="label-text">V₂∠φ₂</text>
    <text x="130" y="5" class="description-text">Re</text>
    <text x="5" y="-85" class="description-text">jIm</text>
    <text x="25" y="-5" class="description-text">φ₁</text>
    <text x="25" y="15" class="description-text">φ₂</text>
  </g>

  <!-- Phasor conversion -->
  <text x="950" y="180" class="label-text">Phasor Conversion:</text>
  <text x="950" y="200" class="formula-text">V = Vm∠φ = Vm(cos φ + j sin φ)</text>
  <text x="950" y="220" class="formula-text">Rectangular: V = a + jb</text>
  <text x="950" y="240" class="formula-text">Polar: V = |V|∠φ</text>
  <text x="950" y="260" class="formula-text">|V| = √(a² + b²), φ = tan⁻¹(b/a)</text>

  <!-- IMPEDANCE CONCEPTS -->
  <text x="700" y="320" class="section-title">IMPEDANCE AND ADMITTANCE</text>

  <!-- Resistor impedance -->
  <rect x="50" y="340" width="300" height="200" class="resistor-fill" rx="10"/>
  <text x="200" y="365" class="subsection-title">Resistor</text>

  <!-- Resistor symbol -->
  <g transform="translate(120, 390)">
    <rect x="0" y="0" width="60" height="20" fill="none" stroke="#2c3e50" stroke-width="2"/>
    <line x1="-20" y1="10" x2="0" y2="10" class="circuit-line"/>
    <line x1="60" y1="10" x2="80" y2="10" class="circuit-line"/>
    <text x="30" y="15" class="label-text" text-anchor="middle" fill="white">R</text>
    <text x="30" y="40" class="label-text" text-anchor="middle">Resistor</text>
  </g>

  <text x="70" y="460" class="label-text">Impedance:</text>
  <text x="70" y="480" class="formula-text">ZR = R ∠0°</text>
  <text x="70" y="500" class="formula-text">v and i in phase</text>
  <text x="70" y="520" class="description-text">Pure resistance</text>

  <!-- Inductor impedance -->
  <rect x="400" y="340" width="300" height="200" class="inductor-fill" rx="10"/>
  <text x="550" y="365" class="subsection-title">Inductor</text>

  <!-- Inductor symbol -->
  <g transform="translate(470, 390)">
    <path d="M 0 10 Q 10 0 20 10 Q 30 20 40 10 Q 50 0 60 10" stroke="#2c3e50" stroke-width="3" fill="none"/>
    <line x1="-20" y1="10" x2="0" y2="10" class="circuit-line"/>
    <line x1="60" y1="10" x2="80" y2="10" class="circuit-line"/>
    <text x="30" y="40" class="label-text" text-anchor="middle">Inductor</text>
  </g>

  <text x="420" y="460" class="label-text">Impedance:</text>
  <text x="420" y="480" class="formula-text">ZL = jωL = ωL∠90°</text>
  <text x="420" y="500" class="formula-text">v leads i by 90°</text>
  <text x="420" y="520" class="description-text">Inductive reactance: XL = ωL</text>

  <!-- Capacitor impedance -->
  <rect x="750" y="340" width="300" height="200" class="capacitor-fill" rx="10"/>
  <text x="900" y="365" class="subsection-title">Capacitor</text>

  <!-- Capacitor symbol -->
  <g transform="translate(820, 390)">
    <line x1="25" y1="0" x2="25" y2="20" class="circuit-line"/>
    <line x1="35" y1="0" x2="35" y2="20" class="circuit-line"/>
    <line x1="-20" y1="10" x2="25" y2="10" class="circuit-line"/>
    <line x1="35" y1="10" x2="80" y2="10" class="circuit-line"/>
    <text x="30" y="40" class="label-text" text-anchor="middle">Capacitor</text>
  </g>

  <text x="770" y="460" class="label-text">Impedance:</text>
  <text x="770" y="480" class="formula-text">ZC = -j/(ωC) = (1/ωC)∠-90°</text>
  <text x="770" y="500" class="formula-text">v lags i by 90°</text>
  <text x="770" y="520" class="description-text">Capacitive reactance: XC = 1/(ωC)</text>

  <!-- General impedance -->
  <rect x="1100" y="340" width="250" height="200" class="phasor-fill" rx="10"/>
  <text x="1225" y="365" class="subsection-title">General Impedance</text>

  <text x="1120" y="390" class="label-text">Complex Form:</text>
  <text x="1120" y="410" class="formula-text">Z = R + jX</text>
  <text x="1120" y="430" class="formula-text">|Z| = √(R² + X²)</text>
  <text x="1120" y="450" class="formula-text">φ = tan⁻¹(X/R)</text>

  <text x="1120" y="480" class="label-text">Admittance:</text>
  <text x="1120" y="500" class="formula-text">Y = 1/Z = G + jB</text>
  <text x="1120" y="520" class="description-text">G = conductance, B = susceptance</text>

  <!-- AC CIRCUIT ANALYSIS -->
  <text x="700" y="580" class="section-title">AC CIRCUIT ANALYSIS METHODS</text>

  <!-- Series RLC circuit -->
  <rect x="50" y="600" width="400" height="220" class="ac-source-fill" rx="10"/>
  <text x="250" y="625" class="subsection-title">Series RLC Circuit</text>

  <!-- Circuit diagram -->
  <g transform="translate(80, 650)">
    <!-- AC source -->
    <circle cx="30" cy="30" r="20" fill="none" stroke="#2c3e50" stroke-width="2"/>
    <path d="M 20 30 Q 30 20 40 30 Q 30 40 20 30" stroke="#2c3e50" stroke-width="2" fill="none"/>
    <text x="30" y="60" class="description-text" text-anchor="middle">AC Source</text>

    <!-- Circuit elements -->
    <line x1="50" y1="30" x2="80" y2="30" class="circuit-line"/>

    <!-- Resistor -->
    <rect x="80" y="20" width="40" height="20" fill="none" stroke="#2c3e50" stroke-width="2"/>
    <text x="100" y="32" class="description-text" text-anchor="middle" font-size="8">R</text>

    <line x1="120" y1="30" x2="150" y2="30" class="circuit-line"/>

    <!-- Inductor -->
    <path d="M 150 30 Q 160 20 170 30 Q 180 40 190 30 Q 200 20 210 30" stroke="#2c3e50" stroke-width="2" fill="none"/>
    <text x="180" y="50" class="description-text" text-anchor="middle" font-size="8">L</text>

    <line x1="210" y1="30" x2="240" y2="30" class="circuit-line"/>

    <!-- Capacitor -->
    <line x1="250" y1="10" x2="250" y2="50" class="circuit-line"/>
    <line x1="260" y1="10" x2="260" y2="50" class="circuit-line"/>
    <line x1="240" y1="30" x2="250" y2="30" class="circuit-line"/>
    <line x1="260" y1="30" x2="290" y2="30" class="circuit-line"/>
    <text x="255" y="65" class="description-text" text-anchor="middle" font-size="8">C</text>

    <!-- Return path -->
    <line x1="290" y1="30" x2="290" y2="80" class="circuit-line"/>
    <line x1="290" y1="80" x2="30" y2="80" class="circuit-line"/>
    <line x1="30" y1="80" x2="30" y2="50" class="circuit-line"/>
  </g>

  <text x="70" y="760" class="label-text">Analysis:</text>
  <text x="70" y="780" class="formula-text">Z = R + j(ωL - 1/ωC)</text>
  <text x="70" y="800" class="formula-text">|Z| = √[R² + (ωL - 1/ωC)²]</text>

  <!-- Parallel RLC circuit -->
  <rect x="500" y="600" width="400" height="220" class="ac-source-fill" rx="10"/>
  <text x="700" y="625" class="subsection-title">Parallel RLC Circuit</text>

  <!-- Parallel circuit diagram -->
  <g transform="translate(530, 650)">
    <!-- AC source -->
    <circle cx="30" cy="40" r="20" fill="none" stroke="#2c3e50" stroke-width="2"/>
    <path d="M 20 40 Q 30 30 40 40 Q 30 50 20 40" stroke="#2c3e50" stroke-width="2" fill="none"/>

    <!-- Main branches -->
    <line x1="50" y1="40" x2="80" y2="40" class="circuit-line"/>
    <line x1="80" y1="40" x2="80" y2="20" class="circuit-line"/>
    <line x1="80" y1="40" x2="80" y2="60" class="circuit-line"/>
    <line x1="80" y1="40" x2="80" y2="100" class="circuit-line"/>

    <!-- R branch -->
    <rect x="80" y="10" width="40" height="20" fill="none" stroke="#2c3e50" stroke-width="2"/>
    <text x="100" y="22" class="description-text" text-anchor="middle" font-size="8">R</text>
    <line x1="120" y1="20" x2="150" y2="20" class="circuit-line"/>

    <!-- L branch -->
    <path d="M 80 60 Q 90 50 100 60 Q 110 70 120 60 Q 130 50 140 60 L 150 60" stroke="#2c3e50" stroke-width="2" fill="none"/>
    <text x="115" y="80" class="description-text" text-anchor="middle" font-size="8">L</text>

    <!-- C branch -->
    <line x1="110" y1="90" x2="110" y2="110" class="circuit-line"/>
    <line x1="120" y1="90" x2="120" y2="110" class="circuit-line"/>
    <line x1="80" y1="100" x2="110" y2="100" class="circuit-line"/>
    <line x1="120" y1="100" x2="150" y2="100" class="circuit-line"/>
    <text x="115" y="125" class="description-text" text-anchor="middle" font-size="8">C</text>

    <!-- Return paths -->
    <line x1="150" y1="20" x2="170" y2="20" class="circuit-line"/>
    <line x1="150" y1="60" x2="170" y2="60" class="circuit-line"/>
    <line x1="150" y1="100" x2="170" y2="100" class="circuit-line"/>
    <line x1="170" y1="20" x2="170" y2="100" class="circuit-line"/>
    <line x1="170" y1="100" x2="170" y2="120" class="circuit-line"/>
    <line x1="170" y1="120" x2="30" y2="120" class="circuit-line"/>
    <line x1="30" y1="120" x2="30" y2="60" class="circuit-line"/>
  </g>

  <text x="520" y="760" class="label-text">Analysis:</text>
  <text x="520" y="780" class="formula-text">Y = 1/R + j(ωC - 1/ωL)</text>
  <text x="520" y="800" class="formula-text">Z = 1/Y</text>

  <!-- POWER ANALYSIS -->
  <rect x="950" y="600" width="400" height="220" class="meter-fill" rx="10"/>
  <text x="1150" y="625" class="subsection-title">AC Power Analysis</text>

  <!-- Power triangle -->
  <g transform="translate(1000, 680)">
    <!-- Triangle -->
    <line x1="0" y1="40" x2="80" y2="40" class="thick-line"/>
    <line x1="80" y1="40" x2="80" y2="0" class="thick-line"/>
    <line x1="0" y1="40" x2="80" y2="0" class="thick-line"/>

    <!-- Labels -->
    <text x="40" y="55" class="label-text" text-anchor="middle">P (Real Power)</text>
    <text x="90" y="25" class="label-text">Q (Reactive)</text>
    <text x="35" y="15" class="label-text">S (Apparent)</text>

    <!-- Angle -->
    <path d="M 15 40 A 15 15 0 0 0 12 34" stroke="#9c27b0" stroke-width="1" fill="none"/>
    <text x="20" y="45" class="description-text">φ</text>
  </g>

  <text x="970" y="730" class="label-text">Power Relations:</text>
  <text x="970" y="750" class="formula-text">P = VI cos φ (Watts)</text>
  <text x="970" y="770" class="formula-text">Q = VI sin φ (VAR)</text>
  <text x="970" y="790" class="formula-text">S = VI (VA)</text>
  <text x="970" y="810" class="formula-text">S² = P² + Q²</text>

  <!-- FREQUENCY RESPONSE -->
  <text x="700" y="860" class="section-title">FREQUENCY RESPONSE AND FILTERS</text>

  <rect x="50" y="880" width="1300" height="140" class="waveform-fill" rx="10"/>
  <text x="700" y="905" class="subsection-title">Filter Types and Frequency Response</text>

  <!-- Low-pass filter -->
  <g transform="translate(100, 930)">
    <text x="60" y="0" class="label-text" text-anchor="middle">Low-Pass Filter</text>
    <!-- Circuit -->
    <rect x="20" y="10" width="30" height="15" fill="none" stroke="#2c3e50" stroke-width="1"/>
    <line x1="55" y1="17.5" x2="65" y2="17.5" class="circuit-line"/>
    <line x1="70" y1="10" x2="70" y2="25" stroke="#2c3e50" stroke-width="1"/>
    <line x1="75" y1="10" x2="75" y2="25" stroke="#2c3e50" stroke-width="1"/>
    <text x="35" y="20" class="description-text" text-anchor="middle" font-size="6">R</text>
    <text x="72.5" y="35" class="description-text" text-anchor="middle" font-size="6">C</text>

    <!-- Response curve -->
    <path d="M 10 50 L 60 50 Q 80 50 100 70" stroke="#e91e63" stroke-width="2" fill="none"/>
    <text x="55" y="45" class="description-text" text-anchor="middle" font-size="8">fc</text>
    <text x="10" y="70" class="description-text" font-size="8">|H(f)|</text>
  </g>

  <!-- High-pass filter -->
  <g transform="translate(350, 930)">
    <text x="60" y="0" class="label-text" text-anchor="middle">High-Pass Filter</text>
    <!-- Circuit -->
    <line x1="25" y1="10" x2="25" y2="25" stroke="#2c3e50" stroke-width="1"/>
    <line x1="30" y1="10" x2="30" y2="25" stroke="#2c3e50" stroke-width="1"/>
    <line x1="35" y1="17.5" x2="50" y2="17.5" class="circuit-line"/>
    <rect x="50" y="10" width="30" height="15" fill="none" stroke="#2c3e50" stroke-width="1"/>
    <text x="27.5" y="35" class="description-text" text-anchor="middle" font-size="6">C</text>
    <text x="65" y="20" class="description-text" text-anchor="middle" font-size="6">R</text>

    <!-- Response curve -->
    <path d="M 10 70 Q 30 70 50 50 L 100 50" stroke="#2196f3" stroke-width="2" fill="none"/>
    <text x="50" y="45" class="description-text" text-anchor="middle" font-size="8">fc</text>
  </g>

  <!-- Band-pass filter -->
  <g transform="translate(600, 930)">
    <text x="60" y="0" class="label-text" text-anchor="middle">Band-Pass Filter</text>
    <!-- Response curve -->
    <path d="M 10 70 Q 20 70 30 50 L 50 50 Q 70 50 80 50 Q 90 50 100 70" stroke="#4caf50" stroke-width="2" fill="none"/>
    <text x="30" y="45" class="description-text" text-anchor="middle" font-size="8">f1</text>
    <text x="80" y="45" class="description-text" text-anchor="middle" font-size="8">f2</text>
    <text x="55" y="45" class="description-text" text-anchor="middle" font-size="8">f0</text>
  </g>

  <!-- Band-stop filter -->
  <g transform="translate(850, 930)">
    <text x="60" y="0" class="label-text" text-anchor="middle">Band-Stop Filter</text>
    <!-- Response curve -->
    <path d="M 10 50 Q 20 50 30 50 Q 40 50 50 70 Q 60 50 70 50 Q 80 50 90 50 L 100 50" stroke="#ff9800" stroke-width="2" fill="none"/>
    <text x="30" y="45" class="description-text" text-anchor="middle" font-size="8">f1</text>
    <text x="70" y="45" class="description-text" text-anchor="middle" font-size="8">f2</text>
  </g>

  <!-- Summary formulas -->
  <text x="1100" y="950" class="label-text">Cut-off Frequency:</text>
  <text x="1100" y="970" class="formula-text">fc = 1/(2πRC)</text>
  <text x="1100" y="990" class="formula-text">fc = 1/(2π√LC)</text>
  <text x="1100" y="1010" class="description-text">for LC circuits</text>

  <!-- ANALYSIS TECHNIQUES SUMMARY -->
  <rect x="50" y="1050" width="1300" height="120" fill="#f8f9fa" stroke="#dee2e6" stroke-width="2" rx="10"/>
  <text x="700" y="1075" class="section-title">AC Analysis Summary</text>

  <text x="70" y="1100" class="label-text">Key Steps in AC Circuit Analysis:</text>
  <text x="70" y="1120" class="description-text">1. Convert all elements to phasor/impedance form</text>
  <text x="70" y="1135" class="description-text">2. Apply circuit analysis techniques (KVL, KCL, nodal, mesh)</text>
  <text x="70" y="1150" class="description-text">3. Solve for phasor quantities, then convert back to time domain if needed</text>

  <text x="700" y="1100" class="label-text">Important Relationships:</text>
  <text x="700" y="1120" class="description-text">• Ohm's Law: V = IZ (phasor form)</text>
  <text x="700" y="1135" class="description-text">• Power Factor: cos φ = P/S = R/|Z|</text>
  <text x="700" y="1150" class="description-text">• Resonance: ωL = 1/(ωC), φ = 0°</text>

</svg>