<?xml version="1.0" encoding="UTF-8"?>
<svg xmlns="http://www.w3.org/2000/svg" viewBox="0 0 1400 1400">
  <defs>
    <style>
      .title { font: bold 24px Arial; text-anchor: middle; fill: #2c3e50; }
      .subtitle { font: bold 18px Arial; text-anchor: middle; fill: #34495e; }
      .label { font: 14px Arial; text-anchor: middle; fill: #2c3e50; }
      .formula { font: 12px Arial; text-anchor: middle; fill: #e74c3c; }
      .text { font: 11px Arial; fill: #2c3e50; }
      .circuit { stroke: #2c3e50; stroke-width: 2; fill: none; }
      .component { stroke: #2c3e50; stroke-width: 2; fill: white; }
      .sensor-gas { stroke: #e67e22; stroke-width: 2; fill: #fdf2e9; }
      .sensor-humidity { stroke: #3498db; stroke-width: 2; fill: #e8f4fd; }
      .sensor-proximity { stroke: #9b59b6; stroke-width: 2; fill: #f4f6ff; }
      .sensor-ph { stroke: #27ae60; stroke-width: 2; fill: #e8f6f3; }
      .sensor-optical { stroke: #f39c12; stroke-width: 2; fill: #fffef7; }
      .response { stroke: #e74c3c; stroke-width: 2; fill: none; }
      .axis { stroke: #7f8c8d; stroke-width: 1; }
      .grid { stroke: #ecf0f1; stroke-width: 0.5; }
    </style>
    <marker id="arrow" markerWidth="10" markerHeight="7" refX="9" refY="3.5" orient="auto">
      <polygon points="0 0, 10 3.5, 0 7" fill="#7f8c8d"/>
    </marker>
  </defs>

  <!-- Title -->
  <text x="700" y="30" class="title">Comprehensive Modern Sensor Systems</text>
  <text x="700" y="55" class="subtitle">Gas, Humidity, Proximity, pH, and Optical Sensors</text>

  <!-- Gas Sensors Section -->
  <g transform="translate(50, 80)">
    <text x="300" y="20" class="subtitle">Gas Sensors</text>

    <!-- MQ Series Gas Sensor -->
    <g transform="translate(20, 40)">
      <text x="120" y="15" class="label">MQ Series Gas Sensors</text>

      <!-- Sensor Structure -->
      <g transform="translate(0, 25)">
        <rect x="20" y="20" width="200" height="120" class="sensor-gas"/>
        <text x="120" y="40" class="formula">MQ-2 Gas Sensor Structure</text>

        <!-- Heating element -->
        <circle cx="70" cy="70" r="15" fill="#e74c3c" stroke="#c0392b"/>
        <text x="70" y="75" class="text">Heater</text>
        <text x="70" y="95" class="text">Coil</text>

        <!-- Sensing element -->
        <circle cx="120" cy="70" r="20" fill="#f39c12" stroke="#e67e22"/>
        <text x="120" y="75" class="text">SnO₂</text>
        <text x="120" y="87" class="text">Sensing</text>

        <!-- Electrodes -->
        <line x1="100" y1="60" x2="100" y2="50" stroke="#2c3e50" stroke-width="3"/>
        <line x1="140" y1="60" x2="140" y2="50" stroke="#2c3e50" stroke-width="3"/>
        <text x="120" y="45" class="text">Electrodes</text>

        <!-- Mesh -->
        <rect x="60" y="50" width="120" height="40" fill="none" stroke="#7f8c8d" stroke-width="1" stroke-dasharray="2,2"/>
        <text x="120" y="110" class="text">Protective Mesh</text>
      </g>

      <!-- Circuit -->
      <g transform="translate(0, 170)">
        <text x="120" y="15" class="text">Sensor Circuit &amp; Characteristics</text>

        <!-- Basic circuit -->
        <rect x="20" y="25" width="40" height="20" class="component"/>
        <text x="40" y="38" class="text">MQ-2</text>

        <rect x="80" y="25" width="30" height="20" class="component"/>
        <text x="95" y="38" class="text">RL</text>

        <line x1="60" y1="35" x2="80" y2="35" stroke="#2c3e50" stroke-width="2"/>
        <line x1="110" y1="35" x2="130" y2="35" stroke="#2c3e50" stroke-width="2"/>
        <text x="135" y="40" class="text">Vout</text>

        <text x="20" y="65" class="formula">Rs = Sensor Resistance</text>
        <text x="20" y="80" class="formula">RL = Load Resistance</text>
        <text x="20" y="95" class="formula">Vout = VCC × RL/(Rs + RL)</text>
      </g>
    </g>

    <!-- Gas Types and Applications -->
    <g transform="translate(280, 40)">
      <text x="150" y="15" class="label">Gas Sensor Types &amp; Applications</text>

      <rect x="0" y="25" width="300" height="200" class="sensor-gas"/>
      <text x="10" y="45" class="formula">Common MQ Sensors:</text>

      <text x="10" y="65" class="text">• MQ-2: LPG, Propane, Hydrogen, Smoke</text>
      <text x="10" y="80" class="text">• MQ-3: Alcohol, Ethanol detection</text>
      <text x="10" y="95" class="text">• MQ-4: Natural gas, Methane</text>
      <text x="10" y="110" class="text">• MQ-5: LPG, Natural gas, Coal gas</text>
      <text x="10" y="125" class="text">• MQ-6: LPG, Butane gas</text>
      <text x="10" y="140" class="text">• MQ-7: Carbon monoxide (CO)</text>
      <text x="10" y="155" class="text">• MQ-8: Hydrogen gas</text>
      <text x="10" y="170" class="text">• MQ-9: CO, Methane, LPG</text>

      <text x="150" y="65" class="formula">Applications:</text>
      <text x="150" y="80" class="text">• Home safety systems</text>
      <text x="150" y="95" class="text">• Industrial monitoring</text>
      <text x="150" y="110" class="text">• Air quality monitoring</text>
      <text x="150" y="125" class="text">• Automotive emissions</text>
      <text x="150" y="140" class="text">• Mining safety</text>
      <text x="150" y="155" class="text">• Environmental monitoring</text>
      <text x="150" y="170" class="text">• Smart city applications</text>

      <text x="10" y="190" class="formula">Operating Temperature: 20°C to 50°C</text>
      <text x="10" y="205" class="formula">Power Consumption: 150mA @ 5V</text>
      <text x="150" y="190" class="formula">Response Time: 10-60 seconds</text>
      <text x="150" y="205" class="formula">Sensitivity: 200-10000 ppm</text>
    </g>
  </g>

  <!-- Humidity Sensors Section -->
  <g transform="translate(50, 370)">
    <text x="300" y="20" class="subtitle">Humidity Sensors</text>

    <!-- DHT22 Sensor -->
    <g transform="translate(20, 40)">
      <text x="120" y="15" class="label">DHT22 Temperature &amp; Humidity Sensor</text>

      <!-- Sensor Structure -->
      <g transform="translate(0, 25)">
        <rect x="20" y="20" width="160" height="100" class="sensor-humidity"/>
        <text x="100" y="40" class="formula">DHT22 Internal Structure</text>

        <!-- Humidity element -->
        <rect x="30" y="50" width="50" height="30" fill="#3498db" stroke="#2980b9"/>
        <text x="55" y="70" class="text">Capacitive</text>
        <text x="55" y="82" class="text">Humidity</text>

        <!-- Temperature element -->
        <rect x="90" y="50" width="40" height="30" fill="#e74c3c" stroke="#c0392b"/>
        <text x="110" y="70" class="text">NTC</text>
        <text x="110" y="82" class="text">Temp</text>

        <!-- MCU -->
        <rect x="140" y="50" width="30" height="30" fill="#27ae60" stroke="#229954"/>
        <text x="155" y="70" class="text">8-bit</text>
        <text x="155" y="82" class="text">MCU</text>

        <text x="100" y="105" class="text">Digital Output (Single Wire)</text>
      </g>

      <!-- Specifications -->
      <g transform="translate(0, 150)">
        <rect x="0" y="0" width="200" height="100" fill="#e8f4fd" stroke="#3498db"/>
        <text x="10" y="20" class="formula">DHT22 Specifications:</text>
        <text x="10" y="35" class="text">• Humidity: 0-100% RH</text>
        <text x="10" y="50" class="text">• Temperature: -40 to 80°C</text>
        <text x="10" y="65" class="text">• Accuracy: ±2% RH, ±0.5°C</text>
        <text x="10" y="80" class="text">• Resolution: 0.1% RH, 0.1°C</text>
        <text x="10" y="95" class="text">• Response time: 2s</text>
      </g>
    </g>

    <!-- Capacitive Humidity Principle -->
    <g transform="translate(250, 40)">
      <text x="150" y="15" class="label">Capacitive Humidity Sensing Principle</text>

      <rect x="0" y="25" width="300" height="150" class="sensor-humidity"/>

      <!-- Capacitor structure -->
      <g transform="translate(20, 40)">
        <text x="100" y="15" class="text">Hygroscopic Dielectric Capacitor</text>

        <!-- Electrodes -->
        <line x1="40" y1="30" x2="40" y2="80" stroke="#2c3e50" stroke-width="4"/>
        <line x1="80" y1="30" x2="80" y2="80" stroke="#2c3e50" stroke-width="4"/>
        <text x="25" y="95" class="text">Electrode</text>
        <text x="65" y="95" class="text">Electrode</text>

        <!-- Dielectric -->
        <rect x="44" y="35" width="32" height="40" fill="#85c1e9" stroke="#3498db"/>
        <text x="60" y="60" class="text">Polymer</text>
        <text x="60" y="72" class="text">Dielectric</text>

        <!-- Water molecules -->
        <circle cx="50" cy="45" r="2" fill="#2980b9"/>
        <circle cx="70" cy="50" r="2" fill="#2980b9"/>
        <circle cx="55" cy="65" r="2" fill="#2980b9"/>
        <text x="100" y="50" class="text">H₂O molecules</text>
        <text x="100" y="65" class="text">absorbed in</text>
        <text x="100" y="80" class="text">polymer matrix</text>
      </g>

      <text x="10" y="120" class="formula">Working Principle:</text>
      <text x="10" y="135" class="text">C = ε₀εᵣA/d where εᵣ varies with humidity</text>
      <text x="10" y="150" class="text">Higher humidity → Higher dielectric constant</text>
      <text x="10" y="165" class="text">Higher capacitance → Measurable frequency change</text>
    </g>
  </g>

  <!-- Proximity Sensors Section -->
  <g transform="translate(50, 620)">
    <text x="300" y="20" class="subtitle">Proximity Sensors</text>

    <!-- Inductive Proximity Sensor -->
    <g transform="translate(20, 40)">
      <text x="120" y="15" class="label">Inductive Proximity Sensor</text>

      <!-- Sensor Structure -->
      <g transform="translate(0, 25)">
        <rect x="20" y="20" width="160" height="100" class="sensor-proximity"/>
        <text x="100" y="40" class="formula">Inductive Sensor Construction</text>

        <!-- Oscillator coil -->
        <circle cx="70" cy="70" r="20" fill="none" stroke="#9b59b6" stroke-width="3"/>
        <text x="70" y="75" class="text">LC</text>
        <text x="70" y="87" class="text">Oscillator</text>

        <!-- Ferrite core -->
        <rect x="65" y="50" width="10" height="40" fill="#7f8c8d"/>
        <text x="80" y="55" class="text">Ferrite</text>
        <text x="80" y="67" class="text">Core</text>

        <!-- Detection zone -->
        <path d="M90,70 Q120,50 120,70 Q120,90 90,70" fill="none" stroke="#e74c3c" stroke-width="2" stroke-dasharray="3,3"/>
        <text x="125" y="75" class="text">Detection</text>
        <text x="125" y="87" class="text">Zone</text>

        <!-- Output circuit -->
        <rect x="130" y="60" width="40" height="20" class="component"/>
        <text x="150" y="73" class="text">Output</text>
        <text x="150" y="85" class="text">Stage</text>
      </g>

      <!-- Working principle -->
      <g transform="translate(0, 150)">
        <rect x="0" y="0" width="200" height="80" fill="#f4f6ff" stroke="#9b59b6"/>
        <text x="10" y="20" class="formula">Working Principle:</text>
        <text x="10" y="35" class="text">• Oscillator generates AC field</text>
        <text x="10" y="50" class="text">• Metal object causes eddy currents</text>
        <text x="10" y="65" class="text">• Amplitude reduction detected</text>
      </g>
    </g>

    <!-- Capacitive Proximity Sensor -->
    <g transform="translate(250, 40)">
      <text x="120" y="15" class="label">Capacitive Proximity Sensor</text>

      <!-- Sensor Structure -->
      <g transform="translate(0, 25)">
        <rect x="20" y="20" width="160" height="100" class="sensor-proximity"/>
        <text x="100" y="40" class="formula">Capacitive Sensor Construction</text>

        <!-- Sensing electrode -->
        <rect x="50" y="50" width="30" height="40" fill="#3498db" stroke="#2980b9"/>
        <text x="65" y="70" class="text">Sensing</text>
        <text x="65" y="82" class="text">Electrode</text>

        <!-- Ground electrode -->
        <rect x="90" y="60" width="30" height="20" fill="#7f8c8d"/>
        <text x="105" y="73" class="text">Ground</text>

        <!-- Electric field -->
        <path d="M80,60 Q110,45 110,60" fill="none" stroke="#e74c3c" stroke-width="1" stroke-dasharray="2,2"/>
        <path d="M80,70 Q110,55 110,70" fill="none" stroke="#e74c3c" stroke-width="1" stroke-dasharray="2,2"/>
        <path d="M80,80 Q110,65 110,80" fill="none" stroke="#e74c3c" stroke-width="1" stroke-dasharray="2,2"/>
        <text x="125" y="65" class="text">Electric</text>
        <text x="125" y="77" class="text">Field</text>

        <!-- RC oscillator -->
        <rect x="130" y="60" width="40" height="20" class="component"/>
        <text x="150" y="73" class="text">RC Osc</text>
      </g>

      <!-- Applications -->
      <g transform="translate(0, 150)">
        <rect x="0" y="0" width="200" height="80" fill="#f4f6ff" stroke="#9b59b6"/>
        <text x="10" y="20" class="formula">Detects:</text>
        <text x="10" y="35" class="text">• Metals, Plastics, Liquids</text>
        <text x="10" y="50" class="text">• Non-contact level sensing</text>
        <text x="10" y="65" class="text">• Material discrimination</text>
      </g>
    </g>

    <!-- Ultrasonic Proximity Sensor -->
    <g transform="translate(480, 40)">
      <text x="140" y="15" class="label">Ultrasonic Proximity Sensor (HC-SR04)</text>

      <!-- Sensor Structure -->
      <g transform="translate(0, 25)">
        <rect x="20" y="20" width="180" height="100" class="sensor-proximity"/>
        <text x="110" y="40" class="formula">Ultrasonic Sensor Operation</text>

        <!-- Transmitter -->
        <circle cx="60" cy="70" r="15" fill="#f39c12" stroke="#e67e22"/>
        <text x="60" y="75" class="text">Tx</text>

        <!-- Receiver -->
        <circle cx="120" cy="70" r="15" fill="#27ae60" stroke="#229954"/>
        <text x="120" y="75" class="text">Rx</text>

        <!-- Sound waves -->
        <path d="M75,70 Q100,60 125,70" fill="none" stroke="#e74c3c" stroke-width="2"/>
        <path d="M75,70 Q100,80 125,70" fill="none" stroke="#e74c3c" stroke-width="2"/>
        <text x="100" y="55" class="text">40 kHz</text>

        <!-- Control circuit -->
        <rect x="140" y="60" width="50" height="20" class="component"/>
        <text x="165" y="73" class="text">Control</text>

        <!-- Object -->
        <rect x="160" y="30" width="20" height="60" fill="#95a5a6"/>
        <text x="170" y="25" class="text">Object</text>
      </g>

      <!-- Timing diagram -->
      <g transform="translate(0, 150)">
        <rect x="0" y="0" width="200" height="80" fill="#f4f6ff" stroke="#9b59b6"/>
        <text x="10" y="20" class="formula">Distance = (Speed × Time) / 2</text>
        <text x="10" y="35" class="text">Speed of sound = 343 m/s</text>
        <text x="10" y="50" class="text">Range: 2cm to 400cm</text>
        <text x="10" y="65" class="text">Accuracy: ±3mm</text>
      </g>
    </g>
  </g>

  <!-- pH Sensors Section -->
  <g transform="translate(50, 860)">
    <text x="300" y="20" class="subtitle">pH Sensors</text>

    <!-- Glass Electrode pH Sensor -->
    <g transform="translate(20, 40)">
      <text x="120" y="15" class="label">Glass Electrode pH Sensor</text>

      <!-- Sensor Structure -->
      <g transform="translate(0, 25)">
        <rect x="20" y="20" width="160" height="140" class="sensor-ph"/>
        <text x="100" y="40" class="formula">Glass Electrode Construction</text>

        <!-- Glass bulb -->
        <circle cx="70" cy="80" r="20" fill="#ecf0f1" stroke="#95a5a6"/>
        <text x="70" y="85" class="text">Glass</text>
        <text x="70" y="97" class="text">Bulb</text>

        <!-- Internal solution -->
        <circle cx="70" cy="80" r="12" fill="#3498db"/>
        <text x="70" y="65" class="text">HCl</text>
        <text x="70" y="55" class="text">0.1M</text>

        <!-- Silver wire -->
        <line x1="70" y1="68" x2="70" y2="30" stroke="#7f8c8d" stroke-width="3"/>
        <text x="75" y="45" class="text">Ag wire</text>

        <!-- Reference electrode -->
        <rect x="110" y="50" width="20" height="60" class="component"/>
        <text x="120" y="85" class="text">Ref</text>
        <text x="120" y="97" class="text">KCl</text>

        <!-- Connection -->
        <line x1="120" y1="50" x2="120" y2="30" stroke="#2c3e50" stroke-width="2"/>
        <line x1="70" y1="30" x2="120" y2="30" stroke="#2c3e50" stroke-width="2"/>
        <text x="95" y="25" class="text">Output</text>

        <text x="100" y="130" class="formula">E = E₀ - 0.059 × pH (at 25°C)</text>
        <text x="100" y="145" class="text">Nernst Equation</text>
      </g>
    </g>

    <!-- ISFET pH Sensor -->
    <g transform="translate(220, 40)">
      <text x="120" y="15" class="label">ISFET pH Sensor</text>

      <!-- Sensor Structure -->
      <g transform="translate(0, 25)">
        <rect x="20" y="20" width="160" height="140" class="sensor-ph"/>
        <text x="100" y="40" class="formula">Ion-Sensitive FET Structure</text>

        <!-- Substrate -->
        <rect x="40" y="80" width="80" height="30" fill="#95a5a6"/>
        <text x="80" y="98" class="text">Si Substrate</text>

        <!-- Source and Drain -->
        <rect x="45" y="75" width="15" height="10" fill="#3498db"/>
        <rect x="100" y="75" width="15" height="10" fill="#3498db"/>
        <text x="52" y="70" class="text">S</text>
        <text x="107" y="70" class="text">D</text>

        <!-- Gate oxide -->
        <rect x="60" y="77" width="40" height="3" fill="#e74c3c"/>
        <text x="80" y="68" class="text">SiO₂</text>

        <!-- Ion-sensitive layer -->
        <rect x="65" y="74" width="30" height="3" fill="#f39c12"/>
        <text x="80" y="60" class="text">Ta₂O₅</text>
        <text x="80" y="50" class="text">(pH sensitive)</text>

        <!-- Solution -->
        <ellipse cx="80" cy="50" rx="40" ry="15" fill="#85c1e9" stroke="#3498db"/>
        <text x="80" y="55" class="text">Solution</text>

        <!-- Reference electrode -->
        <line x1="120" y1="45" x2="135" y2="45" stroke="#7f8c8d" stroke-width="3"/>
        <text x="140" y="50" class="text">Ref</text>

        <text x="100" y="130" class="formula">Advantages:</text>
        <text x="100" y="145" class="text">• Solid state • Fast response</text>
        <text x="100" y="160" class="text">• Miniaturizable • Robust</text>
      </g>
    </g>

    <!-- pH Applications -->
    <g transform="translate(420, 40)">
      <text x="150" y="15" class="label">pH Sensor Applications</text>

      <rect x="0" y="25" width="300" height="140" class="sensor-ph"/>
      <text x="10" y="45" class="formula">Water Quality Monitoring:</text>
      <text x="10" y="60" class="text">• Drinking water treatment</text>
      <text x="10" y="75" class="text">• Swimming pool maintenance</text>
      <text x="10" y="90" class="text">• Wastewater treatment</text>

      <text x="10" y="110" class="formula">Industrial Applications:</text>
      <text x="10" y="125" class="text">• Chemical processing</text>
      <text x="10" y="140" class="text">• Food &amp; beverage industry</text>
      <text x="10" y="155" class="text">• Pharmaceutical manufacturing</text>

      <text x="150" y="45" class="formula">Laboratory Use:</text>
      <text x="150" y="60" class="text">• Analytical chemistry</text>
      <text x="150" y="75" class="text">• Quality control</text>
      <text x="150" y="90" class="text">• Research applications</text>

      <text x="150" y="110" class="formula">Specifications:</text>
      <text x="150" y="125" class="text">• Range: 0-14 pH</text>
      <text x="150" y="140" class="text">• Accuracy: ±0.01 pH</text>
      <text x="150" y="155" class="text">• Temperature compensation</text>
    </g>
  </g>

  <!-- Optical Sensors Section -->
  <g transform="translate(50, 1100)">
    <text x="650" y="20" class="subtitle">Optical Sensors and Encoders</text>

    <!-- Photodiode -->
    <g transform="translate(20, 40)">
      <text x="100" y="15" class="label">Photodiode Sensor</text>

      <rect x="0" y="25" width="200" height="100" class="sensor-optical"/>
      <!-- Photodiode symbol -->
      <g transform="translate(50, 50)">
        <line x1="0" y1="20" x2="40" y2="20" stroke="#2c3e50" stroke-width="2"/>
        <line x1="20" y1="0" x2="20" y2="40" stroke="#2c3e50" stroke-width="2"/>
        <polygon points="15,20 25,10 25,30" fill="#2c3e50"/>
        <!-- Light arrows -->
        <path d="M5,5 L15,15" stroke="#f39c12" stroke-width="2" marker-end="url(#arrow)"/>
        <path d="M10,0 L20,10" stroke="#f39c12" stroke-width="2" marker-end="url(#arrow)"/>
      </g>
      <text x="10" y="105" class="formula">I = I₀ + I_ph</text>
      <text x="10" y="120" class="text">Photocurrent proportional to light</text>
    </g>

    <!-- Phototransistor -->
    <g transform="translate(240, 40)">
      <text x="100" y="15" class="label">Phototransistor</text>

      <rect x="0" y="25" width="200" height="100" class="sensor-optical"/>
      <!-- Phototransistor symbol -->
      <g transform="translate(50, 50)">
        <circle cx="20" cy="20" r="18" fill="none" stroke="#2c3e50" stroke-width="2"/>
        <line x1="20" y1="5" x2="20" y2="15" stroke="#2c3e50" stroke-width="2"/>
        <line x1="20" y1="25" x2="20" y2="35" stroke="#2c3e50" stroke-width="2"/>
        <line x1="10" y1="20" x2="30" y2="20" stroke="#2c3e50" stroke-width="1"/>
        <!-- Light arrows -->
        <path d="M0,5 L10,15" stroke="#f39c12" stroke-width="2" marker-end="url(#arrow)"/>
        <path d="M5,0 L15,10" stroke="#f39c12" stroke-width="2" marker-end="url(#arrow)"/>
      </g>
      <text x="10" y="105" class="formula">High gain amplification</text>
      <text x="10" y="120" class="text">β × photocurrent</text>
    </g>

    <!-- Optical Encoder -->
    <g transform="translate(460, 40)">
      <text x="140" y="15" class="label">Incremental Optical Encoder</text>

      <rect x="0" y="25" width="280" height="100" class="sensor-optical"/>
      <!-- Encoder disk -->
      <circle cx="70" cy="75" r="25" fill="none" stroke="#2c3e50" stroke-width="2"/>
      <!-- Slots -->
      <rect x="50" y="70" width="3" height="10" fill="#2c3e50"/>
      <rect x="58" y="70" width="3" height="10" fill="#2c3e50"/>
      <rect x="66" y="70" width="3" height="10" fill="#2c3e50"/>
      <rect x="74" y="70" width="3" height="10" fill="#2c3e50"/>
      <rect x="82" y="70" width="3" height="10" fill="#2c3e50"/>
      <rect x="90" y="70" width="3" height="10" fill="#2c3e50"/>

      <!-- LED -->
      <rect x="40" y="65" width="10" height="10" fill="#e74c3c"/>
      <text x="45" y="60" class="text">LED</text>

      <!-- Photodetector -->
      <rect x="100" y="65" width="10" height="10" fill="#3498db"/>
      <text x="105" y="60" class="text">PD</text>

      <!-- Light beam -->
      <path d="M50,70 L100,70" stroke="#f39c12" stroke-width="2" stroke-dasharray="2,2"/>

      <text x="130" y="60" class="formula">Position = Count × Resolution</text>
      <text x="130" y="75" class="text">Quadrature output for direction</text>
      <text x="130" y="90" class="text">Resolution: 100-10000 PPR</text>
      <text x="130" y="105" class="text">Applications: Motor control, robotics</text>
    </g>

    <!-- LDR -->
    <g transform="translate(760, 40)">
      <text x="100" y="15" class="label">Light Dependent Resistor</text>

      <rect x="0" y="25" width="200" height="100" class="sensor-optical"/>
      <!-- LDR symbol -->
      <g transform="translate(50, 50)">
        <rect x="10" y="18" width="20" height="4" fill="none" stroke="#2c3e50" stroke-width="2"/>
        <path d="M0,20 L10,20 M30,20 L40,20" stroke="#2c3e50" stroke-width="2"/>
        <!-- Light arrows -->
        <path d="M5,5 L15,15" stroke="#f39c12" stroke-width="2" marker-end="url(#arrow)"/>
        <path d="M15,5 L25,15" stroke="#f39c12" stroke-width="2" marker-end="url(#arrow)"/>
      </g>
      <text x="10" y="105" class="formula">R = k/Light_intensity</text>
      <text x="10" y="120" class="text">Dark: MΩ, Bright: kΩ</text>
    </g>
  </g>

</svg>