<?xml version="1.0" encoding="UTF-8"?>
<svg viewBox="0 0 1800 1400" xmlns="http://www.w3.org/2000/svg">
  <defs>
    <style>
      .title { font-family: Arial, sans-serif; font-size: 28px; font-weight: bold; fill: #2c3e50; }
      .subtitle { font-family: Arial, sans-serif; font-size: 20px; font-weight: bold; fill: #34495e; }
      .text { font-family: Arial, sans-serif; font-size: 14px; fill: #2c3e50; }
      .small-text { font-family: Arial, sans-serif; font-size: 12px; fill: #2c3e50; }
      .code { font-family: 'Courier New', monospace; font-size: 12px; fill: #2c3e50; }
      .highlight { fill: #3498db; }
      .warning { fill: #e74c3c; }
      .success { fill: #27ae60; }
      .info { fill: #f39c12; }
    </style>
  </defs>

  <!-- Background -->
  <rect width="1800" height="1400" fill="#f8f9fa"/>

  <!-- Title -->
  <text x="900" y="40" text-anchor="middle" class="title">Advanced Linked List Operations &amp; Applications</text>
  <text x="900" y="70" text-anchor="middle" class="text">Complex Operations, Memory Management &amp; Real-world Applications</text>

  <!-- Insert at Position Section -->
  <g transform="translate(50, 100)">
    <text x="0" y="0" class="subtitle">1. Insert at Specific Position</text>

    <g transform="translate(0, 40)">
      <text x="0" y="0" class="text">Insert 15 at position 2 (0-indexed):</text>

      <!-- Step 1: Original List -->
      <g transform="translate(0, 30)">
        <text x="0" y="-10" class="small-text">Step 1: Original List</text>

        <!-- Node 0 -->
        <rect x="0" y="0" width="40" height="25" fill="#3498db" stroke="#2980b9" stroke-width="1"/>
        <rect x="40" y="0" width="20" height="25" fill="#e74c3c" stroke="#c0392b" stroke-width="1"/>
        <text x="20" y="17" text-anchor="middle" class="small-text" fill="white">10</text>
        <text x="20" y="40" text-anchor="middle" class="small-text">pos 0</text>

        <path d="M 60 12 L 90 12" stroke="#e74c3c" stroke-width="2" marker-end="url(#arrowhead)"/>

        <!-- Node 1 -->
        <rect x="100" y="0" width="40" height="25" fill="#3498db" stroke="#2980b9" stroke-width="1"/>
        <rect x="140" y="0" width="20" height="25" fill="#e74c3c" stroke="#c0392b" stroke-width="1"/>
        <text x="120" y="17" text-anchor="middle" class="small-text" fill="white">20</text>
        <text x="120" y="40" text-anchor="middle" class="small-text">pos 1</text>

        <path d="M 160 12 L 190 12" stroke="#e74c3c" stroke-width="2" marker-end="url(#arrowhead)"/>

        <!-- Node 2 -->
        <rect x="200" y="0" width="40" height="25" fill="#3498db" stroke="#2980b9" stroke-width="1"/>
        <rect x="240" y="0" width="20" height="25" fill="#95a5a6" stroke="#7f8c8d" stroke-width="1"/>
        <text x="220" y="17" text-anchor="middle" class="small-text" fill="white">30</text>
        <text x="220" y="40" text-anchor="middle" class="small-text">pos 2</text>
        <text x="250" y="17" text-anchor="middle" class="small-text">NULL</text>
      </g>

      <!-- Step 2: Create New Node -->
      <g transform="translate(0, 100)">
        <text x="0" y="-10" class="small-text">Step 2: Create new node with value 15</text>

        <!-- Original nodes (faded) -->
        <rect x="0" y="0" width="40" height="25" fill="#bdc3c7" stroke="#95a5a6" stroke-width="1"/>
        <rect x="40" y="0" width="20" height="25" fill="#e74c3c" stroke="#c0392b" stroke-width="1"/>
        <text x="20" y="17" text-anchor="middle" class="small-text">10</text>

        <path d="M 60 12 L 90 12" stroke="#e74c3c" stroke-width="1"/>

        <rect x="100" y="0" width="40" height="25" fill="#bdc3c7" stroke="#95a5a6" stroke-width="1"/>
        <rect x="140" y="0" width="20" height="25" fill="#e74c3c" stroke="#c0392b" stroke-width="1"/>
        <text x="120" y="17" text-anchor="middle" class="small-text">20</text>

        <!-- New node -->
        <rect x="100" y="50" width="40" height="25" fill="#27ae60" stroke="#229954" stroke-width="3"/>
        <rect x="140" y="50" width="20" height="25" fill="#e74c3c" stroke="#c0392b" stroke-width="1"/>
        <text x="120" y="67" text-anchor="middle" class="small-text" fill="white">15</text>
        <text x="120" y="85" text-anchor="middle" class="small-text" fill="#27ae60">New Node</text>

        <path d="M 160 12 L 190 12" stroke="#e74c3c" stroke-width="1"/>

        <rect x="200" y="0" width="40" height="25" fill="#bdc3c7" stroke="#95a5a6" stroke-width="1"/>
        <rect x="240" y="0" width="20" height="25" fill="#95a5a6" stroke="#7f8c8d" stroke-width="1"/>
        <text x="220" y="17" text-anchor="middle" class="small-text">30</text>
        <text x="250" y="17" text-anchor="middle" class="small-text">NULL</text>
      </g>

      <!-- Step 3: Update Links -->
      <g transform="translate(0, 170)">
        <text x="0" y="-10" class="small-text">Step 3: Update links - new_node.next = current.next</text>

        <rect x="0" y="0" width="40" height="25" fill="#3498db" stroke="#2980b9" stroke-width="1"/>
        <rect x="40" y="0" width="20" height="25" fill="#e74c3c" stroke="#c0392b" stroke-width="1"/>
        <text x="20" y="17" text-anchor="middle" class="small-text" fill="white">10</text>

        <path d="M 60 12 L 90 12" stroke="#e74c3c" stroke-width="2" marker-end="url(#arrowhead)"/>

        <rect x="100" y="0" width="40" height="25" fill="#3498db" stroke="#2980b9" stroke-width="1"/>
        <rect x="140" y="0" width="20" height="25" fill="#e74c3c" stroke="#c0392b" stroke-width="1"/>
        <text x="120" y="17" text-anchor="middle" class="small-text" fill="white">20</text>

        <!-- Updated link to new node -->
        <path d="M 160 12 L 190 50" stroke="#27ae60" stroke-width="3" marker-end="url(#arrowhead-green)"/>

        <!-- New node -->
        <rect x="200" y="40" width="40" height="25" fill="#27ae60" stroke="#229954" stroke-width="2"/>
        <rect x="240" y="40" width="20" height="25" fill="#e74c3c" stroke="#c0392b" stroke-width="1"/>
        <text x="220" y="57" text-anchor="middle" class="small-text" fill="white">15</text>

        <!-- Link from new node to next -->
        <path d="M 260 52 L 290 25" stroke="#e74c3c" stroke-width="2" marker-end="url(#arrowhead)"/>

        <rect x="300" y="0" width="40" height="25" fill="#3498db" stroke="#2980b9" stroke-width="1"/>
        <rect x="340" y="0" width="20" height="25" fill="#95a5a6" stroke="#7f8c8d" stroke-width="1"/>
        <text x="320" y="17" text-anchor="middle" class="small-text" fill="white">30</text>
        <text x="350" y="17" text-anchor="middle" class="small-text">NULL</text>
      </g>
    </g>
  </g>

  <!-- Arrow markers -->
  <defs>
    <marker id="arrowhead" markerWidth="10" markerHeight="7" refX="9" refY="3.5" orient="auto">
      <polygon points="0 0, 10 3.5, 0 7" fill="#e74c3c"/>
    </marker>
    <marker id="arrowhead-green" markerWidth="10" markerHeight="7" refX="9" refY="3.5" orient="auto">
      <polygon points="0 0, 10 3.5, 0 7" fill="#27ae60"/>
    </marker>
    <marker id="arrowhead-blue" markerWidth="10" markerHeight="7" refX="9" refY="3.5" orient="auto">
      <polygon points="0 0, 10 3.5, 0 7" fill="#3498db"/>
    </marker>
    <marker id="arrowhead-orange" markerWidth="10" markerHeight="7" refX="9" refY="3.5" orient="auto">
      <polygon points="0 0, 10 3.5, 0 7" fill="#f39c12"/>
    </marker>
  </defs>

  <!-- Reverse Linked List Section -->
  <g transform="translate(500, 100)">
    <text x="0" y="0" class="subtitle">2. Reverse Linked List</text>

    <g transform="translate(0, 40)">
      <!-- Original List -->
      <g transform="translate(0, 0)">
        <text x="0" y="0" class="text">Original List:</text>

        <g transform="translate(0, 20)">
          <rect x="0" y="0" width="40" height="25" fill="#3498db" stroke="#2980b9" stroke-width="1"/>
          <rect x="40" y="0" width="20" height="25" fill="#e74c3c" stroke="#c0392b" stroke-width="1"/>
          <text x="20" y="17" text-anchor="middle" class="small-text" fill="white">1</text>

          <path d="M 60 12 L 90 12" stroke="#e74c3c" stroke-width="2" marker-end="url(#arrowhead)"/>

          <rect x="100" y="0" width="40" height="25" fill="#3498db" stroke="#2980b9" stroke-width="1"/>
          <rect x="140" y="0" width="20" height="25" fill="#e74c3c" stroke="#c0392b" stroke-width="1"/>
          <text x="120" y="17" text-anchor="middle" class="small-text" fill="white">2</text>

          <path d="M 160 12 L 190 12" stroke="#e74c3c" stroke-width="2" marker-end="url(#arrowhead)"/>

          <rect x="200" y="0" width="40" height="25" fill="#3498db" stroke="#2980b9" stroke-width="1"/>
          <rect x="240" y="0" width="20" height="25" fill="#95a5a6" stroke="#7f8c8d" stroke-width="1"/>
          <text x="220" y="17" text-anchor="middle" class="small-text" fill="white">3</text>
          <text x="250" y="17" text-anchor="middle" class="small-text">NULL</text>
        </g>
      </g>

      <!-- Reversed List -->
      <g transform="translate(0, 80)">
        <text x="0" y="0" class="text">Reversed List:</text>

        <g transform="translate(0, 20)">
          <rect x="0" y="0" width="40" height="25" fill="#27ae60" stroke="#229954" stroke-width="1"/>
          <rect x="40" y="0" width="20" height="25" fill="#e74c3c" stroke="#c0392b" stroke-width="1"/>
          <text x="20" y="17" text-anchor="middle" class="small-text" fill="white">3</text>

          <path d="M 60 12 L 90 12" stroke="#e74c3c" stroke-width="2" marker-end="url(#arrowhead)"/>

          <rect x="100" y="0" width="40" height="25" fill="#27ae60" stroke="#229954" stroke-width="1"/>
          <rect x="140" y="0" width="20" height="25" fill="#e74c3c" stroke="#c0392b" stroke-width="1"/>
          <text x="120" y="17" text-anchor="middle" class="small-text" fill="white">2</text>

          <path d="M 160 12 L 190 12" stroke="#e74c3c" stroke-width="2" marker-end="url(#arrowhead)"/>

          <rect x="200" y="0" width="40" height="25" fill="#27ae60" stroke="#229954" stroke-width="1"/>
          <rect x="240" y="0" width="20" height="25" fill="#95a5a6" stroke="#7f8c8d" stroke-width="1"/>
          <text x="220" y="17" text-anchor="middle" class="small-text" fill="white">1</text>
          <text x="250" y="17" text-anchor="middle" class="small-text">NULL</text>
        </g>
      </g>

      <!-- Algorithm Steps -->
      <g transform="translate(0, 150)">
        <rect x="0" y="0" width="400" height="120" fill="#ecf0f1" stroke="#bdc3c7" stroke-width="1" rx="5"/>
        <text x="10" y="20" class="text" font-weight="bold">Reversal Algorithm:</text>
        <text x="15" y="40" class="small-text">1. Initialize: prev = NULL, current = head</text>
        <text x="15" y="55" class="small-text">2. While current is not NULL:</text>
        <text x="25" y="70" class="small-text">   a. next_temp = current.next</text>
        <text x="25" y="85" class="small-text">   b. current.next = prev</text>
        <text x="25" y="100" class="small-text">   c. prev = current, current = next_temp</text>
        <text x="15" y="115" class="small-text">3. head = prev</text>
      </g>
    </g>
  </g>

  <!-- Find Middle Element Section -->
  <g transform="translate(1000, 100)">
    <text x="0" y="0" class="subtitle">3. Find Middle Element</text>
    <text x="0" y="25" class="text">Using Two-Pointer Technique</text>

    <g transform="translate(0, 50)">
      <!-- List with pointers -->
      <g transform="translate(0, 0)">
        <rect x="0" y="0" width="40" height="25" fill="#3498db" stroke="#2980b9" stroke-width="1"/>
        <rect x="40" y="0" width="20" height="25" fill="#e74c3c" stroke="#c0392b" stroke-width="1"/>
        <text x="20" y="17" text-anchor="middle" class="small-text" fill="white">1</text>

        <path d="M 60 12 L 90 12" stroke="#e74c3c" stroke-width="2" marker-end="url(#arrowhead)"/>

        <rect x="100" y="0" width="40" height="25" fill="#3498db" stroke="#2980b9" stroke-width="1"/>
        <rect x="140" y="0" width="20" height="25" fill="#e74c3c" stroke="#c0392b" stroke-width="1"/>
        <text x="120" y="17" text-anchor="middle" class="small-text" fill="white">2</text>

        <path d="M 160 12 L 190 12" stroke="#e74c3c" stroke-width="2" marker-end="url(#arrowhead)"/>

        <rect x="200" y="0" width="40" height="25" fill="#f39c12" stroke="#e67e22" stroke-width="3"/>
        <rect x="240" y="0" width="20" height="25" fill="#e74c3c" stroke="#c0392b" stroke-width="1"/>
        <text x="220" y="17" text-anchor="middle" class="small-text" fill="white">3</text>

        <path d="M 260 12 L 290 12" stroke="#e74c3c" stroke-width="2" marker-end="url(#arrowhead)"/>

        <rect x="300" y="0" width="40" height="25" fill="#3498db" stroke="#2980b9" stroke-width="1"/>
        <rect x="340" y="0" width="20" height="25" fill="#e74c3c" stroke="#c0392b" stroke-width="1"/>
        <text x="320" y="17" text-anchor="middle" class="small-text" fill="white">4</text>

        <path d="M 360 12 L 390 12" stroke="#e74c3c" stroke-width="2" marker-end="url(#arrowhead)"/>

        <rect x="400" y="0" width="40" height="25" fill="#3498db" stroke="#2980b9" stroke-width="1"/>
        <rect x="440" y="0" width="20" height="25" fill="#95a5a6" stroke="#7f8c8d" stroke-width="1"/>
        <text x="420" y="17" text-anchor="middle" class="small-text" fill="white">5</text>
        <text x="450" y="17" text-anchor="middle" class="small-text">NULL</text>

        <!-- Slow pointer -->
        <path d="M 220 -20 L 220 0" stroke="#27ae60" stroke-width="3" marker-end="url(#arrowhead-green)"/>
        <text x="220" y="-25" text-anchor="middle" class="small-text" fill="#27ae60">Slow</text>

        <!-- Fast pointer -->
        <path d="M 420 -40 L 420 0" stroke="#3498db" stroke-width="3" marker-end="url(#arrowhead-blue)"/>
        <text x="420" y="-45" text-anchor="middle" class="small-text" fill="#3498db">Fast</text>

        <text x="220" y="45" text-anchor="middle" class="small-text" fill="#f39c12">Middle Element: 3</text>
      </g>

      <!-- Algorithm -->
      <g transform="translate(0, 80)">
        <rect x="0" y="0" width="460" height="80" fill="#ecf0f1" stroke="#bdc3c7" stroke-width="1" rx="5"/>
        <text x="10" y="20" class="text" font-weight="bold">Two-Pointer Algorithm:</text>
        <text x="15" y="35" class="small-text">• Slow pointer moves 1 step, Fast pointer moves 2 steps</text>
        <text x="15" y="50" class="small-text">• When fast reaches end, slow is at middle</text>
        <text x="15" y="65" class="small-text">• Time: O(n), Space: O(1)</text>
      </g>
    </g>
  </g>

  <!-- Detect Cycle Section -->
  <g transform="translate(50, 400)">
    <text x="0" y="0" class="subtitle">4. Cycle Detection (Floyd's Algorithm)</text>

    <g transform="translate(0, 40)">
      <!-- Cyclic List -->
      <g transform="translate(0, 0)">
        <text x="0" y="0" class="text">Linked List with Cycle:</text>

        <g transform="translate(50, 30)">
          <!-- Nodes -->
          <rect x="0" y="0" width="40" height="25" fill="#3498db" stroke="#2980b9" stroke-width="1"/>
          <rect x="40" y="0" width="20" height="25" fill="#e74c3c" stroke="#c0392b" stroke-width="1"/>
          <text x="20" y="17" text-anchor="middle" class="small-text" fill="white">1</text>

          <path d="M 60 12 L 90 12" stroke="#e74c3c" stroke-width="2" marker-end="url(#arrowhead)"/>

          <rect x="100" y="0" width="40" height="25" fill="#3498db" stroke="#2980b9" stroke-width="1"/>
          <rect x="140" y="0" width="20" height="25" fill="#e74c3c" stroke="#c0392b" stroke-width="1"/>
          <text x="120" y="17" text-anchor="middle" class="small-text" fill="white">2</text>

          <path d="M 160 12 L 190 12" stroke="#e74c3c" stroke-width="2" marker-end="url(#arrowhead)"/>

          <rect x="200" y="0" width="40" height="25" fill="#f39c12" stroke="#e67e22" stroke-width="2"/>
          <rect x="240" y="0" width="20" height="25" fill="#e74c3c" stroke="#c0392b" stroke-width="1"/>
          <text x="220" y="17" text-anchor="middle" class="small-text" fill="white">3</text>

          <path d="M 260 12 L 290 12" stroke="#e74c3c" stroke-width="2" marker-end="url(#arrowhead)"/>

          <rect x="300" y="0" width="40" height="25" fill="#3498db" stroke="#2980b9" stroke-width="1"/>
          <rect x="340" y="0" width="20" height="25" fill="#e74c3c" stroke="#c0392b" stroke-width="1"/>
          <text x="320" y="17" text-anchor="middle" class="small-text" fill="white">4</text>

          <!-- Cycle back to node 3 -->
          <path d="M 340 25 Q 370 50 220 35" stroke="#e74c3c" stroke-width="2" marker-end="url(#arrowhead)" fill="none"/>

          <!-- Pointers -->
          <path d="M 120 -20 L 120 0" stroke="#27ae60" stroke-width="3" marker-end="url(#arrowhead-green)"/>
          <text x="120" y="-25" text-anchor="middle" class="small-text" fill="#27ae60">Slow</text>

          <path d="M 320 -20 L 320 0" stroke="#3498db" stroke-width="3" marker-end="url(#arrowhead-blue)"/>
          <text x="320" y="-25" text-anchor="middle" class="small-text" fill="#3498db">Fast</text>

          <text x="220" y="-10" text-anchor="middle" class="small-text" fill="#f39c12">Cycle Start</text>
        </g>
      </g>

      <!-- Algorithm Steps -->
      <g transform="translate(0, 120)">
        <rect x="0" y="0" width="600" height="100" fill="#ecf0f1" stroke="#bdc3c7" stroke-width="1" rx="5"/>
        <text x="10" y="20" class="text" font-weight="bold">Floyd's Cycle Detection Algorithm:</text>
        <text x="15" y="40" class="small-text">1. Use two pointers: slow (1 step) and fast (2 steps)</text>
        <text x="15" y="55" class="small-text">2. If there's a cycle, fast will eventually meet slow</text>
        <text x="15" y="70" class="small-text">3. If fast reaches NULL, no cycle exists</text>
        <text x="15" y="85" class="small-text">4. Time: O(n), Space: O(1)</text>
      </g>
    </g>
  </g>

  <!-- Merge Two Sorted Lists Section -->
  <g transform="translate(700, 400)">
    <text x="0" y="0" class="subtitle">5. Merge Two Sorted Lists</text>

    <g transform="translate(0, 40)">
      <!-- List 1 -->
      <g transform="translate(0, 0)">
        <text x="0" y="0" class="text">List 1:</text>

        <g transform="translate(0, 20)">
          <rect x="0" y="0" width="40" height="25" fill="#3498db" stroke="#2980b9" stroke-width="1"/>
          <rect x="40" y="0" width="20" height="25" fill="#e74c3c" stroke="#c0392b" stroke-width="1"/>
          <text x="20" y="17" text-anchor="middle" class="small-text" fill="white">1</text>

          <path d="M 60 12 L 90 12" stroke="#e74c3c" stroke-width="2" marker-end="url(#arrowhead)"/>

          <rect x="100" y="0" width="40" height="25" fill="#3498db" stroke="#2980b9" stroke-width="1"/>
          <rect x="140" y="0" width="20" height="25" fill="#e74c3c" stroke="#c0392b" stroke-width="1"/>
          <text x="120" y="17" text-anchor="middle" class="small-text" fill="white">3</text>

          <path d="M 160 12 L 190 12" stroke="#e74c3c" stroke-width="2" marker-end="url(#arrowhead)"/>

          <rect x="200" y="0" width="40" height="25" fill="#3498db" stroke="#2980b9" stroke-width="1"/>
          <rect x="240" y="0" width="20" height="25" fill="#95a5a6" stroke="#7f8c8d" stroke-width="1"/>
          <text x="220" y="17" text-anchor="middle" class="small-text" fill="white">5</text>
          <text x="250" y="17" text-anchor="middle" class="small-text">NULL</text>
        </g>
      </g>

      <!-- List 2 -->
      <g transform="translate(0, 70)">
        <text x="0" y="0" class="text">List 2:</text>

        <g transform="translate(0, 20)">
          <rect x="0" y="0" width="40" height="25" fill="#27ae60" stroke="#229954" stroke-width="1"/>
          <rect x="40" y="0" width="20" height="25" fill="#e74c3c" stroke="#c0392b" stroke-width="1"/>
          <text x="20" y="17" text-anchor="middle" class="small-text" fill="white">2</text>

          <path d="M 60 12 L 90 12" stroke="#e74c3c" stroke-width="2" marker-end="url(#arrowhead)"/>

          <rect x="100" y="0" width="40" height="25" fill="#27ae60" stroke="#229954" stroke-width="1"/>
          <rect x="140" y="0" width="20" height="25" fill="#e74c3c" stroke="#c0392b" stroke-width="1"/>
          <text x="120" y="17" text-anchor="middle" class="small-text" fill="white">4</text>

          <path d="M 160 12 L 190 12" stroke="#e74c3c" stroke-width="2" marker-end="url(#arrowhead)"/>

          <rect x="200" y="0" width="40" height="25" fill="#27ae60" stroke="#229954" stroke-width="1"/>
          <rect x="240" y="0" width="20" height="25" fill="#95a5a6" stroke="#7f8c8d" stroke-width="1"/>
          <text x="220" y="17" text-anchor="middle" class="small-text" fill="white">6</text>
          <text x="250" y="17" text-anchor="middle" class="small-text">NULL</text>
        </g>
      </g>

      <!-- Merged List -->
      <g transform="translate(0, 140)">
        <text x="0" y="0" class="text">Merged List:</text>

        <g transform="translate(0, 20)">
          <rect x="0" y="0" width="30" height="20" fill="#f39c12" stroke="#e67e22" stroke-width="1"/>
          <rect x="30" y="0" width="15" height="20" fill="#e74c3c" stroke="#c0392b" stroke-width="1"/>
          <text x="15" y="15" text-anchor="middle" class="small-text" fill="white">1</text>

          <path d="M 45 10 L 60 10" stroke="#e74c3c" stroke-width="1" marker-end="url(#arrowhead)"/>

          <rect x="65" y="0" width="30" height="20" fill="#f39c12" stroke="#e67e22" stroke-width="1"/>
          <rect x="95" y="0" width="15" height="20" fill="#e74c3c" stroke="#c0392b" stroke-width="1"/>
          <text x="80" y="15" text-anchor="middle" class="small-text" fill="white">2</text>

          <path d="M 110 10 L 125 10" stroke="#e74c3c" stroke-width="1" marker-end="url(#arrowhead)"/>

          <rect x="130" y="0" width="30" height="20" fill="#f39c12" stroke="#e67e22" stroke-width="1"/>
          <rect x="160" y="0" width="15" height="20" fill="#e74c3c" stroke="#c0392b" stroke-width="1"/>
          <text x="145" y="15" text-anchor="middle" class="small-text" fill="white">3</text>

          <path d="M 175 10 L 190 10" stroke="#e74c3c" stroke-width="1" marker-end="url(#arrowhead)"/>

          <rect x="195" y="0" width="30" height="20" fill="#f39c12" stroke="#e67e22" stroke-width="1"/>
          <rect x="225" y="0" width="15" height="20" fill="#e74c3c" stroke="#c0392b" stroke-width="1"/>
          <text x="210" y="15" text-anchor="middle" class="small-text" fill="white">4</text>

          <path d="M 240 10 L 255 10" stroke="#e74c3c" stroke-width="1" marker-end="url(#arrowhead)"/>

          <rect x="260" y="0" width="30" height="20" fill="#f39c12" stroke="#e67e22" stroke-width="1"/>
          <rect x="290" y="0" width="15" height="20" fill="#e74c3c" stroke="#c0392b" stroke-width="1"/>
          <text x="275" y="15" text-anchor="middle" class="small-text" fill="white">5</text>

          <path d="M 305 10 L 320 10" stroke="#e74c3c" stroke-width="1" marker-end="url(#arrowhead)"/>

          <rect x="325" y="0" width="30" height="20" fill="#f39c12" stroke="#e67e22" stroke-width="1"/>
          <rect x="355" y="0" width="15" height="20" fill="#95a5a6" stroke="#7f8c8d" stroke-width="1"/>
          <text x="340" y="15" text-anchor="middle" class="small-text" fill="white">6</text>
          <text x="362" y="15" text-anchor="middle" class="small-text">NULL</text>
        </g>
      </g>
    </g>
  </g>

  <!-- Memory Management Section -->
  <g transform="translate(50, 650)">
    <text x="0" y="0" class="subtitle">6. Memory Management in Linked Lists</text>

    <g transform="translate(0, 40)">
      <!-- Memory Allocation -->
      <g transform="translate(0, 0)">
        <rect x="0" y="0" width="700" height="150" fill="#ecf0f1" stroke="#bdc3c7" stroke-width="2" rx="5"/>

        <text x="20" y="25" class="text" font-weight="bold">Dynamic Memory Allocation:</text>
        <text x="30" y="45" class="small-text">• Nodes allocated individually using malloc()/new</text>
        <text x="30" y="60" class="small-text">• Memory allocated from heap (not stack)</text>
        <text x="30" y="75" class="small-text">• Size can grow/shrink during runtime</text>

        <text x="20" y="100" class="text" font-weight="bold">Memory Deallocation:</text>
        <text x="30" y="120" class="small-text">• Must manually free memory to prevent leaks</text>
        <text x="30" y="135" class="small-text">• Use free()/delete for each node</text>
      </g>

      <!-- Memory Layout -->
      <g transform="translate(750, 0)">
        <text x="0" y="0" class="text" font-weight="bold">Memory Layout:</text>

        <g transform="translate(0, 20)">
          <!-- Memory blocks -->
          <rect x="0" y="0" width="60" height="30" fill="#3498db" stroke="#2980b9" stroke-width="1"/>
          <text x="30" y="20" text-anchor="middle" class="small-text" fill="white">Node 1</text>
          <text x="30" y="45" text-anchor="middle" class="small-text">0x1000</text>

          <rect x="100" y="0" width="60" height="30" fill="#27ae60" stroke="#229954" stroke-width="1"/>
          <text x="130" y="20" text-anchor="middle" class="small-text" fill="white">Node 2</text>
          <text x="130" y="45" text-anchor="middle" class="small-text">0x2000</text>

          <rect x="200" y="0" width="60" height="30" fill="#e74c3c" stroke="#c0392b" stroke-width="1"/>
          <text x="230" y="20" text-anchor="middle" class="small-text" fill="white">Node 3</text>
          <text x="230" y="45" text-anchor="middle" class="small-text">0x3000</text>

          <!-- Arrows showing non-contiguous memory -->
          <path d="M 60 15 L 100 15" stroke="#f39c12" stroke-width="2" stroke-dasharray="5,5"/>
          <path d="M 160 15 L 200 15" stroke="#f39c12" stroke-width="2" stroke-dasharray="5,5"/>

          <text x="130" y="70" text-anchor="middle" class="small-text">Non-contiguous memory locations</text>
        </g>
      </g>
    </g>
  </g>

  <!-- Applications Section -->
  <g transform="translate(50, 850)">
    <text x="0" y="0" class="subtitle">Real-World Applications of Linked Lists</text>

    <rect x="0" y="20" width="1500" height="200" fill="#ecf0f1" stroke="#bdc3c7" stroke-width="2" rx="5"/>

    <!-- Application 1 -->
    <g transform="translate(50, 50)">
      <rect x="0" y="0" width="200" height="80" fill="#3498db" stroke="#2980b9" stroke-width="1" rx="3"/>
      <text x="100" y="20" text-anchor="middle" class="text" fill="white" font-weight="bold">Undo Operations</text>
      <text x="100" y="40" text-anchor="middle" class="small-text" fill="white">Text Editors, IDEs</text>
      <text x="100" y="55" text-anchor="middle" class="small-text" fill="white">Each action = node</text>
      <text x="100" y="70" text-anchor="middle" class="small-text" fill="white">Dynamic history size</text>
    </g>

    <!-- Application 2 -->
    <g transform="translate(300, 50)">
      <rect x="0" y="0" width="200" height="80" fill="#27ae60" stroke="#229954" stroke-width="1" rx="3"/>
      <text x="100" y="20" text-anchor="middle" class="text" fill="white" font-weight="bold">Music Playlists</text>
      <text x="100" y="40" text-anchor="middle" class="small-text" fill="white">Spotify, Apple Music</text>
      <text x="100" y="55" text-anchor="middle" class="small-text" fill="white">Dynamic song addition</text>
      <text x="100" y="70" text-anchor="middle" class="small-text" fill="white">Next/Previous navigation</text>
    </g>

    <!-- Application 3 -->
    <g transform="translate(550, 50)">
      <rect x="0" y="0" width="200" height="80" fill="#e74c3c" stroke="#c0392b" stroke-width="1" rx="3"/>
      <text x="100" y="20" text-anchor="middle" class="text" fill="white" font-weight="bold">Browser History</text>
      <text x="100" y="40" text-anchor="middle" class="small-text" fill="white">Web Browsers</text>
      <text x="100" y="55" text-anchor="middle" class="small-text" fill="white">Back/Forward buttons</text>
      <text x="100" y="70" text-anchor="middle" class="small-text" fill="white">Dynamic page history</text>
    </g>

    <!-- Application 4 -->
    <g transform="translate(800, 50)">
      <rect x="0" y="0" width="200" height="80" fill="#f39c12" stroke="#e67e22" stroke-width="1" rx="3"/>
      <text x="100" y="20" text-anchor="middle" class="text" fill="white" font-weight="bold">Image Viewer</text>
      <text x="100" y="40" text-anchor="middle" class="small-text" fill="white">Gallery Applications</text>
      <text x="100" y="55" text-anchor="middle" class="small-text" fill="white">Next/Previous images</text>
      <text x="100" y="70" text-anchor="middle" class="small-text" fill="white">Circular navigation</text>
    </g>

    <!-- Application 5 -->
    <g transform="translate(1050, 50)">
      <rect x="0" y="0" width="200" height="80" fill="#9b59b6" stroke="#8e44ad" stroke-width="1" rx="3"/>
      <text x="100" y="20" text-anchor="middle" class="text" fill="white" font-weight="bold">Memory Management</text>
      <text x="100" y="40" text-anchor="middle" class="small-text" fill="white">Operating Systems</text>
      <text x="100" y="55" text-anchor="middle" class="small-text" fill="white">Free block lists</text>
      <text x="100" y="70" text-anchor="middle" class="small-text" fill="white">Dynamic allocation</text>
    </g>

    <!-- Application 6 -->
    <g transform="translate(175, 150)">
      <rect x="0" y="0" width="200" height="80" fill="#1abc9c" stroke="#16a085" stroke-width="1" rx="3"/>
      <text x="100" y="20" text-anchor="middle" class="text" fill="white" font-weight="bold">Hash Table Chaining</text>
      <text x="100" y="40" text-anchor="middle" class="small-text" fill="white">Collision Resolution</text>
      <text x="100" y="55" text-anchor="middle" class="small-text" fill="white">Each bucket = linked list</text>
      <text x="100" y="70" text-anchor="middle" class="small-text" fill="white">Handle hash collisions</text>
    </g>

    <!-- Application 7 -->
    <g transform="translate(425, 150)">
      <rect x="0" y="0" width="200" height="80" fill="#34495e" stroke="#2c3e50" stroke-width="1" rx="3"/>
      <text x="100" y="20" text-anchor="middle" class="text" fill="white" font-weight="bold">LRU Cache</text>
      <text x="100" y="40" text-anchor="middle" class="small-text" fill="white">Cache Implementation</text>
      <text x="100" y="55" text-anchor="middle" class="small-text" fill="white">Doubly linked list</text>
      <text x="100" y="70" text-anchor="middle" class="small-text" fill="white">O(1) operations</text>
    </g>

    <!-- Application 8 -->
    <g transform="translate(675, 150)">
      <rect x="0" y="0" width="200" height="80" fill="#e67e22" stroke="#d35400" stroke-width="1" rx="3"/>
      <text x="100" y="20" text-anchor="middle" class="text" fill="white" font-weight="bold">Implementation of ADTs</text>
      <text x="100" y="40" text-anchor="middle" class="small-text" fill="white">Stacks, Queues</text>
      <text x="100" y="55" text-anchor="middle" class="small-text" fill="white">Dynamic size</text>
      <text x="100" y="70" text-anchor="middle" class="small-text" fill="white">Efficient operations</text>
    </g>

    <!-- Application 9 -->
    <g transform="translate(925, 150)">
      <rect x="0" y="0" width="200" height="80" fill="#8e44ad" stroke="#732c8e" stroke-width="1" rx="3"/>
      <text x="100" y="20" text-anchor="middle" class="text" fill="white" font-weight="bold">Polynomial Operations</text>
      <text x="100" y="40" text-anchor="middle" class="small-text" fill="white">Mathematical Software</text>
      <text x="100" y="55" text-anchor="middle" class="small-text" fill="white">Sparse polynomials</text>
      <text x="100" y="70" text-anchor="middle" class="small-text" fill="white">Coefficient storage</text>
    </g>
  </g>

  <!-- Advantages vs Disadvantages -->
  <g transform="translate(50, 1100)">
    <text x="0" y="0" class="subtitle">Linked Lists vs Arrays - Complete Comparison</text>

    <rect x="0" y="20" width="1500" height="200" fill="#ecf0f1" stroke="#bdc3c7" stroke-width="2" rx="5"/>

    <!-- Headers -->
    <text x="20" y="45" class="text" font-weight="bold">Aspect</text>
    <text x="200" y="45" class="text" font-weight="bold">Linked Lists</text>
    <text x="500" y="45" class="text" font-weight="bold">Arrays</text>
    <text x="800" y="45" class="text" font-weight="bold">When to Use</text>

    <!-- Memory -->
    <text x="20" y="70" class="text">Memory</text>
    <text x="200" y="70" class="text">Non-contiguous, Dynamic</text>
    <text x="500" y="70" class="text">Contiguous, Fixed size</text>
    <text x="800" y="70" class="small-text">LL: Unknown size, frequent insertions</text>

    <!-- Access -->
    <text x="20" y="90" class="text">Access</text>
    <text x="200" y="90" class="text" fill="#e74c3c">Sequential O(n)</text>
    <text x="500" y="90" class="text" fill="#27ae60">Random O(1)</text>
    <text x="800" y="90" class="small-text">Array: Need frequent random access</text>

    <!-- Insertion -->
    <text x="20" y="110" class="text">Insertion</text>
    <text x="200" y="110" class="text" fill="#27ae60">Beginning O(1)</text>
    <text x="500" y="110" class="text" fill="#e74c3c">Middle O(n)</text>
    <text x="800" y="110" class="small-text">LL: Frequent insertions/deletions</text>

    <!-- Memory Overhead -->
    <text x="20" y="130" class="text">Memory Overhead</text>
    <text x="200" y="130" class="text" fill="#e74c3c">Extra pointer storage</text>
    <text x="500" y="130" class="text" fill="#27ae60">No extra overhead</text>
    <text x="800" y="130" class="small-text">Array: Memory is constraint</text>

    <!-- Cache Performance -->
    <text x="20" y="150" class="text">Cache Performance</text>
    <text x="200" y="150" class="text" fill="#e74c3c">Poor (non-contiguous)</text>
    <text x="500" y="150" class="text" fill="#27ae60">Excellent (contiguous)</text>
    <text x="800" y="150" class="small-text">Array: Performance critical applications</text>

    <!-- Implementation -->
    <text x="20" y="170" class="text">Implementation</text>
    <text x="200" y="170" class="text" fill="#f39c12">Complex (pointers)</text>
    <text x="500" y="170" class="text" fill="#27ae60">Simple (indices)</text>
    <text x="800" y="170" class="small-text">Array: Quick prototyping</text>

    <!-- Size -->
    <text x="20" y="190" class="text">Size Flexibility</text>
    <text x="200" y="190" class="text" fill="#27ae60">Dynamic growth</text>
    <text x="500" y="190" class="text" fill="#e74c3c">Fixed at compile time</text>
    <text x="800" y="190" class="small-text">LL: Size varies significantly</text>
  </g>

</svg>