<?xml version="1.0" encoding="UTF-8"?>
<svg viewBox="0 0 1800 1400" xmlns="http://www.w3.org/2000/svg">
  <defs>
    <style>
      .title { font-family: Arial, sans-serif; font-size: 28px; font-weight: bold; fill: #2c3e50; }
      .subtitle { font-family: Arial, sans-serif; font-size: 20px; font-weight: bold; fill: #34495e; }
      .text { font-family: Arial, sans-serif; font-size: 14px; fill: #2c3e50; }
      .small-text { font-family: Arial, sans-serif; font-size: 12px; fill: #2c3e50; }
      .code { font-family: 'Courier New', monospace; font-size: 12px; fill: #2c3e50; }
      .highlight { fill: #3498db; }
      .warning { fill: #e74c3c; }
      .success { fill: #27ae60; }
      .info { fill: #f39c12; }
    </style>
  </defs>

  <!-- Background -->
  <rect width="1800" height="1400" fill="#f8f9fa"/>

  <!-- Title -->
  <text x="900" y="40" text-anchor="middle" class="title">Linked Lists - Types, Operations &amp; Implementation</text>
  <text x="900" y="70" text-anchor="middle" class="text">Dynamic Data Structure with Sequential Element Linking</text>

  <!-- Singly Linked List Section -->
  <g transform="translate(50, 100)">
    <text x="0" y="0" class="subtitle">1. Singly Linked List</text>

    <!-- Node Structure -->
    <g transform="translate(0, 30)">
      <text x="0" y="0" class="text" font-weight="bold">Node Structure:</text>

      <!-- Single Node -->
      <g transform="translate(0, 20)">
        <rect x="0" y="0" width="80" height="40" fill="#3498db" stroke="#2980b9" stroke-width="2"/>
        <rect x="80" y="0" width="40" height="40" fill="#e74c3c" stroke="#c0392b" stroke-width="2"/>
        <line x1="40" y1="0" x2="40" y2="40" stroke="#2980b9" stroke-width="1"/>

        <text x="40" y="25" text-anchor="middle" class="small-text" fill="white">Data</text>
        <text x="100" y="25" text-anchor="middle" class="small-text" fill="white">Next</text>

        <text x="60" y="55" text-anchor="middle" class="small-text">Node</text>
      </g>

      <!-- Complete List -->
      <g transform="translate(200, 20)">
        <text x="0" y="-10" class="text">Complete Singly Linked List:</text>

        <!-- Node 1 -->
        <rect x="0" y="0" width="60" height="30" fill="#3498db" stroke="#2980b9" stroke-width="1"/>
        <rect x="60" y="0" width="30" height="30" fill="#e74c3c" stroke="#c0392b" stroke-width="1"/>
        <text x="30" y="20" text-anchor="middle" class="small-text" fill="white">10</text>

        <!-- Arrow 1 -->
        <path d="M 90 15 L 130 15" stroke="#e74c3c" stroke-width="2" marker-end="url(#arrowhead)"/>

        <!-- Node 2 -->
        <rect x="140" y="0" width="60" height="30" fill="#3498db" stroke="#2980b9" stroke-width="1"/>
        <rect x="200" y="0" width="30" height="30" fill="#e74c3c" stroke="#c0392b" stroke-width="1"/>
        <text x="170" y="20" text-anchor="middle" class="small-text" fill="white">20</text>

        <!-- Arrow 2 -->
        <path d="M 230 15 L 270 15" stroke="#e74c3c" stroke-width="2" marker-end="url(#arrowhead)"/>

        <!-- Node 3 -->
        <rect x="280" y="0" width="60" height="30" fill="#3498db" stroke="#2980b9" stroke-width="1"/>
        <rect x="340" y="0" width="30" height="30" fill="#95a5a6" stroke="#7f8c8d" stroke-width="1"/>
        <text x="310" y="20" text-anchor="middle" class="small-text" fill="white">30</text>
        <text x="355" y="20" text-anchor="middle" class="small-text">NULL</text>

        <!-- Head pointer -->
        <path d="M 45 -20 L 45 0" stroke="#27ae60" stroke-width="2" marker-end="url(#arrowhead-green)"/>
        <text x="45" y="-25" text-anchor="middle" class="small-text" fill="#27ae60">Head</text>
      </g>
    </g>

    <!-- Advantages and Disadvantages -->
    <g transform="translate(0, 120)">
      <rect x="0" y="0" width="350" height="120" fill="#ecf0f1" stroke="#bdc3c7" stroke-width="1" rx="5"/>
      <text x="10" y="20" class="text" font-weight="bold" fill="#27ae60">Advantages:</text>
      <text x="15" y="40" class="small-text">• Dynamic size allocation</text>
      <text x="15" y="55" class="small-text">• Efficient insertion/deletion at beginning</text>
      <text x="15" y="70" class="small-text">• Memory efficient</text>

      <text x="10" y="95" class="text" font-weight="bold" fill="#e74c3c">Disadvantages:</text>
      <text x="15" y="110" class="small-text">• No random access • Extra memory for pointers</text>
    </g>
  </g>

  <!-- Arrow marker -->
  <defs>
    <marker id="arrowhead" markerWidth="10" markerHeight="7" refX="9" refY="3.5" orient="auto">
      <polygon points="0 0, 10 3.5, 0 7" fill="#e74c3c"/>
    </marker>
    <marker id="arrowhead-green" markerWidth="10" markerHeight="7" refX="9" refY="3.5" orient="auto">
      <polygon points="0 0, 10 3.5, 0 7" fill="#27ae60"/>
    </marker>
    <marker id="arrowhead-blue" markerWidth="10" markerHeight="7" refX="9" refY="3.5" orient="auto">
      <polygon points="0 0, 10 3.5, 0 7" fill="#3498db"/>
    </marker>
  </defs>

  <!-- Doubly Linked List Section -->
  <g transform="translate(500, 100)">
    <text x="0" y="0" class="subtitle">2. Doubly Linked List</text>

    <!-- Node Structure -->
    <g transform="translate(0, 30)">
      <text x="0" y="0" class="text" font-weight="bold">Node Structure:</text>

      <!-- Single Node -->
      <g transform="translate(0, 20)">
        <rect x="0" y="0" width="40" height="40" fill="#e74c3c" stroke="#c0392b" stroke-width="2"/>
        <rect x="40" y="0" width="80" height="40" fill="#3498db" stroke="#2980b9" stroke-width="2"/>
        <rect x="120" y="0" width="40" height="40" fill="#e74c3c" stroke="#c0392b" stroke-width="2"/>

        <text x="20" y="25" text-anchor="middle" class="small-text" fill="white">Prev</text>
        <text x="80" y="25" text-anchor="middle" class="small-text" fill="white">Data</text>
        <text x="140" y="25" text-anchor="middle" class="small-text" fill="white">Next</text>

        <text x="80" y="55" text-anchor="middle" class="small-text">Doubly Linked Node</text>
      </g>

      <!-- Complete List -->
      <g transform="translate(0, 100)">
        <text x="0" y="-10" class="text">Complete Doubly Linked List:</text>

        <!-- Node 1 -->
        <rect x="0" y="0" width="25" height="25" fill="#95a5a6" stroke="#7f8c8d" stroke-width="1"/>
        <rect x="25" y="0" width="50" height="25" fill="#3498db" stroke="#2980b9" stroke-width="1"/>
        <rect x="75" y="0" width="25" height="25" fill="#e74c3c" stroke="#c0392b" stroke-width="1"/>
        <text x="12" y="17" text-anchor="middle" class="small-text">NULL</text>
        <text x="50" y="17" text-anchor="middle" class="small-text" fill="white">10</text>

        <!-- Forward Arrow 1 -->
        <path d="M 100 12 L 130 12" stroke="#e74c3c" stroke-width="2" marker-end="url(#arrowhead)"/>

        <!-- Node 2 -->
        <rect x="140" y="0" width="25" height="25" fill="#e74c3c" stroke="#c0392b" stroke-width="1"/>
        <rect x="165" y="0" width="50" height="25" fill="#3498db" stroke="#2980b9" stroke-width="1"/>
        <rect x="215" y="0" width="25" height="25" fill="#e74c3c" stroke="#c0392b" stroke-width="1"/>
        <text x="190" y="17" text-anchor="middle" class="small-text" fill="white">20</text>

        <!-- Backward Arrow 1 -->
        <path d="M 140 12 L 110 12" stroke="#f39c12" stroke-width="2" marker-end="url(#arrowhead-orange)"/>

        <!-- Forward Arrow 2 -->
        <path d="M 240 12 L 270 12" stroke="#e74c3c" stroke-width="2" marker-end="url(#arrowhead)"/>

        <!-- Node 3 -->
        <rect x="280" y="0" width="25" height="25" fill="#e74c3c" stroke="#c0392b" stroke-width="1"/>
        <rect x="305" y="0" width="50" height="25" fill="#3498db" stroke="#2980b9" stroke-width="1"/>
        <rect x="355" y="0" width="25" height="25" fill="#95a5a6" stroke="#7f8c8d" stroke-width="1"/>
        <text x="330" y="17" text-anchor="middle" class="small-text" fill="white">30</text>
        <text x="367" y="17" text-anchor="middle" class="small-text">NULL</text>

        <!-- Backward Arrow 2 -->
        <path d="M 280 12 L 250 12" stroke="#f39c12" stroke-width="2" marker-end="url(#arrowhead-orange)"/>

        <!-- Head pointer -->
        <path d="M 50 -20 L 50 0" stroke="#27ae60" stroke-width="2" marker-end="url(#arrowhead-green)"/>
        <text x="50" y="-25" text-anchor="middle" class="small-text" fill="#27ae60">Head</text>
      </g>
    </g>

    <!-- Advantages -->
    <g transform="translate(0, 200)">
      <rect x="0" y="0" width="380" height="80" fill="#ecf0f1" stroke="#bdc3c7" stroke-width="1" rx="5"/>
      <text x="10" y="20" class="text" font-weight="bold" fill="#27ae60">Advantages:</text>
      <text x="15" y="35" class="small-text">• Bidirectional traversal</text>
      <text x="15" y="50" class="small-text">• Efficient deletion with node reference</text>
      <text x="15" y="65" class="small-text">• Better for complex operations</text>
    </g>
  </g>

  <!-- Orange arrow marker -->
  <defs>
    <marker id="arrowhead-orange" markerWidth="10" markerHeight="7" refX="9" refY="3.5" orient="auto">
      <polygon points="0 0, 10 3.5, 0 7" fill="#f39c12"/>
    </marker>
  </defs>

  <!-- Circular Linked List Section -->
  <g transform="translate(950, 100)">
    <text x="0" y="0" class="subtitle">3. Circular Linked List</text>

    <!-- Circular representation -->
    <g transform="translate(100, 50)">
      <circle cx="80" cy="80" r="70" fill="none" stroke="#3498db" stroke-width="2" stroke-dasharray="5,5"/>

      <!-- Nodes positioned in circle -->
      <g transform="translate(80, 20)">
        <rect x="-25" y="-12" width="40" height="20" fill="#3498db" stroke="#2980b9" stroke-width="1"/>
        <rect x="15" y="-12" width="15" height="20" fill="#e74c3c" stroke="#c0392b" stroke-width="1"/>
        <text x="-5" y="2" text-anchor="middle" class="small-text" fill="white">10</text>
      </g>

      <g transform="translate(130, 80)">
        <rect x="-25" y="-12" width="40" height="20" fill="#3498db" stroke="#2980b9" stroke-width="1"/>
        <rect x="15" y="-12" width="15" height="20" fill="#e74c3c" stroke="#c0392b" stroke-width="1"/>
        <text x="-5" y="2" text-anchor="middle" class="small-text" fill="white">20</text>
      </g>

      <g transform="translate(80, 140)">
        <rect x="-25" y="-12" width="40" height="20" fill="#3498db" stroke="#2980b9" stroke-width="1"/>
        <rect x="15" y="-12" width="15" height="20" fill="#e74c3c" stroke="#c0392b" stroke-width="1"/>
        <text x="-5" y="2" text-anchor="middle" class="small-text" fill="white">30</text>
      </g>

      <g transform="translate(30, 80)">
        <rect x="-25" y="-12" width="40" height="20" fill="#3498db" stroke="#2980b9" stroke-width="1"/>
        <rect x="15" y="-12" width="15" height="20" fill="#e74c3c" stroke="#c0392b" stroke-width="1"/>
        <text x="-5" y="2" text-anchor="middle" class="small-text" fill="white">40</text>
      </g>

      <!-- Arrows showing circular nature -->
      <path d="M 95 25 L 115 70" stroke="#e74c3c" stroke-width="2" marker-end="url(#arrowhead)"/>
      <path d="M 125 95 L 95 125" stroke="#e74c3c" stroke-width="2" marker-end="url(#arrowhead)"/>
      <path d="M 65 135 L 35 95" stroke="#e74c3c" stroke-width="2" marker-end="url(#arrowhead)"/>
      <path d="M 35 65 L 65 35" stroke="#e74c3c" stroke-width="2" marker-end="url(#arrowhead)"/>

      <!-- Head pointer -->
      <path d="M 80 -10 L 80 8" stroke="#27ae60" stroke-width="2" marker-end="url(#arrowhead-green)"/>
      <text x="80" y="-15" text-anchor="middle" class="small-text" fill="#27ae60">Head</text>

      <text x="80" y="190" text-anchor="middle" class="small-text">Last node points back to first</text>
    </g>

    <!-- Applications -->
    <g transform="translate(0, 250)">
      <rect x="0" y="0" width="300" height="60" fill="#ecf0f1" stroke="#bdc3c7" stroke-width="1" rx="5"/>
      <text x="10" y="20" class="text" font-weight="bold">Applications:</text>
      <text x="15" y="35" class="small-text">• Round-robin scheduling</text>
      <text x="15" y="50" class="small-text">• Josephus problem • Music playlists</text>
    </g>
  </g>

  <!-- Basic Operations Section -->
  <g transform="translate(50, 450)">
    <text x="0" y="0" class="subtitle">Basic Linked List Operations</text>

    <!-- Insertion Operations -->
    <g transform="translate(0, 40)">
      <text x="0" y="0" class="text" font-weight="bold">1. Insertion Operations</text>

      <!-- Insert at Beginning -->
      <g transform="translate(0, 30)">
        <text x="0" y="0" class="text">a) Insert at Beginning:</text>

        <!-- Before -->
        <g transform="translate(0, 20)">
          <text x="0" y="-5" class="small-text">Before:</text>
          <rect x="0" y="0" width="40" height="25" fill="#3498db" stroke="#2980b9" stroke-width="1"/>
          <rect x="40" y="0" width="20" height="25" fill="#e74c3c" stroke="#c0392b" stroke-width="1"/>
          <text x="20" y="17" text-anchor="middle" class="small-text" fill="white">10</text>
          <path d="M 60 12 L 90 12" stroke="#e74c3c" stroke-width="2" marker-end="url(#arrowhead)"/>

          <rect x="100" y="0" width="40" height="25" fill="#3498db" stroke="#2980b9" stroke-width="1"/>
          <rect x="140" y="0" width="20" height="25" fill="#95a5a6" stroke="#7f8c8d" stroke-width="1"/>
          <text x="120" y="17" text-anchor="middle" class="small-text" fill="white">20</text>
          <text x="150" y="17" text-anchor="middle" class="small-text">NULL</text>

          <path d="M 20 -15 L 20 0" stroke="#27ae60" stroke-width="2" marker-end="url(#arrowhead-green)"/>
          <text x="20" y="-20" text-anchor="middle" class="small-text" fill="#27ae60">Head</text>
        </g>

        <!-- After -->
        <g transform="translate(0, 70)">
          <text x="0" y="-5" class="small-text">After inserting 5:</text>
          <rect x="0" y="0" width="40" height="25" fill="#27ae60" stroke="#229954" stroke-width="2"/>
          <rect x="40" y="0" width="20" height="25" fill="#e74c3c" stroke="#c0392b" stroke-width="1"/>
          <text x="20" y="17" text-anchor="middle" class="small-text" fill="white">5</text>
          <path d="M 60 12 L 90 12" stroke="#e74c3c" stroke-width="2" marker-end="url(#arrowhead)"/>

          <rect x="100" y="0" width="40" height="25" fill="#3498db" stroke="#2980b9" stroke-width="1"/>
          <rect x="140" y="0" width="20" height="25" fill="#e74c3c" stroke="#c0392b" stroke-width="1"/>
          <text x="120" y="17" text-anchor="middle" class="small-text" fill="white">10</text>
          <path d="M 160 12 L 190 12" stroke="#e74c3c" stroke-width="2" marker-end="url(#arrowhead)"/>

          <rect x="200" y="0" width="40" height="25" fill="#3498db" stroke="#2980b9" stroke-width="1"/>
          <rect x="240" y="0" width="20" height="25" fill="#95a5a6" stroke="#7f8c8d" stroke-width="1"/>
          <text x="220" y="17" text-anchor="middle" class="small-text" fill="white">20</text>
          <text x="250" y="17" text-anchor="middle" class="small-text">NULL</text>

          <path d="M 20 -15 L 20 0" stroke="#27ae60" stroke-width="2" marker-end="url(#arrowhead-green)"/>
          <text x="20" y="-20" text-anchor="middle" class="small-text" fill="#27ae60">Head</text>
        </g>
      </g>
    </g>

    <!-- Deletion Operations -->
    <g transform="translate(400, 40)">
      <text x="0" y="0" class="text" font-weight="bold">2. Deletion Operations</text>

      <!-- Delete from Beginning -->
      <g transform="translate(0, 30)">
        <text x="0" y="0" class="text">a) Delete from Beginning:</text>

        <!-- Before -->
        <g transform="translate(0, 20)">
          <text x="0" y="-5" class="small-text">Before:</text>
          <rect x="0" y="0" width="40" height="25" fill="#e74c3c" stroke="#c0392b" stroke-width="2"/>
          <rect x="40" y="0" width="20" height="25" fill="#e74c3c" stroke="#c0392b" stroke-width="1"/>
          <text x="20" y="17" text-anchor="middle" class="small-text" fill="white">5</text>
          <path d="M 60 12 L 90 12" stroke="#e74c3c" stroke-width="2" marker-end="url(#arrowhead)"/>

          <rect x="100" y="0" width="40" height="25" fill="#3498db" stroke="#2980b9" stroke-width="1"/>
          <rect x="140" y="0" width="20" height="25" fill="#e74c3c" stroke="#c0392b" stroke-width="1"/>
          <text x="120" y="17" text-anchor="middle" class="small-text" fill="white">10</text>
          <path d="M 160 12 L 190 12" stroke="#e74c3c" stroke-width="2" marker-end="url(#arrowhead)"/>

          <rect x="200" y="0" width="40" height="25" fill="#3498db" stroke="#2980b9" stroke-width="1"/>
          <rect x="240" y="0" width="20" height="25" fill="#95a5a6" stroke="#7f8c8d" stroke-width="1"/>
          <text x="220" y="17" text-anchor="middle" class="small-text" fill="white">20</text>
          <text x="250" y="17" text-anchor="middle" class="small-text">NULL</text>

          <path d="M 20 -15 L 20 0" stroke="#27ae60" stroke-width="2" marker-end="url(#arrowhead-green)"/>
          <text x="20" y="-20" text-anchor="middle" class="small-text" fill="#27ae60">Head</text>
        </g>

        <!-- After -->
        <g transform="translate(0, 70)">
          <text x="0" y="-5" class="small-text">After deleting 5:</text>

          <rect x="100" y="0" width="40" height="25" fill="#3498db" stroke="#2980b9" stroke-width="1"/>
          <rect x="140" y="0" width="20" height="25" fill="#e74c3c" stroke="#c0392b" stroke-width="1"/>
          <text x="120" y="17" text-anchor="middle" class="small-text" fill="white">10</text>
          <path d="M 160 12 L 190 12" stroke="#e74c3c" stroke-width="2" marker-end="url(#arrowhead)"/>

          <rect x="200" y="0" width="40" height="25" fill="#3498db" stroke="#2980b9" stroke-width="1"/>
          <rect x="240" y="0" width="20" height="25" fill="#95a5a6" stroke="#7f8c8d" stroke-width="1"/>
          <text x="220" y="17" text-anchor="middle" class="small-text" fill="white">20</text>
          <text x="250" y="17" text-anchor="middle" class="small-text">NULL</text>

          <path d="M 120 -15 L 120 0" stroke="#27ae60" stroke-width="2" marker-end="url(#arrowhead-green)"/>
          <text x="120" y="-20" text-anchor="middle" class="small-text" fill="#27ae60">Head</text>
        </g>
      </g>
    </g>

    <!-- Search Operation -->
    <g transform="translate(800, 40)">
      <text x="0" y="0" class="text" font-weight="bold">3. Search Operation</text>

      <g transform="translate(0, 30)">
        <text x="0" y="0" class="text">Sequential search through nodes:</text>

        <g transform="translate(0, 20)">
          <rect x="0" y="0" width="40" height="25" fill="#f39c12" stroke="#e67e22" stroke-width="2"/>
          <rect x="40" y="0" width="20" height="25" fill="#e74c3c" stroke="#c0392b" stroke-width="1"/>
          <text x="20" y="17" text-anchor="middle" class="small-text" fill="white">10</text>
          <path d="M 60 12 L 90 12" stroke="#e74c3c" stroke-width="2" marker-end="url(#arrowhead)"/>

          <rect x="100" y="0" width="40" height="25" fill="#3498db" stroke="#2980b9" stroke-width="1"/>
          <rect x="140" y="0" width="20" height="25" fill="#e74c3c" stroke="#c0392b" stroke-width="1"/>
          <text x="120" y="17" text-anchor="middle" class="small-text" fill="white">20</text>
          <path d="M 160 12 L 190 12" stroke="#e74c3c" stroke-width="2" marker-end="url(#arrowhead)"/>

          <rect x="200" y="0" width="40" height="25" fill="#3498db" stroke="#2980b9" stroke-width="1"/>
          <rect x="240" y="0" width="20" height="25" fill="#95a5a6" stroke="#7f8c8d" stroke-width="1"/>
          <text x="220" y="17" text-anchor="middle" class="small-text" fill="white">30</text>
          <text x="250" y="17" text-anchor="middle" class="small-text">NULL</text>

          <text x="20" y="40" text-anchor="middle" class="small-text" fill="#f39c12">Searching...</text>
          <text x="0" y="60" class="small-text">Time Complexity: O(n)</text>
        </g>
      </g>
    </g>
  </g>

  <!-- Python Implementation -->
  <g transform="translate(50, 700)">
    <text x="0" y="0" class="subtitle">Python Implementation - Singly Linked List</text>

    <rect x="0" y="20" width="800" height="500" fill="#2c3e50" stroke="#34495e" stroke-width="2" rx="5"/>

    <!-- Node Class -->
    <text x="20" y="45" class="code" fill="#3498db">class Node:</text>
    <text x="40" y="65" class="code" fill="#ecf0f1">def __init__(self, data):</text>
    <text x="60" y="85" class="code" fill="#ecf0f1">self.data = data</text>
    <text x="60" y="105" class="code" fill="#ecf0f1">self.next = None</text>

    <!-- LinkedList Class -->
    <text x="20" y="135" class="code" fill="#3498db">class LinkedList:</text>
    <text x="40" y="155" class="code" fill="#ecf0f1">def __init__(self):</text>
    <text x="60" y="175" class="code" fill="#ecf0f1">self.head = None</text>

    <!-- Insert at Beginning -->
    <text x="40" y="205" class="code" fill="#3498db">def insert_at_beginning(self, data):</text>
    <text x="60" y="225" class="code" fill="#ecf0f1">new_node = Node(data)</text>
    <text x="60" y="245" class="code" fill="#ecf0f1">new_node.next = self.head</text>
    <text x="60" y="265" class="code" fill="#ecf0f1">self.head = new_node</text>

    <!-- Insert at End -->
    <text x="40" y="295" class="code" fill="#3498db">def insert_at_end(self, data):</text>
    <text x="60" y="315" class="code" fill="#ecf0f1">new_node = Node(data)</text>
    <text x="60" y="335" class="code" fill="#ecf0f1">if not self.head:</text>
    <text x="80" y="355" class="code" fill="#ecf0f1">self.head = new_node</text>
    <text x="80" y="375" class="code" fill="#ecf0f1">return</text>
    <text x="60" y="395" class="code" fill="#ecf0f1">current = self.head</text>
    <text x="60" y="415" class="code" fill="#ecf0f1">while current.next:</text>
    <text x="80" y="435" class="code" fill="#ecf0f1">current = current.next</text>
    <text x="60" y="455" class="code" fill="#ecf0f1">current.next = new_node</text>

    <!-- Delete -->
    <text x="40" y="485" class="code" fill="#3498db">def delete(self, data):</text>
    <text x="60" y="505" class="code" fill="#ecf0f1">if not self.head:</text>
  </g>

  <!-- Python Implementation Continued -->
  <g transform="translate(900, 700)">
    <rect x="0" y="20" width="800" height="500" fill="#2c3e50" stroke="#34495e" stroke-width="2" rx="5"/>

    <text x="20" y="45" class="code" fill="#e74c3c">return</text>
    <text x="0" y="65" class="code" fill="#ecf0f1">if self.head.data == data:</text>
    <text x="20" y="85" class="code" fill="#ecf0f1">self.head = self.head.next</text>
    <text x="20" y="105" class="code" fill="#ecf0f1">return</text>
    <text x="0" y="125" class="code" fill="#ecf0f1">current = self.head</text>
    <text x="0" y="145" class="code" fill="#ecf0f1">while current.next:</text>
    <text x="20" y="165" class="code" fill="#ecf0f1">if current.next.data == data:</text>
    <text x="40" y="185" class="code" fill="#ecf0f1">current.next = current.next.next</text>
    <text x="40" y="205" class="code" fill="#ecf0f1">return</text>
    <text x="20" y="225" class="code" fill="#ecf0f1">current = current.next</text>

    <!-- Search -->
    <text x="0" y="255" class="code" fill="#3498db">def search(self, data):</text>
    <text x="20" y="275" class="code" fill="#ecf0f1">current = self.head</text>
    <text x="20" y="295" class="code" fill="#ecf0f1">while current:</text>
    <text x="40" y="315" class="code" fill="#ecf0f1">if current.data == data:</text>
    <text x="60" y="335" class="code" fill="#ecf0f1">return True</text>
    <text x="40" y="355" class="code" fill="#ecf0f1">current = current.next</text>
    <text x="20" y="375" class="code" fill="#ecf0f1">return False</text>

    <!-- Display -->
    <text x="0" y="405" class="code" fill="#3498db">def display(self):</text>
    <text x="20" y="425" class="code" fill="#ecf0f1">elements = []</text>
    <text x="20" y="445" class="code" fill="#ecf0f1">current = self.head</text>
    <text x="20" y="465" class="code" fill="#ecf0f1">while current:</text>
    <text x="40" y="485" class="code" fill="#ecf0f1">elements.append(current.data)</text>
    <text x="40" y="505" class="code" fill="#ecf0f1">current = current.next</text>
  </g>

  <!-- Time Complexity Analysis -->
  <g transform="translate(50, 1250)">
    <text x="0" y="0" class="subtitle">Time Complexity Analysis</text>

    <rect x="0" y="20" width="1500" height="100" fill="#ecf0f1" stroke="#bdc3c7" stroke-width="2" rx="5"/>

    <!-- Table Headers -->
    <text x="20" y="45" class="text" font-weight="bold">Operation</text>
    <text x="200" y="45" class="text" font-weight="bold">Singly Linked List</text>
    <text x="400" y="45" class="text" font-weight="bold">Doubly Linked List</text>
    <text x="600" y="45" class="text" font-weight="bold">Array (for comparison)</text>
    <text x="850" y="45" class="text" font-weight="bold">Notes</text>

    <!-- Table Data -->
    <text x="20" y="70" class="text">Insert at Beginning</text>
    <text x="200" y="70" class="text" fill="#27ae60">O(1)</text>
    <text x="400" y="70" class="text" fill="#27ae60">O(1)</text>
    <text x="600" y="70" class="text" fill="#e74c3c">O(n)</text>
    <text x="850" y="70" class="small-text">Linked lists excel here</text>

    <text x="20" y="90" class="text">Insert at End</text>
    <text x="200" y="90" class="text" fill="#f39c12">O(n)</text>
    <text x="400" y="90" class="text" fill="#27ae60">O(1)*</text>
    <text x="600" y="90" class="text" fill="#27ae60">O(1)</text>
    <text x="850" y="90" class="small-text">*With tail pointer</text>

    <text x="20" y="110" class="text">Search/Access</text>
    <text x="200" y="110" class="text" fill="#e74c3c">O(n)</text>
    <text x="400" y="110" class="text" fill="#e74c3c">O(n)</text>
    <text x="600" y="110" class="text" fill="#27ae60">O(1)</text>
    <text x="850" y="110" class="small-text">Arrays provide random access</text>
  </g>

</svg>