<svg viewBox="0 0 1800 1400" xmlns="http://www.w3.org/2000/svg">
  <defs>
    <linearGradient id="bgGrad" x1="0%" y1="0%" x2="100%" y2="100%">
      <stop offset="0%" style="stop-color:#f8f9fa;stop-opacity:1" />
      <stop offset="100%" style="stop-color:#e9ecef;stop-opacity:1" />
    </linearGradient>
    <linearGradient id="siliconGrad" x1="0%" y1="0%" x2="100%" y2="100%">
      <stop offset="0%" style="stop-color:#495057;stop-opacity:0.8" />
      <stop offset="100%" style="stop-color:#6c757d;stop-opacity:0.8" />
    </linearGradient>
    <linearGradient id="pTypeGrad" x1="0%" y1="0%" x2="100%" y2="100%">
      <stop offset="0%" style="stop-color:#dc3545;stop-opacity:0.8" />
      <stop offset="100%" style="stop-color:#ff6b6b;stop-opacity:0.8" />
    </linearGradient>
    <linearGradient id="nTypeGrad" x1="0%" y1="0%" x2="100%" y2="100%">
      <stop offset="0%" style="stop-color:#007bff;stop-opacity:0.8" />
      <stop offset="100%" style="stop-color:#66b3ff;stop-opacity:0.8" />
    </linearGradient>
    <linearGradient id="contactGrad" x1="0%" y1="0%" x2="100%" y2="100%">
      <stop offset="0%" style="stop-color:#ffc107;stop-opacity:0.9" />
      <stop offset="100%" style="stop-color:#ffda6a;stop-opacity:0.9" />
    </linearGradient>
    <linearGradient id="lightGrad" x1="0%" y1="0%" x2="0%" y2="100%">
      <stop offset="0%" style="stop-color:#ffc107;stop-opacity:0.8" />
      <stop offset="100%" style="stop-color:#fff3cd;stop-opacity:0.3" />
    </linearGradient>
    <radialGradient id="sunGrad" cx="50%" cy="50%" r="50%">
      <stop offset="0%" style="stop-color:#ffc107;stop-opacity:1" />
      <stop offset="100%" style="stop-color:#ffda6a;stop-opacity:0.8" />
    </radialGradient>
    <marker id="arrowhead" markerWidth="10" markerHeight="7" refX="9" refY="3.5" orient="auto">
      <polygon points="0 0, 10 3.5, 0 7" fill="#333" />
    </marker>
    <marker id="lightArrow" markerWidth="8" markerHeight="6" refX="7" refY="3" orient="auto">
      <polygon points="0 0, 8 3, 0 6" fill="#ffc107" />
    </marker>
    <marker id="electronArrow" markerWidth="8" markerHeight="6" refX="7" refY="3" orient="auto">
      <polygon points="0 0, 8 3, 0 6" fill="#007bff" />
    </marker>
    <marker id="holeArrow" markerWidth="8" markerHeight="6" refX="7" refY="3" orient="auto">
      <polygon points="0 0, 8 3, 0 6" fill="#dc3545" />
    </marker>
  </defs>

  <!-- Background -->
  <rect width="1800" height="1400" fill="url(#bgGrad)" />

  <!-- Main Title -->
  <text x="900" y="40" text-anchor="middle" font-family="Arial, sans-serif" font-size="28" font-weight="bold" fill="#2c3e50">
    Photovoltaic (PV) Cell Construction &amp; Working Principle
  </text>

  <!-- PV Cell Structure Section -->
  <g transform="translate(50,80)">
    <rect x="0" y="0" width="800" height="400" fill="rgba(0,123,255,0.1)" rx="15" />
    <text x="400" y="25" text-anchor="middle" font-family="Arial, sans-serif" font-size="20" font-weight="bold" fill="#007bff">
      PV CELL CONSTRUCTION &amp; LAYERS
    </text>

    <!-- Cross-sectional View -->
    <g transform="translate(50,50)">
      <text x="350" y="20" text-anchor="middle" font-family="Arial, sans-serif" font-size="16" font-weight="bold" fill="#333">
        Cross-Sectional Structure
      </text>

      <!-- Sun and Light Rays -->
      <g transform="translate(300,40)">
        <circle cx="50" cy="30" r="20" fill="url(#sunGrad)" />
        <g stroke="#ffc107" stroke-width="2" opacity="0.8">
          <line x1="30" y1="15" x2="25" y2="10" />
          <line x1="70" y1="15" x2="75" y2="10" />
          <line x1="30" y1="45" x2="25" y2="50" />
          <line x1="70" y1="45" x2="75" y2="50" />
          <line x1="15" y1="30" x2="10" y2="30" />
          <line x1="85" y1="30" x2="90" y2="30" />
          <line x1="20" y1="20" x2="15" y2="15" />
          <line x1="80" y1="20" x2="85" y2="15" />
        </g>
        <text x="50" y="5" text-anchor="middle" font-family="Arial, sans-serif" font-size="10" font-weight="bold" fill="#ffc107">SUN</text>
      </g>

      <!-- Light rays coming down -->
      <g stroke="#ffc107" stroke-width="3" marker-end="url(#lightArrow)" opacity="0.7">
        <line x1="300" y1="80" x2="300" y2="120" />
        <line x1="320" y1="80" x2="320" y2="120" />
        <line x1="340" y1="80" x2="340" y2="120" />
        <line x1="360" y1="80" x2="360" y2="120" />
        <line x1="380" y1="80" x2="380" y2="120" />
        <line x1="400" y1="80" x2="400" y2="120" />
      </g>
      <text x="350" y="105" text-anchor="middle" font-family="Arial, sans-serif" font-size="11" fill="#ffc107">
        Solar Radiation (1000 W/m²)
      </text>

      <!-- Anti-reflective coating -->
      <rect x="250" y="130" width="200" height="8" fill="#17a2b8" />
      <text x="150" y="138" text-anchor="middle" font-family="Arial, sans-serif" font-size="11" fill="#17a2b8">
        Anti-Reflective Coating (TiO₂/SiN)
      </text>

      <!-- Front Contact Grid -->
      <g fill="#ffc107">
        <rect x="250" y="140" width="200" height="3" />
        <!-- Grid lines -->
        <rect x="270" y="140" width="2" height="15" />
        <rect x="300" y="140" width="2" height="15" />
        <rect x="330" y="140" width="2" height="15" />
        <rect x="360" y="140" width="2" height="15" />
        <rect x="390" y="140" width="2" height="15" />
        <rect x="420" y="140" width="2" height="15" />
      </g>
      <text x="150" y="150" text-anchor="middle" font-family="Arial, sans-serif" font-size="11" fill="#ffc107">
        Front Metal Contacts (Ag)
      </text>

      <!-- N-type layer -->
      <rect x="250" y="155" width="200" height="30" fill="url(#nTypeGrad)" />
      <text x="350" y="175" text-anchor="middle" font-family="Arial, sans-serif" font-size="12" font-weight="bold" fill="white">
        N-TYPE SILICON
      </text>
      <text x="350" y="188" text-anchor="middle" font-family="Arial, sans-serif" font-size="10" fill="white">
        (Phosphorus doped, excess electrons)
      </text>
      <text x="150" y="175" text-anchor="middle" font-family="Arial, sans-serif" font-size="11" fill="#007bff">
        N-Type Layer (~0.5 μm)
      </text>

      <!-- PN Junction -->
      <line x1="250" y1="185" x2="450" y2="185" stroke="#28a745" stroke-width="4" stroke-dasharray="10,5" />
      <text x="150" y="190" text-anchor="middle" font-family="Arial, sans-serif" font-size="11" font-weight="bold" fill="#28a745">
        P-N Junction
      </text>
      <text x="470" y="190" font-family="Arial, sans-serif" font-size="10" fill="#28a745">
        Built-in Electric Field
      </text>

      <!-- P-type layer -->
      <rect x="250" y="185" width="200" height="80" fill="url(#pTypeGrad)" />
      <text x="350" y="225" text-anchor="middle" font-family="Arial, sans-serif" font-size="12" font-weight="bold" fill="white">
        P-TYPE SILICON
      </text>
      <text x="350" y="238" text-anchor="middle" font-family="Arial, sans-serif" font-size="10" fill="white">
        (Boron doped, excess holes)
      </text>
      <text x="150" y="225" text-anchor="middle" font-family="Arial, sans-serif" font-size="11" fill="#dc3545">
        P-Type Layer (~200 μm)
      </text>

      <!-- Back Contact -->
      <rect x="250" y="265" width="200" height="8" fill="url(#contactGrad)" />
      <text x="150" y="273" text-anchor="middle" font-family="Arial, sans-serif" font-size="11" fill="#ffc107">
        Back Metal Contact (Al/Ag)
      </text>

      <!-- Substrate -->
      <rect x="250" y="273" width="200" height="15" fill="#6c757d" />
      <text x="150" y="283" text-anchor="middle" font-family="Arial, sans-serif" font-size="11" fill="#6c757d">
        Substrate Support
      </text>

      <!-- Dimensions -->
      <g stroke="#333" stroke-width="1" fill="none">
        <line x1="460" y1="130" x2="460" y2="288" marker-end="url(#arrowhead)" />
        <line x1="460" y1="288" x2="460" y2="130" marker-end="url(#arrowhead)" />
        <text x="470" y="210" font-family="Arial, sans-serif" font-size="10" fill="#333">~200-300 μm</text>
      </g>

      <!-- External Circuit -->
      <g stroke="#333" stroke-width="3" fill="none">
        <line x1="280" y1="140" x2="280" y2="100" />
        <line x1="280" y1="100" x2="160" y2="100" />
        <line x1="160" y1="100" x2="160" y2="120" />
        <!-- Load resistor -->
        <g transform="translate(140,115)">
          <rect x="0" y="0" width="40" height="10" fill="none" stroke="#333" stroke-width="2" />
          <text x="20" y="8" text-anchor="middle" font-family="Arial, sans-serif" font-size="8" fill="#333">LOAD</text>
        </g>
        <line x1="160" y1="130" x2="160" y2="300" />
        <line x1="160" y1="300" x2="350" y2="300" />
        <line x1="350" y1="300" x2="350" y2="275" />
      </g>

      <!-- Current flow indication -->
      <g stroke="#28a745" stroke-width="2" marker-end="url(#arrowhead)">
        <path d="M 200,110 Q 220,110 240,110" />
        <text x="220" y="105" text-anchor="middle" font-family="Arial, sans-serif" font-size="9" fill="#28a745">
          Current Flow
        </text>
      </g>
    </g>
  </g>

  <!-- Working Principle Section -->
  <g transform="translate(870,80)">
    <rect x="0" y="0" width="880" height="400" fill="rgba(40,167,69,0.1)" rx="15" />
    <text x="440" y="25" text-anchor="middle" font-family="Arial, sans-serif" font-size="20" font-weight="bold" fill="#28a745">
      PHOTOVOLTAIC EFFECT &amp; WORKING PRINCIPLE
    </text>

    <!-- Step 1: Photon Absorption -->
    <g transform="translate(30,50)">
      <rect x="0" y="0" width="250" height="150" fill="rgba(255,193,7,0.1)" rx="10" />
      <text x="125" y="20" text-anchor="middle" font-family="Arial, sans-serif" font-size="14" font-weight="bold" fill="#ffc107">
        1. PHOTON ABSORPTION
      </text>

      <!-- Silicon lattice representation -->
      <g transform="translate(50,30)">
        <!-- Silicon atoms -->
        <g fill="#6c757d" stroke="#333" stroke-width="1">
          <circle cx="30" cy="30" r="8" />
          <circle cx="70" cy="30" r="8" />
          <circle cx="110" cy="30" r="8" />
          <circle cx="150" cy="30" r="8" />
          <circle cx="30" cy="70" r="8" />
          <circle cx="70" cy="70" r="8" />
          <circle cx="110" cy="70" r="8" />
          <circle cx="150" cy="70" r="8" />
        </g>

        <!-- Bonds -->
        <g stroke="#333" stroke-width="2">
          <line x1="38" y1="30" x2="62" y2="30" />
          <line x1="78" y1="30" x2="102" y2="30" />
          <line x1="118" y1="30" x2="142" y2="30" />
          <line x1="38" y1="70" x2="62" y2="70" />
          <line x1="78" y1="70" x2="102" y2="70" />
          <line x1="118" y1="70" x2="142" y2="70" />
          <line x1="30" y1="38" x2="30" y2="62" />
          <line x1="70" y1="38" x2="70" y2="62" />
          <line x1="110" y1="38" x2="110" y2="62" />
          <line x1="150" y1="38" x2="150" y2="62" />
        </g>

        <!-- Incoming photon -->
        <g stroke="#ffc107" stroke-width="3" marker-end="url(#lightArrow)">
          <path d="M 90,0 Q 90,10 90,20" />
        </g>
        <text x="95" y="15" font-family="Arial, sans-serif" font-size="9" fill="#ffc107">hν</text>

        <!-- Labels -->
        <text x="30" y="20" text-anchor="middle" font-family="Arial, sans-serif" font-size="8" fill="#333">Si</text>
        <text x="70" y="20" text-anchor="middle" font-family="Arial, sans-serif" font-size="8" fill="#333">Si</text>
        <text x="110" y="20" text-anchor="middle" font-family="Arial, sans-serif" font-size="8" fill="#333">Si</text>
        <text x="150" y="20" text-anchor="middle" font-family="Arial, sans-serif" font-size="8" fill="#333">Si</text>
      </g>

      <text x="125" y="125" text-anchor="middle" font-family="Arial, sans-serif" font-size="11" fill="#333">
        Photon energy ≥ Band gap (1.1 eV for Si)
      </text>
      <text x="125" y="140" text-anchor="middle" font-family="Arial, sans-serif" font-size="11" fill="#333">
        E = hν = hc/λ
      </text>
    </g>

    <!-- Step 2: Electron-Hole Pair Generation -->
    <g transform="translate(300,50)">
      <rect x="0" y="0" width="250" height="150" fill="rgba(23,162,184,0.1)" rx="10" />
      <text x="125" y="20" text-anchor="middle" font-family="Arial, sans-serif" font-size="14" font-weight="bold" fill="#17a2b8">
        2. ELECTRON-HOLE GENERATION
      </text>

      <!-- Silicon lattice with broken bond -->
      <g transform="translate(50,30)">
        <!-- Silicon atoms -->
        <g fill="#6c757d" stroke="#333" stroke-width="1">
          <circle cx="30" cy="30" r="8" />
          <circle cx="70" cy="30" r="8" />
          <circle cx="110" cy="30" r="8" />
          <circle cx="150" cy="30" r="8" />
          <circle cx="30" cy="70" r="8" />
          <circle cx="70" cy="70" r="8" />
          <circle cx="110" cy="70" r="8" />
          <circle cx="150" cy="70" r="8" />
        </g>

        <!-- Bonds (with one broken) -->
        <g stroke="#333" stroke-width="2">
          <line x1="38" y1="30" x2="62" y2="30" />
          <line x1="78" y1="30" x2="102" y2="30" />
          <line x1="118" y1="30" x2="142" y2="30" />
          <line x1="38" y1="70" x2="62" y2="70" />
          <!-- Broken bond -->
          <line x1="78" y1="70" x2="90" y2="70" stroke-dasharray="3,3" />
          <line x1="92" y1="70" x2="102" y2="70" stroke-dasharray="3,3" />
          <line x1="118" y1="70" x2="142" y2="70" />
          <line x1="30" y1="38" x2="30" y2="62" />
          <line x1="70" y1="38" x2="70" y2="62" />
          <line x1="110" y1="38" x2="110" y2="62" />
          <line x1="150" y1="38" x2="150" y2="62" />
        </g>

        <!-- Free electron -->
        <circle cx="90" cy="50" r="4" fill="#007bff" />
        <text x="90" y="55" text-anchor="middle" font-family="Arial, sans-serif" font-size="6" fill="white">e⁻</text>

        <!-- Hole -->
        <circle cx="90" cy="90" r="4" fill="#dc3545" />
        <text x="90" y="95" text-anchor="middle" font-family="Arial, sans-serif" font-size="6" fill="white">h⁺</text>

        <!-- Energy indication -->
        <g stroke="#ffc107" stroke-width="2">
          <path d="M 85,45 Q 80,40 75,45" />
          <path d="M 95,45 Q 100,40 105,45" />
        </g>
      </g>

      <text x="125" y="125" text-anchor="middle" font-family="Arial, sans-serif" font-size="11" fill="#333">
        One photon creates one electron-hole pair
      </text>
      <text x="125" y="140" text-anchor="middle" font-family="Arial, sans-serif" font-size="11" fill="#333">
        Quantum efficiency ≈ 80-90%
      </text>
    </g>

    <!-- Step 3: Charge Separation -->
    <g transform="translate(570,50)">
      <rect x="0" y="0" width="280" height="150" fill="rgba(220,53,69,0.1)" rx="10" />
      <text x="140" y="20" text-anchor="middle" font-family="Arial, sans-serif" font-size="14" font-weight="bold" fill="#dc3545">
        3. CHARGE SEPARATION
      </text>

      <!-- P-N junction diagram -->
      <g transform="translate(30,30)">
        <!-- N-type region -->
        <rect x="0" y="20" width="100" height="60" fill="url(#nTypeGrad)" opacity="0.7" />
        <text x="50" y="40" text-anchor="middle" font-family="Arial, sans-serif" font-size="12" fill="white">N-TYPE</text>
        <text x="50" y="55" text-anchor="middle" font-family="Arial, sans-serif" font-size="10" fill="white">Electrons</text>

        <!-- P-type region -->
        <rect x="120" y="20" width="100" height="60" fill="url(#pTypeGrad)" opacity="0.7" />
        <text x="170" y="40" text-anchor="middle" font-family="Arial, sans-serif" font-size="12" fill="white">P-TYPE</text>
        <text x="170" y="55" text-anchor="middle" font-family="Arial, sans-serif" font-size="10" fill="white">Holes</text>

        <!-- Depletion region -->
        <rect x="100" y="20" width="20" height="60" fill="rgba(40,167,69,0.3)" />
        <text x="110" y="45" text-anchor="middle" font-family="Arial, sans-serif" font-size="8" fill="#333">
          Depletion
        </text>
        <text x="110" y="55" text-anchor="middle" font-family="Arial, sans-serif" font-size="8" fill="#333">
          Zone
        </text>

        <!-- Electric field arrows -->
        <g stroke="#28a745" stroke-width="2" marker-end="url(#arrowhead)">
          <line x1="105" y1="30" x2="115" y2="30" />
          <line x1="105" y1="40" x2="115" y2="40" />
          <line x1="105" y1="50" x2="115" y2="50" />
          <line x1="105" y1="60" x2="115" y2="60" />
          <line x1="105" y1="70" x2="115" y2="70" />
        </g>

        <!-- Electron movement -->
        <g stroke="#007bff" stroke-width="2" marker-end="url(#electronArrow)">
          <path d="M 170,30 Q 140,25 110,30" />
          <path d="M 170,35 Q 140,30 110,35" />
        </g>

        <!-- Hole movement -->
        <g stroke="#dc3545" stroke-width="2" marker-end="url(#holeArrow)">
          <path d="M 50,65 Q 80,70 110,65" />
          <path d="M 50,70 Q 80,75 110,70" />
        </g>

        <text x="110" y="15" text-anchor="middle" font-family="Arial, sans-serif" font-size="10" fill="#28a745">Built-in E-field</text>
      </g>

      <text x="140" y="120" text-anchor="middle" font-family="Arial, sans-serif" font-size="11" fill="#333">
        Electric field separates charge carriers
      </text>
      <text x="140" y="135" text-anchor="middle" font-family="Arial, sans-serif" font-size="11" fill="#333">
        Prevents recombination
      </text>
    </g>

    <!-- Step 4: Current Generation -->
    <g transform="translate(200,220)">
      <rect x="0" y="0" width="480" height="150" fill="rgba(111,66,193,0.1)" rx="10" />
      <text x="240" y="20" text-anchor="middle" font-family="Arial, sans-serif" font-size="14" font-weight="bold" fill="#6f42c1">
        4. CURRENT GENERATION &amp; EXTERNAL CIRCUIT
      </text>

      <!-- Complete circuit diagram -->
      <g transform="translate(80,30)">
        <!-- PV cell representation -->
        <rect x="100" y="30" width="80" height="50" fill="rgba(255,193,7,0.3)" stroke="#ffc107" stroke-width="3" />
        <text x="140" y="60" text-anchor="middle" font-family="Arial, sans-serif" font-size="12" fill="#333">PV CELL</text>

        <!-- External circuit -->
        <g stroke="#333" stroke-width="3" fill="none">
          <!-- Top wire -->
          <line x1="120" y1="30" x2="120" y2="10" />
          <line x1="120" y1="10" x2="40" y2="10" />
          <line x1="40" y1="10" x2="40" y2="30" />

          <!-- Load resistor -->
          <rect x="20" y="30" width="40" height="15" fill="none" stroke="#333" stroke-width="2" />
          <text x="40" y="42" text-anchor="middle" font-family="Arial, sans-serif" font-size="10" fill="#333">LOAD</text>

          <!-- Bottom wire -->
          <line x1="40" y1="45" x2="40" y2="100" />
          <line x1="40" y1="100" x2="140" y2="100" />
          <line x1="140" y1="100" x2="140" y2="80" />
        </g>

        <!-- Current flow arrows -->
        <g stroke="#28a745" stroke-width="3" marker-end="url(#arrowhead)">
          <path d="M 80,20 Q 100,20 120,20" />
          <path d="M 100,90 Q 80,90 60,90" />
        </g>

        <!-- Voltage indication -->
        <g stroke="#dc3545" stroke-width="2">
          <line x1="10" y1="25" x2="10" y2="50" marker-end="url(#arrowhead)" />
          <line x1="10" y1="50" x2="10" y2="25" marker-end="url(#arrowhead)" />
          <text x="5" y="40" text-anchor="middle" font-family="Arial, sans-serif" font-size="10" fill="#dc3545">V</text>
        </g>

        <!-- Labels -->
        <text x="100" y="25" text-anchor="middle" font-family="Arial, sans-serif" font-size="10" fill="#28a745">I</text>
        <text x="80" y="95" text-anchor="middle" font-family="Arial, sans-serif" font-size="10" fill="#28a745">I</text>

        <!-- Power indication -->
        <text x="200" y="40" text-anchor="middle" font-family="Arial, sans-serif" font-size="12" font-weight="bold" fill="#6f42c1">P = V × I</text>
        <text x="200" y="55" text-anchor="middle" font-family="Arial, sans-serif" font-size="11" fill="#333">Electrical Power Output</text>
      </g>

      <text x="240" y="120" text-anchor="middle" font-family="Arial, sans-serif" font-size="11" fill="#333">
        Continuous current flow as long as light is present
      </text>
      <text x="240" y="135" text-anchor="middle" font-family="Arial, sans-serif" font-size="11" fill="#333">
        Typical cell voltage: 0.5-0.6V, Current: 8-9 A/m²
      </text>
    </g>
  </g>

  <!-- I-V Characteristics -->
  <g transform="translate(50,500)">
    <rect x="0" y="0" width="800" height="300" fill="rgba(220,53,69,0.1)" rx="15" />
    <text x="400" y="25" text-anchor="middle" font-family="Arial, sans-serif" font-size="20" font-weight="bold" fill="#dc3545">
      I-V CHARACTERISTICS &amp; PERFORMANCE PARAMETERS
    </text>

    <!-- I-V Curve -->
    <g transform="translate(50,50)">
      <text x="150" y="20" text-anchor="middle" font-family="Arial, sans-serif" font-size="16" font-weight="bold" fill="#333">
        Current-Voltage Characteristic
      </text>

      <!-- Axes -->
      <g stroke="#333" stroke-width="2">
        <line x1="50" y1="200" x2="280" y2="200" marker-end="url(#arrowhead)" />
        <line x1="50" y1="200" x2="50" y2="50" marker-end="url(#arrowhead)" />
      </g>

      <!-- Labels -->
      <text x="290" y="205" font-family="Arial, sans-serif" font-size="12" fill="#333">Voltage (V)</text>
      <text x="45" y="45" font-family="Arial, sans-serif" font-size="12" fill="#333">Current (A)</text>

      <!-- I-V Curve -->
      <path d="M 50,80 L 50,85 L 52,90 L 55,95 L 60,100 L 70,105 L 85,110 L 105,115 L 130,120 L 160,125 L 190,135 L 210,150 L 225,170 L 235,190 L 240,200"
            fill="none" stroke="#dc3545" stroke-width="4" />

      <!-- Key points -->
      <circle cx="50" cy="80" r="4" fill="#007bff" />
      <text x="20" y="85" font-family="Arial, sans-serif" font-size="10" fill="#007bff">Isc</text>

      <circle cx="240" cy="200" r="4" fill="#007bff" />
      <text x="245" y="205" font-family="Arial, sans-serif" font-size="10" fill="#007bff">Voc</text>

      <circle cx="160" cy="125" r="4" fill="#28a745" />
      <text x="165" y="120" font-family="Arial, sans-serif" font-size="10" fill="#28a745">MPP</text>

      <!-- Grid lines -->
      <g stroke="#ccc" stroke-width="1" stroke-dasharray="2,2">
        <line x1="50" y1="80" x2="240" y2="80" />
        <line x1="240" y1="200" x2="240" y2="50" />
        <line x1="160" y1="200" x2="160" y2="50" />
        <line x1="50" y1="125" x2="280" y2="125" />
      </g>

      <!-- Values -->
      <text x="45" y="85" text-anchor="end" font-family="Arial, sans-serif" font-size="9" fill="#333">8.5</text>
      <text x="245" y="210" text-anchor="middle" font-family="Arial, sans-serif" font-size="9" fill="#333">0.6</text>
      <text x="165" y="210" text-anchor="middle" font-family="Arial, sans-serif" font-size="9" fill="#333">0.48</text>
      <text x="45" y="130" text-anchor="end" font-family="Arial, sans-serif" font-size="9" fill="#333">7.8</text>
    </g>

    <!-- Parameters -->
    <g transform="translate(350,50)">
      <text x="150" y="20" text-anchor="middle" font-family="Arial, sans-serif" font-size="16" font-weight="bold" fill="#333">
        Key Performance Parameters
      </text>

      <g transform="translate(20,40)">
        <text x="0" y="20" font-family="Arial, sans-serif" font-size="14" font-weight="bold" fill="#007bff">Short Circuit Current (Isc):</text>
        <text x="0" y="35" font-family="Arial, sans-serif" font-size="12" fill="#333">• Maximum current at V = 0</text>
        <text x="0" y="50" font-family="Arial, sans-serif" font-size="12" fill="#333">• Proportional to light intensity</text>

        <text x="0" y="75" font-family="Arial, sans-serif" font-size="14" font-weight="bold" fill="#007bff">Open Circuit Voltage (Voc):</text>
        <text x="0" y="90" font-family="Arial, sans-serif" font-size="12" fill="#333">• Maximum voltage at I = 0</text>
        <text x="0" y="105" font-family="Arial, sans-serif" font-size="12" fill="#333">• Logarithmically related to light intensity</text>

        <text x="0" y="130" font-family="Arial, sans-serif" font-size="14" font-weight="bold" fill="#28a745">Maximum Power Point (MPP):</text>
        <text x="0" y="145" font-family="Arial, sans-serif" font-size="12" fill="#333">• Optimal operating point</text>
        <text x="0" y="160" font-family="Arial, sans-serif" font-size="12" fill="#333">• Pmax = Vmp × Imp</text>

        <text x="0" y="185" font-family="Arial, sans-serif" font-size="14" font-weight="bold" fill="#6f42c1">Fill Factor (FF):</text>
        <text x="0" y="200" font-family="Arial, sans-serif" font-size="12" fill="#333">FF = Pmax/(Voc × Isc) ≈ 0.7-0.8</text>
      </g>
    </g>
  </g>

  <!-- Efficiency Factors -->
  <g transform="translate(870,500)">
    <rect x="0" y="0" width="880" height="300" fill="rgba(255,193,7,0.1)" rx="15" />
    <text x="440" y="25" text-anchor="middle" font-family="Arial, sans-serif" font-size="20" font-weight="bold" fill="#ffc107">
      EFFICIENCY FACTORS &amp; LOSS MECHANISMS
    </text>

    <!-- Loss Breakdown -->
    <g transform="translate(50,50)">
      <text x="200" y="20" text-anchor="middle" font-family="Arial, sans-serif" font-size="16" font-weight="bold" fill="#333">
        Energy Loss Analysis
      </text>

      <!-- Pie chart representation -->
      <g transform="translate(200,50)">
        <circle cx="0" cy="0" r="60" fill="#28a745" />
        <path d="M 0,0 L 0,-60 A 60,60 0 0,1 42.4,-42.4 Z" fill="#dc3545" />
        <path d="M 0,0 L 42.4,-42.4 A 60,60 0 0,1 60,0 Z" fill="#ffc107" />
        <path d="M 0,0 L 60,0 A 60,60 0 0,1 42.4,42.4 Z" fill="#17a2b8" />
        <path d="M 0,0 L 42.4,42.4 A 60,60 0 0,1 -42.4,42.4 Z" fill="#6f42c1" />

        <!-- Labels -->
        <text x="0" y="5" text-anchor="middle" font-family="Arial, sans-serif" font-size="10" font-weight="bold" fill="white">
          Useful Power
        </text>
        <text x="0" y="15" text-anchor="middle" font-family="Arial, sans-serif" font-size="10" font-weight="bold" fill="white">
          ~20%
        </text>
      </g>

      <!-- Legend -->
      <g transform="translate(300,40)">
        <rect x="0" y="0" width="15" height="15" fill="#28a745" />
        <text x="20" y="12" font-family="Arial, sans-serif" font-size="11" fill="#333">Electrical Output (20%)</text>

        <rect x="0" y="20" width="15" height="15" fill="#dc3545" />
        <text x="20" y="32" font-family="Arial, sans-serif" font-size="11" fill="#333">Reflection Losses (5%)</text>

        <rect x="0" y="40" width="15" height="15" fill="#ffc107" />
        <text x="20" y="52" font-family="Arial, sans-serif" font-size="11" fill="#333">Thermalization (25%)</text>

        <rect x="0" y="60" width="15" height="15" fill="#17a2b8" />
        <text x="20" y="72" font-family="Arial, sans-serif" font-size="11" fill="#333">Recombination (20%)</text>

        <rect x="0" y="80" width="15" height="15" fill="#6f42c1" />
        <text x="20" y="92" font-family="Arial, sans-serif" font-size="11" fill="#333">Other Losses (30%)</text>
      </g>
    </g>

    <!-- Efficiency Factors -->
    <g transform="translate(450,50)">
      <text x="200" y="20" text-anchor="middle" font-family="Arial, sans-serif" font-size="16" font-weight="bold" fill="#333">
        Efficiency Enhancement Strategies
      </text>

      <g transform="translate(20,40)">
        <text x="0" y="20" font-family="Arial, sans-serif" font-size="14" font-weight="bold" fill="#ffc107">Material Selection:</text>
        <text x="0" y="35" font-family="Arial, sans-serif" font-size="11" fill="#333">• High-quality crystalline silicon</text>
        <text x="0" y="50" font-family="Arial, sans-serif" font-size="11" fill="#333">• Optimal doping concentration</text>
        <text x="0" y="65" font-family="Arial, sans-serif" font-size="11" fill="#333">• Minimum defect density</text>

        <text x="0" y="90" font-family="Arial, sans-serif" font-size="14" font-weight="bold" fill="#ffc107">Surface Engineering:</text>
        <text x="0" y="105" font-family="Arial, sans-serif" font-size="11" fill="#333">• Anti-reflective coating</text>
        <text x="0" y="120" font-family="Arial, sans-serif" font-size="11" fill="#333">• Surface texturing</text>
        <text x="0" y="135" font-family="Arial, sans-serif" font-size="11" fill="#333">• Passivation layers</text>

        <text x="200" y="20" font-family="Arial, sans-serif" font-size="14" font-weight="bold" fill="#ffc107">Design Optimization:</text>
        <text x="200" y="35" font-family="Arial, sans-serif" font-size="11" fill="#333">• Optimized contact grid</text>
        <text x="200" y="50" font-family="Arial, sans-serif" font-size="11" fill="#333">• Back surface field</text>
        <text x="200" y="65" font-family="Arial, sans-serif" font-size="11" fill="#333">• Selective emitters</text>

        <text x="200" y="90" font-family="Arial, sans-serif" font-size="14" font-weight="bold" fill="#ffc107">Advanced Concepts:</text>
        <text x="200" y="105" font-family="Arial, sans-serif" font-size="11" fill="#333">• Heterojunction cells</text>
        <text x="200" y="120" font-family="Arial, sans-serif" font-size="11" fill="#333">• Concentrator systems</text>
        <text x="200" y="135" font-family="Arial, sans-serif" font-size="11" fill="#333">• Tandem cell structures</text>
      </g>
    </g>

    <!-- Efficiency Progress -->
    <g transform="translate(50,180)">
      <text x="390" y="20" text-anchor="middle" font-family="Arial, sans-serif" font-size="16" font-weight="bold" fill="#333">
        Efficiency Evolution &amp; Current Technology
      </text>

      <g transform="translate(50,40)">
        <!-- Timeline bars -->
        <rect x="0" y="20" width="80" height="20" fill="#dc3545" />
        <text x="40" y="35" text-anchor="middle" font-family="Arial, sans-serif" font-size="10" fill="white">First Cells</text>
        <text x="40" y="50" text-anchor="middle" font-family="Arial, sans-serif" font-size="10" fill="#333">6% (1954)</text>

        <rect x="100" y="15" width="80" height="25" fill="#ffc107" />
        <text x="140" y="30" text-anchor="middle" font-family="Arial, sans-serif" font-size="10" fill="black">Commercial</text>
        <text x="140" y="50" text-anchor="middle" font-family="Arial, sans-serif" font-size="10" fill="#333">15% (1980s)</text>

        <rect x="200" y="10" width="80" height="30" fill="#28a745" />
        <text x="240" y="27" text-anchor="middle" font-family="Arial, sans-serif" font-size="10" fill="white">Modern</text>
        <text x="240" y="50" text-anchor="middle" font-family="Arial, sans-serif" font-size="10" fill="#333">20-22% (2020s)</text>

        <rect x="300" y="5" width="80" height="35" fill="#007bff" />
        <text x="340" y="25" text-anchor="middle" font-family="Arial, sans-serif" font-size="10" fill="white">Laboratory</text>
        <text x="340" y="50" text-anchor="middle" font-family="Arial, sans-serif" font-size="10" fill="#333">26.7% (Record)</text>

        <rect x="400" y="0" width="80" height="40" fill="#6f42c1" />
        <text x="440" y="22" text-anchor="middle" font-family="Arial, sans-serif" font-size="10" fill="white">Theoretical</text>
        <text x="440" y="50" text-anchor="middle" font-family="Arial, sans-serif" font-size="10" fill="#333">29% (Limit)</text>

        <!-- Y-axis -->
        <line x1="0" y1="0" x2="0" y2="60" stroke="#333" stroke-width="2" />
        <text x="-15" y="30" text-anchor="middle" font-family="Arial, sans-serif" font-size="10" fill="#333">Efficiency</text>
      </g>
    </g>
  </g>

  <!-- Applications Section -->
  <g transform="translate(50,820)">
    <rect x="0" y="0" width="1700" height="200" fill="rgba(23,162,184,0.1)" rx="15" />
    <text x="850" y="25" text-anchor="middle" font-family="Arial, sans-serif" font-size="20" font-weight="bold" fill="#17a2b8">
      PHOTOVOLTAIC APPLICATIONS &amp; SYSTEMS
    </text>

    <g transform="translate(50,50)">
      <!-- Residential -->
      <g transform="translate(0,0)">
        <text x="0" y="20" font-family="Arial, sans-serif" font-size="14" font-weight="bold" fill="#17a2b8">Residential Systems:</text>
        <text x="0" y="40" font-family="Arial, sans-serif" font-size="11" fill="#333">• Rooftop installations (3-10 kW)</text>
        <text x="0" y="55" font-family="Arial, sans-serif" font-size="11" fill="#333">• Grid-tied with net metering</text>
        <text x="0" y="70" font-family="Arial, sans-serif" font-size="11" fill="#333">• Battery backup systems</text>
        <text x="0" y="85" font-family="Arial, sans-serif" font-size="11" fill="#333">• Smart inverters &amp; monitoring</text>

        <text x="0" y="110" font-family="Arial, sans-serif" font-size="12" font-weight="bold" fill="#28a745">Typical Performance:</text>
        <text x="0" y="125" font-family="Arial, sans-serif" font-size="11" fill="#333">• Power: 300-400W per panel</text>
        <text x="0" y="140" font-family="Arial, sans-serif" font-size="11" fill="#333">• Efficiency: 20-22%</text>
      </g>

      <!-- Commercial -->
      <g transform="translate(340,0)">
        <text x="0" y="20" font-family="Arial, sans-serif" font-size="14" font-weight="bold" fill="#17a2b8">Commercial &amp; Industrial:</text>
        <text x="0" y="40" font-family="Arial, sans-serif" font-size="11" fill="#333">• Large-scale installations (100kW-10MW)</text>
        <text x="0" y="55" font-family="Arial, sans-serif" font-size="11" fill="#333">• Ground-mounted arrays</text>
        <text x="0" y="70" font-family="Arial, sans-serif" font-size="11" fill="#333">• Tracking systems</text>
        <text x="0" y="85" font-family="Arial, sans-serif" font-size="11" fill="#333">• Power purchase agreements (PPAs)</text>

        <text x="0" y="110" font-family="Arial, sans-serif" font-size="12" font-weight="bold" fill="#28a745">Key Benefits:</text>
        <text x="0" y="125" font-family="Arial, sans-serif" font-size="11" fill="#333">• Reduced electricity costs</text>
        <text x="0" y="140" font-family="Arial, sans-serif" font-size="11" fill="#333">• Corporate sustainability goals</text>
      </g>

      <!-- Utility Scale -->
      <g transform="translate(680,0)">
        <text x="0" y="20" font-family="Arial, sans-serif" font-size="14" font-weight="bold" fill="#17a2b8">Utility-Scale Plants:</text>
        <text x="0" y="40" font-family="Arial, sans-serif" font-size="11" fill="#333">• Large installations (10MW-1GW+)</text>
        <text x="0" y="55" font-family="Arial, sans-serif" font-size="11" fill="#333">• Solar farms &amp; parks</text>
        <text x="0" y="70" font-family="Arial, sans-serif" font-size="11" fill="#333">• Grid integration challenges</text>
        <text x="0" y="85" font-family="Arial, sans-serif" font-size="11" fill="#333">• Energy storage systems</text>

        <text x="0" y="110" font-family="Arial, sans-serif" font-size="12" font-weight="bold" fill="#28a745">Grid Impact:</text>
        <text x="0" y="125" font-family="Arial, sans-serif" font-size="11" fill="#333">• Peak demand reduction</text>
        <text x="0" y="140" font-family="Arial, sans-serif" font-size="11" fill="#333">• Renewable energy targets</text>
      </g>

      <!-- Specialized -->
      <g transform="translate(1020,0)">
        <text x="0" y="20" font-family="Arial, sans-serif" font-size="14" font-weight="bold" fill="#17a2b8">Specialized Applications:</text>
        <text x="0" y="40" font-family="Arial, sans-serif" font-size="11" fill="#333">• Space satellites &amp; stations</text>
        <text x="0" y="55" font-family="Arial, sans-serif" font-size="11" fill="#333">• Remote sensing equipment</text>
        <text x="0" y="70" font-family="Arial, sans-serif" font-size="11" fill="#333">• Portable electronics</text>
        <text x="0" y="85" font-family="Arial, sans-serif" font-size="11" fill="#333">• Off-grid applications</text>

        <text x="0" y="110" font-family="Arial, sans-serif" font-size="12" font-weight="bold" fill="#28a745">Requirements:</text>
        <text x="0" y="125" font-family="Arial, sans-serif" font-size="11" fill="#333">• High efficiency &amp; reliability</text>
        <text x="0" y="140" font-family="Arial, sans-serif" font-size="11" fill="#333">• Radiation resistance</text>
      </g>

      <!-- Emerging -->
      <g transform="translate(1360,0)">
        <text x="0" y="20" font-family="Arial, sans-serif" font-size="14" font-weight="bold" fill="#17a2b8">Emerging Technologies:</text>
        <text x="0" y="40" font-family="Arial, sans-serif" font-size="11" fill="#333">• Building-integrated PV (BIPV)</text>
        <text x="0" y="55" font-family="Arial, sans-serif" font-size="11" fill="#333">• Floating solar systems</text>
        <text x="0" y="70" font-family="Arial, sans-serif" font-size="11" fill="#333">• Agrivoltaics (agri-PV)</text>
        <text x="0" y="85" font-family="Arial, sans-serif" font-size="11" fill="#333">• Transparent solar cells</text>

        <text x="0" y="110" font-family="Arial, sans-serif" font-size="12" font-weight="bold" fill="#28a745">Innovation Areas:</text>
        <text x="0" y="125" font-family="Arial, sans-serif" font-size="11" fill="#333">• Perovskite tandems</text>
        <text x="0" y="140" font-family="Arial, sans-serif" font-size="11" fill="#333">• Flexible substrates</text>
      </g>
    </g>
  </g>

  <!-- Footer -->
  <g transform="translate(50,1040)">
    <text x="850" y="20" text-anchor="middle" font-family="Arial, sans-serif" font-size="16" font-weight="bold" fill="#495057">
      Photovoltaic technology is key to sustainable energy transition and carbon reduction goals
    </text>
    <text x="850" y="40" text-anchor="middle" font-family="Arial, sans-serif" font-size="12" fill="#6c757d">
      Applications: Solar Power Generation | Remote Power Systems | Space Applications | Consumer Electronics | Smart Grid Integration
    </text>
  </g>
</svg>