<svg viewBox="0 0 1200 800" xmlns="http://www.w3.org/2000/svg">
  <defs>
    <radialGradient id="sunGrad" cx="50%" cy="50%" r="50%">
      <stop offset="0%" style="stop-color:#f1c40f;stop-opacity:1" />
      <stop offset="100%" style="stop-color:#f39c12;stop-opacity:1" />
    </radialGradient>
    <linearGradient id="panelGrad" x1="0%" y1="0%" x2="100%" y2="100%">
      <stop offset="0%" style="stop-color:#2c3e50;stop-opacity:1" />
      <stop offset="100%" style="stop-color:#34495e;stop-opacity:1" />
    </linearGradient>
    <linearGradient id="cellGrad" x1="0%" y1="0%" x2="100%" y2="100%">
      <stop offset="0%" style="stop-color:#3498db;stop-opacity:1" />
      <stop offset="100%" style="stop-color:#2980b9;stop-opacity:1" />
    </linearGradient>
    <linearGradient id="inverterGrad" x1="0%" y1="0%" x2="100%" y2="100%">
      <stop offset="0%" style="stop-color:#e74c3c;stop-opacity:1" />
      <stop offset="100%" style="stop-color:#c0392b;stop-opacity:1" />
    </linearGradient>
    <linearGradient id="batteryGrad" x1="0%" y1="0%" x2="100%" y2="100%">
      <stop offset="0%" style="stop-color:#27ae60;stop-opacity:1" />
      <stop offset="100%" style="stop-color:#2ecc71;stop-opacity:1" />
    </linearGradient>
    <marker id="arrowhead" markerWidth="10" markerHeight="7" refX="10" refY="3.5" orient="auto">
      <polygon points="0 0, 10 3.5, 0 7" fill="#333" />
    </marker>
    <marker id="powerFlow" markerWidth="8" markerHeight="6" refX="8" refY="3" orient="auto">
      <polygon points="0 0, 8 3, 0 6" fill="#e74c3c" />
    </marker>
  </defs>
  
  <!-- Background -->
  <rect width="1200" height="800" fill="#f8f9fa"/>
  
  <!-- Title -->
  <text x="600" y="30" text-anchor="middle" font-family="Arial, sans-serif" font-size="24" font-weight="bold" fill="#2c3e50">
    Solar Power Systems and Components
  </text>
  
  <!-- Solar Panel System Overview -->
  <g id="system-overview">
    <text x="600" y="70" text-anchor="middle" font-family="Arial, sans-serif" font-size="18" font-weight="bold" fill="#34495e">
      Complete Solar Power System
    </text>
    
    <!-- Sun -->
    <g transform="translate(100,120)">
      <circle cx="0" cy="0" r="30" fill="url(#sunGrad)"/>
      <g stroke="#f39c12" stroke-width="3" opacity="0.7">
        <line x1="-40" y1="0" x2="-35" y2="0"/>
        <line x1="35" y1="0" x2="40" y2="0"/>
        <line x1="0" y1="-40" x2="0" y2="-35"/>
        <line x1="0" y1="35" x2="0" y2="40"/>
        <line x1="-28" y1="-28" x2="-25" y2="-25"/>
        <line x1="25" y1="25" x2="28" y2="28"/>
        <line x1="28" y1="-28" x2="25" y2="-25"/>
        <line x1="-25" y1="25" x2="-28" y2="28"/>
      </g>
      <text x="0" y="60" text-anchor="middle" font-family="Arial, sans-serif" font-size="12" fill="#f39c12" font-weight="bold">Solar Radiation</text>
    </g>
    
    <!-- Solar rays -->
    <g stroke="#f39c12" stroke-width="2" opacity="0.6">
      <line x1="130" y1="120" x2="250" y2="120" marker-end="url(#arrowhead)"/>
      <line x1="125" y1="110" x2="245" y2="110" marker-end="url(#arrowhead)"/>
      <line x1="125" y1="130" x2="245" y2="130" marker-end="url(#arrowhead)"/>
    </g>
    
    <!-- Solar Panel -->
    <g transform="translate(270,90)">
      <rect x="0" y="0" width="120" height="60" fill="url(#panelGrad)" stroke="#2c3e50" stroke-width="3" rx="5"/>
      <!-- Solar cells grid -->
      <g fill="url(#cellGrad)">
        <rect x="5" y="5" width="25" height="25" rx="2"/>
        <rect x="35" y="5" width="25" height="25" rx="2"/>
        <rect x="65" y="5" width="25" height="25" rx="2"/>
        <rect x="90" y="5" width="25" height="25" rx="2"/>
        <rect x="5" y="30" width="25" height="25" rx="2"/>
        <rect x="35" y="30" width="25" height="25" rx="2"/>
        <rect x="65" y="30" width="25" height="25" rx="2"/>
        <rect x="90" y="30" width="25" height="25" rx="2"/>
      </g>
      <!-- Connection lines -->
      <line x1="10" y1="55" x2="10" y2="65" stroke="#333" stroke-width="2"/>
      <line x1="110" y1="55" x2="110" y2="65" stroke="#333" stroke-width="2"/>
      <circle cx="10" cy="70" r="3" fill="#333"/>
      <circle cx="110" cy="70" r="3" fill="#333"/>
      <text x="10" y="85" font-family="Arial, sans-serif" font-size="10" fill="#333">-</text>
      <text x="110" y="85" font-family="Arial, sans-serif" font-size="10" fill="#333">+</text>
      <text x="60" y="180" text-anchor="middle" font-family="Arial, sans-serif" font-size="12" fill="#2c3e50" font-weight="bold">Solar Panel</text>
      <text x="60" y="195" text-anchor="middle" font-family="Arial, sans-serif" font-size="10" fill="#666">DC Output</text>
    </g>
    
    <!-- Power flow from panel -->
    <line x1="380" y1="120" x2="420" y2="120" stroke="#e74c3c" stroke-width="3" marker-end="url(#powerFlow)"/>
    <text x="400" y="110" text-anchor="middle" font-family="Arial, sans-serif" font-size="10" fill="#e74c3c">DC</text>
    
    <!-- Charge Controller -->
    <g transform="translate(440,95)">
      <rect x="0" y="0" width="60" height="50" fill="#8e44ad" stroke="#6c3483" stroke-width="2" rx="5"/>
      <text x="30" y="20" text-anchor="middle" font-family="Arial, sans-serif" font-size="10" fill="white" font-weight="bold">MPPT</text>
      <text x="30" y="35" text-anchor="middle" font-family="Arial, sans-serif" font-size="10" fill="white" font-weight="bold">Controller</text>
      <text x="30" y="165" text-anchor="middle" font-family="Arial, sans-serif" font-size="12" fill="#2c3e50" font-weight="bold">Charge Controller</text>
      <text x="30" y="180" text-anchor="middle" font-family="Arial, sans-serif" font-size="10" fill="#666">MPPT/PWM</text>
    </g>
    
    <!-- Power flow to battery -->
    <line x1="470" y1="145" x2="470" y2="180" stroke="#27ae60" stroke-width="3" marker-end="url(#powerFlow)"/>
    
    <!-- Battery Bank -->
    <g transform="translate(440,200)">
      <rect x="0" y="0" width="60" height="40" fill="url(#batteryGrad)" stroke="#27ae60" stroke-width="2" rx="5"/>
      <rect x="10" y="-3" width="8" height="6" fill="#27ae60"/>
      <rect x="42" y="-3" width="8" height="6" fill="#27ae60"/>
      <text x="30" y="25" text-anchor="middle" font-family="Arial, sans-serif" font-size="12" fill="white" font-weight="bold">12V</text>
      <text x="30" y="60" text-anchor="middle" font-family="Arial, sans-serif" font-size="12" fill="#2c3e50" font-weight="bold">Battery Bank</text>
      <text x="30" y="75" text-anchor="middle" font-family="Arial, sans-serif" font-size="10" fill="#666">Energy Storage</text>
    </g>
    
    <!-- Power flow to inverter -->
    <line x1="500" y1="220" x2="540" y2="220" stroke="#27ae60" stroke-width="3" marker-end="url(#powerFlow)"/>
    <text x="520" y="210" text-anchor="middle" font-family="Arial, sans-serif" font-size="10" fill="#27ae60">DC</text>
    
    <!-- Inverter -->
    <g transform="translate(560,195)">
      <rect x="0" y="0" width="80" height="50" fill="url(#inverterGrad)" stroke="#c0392b" stroke-width="2" rx="5"/>
      <text x="40" y="20" text-anchor="middle" font-family="Arial, sans-serif" font-size="12" fill="white" font-weight="bold">INVERTER</text>
      <text x="40" y="35" text-anchor="middle" font-family="Arial, sans-serif" font-size="10" fill="white">DC → AC</text>
      <text x="40" y="70" text-anchor="middle" font-family="Arial, sans-serif" font-size="12" fill="#2c3e50" font-weight="bold">Inverter</text>
      <text x="40" y="85" text-anchor="middle" font-family="Arial, sans-serif" font-size="10" fill="#666">DC to AC Converter</text>
    </g>
    
    <!-- Power flow to load -->
    <line x1="640" y1="220" x2="680" y2="220" stroke="#3498db" stroke-width="3" marker-end="url(#powerFlow)"/>
    <text x="660" y="210" text-anchor="middle" font-family="Arial, sans-serif" font-size="10" fill="#3498db">AC</text>
    
    <!-- Load/Home -->
    <g transform="translate(700,190)">
      <rect x="0" y="0" width="60" height="60" fill="#95a5a6" stroke="#7f8c8d" stroke-width="2" rx="5"/>
      <!-- House icon -->
      <path d="M10 35 L30 15 L50 35 Z" fill="#34495e"/>
      <rect x="20" y="35" width="20" height="20" fill="#34495e"/>
      <rect x="25" y="40" width="10" height="10" fill="#f39c12"/>
      <text x="30" y="80" text-anchor="middle" font-family="Arial, sans-serif" font-size="12" fill="#2c3e50" font-weight="bold">AC Loads</text>
      <text x="30" y="95" text-anchor="middle" font-family="Arial, sans-serif" font-size="10" fill="#666">Home/Business</text>
    </g>
    
    <!-- Grid Connection (optional) -->
    <line x1="730" y1="190" x2="730" y2="130" stroke="#f39c12" stroke-width="3" stroke-dasharray="5,3"/>
    <g transform="translate(700,100)">
      <rect x="0" y="0" width="60" height="25" fill="#f39c12" stroke="#d68910" stroke-width="2" rx="3"/>
      <text x="30" y="18" text-anchor="middle" font-family="Arial, sans-serif" font-size="12" fill="white" font-weight="bold">GRID</text>
      <text x="30" y="45" text-anchor="middle" font-family="Arial, sans-serif" font-size="10" fill="#d68910">Net Metering</text>
    </g>
  </g>
  
  <!-- Solar Panel Components -->
  <g id="panel-components">
    <text x="200" y="320" text-anchor="middle" font-family="Arial, sans-serif" font-size="16" font-weight="bold" fill="#34495e">
      Solar Panel Components
    </text>
    
    <!-- Detailed solar cell structure -->
    <g transform="translate(50,340)">
      <rect x="0" y="0" width="300" height="150" fill="#ecf0f1" stroke="#bdc3c7" stroke-width="2" rx="8"/>
      <text x="150" y="25" text-anchor="middle" font-family="Arial, sans-serif" font-size="14" fill="#2c3e50" font-weight="bold">
        Photovoltaic Cell Structure
      </text>
      
      <!-- Layer by layer structure -->
      <g transform="translate(20,40)">
        <!-- Glass -->
        <rect x="0" y="0" width="260" height="15" fill="#85c1e9" rx="2"/>
        <text x="270" y="12" font-family="Arial, sans-serif" font-size="11" fill="#2c3e50">Tempered Glass</text>
        
        <!-- EVA -->
        <rect x="0" y="15" width="260" height="8" fill="#f8c471" rx="1"/>
        <text x="270" y="23" font-family="Arial, sans-serif" font-size="11" fill="#2c3e50">EVA Encapsulant</text>
        
        <!-- Solar cell -->
        <rect x="0" y="23" width="260" height="20" fill="url(#cellGrad)" rx="2"/>
        <text x="270" y="37" font-family="Arial, sans-serif" font-size="11" fill="#2c3e50" font-weight="bold">Silicon Solar Cell</text>
        
        <!-- EVA back -->
        <rect x="0" y="43" width="260" height="8" fill="#f8c471" rx="1"/>
        <text x="270" y="51" font-family="Arial, sans-serif" font-size="11" fill="#2c3e50">EVA Encapsulant</text>
        
        <!-- Backsheet -->
        <rect x="0" y="51" width="260" height="12" fill="#2c3e50" rx="2"/>
        <text x="270" y="61" font-family="Arial, sans-serif" font-size="11" fill="#2c3e50">Backsheet (TPT)</text>
        
        <!-- Junction box -->
        <rect x="220" y="63" width="40" height="15" fill="#8e44ad" rx="2"/>
        <text x="270" y="75" font-family="Arial, sans-serif" font-size="11" fill="#2c3e50">Junction Box</text>
        
        <!-- Frame -->
        <rect x="-5" y="-5" width="270" height="8" fill="#7f8c8d" rx="2"/>
        <rect x="-5" y="78" width="270" height="8" fill="#7f8c8d" rx="2"/>
        <text x="270" y="88" font-family="Arial, sans-serif" font-size="11" fill="#2c3e50">Aluminum Frame</text>
      </g>
    </g>
  </g>
  
  <!-- System Types -->
  <g id="system-types">
    <text x="600" y="320" text-anchor="middle" font-family="Arial, sans-serif" font-size="16" font-weight="bold" fill="#34495e">
      Solar System Types
    </text>
    
    <!-- Grid-Tied System -->
    <g transform="translate(450,340)">
      <rect x="0" y="0" width="140" height="120" fill="#e8f4f8" stroke="#3498db" stroke-width="2" rx="8"/>
      <text x="70" y="20" text-anchor="middle" font-family="Arial, sans-serif" font-size="14" fill="#2980b9" font-weight="bold">
        Grid-Tied System
      </text>
      
      <!-- Simple diagram -->
      <g transform="translate(20,30)">
        <rect x="0" y="10" width="30" height="15" fill="#2c3e50" rx="2"/>
        <text x="15" y="20" text-anchor="middle" font-family="Arial, sans-serif" font-size="8" fill="white">Panel</text>
        
        <rect x="40" y="10" width="25" height="15" fill="#e74c3c" rx="2"/>
        <text x="52" y="20" text-anchor="middle" font-family="Arial, sans-serif" font-size="8" fill="white">Inv</text>
        
        <rect x="75" y="10" width="25" height="15" fill="#f39c12" rx="2"/>
        <text x="87" y="20" text-anchor="middle" font-family="Arial, sans-serif" font-size="8" fill="white">Grid</text>
        
        <line x1="30" y1="17" x2="40" y2="17" stroke="#333" stroke-width="2" marker-end="url(#arrowhead)"/>
        <line x1="65" y1="17" x2="75" y2="17" stroke="#333" stroke-width="2" marker-end="url(#arrowhead)"/>
      </g>
      
      <g transform="translate(10,50)">
        <text x="0" y="15" font-family="Arial, sans-serif" font-size="11" fill="#2c3e50">✓ Lower cost</text>
        <text x="0" y="28" font-family="Arial, sans-serif" font-size="11" fill="#2c3e50">✓ Net metering</text>
        <text x="0" y="41" font-family="Arial, sans-serif" font-size="11" fill="#2c3e50">✗ No backup power</text>
        <text x="0" y="54" font-family="Arial, sans-serif" font-size="11" fill="#2c3e50">✗ Grid dependent</text>
      </g>
    </g>
    
    <!-- Off-Grid System -->
    <g transform="translate(610,340)">
      <rect x="0" y="0" width="140" height="120" fill="#e8f5e8" stroke="#27ae60" stroke-width="2" rx="8"/>
      <text x="70" y="20" text-anchor="middle" font-family="Arial, sans-serif" font-size="14" fill="#1e8449" font-weight="bold">
        Off-Grid System
      </text>
      
      <!-- Simple diagram -->
      <g transform="translate(15,30)">
        <rect x="0" y="10" width="25" height="12" fill="#2c3e50" rx="2"/>
        <text x="12" y="18" text-anchor="middle" font-family="Arial, sans-serif" font-size="8" fill="white">Panel</text>
        
        <rect x="35" y="10" width="20" height="12" fill="#8e44ad" rx="2"/>
        <text x="45" y="18" text-anchor="middle" font-family="Arial, sans-serif" font-size="7" fill="white">Ctrl</text>
        
        <rect x="65" y="10" width="20" height="12" fill="#27ae60" rx="2"/>
        <text x="75" y="18" text-anchor="middle" font-family="Arial, sans-serif" font-size="8" fill="white">Bat</text>
        
        <rect x="95" y="10" width="20" height="12" fill="#e74c3c" rx="2"/>
        <text x="105" y="18" text-anchor="middle" font-family="Arial, sans-serif" font-size="8" fill="white">Inv</text>
        
        <line x1="25" y1="16" x2="35" y2="16" stroke="#333" stroke-width="1" marker-end="url(#arrowhead)"/>
        <line x1="55" y1="16" x2="65" y2="16" stroke="#333" stroke-width="1" marker-end="url(#arrowhead)"/>
        <line x1="85" y1="16" x2="95" y2="16" stroke="#333" stroke-width="1" marker-end="url(#arrowhead)"/>
      </g>
      
      <g transform="translate(10,50)">
        <text x="0" y="15" font-family="Arial, sans-serif" font-size="11" fill="#2c3e50">✓ Complete independence</text>
        <text x="0" y="28" font-family="Arial, sans-serif" font-size="11" fill="#2c3e50">✓ Backup power</text>
        <text x="0" y="41" font-family="Arial, sans-serif" font-size="11" fill="#2c3e50">✗ Higher cost</text>
        <text x="0" y="54" font-family="Arial, sans-serif" font-size="11" fill="#2c3e50">✗ Battery maintenance</text>
      </g>
    </g>
    
    <!-- Hybrid System -->
    <g transform="translate(770,340)">
      <rect x="0" y="0" width="140" height="120" fill="#fef7cd" stroke="#f39c12" stroke-width="2" rx="8"/>
      <text x="70" y="20" text-anchor="middle" font-family="Arial, sans-serif" font-size="14" fill="#b7950b" font-weight="bold">
        Hybrid System
      </text>
      
      <!-- Simple diagram -->
      <g transform="translate(10,30)">
        <rect x="0" y="5" width="20" height="10" fill="#2c3e50" rx="1"/>
        <text x="10" y="12" text-anchor="middle" font-family="Arial, sans-serif" font-size="7" fill="white">Panel</text>
        
        <rect x="30" y="5" width="18" height="10" fill="#8e44ad" rx="1"/>
        <text x="39" y="12" text-anchor="middle" font-family="Arial, sans-serif" font-size="6" fill="white">Ctrl</text>
        
        <rect x="55" y="5" width="18" height="10" fill="#27ae60" rx="1"/>
        <text x="64" y="12" text-anchor="middle" font-family="Arial, sans-serif" font-size="7" fill="white">Bat</text>
        
        <rect x="80" y="5" width="18" height="10" fill="#e74c3c" rx="1"/>
        <text x="89" y="12" text-anchor="middle" font-family="Arial, sans-serif" font-size="7" fill="white">Inv</text>
        
        <rect x="105" y="5" width="18" height="10" fill="#f39c12" rx="1"/>
        <text x="114" y="12" text-anchor="middle" font-family="Arial, sans-serif" font-size="7" fill="white">Grid</text>
        
        <line x1="20" y1="10" x2="30" y2="10" stroke="#333" stroke-width="1"/>
        <line x1="48" y1="10" x2="55" y2="10" stroke="#333" stroke-width="1"/>
        <line x1="73" y1="10" x2="80" y2="10" stroke="#333" stroke-width="1"/>
        <line x1="98" y1="10" x2="105" y2="10" stroke="#333" stroke-width="1"/>
      </g>
      
      <g transform="translate(10,45)">
        <text x="0" y="15" font-family="Arial, sans-serif" font-size="11" fill="#2c3e50">✓ Best of both worlds</text>
        <text x="0" y="28" font-family="Arial, sans-serif" font-size="11" fill="#2c3e50">✓ Grid backup</text>
        <text x="0" y="41" font-family="Arial, sans-serif" font-size="11" fill="#2c3e50">✓ Battery backup</text>
        <text x="0" y="54" font-family="Arial, sans-serif" font-size="11" fill="#2c3e50">✗ Highest cost</text>
      </g>
    </g>
  </g>
  
  <!-- Technical Specifications -->
  <g id="specifications">
    <text x="200" y="520" text-anchor="middle" font-family="Arial, sans-serif" font-size="16" font-weight="bold" fill="#34495e">
      Key Technical Specifications
    </text>
    
    <g transform="translate(50,540)">
      <rect x="0" y="0" width="300" height="180" fill="#f4f6f7" stroke="#bdc3c7" stroke-width="2" rx="8"/>
      <text x="150" y="25" text-anchor="middle" font-family="Arial, sans-serif" font-size="14" fill="#2c3e50" font-weight="bold">
        Solar Panel Specifications
      </text>
      
      <g transform="translate(15,35)">
        <text x="0" y="15" font-family="Arial, sans-serif" font-size="12" fill="#2c3e50" font-weight="bold">Power Output (Wp):</text>
        <text x="140" y="15" font-family="Arial, sans-serif" font-size="12" fill="#666">100W - 500W+</text>
        
        <text x="0" y="30" font-family="Arial, sans-serif" font-size="12" fill="#2c3e50" font-weight="bold">Efficiency (%):</text>
        <text x="140" y="30" font-family="Arial, sans-serif" font-size="12" fill="#666">15% - 22%</text>
        
        <text x="0" y="45" font-family="Arial, sans-serif" font-size="12" fill="#2c3e50" font-weight="bold">Voltage (Vmp):</text>
        <text x="140" y="45" font-family="Arial, sans-serif" font-size="12" fill="#666">18V - 45V</text>
        
        <text x="0" y="60" font-family="Arial, sans-serif" font-size="12" fill="#2c3e50" font-weight="bold">Current (Imp):</text>
        <text x="140" y="60" font-family="Arial, sans-serif" font-size="12" fill="#666">5A - 12A</text>
        
        <text x="0" y="75" font-family="Arial, sans-serif" font-size="12" fill="#2c3e50" font-weight="bold">Temperature Coeff:</text>
        <text x="140" y="75" font-family="Arial, sans-serif" font-size="12" fill="#666">-0.4%/°C</text>
        
        <text x="0" y="90" font-family="Arial, sans-serif" font-size="12" fill="#2c3e50" font-weight="bold">Lifespan:</text>
        <text x="140" y="90" font-family="Arial, sans-serif" font-size="12" fill="#666">25-30 years</text>
        
        <text x="0" y="105" font-family="Arial, sans-serif" font-size="12" fill="#2c3e50" font-weight="bold">Cell Types:</text>
        <text x="140" y="105" font-family="Arial, sans-serif" font-size="12" fill="#666">Mono/Poly/Thin-film</text>
        
        <text x="0" y="120" font-family="Arial, sans-serif" font-size="12" fill="#2c3e50" font-weight="bold">Standard Sizes:</text>
        <text x="140" y="120" font-family="Arial, sans-serif" font-size="12" fill="#666">1.65m × 1m typical</text>
        
        <text x="0" y="135" font-family="Arial, sans-serif" font-size="12" fill="#2c3e50" font-weight="bold">Weight:</text>
        <text x="140" y="135" font-family="Arial, sans-serif" font-size="12" fill="#666">18-25 kg per panel</text>
      </g>
    </g>
  </g>
  
  <!-- Installation Considerations -->
  <g id="installation">
    <text x="600" y="520" text-anchor="middle" font-family="Arial, sans-serif" font-size="16" font-weight="bold" fill="#34495e">
      Installation Considerations
    </text>
    
    <g transform="translate(450,540)">
      <rect x="0" y="0" width="300" height="180" fill="#fff3cd" stroke="#f39c12" stroke-width="2" rx="8"/>
      <text x="150" y="25" text-anchor="middle" font-family="Arial, sans-serif" font-size="14" fill="#b7950b" font-weight="bold">
        Optimal Installation Parameters
      </text>
      
      <g transform="translate(15,35)">
        <text x="0" y="15" font-family="Arial, sans-serif" font-size="12" fill="#2c3e50" font-weight="bold">Optimal Tilt Angle:</text>
        <text x="150" y="15" font-family="Arial, sans-serif" font-size="12" fill="#666">= Latitude ± 15°</text>
        
        <text x="0" y="30" font-family="Arial, sans-serif" font-size="12" fill="#2c3e50" font-weight="bold">Azimuth Direction:</text>
        <text x="150" y="30" font-family="Arial, sans-serif" font-size="12" fill="#666">South (180°) ideal</text>
        
        <text x="0" y="45" font-family="Arial, sans-serif" font-size="12" fill="#2c3e50" font-weight="bold">Shading Impact:</text>
        <text x="150" y="45" font-family="Arial, sans-serif" font-size="12" fill="#666">Avoid 9AM-3PM</text>
        
        <text x="0" y="60" font-family="Arial, sans-serif" font-size="12" fill="#2c3e50" font-weight="bold">Roof Load:</text>
        <text x="150" y="60" font-family="Arial, sans-serif" font-size="12" fill="#666">15-25 kg/m²</text>
        
        <text x="0" y="75" font-family="Arial, sans-serif" font-size="12" fill="#2c3e50" font-weight="bold">Wind Load:</text>
        <text x="150" y="75" font-family="Arial, sans-serif" font-size="12" fill="#666">150-200 km/h rating</text>
        
        <text x="0" y="90" font-family="Arial, sans-serif" font-size="12" fill="#2c3e50" font-weight="bold">Panel Spacing:</text>
        <text x="150" y="90" font-family="Arial, sans-serif" font-size="12" fill="#666">Avoid mutual shading</text>
        
        <text x="0" y="105" font-family="Arial, sans-serif" font-size="12" fill="#2c3e50" font-weight="bold">Grounding:</text>
        <text x="150" y="105" font-family="Arial, sans-serif" font-size="12" fill="#666">Required for safety</text>
        
        <text x="0" y="120" font-family="Arial, sans-serif" font-size="12" fill="#2c3e50" font-weight="bold">DC Isolation:</text>
        <text x="150" y="120" font-family="Arial, sans-serif" font-size="12" fill="#666">Required by code</text>
        
        <text x="0" y="135" font-family="Arial, sans-serif" font-size="12" fill="#2c3e50" font-weight="bold">Monitoring:</text>
        <text x="150" y="135" font-family="Arial, sans-serif" font-size="12" fill="#666">Performance tracking</text>
      </g>
    </g>
  </g>
  
  <!-- Efficiency Factors -->
  <g id="efficiency-factors">
    <text x="1000" y="520" text-anchor="middle" font-family="Arial, sans-serif" font-size="16" font-weight="bold" fill="#34495e">
      Efficiency Factors
    </text>
    
    <g transform="translate(850,540)">
      <rect x="0" y="0" width="300" height="180" fill="#fdeaea" stroke="#e74c3c" stroke-width="2" rx="8"/>
      <text x="150" y="25" text-anchor="middle" font-family="Arial, sans-serif" font-size="14" fill="#c0392b" font-weight="bold">
        Factors Affecting Performance
      </text>
      
      <g transform="translate(15,35)">
        <text x="0" y="15" font-family="Arial, sans-serif" font-size="12" fill="#2c3e50" font-weight="bold">Temperature:</text>
        <text x="120" y="15" font-family="Arial, sans-serif" font-size="12" fill="#666">Higher temp = lower efficiency</text>
        
        <text x="0" y="30" font-family="Arial, sans-serif" font-size="12" fill="#2c3e50" font-weight="bold">Irradiance:</text>
        <text x="120" y="30" font-family="Arial, sans-serif" font-size="12" fill="#666">1000 W/m² standard condition</text>
        
        <text x="0" y="45" font-family="Arial, sans-serif" font-size="12" fill="#2c3e50" font-weight="bold">Shading:</text>
        <text x="120" y="45" font-family="Arial, sans-serif" font-size="12" fill="#666">Even partial shade impacts all</text>
        
        <text x="0" y="60" font-family="Arial, sans-serif" font-size="12" fill="#2c3e50" font-weight="bold">Dust/Dirt:</text>
        <text x="120" y="60" font-family="Arial, sans-serif" font-size="12" fill="#666">5-25% power loss possible</text>
        
        <text x="0" y="75" font-family="Arial, sans-serif" font-size="12" fill="#2c3e50" font-weight="bold">Age/Degradation:</text>
        <text x="120" y="75" font-family="Arial, sans-serif" font-size="12" fill="#666">0.5-0.8% per year</text>
        
        <text x="0" y="90" font-family="Arial, sans-serif" font-size="12" fill="#2c3e50" font-weight="bold">Mismatch Losses:</text>
        <text x="120" y="90" font-family="Arial, sans-serif" font-size="12" fill="#666">Different panel characteristics</text>
        
        <text x="0" y="105" font-family="Arial, sans-serif" font-size="12" fill="#2c3e50" font-weight="bold">DC/AC Conversion:</text>
        <text x="120" y="105" font-family="Arial, sans-serif" font-size="12" fill="#666">Inverter efficiency 95-98%</text>
        
        <text x="0" y="120" font-family="Arial, sans-serif" font-size="12" fill="#2c3e50" font-weight="bold">System Losses:</text>
        <text x="120" y="120" font-family="Arial, sans-serif" font-size="12" fill="#666">Wiring, connections: 2-3%</text>
        
        <text x="0" y="135" font-family="Arial, sans-serif" font-size="12" fill="#2c3e50" font-weight="bold">Overall System:</text>
        <text x="120" y="135" font-family="Arial, sans-serif" font-size="12" fill="#666">80-85% of panel rating</text>
      </g>
    </g>
  </g>
</svg>