<svg viewBox="0 0 1800 1400" xmlns="http://www.w3.org/2000/svg">
  <defs>
    <linearGradient id="bgGrad" x1="0%" y1="0%" x2="100%" y2="100%">
      <stop offset="0%" style="stop-color:#f8f9fa;stop-opacity:1" />
      <stop offset="100%" style="stop-color:#e9ecef;stop-opacity:1" />
    </linearGradient>
    <linearGradient id="towerGrad" x1="0%" y1="0%" x2="100%" y2="0%">
      <stop offset="0%" style="stop-color:#6c757d;stop-opacity:0.9" />
      <stop offset="100%" style="stop-color:#adb5bd;stop-opacity:0.9" />
    </linearGradient>
    <linearGradient id="nacelleGrad" x1="0%" y1="0%" x2="100%" y2="100%">
      <stop offset="0%" style="stop-color:#495057;stop-opacity:0.9" />
      <stop offset="100%" style="stop-color:#6c757d;stop-opacity:0.9" />
    </linearGradient>
    <linearGradient id="bladeGrad" x1="0%" y1="0%" x2="100%" y2="100%">
      <stop offset="0%" style="stop-color:#e9ecef;stop-opacity:0.9" />
      <stop offset="100%" style="stop-color:#f8f9fa;stop-opacity:0.9" />
    </linearGradient>
    <linearGradient id="windGrad" x1="0%" y1="0%" x2="100%" y2="0%">
      <stop offset="0%" style="stop-color:#007bff;stop-opacity:0.3" />
      <stop offset="100%" style="stop-color:#66b3ff;stop-opacity:0.6" />
    </linearGradient>
    <linearGradient id="generatorGrad" x1="0%" y1="0%" x2="100%" y2="100%">
      <stop offset="0%" style="stop-color:#fd7e14;stop-opacity:0.8" />
      <stop offset="100%" style="stop-color:#ffb366;stop-opacity:0.8" />
    </linearGradient>
    <linearGradient id="skyGrad" x1="0%" y1="0%" x2="0%" y2="100%">
      <stop offset="0%" style="stop-color:#87ceeb;stop-opacity:0.3" />
      <stop offset="100%" style="stop-color:#f0f8ff;stop-opacity:0.1" />
    </linearGradient>
    <marker id="arrowhead" markerWidth="10" markerHeight="7" refX="9" refY="3.5" orient="auto">
      <polygon points="0 0, 10 3.5, 0 7" fill="#333" />
    </marker>
    <marker id="windArrow" markerWidth="8" markerHeight="6" refX="7" refY="3" orient="auto">
      <polygon points="0 0, 8 3, 0 6" fill="#007bff" />
    </marker>
    <marker id="forceArrow" markerWidth="8" markerHeight="6" refX="7" refY="3" orient="auto">
      <polygon points="0 0, 8 3, 0 6" fill="#28a745" />
    </marker>
  </defs>

  <!-- Background -->
  <rect width="1800" height="1400" fill="url(#bgGrad)" />

  <!-- Sky background -->
  <rect width="1800" height="600" fill="url(#skyGrad)" />

  <!-- Main Title -->
  <text x="900" y="40" text-anchor="middle" font-family="Arial, sans-serif" font-size="28" font-weight="bold" fill="#2c3e50">
    Wind Turbine Components &amp; Construction
  </text>

  <!-- Main Wind Turbine Diagram -->
  <g transform="translate(50,80)">
    <rect x="0" y="0" width="800" height="600" fill="rgba(0,123,255,0.05)" rx="15" />
    <text x="400" y="25" text-anchor="middle" font-family="Arial, sans-serif" font-size="20" font-weight="bold" fill="#007bff">
      COMPLETE WIND TURBINE SYSTEM
    </text>

    <!-- Ground level -->
    <rect x="50" y="550" width="700" height="30" fill="#8b4513" />
    <text x="400" y="540" text-anchor="middle" font-family="Arial, sans-serif" font-size="12" fill="#333">Ground Level</text>

    <!-- Foundation -->
    <g transform="translate(350,530)">
      <ellipse cx="50" cy="20" rx="60" ry="10" fill="#6c757d" />
      <rect x="30" y="10" width="40" height="20" fill="#6c757d" />
      <text x="50" y="45" text-anchor="middle" font-family="Arial, sans-serif" font-size="11" fill="#333">
        Concrete Foundation
      </text>
      <text x="50" y="58" text-anchor="middle" font-family="Arial, sans-serif" font-size="10" fill="#333">
        (1000+ tons)
      </text>
    </g>

    <!-- Tower -->
    <g transform="translate(390,200)">
      <rect x="0" y="0" width="20" height="350" fill="url(#towerGrad)" />
      <!-- Tower sections -->
      <line x1="0" y1="120" x2="20" y2="120" stroke="#495057" stroke-width="2" />
      <line x1="0" y1="240" x2="20" y2="240" stroke="#495057" stroke-width="2" />

      <!-- Ladder -->
      <g stroke="#333" stroke-width="1">
        <line x1="5" y1="0" x2="5" y2="350" />
        <line x1="15" y1="0" x2="15" y2="350" />
        <!-- Rungs -->
        <line x1="5" y1="20" x2="15" y2="20" />
        <line x1="5" y1="40" x2="15" y2="40" />
        <line x1="5" y1="60" x2="15" y2="60" />
        <line x1="5" y1="80" x2="15" y2="80" />
        <line x1="5" y1="100" x2="15" y2="100" />
        <line x1="5" y1="140" x2="15" y2="140" />
        <line x1="5" y1="160" x2="15" y2="160" />
        <line x1="5" y1="180" x2="15" y2="180" />
        <line x1="5" y1="200" x2="15" y2="200" />
        <line x1="5" y1="220" x2="15" y2="220" />
        <line x1="5" y1="260" x2="15" y2="260" />
        <line x1="5" y1="280" x2="15" y2="280" />
        <line x1="5" y1="300" x2="15" y2="300" />
        <line x1="5" y1="320" x2="15" y2="320" />
        <line x1="5" y1="340" x2="15" y2="340" />
      </g>

      <!-- Height indication -->
      <g stroke="#333" stroke-width="1" fill="none">
        <line x1="30" y1="0" x2="30" y2="350" marker-end="url(#arrowhead)" />
        <line x1="30" y1="350" x2="30" y2="0" marker-end="url(#arrowhead)" />
        <text x="40" y="175" font-family="Arial, sans-serif" font-size="11" fill="#333">80-120m</text>
      </g>

      <text x="10" y="-10" text-anchor="middle" font-family="Arial, sans-serif" font-size="12" font-weight="bold" fill="#6c757d">
        TOWER
      </text>
      <text x="10" y="370" text-anchor="middle" font-family="Arial, sans-serif" font-size="11" fill="#333">
        Tubular Steel/Concrete
      </text>
    </g>

    <!-- Nacelle -->
    <g transform="translate(340,160)">
      <ellipse cx="60" cy="25" rx="50" ry="25" fill="url(#nacelleGrad)" />
      <rect x="10" y="0" width="100" height="50" fill="url(#nacelleGrad)" rx="10" />

      <!-- Nacelle details -->
      <rect x="15" y="5" width="20" height="40" fill="#495057" rx="3" />
      <rect x="45" y="10" width="30" height="30" fill="#fd7e14" rx="3" />
      <rect x="85" y="5" width="20" height="40" fill="#495057" rx="3" />

      <!-- Access platform -->
      <rect x="10" y="50" width="100" height="5" fill="#adb5bd" />

      <text x="60" y="-5" text-anchor="middle" font-family="Arial, sans-serif" font-size="12" font-weight="bold" fill="#495057">
        NACELLE
      </text>
      <text x="60" y="70" text-anchor="middle" font-family="Arial, sans-serif" font-size="11" fill="#333">
        Houses Generator &amp; Controls
      </text>
    </g>

    <!-- Hub and Rotor -->
    <g transform="translate(290,175)">
      <!-- Hub -->
      <circle cx="0" cy="0" r="15" fill="#6c757d" />
      <circle cx="0" cy="0" r="10" fill="#495057" />

      <!-- Blade 1 (top) -->
      <g transform="rotate(-30)">
        <ellipse cx="-80" cy="0" rx="80" ry="8" fill="url(#bladeGrad)" />
        <text x="-120" y="5" font-family="Arial, sans-serif" font-size="10" fill="#333">Blade 1</text>
        <text x="-120" y="18" font-family="Arial, sans-serif" font-size="9" fill="#333">35-45m</text>
      </g>

      <!-- Blade 2 (bottom right) -->
      <g transform="rotate(90)">
        <ellipse cx="-80" cy="0" rx="80" ry="8" fill="url(#bladeGrad)" />
        <text x="-120" y="15" font-family="Arial, sans-serif" font-size="10" fill="#333">Blade 2</text>
      </g>

      <!-- Blade 3 (bottom left) -->
      <g transform="rotate(210)">
        <ellipse cx="-80" cy="0" rx="80" ry="8" fill="url(#bladeGrad)" />
        <text x="-120" y="15" font-family="Arial, sans-serif" font-size="10" fill="#333">Blade 3</text>
      </g>

      <text x="0" y="30" text-anchor="middle" font-family="Arial, sans-serif" font-size="12" font-weight="bold" fill="#333">
        ROTOR HUB
      </text>
      <text x="0" y="45" text-anchor="middle" font-family="Arial, sans-serif" font-size="11" fill="#333">
        3-Blade Design
      </text>
    </g>

    <!-- Wind direction arrows -->
    <g stroke="#007bff" stroke-width="3" marker-end="url(#windArrow)" opacity="0.7">
      <line x1="50" y1="100" x2="100" y2="100" />
      <line x1="50" y1="120" x2="100" y2="120" />
      <line x1="50" y1="140" x2="100" y2="140" />
      <line x1="50" y1="160" x2="100" y2="160" />
      <line x1="50" y1="180" x2="100" y2="180" />
      <line x1="50" y1="200" x2="100" y2="200" />
      <line x1="50" y1="220" x2="100" y2="220" />
      <line x1="50" y1="240" x2="100" y2="240" />
    </g>
    <text x="75" y="80" text-anchor="middle" font-family="Arial, sans-serif" font-size="12" font-weight="bold" fill="#007bff">
      WIND
    </text>
    <text x="75" y="95" text-anchor="middle" font-family="Arial, sans-serif" font-size="11" fill="#007bff">
      12-25 m/s
    </text>

    <!-- Power transmission -->
    <g stroke="#ffc107" stroke-width="4">
      <line x1="400" y1="550" x2="600" y2="550" />
      <line x1="600" y1="550" x2="600" y2="520" />
      <line x1="600" y1="520" x2="650" y2="520" />
    </g>
    <text x="525" y="545" text-anchor="middle" font-family="Arial, sans-serif" font-size="11" fill="#ffc107">
      Power Cable
    </text>

    <!-- Transformer -->
    <g transform="translate(650,500)">
      <rect x="0" y="0" width="60" height="40" fill="#fd7e14" rx="5" />
      <text x="30" y="25" text-anchor="middle" font-family="Arial, sans-serif" font-size="11" fill="white">
        Transformer
      </text>
      <text x="30" y="55" text-anchor="middle" font-family="Arial, sans-serif" font-size="10" fill="#333">
        690V → 33kV
      </text>
    </g>

    <!-- Grid connection -->
    <g stroke="#28a745" stroke-width="4">
      <line x1="710" y1="520" x2="750" y2="520" />
    </g>
    <text x="730" y="510" text-anchor="middle" font-family="Arial, sans-serif" font-size="11" fill="#28a745">
      To Grid
    </text>
  </g>

  <!-- Nacelle Internal Components -->
  <g transform="translate(870,80)">
    <rect x="0" y="0" width="880" height="600" fill="rgba(255,193,7,0.05)" rx="15" />
    <text x="440" y="25" text-anchor="middle" font-family="Arial, sans-serif" font-size="20" font-weight="bold" fill="#ffc107">
      NACELLE INTERNAL COMPONENTS
    </text>

    <!-- Nacelle cutaway view -->
    <g transform="translate(100,50)">
      <text x="340" y="20" text-anchor="middle" font-family="Arial, sans-serif" font-size="16" font-weight="bold" fill="#333">
        Cutaway View of Nacelle
      </text>

      <!-- Nacelle shell -->
      <path d="M 50,100 Q 50,60 100,60 L 580,60 Q 630,60 630,100 L 630,200 Q 630,240 580,240 L 100,240 Q 50,240 50,200 Z"
            fill="none" stroke="#6c757d" stroke-width="3" stroke-dasharray="5,5" />

      <!-- Low-speed shaft -->
      <rect x="80" y="140" width="120" height="20" fill="#adb5bd" />
      <text x="140" y="135" text-anchor="middle" font-family="Arial, sans-serif" font-size="11" fill="#333">
        Low-Speed Shaft
      </text>
      <text x="140" y="175" text-anchor="middle" font-family="Arial, sans-serif" font-size="10" fill="#333">
        20-40 RPM
      </text>

      <!-- Gearbox -->
      <rect x="220" y="120" width="80" height="60" fill="#fd7e14" rx="5" />
      <text x="260" y="145" text-anchor="middle" font-family="Arial, sans-serif" font-size="12" font-weight="bold" fill="white">
        GEARBOX
      </text>
      <text x="260" y="160" text-anchor="middle" font-family="Arial, sans-serif" font-size="10" fill="white">
        1:50-1:100
      </text>
      <text x="260" y="175" text-anchor="middle" font-family="Arial, sans-serif" font-size="10" fill="white">
        Ratio
      </text>

      <!-- High-speed shaft -->
      <rect x="320" y="140" width="80" height="20" fill="#adb5bd" />
      <text x="360" y="135" text-anchor="middle" font-family="Arial, sans-serif" font-size="11" fill="#333">
        High-Speed Shaft
      </text>
      <text x="360" y="175" text-anchor="middle" font-family="Arial, sans-serif" font-size="10" fill="#333">
        1000-1800 RPM
      </text>

      <!-- Generator -->
      <circle cx="450" cy="150" r="30" fill="url(#generatorGrad)" />
      <text x="450" y="155" text-anchor="middle" font-family="Arial, sans-serif" font-size="12" font-weight="bold" fill="white">
        GEN
      </text>
      <text x="450" y="190" text-anchor="middle" font-family="Arial, sans-serif" font-size="11" fill="#333">
        Generator
      </text>
      <text x="450" y="205" text-anchor="middle" font-family="Arial, sans-serif" font-size="10" fill="#333">
        1.5-3 MW
      </text>

      <!-- Power electronics -->
      <rect x="500" y="130" width="60" height="40" fill="#007bff" rx="5" />
      <text x="530" y="145" text-anchor="middle" font-family="Arial, sans-serif" font-size="10" fill="white">
        Power
      </text>
      <text x="530" y="155" text-anchor="middle" font-family="Arial, sans-serif" font-size="10" fill="white">
        Electronics
      </text>
      <text x="530" y="185" text-anchor="middle" font-family="Arial, sans-serif" font-size="10" fill="#333">
        Converter
      </text>

      <!-- Brake system -->
      <rect x="400" y="120" width="20" height="15" fill="#dc3545" />
      <text x="410" y="115" text-anchor="middle" font-family="Arial, sans-serif" font-size="10" fill="#dc3545">
        Brake
      </text>

      <!-- Control cabinet -->
      <rect x="580" y="110" width="40" height="80" fill="#495057" rx="5" />
      <text x="600" y="130" text-anchor="middle" font-family="Arial, sans-serif" font-size="10" fill="white">
        Control
      </text>
      <text x="600" y="140" text-anchor="middle" font-family="Arial, sans-serif" font-size="10" fill="white">
        System
      </text>
      <text x="600" y="205" text-anchor="middle" font-family="Arial, sans-serif" font-size="10" fill="#333">
        SCADA
      </text>

      <!-- Yaw system -->
      <rect x="300" y="260" width="80" height="20" fill="#6f42c1" />
      <text x="340" y="275" text-anchor="middle" font-family="Arial, sans-serif" font-size="11" fill="white">
        Yaw Drive
      </text>
      <text x="340" y="295" text-anchor="middle" font-family="Arial, sans-serif" font-size="10" fill="#333">
        Wind Tracking
      </text>

      <!-- Wind vane -->
      <g transform="translate(600,80)">
        <line x1="0" y1="0" x2="30" y2="0" stroke="#28a745" stroke-width="3" />
        <polygon points="30,0 25,5 25,-5" fill="#28a745" />
        <text x="15" y="-10" text-anchor="middle" font-family="Arial, sans-serif" font-size="10" fill="#28a745">
          Wind Vane
        </text>
      </g>

      <!-- Anemometer -->
      <g transform="translate(550,70)">
        <circle cx="0" cy="0" r="5" fill="#17a2b8" />
        <g stroke="#17a2b8" stroke-width="2">
          <line x1="0" y1="0" x2="8" y2="-8" />
          <line x1="0" y1="0" x2="8" y2="8" />
          <line x1="0" y1="0" x2="-8" y2="0" />
        </g>
        <text x="0" y="-15" text-anchor="middle" font-family="Arial, sans-serif" font-size="10" fill="#17a2b8">
          Anemometer
        </text>
      </g>

      <!-- Power flow arrows -->
      <g stroke="#ffc107" stroke-width="3" marker-end="url(#arrowhead)">
        <line x1="200" y1="150" x2="220" y2="150" />
        <line x1="300" y1="150" x2="320" y2="150" />
        <line x1="400" y1="150" x2="420" y2="150" />
        <line x1="480" y1="150" x2="500" y2="150" />
      </g>
    </g>

    <!-- Component Details -->
    <g transform="translate(50,350)">
      <text x="400" y="20" text-anchor="middle" font-family="Arial, sans-serif" font-size="16" font-weight="bold" fill="#333">
        Key Component Functions
      </text>

      <!-- Rotor details -->
      <g transform="translate(0,40)">
        <rect x="0" y="0" width="200" height="180" fill="rgba(0,123,255,0.1)" rx="10" />
        <text x="100" y="20" text-anchor="middle" font-family="Arial, sans-serif" font-size="14" font-weight="bold" fill="#007bff">
          ROTOR SYSTEM
        </text>

        <text x="10" y="40" font-family="Arial, sans-serif" font-size="12" font-weight="bold" fill="#333">Blades:</text>
        <text x="10" y="55" font-family="Arial, sans-serif" font-size="11" fill="#333">• Aerodynamic design</text>
        <text x="10" y="70" font-family="Arial, sans-serif" font-size="11" fill="#333">• Fiberglass/carbon fiber</text>
        <text x="10" y="85" font-family="Arial, sans-serif" font-size="11" fill="#333">• Variable pitch control</text>

        <text x="10" y="105" font-family="Arial, sans-serif" font-size="12" font-weight="bold" fill="#333">Hub:</text>
        <text x="10" y="120" font-family="Arial, sans-serif" font-size="11" fill="#333">• Cast iron/steel construction</text>
        <text x="10" y="135" font-family="Arial, sans-serif" font-size="11" fill="#333">• Pitch control mechanisms</text>
        <text x="10" y="150" font-family="Arial, sans-serif" font-size="11" fill="#333">• Lightning protection</text>

        <text x="100" y="170" text-anchor="middle" font-family="Arial, sans-serif" font-size="11" font-weight="bold" fill="#007bff">
          Rotor Diameter: 80-120m
        </text>
      </g>

      <!-- Drivetrain details -->
      <g transform="translate(220,40)">
        <rect x="0" y="0" width="200" height="180" fill="rgba(255,193,7,0.1)" rx="10" />
        <text x="100" y="20" text-anchor="middle" font-family="Arial, sans-serif" font-size="14" font-weight="bold" fill="#ffc107">
          DRIVETRAIN
        </text>

        <text x="10" y="40" font-family="Arial, sans-serif" font-size="12" font-weight="bold" fill="#333">Gearbox:</text>
        <text x="10" y="55" font-family="Arial, sans-serif" font-size="11" fill="#333">• Planetary gear design</text>
        <text x="10" y="70" font-family="Arial, sans-serif" font-size="11" fill="#333">• Speed increase 50:1-100:1</text>
        <text x="10" y="85" font-family="Arial, sans-serif" font-size="11" fill="#333">• Oil cooling system</text>

        <text x="10" y="105" font-family="Arial, sans-serif" font-size="12" font-weight="bold" fill="#333">Shafts:</text>
        <text x="10" y="120" font-family="Arial, sans-serif" font-size="11" fill="#333">• Low-speed: 20-40 RPM</text>
        <text x="10" y="135" font-family="Arial, sans-serif" font-size="11" fill="#333">• High-speed: 1000-1800 RPM</text>
        <text x="10" y="150" font-family="Arial, sans-serif" font-size="11" fill="#333">• Bearing systems</text>

        <text x="100" y="170" text-anchor="middle" font-family="Arial, sans-serif" font-size="11" font-weight="bold" fill="#ffc107">
          Efficiency: 95-98%
        </text>
      </g>

      <!-- Generator details -->
      <g transform="translate(440,40)">
        <rect x="0" y="0" width="200" height="180" fill="rgba(40,167,69,0.1)" rx="10" />
        <text x="100" y="20" text-anchor="middle" font-family="Arial, sans-serif" font-size="14" font-weight="bold" fill="#28a745">
          GENERATOR
        </text>

        <text x="10" y="40" font-family="Arial, sans-serif" font-size="12" font-weight="bold" fill="#333">Types:</text>
        <text x="10" y="55" font-family="Arial, sans-serif" font-size="11" fill="#333">• Asynchronous (SCIG/DFIG)</text>
        <text x="10" y="70" font-family="Arial, sans-serif" font-size="11" fill="#333">• Synchronous (PMSG)</text>
        <text x="10" y="85" font-family="Arial, sans-serif" font-size="11" fill="#333">• Direct drive options</text>

        <text x="10" y="105" font-family="Arial, sans-serif" font-size="12" font-weight="bold" fill="#333">Output:</text>
        <text x="10" y="120" font-family="Arial, sans-serif" font-size="11" fill="#333">• Power: 1.5-3 MW</text>
        <text x="10" y="135" font-family="Arial, sans-serif" font-size="11" fill="#333">• Voltage: 690V AC</text>
        <text x="10" y="150" font-family="Arial, sans-serif" font-size="11" fill="#333">• Variable frequency</text>

        <text x="100" y="170" text-anchor="middle" font-family="Arial, sans-serif" font-size="11" font-weight="bold" fill="#28a745">
          Efficiency: 92-96%
        </text>
      </g>

      <!-- Control system details -->
      <g transform="translate(660,40)">
        <rect x="0" y="0" width="200" height="180" fill="rgba(111,66,193,0.1)" rx="10" />
        <text x="100" y="20" text-anchor="middle" font-family="Arial, sans-serif" font-size="14" font-weight="bold" fill="#6f42c1">
          CONTROL SYSTEM
        </text>

        <text x="10" y="40" font-family="Arial, sans-serif" font-size="12" font-weight="bold" fill="#333">Functions:</text>
        <text x="10" y="55" font-family="Arial, sans-serif" font-size="11" fill="#333">• Wind tracking (yaw)</text>
        <text x="10" y="70" font-family="Arial, sans-serif" font-size="11" fill="#333">• Pitch control</text>
        <text x="10" y="85" font-family="Arial, sans-serif" font-size="11" fill="#333">• Power optimization</text>

        <text x="10" y="105" font-family="Arial, sans-serif" font-size="12" font-weight="bold" fill="#333">Sensors:</text>
        <text x="10" y="120" font-family="Arial, sans-serif" font-size="11" fill="#333">• Wind speed/direction</text>
        <text x="10" y="135" font-family="Arial, sans-serif" font-size="11" fill="#333">• Vibration monitoring</text>
        <text x="10" y="150" font-family="Arial, sans-serif" font-size="11" fill="#333">• Temperature sensors</text>

        <text x="100" y="170" text-anchor="middle" font-family="Arial, sans-serif" font-size="11" font-weight="bold" fill="#6f42c1">
          SCADA Integration
        </text>
      </g>
    </g>
  </g>

  <!-- Aerodynamics Section -->
  <g transform="translate(50,700)">
    <rect x="0" y="0" width="800" height="280" fill="rgba(220,53,69,0.05)" rx="15" />
    <text x="400" y="25" text-anchor="middle" font-family="Arial, sans-serif" font-size="20" font-weight="bold" fill="#dc3545">
      AERODYNAMIC PRINCIPLES &amp; BLADE DESIGN
    </text>

    <!-- Blade cross-section -->
    <g transform="translate(50,50)">
      <text x="150" y="20" text-anchor="middle" font-family="Arial, sans-serif" font-size="16" font-weight="bold" fill="#333">
        Blade Aerodynamics
      </text>

      <!-- Airfoil shape -->
      <path d="M 50,80 Q 80,60 150,70 Q 220,75 250,80 Q 220,85 150,90 Q 80,100 50,80 Z"
            fill="url(#bladeGrad)" stroke="#333" stroke-width="2" />

      <!-- Wind flow lines -->
      <g stroke="#007bff" stroke-width="2" marker-end="url(#windArrow)" opacity="0.7">
        <path d="M 20,50 Q 40,45 60,50 Q 80,55 100,55 Q 150,55 200,55 Q 220,55 240,55 Q 260,55 280,55" />
        <path d="M 20,70 Q 40,65 60,70 Q 80,75 100,75 Q 150,75 200,75 Q 220,75 240,75 Q 260,75 280,75" />
        <path d="M 20,100 Q 40,95 60,100 Q 80,105 100,105 Q 150,105 200,105 Q 220,105 240,105 Q 260,105 280,105" />
        <path d="M 20,120 Q 40,115 60,120 Q 80,125 100,125 Q 150,125 200,125 Q 220,125 240,125 Q 260,125 280,125" />
      </g>

      <!-- Force vectors -->
      <g stroke="#28a745" stroke-width="3" marker-end="url(#forceArrow)">
        <line x1="150" y1="80" x2="150" y2="40" />
        <line x1="150" y1="80" x2="120" y2="65" />
      </g>
      <text x="155" y="35" font-family="Arial, sans-serif" font-size="11" fill="#28a745">Lift</text>
      <text x="105" y="60" font-family="Arial, sans-serif" font-size="11" fill="#28a745">Drag</text>

      <!-- Angle of attack -->
      <path d="M 70,95 A 15,15 0 0,0 85,80" fill="none" stroke="#dc3545" stroke-width="2" />
      <text x="75" y="110" font-family="Arial, sans-serif" font-size="10" fill="#dc3545">α (Angle of Attack)</text>

      <!-- Wind direction -->
      <text x="20" y="40" font-family="Arial, sans-serif" font-size="11" fill="#007bff">Wind</text>

      <!-- Pressure zones -->
      <text x="150" y="60" text-anchor="middle" font-family="Arial, sans-serif" font-size="10" fill="#333">
        Low Pressure
      </text>
      <text x="150" y="115" text-anchor="middle" font-family="Arial, sans-serif" font-size="10" fill="#333">
        High Pressure
      </text>
    </g>

    <!-- Blade twist -->
    <g transform="translate(350,50)">
      <text x="150" y="20" text-anchor="middle" font-family="Arial, sans-serif" font-size="16" font-weight="bold" fill="#333">
        Blade Twist &amp; Taper
      </text>

      <!-- Multiple cross-sections -->
      <g opacity="0.8">
        <!-- Root section -->
        <ellipse cx="50" cy="80" rx="40" ry="15" fill="#adb5bd" transform="rotate(15 50 80)" />
        <text x="50" y="110" text-anchor="middle" font-family="Arial, sans-serif" font-size="10" fill="#333">Root</text>
        <text x="50" y="125" text-anchor="middle" font-family="Arial, sans-serif" font-size="9" fill="#333">15° twist</text>

        <!-- Mid section -->
        <ellipse cx="150" cy="80" rx="35" ry="12" fill="#ced4da" transform="rotate(8 150 80)" />
        <text x="150" y="110" text-anchor="middle" font-family="Arial, sans-serif" font-size="10" fill="#333">Mid</text>
        <text x="150" y="125" text-anchor="middle" font-family="Arial, sans-serif" font-size="9" fill="#333">8° twist</text>

        <!-- Tip section -->
        <ellipse cx="250" cy="80" rx="25" ry="8" fill="#e9ecef" transform="rotate(2 250 80)" />
        <text x="250" y="110" text-anchor="middle" font-family="Arial, sans-serif" font-size="10" fill="#333">Tip</text>
        <text x="250" y="125" text-anchor="middle" font-family="Arial, sans-serif" font-size="9" fill="#333">2° twist</text>
      </g>

      <!-- Centerline -->
      <line x1="50" y1="80" x2="250" y2="80" stroke="#333" stroke-width="2" stroke-dasharray="5,5" />
      <text x="150" y="155" text-anchor="middle" font-family="Arial, sans-serif" font-size="11" fill="#333">
        Optimal angle for varying wind speed
      </text>
    </g>

    <!-- Power curve -->
    <g transform="translate(50,160)">
      <text x="150" y="20" text-anchor="middle" font-family="Arial, sans-serif" font-size="16" font-weight="bold" fill="#333">
        Power Curve
      </text>

      <!-- Axes -->
      <line x1="30" y1="100" x2="270" y2="100" stroke="#333" stroke-width="2" marker-end="url(#arrowhead)" />
      <line x1="30" y1="100" x2="30" y2="30" stroke="#333" stroke-width="2" marker-end="url(#arrowhead)" />

      <!-- Power curve -->
      <path d="M 30,100 L 50,100 Q 80,85 120,50 Q 160,35 200,30 L 250,30"
            fill="none" stroke="#28a745" stroke-width="4" />

      <!-- Operating regions -->
      <text x="40" y="110" font-family="Arial, sans-serif" font-size="9" fill="#333">Cut-in</text>
      <text x="40" y="120" font-family="Arial, sans-serif" font-size="9" fill="#333">3 m/s</text>

      <text x="120" y="110" font-family="Arial, sans-serif" font-size="9" fill="#333">Rated</text>
      <text x="120" y="120" font-family="Arial, sans-serif" font-size="9" fill="#333">12 m/s</text>

      <text x="200" y="110" font-family="Arial, sans-serif" font-size="9" fill="#333">Cut-out</text>
      <text x="200" y="120" font-family="Arial, sans-serif" font-size="9" fill="#333">25 m/s</text>

      <!-- Labels -->
      <text x="280" y="105" font-family="Arial, sans-serif" font-size="11" fill="#333">Wind Speed (m/s)</text>
      <text x="25" y="25" font-family="Arial, sans-serif" font-size="11" fill="#333">Power</text>
      <text x="25" y="15" font-family="Arial, sans-serif" font-size="11" fill="#333">(MW)</text>
    </g>

    <!-- Tip speed ratio -->
    <g transform="translate(350,160)">
      <text x="150" y="20" text-anchor="middle" font-family="Arial, sans-serif" font-size="16" font-weight="bold" fill="#333">
        Tip Speed Ratio (TSR)
      </text>

      <text x="150" y="45" text-anchor="middle" font-family="Arial, sans-serif" font-size="14" fill="#333">
        λ = ωR/V
      </text>

      <text x="20" y="70" font-family="Arial, sans-serif" font-size="12" fill="#333">Where:</text>
      <text x="20" y="85" font-family="Arial, sans-serif" font-size="11" fill="#333">λ = Tip speed ratio</text>
      <text x="20" y="100" font-family="Arial, sans-serif" font-size="11" fill="#333">ω = Angular velocity (rad/s)</text>
      <text x="20" y="115" font-family="Arial, sans-serif" font-size="11" fill="#333">R = Rotor radius (m)</text>
      <text x="160" y="85" font-family="Arial, sans-serif" font-size="11" fill="#333">V = Wind speed (m/s)</text>

      <text x="150" y="135" text-anchor="middle" font-family="Arial, sans-serif" font-size="12" font-weight="bold" fill="#28a745">
        Optimal TSR: 6-8
      </text>
    </g>
  </g>

  <!-- Energy Conversion -->
  <g transform="translate(870,700)">
    <rect x="0" y="0" width="880" height="280" fill="rgba(23,162,184,0.05)" rx="15" />
    <text x="440" y="25" text-anchor="middle" font-family="Arial, sans-serif" font-size="20" font-weight="bold" fill="#17a2b8">
      ENERGY CONVERSION PROCESS
    </text>

    <!-- Energy flow diagram -->
    <g transform="translate(50,50)">
      <text x="400" y="20" text-anchor="middle" font-family="Arial, sans-serif" font-size="16" font-weight="bold" fill="#333">
        Wind Energy to Electrical Energy Conversion
      </text>

      <!-- Stage 1: Wind Energy -->
      <g transform="translate(50,40)">
        <rect x="0" y="0" width="120" height="60" fill="rgba(0,123,255,0.2)" rx="10" />
        <text x="60" y="25" text-anchor="middle" font-family="Arial, sans-serif" font-size="12" font-weight="bold" fill="#007bff">
          WIND ENERGY
        </text>
        <text x="60" y="40" text-anchor="middle" font-family="Arial, sans-serif" font-size="11" fill="#333">
          P = ½ρAV³
        </text>
        <text x="60" y="55" text-anchor="middle" font-family="Arial, sans-serif" font-size="10" fill="#333">
          Kinetic Energy
        </text>
        <text x="60" y="75" text-anchor="middle" font-family="Arial, sans-serif" font-size="11" fill="#007bff">
          100%
        </text>
      </g>

      <!-- Arrow 1 -->
      <g stroke="#333" stroke-width="3" marker-end="url(#arrowhead)">
        <line x1="180" y1="70" x2="220" y2="70" />
      </g>
      <text x="200" y="60" text-anchor="middle" font-family="Arial, sans-serif" font-size="10" fill="#333">
        Betz Limit
      </text>
      <text x="200" y="85" text-anchor="middle" font-family="Arial, sans-serif" font-size="10" fill="#333">
        59.3%
      </text>

      <!-- Stage 2: Mechanical Energy -->
      <g transform="translate(230,40)">
        <rect x="0" y="0" width="120" height="60" fill="rgba(255,193,7,0.2)" rx="10" />
        <text x="60" y="20" text-anchor="middle" font-family="Arial, sans-serif" font-size="12" font-weight="bold" fill="#ffc107">
          MECHANICAL
        </text>
        <text x="60" y="35" text-anchor="middle" font-family="Arial, sans-serif" font-size="12" font-weight="bold" fill="#ffc107">
          ENERGY
        </text>
        <text x="60" y="50" text-anchor="middle" font-family="Arial, sans-serif" font-size="10" fill="#333">
          Rotational
        </text>
        <text x="60" y="75" text-anchor="middle" font-family="Arial, sans-serif" font-size="11" fill="#ffc107">
          45-50%
        </text>
      </g>

      <!-- Arrow 2 -->
      <g stroke="#333" stroke-width="3" marker-end="url(#arrowhead)">
        <line x1="360" y1="70" x2="400" y2="70" />
      </g>
      <text x="380" y="60" text-anchor="middle" font-family="Arial, sans-serif" font-size="10" fill="#333">
        Gearbox
      </text>
      <text x="380" y="85" text-anchor="middle" font-family="Arial, sans-serif" font-size="10" fill="#333">
        95-98%
      </text>

      <!-- Stage 3: High-speed Mechanical -->
      <g transform="translate(410,40)">
        <rect x="0" y="0" width="120" height="60" fill="rgba(40,167,69,0.2)" rx="10" />
        <text x="60" y="20" text-anchor="middle" font-family="Arial, sans-serif" font-size="12" font-weight="bold" fill="#28a745">
          HIGH-SPEED
        </text>
        <text x="60" y="35" text-anchor="middle" font-family="Arial, sans-serif" font-size="12" font-weight="bold" fill="#28a745">
          MECHANICAL
        </text>
        <text x="60" y="50" text-anchor="middle" font-family="Arial, sans-serif" font-size="10" fill="#333">
          1000-1800 RPM
        </text>
        <text x="60" y="75" text-anchor="middle" font-family="Arial, sans-serif" font-size="11" fill="#28a745">
          43-49%
        </text>
      </g>

      <!-- Arrow 3 -->
      <g stroke="#333" stroke-width="3" marker-end="url(#arrowhead)">
        <line x1="540" y1="70" x2="580" y2="70" />
      </g>
      <text x="560" y="60" text-anchor="middle" font-family="Arial, sans-serif" font-size="10" fill="#333">
        Generator
      </text>
      <text x="560" y="85" text-anchor="middle" font-family="Arial, sans-serif" font-size="10" fill="#333">
        92-96%
      </text>

      <!-- Stage 4: Electrical Energy -->
      <g transform="translate(590,40)">
        <rect x="0" y="0" width="120" height="60" fill="rgba(220,53,69,0.2)" rx="10" />
        <text x="60" y="25" text-anchor="middle" font-family="Arial, sans-serif" font-size="12" font-weight="bold" fill="#dc3545">
          ELECTRICAL
        </text>
        <text x="60" y="40" text-anchor="middle" font-family="Arial, sans-serif" font-size="12" font-weight="bold" fill="#dc3545">
          ENERGY
        </text>
        <text x="60" y="55" text-anchor="middle" font-family="Arial, sans-serif" font-size="10" fill="#333">
          AC Power
        </text>
        <text x="60" y="75" text-anchor="middle" font-family="Arial, sans-serif" font-size="11" fill="#dc3545">
          35-45%
        </text>
      </g>

      <!-- Overall efficiency -->
      <text x="400" y="130" text-anchor="middle" font-family="Arial, sans-serif" font-size="14" font-weight="bold" fill="#333">
        Overall System Efficiency: 35-45%
      </text>
    </g>

    <!-- Performance factors -->
    <g transform="translate(50,180)">
      <text x="400" y="20" text-anchor="middle" font-family="Arial, sans-serif" font-size="16" font-weight="bold" fill="#333">
        Performance Factors &amp; Limitations
      </text>

      <g transform="translate(50,40)">
        <text x="0" y="20" font-family="Arial, sans-serif" font-size="14" font-weight="bold" fill="#17a2b8">Betz Law:</text>
        <text x="0" y="35" font-family="Arial, sans-serif" font-size="11" fill="#333">• Maximum theoretical efficiency: 59.3%</text>
        <text x="0" y="50" font-family="Arial, sans-serif" font-size="11" fill="#333">• No wind turbine can extract more than 16/27 of kinetic energy</text>

        <text x="400" y="20" font-family="Arial, sans-serif" font-size="14" font-weight="bold" fill="#17a2b8">Environmental Factors:</text>
        <text x="400" y="35" font-family="Arial, sans-serif" font-size="11" fill="#333">• Wind speed variations</text>
        <text x="400" y="50" font-family="Arial, sans-serif" font-size="11" fill="#333">• Turbulence and wind shear</text>
        <text x="400" y="65" font-family="Arial, sans-serif" font-size="11" fill="#333">• Temperature effects</text>
      </g>
    </g>
  </g>

  <!-- Footer -->
  <g transform="translate(50,1000)">
    <text x="850" y="20" text-anchor="middle" font-family="Arial, sans-serif" font-size="16" font-weight="bold" fill="#495057">
      Wind turbines convert kinetic energy of wind into electrical energy through aerodynamic and electromagnetic principles
    </text>
    <text x="850" y="40" text-anchor="middle" font-family="Arial, sans-serif" font-size="12" fill="#6c757d">
      Applications: Utility-Scale Power Generation | Distributed Energy | Offshore Wind Farms | Remote Power Systems | Grid Stabilization
    </text>
  </g>
</svg>