<svg viewBox="0 0 1200 800" xmlns="http://www.w3.org/2000/svg">
  <defs>
    <linearGradient id="windGrad" x1="0%" y1="0%" x2="100%" y2="100%">
      <stop offset="0%" style="stop-color:#3498db;stop-opacity:1" />
      <stop offset="100%" style="stop-color:#2980b9;stop-opacity:1" />
    </linearGradient>
    <linearGradient id="towerGrad" x1="0%" y1="0%" x2="100%" y2="100%">
      <stop offset="0%" style="stop-color:#95a5a6;stop-opacity:1" />
      <stop offset="100%" style="stop-color:#7f8c8d;stop-opacity:1" />
    </linearGradient>
    <linearGradient id="nacelleGrad" x1="0%" y1="0%" x2="100%" y2="100%">
      <stop offset="0%" style="stop-color:#34495e;stop-opacity:1" />
      <stop offset="100%" style="stop-color:#2c3e50;stop-opacity:1" />
    </linearGradient>
    <linearGradient id="bladeGrad" x1="0%" y1="0%" x2="100%" y2="100%">
      <stop offset="0%" style="stop-color:#ecf0f1;stop-opacity:1" />
      <stop offset="100%" style="stop-color:#bdc3c7;stop-opacity:1" />
    </linearGradient>
    <linearGradient id="seaGrad" x1="0%" y1="0%" x2="100%" y2="100%">
      <stop offset="0%" style="stop-color:#16a085;stop-opacity:1" />
      <stop offset="100%" style="stop-color:#1abc9c;stop-opacity:1" />
    </linearGradient>
    <marker id="arrowhead" markerWidth="10" markerHeight="7" refX="10" refY="3.5" orient="auto">
      <polygon points="0 0, 10 3.5, 0 7" fill="#333" />
    </marker>
    <marker id="windArrow" markerWidth="8" markerHeight="6" refX="8" refY="3" orient="auto">
      <polygon points="0 0, 8 3, 0 6" fill="#3498db" />
    </marker>
  </defs>
  
  <!-- Background -->
  <rect width="1200" height="800" fill="#f8f9fa"/>
  
  <!-- Title -->
  <text x="600" y="30" text-anchor="middle" font-family="Arial, sans-serif" font-size="24" font-weight="bold" fill="#2c3e50">
    Wind Power Systems and Turbine Types
  </text>
  
  <!-- Modern Wind Turbine Components -->
  <g id="turbine-components">
    <text x="250" y="70" text-anchor="middle" font-family="Arial, sans-serif" font-size="18" font-weight="bold" fill="#34495e">
      Modern Wind Turbine Components
    </text>
    
    <!-- Complete wind turbine -->
    <g transform="translate(150,100)">
      <!-- Foundation -->
      <ellipse cx="100" cy="280" rx="40" ry="8" fill="#7f8c8d" opacity="0.8"/>
      
      <!-- Tower -->
      <polygon points="95,280 105,280 110,80 90,80" fill="url(#towerGrad)" stroke="#7f8c8d" stroke-width="2"/>
      <text x="80" y="300" font-family="Arial, sans-serif" font-size="12" fill="#2c3e50" font-weight="bold">Tower</text>
      <text x="80" y="315" font-family="Arial, sans-serif" font-size="10" fill="#666">80-120m height</text>
      
      <!-- Nacelle -->
      <ellipse cx="100" cy="80" rx="25" ry="12" fill="url(#nacelleGrad)" stroke="#2c3e50" stroke-width="2"/>
      <text x="130" y="85" font-family="Arial, sans-serif" font-size="12" fill="#2c3e50" font-weight="bold">Nacelle</text>
      <text x="130" y="100" font-family="Arial, sans-serif" font-size="10" fill="#666">Gearbox, Generator</text>
      
      <!-- Hub -->
      <circle cx="75" cy="80" r="8" fill="#34495e" stroke="#2c3e50" stroke-width="2"/>
      
      <!-- Blades (3 blades, positioned at 120° angles) -->
      <!-- Blade 1 (top) -->
      <g transform="translate(75,80) rotate(0)">
        <path d="M0,0 Q-5,-30 0,-60 Q5,-30 0,0" fill="url(#bladeGrad)" stroke="#bdc3c7" stroke-width="2"/>
      </g>
      
      <!-- Blade 2 (bottom right) -->
      <g transform="translate(75,80) rotate(120)">
        <path d="M0,0 Q-5,-30 0,-60 Q5,-30 0,0" fill="url(#bladeGrad)" stroke="#bdc3c7" stroke-width="2"/>
      </g>
      
      <!-- Blade 3 (bottom left) -->
      <g transform="translate(75,80) rotate(240)">
        <path d="M0,0 Q-5,-30 0,-60 Q5,-30 0,0" fill="url(#bladeGrad)" stroke="#bdc3c7" stroke-width="2"/>
      </g>
      
      <!-- Wind direction arrows -->
      <g stroke="#3498db" stroke-width="2" opacity="0.7">
        <line x1="20" y1="60" x2="50" y2="70" marker-end="url(#windArrow)"/>
        <line x1="20" y1="80" x2="50" y2="80" marker-end="url(#windArrow)"/>
        <line x1="20" y1="100" x2="50" y2="90" marker-end="url(#windArrow)"/>
        <text x="10" y="55" font-family="Arial, sans-serif" font-size="12" fill="#3498db" font-weight="bold">Wind</text>
      </g>
      
      <!-- Power lines -->
      <g transform="translate(120,200)">
        <line x1="0" y1="0" x2="40" y2="-10" stroke="#333" stroke-width="3"/>
        <line x1="40" y1="-10" x2="80" y2="-20" stroke="#333" stroke-width="3"/>
        <circle cx="0" cy="0" r="3" fill="#333"/>
        <circle cx="40" cy="-10" r="3" fill="#333"/>
        <circle cx="80" cy="-20" r="3" fill="#333"/>
        <text x="90" y="-25" font-family="Arial, sans-serif" font-size="10" fill="#333">Power Lines</text>
      </g>
    </g>
  </g>
  
  <!-- Turbine Types Comparison -->
  <g id="turbine-types">
    <text x="700" y="70" text-anchor="middle" font-family="Arial, sans-serif" font-size="18" font-weight="bold" fill="#34495e">
      Wind Turbine Types
    </text>
    
    <!-- Horizontal Axis Wind Turbine (HAWT) -->
    <g transform="translate(500,100)">
      <rect x="0" y="0" width="180" height="140" fill="#e8f4f8" stroke="#3498db" stroke-width="2" rx="8"/>
      <text x="90" y="20" text-anchor="middle" font-family="Arial, sans-serif" font-size="14" fill="#2980b9" font-weight="bold">
        Horizontal Axis (HAWT)
      </text>
      
      <!-- HAWT diagram -->
      <g transform="translate(90,70)">
        <rect x="-2" y="10" width="4" height="40" fill="#7f8c8d"/>
        <ellipse cx="0" cy="10" rx="12" ry="6" fill="#34495e"/>
        <ellipse cx="-12" cy="10" rx="4" ry="2" fill="#2c3e50"/>
        
        <!-- 3 blades -->
        <g transform="rotate(0)">
          <path d="M0,0 Q-2,-15 0,-30 Q2,-15 0,0" fill="#ecf0f1" stroke="#bdc3c7" stroke-width="1"/>
        </g>
        <g transform="rotate(120)">
          <path d="M0,0 Q-2,-15 0,-30 Q2,-15 0,0" fill="#ecf0f1" stroke="#bdc3c7" stroke-width="1"/>
        </g>
        <g transform="rotate(240)">
          <path d="M0,0 Q-2,-15 0,-30 Q2,-15 0,0" fill="#ecf0f1" stroke="#bdc3c7" stroke-width="1"/>
        </g>
      </g>
      
      <g transform="translate(10,85)">
        <text x="0" y="15" font-family="Arial, sans-serif" font-size="11" fill="#2c3e50">✓ High efficiency</text>
        <text x="0" y="28" font-family="Arial, sans-serif" font-size="11" fill="#2c3e50">✓ Most common</text>
        <text x="0" y="41" font-family="Arial, sans-serif" font-size="11" fill="#2c3e50">✓ Large scale</text>
      </g>
    </g>
    
    <!-- Vertical Axis Wind Turbine (VAWT) -->
    <g transform="translate(700,100)">
      <rect x="0" y="0" width="180" height="140" fill="#fdeaea" stroke="#e74c3c" stroke-width="2" rx="8"/>
      <text x="90" y="20" text-anchor="middle" font-family="Arial, sans-serif" font-size="14" fill="#c0392b" font-weight="bold">
        Vertical Axis (VAWT)
      </text>
      
      <!-- VAWT diagram (Darrieus type) -->
      <g transform="translate(90,70)">
        <rect x="-2" y="-20" width="4" height="60" fill="#7f8c8d"/>
        <!-- Curved blades -->
        <path d="M0,-20 Q-20,0 0,20" fill="none" stroke="#e74c3c" stroke-width="3"/>
        <path d="M0,-20 Q20,0 0,20" fill="none" stroke="#e74c3c" stroke-width="3"/>
        <path d="M0,-15 Q-15,0 0,15" fill="none" stroke="#c0392b" stroke-width="2"/>
        <path d="M0,-15 Q15,0 0,15" fill="none" stroke="#c0392b" stroke-width="2"/>
      </g>
      
      <g transform="translate(10,85)">
        <text x="0" y="15" font-family="Arial, sans-serif" font-size="11" fill="#2c3e50">✓ Omnidirectional</text>
        <text x="0" y="28" font-family="Arial, sans-serif" font-size="11" fill="#2c3e50">✓ Low wind start</text>
        <text x="0" y="41" font-family="Arial, sans-serif" font-size="11" fill="#2c3e50">✗ Lower efficiency</text>
      </g>
    </g>
    
    <!-- Small Wind Turbine -->
    <g transform="translate(900,100)">
      <rect x="0" y="0" width="140" height="140" fill="#e8f5e8" stroke="#27ae60" stroke-width="2" rx="8"/>
      <text x="70" y="20" text-anchor="middle" font-family="Arial, sans-serif" font-size="14" fill="#1e8449" font-weight="bold">
        Small Wind
      </text>
      
      <!-- Small turbine diagram -->
      <g transform="translate(70,65)">
        <rect x="-1" y="15" width="2" height="25" fill="#7f8c8d"/>
        <circle cx="0" cy="15" r="4" fill="#34495e"/>
        
        <!-- Small blades -->
        <g transform="rotate(0)">
          <path d="M0,0 Q-1,-8 0,-15 Q1,-8 0,0" fill="#ecf0f1" stroke="#bdc3c7" stroke-width="1"/>
        </g>
        <g transform="rotate(120)">
          <path d="M0,0 Q-1,-8 0,-15 Q1,-8 0,0" fill="#ecf0f1" stroke="#bdc3c7" stroke-width="1"/>
        </g>
        <g transform="rotate(240)">
          <path d="M0,0 Q-1,-8 0,-15 Q1,-8 0,0" fill="#ecf0f1" stroke="#bdc3c7" stroke-width="1"/>
        </g>
      </g>
      
      <g transform="translate(10,85)">
        <text x="0" y="15" font-family="Arial, sans-serif" font-size="11" fill="#2c3e50">✓ Residential scale</text>
        <text x="0" y="28" font-family="Arial, sans-serif" font-size="11" fill="#2c3e50">✓ Lower cost</text>
        <text x="0" y="41" font-family="Arial, sans-serif" font-size="11" fill="#2c3e50">✓ Easy maintenance</text>
      </g>
    </g>
  </g>
  
  <!-- Onshore vs Offshore -->
  <g id="location-types">
    <text x="300" y="280" text-anchor="middle" font-family="Arial, sans-serif" font-size="16" font-weight="bold" fill="#34495e">
      Onshore Wind Farm
    </text>
    
    <!-- Onshore wind farm -->
    <g transform="translate(50,300)">
      <rect x="0" y="0" width="500" height="120" fill="#f0f8e8" stroke="#27ae60" stroke-width="2" rx="8"/>
      
      <!-- Ground/hills -->
      <path d="M10 100 Q50 90 100 95 Q150 85 200 90 Q250 95 300 85 Q350 90 400 95 Q450 100 490 100 L490 110 L10 110 Z" 
            fill="#2ecc71" opacity="0.6"/>
      
      <!-- Multiple turbines -->
      <g transform="translate(80,95)">
        <rect x="-1" y="0" width="2" height="25" fill="url(#towerGrad)"/>
        <circle cx="0" cy="0" r="3" fill="#34495e"/>
        <g transform="rotate(45)">
          <path d="M0,0 Q-1,-8 0,-15 Q1,-8 0,0" fill="url(#bladeGrad)" stroke="#bdc3c7"/>
          <path d="M0,0 Q-1,-8 0,-15 Q1,-8 0,0" fill="url(#bladeGrad)" stroke="#bdc3c7" transform="rotate(120)"/>
          <path d="M0,0 Q-1,-8 0,-15 Q1,-8 0,0" fill="url(#bladeGrad)" stroke="#bdc3c7" transform="rotate(240)"/>
        </g>
      </g>
      
      <g transform="translate(180,90)">
        <rect x="-1" y="0" width="2" height="30" fill="url(#towerGrad)"/>
        <circle cx="0" cy="0" r="3" fill="#34495e"/>
        <g transform="rotate(0)">
          <path d="M0,0 Q-1,-8 0,-15 Q1,-8 0,0" fill="url(#bladeGrad)" stroke="#bdc3c7"/>
          <path d="M0,0 Q-1,-8 0,-15 Q1,-8 0,0" fill="url(#bladeGrad)" stroke="#bdc3c7" transform="rotate(120)"/>
          <path d="M0,0 Q-1,-8 0,-15 Q1,-8 0,0" fill="url(#bladeGrad)" stroke="#bdc3c7" transform="rotate(240)"/>
        </g>
      </g>
      
      <g transform="translate(300,95)">
        <rect x="-1" y="0" width="2" height="25" fill="url(#towerGrad)"/>
        <circle cx="0" cy="0" r="3" fill="#34495e"/>
        <g transform="rotate(90)">
          <path d="M0,0 Q-1,-8 0,-15 Q1,-8 0,0" fill="url(#bladeGrad)" stroke="#bdc3c7"/>
          <path d="M0,0 Q-1,-8 0,-15 Q1,-8 0,0" fill="url(#bladeGrad)" stroke="#bdc3c7" transform="rotate(120)"/>
          <path d="M0,0 Q-1,-8 0,-15 Q1,-8 0,0" fill="url(#bladeGrad)" stroke="#bdc3c7" transform="rotate(240)"/>
        </g>
      </g>
      
      <g transform="translate(400,90)">
        <rect x="-1" y="0" width="2" height="30" fill="url(#towerGrad)"/>
        <circle cx="0" cy="0" r="3" fill="#34495e"/>
        <g transform="rotate(180)">
          <path d="M0,0 Q-1,-8 0,-15 Q1,-8 0,0" fill="url(#bladeGrad)" stroke="#bdc3c7"/>
          <path d="M0,0 Q-1,-8 0,-15 Q1,-8 0,0" fill="url(#bladeGrad)" stroke="#bdc3c7" transform="rotate(120)"/>
          <path d="M0,0 Q-1,-8 0,-15 Q1,-8 0,0" fill="url(#bladeGrad)" stroke="#bdc3c7" transform="rotate(240)"/>
        </g>
      </g>
    </g>
    
    <!-- Onshore characteristics -->
    <g transform="translate(570,320)">
      <text x="0" y="15" font-family="Arial, sans-serif" font-size="12" fill="#2c3e50" font-weight="bold">Advantages:</text>
      <text x="0" y="30" font-family="Arial, sans-serif" font-size="11" fill="#27ae60">• Lower installation costs</text>
      <text x="0" y="43" font-family="Arial, sans-serif" font-size="11" fill="#27ae60">• Easier maintenance access</text>
      <text x="0" y="56" font-family="Arial, sans-serif" font-size="11" fill="#27ae60">• Established grid connection</text>
      
      <text x="0" y="80" font-family="Arial, sans-serif" font-size="12" fill="#2c3e50" font-weight="bold">Disadvantages:</text>
      <text x="0" y="95" font-family="Arial, sans-serif" font-size="11" fill="#e74c3c">• Variable wind speeds</text>
      <text x="0" y="108" font-family="Arial, sans-serif" font-size="11" fill="#e74c3c">• Visual/noise impact</text>
    </g>
    
    <!-- Offshore wind farm -->
    <text x="900" y="280" text-anchor="middle" font-family="Arial, sans-serif" font-size="16" font-weight="bold" fill="#34495e">
      Offshore Wind Farm
    </text>
    
    <g transform="translate(650,300)">
      <rect x="0" y="0" width="500" height="120" fill="#e0f7fa" stroke="#16a085" stroke-width="2" rx="8"/>
      
      <!-- Sea waves -->
      <path d="M10 90 Q30 85 50 90 Q70 95 90 90 Q110 85 130 90 Q150 95 170 90 Q190 85 210 90 Q230 95 250 90 Q270 85 290 90 Q310 95 330 90 Q350 85 370 90 Q390 95 410 90 Q430 85 450 90 Q470 95 490 90 L490 110 L10 110 Z" 
            fill="url(#seaGrad)" opacity="0.8"/>
      
      <!-- Offshore turbines -->
      <g transform="translate(80,90)">
        <rect x="-1" y="-35" width="2" height="35" fill="url(#towerGrad)"/>
        <circle cx="0" cy="-35" r="4" fill="#34495e"/>
        <g transform="translate(0,-35) rotate(30)">
          <path d="M0,0 Q-2,-12 0,-20 Q2,-12 0,0" fill="url(#bladeGrad)" stroke="#bdc3c7" stroke-width="1"/>
          <path d="M0,0 Q-2,-12 0,-20 Q2,-12 0,0" fill="url(#bladeGrad)" stroke="#bdc3c7" stroke-width="1" transform="rotate(120)"/>
          <path d="M0,0 Q-2,-12 0,-20 Q2,-12 0,0" fill="url(#bladeGrad)" stroke="#bdc3c7" stroke-width="1" transform="rotate(240)"/>
        </g>
      </g>
      
      <g transform="translate(200,90)">
        <rect x="-1" y="-40" width="2" height="40" fill="url(#towerGrad)"/>
        <circle cx="0" cy="-40" r="4" fill="#34495e"/>
        <g transform="translate(0,-40) rotate(90)">
          <path d="M0,0 Q-2,-12 0,-20 Q2,-12 0,0" fill="url(#bladeGrad)" stroke="#bdc3c7" stroke-width="1"/>
          <path d="M0,0 Q-2,-12 0,-20 Q2,-12 0,0" fill="url(#bladeGrad)" stroke="#bdc3c7" stroke-width="1" transform="rotate(120)"/>
          <path d="M0,0 Q-2,-12 0,-20 Q2,-12 0,0" fill="url(#bladeGrad)" stroke="#bdc3c7" stroke-width="1" transform="rotate(240)"/>
        </g>
      </g>
      
      <g transform="translate(320,90)">
        <rect x="-1" y="-35" width="2" height="35" fill="url(#towerGrad)"/>
        <circle cx="0" cy="-35" r="4" fill="#34495e"/>
        <g transform="translate(0,-35) rotate(150)">
          <path d="M0,0 Q-2,-12 0,-20 Q2,-12 0,0" fill="url(#bladeGrad)" stroke="#bdc3c7" stroke-width="1"/>
          <path d="M0,0 Q-2,-12 0,-20 Q2,-12 0,0" fill="url(#bladeGrad)" stroke="#bdc3c7" stroke-width="1" transform="rotate(120)"/>
          <path d="M0,0 Q-2,-12 0,-20 Q2,-12 0,0" fill="url(#bladeGrad)" stroke="#bdc3c7" stroke-width="1" transform="rotate(240)"/>
        </g>
      </g>
      
      <g transform="translate(420,90)">
        <rect x="-1" y="-40" width="2" height="40" fill="url(#towerGrad)"/>
        <circle cx="0" cy="-40" r="4" fill="#34495e"/>
        <g transform="translate(0,-40) rotate(210)">
          <path d="M0,0 Q-2,-12 0,-20 Q2,-12 0,0" fill="url(#bladeGrad)" stroke="#bdc3c7" stroke-width="1"/>
          <path d="M0,0 Q-2,-12 0,-20 Q2,-12 0,0" fill="url(#bladeGrad)" stroke="#bdc3c7" stroke-width="1" transform="rotate(120)"/>
          <path d="M0,0 Q-2,-12 0,-20 Q2,-12 0,0" fill="url(#bladeGrad)" stroke="#bdc3c7" stroke-width="1" transform="rotate(240)"/>
        </g>
      </g>
      
      <!-- Underwater cable -->
      <path d="M200 90 Q300 105 420 90" fill="none" stroke="#333" stroke-width="3" stroke-dasharray="5,3" opacity="0.7"/>
      <text x="310" y="108" text-anchor="middle" font-family="Arial, sans-serif" font-size="10" fill="#333">Submarine Cable</text>
    </g>
    
    <!-- Offshore characteristics -->
    <g transform="translate(570,460)">
      <text x="0" y="15" font-family="Arial, sans-serif" font-size="12" fill="#2c3e50" font-weight="bold">Advantages:</text>
      <text x="0" y="30" font-family="Arial, sans-serif" font-size="11" fill="#27ae60">• Consistent strong winds</text>
      <text x="0" y="43" font-family="Arial, sans-serif" font-size="11" fill="#27ae60">• No visual/noise impact</text>
      <text x="0" y="56" font-family="Arial, sans-serif" font-size="11" fill="#27ae60">• Larger turbines possible</text>
      
      <text x="0" y="80" font-family="Arial, sans-serif" font-size="12" fill="#2c3e50" font-weight="bold">Disadvantages:</text>
      <text x="0" y="95" font-family="Arial, sans-serif" font-size="11" fill="#e74c3c">• High installation costs</text>
      <text x="0" y="108" font-family="Arial, sans-serif" font-size="11" fill="#e74c3c">• Complex maintenance</text>
      <text x="0" y="121" font-family="Arial, sans-serif" font-size="11" fill="#e74c3c">• Submarine cables needed</text>
    </g>
  </g>
  
  <!-- Technical Specifications -->
  <g id="specifications">
    <text x="200" y="580" text-anchor="middle" font-family="Arial, sans-serif" font-size="16" font-weight="bold" fill="#34495e">
      Wind Turbine Specifications
    </text>
    
    <g transform="translate(50,600)">
      <rect x="0" y="0" width="300" height="150" fill="#f4f6f7" stroke="#bdc3c7" stroke-width="2" rx="8"/>
      <text x="150" y="20" text-anchor="middle" font-family="Arial, sans-serif" font-size="14" fill="#2c3e50" font-weight="bold">
        Modern Large Wind Turbine
      </text>
      
      <g transform="translate(15,30)">
        <text x="0" y="15" font-family="Arial, sans-serif" font-size="12" fill="#2c3e50" font-weight="bold">Rated Power:</text>
        <text x="120" y="15" font-family="Arial, sans-serif" font-size="12" fill="#666">2-15 MW</text>
        
        <text x="0" y="30" font-family="Arial, sans-serif" font-size="12" fill="#2c3e50" font-weight="bold">Rotor Diameter:</text>
        <text x="120" y="30" font-family="Arial, sans-serif" font-size="12" fill="#666">80-220 meters</text>
        
        <text x="0" y="45" font-family="Arial, sans-serif" font-size="12" fill="#2c3e50" font-weight="bold">Hub Height:</text>
        <text x="120" y="45" font-family="Arial, sans-serif" font-size="12" fill="#666">80-150 meters</text>
        
        <text x="0" y="60" font-family="Arial, sans-serif" font-size="12" fill="#2c3e50" font-weight="bold">Cut-in Speed:</text>
        <text x="120" y="60" font-family="Arial, sans-serif" font-size="12" fill="#666">3-4 m/s</text>
        
        <text x="0" y="75" font-family="Arial, sans-serif" font-size="12" fill="#2c3e50" font-weight="bold">Rated Speed:</text>
        <text x="120" y="75" font-family="Arial, sans-serif" font-size="12" fill="#666">12-15 m/s</text>
        
        <text x="0" y="90" font-family="Arial, sans-serif" font-size="12" fill="#2c3e50" font-weight="bold">Cut-out Speed:</text>
        <text x="120" y="90" font-family="Arial, sans-serif" font-size="12" fill="#666">25 m/s</text>
        
        <text x="0" y="105" font-family="Arial, sans-serif" font-size="12" fill="#2c3e50" font-weight="bold">RPM:</text>
        <text x="120" y="105" font-family="Arial, sans-serif" font-size="12" fill="#666">15-40 rpm</text>
        
        <text x="0" y="120" font-family="Arial, sans-serif" font-size="12" fill="#2c3e50" font-weight="bold">Lifespan:</text>
        <text x="120" y="120" font-family="Arial, sans-serif" font-size="12" fill="#666">20-25 years</text>
      </g>
    </g>
  </g>
  
  <!-- Wind Power Curve -->
  <g id="power-curve">
    <text x="600" y="580" text-anchor="middle" font-family="Arial, sans-serif" font-size="16" font-weight="bold" fill="#34495e">
      Wind Turbine Power Curve
    </text>
    
    <g transform="translate(450,600)">
      <rect x="0" y="0" width="300" height="150" fill="#fff3cd" stroke="#f39c12" stroke-width="2" rx="8"/>
      
      <!-- Graph axes -->
      <line x1="30" y1="120" x2="270" y2="120" stroke="#333" stroke-width="2" marker-end="url(#arrowhead)"/>
      <line x1="30" y1="120" x2="30" y2="30" stroke="#333" stroke-width="2" marker-end="url(#arrowhead)"/>
      
      <!-- Labels -->
      <text x="280" y="125" font-family="Arial, sans-serif" font-size="12" fill="#333">Wind Speed (m/s)</text>
      <text x="10" y="25" font-family="Arial, sans-serif" font-size="12" fill="#333">Power</text>
      
      <!-- Power curve -->
      <path d="M30,120 L50,120 Q80,100 120,70 L200,70 L220,120" fill="none" stroke="#e74c3c" stroke-width="4"/>
      
      <!-- Key points -->
      <circle cx="50" cy="120" r="3" fill="#27ae60"/>
      <text x="45" y="135" font-family="Arial, sans-serif" font-size="10" fill="#27ae60">Cut-in</text>
      
      <circle cx="120" cy="70" r="3" fill="#3498db"/>
      <text x="115" y="60" font-family="Arial, sans-serif" font-size="10" fill="#3498db">Rated</text>
      
      <circle cx="220" cy="120" r="3" fill="#e74c3c"/>
      <text x="215" y="135" font-family="Arial, sans-serif" font-size="10" fill="#e74c3c">Cut-out</text>
      
      <!-- Wind speed markers -->
      <line x1="50" y1="115" x2="50" y2="125" stroke="#333" stroke-width="1"/>
      <text x="48" y="140" font-family="Arial, sans-serif" font-size="9" fill="#333">3</text>
      
      <line x1="120" y1="115" x2="120" y2="125" stroke="#333" stroke-width="1"/>
      <text x="115" y="140" font-family="Arial, sans-serif" font-size="9" fill="#333">12</text>
      
      <line x1="220" y1="115" x2="220" y2="125" stroke="#333" stroke-width="1"/>
      <text x="215" y="140" font-family="Arial, sans-serif" font-size="9" fill="#333">25</text>
    </g>
  </g>
  
  <!-- System Components -->
  <g id="system-components">
    <text x="1000" y="580" text-anchor="middle" font-family="Arial, sans-serif" font-size="16" font-weight="bold" fill="#34495e">
      Wind Power System Components
    </text>
    
    <g transform="translate(850,600)">
      <rect x="0" y="0" width="300" height="150" fill="#f4ecf7" stroke="#8e44ad" stroke-width="2" rx="8"/>
      
      <g transform="translate(15,20)">
        <text x="0" y="15" font-family="Arial, sans-serif" font-size="12" fill="#2c3e50" font-weight="bold">🔧 Rotor Assembly:</text>
        <text x="20" y="30" font-family="Arial, sans-serif" font-size="11" fill="#666">Hub, blades, pitch control</text>
        
        <text x="0" y="50" font-family="Arial, sans-serif" font-size="12" fill="#2c3e50" font-weight="bold">⚙️ Drive Train:</text>
        <text x="20" y="65" font-family="Arial, sans-serif" font-size="11" fill="#666">Gearbox, generator, brake</text>
        
        <text x="0" y="85" font-family="Arial, sans-serif" font-size="12" fill="#2c3e50" font-weight="bold">🎯 Control System:</text>
        <text x="20" y="100" font-family="Arial, sans-serif" font-size="11" fill="#666">Yaw, pitch, power electronics</text>
        
        <text x="0" y="120" font-family="Arial, sans-serif" font-size="12" fill="#2c3e50" font-weight="bold">⚡ Electrical:</text>
        <text x="20" y="135" font-family="Arial, sans-serif" font-size="11" fill="#666">Transformer, cables, grid connection</text>
      </g>
    </g>
  </g>
</svg>