<?xml version="1.0" encoding="UTF-8"?>
<svg xmlns="http://www.w3.org/2000/svg" viewBox="0 0 1400 1200">
  <defs>
    <style>
      .title { font: bold 24px Arial; text-anchor: middle; fill: #2c3e50; }
      .subtitle { font: bold 18px Arial; text-anchor: middle; fill: #34495e; }
      .label { font: 14px Arial; text-anchor: middle; fill: #2c3e50; }
      .formula { font: 12px Arial; text-anchor: middle; fill: #e74c3c; }
      .text { font: 11px Arial; fill: #2c3e50; }
      .circuit { stroke: #2c3e50; stroke-width: 2; fill: none; }
      .component { stroke: #2c3e50; stroke-width: 2; fill: white; }
      .bandpass { stroke: #3498db; stroke-width: 2; fill: #e8f4fd; }
      .bandstop { stroke: #e74c3c; stroke-width: 2; fill: #fff5f5; }
      .t-section { stroke: #27ae60; stroke-width: 2; fill: #e8f6f3; }
      .pi-section { stroke: #9b59b6; stroke-width: 2; fill: #f4f6ff; }
      .response { stroke: #e67e22; stroke-width: 3; fill: none; }
      .axis { stroke: #7f8c8d; stroke-width: 1; }
      .grid { stroke: #ecf0f1; stroke-width: 0.5; }
      .passband { fill: #d4edda; stroke: #28a745; stroke-width: 1; opacity: 0.7; }
      .stopband { fill: #f8d7da; stroke: #dc3545; stroke-width: 1; opacity: 0.7; }
    </style>
    <marker id="arrow" markerWidth="10" markerHeight="7" refX="9" refY="3.5" orient="auto">
      <polygon points="0 0, 10 3.5, 0 7" fill="#7f8c8d"/>
    </marker>
  </defs>

  <!-- Title -->
  <text x="700" y="30" class="title">Band Pass and Band Stop Filters</text>
  <text x="700" y="55" class="subtitle">Constant-K Type T and π Section Filter Designs</text>

  <!-- Band Pass Filters -->
  <g transform="translate(50, 80)">
    <text x="650" y="20" class="subtitle">Band Pass Filters</text>

    <!-- T-Section Band Pass -->
    <g transform="translate(20, 40)">
      <text x="200" y="15" class="label">T-Section Band Pass Filter</text>

      <rect x="0" y="25" width="400" height="160" class="t-section"/>

      <!-- T-Section Circuit -->
      <g transform="translate(50, 50)">
        <!-- Input -->
        <text x="10" y="50" class="text">Input</text>
        <line x1="30" y1="45" x2="50" y2="45" stroke="#2c3e50" stroke-width="2"/>

        <!-- Series arm 1 - L1 and C1 in series -->
        <g transform="translate(50, 35)">
          <!-- L1 -->
          <path d="M0,10 Q5,10 5,15 Q5,20 10,20 Q15,20 15,15 Q15,10 20,10 Q25,10 25,15 Q25,20 30,20" class="circuit"/>
          <text x="15" y="8" class="text">L₁</text>
          <!-- C1 -->
          <g transform="translate(40, 5)">
            <line x1="0" y1="5" x2="8" y2="5" class="circuit"/>
            <line x1="8" y1="2" x2="8" y2="8" class="circuit"/>
            <line x1="12" y1="2" x2="12" y2="8" class="circuit"/>
            <line x1="12" y1="5" x2="20" y2="5" class="circuit"/>
          </g>
          <text x="50" y="8" class="text">C₁</text>
        </g>

        <!-- Shunt arm - L2 and C2 in parallel -->
        <g transform="translate(120, 50)">
          <!-- Vertical connection up -->
          <line x1="0" y1="0" x2="0" y2="-5" stroke="#2c3e50" stroke-width="2"/>

          <!-- L2 (vertical) -->
          <path d="M-10,15 Q-10,20 -5,20 Q0,20 0,25 Q0,30 5,30 Q10,30 10,25 Q10,20 15,20 Q20,20 20,25" class="circuit"/>
          <text x="5" y="12" class="text">L₂</text>

          <!-- C2 (vertical, parallel to L2) -->
          <g transform="translate(-5, 45)">
            <line x1="5" y1="0" x2="5" y2="8" class="circuit"/>
            <line x1="2" y1="8" x2="8" y2="8" class="circuit"/>
            <line x1="2" y1="12" x2="8" y2="12" class="circuit"/>
            <line x1="5" y1="12" x2="5" y2="20" class="circuit"/>
          </g>
          <text x="15" y="57" class="text">C₂</text>

          <!-- Vertical connection down -->
          <line x1="0" y1="65" x2="0" y2="70" stroke="#2c3e50" stroke-width="2"/>
        </g>

        <!-- Series arm 2 - L1 and C1 in series -->
        <g transform="translate(140, 35)">
          <!-- L1 -->
          <path d="M0,10 Q5,10 5,15 Q5,20 10,20 Q15,20 15,15 Q15,10 20,10 Q25,10 25,15 Q25,20 30,20" class="circuit"/>
          <text x="15" y="8" class="text">L₁</text>
          <!-- C1 -->
          <g transform="translate(40, 5)">
            <line x1="0" y1="5" x2="8" y2="5" class="circuit"/>
            <line x1="8" y1="2" x2="8" y2="8" class="circuit"/>
            <line x1="12" y1="2" x2="12" y2="8" class="circuit"/>
            <line x1="12" y1="5" x2="20" y2="5" class="circuit"/>
          </g>
          <text x="50" y="8" class="text">C₁</text>
        </g>

        <!-- Output -->
        <line x1="220" y1="45" x2="240" y2="45" stroke="#2c3e50" stroke-width="2"/>
        <text x="250" y="50" class="text">Output</text>

        <!-- Ground connections -->
        <line x1="30" y1="85" x2="240" y2="85" stroke="#2c3e50" stroke-width="2"/>
        <line x1="30" y1="45" x2="30" y2="85" stroke="#2c3e50" stroke-width="2"/>
        <line x1="240" y1="45" x2="240" y2="85" stroke="#2c3e50" stroke-width="2"/>
        <line x1="120" y1="120" x2="120" y2="85" stroke="#2c3e50" stroke-width="2"/>

        <!-- Ground symbols -->
        <g transform="translate(30, 85)">
          <line x1="0" y1="0" x2="0" y2="5" stroke="#2c3e50" stroke-width="2"/>
          <line x1="-5" y1="5" x2="5" y2="5" stroke="#2c3e50" stroke-width="2"/>
          <line x1="-3" y1="7" x2="3" y2="7" stroke="#2c3e50" stroke-width="2"/>
          <line x1="-1" y1="9" x2="1" y2="9" stroke="#2c3e50" stroke-width="2"/>
        </g>
      </g>

      <text x="200" y="140" class="formula">Design Equations:</text>
      <text x="200" y="160" class="formula">L₁ = R₀/(2π(f₂-f₁)), C₁ = (f₂-f₁)/(2πR₀f₁f₂)</text>
      <text x="200" y="175" class="formula">L₂ = R₀(f₂-f₁)/(2πf₁f₂), C₂ = 1/(2πR₀(f₂-f₁))</text>
    </g>

    <!-- π-Section Band Pass -->
    <g transform="translate(440, 40)">
      <text x="200" y="15" class="label">π-Section Band Pass Filter</text>

      <rect x="0" y="25" width="400" height="160" class="pi-section"/>

      <!-- π-Section Circuit -->
      <g transform="translate(50, 50)">
        <!-- Input -->
        <text x="10" y="50" class="text">Input</text>
        <line x1="30" y1="45" x2="50" y2="45" stroke="#2c3e50" stroke-width="2"/>

        <!-- Shunt arm 1 - L3 and C3 in parallel -->
        <g transform="translate(50, 50)">
          <!-- Vertical connection up -->
          <line x1="0" y1="0" x2="0" y2="-5" stroke="#2c3e50" stroke-width="2"/>

          <!-- L3 (vertical) -->
          <path d="M-10,5 Q-10,10 -5,10 Q0,10 0,15 Q0,20 5,20 Q10,20 10,15 Q10,10 15,10 Q20,10 20,15" class="circuit"/>
          <text x="5" y="2" class="text">L₃</text>

          <!-- C3 (vertical, parallel to L3) -->
          <g transform="translate(-5, 25)">
            <line x1="5" y1="0" x2="5" y2="8" class="circuit"/>
            <line x1="2" y1="8" x2="8" y2="8" class="circuit"/>
            <line x1="2" y1="12" x2="8" y2="12" class="circuit"/>
            <line x1="5" y1="12" x2="5" y2="20" class="circuit"/>
          </g>
          <text x="15" y="47" class="text">C₃</text>

          <!-- Vertical connection down -->
          <line x1="0" y1="45" x2="0" y2="50" stroke="#2c3e50" stroke-width="2"/>
        </g>

        <!-- Series arm - L4 and C4 in series -->
        <g transform="translate(70, 35)">
          <!-- L4 -->
          <path d="M0,10 Q5,10 5,15 Q5,20 10,20 Q15,20 15,15 Q15,10 20,10 Q25,10 25,15 Q25,20 30,20" class="circuit"/>
          <text x="15" y="8" class="text">L₄</text>
          <!-- C4 -->
          <g transform="translate(40, 5)">
            <line x1="0" y1="5" x2="8" y2="5" class="circuit"/>
            <line x1="8" y1="2" x2="8" y2="8" class="circuit"/>
            <line x1="12" y1="2" x2="12" y2="8" class="circuit"/>
            <line x1="12" y1="5" x2="20" y2="5" class="circuit"/>
          </g>
          <text x="50" y="8" class="text">C₄</text>
        </g>

        <!-- Shunt arm 2 - L3 and C3 in parallel -->
        <g transform="translate(160, 50)">
          <!-- Vertical connection up -->
          <line x1="0" y1="0" x2="0" y2="-5" stroke="#2c3e50" stroke-width="2"/>

          <!-- L3 (vertical) -->
          <path d="M-10,5 Q-10,10 -5,10 Q0,10 0,15 Q0,20 5,20 Q10,20 10,15 Q10,10 15,10 Q20,10 20,15" class="circuit"/>
          <text x="5" y="2" class="text">L₃</text>

          <!-- C3 (vertical, parallel to L3) -->
          <g transform="translate(-5, 25)">
            <line x1="5" y1="0" x2="5" y2="8" class="circuit"/>
            <line x1="2" y1="8" x2="8" y2="8" class="circuit"/>
            <line x1="2" y1="12" x2="8" y2="12" class="circuit"/>
            <line x1="5" y1="12" x2="5" y2="20" class="circuit"/>
          </g>
          <text x="15" y="47" class="text">C₃</text>

          <!-- Vertical connection down -->
          <line x1="0" y1="45" x2="0" y2="50" stroke="#2c3e50" stroke-width="2"/>
        </g>

        <!-- Output -->
        <line x1="160" y1="45" x2="180" y2="45" stroke="#2c3e50" stroke-width="2"/>
        <text x="190" y="50" class="text">Output</text>

        <!-- Ground connections -->
        <line x1="30" y1="85" x2="180" y2="85" stroke="#2c3e50" stroke-width="2"/>
        <line x1="30" y1="45" x2="30" y2="85" stroke="#2c3e50" stroke-width="2"/>
        <line x1="180" y1="45" x2="180" y2="85" stroke="#2c3e50" stroke-width="2"/>
        <line x1="50" y1="100" x2="50" y2="85" stroke="#2c3e50" stroke-width="2"/>
        <line x1="160" y1="100" x2="160" y2="85" stroke="#2c3e50" stroke-width="2"/>
      </g>

      <text x="200" y="140" class="formula">Design Equations:</text>
      <text x="200" y="160" class="formula">L₃ = R₀(f₂-f₁)/(4πf₁f₂), C₃ = 1/(πR₀(f₂-f₁))</text>
      <text x="200" y="175" class="formula">L₄ = R₀/(π(f₂-f₁)), C₄ = (f₂-f₁)/(4πR₀f₁f₂)</text>
    </g>

    <!-- Band Pass Response -->
    <g transform="translate(860, 40)">
      <text x="200" y="15" class="label">Band Pass Filter Response</text>

      <rect x="0" y="25" width="400" height="160" class="bandpass"/>

      <!-- Frequency Response Graph -->
      <g transform="translate(50, 40)">
        <!-- Axes -->
        <line x1="20" y1="100" x2="320" y2="100" class="axis" marker-end="url(#arrow)"/>
        <line x1="20" y1="100" x2="20" y2="20" class="axis" marker-end="url(#arrow)"/>
        <text x="170" y="115" class="text">Frequency (f)</text>
        <text x="5" y="15" class="text">|H(f)|</text>

        <!-- Grid lines -->
        <g class="grid">
          <line x1="50" y1="20" x2="50" y2="100"/>
          <line x1="100" y1="20" x2="100" y2="100"/>
          <line x1="150" y1="20" x2="150" y2="100"/>
          <line x1="200" y1="20" x2="200" y2="100"/>
          <line x1="250" y1="20" x2="250" y2="100"/>
          <line x1="290" y1="20" x2="290" y2="100"/>
          <line x1="20" y1="80" x2="320" y2="80"/>
          <line x1="20" y1="60" x2="320" y2="60"/>
          <line x1="20" y1="40" x2="320" y2="40"/>
        </g>

        <!-- Response curve -->
        <path d="M20,100 L50,95 L100,85 L150,30 L200,30 L250,85 L290,95 L320,100" class="response"/>

        <!-- Pass band -->
        <rect x="120" y="30" width="110" height="70" class="passband"/>

        <!-- Stop bands -->
        <rect x="20" y="80" width="100" height="20" class="stopband"/>
        <rect x="230" y="80" width="90" height="20" class="stopband"/>

        <!-- Frequency markers -->
        <line x1="120" y1="100" x2="120" y2="105" class="axis"/>
        <line x1="170" y1="100" x2="170" y2="105" class="axis"/>
        <line x1="230" y1="100" x2="230" y2="105" class="axis"/>
        <text x="115" y="120" class="text">f₁</text>
        <text x="165" y="120" class="text">f₀</text>
        <text x="225" y="120" class="text">f₂</text>

        <!-- -3dB line -->
        <line x1="20" y1="60" x2="320" y2="60" stroke="#e74c3c" stroke-width="1" stroke-dasharray="3,3"/>
        <text x="25" y="58" class="text">-3dB</text>
      </g>

      <text x="200" y="135" class="formula">Center frequency: f₀ = √(f₁ × f₂)</text>
      <text x="200" y="150" class="formula">Bandwidth: BW = f₂ - f₁</text>
      <text x="200" y="165" class="formula">Quality factor: Q = f₀/BW</text>
    </g>
  </g>

  <!-- Band Stop Filters -->
  <g transform="translate(50, 320)">
    <text x="650" y="20" class="subtitle">Band Stop (Band Reject) Filters</text>

    <!-- T-Section Band Stop -->
    <g transform="translate(20, 40)">
      <text x="200" y="15" class="label">T-Section Band Stop Filter</text>

      <rect x="0" y="25" width="400" height="160" class="t-section"/>

      <!-- T-Section Circuit -->
      <g transform="translate(50, 50)">
        <!-- Input -->
        <text x="10" y="50" class="text">Input</text>
        <line x1="30" y1="45" x2="50" y2="45" stroke="#2c3e50" stroke-width="2"/>

        <!-- Series arm 1 - L5 and C5 in parallel -->
        <g transform="translate(50, 40)">
          <!-- Top branch with L5 -->
          <line x1="0" y1="5" x2="20" y2="5" stroke="#2c3e50" stroke-width="2"/>
          <path d="M20,5 Q25,5 25,10 Q25,15 30,15 Q35,15 35,10 Q35,5 40,5 Q45,5 45,10 Q45,15 50,15" class="circuit"/>
          <text x="35" y="2" class="text">L₅</text>
          <line x1="50" y1="15" x2="70" y2="15" stroke="#2c3e50" stroke-width="2"/>

          <!-- Bottom branch with C5 -->
          <line x1="0" y1="25" x2="20" y2="25" stroke="#2c3e50" stroke-width="2"/>
          <g transform="translate(25, 20)">
            <line x1="0" y1="5" x2="8" y2="5" class="circuit"/>
            <line x1="8" y1="2" x2="8" y2="8" class="circuit"/>
            <line x1="12" y1="2" x2="12" y2="8" class="circuit"/>
            <line x1="12" y1="5" x2="20" y2="5" class="circuit"/>
          </g>
          <text x="35" y="35" class="text">C₅</text>
          <line x1="45" y1="25" x2="70" y2="25" stroke="#2c3e50" stroke-width="2"/>

          <!-- Vertical connections -->
          <line x1="0" y1="5" x2="0" y2="25" stroke="#2c3e50" stroke-width="2"/>
          <line x1="70" y1="15" x2="70" y2="25" stroke="#2c3e50" stroke-width="2"/>
        </g>

        <!-- Shunt arm - L6 and C6 in series -->
        <g transform="translate(120, 50)">
          <!-- Vertical connection up -->
          <line x1="0" y1="0" x2="0" y2="-5" stroke="#2c3e50" stroke-width="2"/>

          <!-- L6 -->
          <path d="M-10,5 Q-10,10 -5,10 Q0,10 0,15 Q0,20 5,20 Q10,20 10,15 Q10,10 15,10 Q20,10 20,15" class="circuit"/>
          <text x="5" y="2" class="text">L₆</text>

          <!-- C6 in series -->
          <g transform="translate(-5, 25)">
            <line x1="5" y1="0" x2="5" y2="8" class="circuit"/>
            <line x1="2" y1="8" x2="8" y2="8" class="circuit"/>
            <line x1="2" y1="12" x2="8" y2="12" class="circuit"/>
            <line x1="5" y1="12" x2="5" y2="20" class="circuit"/>
          </g>
          <text x="15" y="47" class="text">C₆</text>

          <!-- Vertical connection down -->
          <line x1="0" y1="45" x2="0" y2="50" stroke="#2c3e50" stroke-width="2"/>
        </g>

        <!-- Series arm 2 - L5 and C5 in parallel -->
        <g transform="translate(140, 40)">
          <!-- Top branch with L5 -->
          <line x1="0" y1="5" x2="20" y2="5" stroke="#2c3e50" stroke-width="2"/>
          <path d="M20,5 Q25,5 25,10 Q25,15 30,15 Q35,15 35,10 Q35,5 40,5 Q45,5 45,10 Q45,15 50,15" class="circuit"/>
          <text x="35" y="2" class="text">L₅</text>
          <line x1="50" y1="15" x2="70" y2="15" stroke="#2c3e50" stroke-width="2"/>

          <!-- Bottom branch with C5 -->
          <line x1="0" y1="25" x2="20" y2="25" stroke="#2c3e50" stroke-width="2"/>
          <g transform="translate(25, 20)">
            <line x1="0" y1="5" x2="8" y2="5" class="circuit"/>
            <line x1="8" y1="2" x2="8" y2="8" class="circuit"/>
            <line x1="12" y1="2" x2="12" y2="8" class="circuit"/>
            <line x1="12" y1="5" x2="20" y2="5" class="circuit"/>
          </g>
          <text x="35" y="35" class="text">C₅</text>
          <line x1="45" y1="25" x2="70" y2="25" stroke="#2c3e50" stroke-width="2"/>

          <!-- Vertical connections -->
          <line x1="0" y1="5" x2="0" y2="25" stroke="#2c3e50" stroke-width="2"/>
          <line x1="70" y1="15" x2="70" y2="25" stroke="#2c3e50" stroke-width="2"/>
        </g>

        <!-- Output -->
        <line x1="210" y1="45" x2="230" y2="45" stroke="#2c3e50" stroke-width="2"/>
        <text x="240" y="50" class="text">Output</text>

        <!-- Ground connections -->
        <line x1="30" y1="85" x2="230" y2="85" stroke="#2c3e50" stroke-width="2"/>
        <line x1="30" y1="45" x2="30" y2="85" stroke="#2c3e50" stroke-width="2"/>
        <line x1="230" y1="45" x2="230" y2="85" stroke="#2c3e50" stroke-width="2"/>
        <line x1="120" y1="100" x2="120" y2="85" stroke="#2c3e50" stroke-width="2"/>
      </g>

      <text x="200" y="140" class="formula">Design Equations:</text>
      <text x="200" y="160" class="formula">L₅ = R₀(f₂-f₁)/(4πf₁f₂), C₅ = 1/(πR₀(f₂-f₁))</text>
      <text x="200" y="175" class="formula">L₆ = R₀/(2π(f₂-f₁)), C₆ = (f₂-f₁)/(2πR₀f₁f₂)</text>
    </g>

    <!-- π-Section Band Stop -->
    <g transform="translate(440, 40)">
      <text x="200" y="15" class="label">π-Section Band Stop Filter</text>

      <rect x="0" y="25" width="400" height="160" class="pi-section"/>

      <!-- π-Section Circuit -->
      <g transform="translate(50, 50)">
        <!-- Input -->
        <text x="10" y="50" class="text">Input</text>
        <line x1="30" y1="45" x2="50" y2="45" stroke="#2c3e50" stroke-width="2"/>

        <!-- Shunt arm 1 - L7 and C7 in series -->
        <g transform="translate(50, 50)">
          <!-- Vertical connection up -->
          <line x1="0" y1="0" x2="0" y2="-5" stroke="#2c3e50" stroke-width="2"/>

          <!-- L7 -->
          <path d="M-10,5 Q-10,10 -5,10 Q0,10 0,15 Q0,20 5,20 Q10,20 10,15 Q10,10 15,10 Q20,10 20,15" class="circuit"/>
          <text x="5" y="2" class="text">L₇</text>

          <!-- C7 in series -->
          <g transform="translate(-5, 25)">
            <line x1="5" y1="0" x2="5" y2="8" class="circuit"/>
            <line x1="2" y1="8" x2="8" y2="8" class="circuit"/>
            <line x1="2" y1="12" x2="8" y2="12" class="circuit"/>
            <line x1="5" y1="12" x2="5" y2="20" class="circuit"/>
          </g>
          <text x="15" y="47" class="text">C₇</text>

          <!-- Vertical connection down -->
          <line x1="0" y1="45" x2="0" y2="50" stroke="#2c3e50" stroke-width="2"/>
        </g>

        <!-- Series arm - L8 and C8 in parallel -->
        <g transform="translate(70, 40)">
          <!-- Top branch with L8 -->
          <line x1="0" y1="5" x2="15" y2="5" stroke="#2c3e50" stroke-width="2"/>
          <path d="M15,5 Q20,5 20,10 Q20,15 25,15 Q30,15 30,10 Q30,5 35,5 Q40,5 40,10 Q40,15 45,15" class="circuit"/>
          <text x="30" y="2" class="text">L₈</text>
          <line x1="45" y1="15" x2="60" y2="15" stroke="#2c3e50" stroke-width="2"/>

          <!-- Bottom branch with C8 -->
          <line x1="0" y1="25" x2="15" y2="25" stroke="#2c3e50" stroke-width="2"/>
          <g transform="translate(20, 20)">
            <line x1="0" y1="5" x2="8" y2="5" class="circuit"/>
            <line x1="8" y1="2" x2="8" y2="8" class="circuit"/>
            <line x1="12" y1="2" x2="12" y2="8" class="circuit"/>
            <line x1="12" y1="5" x2="20" y2="5" class="circuit"/>
          </g>
          <text x="30" y="35" class="text">C₈</text>
          <line x1="40" y1="25" x2="60" y2="25" stroke="#2c3e50" stroke-width="2"/>

          <!-- Vertical connections -->
          <line x1="0" y1="5" x2="0" y2="25" stroke="#2c3e50" stroke-width="2"/>
          <line x1="60" y1="15" x2="60" y2="25" stroke="#2c3e50" stroke-width="2"/>
        </g>

        <!-- Shunt arm 2 - L7 and C7 in series -->
        <g transform="translate(130, 50)">
          <!-- Vertical connection up -->
          <line x1="0" y1="0" x2="0" y2="-5" stroke="#2c3e50" stroke-width="2"/>

          <!-- L7 -->
          <path d="M-10,5 Q-10,10 -5,10 Q0,10 0,15 Q0,20 5,20 Q10,20 10,15 Q10,10 15,10 Q20,10 20,15" class="circuit"/>
          <text x="5" y="2" class="text">L₇</text>

          <!-- C7 in series -->
          <g transform="translate(-5, 25)">
            <line x1="5" y1="0" x2="5" y2="8" class="circuit"/>
            <line x1="2" y1="8" x2="8" y2="8" class="circuit"/>
            <line x1="2" y1="12" x2="8" y2="12" class="circuit"/>
            <line x1="5" y1="12" x2="5" y2="20" class="circuit"/>
          </g>
          <text x="15" y="47" class="text">C₇</text>

          <!-- Vertical connection down -->
          <line x1="0" y1="45" x2="0" y2="50" stroke="#2c3e50" stroke-width="2"/>
        </g>

        <!-- Output -->
        <line x1="130" y1="45" x2="150" y2="45" stroke="#2c3e50" stroke-width="2"/>
        <text x="160" y="50" class="text">Output</text>

        <!-- Ground connections -->
        <line x1="30" y1="85" x2="150" y2="85" stroke="#2c3e50" stroke-width="2"/>
        <line x1="30" y1="45" x2="30" y2="85" stroke="#2c3e50" stroke-width="2"/>
        <line x1="150" y1="45" x2="150" y2="85" stroke="#2c3e50" stroke-width="2"/>
        <line x1="50" y1="100" x2="50" y2="85" stroke="#2c3e50" stroke-width="2"/>
        <line x1="130" y1="100" x2="130" y2="85" stroke="#2c3e50" stroke-width="2"/>
      </g>

      <text x="200" y="140" class="formula">Design Equations:</text>
      <text x="200" y="160" class="formula">L₇ = R₀/(π(f₂-f₁)), C₇ = (f₂-f₁)/(4πR₀f₁f₂)</text>
      <text x="200" y="175" class="formula">L₈ = R₀(f₂-f₁)/(2πf₁f₂), C₈ = 1/(2πR₀(f₂-f₁))</text>
    </g>

    <!-- Band Stop Response -->
    <g transform="translate(860, 40)">
      <text x="200" y="15" class="label">Band Stop Filter Response</text>

      <rect x="0" y="25" width="400" height="160" class="bandstop"/>

      <!-- Frequency Response Graph -->
      <g transform="translate(50, 40)">
        <!-- Axes -->
        <line x1="20" y1="100" x2="320" y2="100" class="axis" marker-end="url(#arrow)"/>
        <line x1="20" y1="100" x2="20" y2="20" class="axis" marker-end="url(#arrow)"/>
        <text x="170" y="115" class="text">Frequency (f)</text>
        <text x="5" y="15" class="text">|H(f)|</text>

        <!-- Grid lines -->
        <g class="grid">
          <line x1="50" y1="20" x2="50" y2="100"/>
          <line x1="100" y1="20" x2="100" y2="100"/>
          <line x1="150" y1="20" x2="150" y2="100"/>
          <line x1="200" y1="20" x2="200" y2="100"/>
          <line x1="250" y1="20" x2="250" y2="100"/>
          <line x1="290" y1="20" x2="290" y2="100"/>
          <line x1="20" y1="80" x2="320" y2="80"/>
          <line x1="20" y1="60" x2="320" y2="60"/>
          <line x1="20" y1="40" x2="320" y2="40"/>
        </g>

        <!-- Response curve -->
        <path d="M20,30 L50,30 L100,35 L120,60 L150,90 L200,90 L230,60 L250,35 L290,30 L320,30" class="response"/>

        <!-- Pass bands -->
        <rect x="20" y="30" width="100" height="30" class="passband"/>
        <rect x="230" y="30" width="90" height="30" class="passband"/>

        <!-- Stop band -->
        <rect x="120" y="60" width="110" height="40" class="stopband"/>

        <!-- Frequency markers -->
        <line x1="120" y1="100" x2="120" y2="105" class="axis"/>
        <line x1="170" y1="100" x2="170" y2="105" class="axis"/>
        <line x1="230" y1="100" x2="230" y2="105" class="axis"/>
        <text x="115" y="120" class="text">f₁</text>
        <text x="165" y="120" class="text">f₀</text>
        <text x="225" y="120" class="text">f₂</text>

        <!-- -3dB line -->
        <line x1="20" y1="60" x2="320" y2="60" stroke="#e74c3c" stroke-width="1" stroke-dasharray="3,3"/>
        <text x="25" y="58" class="text">-3dB</text>
      </g>

      <text x="200" y="135" class="formula">Center frequency: f₀ = √(f₁ × f₂)</text>
      <text x="200" y="150" class="formula">Rejection bandwidth: BW = f₂ - f₁</text>
      <text x="200" y="165" class="formula">Notch depth: depends on Q factor</text>
    </g>
  </g>

  <!-- Comparison and Applications -->
  <g transform="translate(50, 560)">
    <text x="650" y="20" class="subtitle">Comparison and Applications</text>

    <!-- Filter Comparison -->
    <g transform="translate(20, 40)">
      <text x="300" y="15" class="label">Band Pass vs Band Stop Filter Comparison</text>

      <rect x="0" y="25" width="600" height="160" fill="#f8f9fa" stroke="#dee2e6"/>

      <!-- Table header -->
      <rect x="10" y="35" width="580" height="25" fill="#34495e"/>
      <text x="120" y="52" class="label" fill="white">Parameter</text>
      <text x="280" y="52" class="label" fill="white">Band Pass Filter</text>
      <text x="450" y="52" class="label" fill="white">Band Stop Filter</text>

      <!-- Pass band -->
      <rect x="10" y="60" width="580" height="20" fill="#ecf0f1"/>
      <text x="20" y="75" class="text">Pass Band</text>
      <text x="230" y="75" class="text">f₁ to f₂ (passes signals)</text>
      <text x="400" y="75" class="text">DC to f₁ and f₂ to ∞</text>

      <!-- Stop band -->
      <rect x="10" y="80" width="580" height="20" fill="#e8f4fd"/>
      <text x="20" y="95" class="text">Stop Band</text>
      <text x="230" y="95" class="text">DC to f₁ and f₂ to ∞</text>
      <text x="400" y="95" class="text">f₁ to f₂ (rejects signals)</text>

      <!-- Application -->
      <rect x="10" y="100" width="580" height="20" fill="#ecf0f1"/>
      <text x="20" y="115" class="text">Primary Use</text>
      <text x="230" y="115" class="text">Select frequency band</text>
      <text x="400" y="115" class="text">Eliminate frequency band</text>

      <!-- Example -->
      <rect x="10" y="120" width="580" height="20" fill="#e8f4fd"/>
      <text x="20" y="135" class="text">Example</text>
      <text x="230" y="135" class="text">Radio tuning circuits</text>
      <text x="400" y="135" class="text">Power line noise filters</text>

      <!-- Quality factor -->
      <rect x="10" y="140" width="580" height="20" fill="#ecf0f1"/>
      <text x="20" y="155" class="text">Quality Factor</text>
      <text x="230" y="155" class="text">Q = f₀/(f₂-f₁) - higher is better</text>
      <text x="400" y="155" class="text">Q = f₀/(f₂-f₁) - higher is better</text>

      <!-- Design complexity -->
      <rect x="10" y="160" width="580" height="20" fill="#e8f4fd"/>
      <text x="20" y="175" class="text">Design Complexity</text>
      <text x="230" y="175" class="text">Moderate (series-parallel LC)</text>
      <text x="400" y="175" class="text">Moderate (parallel-series LC)</text>
    </g>

    <!-- Applications -->
    <g transform="translate(640, 40)">
      <text x="200" y="15" class="label">Practical Applications</text>

      <rect x="0" y="25" width="400" height="160" fill="#e8f8f5" stroke="#16a085"/>

      <text x="10" y="45" class="formula">Band Pass Filter Applications:</text>
      <text x="10" y="65" class="text">• Radio receiver IF stages</text>
      <text x="10" y="80" class="text">• Audio equalizers</text>
      <text x="10" y="95" class="text">• Wireless communication systems</text>
      <text x="10" y="110" class="text">• Medical instrumentation</text>
      <text x="10" y="125" class="text">• Signal processing systems</text>

      <text x="200" y="45" class="formula">Band Stop Filter Applications:</text>
      <text x="200" y="65" class="text">• 50/60 Hz power line filters</text>
      <text x="200" y="80" class="text">• Interference elimination</text>
      <text x="200" y="95" class="text">• Audio notch filters</text>
      <text x="200" y="110" class="text">• EMI suppression</text>
      <text x="200" y="125" class="text">• Antenna duplexers</text>

      <text x="10" y="145" class="formula">Modern Implementations:</text>
      <text x="10" y="165" class="text">Active filters, digital filters, SAW filters, crystal filters</text>
    </g>

    <!-- Design Considerations -->
    <g transform="translate(1060, 40)">
      <text x="150" y="15" class="label">Design Considerations</text>

      <rect x="0" y="25" width="300" height="160" fill="#fff5f5" stroke="#e74c3c"/>

      <text x="10" y="45" class="formula">Performance Parameters:</text>
      <text x="10" y="65" class="text">• Insertion loss in pass band</text>
      <text x="10" y="80" class="text">• Rejection in stop band</text>
      <text x="10" y="95" class="text">• Transition sharpness</text>
      <text x="10" y="110" class="text">• Phase linearity</text>
      <text x="10" y="125" class="text">• Temperature stability</text>

      <text x="150" y="45" class="formula">Practical Issues:</text>
      <text x="150" y="65" class="text">• Component tolerances</text>
      <text x="150" y="80" class="text">• Parasitic elements</text>
      <text x="150" y="95" class="text">• Impedance matching</text>
      <text x="150" y="110" class="text">• Physical size</text>
      <text x="150" y="125" class="text">• Cost considerations</text>

      <text x="10" y="145" class="formula">Design Trade-offs:</text>
      <text x="10" y="165" class="text">Bandwidth vs selectivity, size vs performance</text>
    </g>
  </g>

</svg>