<svg width="1200" height="1600" xmlns="http://www.w3.org/2000/svg">
  <defs>
    <linearGradient id="headerGrad" x1="0%" y1="0%" x2="100%" y2="0%">
      <stop offset="0%" style="stop-color:#2563eb;stop-opacity:1" />
      <stop offset="100%" style="stop-color:#1d4ed8;stop-opacity:1" />
    </linearGradient>
    <linearGradient id="ringGrad" x1="0%" y1="0%" x2="100%" y2="0%">
      <stop offset="0%" style="stop-color:#059669;stop-opacity:1" />
      <stop offset="100%" style="stop-color:#047857;stop-opacity:1" />
    </linearGradient>
    <linearGradient id="johnsonGrad" x1="0%" y1="0%" x2="100%" y2="0%">
      <stop offset="0%" style="stop-color:#dc2626;stop-opacity:1" />
      <stop offset="100%" style="stop-color:#b91c1c;stop-opacity:1" />
    </linearGradient>
    <linearGradient id="asyncGrad" x1="0%" y1="0%" x2="100%" y2="0%">
      <stop offset="0%" style="stop-color:#9333ea;stop-opacity:1" />
      <stop offset="100%" style="stop-color:#7c3aed;stop-opacity:1" />
    </linearGradient>
    <linearGradient id="syncGrad" x1="0%" y1="0%" x2="100%" y2="0%">
      <stop offset="0%" style="stop-color:#ea580c;stop-opacity:1" />
      <stop offset="100%" style="stop-color:#dc2626;stop-opacity:1" />
    </linearGradient>
    <linearGradient id="bcdGrad" x1="0%" y1="0%" x2="100%" y2="0%">
      <stop offset="0%" style="stop-color:#0891b2;stop-opacity:1" />
      <stop offset="100%" style="stop-color:#0e7490;stop-opacity:1" />
    </linearGradient>
  </defs>

  <!-- Background -->
  <rect width="1200" height="1600" fill="#f8fafc"/>

  <!-- Title -->
  <rect x="0" y="0" width="1200" height="60" fill="url(#headerGrad)"/>
  <text x="600" y="35" text-anchor="middle" fill="white" font-family="Arial, sans-serif" font-size="24" font-weight="bold">Sequential Logic: Counters</text>

  <!-- Ring Counter -->
  <g transform="translate(50, 80)">
    <rect x="0" y="0" width="550" height="280" fill="url(#ringGrad)" rx="10"/>
    <text x="275" y="25" text-anchor="middle" fill="white" font-family="Arial, sans-serif" font-size="18" font-weight="bold">4-BIT RING COUNTER</text>

    <!-- Ring Counter Circuit -->
    <g transform="translate(20, 40)">
      <!-- FF boxes -->
      <rect x="0" y="0" width="60" height="40" fill="white" stroke="#047857" stroke-width="2" rx="5"/>
      <text x="30" y="25" text-anchor="middle" fill="#047857" font-family="Arial, sans-serif" font-size="12" font-weight="bold">FF0</text>

      <rect x="120" y="0" width="60" height="40" fill="white" stroke="#047857" stroke-width="2" rx="5"/>
      <text x="150" y="25" text-anchor="middle" fill="#047857" font-family="Arial, sans-serif" font-size="12" font-weight="bold">FF1</text>

      <rect x="240" y="0" width="60" height="40" fill="white" stroke="#047857" stroke-width="2" rx="5"/>
      <text x="270" y="25" text-anchor="middle" fill="#047857" font-family="Arial, sans-serif" font-size="12" font-weight="bold">FF2</text>

      <rect x="360" y="0" width="60" height="40" fill="white" stroke="#047857" stroke-width="2" rx="5"/>
      <text x="390" y="25" text-anchor="middle" fill="#047857" font-family="Arial, sans-serif" font-size="12" font-weight="bold">FF3</text>

      <!-- Clock line -->
      <line x1="30" y1="50" x2="30" y2="80" stroke="white" stroke-width="2"/>
      <line x1="150" y1="50" x2="150" y2="80" stroke="white" stroke-width="2"/>
      <line x1="270" y1="50" x2="270" y2="80" stroke="white" stroke-width="2"/>
      <line x1="390" y1="50" x2="390" y2="80" stroke="white" stroke-width="2"/>
      <line x1="0" y1="80" x2="450" y2="80" stroke="white" stroke-width="2"/>
      <text x="10" y="75" fill="white" font-family="Arial, sans-serif" font-size="12">CLK</text>

      <!-- Data connections -->
      <line x1="60" y1="20" x2="120" y2="20" stroke="white" stroke-width="2"/>
      <line x1="180" y1="20" x2="240" y2="20" stroke="white" stroke-width="2"/>
      <line x1="300" y1="20" x2="360" y2="20" stroke="white" stroke-width="2"/>

      <!-- Feedback loop -->
      <path d="M 420 20 Q 450 20 450 -10 Q 450 -40 30 -40 Q 0 -40 0 -10 L 0 20"
            fill="none" stroke="white" stroke-width="2"/>
      <polygon points="5,-5 15,0 5,5" fill="white"/>

      <!-- Output labels -->
      <text x="30" y="-20" text-anchor="middle" fill="white" font-family="Arial, sans-serif" font-size="10">Q0</text>
      <text x="150" y="-20" text-anchor="middle" fill="white" font-family="Arial, sans-serif" font-size="10">Q1</text>
      <text x="270" y="-20" text-anchor="middle" fill="white" font-family="Arial, sans-serif" font-size="10">Q2</text>
      <text x="390" y="-20" text-anchor="middle" fill="white" font-family="Arial, sans-serif" font-size="10">Q3</text>
    </g>

    <!-- State Table -->
    <g transform="translate(20, 150)">
      <text x="0" y="15" fill="white" font-family="Arial, sans-serif" font-size="14" font-weight="bold">State Sequence:</text>
      <rect x="0" y="20" width="300" height="100" fill="white" stroke="#047857" stroke-width="2"/>

      <text x="15" y="40" fill="#047857" font-family="Arial, sans-serif" font-size="12" font-weight="bold">Clock | Q3 Q2 Q1 Q0</text>
      <line x1="15" y1="45" x2="285" y2="45" stroke="#047857" stroke-width="1"/>
      <text x="15" y="60" fill="#047857" font-family="monospace" font-size="11">  0   |  0  0  0  1</text>
      <text x="15" y="75" fill="#047857" font-family="monospace" font-size="11">  1   |  0  0  1  0</text>
      <text x="15" y="90" fill="#047857" font-family="monospace" font-size="11">  2   |  0  1  0  0</text>
      <text x="15" y="105" fill="#047857" font-family="monospace" font-size="11">  3   |  1  0  0  0</text>
    </g>

    <text x="350" y="190" fill="white" font-family="Arial, sans-serif" font-size="12">• Data circulates in loop</text>
    <text x="350" y="210" fill="white" font-family="Arial, sans-serif" font-size="12">• Only one 1 at a time</text>
    <text x="350" y="230" fill="white" font-family="Arial, sans-serif" font-size="12">• 4 distinct states</text>
    <text x="350" y="250" fill="white" font-family="Arial, sans-serif" font-size="12">• Self-starting with preset</text>
  </g>

  <!-- Johnson Counter -->
  <g transform="translate(620, 80)">
    <rect x="0" y="0" width="530" height="280" fill="url(#johnsonGrad)" rx="10"/>
    <text x="265" y="25" text-anchor="middle" fill="white" font-family="Arial, sans-serif" font-size="18" font-weight="bold">4-BIT JOHNSON COUNTER</text>

    <!-- Johnson Counter Circuit -->
    <g transform="translate(20, 40)">
      <!-- FF boxes -->
      <rect x="0" y="0" width="60" height="40" fill="white" stroke="#b91c1c" stroke-width="2" rx="5"/>
      <text x="30" y="25" text-anchor="middle" fill="#b91c1c" font-family="Arial, sans-serif" font-size="12" font-weight="bold">FF0</text>

      <rect x="120" y="0" width="60" height="40" fill="white" stroke="#b91c1c" stroke-width="2" rx="5"/>
      <text x="150" y="25" text-anchor="middle" fill="#b91c1c" font-family="Arial, sans-serif" font-size="12" font-weight="bold">FF1</text>

      <rect x="240" y="0" width="60" height="40" fill="white" stroke="#b91c1c" stroke-width="2" rx="5"/>
      <text x="270" y="25" text-anchor="middle" fill="#b91c1c" font-family="Arial, sans-serif" font-size="12" font-weight="bold">FF2</text>

      <rect x="360" y="0" width="60" height="40" fill="white" stroke="#b91c1c" stroke-width="2" rx="5"/>
      <text x="390" y="25" text-anchor="middle" fill="#b91c1c" font-family="Arial, sans-serif" font-size="12" font-weight="bold">FF3</text>

      <!-- Clock line -->
      <line x1="30" y1="50" x2="30" y2="80" stroke="white" stroke-width="2"/>
      <line x1="150" y1="50" x2="150" y2="80" stroke="white" stroke-width="2"/>
      <line x1="270" y1="50" x2="270" y2="80" stroke="white" stroke-width="2"/>
      <line x1="390" y1="50" x2="390" y2="80" stroke="white" stroke-width="2"/>
      <line x1="0" y1="80" x2="450" y2="80" stroke="white" stroke-width="2"/>
      <text x="10" y="75" fill="white" font-family="Arial, sans-serif" font-size="12">CLK</text>

      <!-- Data connections -->
      <line x1="60" y1="20" x2="120" y2="20" stroke="white" stroke-width="2"/>
      <line x1="180" y1="20" x2="240" y2="20" stroke="white" stroke-width="2"/>
      <line x1="300" y1="20" x2="360" y2="20" stroke="white" stroke-width="2"/>

      <!-- Inverted feedback loop -->
      <path d="M 420 30 Q 450 30 450 -10 Q 450 -40 30 -40 Q 0 -40 0 -10 L 0 20"
            fill="none" stroke="white" stroke-width="2"/>
      <circle cx="430" cy="30" r="3" fill="white"/>
      <polygon points="5,-5 15,0 5,5" fill="white"/>
      <text x="435" y="25" fill="white" font-family="Arial, sans-serif" font-size="10">Q̄</text>

      <!-- Output labels -->
      <text x="30" y="-20" text-anchor="middle" fill="white" font-family="Arial, sans-serif" font-size="10">Q0</text>
      <text x="150" y="-20" text-anchor="middle" fill="white" font-family="Arial, sans-serif" font-size="10">Q1</text>
      <text x="270" y="-20" text-anchor="middle" fill="white" font-family="Arial, sans-serif" font-size="10">Q2</text>
      <text x="390" y="-20" text-anchor="middle" fill="white" font-family="Arial, sans-serif" font-size="10">Q3</text>
    </g>

    <!-- State Table -->
    <g transform="translate(20, 150)">
      <text x="0" y="15" fill="white" font-family="Arial, sans-serif" font-size="14" font-weight="bold">State Sequence:</text>
      <rect x="0" y="20" width="300" height="100" fill="white" stroke="#b91c1c" stroke-width="2"/>

      <text x="15" y="40" fill="#b91c1c" font-family="Arial, sans-serif" font-size="12" font-weight="bold">Clock | Q3 Q2 Q1 Q0</text>
      <line x1="15" y1="45" x2="285" y2="45" stroke="#b91c1c" stroke-width="1"/>
      <text x="15" y="60" fill="#b91c1c" font-family="monospace" font-size="11">  0   |  0  0  0  0</text>
      <text x="15" y="75" fill="#b91c1c" font-family="monospace" font-size="11">  1   |  0  0  0  1</text>
      <text x="15" y="90" fill="#b91c1c" font-family="monospace" font-size="11">  2   |  0  0  1  1</text>
      <text x="15" y="105" fill="#b91c1c" font-family="monospace" font-size="11">  3   |  0  1  1  1</text>
    </g>

    <text x="350" y="190" fill="white" font-family="Arial, sans-serif" font-size="12">• Inverted feedback</text>
    <text x="350" y="210" fill="white" font-family="Arial, sans-serif" font-size="12">• 8 distinct states</text>
    <text x="350" y="230" fill="white" font-family="Arial, sans-serif" font-size="12">• Twisted ring counter</text>
    <text x="350" y="250" fill="white" font-family="Arial, sans-serif" font-size="12">• Switch tail counter</text>
  </g>

  <!-- Asynchronous Counter -->
  <g transform="translate(50, 380)">
    <rect x="0" y="0" width="550" height="300" fill="url(#asyncGrad)" rx="10"/>
    <text x="275" y="25" text-anchor="middle" fill="white" font-family="Arial, sans-serif" font-size="18" font-weight="bold">4-BIT ASYNCHRONOUS (RIPPLE) COUNTER</text>

    <!-- Async Counter Circuit -->
    <g transform="translate(20, 40)">
      <!-- FF boxes -->
      <rect x="0" y="0" width="80" height="60" fill="white" stroke="#7c3aed" stroke-width="2" rx="5"/>
      <text x="40" y="20" text-anchor="middle" fill="#7c3aed" font-family="Arial, sans-serif" font-size="10" font-weight="bold">T FF</text>
      <text x="40" y="35" text-anchor="middle" fill="#7c3aed" font-family="Arial, sans-serif" font-size="10" font-weight="bold">Q0</text>
      <text x="40" y="50" text-anchor="middle" fill="#7c3aed" font-family="Arial, sans-serif" font-size="10">LSB</text>

      <rect x="120" y="0" width="80" height="60" fill="white" stroke="#7c3aed" stroke-width="2" rx="5"/>
      <text x="160" y="20" text-anchor="middle" fill="#7c3aed" font-family="Arial, sans-serif" font-size="10" font-weight="bold">T FF</text>
      <text x="160" y="35" text-anchor="middle" fill="#7c3aed" font-family="Arial, sans-serif" font-size="10" font-weight="bold">Q1</text>

      <rect x="240" y="0" width="80" height="60" fill="white" stroke="#7c3aed" stroke-width="2" rx="5"/>
      <text x="280" y="20" text-anchor="middle" fill="#7c3aed" font-family="Arial, sans-serif" font-size="10" font-weight="bold">T FF</text>
      <text x="280" y="35" text-anchor="middle" fill="#7c3aed" font-family="Arial, sans-serif" font-size="10" font-weight="bold">Q2</text>

      <rect x="360" y="0" width="80" height="60" fill="white" stroke="#7c3aed" stroke-width="2" rx="5"/>
      <text x="400" y="20" text-anchor="middle" fill="#7c3aed" font-family="Arial, sans-serif" font-size="10" font-weight="bold">T FF</text>
      <text x="400" y="35" text-anchor="middle" fill="#7c3aed" font-family="Arial, sans-serif" font-size="10" font-weight="bold">Q3</text>
      <text x="400" y="50" text-anchor="middle" fill="#7c3aed" font-family="Arial, sans-serif" font-size="10">MSB</text>

      <!-- Clock connections -->
      <line x1="40" y1="70" x2="40" y2="90" stroke="white" stroke-width="2"/>
      <text x="10" y="85" fill="white" font-family="Arial, sans-serif" font-size="12">CLK</text>

      <!-- Q to CLK connections (ripple) -->
      <line x1="80" y1="30" x2="100" y2="30" stroke="white" stroke-width="2"/>
      <line x1="100" y1="30" x2="100" y2="70" stroke="white" stroke-width="2"/>
      <line x1="100" y1="70" x2="120" y2="70" stroke="white" stroke-width="2"/>
      <line x1="160" y1="70" x2="160" y2="90" stroke="white" stroke-width="2"/>

      <line x1="200" y1="30" x2="220" y2="30" stroke="white" stroke-width="2"/>
      <line x1="220" y1="30" x2="220" y2="70" stroke="white" stroke-width="2"/>
      <line x1="220" y1="70" x2="240" y2="70" stroke="white" stroke-width="2"/>
      <line x1="280" y1="70" x2="280" y2="90" stroke="white" stroke-width="2"/>

      <line x1="320" y1="30" x2="340" y2="30" stroke="white" stroke-width="2"/>
      <line x1="340" y1="30" x2="340" y2="70" stroke="white" stroke-width="2"/>
      <line x1="340" y1="70" x2="360" y2="70" stroke="white" stroke-width="2"/>
      <line x1="400" y1="70" x2="400" y2="90" stroke="white" stroke-width="2"/>

      <!-- Clock symbols -->
      <polygon points="35,70 45,70 40,75" fill="white"/>
      <polygon points="155,70 165,70 160,75" fill="white"/>
      <polygon points="275,70 285,70 280,75" fill="white"/>
      <polygon points="395,70 405,70 400,75" fill="white"/>
    </g>

    <!-- Timing Diagram -->
    <g transform="translate(20, 150)">
      <text x="0" y="15" fill="white" font-family="Arial, sans-serif" font-size="14" font-weight="bold">Timing Diagram:</text>

      <!-- Grid -->
      <g stroke="rgba(255,255,255,0.3)" stroke-width="1">
        <line x1="50" y1="30" x2="450" y2="30"/>
        <line x1="50" y1="50" x2="450" y2="50"/>
        <line x1="50" y1="70" x2="450" y2="70"/>
        <line x1="50" y1="90" x2="450" y2="90"/>
        <line x1="50" y1="110" x2="450" y2="110"/>
      </g>

      <!-- Labels -->
      <text x="20" y="35" fill="white" font-family="Arial, sans-serif" font-size="10">CLK</text>
      <text x="20" y="55" fill="white" font-family="Arial, sans-serif" font-size="10">Q0</text>
      <text x="20" y="75" fill="white" font-family="Arial, sans-serif" font-size="10">Q1</text>
      <text x="20" y="95" fill="white" font-family="Arial, sans-serif" font-size="10">Q2</text>
      <text x="20" y="115" fill="white" font-family="Arial, sans-serif" font-size="10">Q3</text>

      <!-- CLK waveform -->
      <path d="M 50 35 L 75 35 L 75 25 L 100 25 L 100 35 L 125 35 L 125 25 L 150 25 L 150 35 L 175 35 L 175 25 L 200 25 L 200 35 L 225 35 L 225 25 L 250 25 L 250 35"
            fill="none" stroke="white" stroke-width="2"/>

      <!-- Q0 waveform -->
      <path d="M 50 55 L 100 55 L 100 45 L 200 45 L 200 55 L 300 55 L 300 45 L 400 45"
            fill="none" stroke="white" stroke-width="2"/>

      <!-- Q1 waveform -->
      <path d="M 50 75 L 150 75 L 150 65 L 250 65 L 250 75 L 350 75"
            fill="none" stroke="white" stroke-width="2"/>

      <!-- Q2 waveform -->
      <path d="M 50 95 L 200 95 L 200 85 L 300 85 L 300 95"
            fill="none" stroke="white" stroke-width="2"/>

      <!-- Q3 waveform -->
      <path d="M 50 115 L 250 115 L 250 105 L 350 105"
            fill="none" stroke="white" stroke-width="2"/>
    </g>
  </g>

  <!-- Synchronous Counter -->
  <g transform="translate(620, 380)">
    <rect x="0" y="0" width="530" height="300" fill="url(#syncGrad)" rx="10"/>
    <text x="265" y="25" text-anchor="middle" fill="white" font-family="Arial, sans-serif" font-size="18" font-weight="bold">4-BIT SYNCHRONOUS UP/DOWN COUNTER</text>

    <!-- Sync Counter Circuit -->
    <g transform="translate(20, 40)">
      <!-- FF boxes -->
      <rect x="0" y="0" width="60" height="50" fill="white" stroke="#dc2626" stroke-width="2" rx="5"/>
      <text x="30" y="20" text-anchor="middle" fill="#dc2626" font-family="Arial, sans-serif" font-size="10" font-weight="bold">JK FF</text>
      <text x="30" y="35" text-anchor="middle" fill="#dc2626" font-family="Arial, sans-serif" font-size="10" font-weight="bold">Q0</text>

      <rect x="100" y="0" width="60" height="50" fill="white" stroke="#dc2626" stroke-width="2" rx="5"/>
      <text x="130" y="20" text-anchor="middle" fill="#dc2626" font-family="Arial, sans-serif" font-size="10" font-weight="bold">JK FF</text>
      <text x="130" y="35" text-anchor="middle" fill="#dc2626" font-family="Arial, sans-serif" font-size="10" font-weight="bold">Q1</text>

      <rect x="200" y="0" width="60" height="50" fill="white" stroke="#dc2626" stroke-width="2" rx="5"/>
      <text x="230" y="20" text-anchor="middle" fill="#dc2626" font-family="Arial, sans-serif" font-size="10" font-weight="bold">JK FF</text>
      <text x="230" y="35" text-anchor="middle" fill="#dc2626" font-family="Arial, sans-serif" font-size="10" font-weight="bold">Q2</text>

      <rect x="300" y="0" width="60" height="50" fill="white" stroke="#dc2626" stroke-width="2" rx="5"/>
      <text x="330" y="20" text-anchor="middle" fill="#dc2626" font-family="Arial, sans-serif" font-size="10" font-weight="bold">JK FF</text>
      <text x="330" y="35" text-anchor="middle" fill="#dc2626" font-family="Arial, sans-serif" font-size="10" font-weight="bold">Q3</text>

      <!-- Common clock line -->
      <line x1="30" y1="60" x2="30" y2="80" stroke="white" stroke-width="2"/>
      <line x1="130" y1="60" x2="130" y2="80" stroke="white" stroke-width="2"/>
      <line x1="230" y1="60" x2="230" y2="80" stroke="white" stroke-width="2"/>
      <line x1="330" y1="60" x2="330" y2="80" stroke="white" stroke-width="2"/>
      <line x1="0" y1="80" x2="380" y2="80" stroke="white" stroke-width="2"/>
      <text x="10" y="75" fill="white" font-family="Arial, sans-serif" font-size="12">CLK</text>

      <!-- Logic gates for synchronous operation -->
      <circle cx="80" cy="25" r="8" fill="white" stroke="#dc2626" stroke-width="2"/>
      <text x="80" y="30" text-anchor="middle" fill="#dc2626" font-family="Arial, sans-serif" font-size="8">&amp;</text>

      <circle cx="180" cy="25" r="8" fill="white" stroke="#dc2626" stroke-width="2"/>
      <text x="180" y="30" text-anchor="middle" fill="#dc2626" font-family="Arial, sans-serif" font-size="8">&amp;</text>

      <circle cx="280" cy="25" r="8" fill="white" stroke="#dc2626" stroke-width="2"/>
      <text x="280" y="30" text-anchor="middle" fill="#dc2626" font-family="Arial, sans-serif" font-size="8">&amp;</text>

      <!-- Control logic connections -->
      <line x1="60" y1="25" x2="72" y2="25" stroke="white" stroke-width="1"/>
      <line x1="88" y1="25" x2="100" y2="25" stroke="white" stroke-width="1"/>

      <line x1="160" y1="25" x2="172" y2="25" stroke="white" stroke-width="1"/>
      <line x1="188" y1="25" x2="200" y2="25" stroke="white" stroke-width="1"/>

      <line x1="260" y1="25" x2="272" y2="25" stroke="white" stroke-width="1"/>
      <line x1="288" y1="25" x2="300" y2="25" stroke="white" stroke-width="1"/>

      <!-- Up/Down control -->
      <text x="400" y="30" fill="white" font-family="Arial, sans-serif" font-size="10">UP/DOWN</text>
      <line x1="380" y1="25" x2="400" y2="25" stroke="white" stroke-width="2"/>
    </g>

    <!-- Control Logic -->
    <g transform="translate(20, 150)">
      <text x="0" y="15" fill="white" font-family="Arial, sans-serif" font-size="14" font-weight="bold">Control Logic:</text>
      <text x="0" y="35" fill="white" font-family="Arial, sans-serif" font-size="12">• All FFs clocked simultaneously</text>
      <text x="0" y="55" fill="white" font-family="Arial, sans-serif" font-size="12">• Logic gates determine next state</text>
      <text x="0" y="75" fill="white" font-family="Arial, sans-serif" font-size="12">• UP: Count 0→1→2→...→15→0</text>
      <text x="0" y="95" fill="white" font-family="Arial, sans-serif" font-size="12">• DOWN: Count 15→14→13→...→0→15</text>
      <text x="0" y="115" fill="white" font-family="Arial, sans-serif" font-size="12">• No propagation delay issues</text>
      <text x="0" y="135" fill="white" font-family="Arial, sans-serif" font-size="12">• Faster operation than ripple counter</text>
    </g>

    <!-- Comparison -->
    <g transform="translate(300, 150)">
      <text x="0" y="15" fill="white" font-family="Arial, sans-serif" font-size="14" font-weight="bold">Sync vs Async:</text>
      <rect x="0" y="20" width="200" height="110" fill="white" stroke="#dc2626" stroke-width="2"/>

      <text x="10" y="40" fill="#dc2626" font-family="Arial, sans-serif" font-size="11" font-weight="bold">Feature | Sync | Async</text>
      <line x1="10" y1="45" x2="190" y2="45" stroke="#dc2626" stroke-width="1"/>
      <text x="10" y="60" fill="#dc2626" font-family="Arial, sans-serif" font-size="10">Speed   | Fast | Slow</text>
      <text x="10" y="75" fill="#dc2626" font-family="Arial, sans-serif" font-size="10">Delay   | No   | Yes</text>
      <text x="10" y="90" fill="#dc2626" font-family="Arial, sans-serif" font-size="10">Logic   | More | Less</text>
      <text x="10" y="105" fill="#dc2626" font-family="Arial, sans-serif" font-size="10">Power   | More | Less</text>
      <text x="10" y="120" fill="#dc2626" font-family="Arial, sans-serif" font-size="10">Design  | Hard | Easy</text>
    </g>
  </g>

  <!-- BCD Counter -->
  <g transform="translate(50, 700)">
    <rect x="0" y="0" width="1100" height="280" fill="url(#bcdGrad)" rx="10"/>
    <text x="550" y="25" text-anchor="middle" fill="white" font-family="Arial, sans-serif" font-size="18" font-weight="bold">BCD/DECADE COUNTER (0-9)</text>

    <!-- BCD State Diagram -->
    <g transform="translate(50, 50)">
      <text x="100" y="15" text-anchor="middle" fill="white" font-family="Arial, sans-serif" font-size="14" font-weight="bold">State Diagram</text>

      <!-- States 0-4 (top row) -->
      <circle cx="50" cy="50" r="20" fill="white" stroke="#0e7490" stroke-width="2"/>
      <text x="50" y="55" text-anchor="middle" fill="#0e7490" font-family="Arial, sans-serif" font-size="12" font-weight="bold">0</text>

      <circle cx="130" cy="50" r="20" fill="white" stroke="#0e7490" stroke-width="2"/>
      <text x="130" y="55" text-anchor="middle" fill="#0e7490" font-family="Arial, sans-serif" font-size="12" font-weight="bold">1</text>

      <circle cx="210" cy="50" r="20" fill="white" stroke="#0e7490" stroke-width="2"/>
      <text x="210" y="55" text-anchor="middle" fill="#0e7490" font-family="Arial, sans-serif" font-size="12" font-weight="bold">2</text>

      <circle cx="290" cy="50" r="20" fill="white" stroke="#0e7490" stroke-width="2"/>
      <text x="290" y="55" text-anchor="middle" fill="#0e7490" font-family="Arial, sans-serif" font-size="12" font-weight="bold">3</text>

      <circle cx="370" cy="50" r="20" fill="white" stroke="#0e7490" stroke-width="2"/>
      <text x="370" y="55" text-anchor="middle" fill="#0e7490" font-family="Arial, sans-serif" font-size="12" font-weight="bold">4</text>

      <!-- States 5-9 (bottom row) -->
      <circle cx="370" cy="130" r="20" fill="white" stroke="#0e7490" stroke-width="2"/>
      <text x="370" y="135" text-anchor="middle" fill="#0e7490" font-family="Arial, sans-serif" font-size="12" font-weight="bold">5</text>

      <circle cx="290" cy="130" r="20" fill="white" stroke="#0e7490" stroke-width="2"/>
      <text x="290" y="135" text-anchor="middle" fill="#0e7490" font-family="Arial, sans-serif" font-size="12" font-weight="bold">6</text>

      <circle cx="210" cy="130" r="20" fill="white" stroke="#0e7490" stroke-width="2"/>
      <text x="210" y="135" text-anchor="middle" fill="#0e7490" font-family="Arial, sans-serif" font-size="12" font-weight="bold">7</text>

      <circle cx="130" cy="130" r="20" fill="white" stroke="#0e7490" stroke-width="2"/>
      <text x="130" y="135" text-anchor="middle" fill="#0e7490" font-family="Arial, sans-serif" font-size="12" font-weight="bold">8</text>

      <circle cx="50" cy="130" r="20" fill="white" stroke="#0e7490" stroke-width="2"/>
      <text x="50" y="135" text-anchor="middle" fill="#0e7490" font-family="Arial, sans-serif" font-size="12" font-weight="bold">9</text>

      <!-- Arrows -->
      <polygon points="75,50 85,45 85,55" fill="white"/>
      <polygon points="155,50 165,45 165,55" fill="white"/>
      <polygon points="235,50 245,45 245,55" fill="white"/>
      <polygon points="315,50 325,45 325,55" fill="white"/>
      <polygon points="370,75 375,85 365,85" fill="white"/>
      <polygon points="345,130 335,125 335,135" fill="white"/>
      <polygon points="265,130 255,125 255,135" fill="white"/>
      <polygon points="185,130 175,125 175,135" fill="white"/>
      <polygon points="105,130 95,125 95,135" fill="white"/>

      <!-- Return to 0 arrow -->
      <path d="M 30 130 Q 10 90 30 50" fill="none" stroke="white" stroke-width="2"/>
      <polygon points="25,55 35,50 25,45" fill="white"/>
    </g>

    <!-- Truth Table -->
    <g transform="translate(500, 50)">
      <text x="100" y="15" text-anchor="middle" fill="white" font-family="Arial, sans-serif" font-size="14" font-weight="bold">Truth Table</text>
      <rect x="0" y="20" width="200" height="180" fill="white" stroke="#0e7490" stroke-width="2"/>

      <text x="10" y="40" fill="#0e7490" font-family="Arial, sans-serif" font-size="12" font-weight="bold">State | Q3 Q2 Q1 Q0 | Decimal</text>
      <line x1="10" y1="45" x2="190" y2="45" stroke="#0e7490" stroke-width="1"/>
      <text x="10" y="60" fill="#0e7490" font-family="monospace" font-size="10">  0   | 0  0  0  0 |    0</text>
      <text x="10" y="75" fill="#0e7490" font-family="monospace" font-size="10">  1   | 0  0  0  1 |    1</text>
      <text x="10" y="90" fill="#0e7490" font-family="monospace" font-size="10">  2   | 0  0  1  0 |    2</text>
      <text x="10" y="105" fill="#0e7490" font-family="monospace" font-size="10">  3   | 0  0  1  1 |    3</text>
      <text x="10" y="120" fill="#0e7490" font-family="monospace" font-size="10">  4   | 0  1  0  0 |    4</text>
      <text x="10" y="135" fill="#0e7490" font-family="monospace" font-size="10">  5   | 0  1  0  1 |    5</text>
      <text x="10" y="150" fill="#0e7490" font-family="monospace" font-size="10">  6   | 0  1  1  0 |    6</text>
      <text x="10" y="165" fill="#0e7490" font-family="monospace" font-size="10">  7   | 0  1  1  1 |    7</text>
      <text x="10" y="180" fill="#0e7490" font-family="monospace" font-size="10">  8   | 1  0  0  0 |    8</text>
      <text x="10" y="195" fill="#0e7490" font-family="monospace" font-size="10">  9   | 1  0  0  1 |    9</text>
    </g>

    <!-- Applications -->
    <g transform="translate(750, 50)">
      <text x="100" y="15" text-anchor="middle" fill="white" font-family="Arial, sans-serif" font-size="14" font-weight="bold">Applications</text>
      <text x="0" y="40" fill="white" font-family="Arial, sans-serif" font-size="12">• Digital clocks</text>
      <text x="0" y="60" fill="white" font-family="Arial, sans-serif" font-size="12">• Frequency dividers</text>
      <text x="0" y="80" fill="white" font-family="Arial, sans-serif" font-size="12">• Digital voltmeters</text>
      <text x="0" y="100" fill="white" font-family="Arial, sans-serif" font-size="12">• Counters in calculators</text>
      <text x="0" y="120" fill="white" font-family="Arial, sans-serif" font-size="12">• Timer circuits</text>
      <text x="0" y="140" fill="white" font-family="Arial, sans-serif" font-size="12">• Sequential logic systems</text>

      <text x="0" y="170" fill="white" font-family="Arial, sans-serif" font-size="12" font-weight="bold">Features:</text>
      <text x="0" y="190" fill="white" font-family="Arial, sans-serif" font-size="12">• Counts 0 to 9 then resets</text>
      <text x="0" y="210" fill="white" font-family="Arial, sans-serif" font-size="12">• Decade counter (÷10)</text>
    </g>
  </g>

  <!-- Summary -->
  <g transform="translate(50, 1000)">
    <rect x="0" y="0" width="1100" height="180" fill="rgba(37, 99, 235, 0.1)" stroke="#2563eb" stroke-width="2" rx="10"/>
    <text x="550" y="25" text-anchor="middle" fill="#2563eb" font-family="Arial, sans-serif" font-size="18" font-weight="bold">Counter Types Summary</text>

    <g transform="translate(50, 40)">
      <text x="0" y="20" fill="#2563eb" font-family="Arial, sans-serif" font-size="14" font-weight="bold">Ring Counter:</text>
      <text x="150" y="20" fill="#2563eb" font-family="Arial, sans-serif" font-size="12">Data circulates in a closed loop, one active bit</text>

      <text x="0" y="45" fill="#2563eb" font-family="Arial, sans-serif" font-size="14" font-weight="bold">Johnson Counter:</text>
      <text x="150" y="45" fill="#2563eb" font-family="Arial, sans-serif" font-size="12">Twisted ring counter with inverted feedback, 2n states</text>

      <text x="0" y="70" fill="#2563eb" font-family="Arial, sans-serif" font-size="14" font-weight="bold">Ripple Counter:</text>
      <text x="150" y="70" fill="#2563eb" font-family="Arial, sans-serif" font-size="12">Asynchronous, simple design, propagation delay issues</text>

      <text x="0" y="95" fill="#2563eb" font-family="Arial, sans-serif" font-size="14" font-weight="bold">Synchronous Counter:</text>
      <text x="150" y="95" fill="#2563eb" font-family="Arial, sans-serif" font-size="12">All FFs clocked together, faster, more complex logic</text>

      <text x="0" y="120" fill="#2563eb" font-family="Arial, sans-serif" font-size="14" font-weight="bold">BCD Counter:</text>
      <text x="150" y="120" fill="#2563eb" font-family="Arial, sans-serif" font-size="12">Counts 0-9, essential for decimal display systems</text>
    </g>
  </g>
</svg>