<svg width="1200" height="1600" xmlns="http://www.w3.org/2000/svg">
  <defs>
    <linearGradient id="headerGrad" x1="0%" y1="0%" x2="100%" y2="0%">
      <stop offset="0%" style="stop-color:#2563eb;stop-opacity:1" />
      <stop offset="100%" style="stop-color:#1d4ed8;stop-opacity:1" />
    </linearGradient>
    <linearGradient id="srGrad" x1="0%" y1="0%" x2="100%" y2="0%">
      <stop offset="0%" style="stop-color:#059669;stop-opacity:1" />
      <stop offset="100%" style="stop-color:#047857;stop-opacity:1" />
    </linearGradient>
    <linearGradient id="dGrad" x1="0%" y1="0%" x2="100%" y2="0%">
      <stop offset="0%" style="stop-color:#dc2626;stop-opacity:1" />
      <stop offset="100%" style="stop-color:#b91c1c;stop-opacity:1" />
    </linearGradient>
    <linearGradient id="jkGrad" x1="0%" y1="0%" x2="100%" y2="0%">
      <stop offset="0%" style="stop-color:#9333ea;stop-opacity:1" />
      <stop offset="100%" style="stop-color:#7c3aed;stop-opacity:1" />
    </linearGradient>
    <linearGradient id="tGrad" x1="0%" y1="0%" x2="100%" y2="0%">
      <stop offset="0%" style="stop-color:#ea580c;stop-opacity:1" />
      <stop offset="100%" style="stop-color:#dc2626;stop-opacity:1" />
    </linearGradient>
    <linearGradient id="msGrad" x1="0%" y1="0%" x2="100%" y2="0%">
      <stop offset="0%" style="stop-color:#0891b2;stop-opacity:1" />
      <stop offset="100%" style="stop-color:#0e7490;stop-opacity:1" />
    </linearGradient>
  </defs>

  <!-- Background -->
  <rect width="1200" height="1600" fill="#f8fafc"/>

  <!-- Title -->
  <rect x="0" y="0" width="1200" height="60" fill="url(#headerGrad)"/>
  <text x="600" y="35" text-anchor="middle" fill="white" font-family="Arial, sans-serif" font-size="24" font-weight="bold">Flip-Flops in Sequential Logic Circuits</text>

  <!-- SR Flip-Flop -->
  <g transform="translate(50, 80)">
    <rect x="0" y="0" width="500" height="260" fill="url(#srGrad)" rx="10"/>
    <text x="250" y="25" text-anchor="middle" fill="white" font-family="Arial, sans-serif" font-size="18" font-weight="bold">SR FLIP-FLOP</text>

    <!-- Logic Diagram -->
    <g transform="translate(20, 40)">
      <text x="0" y="0" fill="white" font-family="Arial, sans-serif" font-size="14" font-weight="bold">Logic Diagram:</text>

      <!-- NAND gates -->
      <rect x="50" y="20" width="60" height="30" fill="white" stroke="#333" rx="5"/>
      <text x="80" y="38" text-anchor="middle" fill="#333" font-family="Arial, sans-serif" font-size="12">NAND</text>

      <rect x="50" y="70" width="60" height="30" fill="white" stroke="#333" rx="5"/>
      <text x="80" y="88" text-anchor="middle" fill="#333" font-family="Arial, sans-serif" font-size="12">NAND</text>

      <!-- Input lines -->
      <line x1="10" y1="35" x2="50" y2="35" stroke="white" stroke-width="2"/>
      <text x="5" y="38" fill="white" font-family="Arial, sans-serif" font-size="12">S</text>

      <line x1="10" y1="85" x2="50" y2="85" stroke="white" stroke-width="2"/>
      <text x="5" y="88" fill="white" font-family="Arial, sans-serif" font-size="12">R</text>

      <!-- Output lines -->
      <line x1="110" y1="35" x2="150" y2="35" stroke="white" stroke-width="2"/>
      <text x="155" y="38" fill="white" font-family="Arial, sans-serif" font-size="12">Q</text>

      <line x1="110" y1="85" x2="150" y2="85" stroke="white" stroke-width="2"/>
      <text x="155" y="88" fill="white" font-family="Arial, sans-serif" font-size="12">Q&apos;</text>

      <!-- Cross connections -->
      <path d="M 110 35 Q 130 35 130 55 Q 130 75 50 75" stroke="white" stroke-width="1" fill="none"/>
      <path d="M 110 85 Q 130 85 130 65 Q 130 45 50 45" stroke="white" stroke-width="1" fill="none"/>
    </g>

    <!-- Truth Table -->
    <g transform="translate(250, 40)">
      <text x="0" y="0" fill="white" font-family="Arial, sans-serif" font-size="14" font-weight="bold">Truth Table:</text>

      <rect x="10" y="10" width="180" height="120" fill="white" stroke="#333"/>

      <!-- Headers -->
      <rect x="10" y="10" width="45" height="25" fill="#333"/>
      <text x="32" y="27" text-anchor="middle" fill="white" font-family="Arial, sans-serif" font-size="11">S</text>

      <rect x="55" y="10" width="45" height="25" fill="#333"/>
      <text x="77" y="27" text-anchor="middle" fill="white" font-family="Arial, sans-serif" font-size="11">R</text>

      <rect x="100" y="10" width="45" height="25" fill="#333"/>
      <text x="122" y="27" text-anchor="middle" fill="white" font-family="Arial, sans-serif" font-size="11">Q</text>

      <rect x="145" y="10" width="45" height="25" fill="#333"/>
      <text x="167" y="27" text-anchor="middle" fill="white" font-family="Arial, sans-serif" font-size="11">Action</text>

      <!-- Rows -->
      <text x="32" y="52" text-anchor="middle" fill="#333" font-family="Arial, sans-serif" font-size="11">0</text>
      <text x="77" y="52" text-anchor="middle" fill="#333" font-family="Arial, sans-serif" font-size="11">0</text>
      <text x="122" y="52" text-anchor="middle" fill="#333" font-family="Arial, sans-serif" font-size="11">Q</text>
      <text x="167" y="52" text-anchor="middle" fill="#333" font-family="Arial, sans-serif" font-size="10">Hold</text>

      <text x="32" y="72" text-anchor="middle" fill="#333" font-family="Arial, sans-serif" font-size="11">0</text>
      <text x="77" y="72" text-anchor="middle" fill="#333" font-family="Arial, sans-serif" font-size="11">1</text>
      <text x="122" y="72" text-anchor="middle" fill="#333" font-family="Arial, sans-serif" font-size="11">0</text>
      <text x="167" y="72" text-anchor="middle" fill="#333" font-family="Arial, sans-serif" font-size="10">Reset</text>

      <text x="32" y="92" text-anchor="middle" fill="#333" font-family="Arial, sans-serif" font-size="11">1</text>
      <text x="77" y="92" text-anchor="middle" fill="#333" font-family="Arial, sans-serif" font-size="11">0</text>
      <text x="122" y="92" text-anchor="middle" fill="#333" font-family="Arial, sans-serif" font-size="11">1</text>
      <text x="167" y="92" text-anchor="middle" fill="#333" font-family="Arial, sans-serif" font-size="10">Set</text>

      <text x="32" y="112" text-anchor="middle" fill="#333" font-family="Arial, sans-serif" font-size="11">1</text>
      <text x="77" y="112" text-anchor="middle" fill="#333" font-family="Arial, sans-serif" font-size="11">1</text>
      <text x="122" y="112" text-anchor="middle" fill="#333" font-family="Arial, sans-serif" font-size="11">X</text>
      <text x="167" y="112" text-anchor="middle" fill="#333" font-family="Arial, sans-serif" font-size="10">Invalid</text>
    </g>

    <!-- Characteristics -->
    <g transform="translate(20, 180)">
      <text x="0" y="0" fill="white" font-family="Arial, sans-serif" font-size="14" font-weight="bold">Characteristics:</text>
      <text x="0" y="20" fill="white" font-family="Arial, sans-serif" font-size="12">• Set-Reset flip-flop with memory capability</text>
      <text x="0" y="35" fill="white" font-family="Arial, sans-serif" font-size="12">• Invalid state when S=1, R=1</text>
      <text x="0" y="50" fill="white" font-family="Arial, sans-serif" font-size="12">• Basic building block for other flip-flops</text>
    </g>
  </g>

  <!-- D Flip-Flop -->
  <g transform="translate(650, 80)">
    <rect x="0" y="0" width="500" height="260" fill="url(#dGrad)" rx="10"/>
    <text x="250" y="25" text-anchor="middle" fill="white" font-family="Arial, sans-serif" font-size="18" font-weight="bold">D FLIP-FLOP</text>

    <!-- Logic Diagram -->
    <g transform="translate(20, 40)">
      <text x="0" y="0" fill="white" font-family="Arial, sans-serif" font-size="14" font-weight="bold">Logic Diagram:</text>

      <!-- D FF symbol -->
      <rect x="50" y="20" width="80" height="60" fill="white" stroke="#333" rx="5"/>
      <text x="90" y="35" text-anchor="middle" fill="#333" font-family="Arial, sans-serif" font-size="12">D</text>
      <text x="90" y="68" text-anchor="middle" fill="#333" font-family="Arial, sans-serif" font-size="12">FF</text>

      <!-- Input lines -->
      <line x1="10" y1="40" x2="50" y2="40" stroke="white" stroke-width="2"/>
      <text x="5" y="43" fill="white" font-family="Arial, sans-serif" font-size="12">D</text>

      <line x1="10" y1="60" x2="50" y2="60" stroke="white" stroke-width="2"/>
      <text x="5" y="63" fill="white" font-family="Arial, sans-serif" font-size="12">CLK</text>

      <!-- Clock symbol -->
      <polygon points="45,55 50,60 45,65" fill="white"/>

      <!-- Output lines -->
      <line x1="130" y1="40" x2="170" y2="40" stroke="white" stroke-width="2"/>
      <text x="175" y="43" fill="white" font-family="Arial, sans-serif" font-size="12">Q</text>

      <line x1="130" y1="60" x2="170" y2="60" stroke="white" stroke-width="2"/>
      <text x="175" y="63" fill="white" font-family="Arial, sans-serif" font-size="12">Q&apos;</text>
    </g>

    <!-- Truth Table -->
    <g transform="translate(250, 40)">
      <text x="0" y="0" fill="white" font-family="Arial, sans-serif" font-size="14" font-weight="bold">Truth Table:</text>

      <rect x="10" y="10" width="180" height="100" fill="white" stroke="#333"/>

      <!-- Headers -->
      <rect x="10" y="10" width="45" height="25" fill="#333"/>
      <text x="32" y="27" text-anchor="middle" fill="white" font-family="Arial, sans-serif" font-size="11">D</text>

      <rect x="55" y="10" width="45" height="25" fill="#333"/>
      <text x="77" y="27" text-anchor="middle" fill="white" font-family="Arial, sans-serif" font-size="11">CLK</text>

      <rect x="100" y="10" width="45" height="25" fill="#333"/>
      <text x="122" y="27" text-anchor="middle" fill="white" font-family="Arial, sans-serif" font-size="11">Q</text>

      <rect x="145" y="10" width="45" height="25" fill="#333"/>
      <text x="167" y="27" text-anchor="middle" fill="white" font-family="Arial, sans-serif" font-size="11">Action</text>

      <!-- Rows -->
      <text x="32" y="52" text-anchor="middle" fill="#333" font-family="Arial, sans-serif" font-size="11">0</text>
      <text x="77" y="52" text-anchor="middle" fill="#333" font-family="Arial, sans-serif" font-size="11">↑</text>
      <text x="122" y="52" text-anchor="middle" fill="#333" font-family="Arial, sans-serif" font-size="11">0</text>
      <text x="167" y="52" text-anchor="middle" fill="#333" font-family="Arial, sans-serif" font-size="10">Reset</text>

      <text x="32" y="72" text-anchor="middle" fill="#333" font-family="Arial, sans-serif" font-size="11">1</text>
      <text x="77" y="72" text-anchor="middle" fill="#333" font-family="Arial, sans-serif" font-size="11">↑</text>
      <text x="122" y="72" text-anchor="middle" fill="#333" font-family="Arial, sans-serif" font-size="11">1</text>
      <text x="167" y="72" text-anchor="middle" fill="#333" font-family="Arial, sans-serif" font-size="10">Set</text>

      <text x="32" y="92" text-anchor="middle" fill="#333" font-family="Arial, sans-serif" font-size="11">X</text>
      <text x="77" y="92" text-anchor="middle" fill="#333" font-family="Arial, sans-serif" font-size="11">0/1</text>
      <text x="122" y="92" text-anchor="middle" fill="#333" font-family="Arial, sans-serif" font-size="11">Q</text>
      <text x="167" y="92" text-anchor="middle" fill="#333" font-family="Arial, sans-serif" font-size="10">Hold</text>
    </g>

    <!-- Characteristics -->
    <g transform="translate(20, 160)">
      <text x="0" y="0" fill="white" font-family="Arial, sans-serif" font-size="14" font-weight="bold">Characteristics:</text>
      <text x="0" y="20" fill="white" font-family="Arial, sans-serif" font-size="12">• Data flip-flop follows input D</text>
      <text x="0" y="35" fill="white" font-family="Arial, sans-serif" font-size="12">• No invalid states like SR flip-flop</text>
      <text x="0" y="50" fill="white" font-family="Arial, sans-serif" font-size="12">• Edge-triggered operation</text>
      <text x="0" y="65" fill="white" font-family="Arial, sans-serif" font-size="12">• Q follows D on clock edge</text>
    </g>
  </g>

  <!-- JK Flip-Flop -->
  <g transform="translate(50, 380)">
    <rect x="0" y="0" width="500" height="280" fill="url(#jkGrad)" rx="10"/>
    <text x="250" y="25" text-anchor="middle" fill="white" font-family="Arial, sans-serif" font-size="18" font-weight="bold">JK FLIP-FLOP</text>

    <!-- Logic Diagram -->
    <g transform="translate(20, 40)">
      <text x="0" y="0" fill="white" font-family="Arial, sans-serif" font-size="14" font-weight="bold">Logic Diagram:</text>

      <!-- JK FF symbol -->
      <rect x="50" y="20" width="80" height="80" fill="white" stroke="#333" rx="5"/>
      <text x="90" y="35" text-anchor="middle" fill="#333" font-family="Arial, sans-serif" font-size="12">JK</text>
      <text x="90" y="88" text-anchor="middle" fill="#333" font-family="Arial, sans-serif" font-size="12">FF</text>

      <!-- Input lines -->
      <line x1="10" y1="35" x2="50" y2="35" stroke="white" stroke-width="2"/>
      <text x="5" y="38" fill="white" font-family="Arial, sans-serif" font-size="12">J</text>

      <line x1="10" y1="60" x2="50" y2="60" stroke="white" stroke-width="2"/>
      <text x="5" y="63" fill="white" font-family="Arial, sans-serif" font-size="12">CLK</text>

      <line x1="10" y1="85" x2="50" y2="85" stroke="white" stroke-width="2"/>
      <text x="5" y="88" fill="white" font-family="Arial, sans-serif" font-size="12">K</text>

      <!-- Clock symbol -->
      <polygon points="45,55 50,60 45,65" fill="white"/>

      <!-- Output lines -->
      <line x1="130" y1="45" x2="170" y2="45" stroke="white" stroke-width="2"/>
      <text x="175" y="48" fill="white" font-family="Arial, sans-serif" font-size="12">Q</text>

      <line x1="130" y1="75" x2="170" y2="75" stroke="white" stroke-width="2"/>
      <text x="175" y="78" fill="white" font-family="Arial, sans-serif" font-size="12">Q&apos;</text>
    </g>

    <!-- Truth Table -->
    <g transform="translate(250, 40)">
      <text x="0" y="0" fill="white" font-family="Arial, sans-serif" font-size="14" font-weight="bold">Truth Table:</text>

      <rect x="10" y="10" width="210" height="140" fill="white" stroke="#333"/>

      <!-- Headers -->
      <rect x="10" y="10" width="35" height="25" fill="#333"/>
      <text x="27" y="27" text-anchor="middle" fill="white" font-family="Arial, sans-serif" font-size="11">J</text>

      <rect x="45" y="10" width="35" height="25" fill="#333"/>
      <text x="62" y="27" text-anchor="middle" fill="white" font-family="Arial, sans-serif" font-size="11">K</text>

      <rect x="80" y="10" width="35" height="25" fill="#333"/>
      <text x="97" y="27" text-anchor="middle" fill="white" font-family="Arial, sans-serif" font-size="11">CLK</text>

      <rect x="115" y="10" width="35" height="25" fill="#333"/>
      <text x="132" y="27" text-anchor="middle" fill="white" font-family="Arial, sans-serif" font-size="11">Q</text>

      <rect x="150" y="10" width="70" height="25" fill="#333"/>
      <text x="185" y="27" text-anchor="middle" fill="white" font-family="Arial, sans-serif" font-size="11">Action</text>

      <!-- Rows -->
      <text x="27" y="52" text-anchor="middle" fill="#333" font-family="Arial, sans-serif" font-size="11">0</text>
      <text x="62" y="52" text-anchor="middle" fill="#333" font-family="Arial, sans-serif" font-size="11">0</text>
      <text x="97" y="52" text-anchor="middle" fill="#333" font-family="Arial, sans-serif" font-size="11">↑</text>
      <text x="132" y="52" text-anchor="middle" fill="#333" font-family="Arial, sans-serif" font-size="11">Q</text>
      <text x="185" y="52" text-anchor="middle" fill="#333" font-family="Arial, sans-serif" font-size="10">No Change</text>

      <text x="27" y="72" text-anchor="middle" fill="#333" font-family="Arial, sans-serif" font-size="11">0</text>
      <text x="62" y="72" text-anchor="middle" fill="#333" font-family="Arial, sans-serif" font-size="11">1</text>
      <text x="97" y="72" text-anchor="middle" fill="#333" font-family="Arial, sans-serif" font-size="11">↑</text>
      <text x="132" y="72" text-anchor="middle" fill="#333" font-family="Arial, sans-serif" font-size="11">0</text>
      <text x="185" y="72" text-anchor="middle" fill="#333" font-family="Arial, sans-serif" font-size="10">Reset</text>

      <text x="27" y="92" text-anchor="middle" fill="#333" font-family="Arial, sans-serif" font-size="11">1</text>
      <text x="62" y="92" text-anchor="middle" fill="#333" font-family="Arial, sans-serif" font-size="11">0</text>
      <text x="97" y="92" text-anchor="middle" fill="#333" font-family="Arial, sans-serif" font-size="11">↑</text>
      <text x="132" y="92" text-anchor="middle" fill="#333" font-family="Arial, sans-serif" font-size="11">1</text>
      <text x="185" y="92" text-anchor="middle" fill="#333" font-family="Arial, sans-serif" font-size="10">Set</text>

      <text x="27" y="112" text-anchor="middle" fill="#333" font-family="Arial, sans-serif" font-size="11">1</text>
      <text x="62" y="112" text-anchor="middle" fill="#333" font-family="Arial, sans-serif" font-size="11">1</text>
      <text x="97" y="112" text-anchor="middle" fill="#333" font-family="Arial, sans-serif" font-size="11">↑</text>
      <text x="132" y="112" text-anchor="middle" fill="#333" font-family="Arial, sans-serif" font-size="11">Q&apos;</text>
      <text x="185" y="112" text-anchor="middle" fill="#333" font-family="Arial, sans-serif" font-size="10">Toggle</text>

      <text x="100" y="132" text-anchor="middle" fill="#333" font-family="Arial, sans-serif" font-size="10">↑ = Positive edge trigger</text>
    </g>

    <!-- Characteristics -->
    <g transform="translate(20, 180)">
      <text x="0" y="0" fill="white" font-family="Arial, sans-serif" font-size="14" font-weight="bold">Characteristics:</text>
      <text x="0" y="20" fill="white" font-family="Arial, sans-serif" font-size="12">• Most versatile flip-flop</text>
      <text x="0" y="35" fill="white" font-family="Arial, sans-serif" font-size="12">• No invalid states (eliminates SR problem)</text>
      <text x="0" y="50" fill="white" font-family="Arial, sans-serif" font-size="12">• Toggle mode when J=K=1</text>
      <text x="0" y="65" fill="white" font-family="Arial, sans-serif" font-size="12">• Universal flip-flop (can implement others)</text>
    </g>
  </g>

  <!-- T Flip-Flop -->
  <g transform="translate(650, 380)">
    <rect x="0" y="0" width="500" height="280" fill="url(#tGrad)" rx="10"/>
    <text x="250" y="25" text-anchor="middle" fill="white" font-family="Arial, sans-serif" font-size="18" font-weight="bold">T FLIP-FLOP</text>

    <!-- Logic Diagram -->
    <g transform="translate(20, 40)">
      <text x="0" y="0" fill="white" font-family="Arial, sans-serif" font-size="14" font-weight="bold">Logic Diagram:</text>

      <!-- T FF symbol -->
      <rect x="50" y="20" width="80" height="60" fill="white" stroke="#333" rx="5"/>
      <text x="90" y="35" text-anchor="middle" fill="#333" font-family="Arial, sans-serif" font-size="12">T</text>
      <text x="90" y="68" text-anchor="middle" fill="#333" font-family="Arial, sans-serif" font-size="12">FF</text>

      <!-- Input lines -->
      <line x1="10" y1="40" x2="50" y2="40" stroke="white" stroke-width="2"/>
      <text x="5" y="43" fill="white" font-family="Arial, sans-serif" font-size="12">T</text>

      <line x1="10" y1="60" x2="50" y2="60" stroke="white" stroke-width="2"/>
      <text x="5" y="63" fill="white" font-family="Arial, sans-serif" font-size="12">CLK</text>

      <!-- Clock symbol -->
      <polygon points="45,55 50,60 45,65" fill="white"/>

      <!-- Output lines -->
      <line x1="130" y1="40" x2="170" y2="40" stroke="white" stroke-width="2"/>
      <text x="175" y="43" fill="white" font-family="Arial, sans-serif" font-size="12">Q</text>

      <line x1="130" y1="60" x2="170" y2="60" stroke="white" stroke-width="2"/>
      <text x="175" y="63" fill="white" font-family="Arial, sans-serif" font-size="12">Q&apos;</text>
    </g>

    <!-- Truth Table -->
    <g transform="translate(250, 40)">
      <text x="0" y="0" fill="white" font-family="Arial, sans-serif" font-size="14" font-weight="bold">Truth Table:</text>

      <rect x="10" y="10" width="180" height="100" fill="white" stroke="#333"/>

      <!-- Headers -->
      <rect x="10" y="10" width="45" height="25" fill="#333"/>
      <text x="32" y="27" text-anchor="middle" fill="white" font-family="Arial, sans-serif" font-size="11">T</text>

      <rect x="55" y="10" width="45" height="25" fill="#333"/>
      <text x="77" y="27" text-anchor="middle" fill="white" font-family="Arial, sans-serif" font-size="11">CLK</text>

      <rect x="100" y="10" width="45" height="25" fill="#333"/>
      <text x="122" y="27" text-anchor="middle" fill="white" font-family="Arial, sans-serif" font-size="11">Q</text>

      <rect x="145" y="10" width="45" height="25" fill="#333"/>
      <text x="167" y="27" text-anchor="middle" fill="white" font-family="Arial, sans-serif" font-size="11">Action</text>

      <!-- Rows -->
      <text x="32" y="52" text-anchor="middle" fill="#333" font-family="Arial, sans-serif" font-size="11">0</text>
      <text x="77" y="52" text-anchor="middle" fill="#333" font-family="Arial, sans-serif" font-size="11">↑</text>
      <text x="122" y="52" text-anchor="middle" fill="#333" font-family="Arial, sans-serif" font-size="11">Q</text>
      <text x="167" y="52" text-anchor="middle" fill="#333" font-family="Arial, sans-serif" font-size="10">Hold</text>

      <text x="32" y="72" text-anchor="middle" fill="#333" font-family="Arial, sans-serif" font-size="11">1</text>
      <text x="77" y="72" text-anchor="middle" fill="#333" font-family="Arial, sans-serif" font-size="11">↑</text>
      <text x="122" y="72" text-anchor="middle" fill="#333" font-family="Arial, sans-serif" font-size="11">Q&apos;</text>
      <text x="167" y="72" text-anchor="middle" fill="#333" font-family="Arial, sans-serif" font-size="10">Toggle</text>

      <text x="32" y="92" text-anchor="middle" fill="#333" font-family="Arial, sans-serif" font-size="11">X</text>
      <text x="77" y="92" text-anchor="middle" fill="#333" font-family="Arial, sans-serif" font-size="11">0/1</text>
      <text x="122" y="92" text-anchor="middle" fill="#333" font-family="Arial, sans-serif" font-size="11">Q</text>
      <text x="167" y="92" text-anchor="middle" fill="#333" font-family="Arial, sans-serif" font-size="10">Hold</text>
    </g>

    <!-- Implementation -->
    <g transform="translate(20, 160)">
      <text x="0" y="0" fill="white" font-family="Arial, sans-serif" font-size="14" font-weight="bold">Implementation from JK:</text>
      <text x="0" y="20" fill="white" font-family="Arial, sans-serif" font-size="12">• Connect J and K inputs together</text>
      <text x="0" y="35" fill="white" font-family="Arial, sans-serif" font-size="12">• T = J = K (toggle input)</text>
      <text x="0" y="50" fill="white" font-family="Arial, sans-serif" font-size="12">• Used in counters and frequency dividers</text>
      <text x="0" y="65" fill="white" font-family="Arial, sans-serif" font-size="12">• Toggles output on each clock pulse when T=1</text>
    </g>
  </g>

  <!-- JK Master-Slave -->
  <g transform="translate(50, 700)">
    <rect x="0" y="0" width="1100" height="320" fill="url(#msGrad)" rx="10"/>
    <text x="550" y="25" text-anchor="middle" fill="white" font-family="Arial, sans-serif" font-size="18" font-weight="bold">JK MASTER-SLAVE FLIP-FLOP</text>

    <!-- Internal Structure -->
    <g transform="translate(50, 40)">
      <text x="0" y="0" fill="white" font-family="Arial, sans-serif" font-size="14" font-weight="bold">Internal Structure:</text>

      <!-- Master FF -->
      <rect x="100" y="30" width="120" height="80" fill="white" stroke="#333" rx="5"/>
      <text x="160" y="50" text-anchor="middle" fill="#333" font-family="Arial, sans-serif" font-size="14" font-weight="bold">MASTER</text>
      <text x="160" y="85" text-anchor="middle" fill="#333" font-family="Arial, sans-serif" font-size="12">JK FF</text>

      <!-- Slave FF -->
      <rect x="300" y="30" width="120" height="80" fill="white" stroke="#333" rx="5"/>
      <text x="360" y="50" text-anchor="middle" fill="#333" font-family="Arial, sans-serif" font-size="14" font-weight="bold">SLAVE</text>
      <text x="360" y="85" text-anchor="middle" fill="#333" font-family="Arial, sans-serif" font-size="12">JK FF</text>

      <!-- Clock inverter -->
      <circle cx="270" cy="70" r="8" fill="white" stroke="#333"/>
      <text x="270" y="74" text-anchor="middle" fill="#333" font-family="Arial, sans-serif" font-size="10">NOT</text>

      <!-- Input connections -->
      <line x1="20" y1="50" x2="100" y2="50" stroke="white" stroke-width="2"/>
      <text x="15" y="53" fill="white" font-family="Arial, sans-serif" font-size="12">J</text>

      <line x1="20" y1="90" x2="100" y2="90" stroke="white" stroke-width="2"/>
      <text x="15" y="93" fill="white" font-family="Arial, sans-serif" font-size="12">K</text>

      <line x1="20" y1="70" x2="220" y2="70" stroke="white" stroke-width="2"/>
      <text x="15" y="73" fill="white" font-family="Arial, sans-serif" font-size="12">CLK</text>

      <!-- Clock to master -->
      <line x1="160" y1="110" x2="160" y2="130" stroke="white" stroke-width="2"/>
      <line x1="160" y1="130" x2="220" y2="130" stroke="white" stroke-width="2"/>
      <line x1="220" y1="130" x2="220" y2="70" stroke="white" stroke-width="2"/>

      <!-- Inverted clock to slave -->
      <line x1="262" y1="70" x2="250" y2="70" stroke="white" stroke-width="2"/>
      <line x1="250" y1="70" x2="250" y2="140" stroke="white" stroke-width="2"/>
      <line x1="250" y1="140" x2="360" y2="140" stroke="white" stroke-width="2"/>
      <line x1="360" y1="140" x2="360" y2="110" stroke="white" stroke-width="2"/>

      <!-- Master to Slave connection -->
      <line x1="220" y1="50" x2="300" y2="50" stroke="white" stroke-width="2"/>
      <line x1="220" y1="90" x2="300" y2="90" stroke="white" stroke-width="2"/>

      <!-- Output connections -->
      <line x1="420" y1="50" x2="480" y2="50" stroke="white" stroke-width="2"/>
      <text x="485" y="53" fill="white" font-family="Arial, sans-serif" font-size="12">Q</text>

      <line x1="420" y1="90" x2="480" y2="90" stroke="white" stroke-width="2"/>
      <text x="485" y="93" fill="white" font-family="Arial, sans-serif" font-size="12">Q&apos;</text>
    </g>

    <!-- Operation Explanation -->
    <g transform="translate(550, 40)">
      <text x="0" y="0" fill="white" font-family="Arial, sans-serif" font-size="14" font-weight="bold">Operation:</text>

      <text x="0" y="25" fill="white" font-family="Arial, sans-serif" font-size="12" font-weight="bold">Clock HIGH (1):</text>
      <text x="0" y="40" fill="white" font-family="Arial, sans-serif" font-size="11">• Master is enabled</text>
      <text x="0" y="55" fill="white" font-family="Arial, sans-serif" font-size="11">• Slave is disabled (inverted clock = 0)</text>
      <text x="0" y="70" fill="white" font-family="Arial, sans-serif" font-size="11">• Input changes affect master only</text>

      <text x="0" y="95" fill="white" font-family="Arial, sans-serif" font-size="12" font-weight="bold">Clock LOW (0):</text>
      <text x="0" y="110" fill="white" font-family="Arial, sans-serif" font-size="11">• Master is disabled</text>
      <text x="0" y="125" fill="white" font-family="Arial, sans-serif" font-size="11">• Slave is enabled (inverted clock = 1)</text>
      <text x="0" y="140" fill="white" font-family="Arial, sans-serif" font-size="11">• Master output transfers to slave</text>
      <text x="0" y="155" fill="white" font-family="Arial, sans-serif" font-size="11">• Final output appears at Q</text>
    </g>

    <!-- Advantages -->
    <g transform="translate(50, 220)">
      <text x="0" y="0" fill="white" font-family="Arial, sans-serif" font-size="14" font-weight="bold">Advantages of Master-Slave:</text>
      <text x="0" y="20" fill="white" font-family="Arial, sans-serif" font-size="12">• Eliminates race conditions</text>
      <text x="0" y="35" fill="white" font-family="Arial, sans-serif" font-size="12">• Prevents input changes during clock transition</text>
      <text x="0" y="50" fill="white" font-family="Arial, sans-serif" font-size="12">• More reliable than simple edge-triggered FF</text>
      <text x="0" y="65" fill="white" font-family="Arial, sans-serif" font-size="12">• Output changes only on negative clock edge</text>
    </g>

    <!-- Timing Diagram -->
    <g transform="translate(550, 190)">
      <text x="0" y="0" fill="white" font-family="Arial, sans-serif" font-size="14" font-weight="bold">Timing Behavior:</text>

      <!-- Clock -->
      <text x="0" y="25" fill="white" font-family="Arial, sans-serif" font-size="11">CLK</text>
      <path d="M 30 25 L 50 25 L 50 15 L 70 15 L 70 25 L 90 25 L 90 15 L 110 15 L 110 25" stroke="white" stroke-width="2" fill="none"/>

      <!-- J input -->
      <text x="0" y="45" fill="white" font-family="Arial, sans-serif" font-size="11">J</text>
      <path d="M 30 45 L 40 45 L 40 35 L 80 35 L 80 45 L 110 45" stroke="white" stroke-width="2" fill="none"/>

      <!-- Master Q -->
      <text x="0" y="65" fill="white" font-family="Arial, sans-serif" font-size="11">Master Q</text>
      <path d="M 30 65 L 50 65 L 50 55 L 70 55 L 70 65 L 110 65" stroke="white" stroke-width="2" fill="none"/>

      <!-- Final Q -->
      <text x="0" y="85" fill="white" font-family="Arial, sans-serif" font-size="11">Q (Output)</text>
      <path d="M 30 85 L 70 85 L 70 75 L 90 75 L 90 85 L 110 85" stroke="white" stroke-width="2" fill="none"/>
    </g>
  </g>

  <!-- Edge vs Level Triggering -->
  <g transform="translate(50, 1080)">
    <rect x="0" y="0" width="1100" height="480" fill="#1f2937" rx="10"/>
    <text x="550" y="25" text-anchor="middle" fill="white" font-family="Arial, sans-serif" font-size="18" font-weight="bold">EDGE TRIGGERING vs LEVEL TRIGGERING</text>

    <!-- Level Triggering -->
    <g transform="translate(50, 50)">
      <text x="0" y="0" fill="white" font-family="Arial, sans-serif" font-size="16" font-weight="bold">LEVEL TRIGGERING</text>

      <rect x="0" y="20" width="450" height="180" fill="#374151" rx="5"/>

      <text x="20" y="45" fill="white" font-family="Arial, sans-serif" font-size="14" font-weight="bold">Characteristics:</text>
      <text x="20" y="65" fill="white" font-family="Arial, sans-serif" font-size="12">• FF responds to input changes during entire clock level</text>
      <text x="20" y="80" fill="white" font-family="Arial, sans-serif" font-size="12">• Can change multiple times during clock HIGH/LOW</text>
      <text x="20" y="95" fill="white" font-family="Arial, sans-serif" font-size="12">• Transparent when clock is active</text>

      <text x="20" y="120" fill="white" font-family="Arial, sans-serif" font-size="14" font-weight="bold">Problems:</text>
      <text x="20" y="140" fill="white" font-family="Arial, sans-serif" font-size="12">• Race conditions</text>
      <text x="20" y="155" fill="white" font-family="Arial, sans-serif" font-size="12">• Multiple state changes</text>
      <text x="20" y="170" fill="white" font-family="Arial, sans-serif" font-size="12">• Timing hazards</text>
      <text x="20" y="185" fill="white" font-family="Arial, sans-serif" font-size="12">• Less predictable behavior</text>

      <!-- Timing diagram for level triggering -->
      <g transform="translate(20, 220)">
        <text x="0" y="0" fill="white" font-family="Arial, sans-serif" font-size="12" font-weight="bold">Timing Diagram:</text>

        <!-- Clock -->
        <text x="0" y="25" fill="white" font-family="Arial, sans-serif" font-size="10">CLK</text>
        <path d="M 40 25 L 60 25 L 60 15 L 100 15 L 100 25 L 120 25 L 120 15 L 160 15 L 160 25" stroke="white" stroke-width="1.5" fill="none"/>

        <!-- Input -->
        <text x="0" y="45" fill="white" font-family="Arial, sans-serif" font-size="10">Input</text>
        <path d="M 40 45 L 70 45 L 70 35 L 90 35 L 90 45 L 130 45 L 130 35 L 160 35" stroke="white" stroke-width="1.5" fill="none"/>

        <!-- Output -->
        <text x="0" y="65" fill="white" font-family="Arial, sans-serif" font-size="10">Output</text>
        <path d="M 40 65 L 60 65 L 70 55 L 90 55 L 90 65 L 100 65 L 130 55 L 160 55" stroke="red" stroke-width="1.5" fill="none"/>

        <!-- Multiple changes indication -->
        <text x="40" y="85" fill="red" font-family="Arial, sans-serif" font-size="9">Multiple changes during clock HIGH</text>
      </g>
    </g>

    <!-- Edge Triggering -->
    <g transform="translate(600, 50)">
      <text x="0" y="0" fill="white" font-family="Arial, sans-serif" font-size="16" font-weight="bold">EDGE TRIGGERING</text>

      <rect x="0" y="20" width="450" height="180" fill="#374151" rx="5"/>

      <text x="20" y="45" fill="white" font-family="Arial, sans-serif" font-size="14" font-weight="bold">Characteristics:</text>
      <text x="20" y="65" fill="white" font-family="Arial, sans-serif" font-size="12">• FF responds only at clock edge (rising or falling)</text>
      <text x="20" y="80" fill="white" font-family="Arial, sans-serif" font-size="12">• Single state change per clock cycle</text>
      <text x="20" y="95" fill="white" font-family="Arial, sans-serif" font-size="12">• Input sampled only at edge</text>

      <text x="20" y="120" fill="white" font-family="Arial, sans-serif" font-size="14" font-weight="bold">Advantages:</text>
      <text x="20" y="140" fill="white" font-family="Arial, sans-serif" font-size="12">• No race conditions</text>
      <text x="20" y="155" fill="white" font-family="Arial, sans-serif" font-size="12">• Predictable behavior</text>
      <text x="20" y="170" fill="white" font-family="Arial, sans-serif" font-size="12">• Better noise immunity</text>
      <text x="20" y="185" fill="white" font-family="Arial, sans-serif" font-size="12">• Synchronous operation</text>

      <!-- Timing diagram for edge triggering -->
      <g transform="translate(20, 220)">
        <text x="0" y="0" fill="white" font-family="Arial, sans-serif" font-size="12" font-weight="bold">Timing Diagram:</text>

        <!-- Clock -->
        <text x="0" y="25" fill="white" font-family="Arial, sans-serif" font-size="10">CLK</text>
        <path d="M 40 25 L 60 25 L 60 15 L 100 15 L 100 25 L 120 25 L 120 15 L 160 15 L 160 25" stroke="white" stroke-width="1.5" fill="none"/>

        <!-- Input -->
        <text x="0" y="45" fill="white" font-family="Arial, sans-serif" font-size="10">Input</text>
        <path d="M 40 45 L 70 45 L 70 35 L 90 35 L 90 45 L 130 45 L 130 35 L 160 35" stroke="white" stroke-width="1.5" fill="none"/>

        <!-- Output -->
        <text x="0" y="65" fill="white" font-family="Arial, sans-serif" font-size="10">Output</text>
        <path d="M 40 65 L 60 65 L 60 55 L 120 55 L 120 65 L 160 65" stroke="green" stroke-width="1.5" fill="none"/>

        <!-- Edge markers -->
        <line x1="60" y1="10" x2="60" y2="75" stroke="yellow" stroke-width="1" stroke-dasharray="2,2"/>
        <line x1="120" y1="10" x2="120" y2="75" stroke="yellow" stroke-width="1" stroke-dasharray="2,2"/>

        <text x="40" y="85" fill="green" font-family="Arial, sans-serif" font-size="9">Changes only at clock edges</text>
      </g>
    </g>

    <!-- Edge Types -->
    <g transform="translate(150, 350)">
      <text x="0" y="0" fill="white" font-family="Arial, sans-serif" font-size="16" font-weight="bold">TYPES OF EDGE TRIGGERING</text>

      <!-- Positive Edge -->
      <g transform="translate(0, 30)">
        <rect x="0" y="0" width="350" height="80" fill="#374151" rx="5"/>
        <text x="20" y="25" fill="white" font-family="Arial, sans-serif" font-size="14" font-weight="bold">Positive Edge Triggering (↑)</text>
        <text x="20" y="45" fill="white" font-family="Arial, sans-serif" font-size="12">• Responds to LOW-to-HIGH transition</text>
        <text x="20" y="60" fill="white" font-family="Arial, sans-serif" font-size="12">• Most commonly used in digital systems</text>

        <!-- Clock edge symbol -->
        <polygon points="300,35 310,25 310,30 320,30 320,20 330,20 330,40 320,40 320,45 310,45 310,50 300,40" fill="white"/>
      </g>

      <!-- Negative Edge -->
      <g transform="translate(400, 30)">
        <rect x="0" y="0" width="350" height="80" fill="#374151" rx="5"/>
        <text x="20" y="25" fill="white" font-family="Arial, sans-serif" font-size="14" font-weight="bold">Negative Edge Triggering (↓)</text>
        <text x="20" y="45" fill="white" font-family="Arial, sans-serif" font-size="12">• Responds to HIGH-to-LOW transition</text>
        <text x="20" y="60" fill="white" font-family="Arial, sans-serif" font-size="12">• Less common, used in specific applications</text>

        <!-- Clock edge symbol -->
        <polygon points="300,20 310,30 310,25 320,25 320,35 330,35 330,15 320,15 320,20 310,20 310,15 300,25" fill="white"/>
      </g>
    </g>
  </g>
</svg>