<svg width="1200" height="1800" xmlns="http://www.w3.org/2000/svg">
  <defs>
    <linearGradient id="headerGrad" x1="0%" y1="0%" x2="100%" y2="0%">
      <stop offset="0%" style="stop-color:#2563eb;stop-opacity:1" />
      <stop offset="100%" style="stop-color:#1d4ed8;stop-opacity:1" />
    </linearGradient>
    <linearGradient id="classifyGrad" x1="0%" y1="0%" x2="100%" y2="0%">
      <stop offset="0%" style="stop-color:#059669;stop-opacity:1" />
      <stop offset="100%" style="stop-color:#047857;stop-opacity:1" />
    </linearGradient>
    <linearGradient id="sisoGrad" x1="0%" y1="0%" x2="100%" y2="0%">
      <stop offset="0%" style="stop-color:#dc2626;stop-opacity:1" />
      <stop offset="100%" style="stop-color:#b91c1c;stop-opacity:1" />
    </linearGradient>
    <linearGradient id="sipoGrad" x1="0%" y1="0%" x2="100%" y2="0%">
      <stop offset="0%" style="stop-color:#9333ea;stop-opacity:1" />
      <stop offset="100%" style="stop-color:#7c3aed;stop-opacity:1" />
    </linearGradient>
    <linearGradient id="pisoGrad" x1="0%" y1="0%" x2="100%" y2="0%">
      <stop offset="0%" style="stop-color:#ea580c;stop-opacity:1" />
      <stop offset="100%" style="stop-color:#dc2626;stop-opacity:1" />
    </linearGradient>
    <linearGradient id="pipoGrad" x1="0%" y1="0%" x2="100%" y2="0%">
      <stop offset="0%" style="stop-color:#0891b2;stop-opacity:1" />
      <stop offset="100%" style="stop-color:#0e7490;stop-opacity:1" />
    </linearGradient>
  </defs>

  <!-- Background -->
  <rect width="1200" height="1800" fill="#f8fafc"/>

  <!-- Title -->
  <rect x="0" y="0" width="1200" height="60" fill="url(#headerGrad)"/>
  <text x="600" y="35" text-anchor="middle" fill="white" font-family="Arial, sans-serif" font-size="24" font-weight="bold">Shift Registers - Classification and Types</text>

  <!-- Classification -->
  <g transform="translate(50, 80)">
    <rect x="0" y="0" width="1100" height="200" fill="url(#classifyGrad)" rx="10"/>
    <text x="550" y="25" text-anchor="middle" fill="white" font-family="Arial, sans-serif" font-size="18" font-weight="bold">CLASSIFICATION OF SHIFT REGISTERS</text>

    <!-- Classification Tree -->
    <g transform="translate(50, 50)">
      <text x="500" y="0" text-anchor="middle" fill="white" font-family="Arial, sans-serif" font-size="16" font-weight="bold">Based on Data Movement</text>

      <!-- Main branches -->
      <line x1="500" y1="10" x2="500" y2="30" stroke="white" stroke-width="2"/>
      <line x1="200" y1="30" x2="800" y2="30" stroke="white" stroke-width="2"/>

      <!-- Branch lines -->
      <line x1="150" y1="30" x2="150" y2="50" stroke="white" stroke-width="2"/>
      <line x1="350" y1="30" x2="350" y2="50" stroke="white" stroke-width="2"/>
      <line x1="650" y1="30" x2="650" y2="50" stroke="white" stroke-width="2"/>
      <line x1="850" y1="30" x2="850" y2="50" stroke="white" stroke-width="2"/>

      <!-- Classification boxes -->
      <rect x="80" y="60" width="140" height="40" fill="white" rx="5"/>
      <text x="150" y="75" text-anchor="middle" fill="#333" font-family="Arial, sans-serif" font-size="11" font-weight="bold">SISO</text>
      <text x="150" y="88" text-anchor="middle" fill="#333" font-family="Arial, sans-serif" font-size="10">Serial In Serial Out</text>

      <rect x="280" y="60" width="140" height="40" fill="white" rx="5"/>
      <text x="350" y="75" text-anchor="middle" fill="#333" font-family="Arial, sans-serif" font-size="11" font-weight="bold">SIPO</text>
      <text x="350" y="88" text-anchor="middle" fill="#333" font-family="Arial, sans-serif" font-size="10">Serial In Parallel Out</text>

      <rect x="580" y="60" width="140" height="40" fill="white" rx="5"/>
      <text x="650" y="75" text-anchor="middle" fill="#333" font-family="Arial, sans-serif" font-size="11" font-weight="bold">PISO</text>
      <text x="650" y="88" text-anchor="middle" fill="#333" font-family="Arial, sans-serif" font-size="10">Parallel In Serial Out</text>

      <rect x="780" y="60" width="140" height="40" fill="white" rx="5"/>
      <text x="850" y="75" text-anchor="middle" fill="#333" font-family="Arial, sans-serif" font-size="11" font-weight="bold">PIPO</text>
      <text x="850" y="88" text-anchor="middle" fill="#333" font-family="Arial, sans-serif" font-size="10">Parallel In Parallel Out</text>
    </g>

    <!-- Key Features -->
    <g transform="translate(50, 150)">
      <text x="0" y="0" fill="white" font-family="Arial, sans-serif" font-size="14" font-weight="bold">Key Features:</text>
      <text x="0" y="20" fill="white" font-family="Arial, sans-serif" font-size="12">• Sequential logic circuits using flip-flops</text>
      <text x="300" y="20" fill="white" font-family="Arial, sans-serif" font-size="12">• Data movement on clock edges</text>
      <text x="600" y="20" fill="white" font-family="Arial, sans-serif" font-size="12">• Used for data storage and transfer</text>
    </g>
  </g>

  <!-- SISO Shift Register -->
  <g transform="translate(50, 300)">
    <rect x="0" y="0" width="1100" height="320" fill="url(#sisoGrad)" rx="10"/>
    <text x="550" y="25" text-anchor="middle" fill="white" font-family="Arial, sans-serif" font-size="18" font-weight="bold">SERIAL-IN SERIAL-OUT (SISO) SHIFT REGISTER</text>

    <!-- Circuit Diagram -->
    <g transform="translate(50, 50)">
      <text x="0" y="0" fill="white" font-family="Arial, sans-serif" font-size="14" font-weight="bold">4-Bit SISO Circuit:</text>

      <!-- Flip-flops -->
      <rect x="50" y="30" width="60" height="50" fill="white" stroke="#333" rx="5"/>
      <text x="80" y="50" text-anchor="middle" fill="#333" font-family="Arial, sans-serif" font-size="12" font-weight="bold">D</text>
      <text x="80" y="68" text-anchor="middle" fill="#333" font-family="Arial, sans-serif" font-size="10">FF1</text>

      <rect x="160" y="30" width="60" height="50" fill="white" stroke="#333" rx="5"/>
      <text x="190" y="50" text-anchor="middle" fill="#333" font-family="Arial, sans-serif" font-size="12" font-weight="bold">D</text>
      <text x="190" y="68" text-anchor="middle" fill="#333" font-family="Arial, sans-serif" font-size="10">FF2</text>

      <rect x="270" y="30" width="60" height="50" fill="white" stroke="#333" rx="5"/>
      <text x="300" y="50" text-anchor="middle" fill="#333" font-family="Arial, sans-serif" font-size="12" font-weight="bold">D</text>
      <text x="300" y="68" text-anchor="middle" fill="#333" font-family="Arial, sans-serif" font-size="10">FF3</text>

      <rect x="380" y="30" width="60" height="50" fill="white" stroke="#333" rx="5"/>
      <text x="410" y="50" text-anchor="middle" fill="#333" font-family="Arial, sans-serif" font-size="12" font-weight="bold">D</text>
      <text x="410" y="68" text-anchor="middle" fill="#333" font-family="Arial, sans-serif" font-size="10">FF4</text>

      <!-- Input connections -->
      <line x1="10" y1="45" x2="50" y2="45" stroke="white" stroke-width="2"/>
      <text x="5" y="48" fill="white" font-family="Arial, sans-serif" font-size="12">Serial In</text>

      <!-- Inter-connections -->
      <line x1="110" y1="45" x2="160" y2="45" stroke="white" stroke-width="2"/>
      <line x1="220" y1="45" x2="270" y2="45" stroke="white" stroke-width="2"/>
      <line x1="330" y1="45" x2="380" y2="45" stroke="white" stroke-width="2"/>

      <!-- Output -->
      <line x1="440" y1="45" x2="480" y2="45" stroke="white" stroke-width="2"/>
      <text x="485" y="48" fill="white" font-family="Arial, sans-serif" font-size="12">Serial Out</text>

      <!-- Clock connections -->
      <line x1="30" y1="100" x2="450" y2="100" stroke="white" stroke-width="2"/>
      <line x1="80" y1="80" x2="80" y2="100" stroke="white" stroke-width="2"/>
      <line x1="190" y1="80" x2="190" y2="100" stroke="white" stroke-width="2"/>
      <line x1="300" y1="80" x2="300" y2="100" stroke="white" stroke-width="2"/>
      <line x1="410" y1="80" x2="410" y2="100" stroke="white" stroke-width="2"/>

      <text x="10" y="103" fill="white" font-family="Arial, sans-serif" font-size="12">CLK</text>

      <!-- Clock symbols -->
      <polygon points="75,75 80,80 75,85" fill="white"/>
      <polygon points="185,75 190,80 185,85" fill="white"/>
      <polygon points="295,75 300,80 295,85" fill="white"/>
      <polygon points="405,75 410,80 405,85" fill="white"/>
    </g>

    <!-- Timing Diagram -->
    <g transform="translate(550, 50)">
      <text x="0" y="0" fill="white" font-family="Arial, sans-serif" font-size="14" font-weight="bold">Timing Diagram:</text>

      <!-- Clock -->
      <text x="0" y="25" fill="white" font-family="Arial, sans-serif" font-size="11">CLK</text>
      <path d="M 40 25 L 50 25 L 50 15 L 60 15 L 60 25 L 70 25 L 70 15 L 80 15 L 80 25 L 90 25 L 90 15 L 100 15 L 100 25 L 110 25 L 110 15 L 120 15 L 120 25" stroke="white" stroke-width="1.5" fill="none"/>

      <!-- Serial Input -->
      <text x="0" y="45" fill="white" font-family="Arial, sans-serif" font-size="11">Serial In</text>
      <path d="M 40 45 L 50 45 L 50 35 L 60 35 L 60 45 L 70 45 L 70 35 L 80 35 L 80 45 L 120 45" stroke="white" stroke-width="1.5" fill="none"/>
      <text x="45" y="52" fill="white" font-family="Arial, sans-serif" font-size="9">1</text>
      <text x="55" y="52" fill="white" font-family="Arial, sans-serif" font-size="9">0</text>
      <text x="65" y="52" fill="white" font-family="Arial, sans-serif" font-size="9">1</text>
      <text x="75" y="52" fill="white" font-family="Arial, sans-serif" font-size="9">1</text>

      <!-- Q1 -->
      <text x="0" y="65" fill="white" font-family="Arial, sans-serif" font-size="11">Q1</text>
      <path d="M 40 75 L 50 75 L 50 65 L 60 65 L 60 75 L 70 75 L 70 65 L 80 65 L 80 75 L 90 75 L 90 65 L 120 65" stroke="white" stroke-width="1.5" fill="none"/>

      <!-- Q2 -->
      <text x="0" y="85" fill="white" font-family="Arial, sans-serif" font-size="11">Q2</text>
      <path d="M 40 95 L 60 95 L 60 85 L 70 85 L 70 95 L 80 95 L 80 85 L 90 85 L 90 95 L 120 95" stroke="white" stroke-width="1.5" fill="none"/>

      <!-- Q3 -->
      <text x="0" y="105" fill="white" font-family="Arial, sans-serif" font-size="11">Q3</text>
      <path d="M 40 115 L 70 115 L 70 105 L 80 105 L 80 115 L 90 115 L 90 105 L 120 105" stroke="white" stroke-width="1.5" fill="none"/>

      <!-- Q4 (Serial Out) -->
      <text x="0" y="125" fill="white" font-family="Arial, sans-serif" font-size="11">Q4 (Out)</text>
      <path d="M 40 135 L 80 135 L 80 125 L 90 125 L 90 135 L 120 135" stroke="white" stroke-width="1.5" fill="none"/>
    </g>

    <!-- Operation Description -->
    <g transform="translate(50, 200)">
      <text x="0" y="0" fill="white" font-family="Arial, sans-serif" font-size="14" font-weight="bold">Operation:</text>
      <text x="0" y="20" fill="white" font-family="Arial, sans-serif" font-size="12">• Data enters serially at the input</text>
      <text x="0" y="35" fill="white" font-family="Arial, sans-serif" font-size="12">• Each clock pulse shifts data one position right</text>
      <text x="0" y="50" fill="white" font-family="Arial, sans-serif" font-size="12">• Data emerges serially after n clock pulses (n = register length)</text>
      <text x="0" y="65" fill="white" font-family="Arial, sans-serif" font-size="12">• Used for data transmission and temporary storage</text>
      <text x="0" y="80" fill="white" font-family="Arial, sans-serif" font-size="12">• Example: Input 1011 → Takes 4 clocks to appear at output</text>
    </g>
  </g>

  <!-- SIPO Shift Register -->
  <g transform="translate(50, 640)">
    <rect x="0" y="0" width="1100" height="320" fill="url(#sipoGrad)" rx="10"/>
    <text x="550" y="25" text-anchor="middle" fill="white" font-family="Arial, sans-serif" font-size="18" font-weight="bold">SERIAL-IN PARALLEL-OUT (SIPO) SHIFT REGISTER</text>

    <!-- Circuit Diagram -->
    <g transform="translate(50, 50)">
      <text x="0" y="0" fill="white" font-family="Arial, sans-serif" font-size="14" font-weight="bold">4-Bit SIPO Circuit:</text>

      <!-- Flip-flops -->
      <rect x="50" y="30" width="60" height="50" fill="white" stroke="#333" rx="5"/>
      <text x="80" y="50" text-anchor="middle" fill="#333" font-family="Arial, sans-serif" font-size="12" font-weight="bold">D</text>
      <text x="80" y="68" text-anchor="middle" fill="#333" font-family="Arial, sans-serif" font-size="10">FF1</text>

      <rect x="160" y="30" width="60" height="50" fill="white" stroke="#333" rx="5"/>
      <text x="190" y="50" text-anchor="middle" fill="#333" font-family="Arial, sans-serif" font-size="12" font-weight="bold">D</text>
      <text x="190" y="68" text-anchor="middle" fill="#333" font-family="Arial, sans-serif" font-size="10">FF2</text>

      <rect x="270" y="30" width="60" height="50" fill="white" stroke="#333" rx="5"/>
      <text x="300" y="50" text-anchor="middle" fill="#333" font-family="Arial, sans-serif" font-size="12" font-weight="bold">D</text>
      <text x="300" y="68" text-anchor="middle" fill="#333" font-family="Arial, sans-serif" font-size="10">FF3</text>

      <rect x="380" y="30" width="60" height="50" fill="white" stroke="#333" rx="5"/>
      <text x="410" y="50" text-anchor="middle" fill="#333" font-family="Arial, sans-serif" font-size="12" font-weight="bold">D</text>
      <text x="410" y="68" text-anchor="middle" fill="#333" font-family="Arial, sans-serif" font-size="10">FF4</text>

      <!-- Input connections -->
      <line x1="10" y1="45" x2="50" y2="45" stroke="white" stroke-width="2"/>
      <text x="5" y="48" fill="white" font-family="Arial, sans-serif" font-size="12">Serial In</text>

      <!-- Inter-connections -->
      <line x1="110" y1="45" x2="160" y2="45" stroke="white" stroke-width="2"/>
      <line x1="220" y1="45" x2="270" y2="45" stroke="white" stroke-width="2"/>
      <line x1="330" y1="45" x2="380" y2="45" stroke="white" stroke-width="2"/>

      <!-- Parallel Outputs -->
      <line x1="80" y1="30" x2="80" y2="10" stroke="white" stroke-width="2"/>
      <text x="76" y="7" fill="white" font-family="Arial, sans-serif" font-size="11">Q1</text>

      <line x1="190" y1="30" x2="190" y2="10" stroke="white" stroke-width="2"/>
      <text x="186" y="7" fill="white" font-family="Arial, sans-serif" font-size="11">Q2</text>

      <line x1="300" y1="30" x2="300" y2="10" stroke="white" stroke-width="2"/>
      <text x="296" y="7" fill="white" font-family="Arial, sans-serif" font-size="11">Q3</text>

      <line x1="410" y1="30" x2="410" y2="10" stroke="white" stroke-width="2"/>
      <text x="406" y="7" fill="white" font-family="Arial, sans-serif" font-size="11">Q4</text>

      <!-- Clock connections -->
      <line x1="30" y1="100" x2="450" y2="100" stroke="white" stroke-width="2"/>
      <line x1="80" y1="80" x2="80" y2="100" stroke="white" stroke-width="2"/>
      <line x1="190" y1="80" x2="190" y2="100" stroke="white" stroke-width="2"/>
      <line x1="300" y1="80" x2="300" y2="100" stroke="white" stroke-width="2"/>
      <line x1="410" y1="80" x2="410" y2="100" stroke="white" stroke-width="2"/>

      <text x="10" y="103" fill="white" font-family="Arial, sans-serif" font-size="12">CLK</text>

      <!-- Clock symbols -->
      <polygon points="75,75 80,80 75,85" fill="white"/>
      <polygon points="185,75 190,80 185,85" fill="white"/>
      <polygon points="295,75 300,80 295,85" fill="white"/>
      <polygon points="405,75 410,80 405,85" fill="white"/>

      <!-- Parallel output indication -->
      <rect x="60" y="-10" width="380" height="15" fill="none" stroke="white" stroke-width="2" stroke-dasharray="5,5"/>
      <text x="250" y="-15" text-anchor="middle" fill="white" font-family="Arial, sans-serif" font-size="12" font-weight="bold">Parallel Output Data</text>
    </g>

    <!-- Data Flow Example -->
    <g transform="translate(550, 50)">
      <text x="0" y="0" fill="white" font-family="Arial, sans-serif" font-size="14" font-weight="bold">Data Flow Example:</text>

      <rect x="0" y="20" width="400" height="120" fill="#4c1d95" rx="5"/>

      <text x="20" y="40" fill="white" font-family="Arial, sans-serif" font-size="12" font-weight="bold">Input Sequence: 1011</text>

      <text x="20" y="60" fill="white" font-family="Arial, sans-serif" font-size="11">Clock 1: Input=1 → Q1=1, Q2=0, Q3=0, Q4=0</text>
      <text x="20" y="75" fill="white" font-family="Arial, sans-serif" font-size="11">Clock 2: Input=0 → Q1=0, Q2=1, Q3=0, Q4=0</text>
      <text x="20" y="90" fill="white" font-family="Arial, sans-serif" font-size="11">Clock 3: Input=1 → Q1=1, Q2=0, Q3=1, Q4=0</text>
      <text x="20" y="105" fill="white" font-family="Arial, sans-serif" font-size="11">Clock 4: Input=1 → Q1=1, Q2=1, Q3=0, Q4=1</text>

      <text x="20" y="125" fill="white" font-family="Arial, sans-serif" font-size="12" font-weight="bold">Final Parallel Output: 1101 (reversed)</text>
    </g>

    <!-- Applications -->
    <g transform="translate(50, 200)">
      <text x="0" y="0" fill="white" font-family="Arial, sans-serif" font-size="14" font-weight="bold">Applications:</text>
      <text x="0" y="20" fill="white" font-family="Arial, sans-serif" font-size="12">• Serial-to-parallel data conversion</text>
      <text x="0" y="35" fill="white" font-family="Arial, sans-serif" font-size="12">• UART receivers</text>
      <text x="0" y="50" fill="white" font-family="Arial, sans-serif" font-size="12">• SPI data reception</text>
      <text x="0" y="65" fill="white" font-family="Arial, sans-serif" font-size="12">• Data deserialization</text>
      <text x="0" y="80" fill="white" font-family="Arial, sans-serif" font-size="12">• Communication interface circuits</text>
    </g>
  </g>

  <!-- PISO Shift Register -->
  <g transform="translate(50, 980)">
    <rect x="0" y="0" width="1100" height="320" fill="url(#pisoGrad)" rx="10"/>
    <text x="550" y="25" text-anchor="middle" fill="white" font-family="Arial, sans-serif" font-size="18" font-weight="bold">PARALLEL-IN SERIAL-OUT (PISO) SHIFT REGISTER</text>

    <!-- Circuit Diagram -->
    <g transform="translate(50, 50)">
      <text x="0" y="0" fill="white" font-family="Arial, sans-serif" font-size="14" font-weight="bold">4-Bit PISO Circuit with Control:</text>

      <!-- Flip-flops -->
      <rect x="80" y="50" width="60" height="50" fill="white" stroke="#333" rx="5"/>
      <text x="110" y="70" text-anchor="middle" fill="#333" font-family="Arial, sans-serif" font-size="12" font-weight="bold">D</text>
      <text x="110" y="88" text-anchor="middle" fill="#333" font-family="Arial, sans-serif" font-size="10">FF1</text>

      <rect x="180" y="50" width="60" height="50" fill="white" stroke="#333" rx="5"/>
      <text x="210" y="70" text-anchor="middle" fill="#333" font-family="Arial, sans-serif" font-size="12" font-weight="bold">D</text>
      <text x="210" y="88" text-anchor="middle" fill="#333" font-family="Arial, sans-serif" font-size="10">FF2</text>

      <rect x="280" y="50" width="60" height="50" fill="white" stroke="#333" rx="5"/>
      <text x="310" y="70" text-anchor="middle" fill="#333" font-family="Arial, sans-serif" font-size="12" font-weight="bold">D</text>
      <text x="310" y="88" text-anchor="middle" fill="#333" font-family="Arial, sans-serif" font-size="10">FF3</text>

      <rect x="380" y="50" width="60" height="50" fill="white" stroke="#333" rx="5"/>
      <text x="410" y="70" text-anchor="middle" fill="#333" font-family="Arial, sans-serif" font-size="12" font-weight="bold">D</text>
      <text x="410" y="88" text-anchor="middle" fill="#333" font-family="Arial, sans-serif" font-size="10">FF4</text>

      <!-- Multiplexers for Load/Shift control -->
      <rect x="60" y="15" width="30" height="25" fill="#e5e7eb" stroke="#333" rx="3"/>
      <text x="75" y="30" text-anchor="middle" fill="#333" font-family="Arial, sans-serif" font-size="8">MUX</text>

      <rect x="160" y="15" width="30" height="25" fill="#e5e7eb" stroke="#333" rx="3"/>
      <text x="175" y="30" text-anchor="middle" fill="#333" font-family="Arial, sans-serif" font-size="8">MUX</text>

      <rect x="260" y="15" width="30" height="25" fill="#e5e7eb" stroke="#333" rx="3"/>
      <text x="275" y="30" text-anchor="middle" fill="#333" font-family="Arial, sans-serif" font-size="8">MUX</text>

      <rect x="360" y="15" width="30" height="25" fill="#e5e7eb" stroke="#333" rx="3"/>
      <text x="375" y="30" text-anchor="middle" fill="#333" font-family="Arial, sans-serif" font-size="8">MUX</text>

      <!-- Parallel Inputs -->
      <line x1="20" y1="20" x2="60" y2="20" stroke="white" stroke-width="2"/>
      <text x="15" y="23" fill="white" font-family="Arial, sans-serif" font-size="11">P1</text>

      <line x1="120" y1="20" x2="160" y2="20" stroke="white" stroke-width="2"/>
      <text x="115" y="23" fill="white" font-family="Arial, sans-serif" font-size="11">P2</text>

      <line x1="220" y1="20" x2="260" y2="20" stroke="white" stroke-width="2"/>
      <text x="215" y="23" fill="white" font-family="Arial, sans-serif" font-size="11">P3</text>

      <line x1="320" y1="20" x2="360" y2="20" stroke="white" stroke-width="2"/>
      <text x="315" y="23" fill="white" font-family="Arial, sans-serif" font-size="11">P4</text>

      <!-- MUX to FF connections -->
      <line x1="75" y1="40" x2="75" y2="50" stroke="white" stroke-width="1"/>
      <line x1="75" y1="50" x2="80" y2="50" stroke="white" stroke-width="1"/>
      <line x1="80" y1="50" x2="80" y2="65" stroke="white" stroke-width="1"/>

      <line x1="175" y1="40" x2="175" y2="50" stroke="white" stroke-width="1"/>
      <line x1="175" y1="50" x2="180" y2="50" stroke="white" stroke-width="1"/>
      <line x1="180" y1="50" x2="180" y2="65" stroke="white" stroke-width="1"/>

      <line x1="275" y1="40" x2="275" y2="50" stroke="white" stroke-width="1"/>
      <line x1="275" y1="50" x2="280" y2="50" stroke="white" stroke-width="1"/>
      <line x1="280" y1="50" x2="280" y2="65" stroke="white" stroke-width="1"/>

      <line x1="375" y1="40" x2="375" y2="50" stroke="white" stroke-width="1"/>
      <line x1="375" y1="50" x2="380" y2="50" stroke="white" stroke-width="1"/>
      <line x1="380" y1="50" x2="380" y2="65" stroke="white" stroke-width="1"/>

      <!-- Shift connections -->
      <line x1="140" y1="65" x2="160" y2="30" stroke="white" stroke-width="1"/>
      <line x1="240" y1="65" x2="260" y2="30" stroke="white" stroke-width="1"/>
      <line x1="340" y1="65" x2="360" y2="30" stroke="white" stroke-width="1"/>

      <!-- Serial Output -->
      <line x1="440" y1="65" x2="480" y2="65" stroke="white" stroke-width="2"/>
      <text x="485" y="68" fill="white" font-family="Arial, sans-serif" font-size="12">Serial Out</text>

      <!-- Load/Shift control -->
      <line x1="20" y1="120" x2="450" y2="120" stroke="white" stroke-width="2"/>
      <text x="15" y="123" fill="white" font-family="Arial, sans-serif" font-size="11">LOAD/SHIFT</text>

      <!-- Control to MUX -->
      <line x1="75" y1="40" x2="75" y2="120" stroke="white" stroke-width="1"/>
      <line x1="175" y1="40" x2="175" y2="120" stroke="white" stroke-width="1"/>
      <line x1="275" y1="40" x2="275" y2="120" stroke="white" stroke-width="1"/>
      <line x1="375" y1="40" x2="375" y2="120" stroke="white" stroke-width="1"/>

      <!-- Clock connections -->
      <line x1="50" y1="140" x2="450" y2="140" stroke="white" stroke-width="2"/>
      <line x1="110" y1="100" x2="110" y2="140" stroke="white" stroke-width="2"/>
      <line x1="210" y1="100" x2="210" y2="140" stroke="white" stroke-width="2"/>
      <line x1="310" y1="100" x2="310" y2="140" stroke="white" stroke-width="2"/>
      <line x1="410" y1="100" x2="410" y2="140" stroke="white" stroke-width="2"/>

      <text x="30" y="143" fill="white" font-family="Arial, sans-serif" font-size="12">CLK</text>

      <!-- Clock symbols -->
      <polygon points="105,95 110,100 105,105" fill="white"/>
      <polygon points="205,95 210,100 205,105" fill="white"/>
      <polygon points="305,95 310,100 305,105" fill="white"/>
      <polygon points="405,95 410,100 405,105" fill="white"/>
    </g>

    <!-- Operation Modes -->
    <g transform="translate(550, 50)">
      <text x="0" y="0" fill="white" font-family="Arial, sans-serif" font-size="14" font-weight="bold">Operation Modes:</text>

      <rect x="0" y="20" width="450" height="120" fill="#7c2d12" rx="5"/>

      <text x="20" y="40" fill="white" font-family="Arial, sans-serif" font-size="12" font-weight="bold">LOAD Mode (LOAD/SHIFT = 1):</text>
      <text x="20" y="55" fill="white" font-family="Arial, sans-serif" font-size="11">• MUX selects parallel inputs</text>
      <text x="20" y="70" fill="white" font-family="Arial, sans-serif" font-size="11">• All flip-flops load parallel data simultaneously</text>

      <text x="20" y="90" fill="white" font-family="Arial, sans-serif" font-size="12" font-weight="bold">SHIFT Mode (LOAD/SHIFT = 0):</text>
      <text x="20" y="105" fill="white" font-family="Arial, sans-serif" font-size="11">• MUX selects previous stage output</text>
      <text x="20" y="120" fill="white" font-family="Arial, sans-serif" font-size="11">• Data shifts right on each clock pulse</text>
      <text x="20" y="135" fill="white" font-family="Arial, sans-serif" font-size="11">• Serial output appears at rightmost FF</text>
    </g>

    <!-- Applications -->
    <g transform="translate(50, 220)">
      <text x="0" y="0" fill="white" font-family="Arial, sans-serif" font-size="14" font-weight="bold">Applications:</text>
      <text x="0" y="20" fill="white" font-family="Arial, sans-serif" font-size="12">• Parallel-to-serial data conversion</text>
      <text x="0" y="35" fill="white" font-family="Arial, sans-serif" font-size="12">• UART transmitters</text>
      <text x="0" y="50" fill="white" font-family="Arial, sans-serif" font-size="12">• SPI data transmission</text>
      <text x="0" y="65" fill="white" font-family="Arial, sans-serif" font-size="12">• Data serialization</text>
      <text x="0" y="80" fill="white" font-family="Arial, sans-serif" font-size="12">• Microprocessor output interfaces</text>
    </g>
  </g>

  <!-- PIPO Shift Register -->
  <g transform="translate(50, 1320)">
    <rect x="0" y="0" width="1100" height="280" fill="url(#pipoGrad)" rx="10"/>
    <text x="550" y="25" text-anchor="middle" fill="white" font-family="Arial, sans-serif" font-size="18" font-weight="bold">PARALLEL-IN PARALLEL-OUT (PIPO) SHIFT REGISTER</text>

    <!-- Circuit Diagram -->
    <g transform="translate(50, 50)">
      <text x="0" y="0" fill="white" font-family="Arial, sans-serif" font-size="14" font-weight="bold">4-Bit PIPO Circuit:</text>

      <!-- Flip-flops -->
      <rect x="100" y="50" width="60" height="50" fill="white" stroke="#333" rx="5"/>
      <text x="130" y="70" text-anchor="middle" fill="#333" font-family="Arial, sans-serif" font-size="12" font-weight="bold">D</text>
      <text x="130" y="88" text-anchor="middle" fill="#333" font-family="Arial, sans-serif" font-size="10">FF1</text>

      <rect x="200" y="50" width="60" height="50" fill="white" stroke="#333" rx="5"/>
      <text x="230" y="70" text-anchor="middle" fill="#333" font-family="Arial, sans-serif" font-size="12" font-weight="bold">D</text>
      <text x="230" y="88" text-anchor="middle" fill="#333" font-family="Arial, sans-serif" font-size="10">FF2</text>

      <rect x="300" y="50" width="60" height="50" fill="white" stroke="#333" rx="5"/>
      <text x="330" y="70" text-anchor="middle" fill="#333" font-family="Arial, sans-serif" font-size="12" font-weight="bold">D</text>
      <text x="330" y="88" text-anchor="middle" fill="#333" font-family="Arial, sans-serif" font-size="10">FF3</text>

      <rect x="400" y="50" width="60" height="50" fill="white" stroke="#333" rx="5"/>
      <text x="430" y="70" text-anchor="middle" fill="#333" font-family="Arial, sans-serif" font-size="12" font-weight="bold">D</text>
      <text x="430" y="88" text-anchor="middle" fill="#333" font-family="Arial, sans-serif" font-size="10">FF4</text>

      <!-- Parallel Inputs -->
      <line x1="130" y1="20" x2="130" y2="50" stroke="white" stroke-width="2"/>
      <text x="126" y="17" fill="white" font-family="Arial, sans-serif" font-size="11">D1</text>

      <line x1="230" y1="20" x2="230" y2="50" stroke="white" stroke-width="2"/>
      <text x="226" y="17" fill="white" font-family="Arial, sans-serif" font-size="11">D2</text>

      <line x1="330" y1="20" x2="330" y2="50" stroke="white" stroke-width="2"/>
      <text x="326" y="17" fill="white" font-family="Arial, sans-serif" font-size="11">D3</text>

      <line x1="430" y1="20" x2="430" y2="50" stroke="white" stroke-width="2"/>
      <text x="426" y="17" fill="white" font-family="Arial, sans-serif" font-size="11">D4</text>

      <!-- Parallel Outputs -->
      <line x1="130" y1="100" x2="130" y2="130" stroke="white" stroke-width="2"/>
      <text x="126" y="143" fill="white" font-family="Arial, sans-serif" font-size="11">Q1</text>

      <line x1="230" y1="100" x2="230" y2="130" stroke="white" stroke-width="2"/>
      <text x="226" y="143" fill="white" font-family="Arial, sans-serif" font-size="11">Q2</text>

      <line x1="330" y1="100" x2="330" y2="130" stroke="white" stroke-width="2"/>
      <text x="326" y="143" fill="white" font-family="Arial, sans-serif" font-size="11">Q3</text>

      <line x1="430" y1="100" x2="430" y2="130" stroke="white" stroke-width="2"/>
      <text x="426" y="143" fill="white" font-family="Arial, sans-serif" font-size="11">Q4</text>

      <!-- Clock connections -->
      <line x1="70" y1="160" x2="470" y2="160" stroke="white" stroke-width="2"/>
      <line x1="130" y1="100" x2="130" y2="160" stroke="white" stroke-width="2"/>
      <line x1="230" y1="100" x2="230" y2="160" stroke="white" stroke-width="2"/>
      <line x1="330" y1="100" x2="330" y2="160" stroke="white" stroke-width="2"/>
      <line x1="430" y1="100" x2="430" y2="160" stroke="white" stroke-width="2"/>

      <text x="50" y="163" fill="white" font-family="Arial, sans-serif" font-size="12">CLK</text>

      <!-- Clock symbols -->
      <polygon points="125,95 130,100 125,105" fill="white"/>
      <polygon points="225,95 230,100 225,105" fill="white"/>
      <polygon points="325,95 330,100 325,105" fill="white"/>
      <polygon points="425,95 430,100 425,105" fill="white"/>

      <!-- Input/Output indication -->
      <rect x="110" y="10" width="370" height="15" fill="none" stroke="white" stroke-width="2" stroke-dasharray="5,5"/>
      <text x="295" y="5" text-anchor="middle" fill="white" font-family="Arial, sans-serif" font-size="12" font-weight="bold">Parallel Input Data</text>

      <rect x="110" y="140" width="370" height="15" fill="none" stroke="white" stroke-width="2" stroke-dasharray="5,5"/>
      <text x="295" y="175" text-anchor="middle" fill="white" font-family="Arial, sans-serif" font-size="12" font-weight="bold">Parallel Output Data</text>
    </g>

    <!-- Features and Applications -->
    <g transform="translate(550, 50)">
      <text x="0" y="0" fill="white" font-family="Arial, sans-serif" font-size="14" font-weight="bold">Features &amp; Applications:</text>

      <rect x="0" y="20" width="450" height="160" fill="#155e75" rx="5"/>

      <text x="20" y="40" fill="white" font-family="Arial, sans-serif" font-size="12" font-weight="bold">Characteristics:</text>
      <text x="20" y="55" fill="white" font-family="Arial, sans-serif" font-size="11">• Data loaded and read in parallel</text>
      <text x="20" y="70" fill="white" font-family="Arial, sans-serif" font-size="11">• Fastest data transfer mode</text>
      <text x="20" y="85" fill="white" font-family="Arial, sans-serif" font-size="11">• All bits available simultaneously</text>

      <text x="20" y="105" fill="white" font-family="Arial, sans-serif" font-size="12" font-weight="bold">Applications:</text>
      <text x="20" y="120" fill="white" font-family="Arial, sans-serif" font-size="11">• Temporary data storage (buffer)</text>
      <text x="20" y="135" fill="white" font-family="Arial, sans-serif" font-size="11">• Data synchronization</text>
      <text x="20" y="150" fill="white" font-family="Arial, sans-serif" font-size="11">• Memory interface circuits</text>
      <text x="20" y="165" fill="white" font-family="Arial, sans-serif" font-size="11">• Microprocessor data buses</text>
    </g>
  </g>

  <!-- Summary Section -->
  <g transform="translate(50, 1620)">
    <rect x="0" y="0" width="1100" height="150" fill="#1f2937" rx="10"/>
    <text x="550" y="25" text-anchor="middle" fill="white" font-family="Arial, sans-serif" font-size="18" font-weight="bold">SHIFT REGISTER COMPARISON SUMMARY</text>

    <g transform="translate(50, 50)">
      <!-- Comparison Table -->
      <rect x="0" y="0" width="1000" height="80" fill="white" stroke="#333"/>

      <!-- Headers -->
      <rect x="0" y="0" width="200" height="20" fill="#333"/>
      <text x="100" y="15" text-anchor="middle" fill="white" font-family="Arial, sans-serif" font-size="11" font-weight="bold">Type</text>

      <rect x="200" y="0" width="200" height="20" fill="#333"/>
      <text x="300" y="15" text-anchor="middle" fill="white" font-family="Arial, sans-serif" font-size="11" font-weight="bold">Input Method</text>

      <rect x="400" y="0" width="200" height="20" fill="#333"/>
      <text x="500" y="15" text-anchor="middle" fill="white" font-family="Arial, sans-serif" font-size="11" font-weight="bold">Output Method</text>

      <rect x="600" y="0" width="200" height="20" fill="#333"/>
      <text x="700" y="15" text-anchor="middle" fill="white" font-family="Arial, sans-serif" font-size="11" font-weight="bold">Speed</text>

      <rect x="800" y="0" width="200" height="20" fill="#333"/>
      <text x="900" y="15" text-anchor="middle" fill="white" font-family="Arial, sans-serif" font-size="11" font-weight="bold">Primary Use</text>

      <!-- SISO Row -->
      <text x="100" y="35" text-anchor="middle" fill="#333" font-family="Arial, sans-serif" font-size="10">SISO</text>
      <text x="300" y="35" text-anchor="middle" fill="#333" font-family="Arial, sans-serif" font-size="10">Serial (bit by bit)</text>
      <text x="500" y="35" text-anchor="middle" fill="#333" font-family="Arial, sans-serif" font-size="10">Serial (bit by bit)</text>
      <text x="700" y="35" text-anchor="middle" fill="#333" font-family="Arial, sans-serif" font-size="10">Slow</text>
      <text x="900" y="35" text-anchor="middle" fill="#333" font-family="Arial, sans-serif" font-size="10">Delay, Storage</text>

      <!-- SIPO Row -->
      <text x="100" y="50" text-anchor="middle" fill="#333" font-family="Arial, sans-serif" font-size="10">SIPO</text>
      <text x="300" y="50" text-anchor="middle" fill="#333" font-family="Arial, sans-serif" font-size="10">Serial (bit by bit)</text>
      <text x="500" y="50" text-anchor="middle" fill="#333" font-family="Arial, sans-serif" font-size="10">Parallel (all bits)</text>
      <text x="700" y="50" text-anchor="middle" fill="#333" font-family="Arial, sans-serif" font-size="10">Medium</text>
      <text x="900" y="50" text-anchor="middle" fill="#333" font-family="Arial, sans-serif" font-size="10">Serial-to-Parallel</text>

      <!-- PISO Row -->
      <text x="100" y="65" text-anchor="middle" fill="#333" font-family="Arial, sans-serif" font-size="10">PISO</text>
      <text x="300" y="65" text-anchor="middle" fill="#333" font-family="Arial, sans-serif" font-size="10">Parallel (all bits)</text>
      <text x="500" y="65" text-anchor="middle" fill="#333" font-family="Arial, sans-serif" font-size="10">Serial (bit by bit)</text>
      <text x="700" y="65" text-anchor="middle" fill="#333" font-family="Arial, sans-serif" font-size="10">Medium</text>
      <text x="900" y="65" text-anchor="middle" fill="#333" font-family="Arial, sans-serif" font-size="10">Parallel-to-Serial</text>

      <!-- PIPO Row -->
      <text x="100" y="80" text-anchor="middle" fill="#333" font-family="Arial, sans-serif" font-size="10">PIPO</text>
      <text x="300" y="80" text-anchor="middle" fill="#333" font-family="Arial, sans-serif" font-size="10">Parallel (all bits)</text>
      <text x="500" y="80" text-anchor="middle" fill="#333" font-family="Arial, sans-serif" font-size="10">Parallel (all bits)</text>
      <text x="700" y="80" text-anchor="middle" fill="#333" font-family="Arial, sans-serif" font-size="10">Fast</text>
      <text x="900" y="80" text-anchor="middle" fill="#333" font-family="Arial, sans-serif" font-size="10">Storage, Buffer</text>
    </g>
  </g>
</svg>