<?xml version="1.0" encoding="UTF-8"?>
<svg xmlns="http://www.w3.org/2000/svg" viewBox="0 0 1400 1100">
  <defs>
    <style>
      .title { font: bold 24px Arial; text-anchor: middle; fill: #2c3e50; }
      .subtitle { font: bold 18px Arial; text-anchor: middle; fill: #34495e; }
      .label { font: 14px Arial; text-anchor: middle; fill: #2c3e50; }
      .formula { font: 12px Arial; text-anchor: middle; fill: #e74c3c; }
      .text { font: 11px Arial; fill: #2c3e50; }
      .circuit { stroke: #2c3e50; stroke-width: 2; fill: none; }
      .component { stroke: #2c3e50; stroke-width: 2; fill: white; }
      .ic-tester { stroke: #3498db; stroke-width: 2; fill: #e8f4fd; }
      .test-logic { stroke: #27ae60; stroke-width: 2; fill: #e8f6f3; }
      .control { stroke: #e67e22; stroke-width: 2; fill: #fdf2e9; }
      .display { stroke: #9b59b6; stroke-width: 2; fill: #f4f6ff; }
      .memory { stroke: #e74c3c; stroke-width: 2; fill: #fff5f5; }
      .interface { stroke: #f39c12; stroke-width: 2; fill: #fffef7; }
      .pin { stroke: #2c3e50; stroke-width: 1; fill: #ecf0f1; }
      .pass { stroke: #27ae60; stroke-width: 2; fill: #d4edda; }
      .fail { stroke: #e74c3c; stroke-width: 2; fill: #f8d7da; }
    </style>
    <marker id="arrow" markerWidth="10" markerHeight="7" refX="9" refY="3.5" orient="auto">
      <polygon points="0 0, 10 3.5, 0 7" fill="#2c3e50"/>
    </marker>
  </defs>

  <!-- Title -->
  <text x="700" y="30" class="title">Digital IC Tester</text>
  <text x="700" y="55" class="subtitle">Automated Testing System for TTL, CMOS, and Logic ICs</text>

  <!-- IC Tester Block Diagram -->
  <g transform="translate(50, 80)">
    <text x="650" y="20" class="subtitle">Digital IC Tester Block Diagram</text>

    <g transform="translate(20, 40)">
      <rect x="0" y="0" width="1260" height="220" class="ic-tester"/>

      <!-- Test Socket -->
      <g transform="translate(50, 30)">
        <rect x="0" y="0" width="80" height="60" class="component"/>
        <text x="40" y="35" class="text">Test Socket</text>
        <text x="40" y="47" class="text">(ZIF Socket)</text>

        <!-- Pin representation -->
        <g transform="translate(10, 70)">
          <rect x="0" y="0" width="60" height="40" fill="none" stroke="#2c3e50"/>
          <text x="30" y="25" class="text">IC Under</text>
          <text x="30" y="37" class="text">Test</text>

          <!-- Pins -->
          <circle cx="5" cy="5" r="2" class="pin"/>
          <circle cx="15" cy="5" r="2" class="pin"/>
          <circle cx="25" cy="5" r="2" class="pin"/>
          <circle cx="35" cy="5" r="2" class="pin"/>
          <circle cx="45" cy="5" r="2" class="pin"/>
          <circle cx="55" cy="5" r="2" class="pin"/>
          <circle cx="55" cy="15" r="2" class="pin"/>
          <circle cx="55" cy="25" r="2" class="pin"/>
          <circle cx="55" cy="35" r="2" class="pin"/>
          <circle cx="45" cy="35" r="2" class="pin"/>
          <circle cx="35" cy="35" r="2" class="pin"/>
          <circle cx="25" cy="35" r="2" class="pin"/>
          <circle cx="15" cy="35" r="2" class="pin"/>
          <circle cx="5" cy="35" r="2" class="pin"/>
          <circle cx="5" cy="25" r="2" class="pin"/>
          <circle cx="5" cy="15" r="2" class="pin"/>
        </g>
      </g>

      <!-- Pin Driver Array -->
      <g transform="translate(200, 30)">
        <rect x="0" y="0" width="100" height="80" class="test-logic"/>
        <text x="50" y="25" class="text">Pin Driver</text>
        <text x="50" y="37" class="text">Array</text>
        <text x="50" y="49" class="text">(Programmable</text>
        <text x="50" y="61" class="text">I/O Levels)</text>

        <!-- Connection to test socket -->
        <path d="M0,40 L-50,55" stroke="#2c3e50" stroke-width="2" marker-end="url(#arrow)"/>
      </g>

      <!-- Microcontroller -->
      <g transform="translate(350, 20)">
        <rect x="0" y="0" width="120" height="100" class="control"/>
        <text x="60" y="30" class="text">Microcontroller</text>
        <text x="60" y="42" class="text">/ DSP</text>
        <text x="60" y="54" class="text">Test Control</text>
        <text x="60" y="66" class="text">&amp; Logic</text>
        <text x="60" y="78" class="text">Analysis</text>
        <text x="60" y="90" class="text">Unit</text>
      </g>

      <!-- Memory -->
      <g transform="translate(500, 30)">
        <rect x="0" y="0" width="80" height="80" class="memory"/>
        <text x="40" y="25" class="text">Test Vector</text>
        <text x="40" y="37" class="text">Memory</text>
        <text x="40" y="49" class="text">(ROM/RAM)</text>
        <text x="40" y="61" class="text">IC Library</text>
        <text x="40" y="73" class="text">Database</text>
      </g>

      <!-- Timing Generator -->
      <g transform="translate(350, 140)">
        <rect x="0" y="0" width="120" height="60" class="test-logic"/>
        <text x="60" y="25" class="text">Timing</text>
        <text x="60" y="37" class="text">Generator</text>
        <text x="60" y="49" class="text">&amp; Clock</text>
      </g>

      <!-- Power Supply -->
      <g transform="translate(200, 130)">
        <rect x="0" y="0" width="100" height="60" class="component"/>
        <text x="50" y="25" class="text">Programmable</text>
        <text x="50" y="37" class="text">Power Supply</text>
        <text x="50" y="49" class="text">(3.3V/5V)</text>
      </g>

      <!-- Display Interface -->
      <g transform="translate(620, 30)">
        <rect x="0" y="0" width="100" height="60" class="display"/>
        <text x="50" y="25" class="text">Display</text>
        <text x="50" y="37" class="text">Interface</text>
        <text x="50" y="49" class="text">(LCD/LED)</text>
      </g>

      <!-- Keypad Interface -->
      <g transform="translate(620, 110)">
        <rect x="0" y="0" width="100" height="60" class="interface"/>
        <text x="50" y="25" class="text">Keypad</text>
        <text x="50" y="37" class="text">Interface</text>
        <text x="50" y="49" class="text">&amp; Controls</text>
      </g>

      <!-- Communication -->
      <g transform="translate(750, 60)">
        <rect x="0" y="0" width="80" height="80" class="interface"/>
        <text x="40" y="30" class="text">Comm</text>
        <text x="40" y="42" class="text">Interface</text>
        <text x="40" y="54" class="text">RS-232</text>
        <text x="40" y="66" class="text">USB</text>
        <text x="40" y="78" class="text">Ethernet</text>
      </g>

      <!-- Result Storage -->
      <g transform="translate(860, 40)">
        <rect x="0" y="0" width="100" height="100" class="memory"/>
        <text x="50" y="25" class="text">Result</text>
        <text x="50" y="37" class="text">Storage</text>
        <text x="50" y="49" class="text">&amp; Analysis</text>
        <text x="50" y="61" class="text">Database</text>
        <text x="50" y="73" class="text">Test Reports</text>
        <text x="50" y="85" class="text">Statistics</text>
      </g>

      <!-- Printer -->
      <g transform="translate(990, 70)">
        <rect x="0" y="0" width="80" height="50" class="interface"/>
        <text x="40" y="25" class="text">Printer</text>
        <text x="40" y="37" class="text">Interface</text>
      </g>

      <!-- Connections -->
      <path d="M300,70 L350,70" stroke="#2c3e50" stroke-width="2" marker-end="url(#arrow)"/>
      <path d="M470,70 L500,70" stroke="#2c3e50" stroke-width="2" marker-end="url(#arrow)"/>
      <path d="M410,120 L410,140" stroke="#2c3e50" stroke-width="2" marker-end="url(#arrow)"/>
      <path d="M410,60 L620,60" stroke="#2c3e50" stroke-width="2" marker-end="url(#arrow)"/>
      <path d="M410,90 L620,140" stroke="#2c3e50" stroke-width="2" marker-end="url(#arrow)"/>
      <path d="M720,90 L750,100" stroke="#2c3e50" stroke-width="2" marker-end="url(#arrow)"/>
      <path d="M830,100 L860,90" stroke="#2c3e50" stroke-width="2" marker-end="url(#arrow)"/>
      <path d="M960,90 L990,95" stroke="#2c3e50" stroke-width="2" marker-end="url(#arrow)"/>
      <path d="M300,160 L350,170" stroke="#2c3e50" stroke-width="2" marker-end="url(#arrow)"/>
      <path d="M250,130 L250,110" stroke="#2c3e50" stroke-width="2" marker-end="url(#arrow)"/>
    </g>
  </g>

  <!-- Testing Process -->
  <g transform="translate(50, 340)">
    <text x="650" y="20" class="subtitle">Digital IC Testing Process</text>

    <!-- Test Flow -->
    <g transform="translate(20, 40)">
      <text x="200" y="15" class="label">Automated Test Flow</text>

      <rect x="0" y="25" width="400" height="180" class="test-logic"/>

      <!-- Step 1 -->
      <g transform="translate(20, 45)">
        <rect x="0" y="0" width="80" height="25" class="component"/>
        <text x="40" y="17" class="text">1. IC Insertion</text>
        <path d="M80,12 L100,12" stroke="#2c3e50" stroke-width="2" marker-end="url(#arrow)"/>
      </g>

      <!-- Step 2 -->
      <g transform="translate(120, 45)">
        <rect x="0" y="0" width="80" height="25" class="component"/>
        <text x="40" y="17" class="text">2. IC Recognition</text>
        <path d="M80,12 L100,12" stroke="#2c3e50" stroke-width="2" marker-end="url(#arrow)"/>
      </g>

      <!-- Step 3 -->
      <g transform="translate(220, 45)">
        <rect x="0" y="0" width="80" height="25" class="component"/>
        <text x="40" y="17" class="text">3. Power-up Test</text>
        <path d="M40,25 L40,45" stroke="#2c3e50" stroke-width="2" marker-end="url(#arrow)"/>
      </g>

      <!-- Step 4 -->
      <g transform="translate(220, 85)">
        <rect x="0" y="0" width="80" height="25" class="component"/>
        <text x="40" y="17" class="text">4. Functional Test</text>
        <path d="M0,12 L-20,12" stroke="#2c3e50" stroke-width="2" marker-end="url(#arrow)"/>
      </g>

      <!-- Step 5 -->
      <g transform="translate(120, 85)">
        <rect x="0" y="0" width="80" height="25" class="component"/>
        <text x="40" y="17" class="text">5. Timing Test</text>
        <path d="M0,12 L-20,12" stroke="#2c3e50" stroke-width="2" marker-end="url(#arrow)"/>
      </g>

      <!-- Step 6 -->
      <g transform="translate(20, 85)">
        <rect x="0" y="0" width="80" height="25" class="component"/>
        <text x="40" y="17" class="text">6. Result Analysis</text>
        <path d="M40,25 L40,45" stroke="#2c3e50" stroke-width="2" marker-end="url(#arrow)"/>
      </g>

      <!-- Final Result -->
      <g transform="translate(20, 135)">
        <rect x="0" y="0" width="60" height="30" class="pass"/>
        <text x="30" y="20" class="text">PASS</text>

        <rect x="80" y="0" width="60" height="30" class="fail"/>
        <text x="110" y="20" class="text">FAIL</text>

        <rect x="160" y="0" width="80" height="30" class="component"/>
        <text x="200" y="20" class="text">UNKNOWN</text>
      </g>

      <text x="10" y="185" class="formula">Test Time: 1-10 seconds per IC (depending on complexity)</text>
      <text x="10" y="200" class="text">Automatic sorting and binning based on test results</text>
    </g>

    <!-- Test Types -->
    <g transform="translate(440, 40)">
      <text x="200" y="15" class="label">Types of Tests Performed</text>

      <rect x="0" y="25" width="400" height="180" class="test-logic"/>

      <text x="10" y="45" class="formula">1. Continuity Test:</text>
      <text x="10" y="60" class="text">• Pin-to-pin connectivity</text>
      <text x="10" y="75" class="text">• Open circuit detection</text>
      <text x="10" y="90" class="text">• Short circuit detection</text>

      <text x="200" y="45" class="formula">2. Power Supply Test:</text>
      <text x="200" y="60" class="text">• VCC/VDD current consumption</text>
      <text x="200" y="75" class="text">• Quiescent current (IDDQ)</text>
      <text x="200" y="90" class="text">• Power-on behavior</text>

      <text x="10" y="110" class="formula">3. Logic Function Test:</text>
      <text x="10" y="125" class="text">• Truth table verification</text>
      <text x="10" y="140" class="text">• Input/Output logic levels</text>
      <text x="10" y="155" class="text">• State machine testing</text>

      <text x="200" y="110" class="formula">4. AC Timing Test:</text>
      <text x="200" y="125" class="text">• Propagation delay (tpd)</text>
      <text x="200" y="140" class="text">• Setup and hold times</text>
      <text x="200" y="155" class="text">• Maximum clock frequency</text>

      <text x="10" y="175" class="formula">5. Parametric Test:</text>
      <text x="10" y="190" class="text">Input/output current levels, threshold voltages</text>
      <text x="200" y="175" class="formula">6. Dynamic Test:</text>
      <text x="200" y="190" class="text">Pattern-based functional verification</text>
    </g>

    <!-- IC Types Supported -->
    <g transform="translate(860, 40)">
      <text x="200" y="15" class="label">Supported IC Types</text>

      <rect x="0" y="25" width="400" height="180" class="ic-tester"/>

      <text x="10" y="45" class="formula">TTL Logic Families:</text>
      <text x="10" y="60" class="text">• 74xx Standard TTL</text>
      <text x="10" y="75" class="text">• 74LSxx Low-power Schottky</text>
      <text x="10" y="90" class="text">• 74HCxx High-speed CMOS</text>
      <text x="10" y="105" class="text">• 74ACxx Advanced CMOS</text>

      <text x="200" y="45" class="formula">CMOS Logic Families:</text>
      <text x="200" y="60" class="text">• 4000 series CMOS</text>
      <text x="200" y="75" class="text">• 74HCxx CMOS TTL compatible</text>
      <text x="200" y="90" class="text">• 74LVxx Low voltage CMOS</text>
      <text x="200" y="105" class="text">• Custom CMOS devices</text>

      <text x="10" y="125" class="formula">Package Types:</text>
      <text x="10" y="140" class="text">• DIP (8, 14, 16, 20, 24, 28, 40 pin)</text>
      <text x="10" y="155" class="text">• SOIC, TSSOP (with adapters)</text>
      <text x="10" y="170" class="text">• QFP, BGA (advanced testers)</text>

      <text x="200" y="125" class="formula">Special Functions:</text>
      <text x="200" y="140" class="text">• Memory ICs (RAM, ROM, EPROM)</text>
      <text x="200" y="155" class="text">• Microcontrollers (basic tests)</text>
      <text x="200" y="170" class="text">• Interface ICs (UART, SPI, I2C)</text>

      <text x="10" y="190" class="text">Universal socket adapters allow testing of various package formats</text>
    </g>
  </g>

  <!-- Advanced Features -->
  <g transform="translate(50, 600)">
    <text x="650" y="20" class="subtitle">Advanced Features and Capabilities</text>

    <!-- Automatic IC Identification -->
    <g transform="translate(20, 40)">
      <text x="200" y="15" class="label">Automatic IC Identification</text>

      <rect x="0" y="25" width="400" height="140" class="control"/>

      <text x="10" y="45" class="formula">Smart Identification Process:</text>
      <text x="10" y="65" class="text">1. Pin count detection</text>
      <text x="10" y="80" class="text">2. Power pin identification (VCC/GND)</text>
      <text x="10" y="95" class="text">3. Basic logic pattern testing</text>
      <text x="10" y="110" class="text">4. Database comparison</text>
      <text x="10" y="125" class="text">5. IC type determination</text>

      <text x="200" y="45" class="formula">Database Features:</text>
      <text x="200" y="65" class="text">• Over 10,000 IC types</text>
      <text x="200" y="80" class="text">• User-expandable library</text>
      <text x="200" y="95" class="text">• Custom IC programming</text>
      <text x="200" y="110" class="text">• Update capability</text>
      <text x="200" y="125" class="text">• Manufacturer data sheets</text>

      <text x="10" y="145" class="formula">Accuracy: &gt;95% for common ICs, Unknown IC learning capability</text>
    </g>

    <!-- Test Vector Generation -->
    <g transform="translate(440, 40)">
      <text x="200" y="15" class="label">Test Vector Generation</text>

      <rect x="0" y="25" width="400" height="140" class="memory"/>

      <text x="10" y="45" class="formula">Vector Types:</text>
      <text x="10" y="65" class="text">• Exhaustive patterns (all combinations)</text>
      <text x="10" y="80" class="text">• Minimal test sets (optimized)</text>
      <text x="10" y="95" class="text">• Walking 1/0 patterns</text>
      <text x="10" y="110" class="text">• Random patterns</text>
      <text x="10" y="125" class="text">• Custom user patterns</text>

      <text x="200" y="45" class="formula">Generation Methods:</text>
      <text x="200" y="65" class="text">• Truth table based</text>
      <text x="200" y="80" class="text">• Behavioral model driven</text>
      <text x="200" y="95" class="text">• ATPG (Automatic Test Pattern Gen)</text>
      <text x="200" y="110" class="text">• Fault model based</text>
      <text x="200" y="125" class="text">• Timing constraint aware</text>

      <text x="10" y="145" class="text">Optimizes test coverage while minimizing test time</text>
    </g>

    <!-- Quality Analysis -->
    <g transform="translate(860, 40)">
      <text x="200" y="15" class="label">Quality Analysis Features</text>

      <rect x="0" y="25" width="400" height="140" class="display"/>

      <text x="10" y="45" class="formula">Statistical Analysis:</text>
      <text x="10" y="65" class="text">• Pass/fail rate tracking</text>
      <text x="10" y="80" class="text">• Defect pattern analysis</text>
      <text x="10" y="95" class="text">• Lot-to-lot variation</text>
      <text x="10" y="110" class="text">• Supplier quality metrics</text>
      <text x="10" y="125" class="text">• Trend analysis</text>

      <text x="200" y="45" class="formula">Reporting Features:</text>
      <text x="200" y="65" class="text">• Detailed test reports</text>
      <text x="200" y="80" class="text">• Graphical data presentation</text>
      <text x="200" y="95" class="text">• Export to Excel/CSV</text>
      <text x="200" y="110" class="text">• Automatic report generation</text>
      <text x="200" y="125" class="text">• Compliance documentation</text>

      <text x="10" y="145" class="text">Supports ISO 9001 quality management requirements</text>
    </g>
  </g>

  <!-- Specifications and Applications -->
  <g transform="translate(50, 800)">
    <text x="650" y="20" class="subtitle">Specifications and Applications</text>

    <!-- Technical Specifications -->
    <g transform="translate(20, 40)">
      <text x="200" y="15" class="label">Technical Specifications</text>

      <rect x="0" y="25" width="400" height="140" class="ic-tester"/>

      <text x="10" y="45" class="formula">Electrical Specifications:</text>
      <text x="10" y="65" class="text">• Supply voltage: 1.8V to 5.5V</text>
      <text x="10" y="80" class="text">• Logic levels: TTL, CMOS, LVTTL</text>
      <text x="10" y="95" class="text">• Test frequency: DC to 100 MHz</text>
      <text x="10" y="110" class="text">• Timing resolution: 1ns</text>
      <text x="10" y="125" class="text">• Current measurement: ±100mA</text>

      <text x="200" y="45" class="formula">Mechanical:</text>
      <text x="200" y="65" class="text">• ZIF socket: 8 to 40 pins</text>
      <text x="200" y="80" class="text">• Insertion force: &lt;1N</text>
      <text x="200" y="95" class="text">• Contact resistance: &lt;10mΩ</text>
      <text x="200" y="110" class="text">• Cycle life: &gt;100,000 operations</text>
      <text x="200" y="125" class="text">• Pin accuracy: ±0.05mm</text>

      <text x="10" y="145" class="formula">Performance: Test speed up to 1000 ICs/hour</text>
    </g>

    <!-- Applications -->
    <g transform="translate(440, 40)">
      <text x="200" y="15" class="label">Industrial Applications</text>

      <rect x="0" y="25" width="400" height="140" fill="#e8f8f5" stroke="#16a085"/>

      <text x="10" y="45" class="formula">Manufacturing:</text>
      <text x="10" y="65" class="text">• Incoming component inspection</text>
      <text x="10" y="80" class="text">• Production line testing</text>
      <text x="10" y="95" class="text">• Final product verification</text>
      <text x="10" y="110" class="text">• Quality assurance programs</text>

      <text x="200" y="45" class="formula">Service &amp; Repair:</text>
      <text x="200" y="65" class="text">• Component troubleshooting</text>
      <text x="200" y="80" class="text">• Board-level repair</text>
      <text x="200" y="95" class="text">• Refurbishment operations</text>
      <text x="200" y="110" class="text">• Field service support</text>

      <text x="10" y="130" class="formula">Education:</text>
      <text x="10" y="150" class="text">Digital electronics labs, component identification training</text>
      <text x="200" y="130" class="formula">R&amp;D:</text>
      <text x="200" y="150" class="text">Prototype verification, design validation</text>
    </g>

    <!-- Cost-Benefit Analysis -->
    <g transform="translate(860, 40)">
      <text x="200" y="15" class="label">Cost-Benefit Analysis</text>

      <rect x="0" y="25" width="400" height="140" fill="#fff5f5" stroke="#e74c3c"/>

      <text x="10" y="45" class="formula">Cost Factors:</text>
      <text x="10" y="65" class="text">• Initial equipment: $5K - $50K</text>
      <text x="10" y="80" class="text">• Software licenses: $1K - $5K</text>
      <text x="10" y="95" class="text">• Training and setup: $2K - $10K</text>
      <text x="10" y="110" class="text">• Maintenance: 5-10% annually</text>

      <text x="200" y="45" class="formula">Benefits:</text>
      <text x="200" y="65" class="text">• Reduced manual testing time</text>
      <text x="200" y="80" class="text">• Improved test accuracy</text>
      <text x="200" y="95" class="text">• Lower defect escape rate</text>
      <text x="200" y="110" class="text">• Better documentation</text>

      <text x="10" y="130" class="formula">ROI: Typically 6-18 months payback period</text>
      <text x="10" y="150" class="text">Significant labor savings and quality improvements</text>
    </g>
  </g>

</svg>