<svg viewBox="0 0 1200 800" xmlns="http://www.w3.org/2000/svg">
  <defs>
    <linearGradient id="batteryGrad" x1="0%" y1="0%" x2="100%" y2="100%">
      <stop offset="0%" style="stop-color:#10B981;stop-opacity:1" />
      <stop offset="100%" style="stop-color:#059669;stop-opacity:1" />
    </linearGradient>
    <linearGradient id="seriesGrad" x1="0%" y1="0%" x2="100%" y2="100%">
      <stop offset="0%" style="stop-color:#3B82F6;stop-opacity:1" />
      <stop offset="100%" style="stop-color:#1E40AF;stop-opacity:1" />
    </linearGradient>
    <linearGradient id="parallelGrad" x1="0%" y1="0%" x2="100%" y2="100%">
      <stop offset="0%" style="stop-color:#DC2626;stop-opacity:1" />
      <stop offset="100%" style="stop-color:#991B1B;stop-opacity:1" />
    </linearGradient>
    <linearGradient id="combinedGrad" x1="0%" y1="0%" x2="100%" y2="100%">
      <stop offset="0%" style="stop-color:#7C3AED;stop-opacity:1" />
      <stop offset="100%" style="stop-color:#5B21B6;stop-opacity:1" />
    </linearGradient>
    <filter id="glow">
      <feGaussianBlur stdDeviation="2" result="coloredBlur"/>
      <feMerge> 
        <feMergeNode in="coloredBlur"/>
        <feMergeNode in="SourceGraphic"/>
      </feMerge>
    </filter>
    <pattern id="electrolytePattern" patternUnits="userSpaceOnUse" width="4" height="4">
      <rect width="4" height="4" fill="#F3F4F6"/>
      <circle cx="2" cy="2" r="0.5" fill="#6B7280"/>
    </pattern>
  </defs>

  <!-- Background -->
  <rect width="1200" height="800" fill="#F8FAFC"/>
  
  <!-- Title -->
  <text x="600" y="40" text-anchor="middle" font-family="Arial, sans-serif" font-size="28" font-weight="bold" fill="#1E293B">Battery Configurations &amp; Applications</text>
  
  <!-- Battery Basics -->
  <g transform="translate(50,80)">
    <rect x="0" y="0" width="350" height="180" fill="#F0FDF4" stroke="#BBF7D0" stroke-width="2" rx="8"/>
    <text x="175" y="25" text-anchor="middle" font-family="Arial, sans-serif" font-size="18" font-weight="bold" fill="#1E293B">Battery Fundamentals</text>
    
    <!-- Single cell representation -->
    <g transform="translate(175,80)">
      <!-- Cell body -->
      <rect x="-60" y="-25" width="120" height="50" fill="url(#batteryGrad)" stroke="#059669" stroke-width="3" rx="10" filter="url(#glow)"/>
      
      <!-- Positive terminal -->
      <rect x="-70" y="-8" width="10" height="16" fill="#DC2626" stroke="#991B1B" stroke-width="2" rx="2"/>
      <text x="-65" y="-15" text-anchor="middle" font-family="Arial, sans-serif" font-size="12" font-weight="bold" fill="#DC2626">+</text>
      
      <!-- Negative terminal -->
      <rect x="60" y="-15" width="10" height="30" fill="#1E40AF" stroke="#1E3A8A" stroke-width="2" rx="2"/>
      <text x="65" y="-20" text-anchor="middle" font-family="Arial, sans-serif" font-size="12" font-weight="bold" fill="#1E40AF">−</text>
      
      <!-- Internal components -->
      <rect x="-40" y="-15" width="80" height="30" fill="url(#electrolytePattern)" opacity="0.6"/>
      <text x="0" y="5" text-anchor="middle" font-family="Arial, sans-serif" font-size="10" fill="#374151">Electrolyte</text>
      
      <!-- Anode and Cathode labels -->
      <text x="-30" y="-30" text-anchor="middle" font-family="Arial, sans-serif" font-size="10" fill="#DC2626">Anode (+)</text>
      <text x="30" y="-30" text-anchor="middle" font-family="Arial, sans-serif" font-size="10" fill="#1E40AF">Cathode (−)</text>
      
      <!-- EMF label -->
      <text x="0" y="45" text-anchor="middle" font-family="Arial, sans-serif" font-size="14" font-weight="bold" fill="#059669">EMF = 1.5V</text>
    </g>
    
    <!-- Key parameters -->
    <g font-family="Arial, sans-serif" font-size="11" fill="#374151">
      <text x="20" y="130" font-weight="bold" fill="#1E293B">Key Parameters:</text>
      <text x="20" y="145">• Voltage (V): Electric potential</text>
      <text x="20" y="160">• Capacity (Ah): Energy storage</text>
      <text x="200" y="145">• Internal resistance (r)</text>
      <text x="200" y="160">• Power rating (W)</text>
    </g>
  </g>

  <!-- Battery Types -->
  <g transform="translate(420,80)">
    <rect x="0" y="0" width="350" height="180" fill="#FEF3C7" stroke="#F59E0B" stroke-width="2" rx="8"/>
    <text x="175" y="25" text-anchor="middle" font-family="Arial, sans-serif" font-size="18" font-weight="bold" fill="#1E293B">Common Battery Types</text>
    
    <g font-family="Arial, sans-serif" font-size="11" fill="#374151">
      <!-- Primary batteries -->
      <text x="20" y="50" font-weight="bold" fill="#DC2626">Primary (Non-rechargeable):</text>
      <text x="30" y="65">• Carbon-Zinc: 1.5V, cheap, low capacity</text>
      <text x="30" y="80">• Alkaline: 1.5V, better capacity, long life</text>
      <text x="30" y="95">• Lithium: 3.6V, high energy density</text>
      
      <!-- Secondary batteries -->
      <text x="20" y="120" font-weight="bold" fill="#3B82F6">Secondary (Rechargeable):</text>
      <text x="30" y="135">• Lead-Acid: 2V/cell, automotive, UPS</text>
      <text x="30" y="150">• Li-ion: 3.7V/cell, electronics, EVs</text>
      <text x="30" y="165">• NiMH: 1.2V/cell, cordless tools</text>
    </g>
  </g>

  <!-- Ratings and Specifications -->
  <g transform="translate(790,80)">
    <rect x="0" y="0" width="350" height="180" fill="#F3E8FF" stroke="#8B5CF6" stroke-width="2" rx="8"/>
    <text x="175" y="25" text-anchor="middle" font-family="Arial, sans-serif" font-size="18" font-weight="bold" fill="#1E293B">Battery Ratings</text>
    
    <!-- Rating examples -->
    <g font-family="Arial, sans-serif" font-size="11" fill="#374151">
      <text x="20" y="50" font-weight="bold" fill="#7C3AED">Voltage Ratings:</text>
      <text x="30" y="65">• AA Alkaline: 1.5V nominal</text>
      <text x="30" y="80">• Car Battery: 12V (6 cells × 2V)</text>
      <text x="30" y="95">• Laptop Battery: 11.1V (3 cells × 3.7V)</text>
      
      <text x="20" y="120" font-weight="bold" fill="#7C3AED">Capacity Ratings:</text>
      <text x="30" y="135">• AA Battery: 2000-3000 mAh</text>
      <text x="30" y="150">• Car Battery: 50-100 Ah</text>
      <text x="30" y="165">• Phone Battery: 3000-5000 mAh</text>
    </g>
  </g>

  <!-- Series Configuration -->
  <g transform="translate(50,280)">
    <rect x="0" y="0" width="550" height="200" fill="url(#seriesGrad)" stroke="#1E40AF" stroke-width="3" rx="10" opacity="0.1"/>
    <rect x="0" y="0" width="550" height="200" fill="none" stroke="#1E40AF" stroke-width="3" rx="10"/>
    <text x="275" y="25" text-anchor="middle" font-family="Arial, sans-serif" font-size="20" font-weight="bold" fill="#1E293B">Series Configuration</text>
    
    <!-- Series battery diagram -->
    <g transform="translate(50,70)">
      <!-- Battery 1 -->
      <g transform="translate(60,40)">
        <rect x="-25" y="-15" width="50" height="30" fill="url(#batteryGrad)" stroke="#059669" stroke-width="2" rx="5"/>
        <rect x="-30" y="-5" width="5" height="10" fill="#DC2626"/>
        <rect x="25" y="-8" width="5" height="16" fill="#1E40AF"/>
        <text x="0" y="5" text-anchor="middle" font-family="Arial, sans-serif" font-size="10" fill="white">1.5V</text>
        <text x="-35" y="-10" font-family="Arial, sans-serif" font-size="10" fill="#DC2626">+</text>
        <text x="35" y="-10" font-family="Arial, sans-serif" font-size="10" fill="#1E40AF">−</text>
      </g>
      
      <!-- Battery 2 -->
      <g transform="translate(160,40)">
        <rect x="-25" y="-15" width="50" height="30" fill="url(#batteryGrad)" stroke="#059669" stroke-width="2" rx="5"/>
        <rect x="-30" y="-5" width="5" height="10" fill="#DC2626"/>
        <rect x="25" y="-8" width="5" height="16" fill="#1E40AF"/>
        <text x="0" y="5" text-anchor="middle" font-family="Arial, sans-serif" font-size="10" fill="white">1.5V</text>
        <text x="-35" y="-10" font-family="Arial, sans-serif" font-size="10" fill="#DC2626">+</text>
        <text x="35" y="-10" font-family="Arial, sans-serif" font-size="10" fill="#1E40AF">−</text>
      </g>
      
      <!-- Battery 3 -->
      <g transform="translate(260,40)">
        <rect x="-25" y="-15" width="50" height="30" fill="url(#batteryGrad)" stroke="#059669" stroke-width="2" rx="5"/>
        <rect x="-30" y="-5" width="5" height="10" fill="#DC2626"/>
        <rect x="25" y="-8" width="5" height="16" fill="#1E40AF"/>
        <text x="0" y="5" text-anchor="middle" font-family="Arial, sans-serif" font-size="10" fill="white">1.5V</text>
        <text x="-35" y="-10" font-family="Arial, sans-serif" font-size="10" fill="#DC2626">+</text>
        <text x="35" y="-10" font-family="Arial, sans-serif" font-size="10" fill="#1E40AF">−</text>
      </g>
      
      <!-- Battery 4 -->
      <g transform="translate(360,40)">
        <rect x="-25" y="-15" width="50" height="30" fill="url(#batteryGrad)" stroke="#059669" stroke-width="2" rx="5"/>
        <rect x="-30" y="-5" width="5" height="10" fill="#DC2626"/>
        <rect x="25" y="-8" width="5" height="16" fill="#1E40AF"/>
        <text x="0" y="5" text-anchor="middle" font-family="Arial, sans-serif" font-size="10" fill="white">1.5V</text>
        <text x="-35" y="-10" font-family="Arial, sans-serif" font-size="10" fill="#DC2626">+</text>
        <text x="35" y="-10" font-family="Arial, sans-serif" font-size="10" fill="#1E40AF">−</text>
      </g>
      
      <!-- Connecting wires -->
      <line x1="90" y1="40" x2="130" y2="40" stroke="#374151" stroke-width="4"/>
      <line x1="190" y1="40" x2="230" y2="40" stroke="#374151" stroke-width="4"/>
      <line x1="290" y1="40" x2="330" y2="40" stroke="#374151" stroke-width="4"/>
      
      <!-- Terminal connections -->
      <line x1="20" y1="40" x2="30" y2="40" stroke="#DC2626" stroke-width="4"/>
      <line x1="390" y1="40" x2="420" y2="40" stroke="#1E40AF" stroke-width="4"/>
      <text x="10" y="35" font-family="Arial, sans-serif" font-size="12" font-weight="bold" fill="#DC2626">+</text>
      <text x="425" y="35" font-family="Arial, sans-serif" font-size="12" font-weight="bold" fill="#1E40AF">−</text>
      
      <!-- Total voltage -->
      <text x="220" y="15" text-anchor="middle" font-family="Arial, sans-serif" font-size="16" font-weight="bold" fill="#3B82F6">Total: 6V</text>
    </g>
    
    <!-- Series characteristics -->
    <rect x="20" y="130" width="510" height="55" fill="#F0F9FF" stroke="#0EA5E9" stroke-width="1" rx="5"/>
    <g font-family="Arial, sans-serif" fill="#1E293B">
      <text x="275" y="145" text-anchor="middle" font-size="14" font-weight="bold">Series Configuration: V_total = V₁ + V₂ + V₃ + V₄</text>
      <text x="30" y="165">✓ Voltages add up</text>
      <text x="150" y="165">✓ Same current through all</text>
      <text x="280" y="165">✗ One failure stops all</text>
      <text x="420" y="165">✗ Capacity unchanged</text>
    </g>
  </g>

  <!-- Parallel Configuration -->
  <g transform="translate(620,280)">
    <rect x="0" y="0" width="530" height="200" fill="url(#parallelGrad)" stroke="#991B1B" stroke-width="3" rx="10" opacity="0.1"/>
    <rect x="0" y="0" width="530" height="200" fill="none" stroke="#991B1B" stroke-width="3" rx="10"/>
    <text x="265" y="25" text-anchor="middle" font-family="Arial, sans-serif" font-size="20" font-weight="bold" fill="#1E293B">Parallel Configuration</text>
    
    <!-- Parallel battery diagram -->
    <g transform="translate(50,60)">
      <!-- Positive bus -->
      <line x1="20" y1="20" x2="400" y2="20" stroke="#DC2626" stroke-width="6"/>
      <text x="10" y="25" font-family="Arial, sans-serif" font-size="12" font-weight="bold" fill="#DC2626">+</text>
      
      <!-- Negative bus -->
      <line x1="20" y1="80" x2="400" y2="80" stroke="#1E40AF" stroke-width="6"/>
      <text x="10" y="85" font-family="Arial, sans-serif" font-size="12" font-weight="bold" fill="#1E40AF">−</text>
      
      <!-- Battery 1 -->
      <g transform="translate(80,50)">
        <rect x="-15" y="-20" width="30" height="40" fill="url(#batteryGrad)" stroke="#059669" stroke-width="2" rx="5"/>
        <rect x="-18" y="-5" width="3" height="10" fill="#DC2626"/>
        <rect x="15" y="-8" width="3" height="16" fill="#1E40AF"/>
        <text x="0" y="5" text-anchor="middle" font-family="Arial, sans-serif" font-size="9" fill="white">1.5V</text>
        <line x1="0" y1="-20" x2="0" y2="-30" stroke="#DC2626" stroke-width="3"/>
        <line x1="0" y1="20" x2="0" y2="30" stroke="#1E40AF" stroke-width="3"/>
      </g>
      
      <!-- Battery 2 -->
      <g transform="translate(160,50)">
        <rect x="-15" y="-20" width="30" height="40" fill="url(#batteryGrad)" stroke="#059669" stroke-width="2" rx="5"/>
        <rect x="-18" y="-5" width="3" height="10" fill="#DC2626"/>
        <rect x="15" y="-8" width="3" height="16" fill="#1E40AF"/>
        <text x="0" y="5" text-anchor="middle" font-family="Arial, sans-serif" font-size="9" fill="white">1.5V</text>
        <line x1="0" y1="-20" x2="0" y2="-30" stroke="#DC2626" stroke-width="3"/>
        <line x1="0" y1="20" x2="0" y2="30" stroke="#1E40AF" stroke-width="3"/>
      </g>
      
      <!-- Battery 3 -->
      <g transform="translate(240,50)">
        <rect x="-15" y="-20" width="30" height="40" fill="url(#batteryGrad)" stroke="#059669" stroke-width="2" rx="5"/>
        <rect x="-18" y="-5" width="3" height="10" fill="#DC2626"/>
        <rect x="15" y="-8" width="3" height="16" fill="#1E40AF"/>
        <text x="0" y="5" text-anchor="middle" font-family="Arial, sans-serif" font-size="9" fill="white">1.5V</text>
        <line x1="0" y1="-20" x2="0" y2="-30" stroke="#DC2626" stroke-width="3"/>
        <line x1="0" y1="20" x2="0" y2="30" stroke="#1E40AF" stroke-width="3"/>
      </g>
      
      <!-- Battery 4 -->
      <g transform="translate(320,50)">
        <rect x="-15" y="-20" width="30" height="40" fill="url(#batteryGrad)" stroke="#059669" stroke-width="2" rx="5"/>
        <rect x="-18" y="-5" width="3" height="10" fill="#DC2626"/>
        <rect x="15" y="-8" width="3" height="16" fill="#1E40AF"/>
        <text x="0" y="5" text-anchor="middle" font-family="Arial, sans-serif" font-size="9" fill="white">1.5V</text>
        <line x1="0" y1="-20" x2="0" y2="-30" stroke="#DC2626" stroke-width="3"/>
        <line x1="0" y1="20" x2="0" y2="30" stroke="#1E40AF" stroke-width="3"/>
      </g>
      
      <!-- Total voltage -->
      <text x="210" y="5" text-anchor="middle" font-family="Arial, sans-serif" font-size="16" font-weight="bold" fill="#DC2626">Total: 1.5V</text>
      <text x="210" y="110" text-anchor="middle" font-family="Arial, sans-serif" font-size="14" font-weight="bold" fill="#059669">4× Capacity</text>
    </g>
    
    <!-- Parallel characteristics -->
    <rect x="20" y="130" width="490" height="55" fill="#FEF2F2" stroke="#FECACA" stroke-width="1" rx="5"/>
    <g font-family="Arial, sans-serif" fill="#1E293B">
      <text x="255" y="145" text-anchor="middle" font-size="14" font-weight="bold">Parallel Configuration: I_total = I₁ + I₂ + I₃ + I₄</text>
      <text x="30" y="165">✓ Same voltage</text>
      <text x="130" y="165">✓ Currents add up</text>
      <text x="240" y="165">✓ Increased capacity</text>
      <text x="360" y="165">✓ Redundancy</text>
    </g>
  </g>

  <!-- Series-Parallel Combination -->
  <g transform="translate(50,500)">
    <rect x="0" y="0" width="550" height="180" fill="url(#combinedGrad)" stroke="#5B21B6" stroke-width="3" rx="10" opacity="0.1"/>
    <rect x="0" y="0" width="550" height="180" fill="none" stroke="#5B21B6" stroke-width="3" rx="10"/>
    <text x="275" y="25" text-anchor="middle" font-family="Arial, sans-serif" font-size="18" font-weight="bold" fill="#1E293B">Series-Parallel Combination</text>
    
    <!-- Series-parallel battery diagram -->
    <g transform="translate(80,60)">
      <!-- Top series string -->
      <g transform="translate(0,0)">
        <!-- Batteries in series -->
        <g transform="translate(40,20)">
          <rect x="-15" y="-10" width="30" height="20" fill="url(#batteryGrad)" stroke="#059669" stroke-width="2" rx="3"/>
          <text x="0" y="2" text-anchor="middle" font-family="Arial, sans-serif" font-size="8" fill="white">1.5V</text>
        </g>
        <g transform="translate(100,20)">
          <rect x="-15" y="-10" width="30" height="20" fill="url(#batteryGrad)" stroke="#059669" stroke-width="2" rx="3"/>
          <text x="0" y="2" text-anchor="middle" font-family="Arial, sans-serif" font-size="8" fill="white">1.5V</text>
        </g>
        <g transform="translate(160,20)">
          <rect x="-15" y="-10" width="30" height="20" fill="url(#batteryGrad)" stroke="#059669" stroke-width="2" rx="3"/>
          <text x="0" y="2" text-anchor="middle" font-family="Arial, sans-serif" font-size="8" fill="white">1.5V</text>
        </g>
        <!-- Connecting wires -->
        <line x1="55" y1="20" x2="85" y2="20" stroke="#374151" stroke-width="2"/>
        <line x1="115" y1="20" x2="145" y2="20" stroke="#374151" stroke-width="2"/>
        <text x="100" y="5" text-anchor="middle" font-family="Arial, sans-serif" font-size="10" font-weight="bold" fill="#7C3AED">String 1: 4.5V</text>
      </g>
      
      <!-- Bottom series string -->
      <g transform="translate(0,60)">
        <!-- Batteries in series -->
        <g transform="translate(40,20)">
          <rect x="-15" y="-10" width="30" height="20" fill="url(#batteryGrad)" stroke="#059669" stroke-width="2" rx="3"/>
          <text x="0" y="2" text-anchor="middle" font-family="Arial, sans-serif" font-size="8" fill="white">1.5V</text>
        </g>
        <g transform="translate(100,20)">
          <rect x="-15" y="-10" width="30" height="20" fill="url(#batteryGrad)" stroke="#059669" stroke-width="2" rx="3"/>
          <text x="0" y="2" text-anchor="middle" font-family="Arial, sans-serif" font-size="8" fill="white">1.5V</text>
        </g>
        <g transform="translate(160,20)">
          <rect x="-15" y="-10" width="30" height="20" fill="url(#batteryGrad)" stroke="#059669" stroke-width="2" rx="3"/>
          <text x="0" y="2" text-anchor="middle" font-family="Arial, sans-serif" font-size="8" fill="white">1.5V</text>
        </g>
        <!-- Connecting wires -->
        <line x1="55" y1="20" x2="85" y2="20" stroke="#374151" stroke-width="2"/>
        <line x1="115" y1="20" x2="145" y2="20" stroke="#374151" stroke-width="2"/>
        <text x="100" y="5" text-anchor="middle" font-family="Arial, sans-serif" font-size="10" font-weight="bold" fill="#7C3AED">String 2: 4.5V</text>
      </g>
      
      <!-- Parallel connections -->
      <line x1="25" y1="20" x2="25" y2="80" stroke="#DC2626" stroke-width="4"/>
      <line x1="175" y1="20" x2="175" y2="80" stroke="#1E40AF" stroke-width="4"/>
      
      <!-- Terminals -->
      <text x="15" y="25" font-family="Arial, sans-serif" font-size="12" font-weight="bold" fill="#DC2626">+</text>
      <text x="180" y="85" font-family="Arial, sans-serif" font-size="12" font-weight="bold" fill="#1E40AF">−</text>
      
      <!-- Results -->
      <text x="300" y="40" font-family="Arial, sans-serif" font-size="14" font-weight="bold" fill="#7C3AED">Result:</text>
      <text x="300" y="55" font-family="Arial, sans-serif" font-size="12" fill="#374151">Voltage: 4.5V</text>
      <text x="300" y="70" font-family="Arial, sans-serif" font-size="12" fill="#374151">Capacity: 2× single string</text>
    </g>
    
    <!-- Combination characteristics -->
    <rect x="20" y="130" width="510" height="40" fill="#F3E8FF" stroke="#C4B5FD" stroke-width="1" rx="5"/>
    <g font-family="Arial, sans-serif" fill="#1E293B">
      <text x="275" y="145" text-anchor="middle" font-size="12" font-weight="bold">Combines advantages of both series and parallel</text>
      <text x="275" y="160" text-anchor="middle" font-size="11" fill="#6B7280">Higher voltage + Higher capacity + Some redundancy</text>
    </g>
  </g>

  <!-- Applications -->
  <g transform="translate(620,500)">
    <rect x="0" y="0" width="530" height="180" fill="#F1F5F9" stroke="#CBD5E1" stroke-width="2" rx="8"/>
    <text x="265" y="25" text-anchor="middle" font-family="Arial, sans-serif" font-size="18" font-weight="bold" fill="#1E293B">Real-World Applications</text>
    
    <g font-family="Arial, sans-serif" font-size="11" fill="#374151">
      <!-- Automotive -->
      <rect x="20" y="40" width="120" height="60" fill="#FEE2E2" stroke="#EF4444" stroke-width="1" rx="4"/>
      <text x="80" y="55" text-anchor="middle" font-weight="bold" fill="#1E293B">Automotive</text>
      <text x="30" y="70">• 12V car battery</text>
      <text x="30" y="83">• 6 cells in series</text>
      <text x="30" y="96">• 2V × 6 = 12V</text>
      
      <!-- UPS Systems -->
      <rect x="150" y="40" width="120" height="60" fill="#DBEAFE" stroke="#3B82F6" stroke-width="1" rx="4"/>
      <text x="210" y="55" text-anchor="middle" font-weight="bold" fill="#1E293B">UPS Systems</text>
      <text x="160" y="70">• Multiple 12V</text>
      <text x="160" y="83">• Series for 24V/48V</text>
      <text x="160" y="96">• Parallel for capacity</text>
      
      <!-- Flashlights -->
      <rect x="280" y="40" width="120" height="60" fill="#FEF3C7" stroke="#F59E0B" stroke-width="1" rx="4"/>
      <text x="340" y="55" text-anchor="middle" font-weight="bold" fill="#1E293B">Flashlights</text>
      <text x="290" y="70">• 2-4 AA in series</text>
      <text x="290" y="83">• 3V - 6V total</text>
      <text x="290" y="96">• Compact design</text>
      
      <!-- Power Tools -->
      <rect x="410" y="40" width="100" height="60" fill="#F3E8FF" stroke="#8B5CF6" stroke-width="1" rx="4"/>
      <text x="460" y="55" text-anchor="middle" font-weight="bold" fill="#1E293B">Power Tools</text>
      <text x="420" y="70">• Li-ion packs</text>
      <text x="420" y="83">• 18V/36V</text>
      <text x="420" y="96">• High current</text>
      
      <!-- Electric Vehicles -->
      <rect x="20" y="110" width="120" height="60" fill="#DCFCE7" stroke="#16A34A" stroke-width="1" rx="4"/>
      <text x="80" y="125" text-anchor="middle" font-weight="bold" fill="#1E293B">Electric Vehicles</text>
      <text x="30" y="140">• 400-800V packs</text>
      <text x="30" y="153">• Series-parallel</text>
      <text x="30" y="166">• Thousands of cells</text>
      
      <!-- Solar Systems -->
      <rect x="150" y="110" width="120" height="60" fill="#FEF3C7" stroke="#F59E0B" stroke-width="1" rx="4"/>
      <text x="210" y="125" text-anchor="middle" font-weight="bold" fill="#1E293B">Solar Systems</text>
      <text x="160" y="140">• Lead-acid banks</text>
      <text x="160" y="153">• 12V/24V/48V</text>
      <text x="160" y="166">• Energy storage</text>
      
      <!-- Electronics -->
      <rect x="280" y="110" width="120" height="60" fill="#F0FDF4" stroke="#BBF7D0" stroke-width="1" rx="4"/>
      <text x="340" y="125" text-anchor="middle" font-weight="bold" fill="#1E293B">Electronics</text>
      <text x="290" y="140">• Remote controls</text>
      <text x="290" y="153">• 2 AA = 3V</text>
      <text x="290" y="166">• Low power draw</text>
      
      <!-- Emergency Systems -->
      <rect x="410" y="110" width="100" height="60" fill="#FEF2F2" stroke="#FECACA" stroke-width="1" rx="4"/>
      <text x="460" y="125" text-anchor="middle" font-weight="bold" fill="#1E293B">Emergency</text>
      <text x="420" y="140">• Exit lighting</text>
      <text x="420" y="153">• Backup power</text>
      <text x="420" y="166">• Redundancy</text>
    </g>
  </g>

  <!-- Safety Considerations -->
  <g transform="translate(50,700)">
    <rect x="0" y="0" width="1100" height="80" fill="#FEE2E2" stroke="#EF4444" stroke-width="2" rx="8"/>
    <text x="550" y="25" text-anchor="middle" font-family="Arial, sans-serif" font-size="18" font-weight="bold" fill="#1E293B">Safety Considerations</text>
    
    <g font-family="Arial, sans-serif" font-size="12" fill="#374151">
      <text x="30" y="45" font-weight="bold" fill="#DC2626">Voltage Safety:</text>
      <text x="30" y="60">• Series increases voltage</text>
      <text x="30" y="75">• High voltage = shock hazard</text>
      
      <text x="220" y="45" font-weight="bold" fill="#DC2626">Current Safety:</text>
      <text x="220" y="60">• Parallel increases current</text>
      <text x="220" y="75">• Short circuit risk</text>
      
      <text x="420" y="45" font-weight="bold" fill="#DC2626">Thermal Safety:</text>
      <text x="420" y="60">• Heat generation</text>
      <text x="420" y="75">• Proper ventilation</text>
      
      <text x="600" y="45" font-weight="bold" fill="#DC2626">Chemical Safety:</text>
      <text x="600" y="60">• Electrolyte handling</text>
      <text x="600" y="75">• Proper disposal</text>
      
      <text x="800" y="45" font-weight="bold" fill="#DC2626">Design Safety:</text>
      <text x="800" y="60">• Fuses and protection</text>
      <text x="800" y="75">• Proper connections</text>
      
      <text x="980" y="45" font-weight="bold" fill="#DC2626">Maintenance:</text>
      <text x="980" y="60">• Regular testing</text>
      <text x="980" y="75">• Replace when needed</text>
    </g>
  </g>
</svg>