<svg viewBox="0 0 1600 1400" xmlns="http://www.w3.org/2000/svg">
  <defs>
    <linearGradient id="capacitorGrad" x1="0%" y1="0%" x2="100%" y2="100%">
      <stop offset="0%" style="stop-color:#e3f2fd;stop-opacity:1" />
      <stop offset="100%" style="stop-color:#90caf9;stop-opacity:1" />
    </linearGradient>
    <linearGradient id="typesGrad" x1="0%" y1="0%" x2="100%" y2="100%">
      <stop offset="0%" style="stop-color:#f3e5f5;stop-opacity:1" />
      <stop offset="100%" style="stop-color:#ce93d8;stop-opacity:1" />
    </linearGradient>
    <linearGradient id="applicationsGrad" x1="0%" y1="0%" x2="100%" y2="100%">
      <stop offset="0%" style="stop-color:#e8f5e8;stop-opacity:1" />
      <stop offset="100%" style="stop-color:#a5d6a7;stop-opacity:1" />
    </linearGradient>
    <filter id="shadow" x="-20%" y="-20%" width="140%" height="140%">
      <feDropShadow dx="2" dy="2" stdDeviation="3" flood-color="#00000030"/>
    </filter>
    <pattern id="dielectricPattern" patternUnits="userSpaceOnUse" width="8" height="8">
      <rect width="8" height="8" fill="#e1f5fe"/>
      <circle cx="4" cy="4" r="1.5" fill="#0288d1"/>
    </pattern>
  </defs>

  <!-- Background -->
  <rect width="1600" height="1400" fill="#f8f9fa"/>

  <!-- Title -->
  <text x="800" y="40" text-anchor="middle" font-family="Arial, sans-serif" font-size="28" font-weight="bold" fill="#1E293B">
    Capacitor Types &amp; Applications
  </text>

  <!-- Capacitor Fundamentals -->
  <g transform="translate(50, 80)">
    <text x="750" y="0" text-anchor="middle" font-family="Arial, sans-serif" font-size="20" font-weight="bold" fill="#1976d2">Capacitor Fundamentals</text>

    <rect x="0" y="20" width="1500" height="160" rx="10" fill="url(#capacitorGrad)" stroke="#1976d2" stroke-width="2" filter="url(#shadow)"/>

    <!-- Basic Capacitor Structure -->
    <g transform="translate(50, 50)">
      <text x="150" y="20" text-anchor="middle" font-family="Arial, sans-serif" font-size="16" font-weight="bold" fill="#1565c0">Basic Structure</text>

      <!-- Capacitor Symbol -->
      <g transform="translate(50, 30)">
        <rect x="0" y="0" width="60" height="80" rx="5" fill="#ffffff" stroke="#1976d2" stroke-width="1.5"/>
        <text x="30" y="15" text-anchor="middle" font-family="Arial, sans-serif" font-size="10" font-weight="bold" fill="#1565c0">Parallel Plate</text>

        <!-- Plates -->
        <rect x="15" y="25" width="3" height="30" fill="#d32f2f"/>
        <rect x="42" y="25" width="3" height="30" fill="#d32f2f"/>

        <!-- Dielectric -->
        <rect x="18" y="25" width="24" height="30" fill="pattern(#dielectricPattern)"/>
        <text x="30" y="45" text-anchor="middle" font-family="Arial, sans-serif" font-size="8" fill="#333">Dielectric</text>

        <!-- Labels -->
        <text x="8" y="38" font-family="Arial, sans-serif" font-size="8" fill="#d32f2f">+Q</text>
        <text x="48" y="38" font-family="Arial, sans-serif" font-size="8" fill="#d32f2f">-Q</text>

        <!-- Electric Field Lines -->
        <g stroke="#ff9800" stroke-width="1" fill="none">
          <line x1="21" y1="30" x2="39" y2="30"/>
          <line x1="21" y1="35" x2="39" y2="35"/>
          <line x1="21" y1="40" x2="39" y2="40"/>
          <line x1="21" y1="45" x2="39" y2="45"/>
          <line x1="21" y1="50" x2="39" y2="50"/>
        </g>

        <text x="30" y="70" text-anchor="middle" font-family="Arial, sans-serif" font-size="8" fill="#ff9800">Electric Field</text>
      </g>

      <!-- Circuit Symbol -->
      <g transform="translate(150, 30)">
        <rect x="0" y="0" width="80" height="80" rx="5" fill="#ffffff" stroke="#1976d2" stroke-width="1.5"/>
        <text x="40" y="15" text-anchor="middle" font-family="Arial, sans-serif" font-size="10" font-weight="bold" fill="#1565c0">Circuit Symbol</text>

        <!-- Symbol -->
        <line x1="30" y1="35" x2="30" y2="55" stroke="#333" stroke-width="2"/>
        <line x1="50" y1="35" x2="50" y2="55" stroke="#333" stroke-width="2"/>
        <line x1="10" y1="45" x2="30" y2="45" stroke="#333" stroke-width="1"/>
        <line x1="50" y1="45" x2="70" y2="45" stroke="#333" stroke-width="1"/>

        <text x="40" y="70" text-anchor="middle" font-family="Arial, sans-serif" font-size="10" fill="#333">C</text>
      </g>
    </g>

    <!-- Key Formulas -->
    <g transform="translate(320, 50)">
      <text x="150" y="20" text-anchor="middle" font-family="Arial, sans-serif" font-size="16" font-weight="bold" fill="#1565c0">Key Formulas</text>

      <rect x="0" y="30" width="300" height="100" rx="5" fill="#ffffff" stroke="#1976d2" stroke-width="1.5"/>

      <text x="20" y="50" font-family="Arial, sans-serif" font-size="12" font-weight="bold" fill="#333">Capacitance:</text>
      <text x="20" y="65" font-family="Arial, sans-serif" font-size="11" fill="#333">C = Q/V = ε₀εᵣA/d</text>

      <text x="20" y="85" font-family="Arial, sans-serif" font-size="12" font-weight="bold" fill="#333">Energy Stored:</text>
      <text x="20" y="100" font-family="Arial, sans-serif" font-size="11" fill="#333">W = ½CV² = ½QV = ½Q²/C</text>

      <text x="20" y="120" font-family="Arial, sans-serif" font-size="12" font-weight="bold" fill="#333">Time Constant:</text>
      <text x="20" y="135" font-family="Arial, sans-serif" font-size="11" fill="#333">τ = RC</text>
    </g>

    <!-- Properties -->
    <g transform="translate(650, 50)">
      <text x="150" y="20" text-anchor="middle" font-family="Arial, sans-serif" font-size="16" font-weight="bold" fill="#1565c0">Key Properties</text>

      <rect x="0" y="30" width="300" height="100" rx="5" fill="#ffffff" stroke="#1976d2" stroke-width="1.5"/>

      <text x="20" y="50" font-family="Arial, sans-serif" font-size="11" fill="#333">• Stores electrical energy in electric field</text>
      <text x="20" y="65" font-family="Arial, sans-serif" font-size="11" fill="#333">• Opposes change in voltage</text>
      <text x="20" y="80" font-family="Arial, sans-serif" font-size="11" fill="#333">• Blocks DC, passes AC</text>
      <text x="20" y="95" font-family="Arial, sans-serif" font-size="11" fill="#333">• Reactance: Xc = 1/(2πfC)</text>
      <text x="20" y="110" font-family="Arial, sans-serif" font-size="11" fill="#333">• Phase: Voltage lags current by 90°</text>
      <text x="20" y="125" font-family="Arial, sans-serif" font-size="11" fill="#333">• No power dissipation (ideal)</text>
    </g>

    <!-- Units -->
    <g transform="translate(980, 50)">
      <text x="100" y="20" text-anchor="middle" font-family="Arial, sans-serif" font-size="16" font-weight="bold" fill="#1565c0">Units</text>

      <rect x="0" y="30" width="200" height="100" rx="5" fill="#ffffff" stroke="#1976d2" stroke-width="1.5"/>

      <text x="20" y="50" font-family="Arial, sans-serif" font-size="12" font-weight="bold" fill="#333">Farad (F)</text>
      <text x="20" y="65" font-family="Arial, sans-serif" font-size="10" fill="#333">• Microfarad (µF) = 10⁻⁶ F</text>
      <text x="20" y="80" font-family="Arial, sans-serif" font-size="10" fill="#333">• Nanofarad (nF) = 10⁻⁹ F</text>
      <text x="20" y="95" font-family="Arial, sans-serif" font-size="10" fill="#333">• Picofarad (pF) = 10⁻¹² F</text>
      <text x="20" y="110" font-family="Arial, sans-serif" font-size="10" fill="#333">• Common: µF, nF, pF</text>
      <text x="20" y="125" font-family="Arial, sans-serif" font-size="10" fill="#333">• 1 F = 1 Coulomb/Volt</text>
    </g>
  </g>

  <!-- Capacitor Types -->
  <g transform="translate(50, 280)">
    <text x="750" y="0" text-anchor="middle" font-family="Arial, sans-serif" font-size="20" font-weight="bold" fill="#7b1fa2">Capacitor Types by Dielectric Material</text>

    <rect x="0" y="20" width="1500" height="380" rx="10" fill="url(#typesGrad)" stroke="#7b1fa2" stroke-width="2" filter="url(#shadow)"/>

    <!-- Ceramic Capacitors -->
    <rect x="50" y="40" width="220" height="170" rx="5" fill="#ffffff" stroke="#7b1fa2" stroke-width="1.5"/>
    <text x="160" y="60" text-anchor="middle" font-family="Arial, sans-serif" font-size="14" font-weight="bold" fill="#6a1b9a">Ceramic Capacitors</text>

    <!-- Ceramic Capacitor Diagram -->
    <g transform="translate(70, 70)">
      <rect x="0" y="0" width="40" height="25" rx="2" fill="#8bc34a" stroke="#333" stroke-width="1"/>
      <rect x="45" y="5" width="30" height="15" rx="1" fill="#ffc107" stroke="#333" stroke-width="1"/>
      <rect x="80" y="0" width="40" height="25" rx="2" fill="#8bc34a" stroke="#333" stroke-width="1"/>

      <text x="60" y="35" text-anchor="middle" font-family="Arial, sans-serif" font-size="8" fill="#333">Ceramic Disc</text>

      <!-- Leads -->
      <line x1="20" y1="25" x2="20" y2="35" stroke="#333" stroke-width="2"/>
      <line x1="100" y1="25" x2="100" y2="35" stroke="#333" stroke-width="2"/>
    </g>

    <text x="60" y="130" font-family="Arial, sans-serif" font-size="11" font-weight="bold" fill="#6a1b9a">Characteristics:</text>
    <text x="60" y="145" font-family="Arial, sans-serif" font-size="10" fill="#333">• Range: 1pF - 10µF</text>
    <text x="60" y="160" font-family="Arial, sans-serif" font-size="10" fill="#333">• Voltage: 25V - 3kV</text>
    <text x="60" y="175" font-family="Arial, sans-serif" font-size="10" fill="#333">• Low cost, small size</text>
    <text x="60" y="190" font-family="Arial, sans-serif" font-size="10" fill="#333">• Temperature stable</text>
    <text x="60" y="205" font-family="Arial, sans-serif" font-size="10" fill="#333">• Good frequency response</text>

    <!-- Electrolytic Capacitors -->
    <rect x="290" y="40" width="220" height="170" rx="5" fill="#ffffff" stroke="#7b1fa2" stroke-width="1.5"/>
    <text x="400" y="60" text-anchor="middle" font-family="Arial, sans-serif" font-size="14" font-weight="bold" fill="#6a1b9a">Electrolytic Capacitors</text>

    <!-- Electrolytic Capacitor Diagram -->
    <g transform="translate(320, 70)">
      <circle cx="60" cy="20" r="18" fill="#2196f3" stroke="#333" stroke-width="2"/>
      <rect x="52" y="10" width="16" height="20" fill="#ffeb3b"/>

      <!-- Polarity markings -->
      <text x="45" y="8" font-family="Arial, sans-serif" font-size="12" font-weight="bold" fill="#d32f2f">+</text>
      <text x="75" y="8" font-family="Arial, sans-serif" font-size="12" font-weight="bold" fill="#333">-</text>

      <text x="60" y="50" text-anchor="middle" font-family="Arial, sans-serif" font-size="8" fill="#333">Aluminum Can</text>

      <!-- Leads -->
      <line x1="50" y1="38" x2="50" y2="48" stroke="#d32f2f" stroke-width="2"/>
      <line x1="70" y1="38" x2="70" y2="48" stroke="#333" stroke-width="2"/>
    </g>

    <text x="300" y="130" font-family="Arial, sans-serif" font-size="11" font-weight="bold" fill="#6a1b9a">Characteristics:</text>
    <text x="300" y="145" font-family="Arial, sans-serif" font-size="10" fill="#333">• Range: 1µF - 100mF</text>
    <text x="300" y="160" font-family="Arial, sans-serif" font-size="10" fill="#333">• Voltage: 6V - 500V</text>
    <text x="300" y="175" font-family="Arial, sans-serif" font-size="10" fill="#333">• Polarized (DC only)</text>
    <text x="300" y="190" font-family="Arial, sans-serif" font-size="10" fill="#333">• High capacitance</text>
    <text x="300" y="205" font-family="Arial, sans-serif" font-size="10" fill="#333">• Temperature sensitive</text>

    <!-- Film Capacitors -->
    <rect x="530" y="40" width="220" height="170" rx="5" fill="#ffffff" stroke="#7b1fa2" stroke-width="1.5"/>
    <text x="640" y="60" text-anchor="middle" font-family="Arial, sans-serif" font-size="14" font-weight="bold" fill="#6a1b9a">Film Capacitors</text>

    <!-- Film Capacitor Diagram -->
    <g transform="translate(560, 70)">
      <rect x="0" y="0" width="50" height="30" rx="3" fill="#ff5722" stroke="#333" stroke-width="1"/>
      <rect x="5" y="5" width="40" height="20" fill="#ffeb3b"/>

      <text x="25" y="40" text-anchor="middle" font-family="Arial, sans-serif" font-size="8" fill="#333">Plastic Film</text>

      <!-- Leads -->
      <line x1="15" y1="30" x2="15" y2="40" stroke="#333" stroke-width="2"/>
      <line x1="35" y1="30" x2="35" y2="40" stroke="#333" stroke-width="2"/>
    </g>

    <text x="540" y="130" font-family="Arial, sans-serif" font-size="11" font-weight="bold" fill="#6a1b9a">Types:</text>
    <text x="540" y="145" font-family="Arial, sans-serif" font-size="10" fill="#333">• Polyester (PET)</text>
    <text x="540" y="160" font-family="Arial, sans-serif" font-size="10" fill="#333">• Polypropylene (PP)</text>
    <text x="540" y="175" font-family="Arial, sans-serif" font-size="10" fill="#333">• Range: 100pF - 100µF</text>
    <text x="540" y="190" font-family="Arial, sans-serif" font-size="10" fill="#333">• Excellent stability</text>
    <text x="540" y="205" font-family="Arial, sans-serif" font-size="10" fill="#333">• Low loss, non-polarized</text>

    <!-- Tantalum Capacitors -->
    <rect x="770" y="40" width="220" height="170" rx="5" fill="#ffffff" stroke="#7b1fa2" stroke-width="1.5"/>
    <text x="880" y="60" text-anchor="middle" font-family="Arial, sans-serif" font-size="14" font-weight="bold" fill="#6a1b9a">Tantalum Capacitors</text>

    <!-- Tantalum Capacitor Diagram -->
    <g transform="translate(810, 70)">
      <rect x="0" y="0" width="35" height="20" rx="2" fill="#ff9800" stroke="#333" stroke-width="1"/>

      <!-- Polarity markings -->
      <text x="-8" y="8" font-family="Arial, sans-serif" font-size="10" font-weight="bold" fill="#d32f2f">+</text>
      <rect x="30" y="8" width="8" height="4" fill="#333"/>

      <text x="17" y="35" text-anchor="middle" font-family="Arial, sans-serif" font-size="8" fill="#333">SMD Package</text>

      <!-- Leads -->
      <rect x="5" y="20" width="3" height="8" fill="#c0c0c0"/>
      <rect x="27" y="20" width="3" height="8" fill="#c0c0c0"/>
    </g>

    <text x="780" y="130" font-family="Arial, sans-serif" font-size="11" font-weight="bold" fill="#6a1b9a">Characteristics:</text>
    <text x="780" y="145" font-family="Arial, sans-serif" font-size="10" fill="#333">• Range: 0.1µF - 1000µF</text>
    <text x="780" y="160" font-family="Arial, sans-serif" font-size="10" fill="#333">• Voltage: 6V - 75V</text>
    <text x="780" y="175" font-family="Arial, sans-serif" font-size="10" fill="#333">• Polarized, stable</text>
    <text x="780" y="190" font-family="Arial, sans-serif" font-size="10" fill="#333">• High capacitance density</text>
    <text x="780" y="205" font-family="Arial, sans-serif" font-size="10" fill="#333">• Expensive, reliable</text>

    <!-- Variable Capacitors -->
    <rect x="1010" y="40" width="220" height="170" rx="5" fill="#ffffff" stroke="#7b1fa2" stroke-width="1.5"/>
    <text x="1120" y="60" text-anchor="middle" font-family="Arial, sans-serif" font-size="14" font-weight="bold" fill="#6a1b9a">Variable Capacitors</text>

    <!-- Variable Capacitor Diagram -->
    <g transform="translate(1050, 70)">
      <!-- Fixed plates -->
      <g stroke="#333" stroke-width="1" fill="none">
        <path d="M 10,10 Q 25,5 40,10 Q 25,25 10,25"/>
        <path d="M 15,15 Q 25,12 35,15 Q 25,20 15,20"/>
      </g>

      <!-- Moving plates -->
      <g stroke="#d32f2f" stroke-width="1" fill="none">
        <path d="M 12,12 Q 25,8 38,12"/>
        <path d="M 12,17 Q 25,14 38,17"/>
        <path d="M 12,22 Q 25,19 38,22"/>
      </g>

      <!-- Shaft -->
      <line x1="25" y1="5" x2="25" y2="0" stroke="#666" stroke-width="2"/>
      <circle cx="25" cy="0" r="2" fill="#666"/>

      <text x="25" y="40" text-anchor="middle" font-family="Arial, sans-serif" font-size="8" fill="#333">Tuning Capacitor</text>
    </g>

    <text x="1020" y="130" font-family="Arial, sans-serif" font-size="11" font-weight="bold" fill="#6a1b9a">Types:</text>
    <text x="1020" y="145" font-family="Arial, sans-serif" font-size="10" fill="#333">• Air dielectric</text>
    <text x="1020" y="160" font-family="Arial, sans-serif" font-size="10" fill="#333">• Trimmer capacitors</text>
    <text x="1020" y="175" font-family="Arial, sans-serif" font-size="10" fill="#333">• Varicap (voltage var.)</text>
    <text x="1020" y="190" font-family="Arial, sans-serif" font-size="10" fill="#333">• Range: 10pF - 500pF</text>
    <text x="1020" y="205" font-family="Arial, sans-serif" font-size="10" fill="#333">• Tuning circuits</text>

    <!-- Super Capacitors -->
    <rect x="50" y="230" width="220" height="150" rx="5" fill="#ffffff" stroke="#7b1fa2" stroke-width="1.5"/>
    <text x="160" y="250" text-anchor="middle" font-family="Arial, sans-serif" font-size="14" font-weight="bold" fill="#6a1b9a">Super Capacitors</text>

    <!-- Super Capacitor Diagram -->
    <g transform="translate(80, 260)">
      <rect x="0" y="0" width="50" height="35" rx="3" fill="#4caf50" stroke="#333" stroke-width="2"/>
      <text x="25" y="50" text-anchor="middle" font-family="Arial, sans-serif" font-size="8" fill="#333">Ultracapacitor</text>

      <!-- Terminals -->
      <rect x="10" y="35" width="8" height="8" fill="#c0c0c0"/>
      <rect x="32" y="35" width="8" height="8" fill="#c0c0c0"/>
    </g>

    <text x="60" y="320" font-family="Arial, sans-serif" font-size="11" font-weight="bold" fill="#6a1b9a">Characteristics:</text>
    <text x="60" y="335" font-family="Arial, sans-serif" font-size="10" fill="#333">• Range: 0.1F - 3000F</text>
    <text x="60" y="350" font-family="Arial, sans-serif" font-size="10" fill="#333">• Voltage: 2.5V - 3V</text>
    <text x="60" y="365" font-family="Arial, sans-serif" font-size="10" fill="#333">• Energy storage</text>

    <!-- Mica Capacitors -->
    <rect x="290" y="230" width="220" height="150" rx="5" fill="#ffffff" stroke="#7b1fa2" stroke-width="1.5"/>
    <text x="400" y="250" text-anchor="middle" font-family="Arial, sans-serif" font-size="14" font-weight="bold" fill="#6a1b9a">Mica Capacitors</text>

    <!-- Mica Capacitor Diagram -->
    <g transform="translate(330, 260)">
      <rect x="0" y="0" width="30" height="20" rx="2" fill="#9e9e9e" stroke="#333" stroke-width="1"/>
      <rect x="35" y="5" width="15" height="10" fill="#795548"/>

      <text x="25" y="35" text-anchor="middle" font-family="Arial, sans-serif" font-size="8" fill="#333">Mica Sheet</text>
    </g>

    <text x="300" y="305" font-family="Arial, sans-serif" font-size="11" font-weight="bold" fill="#6a1b9a">Characteristics:</text>
    <text x="300" y="320" font-family="Arial, sans-serif" font-size="10" fill="#333">• Range: 1pF - 0.1µF</text>
    <text x="300" y="335" font-family="Arial, sans-serif" font-size="10" fill="#333">• High precision</text>
    <text x="300" y="350" font-family="Arial, sans-serif" font-size="10" fill="#333">• Temperature stable</text>
    <text x="300" y="365" font-family="Arial, sans-serif" font-size="10" fill="#333">• RF applications</text>

    <!-- Comparison Table -->
    <g transform="translate(550, 230)">
      <text x="200" y="20" text-anchor="middle" font-family="Arial, sans-serif" font-size="14" font-weight="bold" fill="#6a1b9a">Comparison Table</text>

      <rect x="0" y="30" width="400" height="120" rx="5" fill="#ffffff" stroke="#7b1fa2" stroke-width="1.5"/>

      <!-- Header -->
      <rect x="10" y="40" width="80" height="20" fill="#e1bee7"/>
      <text x="50" y="53" text-anchor="middle" font-family="Arial, sans-serif" font-size="9" font-weight="bold">Type</text>

      <rect x="90" y="40" width="70" height="20" fill="#e1bee7"/>
      <text x="125" y="53" text-anchor="middle" font-family="Arial, sans-serif" font-size="9" font-weight="bold">Range</text>

      <rect x="160" y="40" width="70" height="20" fill="#e1bee7"/>
      <text x="195" y="53" text-anchor="middle" font-family="Arial, sans-serif" font-size="9" font-weight="bold">Voltage</text>

      <rect x="230" y="40" width="70" height="20" fill="#e1bee7"/>
      <text x="265" y="53" text-anchor="middle" font-family="Arial, sans-serif" font-size="9" font-weight="bold">Cost</text>

      <rect x="300" y="40" width="80" height="20" fill="#e1bee7"/>
      <text x="340" y="53" text-anchor="middle" font-family="Arial, sans-serif" font-size="9" font-weight="bold">Application</text>

      <!-- Rows -->
      <text x="15" y="73" font-family="Arial, sans-serif" font-size="8">Ceramic</text>
      <text x="95" y="73" font-family="Arial, sans-serif" font-size="8">pF-µF</text>
      <text x="165" y="73" font-family="Arial, sans-serif" font-size="8">25V-3kV</text>
      <text x="235" y="73" font-family="Arial, sans-serif" font-size="8">Low</text>
      <text x="305" y="73" font-family="Arial, sans-serif" font-size="8">General</text>

      <text x="15" y="88" font-family="Arial, sans-serif" font-size="8">Electrolytic</text>
      <text x="95" y="88" font-family="Arial, sans-serif" font-size="8">µF-mF</text>
      <text x="165" y="88" font-family="Arial, sans-serif" font-size="8">6V-500V</text>
      <text x="235" y="88" font-family="Arial, sans-serif" font-size="8">Low</text>
      <text x="305" y="88" font-family="Arial, sans-serif" font-size="8">Power supply</text>

      <text x="15" y="103" font-family="Arial, sans-serif" font-size="8">Film</text>
      <text x="95" y="103" font-family="Arial, sans-serif" font-size="8">pF-µF</text>
      <text x="165" y="103" font-family="Arial, sans-serif" font-size="8">50V-2kV</text>
      <text x="235" y="103" font-family="Arial, sans-serif" font-size="8">Medium</text>
      <text x="305" y="103" font-family="Arial, sans-serif" font-size="8">Audio, timing</text>

      <text x="15" y="118" font-family="Arial, sans-serif" font-size="8">Tantalum</text>
      <text x="95" y="118" font-family="Arial, sans-serif" font-size="8">µF</text>
      <text x="165" y="118" font-family="Arial, sans-serif" font-size="8">6V-75V</text>
      <text x="235" y="118" font-family="Arial, sans-serif" font-size="8">High</text>
      <text x="305" y="118" font-family="Arial, sans-serif" font-size="8">SMD, reliable</text>

      <text x="15" y="133" font-family="Arial, sans-serif" font-size="8">Super</text>
      <text x="95" y="133" font-family="Arial, sans-serif" font-size="8">F</text>
      <text x="165" y="133" font-family="Arial, sans-serif" font-size="8">&lt;3V</text>
      <text x="235" y="133" font-family="Arial, sans-serif" font-size="8">High</text>
      <text x="305" y="133" font-family="Arial, sans-serif" font-size="8">Energy storage</text>
    </g>
  </g>

  <!-- Applications -->
  <g transform="translate(50, 700)">
    <text x="750" y="0" text-anchor="middle" font-family="Arial, sans-serif" font-size="20" font-weight="bold" fill="#388e3c">Capacitor Applications</text>

    <rect x="0" y="20" width="1500" height="280" rx="10" fill="url(#applicationsGrad)" stroke="#388e3c" stroke-width="2" filter="url(#shadow)"/>

    <!-- Power Supply Filtering -->
    <rect x="50" y="40" width="280" height="120" rx="5" fill="#ffffff" stroke="#388e3c" stroke-width="1.5"/>
    <text x="190" y="60" text-anchor="middle" font-family="Arial, sans-serif" font-size="14" font-weight="bold" fill="#2e7d32">Power Supply Filtering</text>

    <g transform="translate(70, 70)">
      <!-- Circuit diagram -->
      <text x="20" y="15" font-family="Arial, sans-serif" font-size="10" fill="#333">AC Input</text>
      <rect x="60" y="10" width="30" height="15" fill="#ff9800" stroke="#333"/>
      <text x="75" y="20" text-anchor="middle" font-family="Arial, sans-serif" font-size="8" fill="#333">Rectifier</text>

      <!-- Filter capacitor -->
      <line x1="120" y1="15" x2="130" y2="15" stroke="#333" stroke-width="1"/>
      <line x1="135" y1="15" x2="145" y2="15" stroke="#333" stroke-width="1"/>
      <line x1="130" y1="10" x2="130" y2="20" stroke="#333" stroke-width="2"/>
      <line x1="135" y1="10" x2="135" y2="20" stroke="#333" stroke-width="2"/>

      <text x="132" y="35" text-anchor="middle" font-family="Arial, sans-serif" font-size="8" fill="#333">Filter C</text>

      <text x="170" y="15" font-family="Arial, sans-serif" font-size="10" fill="#333">DC Output</text>
    </g>

    <text x="60" y="130" font-family="Arial, sans-serif" font-size="11" fill="#333">• Smooths rectified DC</text>
    <text x="60" y="145" font-family="Arial, sans-serif" font-size="11" fill="#333">• Reduces ripple voltage</text>

    <!-- Coupling and Decoupling -->
    <rect x="350" y="40" width="280" height="120" rx="5" fill="#ffffff" stroke="#388e3c" stroke-width="1.5"/>
    <text x="490" y="60" text-anchor="middle" font-family="Arial, sans-serif" font-size="14" font-weight="bold" fill="#2e7d32">Coupling &amp; Decoupling</text>

    <g transform="translate(370, 70)">
      <!-- AC coupling -->
      <text x="20" y="15" font-family="Arial, sans-serif" font-size="9" fill="#333">Stage 1</text>
      <rect x="50" y="8" width="20" height="12" fill="#2196f3" stroke="#333"/>

      <!-- Coupling capacitor -->
      <line x1="80" y1="14" x2="90" y2="14" stroke="#333" stroke-width="1"/>
      <line x1="95" y1="14" x2="105" y2="14" stroke="#333" stroke-width="1"/>
      <line x1="90" y1="9" x2="90" y2="19" stroke="#333" stroke-width="2"/>
      <line x1="95" y1="9" x2="95" y2="19" stroke="#333" stroke-width="2"/>

      <rect x="115" y="8" width="20" height="12" fill="#2196f3" stroke="#333"/>
      <text x="125" y="30" font-family="Arial, sans-serif" font-size="9" fill="#333">Stage 2</text>

      <text x="92" y="35" text-anchor="middle" font-family="Arial, sans-serif" font-size="8" fill="#333">Coupling</text>
    </g>

    <text x="360" y="115" font-family="Arial, sans-serif" font-size="11" fill="#333">• AC signal coupling</text>
    <text x="360" y="130" font-family="Arial, sans-serif" font-size="11" fill="#333">• DC blocking</text>
    <text x="360" y="145" font-family="Arial, sans-serif" font-size="11" fill="#333">• Power supply decoupling</text>

    <!-- Timing Circuits -->
    <rect x="650" y="40" width="280" height="120" rx="5" fill="#ffffff" stroke="#388e3c" stroke-width="1.5"/>
    <text x="790" y="60" text-anchor="middle" font-family="Arial, sans-serif" font-size="14" font-weight="bold" fill="#2e7d32">Timing Circuits</text>

    <g transform="translate(670, 70)">
      <!-- RC timing circuit -->
      <rect x="20" y="5" width="15" height="8" fill="#8bc34a" stroke="#333"/>
      <text x="27" y="18" text-anchor="middle" font-family="Arial, sans-serif" font-size="8" fill="#333">R</text>

      <line x1="50" y1="9" x2="60" y2="9" stroke="#333" stroke-width="1"/>
      <line x1="65" y1="9" x2="75" y2="9" stroke="#333" stroke-width="1"/>
      <line x1="60" y1="4" x2="60" y2="14" stroke="#333" stroke-width="2"/>
      <line x1="65" y1="4" x2="65" y2="14" stroke="#333" stroke-width="2"/>

      <text x="62" y="25" text-anchor="middle" font-family="Arial, sans-serif" font-size="8" fill="#333">C</text>

      <text x="100" y="12" font-family="Arial, sans-serif" font-size="9" fill="#333">τ = RC</text>
    </g>

    <text x="660" y="115" font-family="Arial, sans-serif" font-size="11" fill="#333">• RC time constants</text>
    <text x="660" y="130" font-family="Arial, sans-serif" font-size="11" fill="#333">• Oscillators</text>
    <text x="660" y="145" font-family="Arial, sans-serif" font-size="11" fill="#333">• Delay circuits</text>

    <!-- Motor Starting -->
    <rect x="950" y="40" width="280" height="120" rx="5" fill="#ffffff" stroke="#388e3c" stroke-width="1.5"/>
    <text x="1090" y="60" text-anchor="middle" font-family="Arial, sans-serif" font-size="14" font-weight="bold" fill="#2e7d32">Motor Starting</text>

    <g transform="translate(980, 70)">
      <!-- Motor circuit -->
      <circle cx="60" cy="20" r="15" fill="none" stroke="#333" stroke-width="2"/>
      <text x="60" y="25" text-anchor="middle" font-family="Arial, sans-serif" font-size="8" fill="#333">M</text>

      <!-- Start capacitor -->
      <line x1="30" y1="10" x2="40" y2="10" stroke="#333" stroke-width="1"/>
      <line x1="45" y1="10" x2="55" y2="10" stroke="#333" stroke-width="1"/>
      <line x1="40" y1="5" x2="40" y2="15" stroke="#333" stroke-width="2"/>
      <line x1="45" y1="5" x2="45" y2="15" stroke="#333" stroke-width="2"/>

      <text x="42" y="35" text-anchor="middle" font-family="Arial, sans-serif" font-size="8" fill="#333">Start Cap</text>
    </g>

    <text x="960" y="115" font-family="Arial, sans-serif" font-size="11" fill="#333">• Single-phase motors</text>
    <text x="960" y="130" font-family="Arial, sans-serif" font-size="11" fill="#333">• Phase shift for starting</text>
    <text x="960" y="145" font-family="Arial, sans-serif" font-size="11" fill="#333">• Run capacitors</text>

    <!-- Tuning Circuits -->
    <rect x="50" y="180" width="280" height="100" rx="5" fill="#ffffff" stroke="#388e3c" stroke-width="1.5"/>
    <text x="190" y="200" text-anchor="middle" font-family="Arial, sans-serif" font-size="14" font-weight="bold" fill="#2e7d32">Tuning Circuits</text>

    <g transform="translate(70, 210)">
      <!-- LC tank circuit -->
      <path d="M 20,10 Q 30,5 40,10 Q 50,15 60,10 Q 70,5 80,10" stroke="#333" stroke-width="2" fill="none"/>
      <text x="50" y="30" text-anchor="middle" font-family="Arial, sans-serif" font-size="8" fill="#333">L</text>

      <line x1="100" y1="5" x2="110" y2="5" stroke="#333" stroke-width="1"/>
      <line x1="115" y1="5" x2="125" y2="5" stroke="#333" stroke-width="1"/>
      <line x1="110" y1="0" x2="110" y2="10" stroke="#333" stroke-width="2"/>
      <line x1="115" y1="0" x2="115" y2="10" stroke="#333" stroke-width="2"/>

      <text x="112" y="25" text-anchor="middle" font-family="Arial, sans-serif" font-size="8" fill="#333">C</text>

      <text x="150" y="8" font-family="Arial, sans-serif" font-size="9" fill="#333">f₀ = 1/(2π√LC)</text>
    </g>

    <text x="60" y="250" font-family="Arial, sans-serif" font-size="11" fill="#333">• Radio frequency selection</text>
    <text x="60" y="265" font-family="Arial, sans-serif" font-size="11" fill="#333">• LC resonant circuits</text>

    <!-- Energy Storage -->
    <rect x="350" y="180" width="280" height="100" rx="5" fill="#ffffff" stroke="#388e3c" stroke-width="1.5"/>
    <text x="490" y="200" text-anchor="middle" font-family="Arial, sans-serif" font-size="14" font-weight="bold" fill="#2e7d32">Energy Storage</text>

    <text x="360" y="225" font-family="Arial, sans-serif" font-size="11" fill="#333">• Flash photography</text>
    <text x="360" y="240" font-family="Arial, sans-serif" font-size="11" fill="#333">• Backup power systems</text>
    <text x="360" y="255" font-family="Arial, sans-serif" font-size="11" fill="#333">• Pulse applications</text>
    <text x="360" y="270" font-family="Arial, sans-serif" font-size="11" fill="#333">• Supercapacitor banks</text>

    <!-- Filters -->
    <rect x="650" y="180" width="280" height="100" rx="5" fill="#ffffff" stroke="#388e3c" stroke-width="1.5"/>
    <text x="790" y="200" text-anchor="middle" font-family="Arial, sans-serif" font-size="14" font-weight="bold" fill="#2e7d32">Filters</text>

    <text x="660" y="225" font-family="Arial, sans-serif" font-size="11" fill="#333">• High-pass filters (HPF)</text>
    <text x="660" y="240" font-family="Arial, sans-serif" font-size="11" fill="#333">• Low-pass filters (LPF)</text>
    <text x="660" y="255" font-family="Arial, sans-serif" font-size="11" fill="#333">• Band-pass filters (BPF)</text>
    <text x="660" y="270" font-family="Arial, sans-serif" font-size="11" fill="#333">• Crossover networks</text>

    <!-- Power Factor Correction -->
    <rect x="950" y="180" width="280" height="100" rx="5" fill="#ffffff" stroke="#388e3c" stroke-width="1.5"/>
    <text x="1090" y="200" text-anchor="middle" font-family="Arial, sans-serif" font-size="14" font-weight="bold" fill="#2e7d32">Power Factor Correction</text>

    <text x="960" y="225" font-family="Arial, sans-serif" font-size="11" fill="#333">• Industrial motor loads</text>
    <text x="960" y="240" font-family="Arial, sans-serif" font-size="11" fill="#333">• Reactive power compensation</text>
    <text x="960" y="255" font-family="Arial, sans-serif" font-size="11" fill="#333">• Efficiency improvement</text>
    <text x="960" y="270" font-family="Arial, sans-serif" font-size="11" fill="#333">• Utility cost reduction</text>
  </g>

  <!-- Safety and Testing -->
  <g transform="translate(50, 1020)">
    <rect x="0" y="0" width="1500" height="160" rx="10" fill="#ffebee" stroke="#d32f2f" stroke-width="2" filter="url(#shadow)"/>
    <text x="750" y="25" text-anchor="middle" font-family="Arial, sans-serif" font-size="18" font-weight="bold" fill="#c62828">Safety &amp; Testing</text>

    <!-- Safety Precautions -->
    <rect x="50" y="40" width="350" height="100" rx="5" fill="#ffffff" stroke="#d32f2f" stroke-width="1.5"/>
    <text x="225" y="60" text-anchor="middle" font-family="Arial, sans-serif" font-size="14" font-weight="bold" fill="#c62828">Safety Precautions</text>

    <text x="60" y="80" font-family="Arial, sans-serif" font-size="11" fill="#333">⚠️ Electrolytic capacitors can retain charge even when disconnected</text>
    <text x="60" y="95" font-family="Arial, sans-serif" font-size="11" fill="#333">⚠️ Always discharge large capacitors before handling</text>
    <text x="60" y="110" font-family="Arial, sans-serif" font-size="11" fill="#333">⚠️ Observe polarity on polarized capacitors</text>
    <text x="60" y="125" font-family="Arial, sans-serif" font-size="11" fill="#333">⚠️ Do not exceed voltage ratings</text>

    <!-- Testing Methods -->
    <rect x="420" y="40" width="350" height="100" rx="5" fill="#ffffff" stroke="#d32f2f" stroke-width="1.5"/>
    <text x="595" y="60" text-anchor="middle" font-family="Arial, sans-serif" font-size="14" font-weight="bold" fill="#c62828">Testing Methods</text>

    <text x="430" y="80" font-family="Arial, sans-serif" font-size="11" fill="#333">• Capacitance measurement with LCR meter</text>
    <text x="430" y="95" font-family="Arial, sans-serif" font-size="11" fill="#333">• ESR (Equivalent Series Resistance) testing</text>
    <text x="430" y="110" font-family="Arial, sans-serif" font-size="11" fill="#333">• Leakage current measurement</text>
    <text x="430" y="125" font-family="Arial, sans-serif" font-size="11" fill="#333">• Visual inspection for bulging or leakage</text>

    <!-- Selection Criteria -->
    <rect x="790" y="40" width="350" height="100" rx="5" fill="#ffffff" stroke="#d32f2f" stroke-width="1.5"/>
    <text x="965" y="60" text-anchor="middle" font-family="Arial, sans-serif" font-size="14" font-weight="bold" fill="#c62828">Selection Criteria</text>

    <text x="800" y="80" font-family="Arial, sans-serif" font-size="11" fill="#333">• Capacitance value and tolerance</text>
    <text x="800" y="95" font-family="Arial, sans-serif" font-size="11" fill="#333">• Operating voltage and safety margin</text>
    <text x="800" y="110" font-family="Arial, sans-serif" font-size="11" fill="#333">• Temperature coefficient and stability</text>
    <text x="800" y="125" font-family="Arial, sans-serif" font-size="11" fill="#333">• Physical size and mounting requirements</text>

    <!-- Failure Modes -->
    <rect x="1160" y="40" width="290" height="100" rx="5" fill="#ffffff" stroke="#d32f2f" stroke-width="1.5"/>
    <text x="1305" y="60" text-anchor="middle" font-family="Arial, sans-serif" font-size="14" font-weight="bold" fill="#c62828">Common Failures</text>

    <text x="1170" y="80" font-family="Arial, sans-serif" font-size="11" fill="#333">• Electrolyte drying (electrolytics)</text>
    <text x="1170" y="95" font-family="Arial, sans-serif" font-size="11" fill="#333">• Dielectric breakdown</text>
    <text x="1170" y="110" font-family="Arial, sans-serif" font-size="11" fill="#333">• Short circuit or open circuit</text>
    <text x="1170" y="125" font-family="Arial, sans-serif" font-size="11" fill="#333">• Capacitance drift over time</text>
  </g>

  <!-- Footer -->
  <text x="800" y="1350" text-anchor="middle" font-family="Arial, sans-serif" font-size="14" fill="#666">
    Capacitors: Essential Components for Energy Storage, Filtering, and Signal Processing
  </text>
  <text x="800" y="1370" text-anchor="middle" font-family="Arial, sans-serif" font-size="12" fill="#999">
    Understanding construction, characteristics, and applications for proper selection and use
  </text>
</svg>