<svg viewBox="0 0 1200 800" xmlns="http://www.w3.org/2000/svg">
  <defs>
    <linearGradient id="voltageGrad" x1="0%" y1="0%" x2="100%" y2="100%">
      <stop offset="0%" style="stop-color:#DC2626;stop-opacity:1" />
      <stop offset="100%" style="stop-color:#991B1B;stop-opacity:1" />
    </linearGradient>
    <linearGradient id="meshGrad" x1="0%" y1="0%" x2="100%" y2="100%">
      <stop offset="0%" style="stop-color:#7C3AED;stop-opacity:1" />
      <stop offset="100%" style="stop-color:#5B21B6;stop-opacity:1" />
    </linearGradient>
    <linearGradient id="resistorGrad" x1="0%" y1="0%" x2="100%" y2="100%">
      <stop offset="0%" style="stop-color:#F59E0B;stop-opacity:1" />
      <stop offset="100%" style="stop-color:#D97706;stop-opacity:1" />
    </linearGradient>
    <linearGradient id="sourceGrad" x1="0%" y1="0%" x2="100%" y2="100%">
      <stop offset="0%" style="stop-color:#10B981;stop-opacity:1" />
      <stop offset="100%" style="stop-color:#059669;stop-opacity:1" />
    </linearGradient>
    <marker id="voltageArrow" markerWidth="10" markerHeight="7" refX="9" refY="3.5" orient="auto">
      <polygon points="0 0, 10 3.5, 0 7" fill="#DC2626"/>
    </marker>
    <marker id="meshArrow" markerWidth="10" markerHeight="7" refX="9" refY="3.5" orient="auto">
      <polygon points="0 0, 10 3.5, 0 7" fill="#7C3AED"/>
    </marker>
    <filter id="glow">
      <feGaussianBlur stdDeviation="2" result="coloredBlur"/>
      <feMerge> 
        <feMergeNode in="coloredBlur"/>
        <feMergeNode in="SourceGraphic"/>
      </feMerge>
    </filter>
  </defs>

  <!-- Background -->
  <rect width="1200" height="800" fill="#F8FAFC"/>
  
  <!-- Title -->
  <text x="600" y="40" text-anchor="middle" font-family="Arial, sans-serif" font-size="28" font-weight="bold" fill="#1E293B">Kirchhoff's Voltage Law (KVL) &amp; Mesh Analysis</text>
  
  <!-- KVL Statement -->
  <g transform="translate(50,80)">
    <rect x="0" y="0" width="500" height="120" fill="#FEE2E2" stroke="#DC2626" stroke-width="3" rx="10"/>
    <text x="250" y="30" text-anchor="middle" font-family="Arial, sans-serif" font-size="20" font-weight="bold" fill="#1E293B">Kirchhoff's Voltage Law</text>
    <text x="250" y="55" text-anchor="middle" font-family="Arial, sans-serif" font-size="16" fill="#991B1B">"The algebraic sum of all voltages around any closed loop is zero"</text>
    <text x="250" y="80" text-anchor="middle" font-family="Arial, sans-serif" font-size="18" font-weight="bold" fill="#DC2626">Σ V_loop = 0</text>
    <text x="250" y="100" text-anchor="middle" font-family="Arial, sans-serif" font-size="16" font-weight="bold" fill="#059669">Σ V_rises = Σ V_drops</text>
  </g>

  <!-- Physical Basis -->
  <g transform="translate(570,80)">
    <rect x="0" y="0" width="300" height="120" fill="#F3E8FF" stroke="#8B5CF6" stroke-width="2" rx="8"/>
    <text x="150" y="25" text-anchor="middle" font-family="Arial, sans-serif" font-size="18" font-weight="bold" fill="#1E293B">Physical Basis</text>
    <text x="150" y="45" text-anchor="middle" font-family="Arial, sans-serif" font-size="14" fill="#5B21B6">Conservation of Energy</text>
    <text x="20" y="70" font-family="Arial, sans-serif" font-size="12" fill="#374151">• Energy supplied = Energy consumed</text>
    <text x="20" y="85" font-family="Arial, sans-serif" font-size="12" fill="#374151">• Work done around closed path = 0</text>
    <text x="20" y="100" font-family="Arial, sans-serif" font-size="12" fill="#374151">• Conservative electric field</text>
  </g>

  <!-- Simple Loop Example -->
  <g transform="translate(100,220)">
    <rect x="0" y="0" width="400" height="250" fill="#F0FDF4" stroke="#BBF7D0" stroke-width="2" rx="8"/>
    <text x="200" y="25" text-anchor="middle" font-family="Arial, sans-serif" font-size="18" font-weight="bold" fill="#1E293B">Simple Loop Analysis</text>
    
    <!-- Circuit components -->
    <!-- Voltage source -->
    <g transform="translate(80,100)">
      <circle r="25" fill="none" stroke="url(#sourceGrad)" stroke-width="3"/>
      <text y="5" text-anchor="middle" font-family="Arial, sans-serif" font-size="14" font-weight="bold" fill="#059669">12V</text>
      <text x="-10" y="-35" font-family="Arial, sans-serif" font-size="12" fill="#059669">+</text>
      <text x="-10" y="45" font-family="Arial, sans-serif" font-size="12" fill="#059669">−</text>
    </g>
    
    <!-- Resistor 1 -->
    <g transform="translate(200,70)">
      <rect x="-30" y="-8" width="60" height="16" fill="url(#resistorGrad)" stroke="#D97706" stroke-width="2" rx="8"/>
      <path d="M -20,0 L -10,-5 L 0,5 L 10,-5 L 20,0" stroke="white" stroke-width="2" fill="none"/>
      <text x="0" y="-25" text-anchor="middle" font-family="Arial, sans-serif" font-size="12" fill="#1E293B">R₁ = 4Ω</text>
      <text x="0" y="35" text-anchor="middle" font-family="Arial, sans-serif" font-size="11" fill="#DC2626">V₁ = I×R₁</text>
    </g>
    
    <!-- Resistor 2 -->
    <g transform="translate(320,100)">
      <rect x="-8" y="-30" width="16" height="60" fill="url(#resistorGrad)" stroke="#D97706" stroke-width="2" rx="8"/>
      <path d="M 0,-20 L -5,-10 L 5,0 L -5,10 L 0,20" stroke="white" stroke-width="2" fill="none"/>
      <text x="35" y="0" font-family="Arial, sans-serif" font-size="12" fill="#1E293B">R₂</text>
      <text x="35" y="12" font-family="Arial, sans-serif" font-size="12" fill="#1E293B">2Ω</text>
      <text x="25" y="-15" font-family="Arial, sans-serif" font-size="11" fill="#DC2626">V₂</text>
    </g>
    
    <!-- Resistor 3 -->
    <g transform="translate(200,130)">
      <rect x="-30" y="-8" width="60" height="16" fill="url(#resistorGrad)" stroke="#D97706" stroke-width="2" rx="8"/>
      <path d="M -20,0 L -10,-5 L 0,5 L 10,-5 L 20,0" stroke="white" stroke-width="2" fill="none"/>
      <text x="0" y="30" text-anchor="middle" font-family="Arial, sans-serif" font-size="12" fill="#1E293B">R₃ = 6Ω</text>
      <text x="0" y="-25" text-anchor="middle" font-family="Arial, sans-serif" font-size="11" fill="#DC2626">V₃ = I×R₃</text>
    </g>
    
    <!-- Connecting wires -->
    <line x1="105" y1="100" x2="170" y2="70" stroke="#374151" stroke-width="3"/>
    <line x1="230" y1="70" x2="320" y2="70" stroke="#374151" stroke-width="3"/>
    <line x1="320" y1="70" x2="320" y2="130" stroke="#374151" stroke-width="3"/>
    <line x1="320" y1="130" x2="230" y2="130" stroke="#374151" stroke-width="3"/>
    <line x1="170" y1="130" x2="80" y2="100" stroke="#374151" stroke-width="3"/>
    
    <!-- Loop current -->
    <g transform="translate(200,100)" stroke="#7C3AED" stroke-width="3" fill="none">
      <circle r="40" stroke-dasharray="5,5" opacity="0.7"/>
      <polygon points="30,-25 40,-20 30,-15" fill="#7C3AED"/>
      <text x="0" y="5" text-anchor="middle" font-family="Arial, sans-serif" font-size="14" font-weight="bold" fill="#7C3AED">I = 1A</text>
    </g>
    
    <!-- Voltage polarities -->
    <g stroke="#DC2626" stroke-width="2" fill="#DC2626">
      <!-- V1 polarity -->
      <line x1="175" y1="65" x2="185" y2="65" marker-end="url(#voltageArrow)"/>
      <text x="165" y="60" font-family="Arial, sans-serif" font-size="10" fill="#DC2626">+</text>
      <text x="215" y="60" font-family="Arial, sans-serif" font-size="10" fill="#DC2626">−</text>
      
      <!-- V2 polarity -->
      <line x1="325" y1="85" x2="325" y2="95" marker-end="url(#voltageArrow)"/>
      <text x="335" y="85" font-family="Arial, sans-serif" font-size="10" fill="#DC2626">+</text>
      <text x="335" y="115" font-family="Arial, sans-serif" font-size="10" fill="#DC2626">−</text>
      
      <!-- V3 polarity -->
      <line x1="215" y1="135" x2="205" y2="135" marker-end="url(#voltageArrow)"/>
      <text x="220" y="140" font-family="Arial, sans-serif" font-size="10" fill="#DC2626">+</text>
      <text x="180" y="140" font-family="Arial, sans-serif" font-size="10" fill="#DC2626">−</text>
    </g>
    
    <!-- KVL equation -->
    <rect x="50" y="180" width="300" height="50" fill="#F0F9FF" stroke="#0EA5E9" stroke-width="1" rx="5"/>
    <text x="200" y="200" text-anchor="middle" font-family="Arial, sans-serif" font-size="14" font-weight="bold" fill="#1E293B">KVL: 12V - 4V - 2V - 6V = 0</text>
    <text x="200" y="215" text-anchor="middle" font-family="Arial, sans-serif" font-size="12" fill="#6B7280">V_source = V₁ + V₂ + V₃</text>
    <text x="200" y="228" text-anchor="middle" font-family="Arial, sans-serif" font-size="11" fill="#059669">12V = 1A(4Ω + 2Ω + 6Ω) = 12V ✓</text>
  </g>

  <!-- Mesh Analysis Method -->
  <g transform="translate(520,220)">
    <rect x="0" y="0" width="400" height="250" fill="#FEF3C7" stroke="#F59E0B" stroke-width="2" rx="8"/>
    <text x="200" y="25" text-anchor="middle" font-family="Arial, sans-serif" font-size="18" font-weight="bold" fill="#1E293B">Mesh Analysis Method</text>
    
    <!-- Two-mesh circuit -->
    <!-- Left mesh -->
    <g transform="translate(100,80)">
      <!-- Voltage source -->
      <circle cx="0" cy="30" r="20" fill="none" stroke="#059669" stroke-width="3"/>
      <text x="0" y="35" text-anchor="middle" font-family="Arial, sans-serif" font-size="10" font-weight="bold" fill="#059669">15V</text>
      
      <!-- R1 -->
      <rect x="-25" y="-8" width="50" height="16" fill="url(#resistorGrad)" stroke="#D97706" stroke-width="2" rx="8"/>
      <path d="M -15,0 L -5,-5 L 5,5 L 15,-5 L 25,0" stroke="white" stroke-width="2" fill="none"/>
      <text x="0" y="-20" text-anchor="middle" font-family="Arial, sans-serif" font-size="10" fill="#1E293B">5Ω</text>
      
      <!-- R2 (shared) -->
      <rect x="48" y="20" width="16" height="40" fill="url(#resistorGrad)" stroke="#D97706" stroke-width="2" rx="8"/>
      <path d="M 56,30 L 51,35 L 61,45 L 51,55 L 56,60" stroke="white" stroke-width="2" fill="none"/>
      <text x="75" y="45" font-family="Arial, sans-serif" font-size="10" fill="#1E293B">3Ω</text>
      
      <!-- Connecting wires left mesh -->
      <line x1="0" y1="8" x2="0" y2="10" stroke="#374151" stroke-width="2"/>
      <line x1="25" y1="0" x2="56" y2="20" stroke="#374151" stroke-width="2"/>
      <line x1="56" y1="60" x2="0" y2="50" stroke="#374151" stroke-width="2"/>
      
      <!-- Mesh current I1 -->
      <g transform="translate(28,35)" stroke="#7C3AED" stroke-width="2" fill="none">
        <circle r="20" stroke-dasharray="3,3" opacity="0.7"/>
        <polygon points="15,-10 20,-5 15,0" fill="#7C3AED"/>
        <text x="0" y="5" text-anchor="middle" font-family="Arial, sans-serif" font-size="11" font-weight="bold" fill="#7C3AED">I₁</text>
      </g>
    </g>
    
    <!-- Right mesh -->
    <g transform="translate(220,80)">
      <!-- R3 -->
      <rect x="-25" y="-8" width="50" height="16" fill="url(#resistorGrad)" stroke="#D97706" stroke-width="2" rx="8"/>
      <path d="M -15,0 L -5,-5 L 5,5 L 15,-5 L 25,0" stroke="white" stroke-width="2" fill="none"/>
      <text x="0" y="-20" text-anchor="middle" font-family="Arial, sans-serif" font-size="10" fill="#1E293B">4Ω</text>
      
      <!-- R4 -->
      <rect x="-8" y="50" width="16" height="40" fill="url(#resistorGrad)" stroke="#D97706" stroke-width="2" rx="8"/>
      <path d="M 0,60 L -5,65 L 5,75 L -5,85 L 0,90" stroke="white" stroke-width="2" fill="none"/>
      <text x="20" y="75" font-family="Arial, sans-serif" font-size="10" fill="#1E293B">2Ω</text>
      
      <!-- Connecting wires right mesh -->
      <line x1="-25" y1="0" x2="-56" y2="20" stroke="#374151" stroke-width="2"/>
      <line x1="25" y1="0" x2="0" y2="50" stroke="#374151" stroke-width="2"/>
      <line x1="0" y1="90" x2="-56" y2="60" stroke="#374151" stroke-width="2"/>
      
      <!-- Mesh current I2 -->
      <g transform="translate(-28,35)" stroke="#DC2626" stroke-width="2" fill="none">
        <circle r="20" stroke-dasharray="3,3" opacity="0.7"/>
        <polygon points="15,-10 20,-5 15,0" fill="#DC2626"/>
        <text x="0" y="5" text-anchor="middle" font-family="Arial, sans-serif" font-size="11" font-weight="bold" fill="#DC2626">I₂</text>
      </g>
    </g>
    
    <!-- Mesh equations -->
    <rect x="50" y="180" width="300" height="50" fill="#F3E8FF" stroke="#8B5CF6" stroke-width="1" rx="5"/>
    <text x="200" y="195" text-anchor="middle" font-family="Arial, sans-serif" font-size="11" font-weight="bold" fill="#1E293B">Mesh 1: 15 = 5I₁ + 3(I₁ - I₂)</text>
    <text x="200" y="210" text-anchor="middle" font-family="Arial, sans-serif" font-size="11" font-weight="bold" fill="#1E293B">Mesh 2: 0 = 4I₂ + 2I₂ + 3(I₂ - I₁)</text>
    <text x="200" y="225" text-anchor="middle" font-family="Arial, sans-serif" font-size="10" fill="#059669">Solution: I₁ = 2.5A, I₂ = 1.25A</text>
  </g>

  <!-- Sign Convention -->
  <g transform="translate(50,490)">
    <rect x="0" y="0" width="350" height="180" fill="#F1F5F9" stroke="#CBD5E1" stroke-width="2" rx="8"/>
    <text x="175" y="25" text-anchor="middle" font-family="Arial, sans-serif" font-size="18" font-weight="bold" fill="#1E293B">Voltage Sign Convention</text>
    
    <!-- Voltage rise -->
    <g transform="translate(80,70)">
      <rect x="-40" y="-15" width="80" height="30" fill="#DCFCE7" stroke="#16A34A" stroke-width="2" rx="5"/>
      <text x="0" y="-30" text-anchor="middle" font-family="Arial, sans-serif" font-size="12" font-weight="bold" fill="#16A34A">Voltage Rise</text>
      <text x="0" y="5" text-anchor="middle" font-family="Arial, sans-serif" font-size="14" font-weight="bold" fill="#16A34A">+</text>
      
      <!-- Current direction -->
      <line x1="-60" y1="0" x2="-45" y2="0" stroke="#10B981" stroke-width="3" marker-end="url(#meshArrow)"/>
      <text x="-70" y="-10" font-family="Arial, sans-serif" font-size="10" fill="#10B981">I</text>
      
      <!-- Polarity marks -->
      <text x="-50" y="-5" font-family="Arial, sans-serif" font-size="12" fill="#16A34A">−</text>
      <text x="45" y="-5" font-family="Arial, sans-serif" font-size="12" fill="#16A34A">+</text>
      
      <text x="0" y="50" text-anchor="middle" font-family="Arial, sans-serif" font-size="10" fill="#374151">Current enters - terminal</text>
      <text x="0" y="62" text-anchor="middle" font-family="Arial, sans-serif" font-size="10" fill="#374151">Adds to sum (+V)</text>
    </g>
    
    <!-- Voltage drop -->
    <g transform="translate(250,70)">
      <rect x="-40" y="-15" width="80" height="30" fill="#FEE2E2" stroke="#EF4444" stroke-width="2" rx="5"/>
      <text x="0" y="-30" text-anchor="middle" font-family="Arial, sans-serif" font-size="12" font-weight="bold" fill="#EF4444">Voltage Drop</text>
      <text x="0" y="5" text-anchor="middle" font-family="Arial, sans-serif" font-size="14" font-weight="bold" fill="#EF4444">−</text>
      
      <!-- Current direction -->
      <line x1="-60" y1="0" x2="-45" y2="0" stroke="#10B981" stroke-width="3" marker-end="url(#meshArrow)"/>
      <text x="-70" y="-10" font-family="Arial, sans-serif" font-size="10" fill="#10B981">I</text>
      
      <!-- Polarity marks -->
      <text x="-50" y="-5" font-family="Arial, sans-serif" font-size="12" fill="#EF4444">+</text>
      <text x="45" y="-5" font-family="Arial, sans-serif" font-size="12" fill="#EF4444">−</text>
      
      <text x="0" y="50" text-anchor="middle" font-family="Arial, sans-serif" font-size="10" fill="#374151">Current enters + terminal</text>
      <text x="0" y="62" text-anchor="middle" font-family="Arial, sans-serif" font-size="10" fill="#374151">Subtracts from sum (-V)</text>
    </g>
    
    <!-- Rule summary -->
    <rect x="20" y="140" width="310" height="30" fill="#F0F9FF" stroke="#0EA5E9" stroke-width="1" rx="5"/>
    <text x="175" y="158" text-anchor="middle" font-family="Arial, sans-serif" font-size="12" font-weight="bold" fill="#1E293B">Rule: Follow loop in direction of mesh current</text>
  </g>

  <!-- Mesh Analysis Steps -->
  <g transform="translate(420,490)">
    <rect x="0" y="0" width="350" height="180" fill="#FEF3C7" stroke="#F59E0B" stroke-width="2" rx="8"/>
    <text x="175" y="25" text-anchor="middle" font-family="Arial, sans-serif" font-size="18" font-weight="bold" fill="#1E293B">Mesh Analysis Steps</text>
    
    <g font-family="Arial, sans-serif" font-size="12" fill="#374151">
      <text x="20" y="50" font-weight="bold" fill="#7C2D12">1. Identify meshes</text>
      <text x="30" y="65">• Count independent loops</text>
      <text x="30" y="80">• Assign clockwise mesh currents</text>
      
      <text x="20" y="105" font-weight="bold" fill="#7C2D12">2. Write KVL equations</text>
      <text x="30" y="120">• Go around each mesh</text>
      <text x="30" y="135">• Apply sign convention</text>
      
      <text x="20" y="160" font-weight="bold" fill="#7C2D12">3. Solve simultaneously</text>
    </g>
  </g>

  <!-- Comparison Table -->
  <g transform="translate(790,490)">
    <rect x="0" y="0" width="350" height="180" fill="#F3E8FF" stroke="#8B5CF6" stroke-width="2" rx="8"/>
    <text x="175" y="25" text-anchor="middle" font-family="Arial, sans-serif" font-size="16" font-weight="bold" fill="#1E293B">KVL vs KCL Comparison</text>
    
    <!-- Table headers -->
    <g font-family="Arial, sans-serif" font-size="11" font-weight="bold" fill="#1E293B">
      <text x="30" y="50">Aspect</text>
      <text x="120" y="50">KVL</text>
      <text x="230" y="50">KCL</text>
    </g>
    
    <!-- Table rows -->
    <g font-family="Arial, sans-serif" font-size="10" fill="#374151">
      <rect x="20" y="55" width="310" height="15" fill="#F8FAFC" opacity="0.5"/>
      <text x="30" y="67">Applies to</text>
      <text x="120" y="67">Closed loops</text>
      <text x="230" y="67">Nodes</text>
      
      <text x="30" y="82">Conserves</text>
      <text x="120" y="82">Energy</text>
      <text x="230" y="82">Charge</text>
      
      <rect x="20" y="85" width="310" height="15" fill="#F8FAFC" opacity="0.5"/>
      <text x="30" y="97">Variables</text>
      <text x="120" y="97">Voltages</text>
      <text x="230" y="97">Currents</text>
      
      <text x="30" y="112">Method</text>
      <text x="120" y="112">Mesh analysis</text>
      <text x="230" y="112">Nodal analysis</text>
      
      <rect x="20" y="115" width="310" height="15" fill="#F8FAFC" opacity="0.5"/>
      <text x="30" y="127">Best for</text>
      <text x="120" y="127">Voltage sources</text>
      <text x="230" y="127">Current sources</text>
      
      <text x="30" y="142">Equations</text>
      <text x="120" y="142">Fewer for planar</text>
      <text x="230" y="142">Fewer for sparse</text>
      
      <rect x="20" y="145" width="310" height="15" fill="#F8FAFC" opacity="0.5"/>
      <text x="30" y="157">Units</text>
      <text x="120" y="157">Volts (V)</text>
      <text x="230" y="157">Amperes (A)</text>
    </g>
  </g>

  <!-- Applications -->
  <g transform="translate(50,690)">
    <rect x="0" y="0" width="1100" height="80" fill="#DCFCE7" stroke="#16A34A" stroke-width="2" rx="8"/>
    <text x="550" y="25" text-anchor="middle" font-family="Arial, sans-serif" font-size="18" font-weight="bold" fill="#1E293B">Applications of KVL &amp; Mesh Analysis</text>
    
    <g font-family="Arial, sans-serif" font-size="12" fill="#374151">
      <text x="30" y="45" font-weight="bold" fill="#DC2626">Circuit Design:</text>
      <text x="30" y="60">• Component sizing</text>
      
      <text x="180" y="45" font-weight="bold" fill="#059669">Power Systems:</text>
      <text x="180" y="60">• Load flow analysis</text>
      
      <text x="320" y="45" font-weight="bold" fill="#3B82F6">Electronics:</text>
      <text x="320" y="60">• Filter design</text>
      
      <text x="450" y="45" font-weight="bold" fill="#7C2D12">Simulation:</text>
      <text x="450" y="60">• SPICE analysis</text>
      
      <text x="580" y="45" font-weight="bold" fill="#8B5CF6">Fault Analysis:</text>
      <text x="580" y="60">• Short circuits</text>
      
      <text x="730" y="45" font-weight="bold" fill="#F59E0B">Optimization:</text>
      <text x="730" y="60">• Efficiency</text>
      
      <text x="850" y="45" font-weight="bold" fill="#10B981">Testing:</text>
      <text x="850" y="60">• Verification</text>
      
      <text x="970" y="45" font-weight="bold" fill="#EF4444">Safety:</text>
      <text x="970" y="60">• Protection</text>
    </g>
  </g>
</svg>