<svg viewBox="0 0 1200 800" xmlns="http://www.w3.org/2000/svg">
  <defs>
    <linearGradient id="seriesGrad" x1="0%" y1="0%" x2="100%" y2="100%">
      <stop offset="0%" style="stop-color:#3B82F6;stop-opacity:1" />
      <stop offset="100%" style="stop-color:#1E40AF;stop-opacity:1" />
    </linearGradient>
    <linearGradient id="parallelGrad" x1="0%" y1="0%" x2="100%" y2="100%">
      <stop offset="0%" style="stop-color:#DC2626;stop-opacity:1" />
      <stop offset="100%" style="stop-color:#991B1B;stop-opacity:1" />
    </linearGradient>
    <linearGradient id="resistorGrad" x1="0%" y1="0%" x2="100%" y2="100%">
      <stop offset="0%" style="stop-color:#F59E0B;stop-opacity:1" />
      <stop offset="100%" style="stop-color:#D97706;stop-opacity:1" />
    </linearGradient>
    <linearGradient id="combinedGrad" x1="0%" y1="0%" x2="100%" y2="100%">
      <stop offset="0%" style="stop-color:#10B981;stop-opacity:1" />
      <stop offset="100%" style="stop-color:#059669;stop-opacity:1" />
    </linearGradient>
    <marker id="currentArrow" markerWidth="10" markerHeight="7" refX="9" refY="3.5" orient="auto">
      <polygon points="0 0, 10 3.5, 0 7" fill="#10B981"/>
    </marker>
    <filter id="glow">
      <feGaussianBlur stdDeviation="2" result="coloredBlur"/>
      <feMerge> 
        <feMergeNode in="coloredBlur"/>
        <feMergeNode in="SourceGraphic"/>
      </feMerge>
    </filter>
  </defs>

  <!-- Background -->
  <rect width="1200" height="800" fill="#F8FAFC"/>
  
  <!-- Title -->
  <text x="600" y="40" text-anchor="middle" font-family="Arial, sans-serif" font-size="28" font-weight="bold" fill="#1E293B">Series &amp; Parallel Network Analysis</text>
  
  <!-- Series Circuit Section -->
  <g transform="translate(50,80)">
    <rect x="0" y="0" width="550" height="220" fill="url(#seriesGrad)" stroke="#1E40AF" stroke-width="3" rx="10" opacity="0.1"/>
    <rect x="0" y="0" width="550" height="220" fill="none" stroke="#1E40AF" stroke-width="3" rx="10"/>
    <text x="275" y="25" text-anchor="middle" font-family="Arial, sans-serif" font-size="20" font-weight="bold" fill="#1E293B">Series Circuit</text>
    
    <!-- Series circuit diagram -->
    <g transform="translate(50,60)">
      <!-- Voltage source -->
      <g transform="translate(0,50)">
        <circle r="20" fill="none" stroke="#DC2626" stroke-width="3"/>
        <text y="5" text-anchor="middle" font-family="Arial, sans-serif" font-size="12" font-weight="bold" fill="#DC2626">15V</text>
        <text x="-8" y="-30" font-family="Arial, sans-serif" font-size="10" fill="#DC2626">+</text>
        <text x="-8" y="40" font-family="Arial, sans-serif" font-size="10" fill="#DC2626">−</text>
      </g>
      
      <!-- Resistors in series -->
      <!-- R1 -->
      <g transform="translate(80,50)">
        <rect x="-25" y="-8" width="50" height="16" fill="url(#resistorGrad)" stroke="#D97706" stroke-width="2" rx="8"/>
        <path d="M -15,0 L -5,-5 L 5,5 L 15,-5 L 25,0" stroke="white" stroke-width="2" fill="none"/>
        <text x="0" y="-25" text-anchor="middle" font-family="Arial, sans-serif" font-size="11" fill="#1E293B">R₁ = 2Ω</text>
        <text x="0" y="30" text-anchor="middle" font-family="Arial, sans-serif" font-size="10" fill="#DC2626">V₁ = 4V</text>
      </g>
      
      <!-- R2 -->
      <g transform="translate(180,50)">
        <rect x="-25" y="-8" width="50" height="16" fill="url(#resistorGrad)" stroke="#D97706" stroke-width="2" rx="8"/>
        <path d="M -15,0 L -5,-5 L 5,5 L 15,-5 L 25,0" stroke="white" stroke-width="2" fill="none"/>
        <text x="0" y="-25" text-anchor="middle" font-family="Arial, sans-serif" font-size="11" fill="#1E293B">R₂ = 3Ω</text>
        <text x="0" y="30" text-anchor="middle" font-family="Arial, sans-serif" font-size="10" fill="#DC2626">V₂ = 6V</text>
      </g>
      
      <!-- R3 -->
      <g transform="translate(280,50)">
        <rect x="-25" y="-8" width="50" height="16" fill="url(#resistorGrad)" stroke="#D97706" stroke-width="2" rx="8"/>
        <path d="M -15,0 L -5,-5 L 5,5 L 15,-5 L 25,0" stroke="white" stroke-width="2" fill="none"/>
        <text x="0" y="-25" text-anchor="middle" font-family="Arial, sans-serif" font-size="11" fill="#1E293B">R₃ = 5Ω</text>
        <text x="0" y="30" text-anchor="middle" font-family="Arial, sans-serif" font-size="10" fill="#DC2626">V₃ = 10V</text>
      </g>
      
      <!-- Connecting wires -->
      <line x1="20" y1="50" x2="55" y2="50" stroke="#374151" stroke-width="3"/>
      <line x1="105" y1="50" x2="155" y2="50" stroke="#374151" stroke-width="3"/>
      <line x1="205" y1="50" x2="255" y2="50" stroke="#374151" stroke-width="3"/>
      <line x1="305" y1="50" x2="380" y2="50" stroke="#374151" stroke-width="3"/>
      <line x1="380" y1="50" x2="380" y2="100" stroke="#374151" stroke-width="3"/>
      <line x1="380" y1="100" x2="0" y2="100" stroke="#374151" stroke-width="3"/>
      <line x1="0" y1="100" x2="0" y2="70" stroke="#374151" stroke-width="3"/>
      
      <!-- Current arrows -->
      <g stroke="#10B981" stroke-width="2" fill="#10B981">
        <line x1="35" y1="50" x2="50" y2="50" marker-end="url(#currentArrow)"/>
        <line x1="120" y1="50" x2="135" y2="50" marker-end="url(#currentArrow)"/>
        <line x1="220" y1="50" x2="235" y2="50" marker-end="url(#currentArrow)"/>
        <text x="190" y="20" text-anchor="middle" font-family="Arial, sans-serif" font-size="14" font-weight="bold" fill="#10B981">I = 2A (same everywhere)</text>
      </g>
    </g>
    
    <!-- Series formulas -->
    <rect x="20" y="170" width="510" height="40" fill="#F0F9FF" stroke="#0EA5E9" stroke-width="1" rx="5"/>
    <g font-family="Arial, sans-serif" text-anchor="middle" fill="#1E293B">
      <text x="140" y="185" font-size="12" font-weight="bold">R_total = R₁ + R₂ + R₃</text>
      <text x="140" y="200" font-size="11" fill="#6B7280">2Ω + 3Ω + 5Ω = 10Ω</text>
      <text x="275" y="185" font-size="12" font-weight="bold">I_total = V/R_total</text>
      <text x="275" y="200" font-size="11" fill="#6B7280">15V/10Ω = 1.5A</text>
      <text x="410" y="185" font-size="12" font-weight="bold">V_total = V₁ + V₂ + V₃</text>
      <text x="410" y="200" font-size="11" fill="#6B7280">3V + 4.5V + 7.5V = 15V</text>
    </g>
  </g>

  <!-- Parallel Circuit Section -->
  <g transform="translate(620,80)">
    <rect x="0" y="0" width="530" height="220" fill="url(#parallelGrad)" stroke="#991B1B" stroke-width="3" rx="10" opacity="0.1"/>
    <rect x="0" y="0" width="530" height="220" fill="none" stroke="#991B1B" stroke-width="3" rx="10"/>
    <text x="265" y="25" text-anchor="middle" font-family="Arial, sans-serif" font-size="20" font-weight="bold" fill="#1E293B">Parallel Circuit</text>
    
    <!-- Parallel circuit diagram -->
    <g transform="translate(50,60)">
      <!-- Voltage source -->
      <g transform="translate(0,75)">
        <circle r="20" fill="none" stroke="#DC2626" stroke-width="3"/>
        <text y="5" text-anchor="middle" font-family="Arial, sans-serif" font-size="12" font-weight="bold" fill="#DC2626">12V</text>
        <text x="-8" y="-30" font-family="Arial, sans-serif" font-size="10" fill="#DC2626">+</text>
        <text x="-8" y="40" font-family="Arial, sans-serif" font-size="10" fill="#DC2626">−</text>
      </g>
      
      <!-- Junction points -->
      <circle cx="60" cy="55" r="3" fill="#1E293B"/>
      <circle cx="60" cy="95" r="3" fill="#1E293B"/>
      <circle cx="300" cy="55" r="3" fill="#1E293B"/>
      <circle cx="300" cy="95" r="3" fill="#1E293B"/>
      
      <!-- Resistors in parallel -->
      <!-- R1 -->
      <g transform="translate(180,55)">
        <rect x="-30" y="-8" width="60" height="16" fill="url(#resistorGrad)" stroke="#D97706" stroke-width="2" rx="8"/>
        <path d="M -20,0 L -10,-5 L 0,5 L 10,-5 L 20,0" stroke="white" stroke-width="2" fill="none"/>
        <text x="0" y="-25" text-anchor="middle" font-family="Arial, sans-serif" font-size="11" fill="#1E293B">R₁ = 6Ω</text>
        <text x="0" y="35" text-anchor="middle" font-family="Arial, sans-serif" font-size="10" fill="#10B981">I₁ = 2A</text>
      </g>
      
      <!-- R2 -->
      <g transform="translate(180,75)">
        <rect x="-30" y="-8" width="60" height="16" fill="url(#resistorGrad)" stroke="#D97706" stroke-width="2" rx="8"/>
        <path d="M -20,0 L -10,-5 L 0,5 L 10,-5 L 20,0" stroke="white" stroke-width="2" fill="none"/>
        <text x="0" y="-25" text-anchor="middle" font-family="Arial, sans-serif" font-size="11" fill="#1E293B">R₂ = 4Ω</text>
        <text x="0" y="35" text-anchor="middle" font-family="Arial, sans-serif" font-size="10" fill="#10B981">I₂ = 3A</text>
      </g>
      
      <!-- R3 -->
      <g transform="translate(180,95)">
        <rect x="-30" y="-8" width="60" height="16" fill="url(#resistorGrad)" stroke="#D97706" stroke-width="2" rx="8"/>
        <path d="M -20,0 L -10,-5 L 0,5 L 10,-5 L 20,0" stroke="white" stroke-width="2" fill="none"/>
        <text x="0" y="-25" text-anchor="middle" font-family="Arial, sans-serif" font-size="11" fill="#1E293B">R₃ = 12Ω</text>
        <text x="0" y="35" text-anchor="middle" font-family="Arial, sans-serif" font-size="10" fill="#10B981">I₃ = 1A</text>
      </g>
      
      <!-- Connecting wires -->
      <line x1="20" y1="75" x2="60" y2="75" stroke="#374151" stroke-width="3"/>
      <line x1="60" y1="55" x2="60" y2="95" stroke="#374151" stroke-width="3"/>
      <line x1="60" y1="55" x2="150" y2="55" stroke="#374151" stroke-width="3"/>
      <line x1="60" y1="75" x2="150" y2="75" stroke="#374151" stroke-width="3"/>
      <line x1="60" y1="95" x2="150" y2="95" stroke="#374151" stroke-width="3"/>
      <line x1="210" y1="55" x2="300" y2="55" stroke="#374151" stroke-width="3"/>
      <line x1="210" y1="75" x2="300" y2="75" stroke="#374151" stroke-width="3"/>
      <line x1="210" y1="95" x2="300" y2="95" stroke="#374151" stroke-width="3"/>
      <line x1="300" y1="55" x2="300" y2="95" stroke="#374151" stroke-width="3"/>
      <line x1="300" y1="75" x2="350" y2="75" stroke="#374151" stroke-width="3"/>
      <line x1="350" y1="75" x2="350" y2="125" stroke="#374151" stroke-width="3"/>
      <line x1="350" y1="125" x2="0" y2="125" stroke="#374151" stroke-width="3"/>
      <line x1="0" y1="125" x2="0" y2="95" stroke="#374151" stroke-width="3"/>
      
      <!-- Current arrows -->
      <g stroke="#10B981" stroke-width="2" fill="#10B981">
        <line x1="30" y1="75" x2="50" y2="75" marker-end="url(#currentArrow)"/>
        <line x1="120" y1="55" x2="140" y2="55" marker-end="url(#currentArrow)"/>
        <line x1="120" y1="75" x2="140" y2="75" marker-end="url(#currentArrow)"/>
        <line x1="120" y1="95" x2="140" y2="95" marker-end="url(#currentArrow)"/>
        <text x="180" y="25" text-anchor="middle" font-family="Arial, sans-serif" font-size="14" font-weight="bold" fill="#10B981">V = 12V (same across all)</text>
        <text x="35" y="65" font-family="Arial, sans-serif" font-size="11" fill="#10B981">I_total = 6A</text>
      </g>
    </g>
    
    <!-- Parallel formulas -->
    <rect x="20" y="170" width="490" height="40" fill="#FEF2F2" stroke="#FECACA" stroke-width="1" rx="5"/>
    <g font-family="Arial, sans-serif" text-anchor="middle" fill="#1E293B">
      <text x="130" y="185" font-size="12" font-weight="bold">1/R_total = 1/R₁ + 1/R₂ + 1/R₃</text>
      <text x="130" y="200" font-size="11" fill="#6B7280">1/6 + 1/4 + 1/12 = 1/2Ω</text>
      <text x="270" y="185" font-size="12" font-weight="bold">V_total = V₁ = V₂ = V₃</text>
      <text x="270" y="200" font-size="11" fill="#6B7280">12V across each branch</text>
      <text x="400" y="185" font-size="12" font-weight="bold">I_total = I₁ + I₂ + I₃</text>
      <text x="400" y="200" font-size="11" fill="#6B7280">2A + 3A + 1A = 6A</text>
    </g>
  </g>

  <!-- Series-Parallel Combined Network -->
  <g transform="translate(50,320)">
    <rect x="0" y="0" width="1100" height="280" fill="url(#combinedGrad)" stroke="#059669" stroke-width="3" rx="10" opacity="0.1"/>
    <rect x="0" y="0" width="1100" height="280" fill="none" stroke="#059669" stroke-width="3" rx="10"/>
    <text x="550" y="25" text-anchor="middle" font-family="Arial, sans-serif" font-size="20" font-weight="bold" fill="#1E293B">Combined Series-Parallel Network</text>
    
    <!-- Complex circuit diagram -->
    <g transform="translate(50,50)">
      <!-- Voltage source -->
      <g transform="translate(0,80)">
        <circle r="25" fill="none" stroke="#DC2626" stroke-width="3"/>
        <text y="5" text-anchor="middle" font-family="Arial, sans-serif" font-size="14" font-weight="bold" fill="#DC2626">24V</text>
        <text x="-12" y="-35" font-family="Arial, sans-serif" font-size="12" fill="#DC2626">+</text>
        <text x="-12" y="45" font-family="Arial, sans-serif" font-size="12" fill="#DC2626">−</text>
      </g>
      
      <!-- R1 (series with source) -->
      <g transform="translate(100,80)">
        <rect x="-30" y="-10" width="60" height="20" fill="url(#resistorGrad)" stroke="#D97706" stroke-width="2" rx="10"/>
        <path d="M -20,0 L -10,-6 L 0,6 L 10,-6 L 20,0" stroke="white" stroke-width="2" fill="none"/>
        <text x="0" y="-30" text-anchor="middle" font-family="Arial, sans-serif" font-size="12" fill="#1E293B">R₁ = 2Ω</text>
        <text x="0" y="40" text-anchor="middle" font-family="Arial, sans-serif" font-size="11" fill="#DC2626">V₁ = 4V</text>
      </g>
      
      <!-- Junction points -->
      <circle cx="180" cy="50" r="4" fill="#1E293B"/>
      <circle cx="180" cy="110" r="4" fill="#1E293B"/>
      <circle cx="420" cy="50" r="4" fill="#1E293B"/>
      <circle cx="420" cy="110" r="4" fill="#1E293B"/>
      
      <!-- Parallel branch 1: R2 and R3 in series -->
      <!-- R2 -->
      <g transform="translate(250,50)">
        <rect x="-25" y="-8" width="50" height="16" fill="url(#resistorGrad)" stroke="#D97706" stroke-width="2" rx="8"/>
        <path d="M -15,0 L -5,-4 L 5,4 L 15,-4 L 25,0" stroke="white" stroke-width="2" fill="none"/>
        <text x="0" y="-25" text-anchor="middle" font-family="Arial, sans-serif" font-size="11" fill="#1E293B">R₂ = 3Ω</text>
      </g>
      
      <!-- R3 -->
      <g transform="translate(350,50)">
        <rect x="-25" y="-8" width="50" height="16" fill="url(#resistorGrad)" stroke="#D97706" stroke-width="2" rx="8"/>
        <path d="M -15,0 L -5,-4 L 5,4 L 15,-4 L 25,0" stroke="white" stroke-width="2" fill="none"/>
        <text x="0" y="-25" text-anchor="middle" font-family="Arial, sans-serif" font-size="11" fill="#1E293B">R₃ = 6Ω</text>
      </g>
      
      <!-- Parallel branch 2: R4 alone -->
      <!-- R4 -->
      <g transform="translate(300,110)">
        <rect x="-40" y="-10" width="80" height="20" fill="url(#resistorGrad)" stroke="#D97706" stroke-width="2" rx="10"/>
        <path d="M -30,0 L -20,-6 L -10,6 L 0,-6 L 10,6 L 20,-6 L 30,0" stroke="white" stroke-width="2" fill="none"/>
        <text x="0" y="-30" text-anchor="middle" font-family="Arial, sans-serif" font-size="11" fill="#1E293B">R₄ = 18Ω</text>
      </g>
      
      <!-- R5 (series with parallel combination) -->
      <g transform="translate(500,80)">
        <rect x="-30" y="-10" width="60" height="20" fill="url(#resistorGrad)" stroke="#D97706" stroke-width="2" rx="10"/>
        <path d="M -20,0 L -10,-6 L 0,6 L 10,-6 L 20,0" stroke="white" stroke-width="2" fill="none"/>
        <text x="0" y="-30" text-anchor="middle" font-family="Arial, sans-serif" font-size="12" fill="#1E293B">R₅ = 4Ω</text>
        <text x="0" y="40" text-anchor="middle" font-family="Arial, sans-serif" font-size="11" fill="#DC2626">V₅ = 8V</text>
      </g>
      
      <!-- Connecting wires -->
      <line x1="25" y1="80" x2="70" y2="80" stroke="#374151" stroke-width="4"/>
      <line x1="130" y1="80" x2="180" y2="80" stroke="#374151" stroke-width="4"/>
      <line x1="180" y1="50" x2="180" y2="110" stroke="#374151" stroke-width="4"/>
      <line x1="180" y1="50" x2="225" y2="50" stroke="#374151" stroke-width="4"/>
      <line x1="275" y1="50" x2="325" y2="50" stroke="#374151" stroke-width="4"/>
      <line x1="375" y1="50" x2="420" y2="50" stroke="#374151" stroke-width="4"/>
      <line x1="180" y1="110" x2="260" y2="110" stroke="#374151" stroke-width="4"/>
      <line x1="340" y1="110" x2="420" y2="110" stroke="#374151" stroke-width="4"/>
      <line x1="420" y1="50" x2="420" y2="110" stroke="#374151" stroke-width="4"/>
      <line x1="420" y1="80" x2="470" y2="80" stroke="#374151" stroke-width="4"/>
      <line x1="530" y1="80" x2="600" y2="80" stroke="#374151" stroke-width="4"/>
      <line x1="600" y1="80" x2="600" y2="150" stroke="#374151" stroke-width="4"/>
      <line x1="600" y1="150" x2="0" y2="150" stroke="#374151" stroke-width="4"/>
      <line x1="0" y1="150" x2="0" y2="105" stroke="#374151" stroke-width="4"/>
      
      <!-- Current labels -->
      <g font-family="Arial, sans-serif" font-size="11" fill="#10B981" font-weight="bold">
        <text x="100" y="60">I_total = 2A</text>
        <text x="300" y="30">I₁ = 1A</text>
        <text x="300" y="135">I₂ = 1A</text>
      </g>
      
      <!-- Voltage labels -->
      <g font-family="Arial, sans-serif" font-size="10" fill="#DC2626">
        <text x="300" y="75">V_parallel = 12V</text>
      </g>
    </g>
    
    <!-- Analysis steps -->
    <rect x="650" y="50" width="420" height="180" fill="#F8FAFC" stroke="#E2E8F0" stroke-width="2" rx="8"/>
    <text x="860" y="75" text-anchor="middle" font-family="Arial, sans-serif" font-size="16" font-weight="bold" fill="#1E293B">Solution Steps</text>
    
    <g font-family="Arial, sans-serif" font-size="11" fill="#374151">
      <text x="670" y="100" font-weight="bold" fill="#DC2626">Step 1: Combine R₂ and R₃ (series)</text>
      <text x="680" y="115">R₂₃ = R₂ + R₃ = 3Ω + 6Ω = 9Ω</text>
      
      <text x="670" y="135" font-weight="bold" fill="#3B82F6">Step 2: Combine R₂₃ and R₄ (parallel)</text>
      <text x="680" y="150">1/R₂₃₄ = 1/R₂₃ + 1/R₄ = 1/9 + 1/18 = 3/18</text>
      <text x="680" y="165">R₂₃₄ = 6Ω</text>
      
      <text x="670" y="185" font-weight="bold" fill="#059669">Step 3: Total resistance</text>
      <text x="680" y="200">R_total = R₁ + R₂₃₄ + R₅ = 2Ω + 6Ω + 4Ω = 12Ω</text>
      
      <text x="670" y="220" font-weight="bold" fill="#7C2D12">Step 4: Total current</text>
      <text x="680" y="235">I_total = V_source/R_total = 24V/12Ω = 2A</text>
    </g>
  </g>

  <!-- Comparison Table -->
  <g transform="translate(50,620)">
    <rect x="0" y="0" width="500" height="140" fill="#F1F5F9" stroke="#CBD5E1" stroke-width="2" rx="8"/>
    <text x="250" y="25" text-anchor="middle" font-family="Arial, sans-serif" font-size="18" font-weight="bold" fill="#1E293B">Series vs Parallel Comparison</text>
    
    <!-- Table headers -->
    <g font-family="Arial, sans-serif" font-size="12" font-weight="bold" fill="#1E293B">
      <text x="30" y="50">Property</text>
      <text x="170" y="50">Series</text>
      <text x="320" y="50">Parallel</text>
    </g>
    
    <!-- Table rows -->
    <g font-family="Arial, sans-serif" font-size="11" fill="#374151">
      <rect x="20" y="55" width="460" height="15" fill="#F8FAFC" opacity="0.5"/>
      <text x="30" y="67">Current</text>
      <text x="170" y="67" fill="#3B82F6">Same everywhere</text>
      <text x="320" y="67" fill="#DC2626">Divides at junctions</text>
      
      <text x="30" y="82">Voltage</text>
      <text x="170" y="82" fill="#3B82F6">Divides across components</text>
      <text x="320" y="82" fill="#DC2626">Same across all branches</text>
      
      <rect x="20" y="85" width="460" height="15" fill="#F8FAFC" opacity="0.5"/>
      <text x="30" y="97">Resistance</text>
      <text x="170" y="97" fill="#3B82F6">R_total = R₁ + R₂ + ...</text>
      <text x="320" y="97" fill="#DC2626">1/R_total = 1/R₁ + 1/R₂ + ...</text>
      
      <text x="30" y="112">Fault Effect</text>
      <text x="170" y="112" fill="#3B82F6">One open = all stop</text>
      <text x="320" y="112" fill="#DC2626">One open = others continue</text>
      
      <rect x="20" y="115" width="460" height="15" fill="#F8FAFC" opacity="0.5"/>
      <text x="30" y="127">Application</text>
      <text x="170" y="127" fill="#3B82F6">Voltage division</text>
      <text x="320" y="127" fill="#DC2626">Current division</text>
    </g>
  </g>

  <!-- Practical Applications -->
  <g transform="translate(570,620)">
    <rect x="0" y="0" width="580" height="140" fill="#FEF3C7" stroke="#F59E0B" stroke-width="2" rx="8"/>
    <text x="290" y="25" text-anchor="middle" font-family="Arial, sans-serif" font-size="18" font-weight="bold" fill="#1E293B">Practical Applications</text>
    
    <g font-family="Arial, sans-serif" font-size="11" fill="#374151">
      <text x="30" y="50" font-weight="bold" fill="#DC2626">Series Applications:</text>
      <text x="40" y="65">• Christmas lights (old style)</text>
      <text x="40" y="80">• Voltage dividers</text>
      <text x="40" y="95">• Current limiting</text>
      <text x="40" y="110">• Battery stacks</text>
      <text x="40" y="125">• Switch control</text>
      
      <text x="200" y="50" font-weight="bold" fill="#3B82F6">Parallel Applications:</text>
      <text x="210" y="65">• Household wiring</text>
      <text x="210" y="80">• Car headlights</text>
      <text x="210" y="95">• Computer components</text>
      <text x="210" y="110">• Backup systems</text>
      <text x="210" y="125">• Power distribution</text>
      
      <text x="370" y="50" font-weight="bold" fill="#059669">Combined Networks:</text>
      <text x="380" y="65">• Complex circuits</text>
      <text x="380" y="80">• Filter networks</text>
      <text x="380" y="95">• Amplifier stages</text>
      <text x="380" y="110">• Power supplies</text>
      <text x="380" y="125">• Control systems</text>
    </g>
  </g>

  <!-- Key Points -->
  <g transform="translate(50,770)">
    <text x="0" y="0" font-family="Arial, sans-serif" font-size="14" font-weight="bold" fill="#1E293B">Analysis Strategy:</text>
    <text x="150" y="0" font-family="Arial, sans-serif" font-size="12" fill="#374151">1. Identify series/parallel sections  2. Simplify step by step  3. Work backwards for individual values</text>
  </g>
</svg>