<svg width="1400" height="1100" xmlns="http://www.w3.org/2000/svg">
  <defs>
    <linearGradient id="headerGrad" x1="0%" y1="0%" x2="100%" y2="0%">
      <stop offset="0%" style="stop-color:#2563eb;stop-opacity:1" />
      <stop offset="100%" style="stop-color:#1d4ed8;stop-opacity:1" />
    </linearGradient>
    <linearGradient id="halfAddGrad" x1="0%" y1="0%" x2="100%" y2="0%">
      <stop offset="0%" style="stop-color:#059669;stop-opacity:1" />
      <stop offset="100%" style="stop-color:#047857;stop-opacity:1" />
    </linearGradient>
    <linearGradient id="fullAddGrad" x1="0%" y1="0%" x2="100%" y2="0%">
      <stop offset="0%" style="stop-color:#dc2626;stop-opacity:1" />
      <stop offset="100%" style="stop-color:#b91c1c;stop-opacity:1" />
    </linearGradient>
    <linearGradient id="halfSubGrad" x1="0%" y1="0%" x2="100%" y2="0%">
      <stop offset="0%" style="stop-color:#9333ea;stop-opacity:1" />
      <stop offset="100%" style="stop-color:#7c3aed;stop-opacity:1" />
    </linearGradient>
    <linearGradient id="fullSubGrad" x1="0%" y1="0%" x2="100%" y2="0%">
      <stop offset="0%" style="stop-color:#ea580c;stop-opacity:1" />
      <stop offset="100%" style="stop-color:#dc2626;stop-opacity:1" />
    </linearGradient>
    <linearGradient id="parallelGrad" x1="0%" y1="0%" x2="100%" y2="0%">
      <stop offset="0%" style="stop-color:#0891b2;stop-opacity:1" />
      <stop offset="100%" style="stop-color:#0e7490;stop-opacity:1" />
    </linearGradient>
  </defs>

  <!-- Background -->
  <rect width="1400" height="1100" fill="#f8fafc"/>

  <!-- Title -->
  <rect x="0" y="0" width="1400" height="60" fill="url(#headerGrad)"/>
  <text x="700" y="35" text-anchor="middle" fill="white" font-family="Arial, sans-serif" font-size="24" font-weight="bold">Arithmetic Circuits: Adders and Subtractors</text>

  <!-- Half Adder -->
  <g transform="translate(50, 80)">
    <rect x="0" y="0" width="420" height="400" fill="url(#halfAddGrad)" rx="10"/>
    <text x="210" y="25" text-anchor="middle" fill="white" font-family="Arial, sans-serif" font-size="18" font-weight="bold">HALF ADDER</text>

    <!-- Truth Table -->
    <g transform="translate(20, 40)">
      <text x="0" y="20" fill="white" font-family="Arial, sans-serif" font-size="14" font-weight="bold">Truth Table:</text>
      <rect x="0" y="25" width="140" height="100" fill="white" stroke="#047857" stroke-width="2"/>
      <text x="70" y="40" text-anchor="middle" fill="#047857" font-family="Arial, sans-serif" font-size="12" font-weight="bold">Half Adder</text>
      <line x1="0" y1="45" x2="140" y2="45" stroke="#047857" stroke-width="1"/>
      <text x="25" y="60" text-anchor="middle" fill="#047857" font-family="Arial, sans-serif" font-size="11" font-weight="bold">A</text>
      <text x="50" y="60" text-anchor="middle" fill="#047857" font-family="Arial, sans-serif" font-size="11" font-weight="bold">B</text>
      <text x="85" y="60" text-anchor="middle" fill="#047857" font-family="Arial, sans-serif" font-size="11" font-weight="bold">S</text>
      <text x="115" y="60" text-anchor="middle" fill="#047857" font-family="Arial, sans-serif" font-size="11" font-weight="bold">C</text>
      <line x1="0" y1="65" x2="140" y2="65" stroke="#047857" stroke-width="1"/>
      <text x="25" y="80" text-anchor="middle" fill="#047857" font-family="monospace" font-size="11">0</text>
      <text x="50" y="80" text-anchor="middle" fill="#047857" font-family="monospace" font-size="11">0</text>
      <text x="85" y="80" text-anchor="middle" fill="#047857" font-family="monospace" font-size="11">0</text>
      <text x="115" y="80" text-anchor="middle" fill="#047857" font-family="monospace" font-size="11">0</text>
      <text x="25" y="95" text-anchor="middle" fill="#047857" font-family="monospace" font-size="11">0</text>
      <text x="50" y="95" text-anchor="middle" fill="#047857" font-family="monospace" font-size="11">1</text>
      <text x="85" y="95" text-anchor="middle" fill="#047857" font-family="monospace" font-size="11">1</text>
      <text x="115" y="95" text-anchor="middle" fill="#047857" font-family="monospace" font-size="11">0</text>
      <text x="25" y="110" text-anchor="middle" fill="#047857" font-family="monospace" font-size="11">1</text>
      <text x="50" y="110" text-anchor="middle" fill="#047857" font-family="monospace" font-size="11">0</text>
      <text x="85" y="110" text-anchor="middle" fill="#047857" font-family="monospace" font-size="11">1</text>
      <text x="115" y="110" text-anchor="middle" fill="#047857" font-family="monospace" font-size="11">0</text>
      <text x="25" y="125" text-anchor="middle" fill="#047857" font-family="monospace" font-size="11">1</text>
      <text x="50" y="125" text-anchor="middle" fill="#047857" font-family="monospace" font-size="11">1</text>
      <text x="85" y="125" text-anchor="middle" fill="#047857" font-family="monospace" font-size="11">0</text>
      <text x="115" y="125" text-anchor="middle" fill="#047857" font-family="monospace" font-size="11">1</text>
    </g>

    <!-- Boolean Equations -->
    <g transform="translate(20, 170)">
      <text x="0" y="20" fill="white" font-family="Arial, sans-serif" font-size="14" font-weight="bold">Boolean Equations:</text>
      <text x="0" y="40" fill="white" font-family="monospace" font-size="12">Sum (S) = A ⊕ B</text>
      <text x="0" y="60" fill="white" font-family="monospace" font-size="12">Carry (C) = A · B</text>
    </g>

    <!-- Circuit Diagram -->
    <g transform="translate(200, 40)">
      <text x="0" y="20" fill="white" font-family="Arial, sans-serif" font-size="14" font-weight="bold">Circuit Diagram:</text>

      <!-- XOR Gate for Sum -->
      <g transform="translate(0, 30)">
        <path d="M -10 20 Q 10 20 20 35 Q 40 50 20 65 Q 10 80 -10 80 Q 10 50 -10 20" fill="none" stroke="white" stroke-width="2"/>
        <path d="M 0 20 Q 20 20 30 35 Q 50 50 30 65 Q 20 80 0 80 Q 20 50 0 20" fill="white" stroke="#047857" stroke-width="2"/>
        <path d="M 30 35 Q 70 35 80 50 Q 70 65 30 65" fill="white" stroke="#047857" stroke-width="2"/>
        <line x1="-20" y1="35" x2="5" y2="35" stroke="white" stroke-width="2"/>
        <line x1="-20" y1="65" x2="5" y2="65" stroke="white" stroke-width="2"/>
        <line x1="80" y1="50" x2="100" y2="50" stroke="white" stroke-width="2"/>
        <text x="-30" y="40" fill="white" font-family="Arial, sans-serif" font-size="12">A</text>
        <text x="-30" y="70" fill="white" font-family="Arial, sans-serif" font-size="12">B</text>
        <text x="105" y="55" fill="white" font-family="Arial, sans-serif" font-size="12">S</text>
      </g>

      <!-- AND Gate for Carry -->
      <g transform="translate(0, 130)">
        <path d="M 0 20 L 40 20 Q 80 20 80 50 Q 80 80 40 80 L 0 80 Z" fill="white" stroke="#047857" stroke-width="2"/>
        <line x1="-20" y1="35" x2="0" y2="35" stroke="white" stroke-width="2"/>
        <line x1="-20" y1="65" x2="0" y2="65" stroke="white" stroke-width="2"/>
        <line x1="80" y1="50" x2="100" y2="50" stroke="white" stroke-width="2"/>
        <text x="-30" y="40" fill="white" font-family="Arial, sans-serif" font-size="12">A</text>
        <text x="-30" y="70" fill="white" font-family="Arial, sans-serif" font-size="12">B</text>
        <text x="105" y="55" fill="white" font-family="Arial, sans-serif" font-size="12">C</text>
      </g>
    </g>

    <text x="20" y="380" fill="white" font-family="Arial, sans-serif" font-size="12">Used for adding two single bits. Cannot handle carry input.</text>
  </g>

  <!-- Full Adder -->
  <g transform="translate(490, 80)">
    <rect x="0" y="0" width="420" height="400" fill="url(#fullAddGrad)" rx="10"/>
    <text x="210" y="25" text-anchor="middle" fill="white" font-family="Arial, sans-serif" font-size="18" font-weight="bold">FULL ADDER</text>

    <!-- Truth Table -->
    <g transform="translate(20, 40)">
      <text x="0" y="20" fill="white" font-family="Arial, sans-serif" font-size="14" font-weight="bold">Truth Table:</text>
      <rect x="0" y="25" width="170" height="160" fill="white" stroke="#b91c1c" stroke-width="2"/>
      <text x="85" y="40" text-anchor="middle" fill="#b91c1c" font-family="Arial, sans-serif" font-size="12" font-weight="bold">Full Adder</text>
      <line x1="0" y1="45" x2="170" y2="45" stroke="#b91c1c" stroke-width="1"/>
      <text x="25" y="60" text-anchor="middle" fill="#b91c1c" font-family="Arial, sans-serif" font-size="11" font-weight="bold">A</text>
      <text x="50" y="60" text-anchor="middle" fill="#b91c1c" font-family="Arial, sans-serif" font-size="11" font-weight="bold">B</text>
      <text x="75" y="60" text-anchor="middle" fill="#b91c1c" font-family="Arial, sans-serif" font-size="11" font-weight="bold">Cin</text>
      <text x="110" y="60" text-anchor="middle" fill="#b91c1c" font-family="Arial, sans-serif" font-size="11" font-weight="bold">S</text>
      <text x="145" y="60" text-anchor="middle" fill="#b91c1c" font-family="Arial, sans-serif" font-size="11" font-weight="bold">Cout</text>
      <line x1="0" y1="65" x2="170" y2="65" stroke="#b91c1c" stroke-width="1"/>

      <!-- Truth table entries -->
      <text x="25" y="80" text-anchor="middle" fill="#b91c1c" font-family="monospace" font-size="10">0</text>
      <text x="50" y="80" text-anchor="middle" fill="#b91c1c" font-family="monospace" font-size="10">0</text>
      <text x="75" y="80" text-anchor="middle" fill="#b91c1c" font-family="monospace" font-size="10">0</text>
      <text x="110" y="80" text-anchor="middle" fill="#b91c1c" font-family="monospace" font-size="10">0</text>
      <text x="145" y="80" text-anchor="middle" fill="#b91c1c" font-family="monospace" font-size="10">0</text>

      <text x="25" y="95" text-anchor="middle" fill="#b91c1c" font-family="monospace" font-size="10">0</text>
      <text x="50" y="95" text-anchor="middle" fill="#b91c1c" font-family="monospace" font-size="10">0</text>
      <text x="75" y="95" text-anchor="middle" fill="#b91c1c" font-family="monospace" font-size="10">1</text>
      <text x="110" y="95" text-anchor="middle" fill="#b91c1c" font-family="monospace" font-size="10">1</text>
      <text x="145" y="95" text-anchor="middle" fill="#b91c1c" font-family="monospace" font-size="10">0</text>

      <text x="25" y="110" text-anchor="middle" fill="#b91c1c" font-family="monospace" font-size="10">0</text>
      <text x="50" y="110" text-anchor="middle" fill="#b91c1c" font-family="monospace" font-size="10">1</text>
      <text x="75" y="110" text-anchor="middle" fill="#b91c1c" font-family="monospace" font-size="10">0</text>
      <text x="110" y="110" text-anchor="middle" fill="#b91c1c" font-family="monospace" font-size="10">1</text>
      <text x="145" y="110" text-anchor="middle" fill="#b91c1c" font-family="monospace" font-size="10">0</text>

      <text x="25" y="125" text-anchor="middle" fill="#b91c1c" font-family="monospace" font-size="10">0</text>
      <text x="50" y="125" text-anchor="middle" fill="#b91c1c" font-family="monospace" font-size="10">1</text>
      <text x="75" y="125" text-anchor="middle" fill="#b91c1c" font-family="monospace" font-size="10">1</text>
      <text x="110" y="125" text-anchor="middle" fill="#b91c1c" font-family="monospace" font-size="10">0</text>
      <text x="145" y="125" text-anchor="middle" fill="#b91c1c" font-family="monospace" font-size="10">1</text>

      <text x="25" y="140" text-anchor="middle" fill="#b91c1c" font-family="monospace" font-size="10">1</text>
      <text x="50" y="140" text-anchor="middle" fill="#b91c1c" font-family="monospace" font-size="10">0</text>
      <text x="75" y="140" text-anchor="middle" fill="#b91c1c" font-family="monospace" font-size="10">0</text>
      <text x="110" y="140" text-anchor="middle" fill="#b91c1c" font-family="monospace" font-size="10">1</text>
      <text x="145" y="140" text-anchor="middle" fill="#b91c1c" font-family="monospace" font-size="10">0</text>

      <text x="25" y="155" text-anchor="middle" fill="#b91c1c" font-family="monospace" font-size="10">1</text>
      <text x="50" y="155" text-anchor="middle" fill="#b91c1c" font-family="monospace" font-size="10">0</text>
      <text x="75" y="155" text-anchor="middle" fill="#b91c1c" font-family="monospace" font-size="10">1</text>
      <text x="110" y="155" text-anchor="middle" fill="#b91c1c" font-family="monospace" font-size="10">0</text>
      <text x="145" y="155" text-anchor="middle" fill="#b91c1c" font-family="monospace" font-size="10">1</text>

      <text x="25" y="170" text-anchor="middle" fill="#b91c1c" font-family="monospace" font-size="10">1</text>
      <text x="50" y="170" text-anchor="middle" fill="#b91c1c" font-family="monospace" font-size="10">1</text>
      <text x="75" y="170" text-anchor="middle" fill="#b91c1c" font-family="monospace" font-size="10">0</text>
      <text x="110" y="170" text-anchor="middle" fill="#b91c1c" font-family="monospace" font-size="10">0</text>
      <text x="145" y="170" text-anchor="middle" fill="#b91c1c" font-family="monospace" font-size="10">1</text>

      <text x="25" y="185" text-anchor="middle" fill="#b91c1c" font-family="monospace" font-size="10">1</text>
      <text x="50" y="185" text-anchor="middle" fill="#b91c1c" font-family="monospace" font-size="10">1</text>
      <text x="75" y="185" text-anchor="middle" fill="#b91c1c" font-family="monospace" font-size="10">1</text>
      <text x="110" y="185" text-anchor="middle" fill="#b91c1c" font-family="monospace" font-size="10">1</text>
      <text x="145" y="185" text-anchor="middle" fill="#b91c1c" font-family="monospace" font-size="10">1</text>
    </g>

    <!-- Boolean Equations -->
    <g transform="translate(20, 250)">
      <text x="0" y="20" fill="white" font-family="Arial, sans-serif" font-size="14" font-weight="bold">Boolean Equations:</text>
      <text x="0" y="40" fill="white" font-family="monospace" font-size="11">S = A ⊕ B ⊕ Cin</text>
      <text x="0" y="60" fill="white" font-family="monospace" font-size="11">Cout = AB + Cin(A ⊕ B)</text>
      <text x="0" y="80" fill="white" font-family="monospace" font-size="11">    = AB + CinA + CinB</text>
    </g>

    <!-- Block Diagram -->
    <g transform="translate(220, 80)">
      <text x="0" y="20" fill="white" font-family="Arial, sans-serif" font-size="14" font-weight="bold">Block Diagram:</text>
      <rect x="20" y="30" width="120" height="80" fill="none" stroke="white" stroke-width="2"/>
      <text x="80" y="50" text-anchor="middle" fill="white" font-family="Arial, sans-serif" font-size="12" font-weight="bold">FULL</text>
      <text x="80" y="65" text-anchor="middle" fill="white" font-family="Arial, sans-serif" font-size="12" font-weight="bold">ADDER</text>

      <!-- Inputs -->
      <line x1="0" y1="45" x2="20" y2="45" stroke="white" stroke-width="2"/>
      <line x1="0" y1="70" x2="20" y2="70" stroke="white" stroke-width="2"/>
      <line x1="0" y1="95" x2="20" y2="95" stroke="white" stroke-width="2"/>
      <text x="-10" y="50" fill="white" font-family="Arial, sans-serif" font-size="12">A</text>
      <text x="-10" y="75" fill="white" font-family="Arial, sans-serif" font-size="12">B</text>
      <text x="-15" y="100" fill="white" font-family="Arial, sans-serif" font-size="12">Cin</text>

      <!-- Outputs -->
      <line x1="140" y1="55" x2="160" y2="55" stroke="white" stroke-width="2"/>
      <line x1="140" y1="85" x2="160" y2="85" stroke="white" stroke-width="2"/>
      <text x="165" y="60" fill="white" font-family="Arial, sans-serif" font-size="12">S</text>
      <text x="165" y="90" fill="white" font-family="Arial, sans-serif" font-size="12">Cout</text>
    </g>

    <text x="20" y="380" fill="white" font-family="Arial, sans-serif" font-size="12">Adds three bits: A, B, and carry input. Essential for multi-bit addition.</text>
  </g>

  <!-- Half Subtractor -->
  <g transform="translate(930, 80)">
    <rect x="0" y="0" width="420" height="400" fill="url(#halfSubGrad)" rx="10"/>
    <text x="210" y="25" text-anchor="middle" fill="white" font-family="Arial, sans-serif" font-size="18" font-weight="bold">HALF SUBTRACTOR</text>

    <!-- Truth Table -->
    <g transform="translate(20, 40)">
      <text x="0" y="20" fill="white" font-family="Arial, sans-serif" font-size="14" font-weight="bold">Truth Table:</text>
      <rect x="0" y="25" width="140" height="100" fill="white" stroke="#7c3aed" stroke-width="2"/>
      <text x="70" y="40" text-anchor="middle" fill="#7c3aed" font-family="Arial, sans-serif" font-size="12" font-weight="bold">Half Subtractor</text>
      <line x1="0" y1="45" x2="140" y2="45" stroke="#7c3aed" stroke-width="1"/>
      <text x="25" y="60" text-anchor="middle" fill="#7c3aed" font-family="Arial, sans-serif" font-size="11" font-weight="bold">A</text>
      <text x="50" y="60" text-anchor="middle" fill="#7c3aed" font-family="Arial, sans-serif" font-size="11" font-weight="bold">B</text>
      <text x="85" y="60" text-anchor="middle" fill="#7c3aed" font-family="Arial, sans-serif" font-size="11" font-weight="bold">D</text>
      <text x="115" y="60" text-anchor="middle" fill="#7c3aed" font-family="Arial, sans-serif" font-size="11" font-weight="bold">Bo</text>
      <line x1="0" y1="65" x2="140" y2="65" stroke="#7c3aed" stroke-width="1"/>
      <text x="25" y="80" text-anchor="middle" fill="#7c3aed" font-family="monospace" font-size="11">0</text>
      <text x="50" y="80" text-anchor="middle" fill="#7c3aed" font-family="monospace" font-size="11">0</text>
      <text x="85" y="80" text-anchor="middle" fill="#7c3aed" font-family="monospace" font-size="11">0</text>
      <text x="115" y="80" text-anchor="middle" fill="#7c3aed" font-family="monospace" font-size="11">0</text>
      <text x="25" y="95" text-anchor="middle" fill="#7c3aed" font-family="monospace" font-size="11">0</text>
      <text x="50" y="95" text-anchor="middle" fill="#7c3aed" font-family="monospace" font-size="11">1</text>
      <text x="85" y="95" text-anchor="middle" fill="#7c3aed" font-family="monospace" font-size="11">1</text>
      <text x="115" y="95" text-anchor="middle" fill="#7c3aed" font-family="monospace" font-size="11">1</text>
      <text x="25" y="110" text-anchor="middle" fill="#7c3aed" font-family="monospace" font-size="11">1</text>
      <text x="50" y="110" text-anchor="middle" fill="#7c3aed" font-family="monospace" font-size="11">0</text>
      <text x="85" y="110" text-anchor="middle" fill="#7c3aed" font-family="monospace" font-size="11">1</text>
      <text x="115" y="110" text-anchor="middle" fill="#7c3aed" font-family="monospace" font-size="11">0</text>
      <text x="25" y="125" text-anchor="middle" fill="#7c3aed" font-family="monospace" font-size="11">1</text>
      <text x="50" y="125" text-anchor="middle" fill="#7c3aed" font-family="monospace" font-size="11">1</text>
      <text x="85" y="125" text-anchor="middle" fill="#7c3aed" font-family="monospace" font-size="11">0</text>
      <text x="115" y="125" text-anchor="middle" fill="#7c3aed" font-family="monospace" font-size="11">0</text>
    </g>

    <!-- Boolean Equations -->
    <g transform="translate(20, 150)">
      <text x="0" y="20" fill="white" font-family="Arial, sans-serif" font-size="14" font-weight="bold">Boolean Equations:</text>
      <text x="0" y="40" fill="white" font-family="monospace" font-size="12">Difference (D) = A ⊕ B</text>
      <text x="0" y="60" fill="white" font-family="monospace" font-size="12">Borrow (Bo) = Ā · B</text>
    </g>

    <!-- Circuit Diagram -->
    <g transform="translate(200, 40)">
      <text x="0" y="20" fill="white" font-family="Arial, sans-serif" font-size="14" font-weight="bold">Circuit Diagram:</text>

      <!-- XOR Gate for Difference -->
      <g transform="translate(0, 30)">
        <path d="M -10 20 Q 10 20 20 35 Q 40 50 20 65 Q 10 80 -10 80 Q 10 50 -10 20" fill="none" stroke="white" stroke-width="2"/>
        <path d="M 0 20 Q 20 20 30 35 Q 50 50 30 65 Q 20 80 0 80 Q 20 50 0 20" fill="white" stroke="#7c3aed" stroke-width="2"/>
        <path d="M 30 35 Q 70 35 80 50 Q 70 65 30 65" fill="white" stroke="#7c3aed" stroke-width="2"/>
        <line x1="-20" y1="35" x2="5" y2="35" stroke="white" stroke-width="2"/>
        <line x1="-20" y1="65" x2="5" y2="65" stroke="white" stroke-width="2"/>
        <line x1="80" y1="50" x2="100" y2="50" stroke="white" stroke-width="2"/>
        <text x="-30" y="40" fill="white" font-family="Arial, sans-serif" font-size="12">A</text>
        <text x="-30" y="70" fill="white" font-family="Arial, sans-serif" font-size="12">B</text>
        <text x="105" y="55" fill="white" font-family="Arial, sans-serif" font-size="12">D</text>
      </g>

      <!-- NOT + AND Gates for Borrow -->
      <g transform="translate(0, 130)">
        <!-- NOT Gate -->
        <polygon points="-30,35 -30,65 -10,50" fill="white" stroke="#7c3aed" stroke-width="2"/>
        <circle cx="-5" cy="50" r="3" fill="white" stroke="#7c3aed" stroke-width="2"/>
        <line x1="-50" y1="50" x2="-30" y2="50" stroke="white" stroke-width="2"/>
        <line x1="-2" y1="50" x2="10" y2="50" stroke="white" stroke-width="2"/>

        <!-- AND Gate -->
        <path d="M 10 20 L 50 20 Q 90 20 90 50 Q 90 80 50 80 L 10 80 Z" fill="white" stroke="#7c3aed" stroke-width="2"/>
        <line x1="10" y1="35" x2="10" y2="35" stroke="white" stroke-width="2"/>
        <line x1="-20" y1="65" x2="10" y2="65" stroke="white" stroke-width="2"/>
        <line x1="90" y1="50" x2="110" y2="50" stroke="white" stroke-width="2"/>
        <text x="-60" y="55" fill="white" font-family="Arial, sans-serif" font-size="12">A</text>
        <text x="-30" y="70" fill="white" font-family="Arial, sans-serif" font-size="12">B</text>
        <text x="115" y="55" fill="white" font-family="Arial, sans-serif" font-size="12">Bo</text>
      </g>
    </g>

    <text x="20" y="380" fill="white" font-family="Arial, sans-serif" font-size="12">Subtracts two single bits. D = A - B. Bo = 1 when A &lt; B.</text>
  </g>

  <!-- Full Subtractor -->
  <g transform="translate(50, 500)">
    <rect x="0" y="0" width="630" height="300" fill="url(#fullSubGrad)" rx="10"/>
    <text x="315" y="25" text-anchor="middle" fill="white" font-family="Arial, sans-serif" font-size="18" font-weight="bold">FULL SUBTRACTOR</text>

    <!-- Truth Table -->
    <g transform="translate(20, 40)">
      <text x="0" y="20" fill="white" font-family="Arial, sans-serif" font-size="14" font-weight="bold">Truth Table:</text>
      <rect x="0" y="25" width="190" height="160" fill="white" stroke="#dc2626" stroke-width="2"/>
      <text x="95" y="40" text-anchor="middle" fill="#dc2626" font-family="Arial, sans-serif" font-size="12" font-weight="bold">Full Subtractor</text>
      <line x1="0" y1="45" x2="190" y2="45" stroke="#dc2626" stroke-width="1"/>
      <text x="25" y="60" text-anchor="middle" fill="#dc2626" font-family="Arial, sans-serif" font-size="11" font-weight="bold">A</text>
      <text x="55" y="60" text-anchor="middle" fill="#dc2626" font-family="Arial, sans-serif" font-size="11" font-weight="bold">B</text>
      <text x="85" y="60" text-anchor="middle" fill="#dc2626" font-family="Arial, sans-serif" font-size="11" font-weight="bold">Bin</text>
      <text x="125" y="60" text-anchor="middle" fill="#dc2626" font-family="Arial, sans-serif" font-size="11" font-weight="bold">D</text>
      <text x="165" y="60" text-anchor="middle" fill="#dc2626" font-family="Arial, sans-serif" font-size="11" font-weight="bold">Bout</text>
      <line x1="0" y1="65" x2="190" y2="65" stroke="#dc2626" stroke-width="1"/>

      <!-- All 8 rows of truth table -->
      <g font-family="monospace" font-size="10" fill="#dc2626">
        <text x="25" y="80" text-anchor="middle">0</text><text x="55" y="80" text-anchor="middle">0</text><text x="85" y="80" text-anchor="middle">0</text><text x="125" y="80" text-anchor="middle">0</text><text x="165" y="80" text-anchor="middle">0</text>
        <text x="25" y="95" text-anchor="middle">0</text><text x="55" y="95" text-anchor="middle">0</text><text x="85" y="95" text-anchor="middle">1</text><text x="125" y="95" text-anchor="middle">1</text><text x="165" y="95" text-anchor="middle">1</text>
        <text x="25" y="110" text-anchor="middle">0</text><text x="55" y="110" text-anchor="middle">1</text><text x="85" y="110" text-anchor="middle">0</text><text x="125" y="110" text-anchor="middle">1</text><text x="165" y="110" text-anchor="middle">1</text>
        <text x="25" y="125" text-anchor="middle">0</text><text x="55" y="125" text-anchor="middle">1</text><text x="85" y="125" text-anchor="middle">1</text><text x="125" y="125" text-anchor="middle">0</text><text x="165" y="125" text-anchor="middle">1</text>
        <text x="25" y="140" text-anchor="middle">1</text><text x="55" y="140" text-anchor="middle">0</text><text x="85" y="140" text-anchor="middle">0</text><text x="125" y="140" text-anchor="middle">1</text><text x="165" y="140" text-anchor="middle">0</text>
        <text x="25" y="155" text-anchor="middle">1</text><text x="55" y="155" text-anchor="middle">0</text><text x="85" y="155" text-anchor="middle">1</text><text x="125" y="155" text-anchor="middle">0</text><text x="165" y="155" text-anchor="middle">0</text>
        <text x="25" y="170" text-anchor="middle">1</text><text x="55" y="170" text-anchor="middle">1</text><text x="85" y="170" text-anchor="middle">0</text><text x="125" y="170" text-anchor="middle">0</text><text x="165" y="170" text-anchor="middle">0</text>
        <text x="25" y="185" text-anchor="middle">1</text><text x="55" y="185" text-anchor="middle">1</text><text x="85" y="185" text-anchor="middle">1</text><text x="125" y="185" text-anchor="middle">1</text><text x="165" y="185" text-anchor="middle">1</text>
      </g>
    </g>

    <!-- Boolean Equations -->
    <g transform="translate(230, 40)">
      <text x="0" y="20" fill="white" font-family="Arial, sans-serif" font-size="14" font-weight="bold">Boolean Equations:</text>
      <text x="0" y="40" fill="white" font-family="monospace" font-size="12">D = A ⊕ B ⊕ Bin</text>
      <text x="0" y="60" fill="white" font-family="monospace" font-size="12">Bout = ĀB + Bin(A ⊕ B)′</text>
      <text x="0" y="80" fill="white" font-family="monospace" font-size="12">     = ĀB + BinĀ + BinB</text>

      <text x="0" y="110" fill="white" font-family="Arial, sans-serif" font-size="14" font-weight="bold">Implementation:</text>
      <text x="0" y="130" fill="white" font-family="Arial, sans-serif" font-size="12">Using two Half Subtractors</text>
      <text x="0" y="150" fill="white" font-family="Arial, sans-serif" font-size="12">D₁ = A ⊕ B</text>
      <text x="0" y="170" fill="white" font-family="Arial, sans-serif" font-size="12">D = D₁ ⊕ Bin</text>
      <text x="0" y="190" fill="white" font-family="Arial, sans-serif" font-size="12">Bout = ĀB + BinD₁′</text>
    </g>

    <!-- Block Diagram -->
    <g transform="translate(450, 80)">
      <text x="0" y="20" fill="white" font-family="Arial, sans-serif" font-size="14" font-weight="bold">Block Diagram:</text>
      <rect x="20" y="30" width="120" height="80" fill="none" stroke="white" stroke-width="2"/>
      <text x="80" y="50" text-anchor="middle" fill="white" font-family="Arial, sans-serif" font-size="12" font-weight="bold">FULL</text>
      <text x="80" y="65" text-anchor="middle" fill="white" font-family="Arial, sans-serif" font-size="12" font-weight="bold">SUBTRACTOR</text>

      <!-- Inputs -->
      <line x1="0" y1="45" x2="20" y2="45" stroke="white" stroke-width="2"/>
      <line x1="0" y1="70" x2="20" y2="70" stroke="white" stroke-width="2"/>
      <line x1="0" y1="95" x2="20" y2="95" stroke="white" stroke-width="2"/>
      <text x="-10" y="50" fill="white" font-family="Arial, sans-serif" font-size="12">A</text>
      <text x="-10" y="75" fill="white" font-family="Arial, sans-serif" font-size="12">B</text>
      <text x="-15" y="100" fill="white" font-family="Arial, sans-serif" font-size="12">Bin</text>

      <!-- Outputs -->
      <line x1="140" y1="55" x2="160" y2="55" stroke="white" stroke-width="2"/>
      <line x1="140" y1="85" x2="160" y2="85" stroke="white" stroke-width="2"/>
      <text x="165" y="60" fill="white" font-family="Arial, sans-serif" font-size="12">D</text>
      <text x="165" y="90" fill="white" font-family="Arial, sans-serif" font-size="12">Bout</text>
    </g>

    <text x="20" y="280" fill="white" font-family="Arial, sans-serif" font-size="12">Performs D = A - B - Bin. Essential for multi-bit subtraction.</text>
  </g>

  <!-- 4-bit Parallel Adder -->
  <g transform="translate(700, 500)">
    <rect x="0" y="0" width="650" height="580" fill="url(#parallelGrad)" rx="10"/>
    <text x="325" y="25" text-anchor="middle" fill="white" font-family="Arial, sans-serif" font-size="18" font-weight="bold">4-BIT PARALLEL ADDER</text>

    <text x="20" y="50" fill="white" font-family="Arial, sans-serif" font-size="14" font-weight="bold">Block Diagram using Full Adders:</text>

    <!-- 4-bit parallel adder diagram -->
    <g transform="translate(20, 70)">
      <!-- Full Adder blocks -->
      <g transform="translate(480, 0)">
        <rect x="0" y="0" width="80" height="60" fill="white" stroke="#0e7490" stroke-width="2"/>
        <text x="40" y="25" text-anchor="middle" fill="#0e7490" font-family="Arial, sans-serif" font-size="10" font-weight="bold">FA</text>
        <text x="40" y="40" text-anchor="middle" fill="#0e7490" font-family="Arial, sans-serif" font-size="10" font-weight="bold">MSB</text>
        <text x="40" y="55" text-anchor="middle" fill="#0e7490" font-family="Arial, sans-serif" font-size="8">FA₃</text>
      </g>

      <g transform="translate(360, 0)">
        <rect x="0" y="0" width="80" height="60" fill="white" stroke="#0e7490" stroke-width="2"/>
        <text x="40" y="30" text-anchor="middle" fill="#0e7490" font-family="Arial, sans-serif" font-size="10" font-weight="bold">FA₂</text>
      </g>

      <g transform="translate(240, 0)">
        <rect x="0" y="0" width="80" height="60" fill="white" stroke="#0e7490" stroke-width="2"/>
        <text x="40" y="30" text-anchor="middle" fill="#0e7490" font-family="Arial, sans-serif" font-size="10" font-weight="bold">FA₁</text>
      </g>

      <g transform="translate(120, 0)">
        <rect x="0" y="0" width="80" height="60" fill="white" stroke="#0e7490" stroke-width="2"/>
        <text x="40" y="25" text-anchor="middle" fill="#0e7490" font-family="Arial, sans-serif" font-size="10" font-weight="bold">FA</text>
        <text x="40" y="40" text-anchor="middle" fill="#0e7490" font-family="Arial, sans-serif" font-size="10" font-weight="bold">LSB</text>
        <text x="40" y="55" text-anchor="middle" fill="#0e7490" font-family="Arial, sans-serif" font-size="8">FA₀</text>
      </g>

      <!-- Input lines A -->
      <text x="80" y="-10" fill="white" font-family="Arial, sans-serif" font-size="12" font-weight="bold">A₃ A₂ A₁ A₀</text>
      <line x1="100" y1="-5" x2="100" y2="0" stroke="white" stroke-width="2"/>
      <line x1="160" y1="-5" x2="160" y2="0" stroke="white" stroke-width="2"/>
      <line x1="280" y1="-5" x2="280" y2="0" stroke="white" stroke-width="2"/>
      <line x1="400" y1="-5" x2="400" y2="0" stroke="white" stroke-width="2"/>
      <line x1="520" y1="-5" x2="520" y2="0" stroke="white" stroke-width="2"/>

      <!-- Input lines B -->
      <text x="80" y="85" fill="white" font-family="Arial, sans-serif" font-size="12" font-weight="bold">B₃ B₂ B₁ B₀</text>
      <line x1="100" y1="75" x2="100" y2="60" stroke="white" stroke-width="2"/>
      <line x1="160" y1="75" x2="160" y2="60" stroke="white" stroke-width="2"/>
      <line x1="280" y1="75" x2="280" y2="60" stroke="white" stroke-width="2"/>
      <line x1="400" y1="75" x2="400" y2="60" stroke="white" stroke-width="2"/>
      <line x1="520" y1="75" x2="520" y2="60" stroke="white" stroke-width="2"/>

      <!-- Carry connections -->
      <line x1="200" y1="45" x2="240" y2="45" stroke="white" stroke-width="2"/>
      <line x1="320" y1="45" x2="360" y2="45" stroke="white" stroke-width="2"/>
      <line x1="440" y1="45" x2="480" y2="45" stroke="white" stroke-width="2"/>

      <!-- External carry in -->
      <line x1="80" y1="45" x2="120" y2="45" stroke="white" stroke-width="2"/>
      <text x="70" y="50" fill="white" font-family="Arial, sans-serif" font-size="12">Cin</text>

      <!-- External carry out -->
      <line x1="560" y1="45" x2="580" y2="45" stroke="white" stroke-width="2"/>
      <text x="585" y="50" fill="white" font-family="Arial, sans-serif" font-size="12">Cout</text>

      <!-- Sum outputs -->
      <line x1="160" y1="80" x2="160" y2="100" stroke="white" stroke-width="2"/>
      <line x1="280" y1="80" x2="280" y2="100" stroke="white" stroke-width="2"/>
      <line x1="400" y1="80" x2="400" y2="100" stroke="white" stroke-width="2"/>
      <line x1="520" y1="80" x2="520" y2="100" stroke="white" stroke-width="2"/>
      <text x="150" y="115" fill="white" font-family="Arial, sans-serif" font-size="12">S₀</text>
      <text x="270" y="115" fill="white" font-family="Arial, sans-serif" font-size="12">S₁</text>
      <text x="390" y="115" fill="white" font-family="Arial, sans-serif" font-size="12">S₂</text>
      <text x="510" y="115" fill="white" font-family="Arial, sans-serif" font-size="12">S₃</text>
    </g>

    <!-- Example calculation -->
    <g transform="translate(20, 220)">
      <text x="0" y="20" fill="white" font-family="Arial, sans-serif" font-size="14" font-weight="bold">Example: 1101₂ + 1011₂</text>

      <g transform="translate(0, 40)">
        <text x="0" y="0" fill="white" font-family="monospace" font-size="12">   Cin  1  1  1  0  ← Carry bits</text>
        <text x="0" y="20" fill="white" font-family="monospace" font-size="12">         1  1  0  1  ← A (13₁₀)</text>
        <text x="0" y="40" fill="white" font-family="monospace" font-size="12">       + 1  0  1  1  ← B (11₁₀)</text>
        <text x="0" y="60" fill="white" font-family="monospace" font-size="12">       ___________</text>
        <text x="0" y="80" fill="white" font-family="monospace" font-size="12">   Cout 1  1  0  0  0  ← Result (24₁₀)</text>
      </g>

      <g transform="translate(0, 140)">
        <text x="0" y="0" fill="white" font-family="Arial, sans-serif" font-size="12" font-weight="bold">Step-by-step:</text>
        <text x="0" y="20" fill="white" font-family="Arial, sans-serif" font-size="11">FA₀: 1+1+0 = 0 with carry 1</text>
        <text x="0" y="35" fill="white" font-family="Arial, sans-serif" font-size="11">FA₁: 0+1+1 = 0 with carry 1</text>
        <text x="0" y="50" fill="white" font-family="Arial, sans-serif" font-size="11">FA₂: 1+0+1 = 0 with carry 1</text>
        <text x="0" y="65" fill="white" font-family="Arial, sans-serif" font-size="11">FA₃: 1+1+1 = 1 with carry 1</text>
      </g>
    </g>

    <!-- Characteristics -->
    <g transform="translate(350, 220)">
      <text x="0" y="20" fill="white" font-family="Arial, sans-serif" font-size="14" font-weight="bold">Characteristics:</text>
      <text x="0" y="40" fill="white" font-family="Arial, sans-serif" font-size="12">• Fast parallel operation</text>
      <text x="0" y="55" fill="white" font-family="Arial, sans-serif" font-size="12">• Ripple carry propagation</text>
      <text x="0" y="70" fill="white" font-family="Arial, sans-serif" font-size="12">• Delay ∝ number of bits</text>
      <text x="0" y="85" fill="white" font-family="Arial, sans-serif" font-size="12">• Simple implementation</text>

      <text x="0" y="115" fill="white" font-family="Arial, sans-serif" font-size="14" font-weight="bold">Propagation Delay:</text>
      <text x="0" y="135" fill="white" font-family="Arial, sans-serif" font-size="12">Total delay = n × tpd(FA)</text>
      <text x="0" y="150" fill="white" font-family="Arial, sans-serif" font-size="12">For 4-bit: 4 × tpd(FA)</text>

      <text x="0" y="180" fill="white" font-family="Arial, sans-serif" font-size="14" font-weight="bold">Applications:</text>
      <text x="0" y="200" fill="white" font-family="Arial, sans-serif" font-size="12">• ALU units</text>
      <text x="0" y="215" fill="white" font-family="Arial, sans-serif" font-size="12">• Calculator circuits</text>
      <text x="0" y="230" fill="white" font-family="Arial, sans-serif" font-size="12">• Computer arithmetic</text>
    </g>

    <text x="20" y="560" fill="white" font-family="Arial, sans-serif" font-size="12">Cascaded full adders enable addition of multi-bit binary numbers with parallel processing.</text>
  </g>
</svg>