<svg width="1400" height="900" xmlns="http://www.w3.org/2000/svg">
  <defs>
    <linearGradient id="headerGrad" x1="0%" y1="0%" x2="100%" y2="0%">
      <stop offset="0%" style="stop-color:#2563eb;stop-opacity:1" />
      <stop offset="100%" style="stop-color:#1d4ed8;stop-opacity:1" />
    </linearGradient>
    <linearGradient id="binToGrayGrad" x1="0%" y1="0%" x2="100%" y2="0%">
      <stop offset="0%" style="stop-color:#059669;stop-opacity:1" />
      <stop offset="100%" style="stop-color:#047857;stop-opacity:1" />
    </linearGradient>
    <linearGradient id="grayToBinGrad" x1="0%" y1="0%" x2="100%" y2="0%">
      <stop offset="0%" style="stop-color:#dc2626;stop-opacity:1" />
      <stop offset="100%" style="stop-color:#b91c1c;stop-opacity:1" />
    </linearGradient>
    <linearGradient id="comparisonGrad" x1="0%" y1="0%" x2="100%" y2="0%">
      <stop offset="0%" style="stop-color:#9333ea;stop-opacity:1" />
      <stop offset="100%" style="stop-color:#7c3aed;stop-opacity:1" />
    </linearGradient>
  </defs>

  <!-- Background -->
  <rect width="1400" height="900" fill="#f8fafc"/>

  <!-- Title -->
  <rect x="0" y="0" width="1400" height="60" fill="url(#headerGrad)"/>
  <text x="700" y="35" text-anchor="middle" fill="white" font-family="Arial, sans-serif" font-size="24" font-weight="bold">Code Converters: Binary ↔ Gray Code</text>

  <!-- Binary to Gray Converter -->
  <g transform="translate(50, 80)">
    <rect x="0" y="0" width="650" height="380" fill="url(#binToGrayGrad)" rx="10"/>
    <text x="325" y="25" text-anchor="middle" fill="white" font-family="Arial, sans-serif" font-size="18" font-weight="bold">BINARY TO GRAY CODE CONVERTER</text>

    <!-- Truth Table -->
    <g transform="translate(20, 40)">
      <text x="0" y="20" fill="white" font-family="Arial, sans-serif" font-size="14" font-weight="bold">4-bit Truth Table:</text>
      <rect x="0" y="25" width="250" height="280" fill="white" stroke="#047857" stroke-width="2"/>
      <text x="125" y="40" text-anchor="middle" fill="#047857" font-family="Arial, sans-serif" font-size="12" font-weight="bold">Binary to Gray Conversion</text>
      <line x1="0" y1="45" x2="250" y2="45" stroke="#047857" stroke-width="1"/>

      <!-- Headers -->
      <text x="30" y="60" text-anchor="middle" fill="#047857" font-family="Arial, sans-serif" font-size="10" font-weight="bold">Decimal</text>
      <text x="80" y="60" text-anchor="middle" fill="#047857" font-family="Arial, sans-serif" font-size="10" font-weight="bold">Binary</text>
      <text x="170" y="60" text-anchor="middle" fill="#047857" font-family="Arial, sans-serif" font-size="10" font-weight="bold">Gray</text>
      <text x="220" y="60" text-anchor="middle" fill="#047857" font-family="Arial, sans-serif" font-size="10" font-weight="bold">Gray</text>
      <line x1="0" y1="65" x2="250" y2="65" stroke="#047857" stroke-width="1"/>
      <text x="80" y="75" text-anchor="middle" fill="#047857" font-family="Arial, sans-serif" font-size="9">B₃B₂B₁B₀</text>
      <text x="170" y="75" text-anchor="middle" fill="#047857" font-family="Arial, sans-serif" font-size="9">G₃G₂G₁G₀</text>
      <text x="220" y="75" text-anchor="middle" fill="#047857" font-family="Arial, sans-serif" font-size="9">Decimal</text>
      <line x1="0" y1="80" x2="250" y2="80" stroke="#047857" stroke-width="1"/>

      <!-- Data rows -->
      <g font-family="monospace" font-size="9" fill="#047857">
        <text x="30" y="95" text-anchor="middle">0</text><text x="80" y="95" text-anchor="middle">0000</text><text x="170" y="95" text-anchor="middle">0000</text><text x="220" y="95" text-anchor="middle">0</text>
        <text x="30" y="110" text-anchor="middle">1</text><text x="80" y="110" text-anchor="middle">0001</text><text x="170" y="110" text-anchor="middle">0001</text><text x="220" y="110" text-anchor="middle">1</text>
        <text x="30" y="125" text-anchor="middle">2</text><text x="80" y="125" text-anchor="middle">0010</text><text x="170" y="125" text-anchor="middle">0011</text><text x="220" y="125" text-anchor="middle">3</text>
        <text x="30" y="140" text-anchor="middle">3</text><text x="80" y="140" text-anchor="middle">0011</text><text x="170" y="140" text-anchor="middle">0010</text><text x="220" y="140" text-anchor="middle">2</text>
        <text x="30" y="155" text-anchor="middle">4</text><text x="80" y="155" text-anchor="middle">0100</text><text x="170" y="155" text-anchor="middle">0110</text><text x="220" y="155" text-anchor="middle">6</text>
        <text x="30" y="170" text-anchor="middle">5</text><text x="80" y="170" text-anchor="middle">0101</text><text x="170" y="170" text-anchor="middle">0111</text><text x="220" y="170" text-anchor="middle">7</text>
        <text x="30" y="185" text-anchor="middle">6</text><text x="80" y="185" text-anchor="middle">0110</text><text x="170" y="185" text-anchor="middle">0101</text><text x="220" y="185" text-anchor="middle">5</text>
        <text x="30" y="200" text-anchor="middle">7</text><text x="80" y="200" text-anchor="middle">0111</text><text x="170" y="200" text-anchor="middle">0100</text><text x="220" y="200" text-anchor="middle">4</text>
        <text x="30" y="215" text-anchor="middle">8</text><text x="80" y="215" text-anchor="middle">1000</text><text x="170" y="215" text-anchor="middle">1100</text><text x="220" y="215" text-anchor="middle">12</text>
        <text x="30" y="230" text-anchor="middle">9</text><text x="80" y="230" text-anchor="middle">1001</text><text x="170" y="230" text-anchor="middle">1101</text><text x="220" y="230" text-anchor="middle">13</text>
        <text x="30" y="245" text-anchor="middle">10</text><text x="80" y="245" text-anchor="middle">1010</text><text x="170" y="245" text-anchor="middle">1111</text><text x="220" y="245" text-anchor="middle">15</text>
        <text x="30" y="260" text-anchor="middle">11</text><text x="80" y="260" text-anchor="middle">1011</text><text x="170" y="260" text-anchor="middle">1110</text><text x="220" y="260" text-anchor="middle">14</text>
        <text x="30" y="275" text-anchor="middle">12</text><text x="80" y="275" text-anchor="middle">1100</text><text x="170" y="275" text-anchor="middle">1010</text><text x="220" y="275" text-anchor="middle">10</text>
        <text x="30" y="290" text-anchor="middle">13</text><text x="80" y="290" text-anchor="middle">1101</text><text x="170" y="290" text-anchor="middle">1011</text><text x="220" y="290" text-anchor="middle">11</text>
        <text x="30" y="305" text-anchor="middle">14</text><text x="80" y="305" text-anchor="middle">1110</text><text x="170" y="305" text-anchor="middle">1001</text><text x="220" y="305" text-anchor="middle">9</text>
        <text x="30" y="320" text-anchor="middle">15</text><text x="80" y="320" text-anchor="middle">1111</text><text x="170" y="320" text-anchor="middle">1000</text><text x="220" y="320" text-anchor="middle">8</text>
      </g>
    </g>

    <!-- Conversion Rules -->
    <g transform="translate(290, 40)">
      <text x="0" y="20" fill="white" font-family="Arial, sans-serif" font-size="14" font-weight="bold">Conversion Rules:</text>
      <text x="0" y="45" fill="white" font-family="Arial, sans-serif" font-size="12" font-weight="bold">For 4-bit conversion:</text>
      <text x="0" y="65" fill="white" font-family="monospace" font-size="12">G₃ = B₃</text>
      <text x="0" y="85" fill="white" font-family="monospace" font-size="12">G₂ = B₃ ⊕ B₂</text>
      <text x="0" y="105" fill="white" font-family="monospace" font-size="12">G₁ = B₂ ⊕ B₁</text>
      <text x="0" y="125" fill="white" font-family="monospace" font-size="12">G₀ = B₁ ⊕ B₀</text>

      <text x="0" y="155" fill="white" font-family="Arial, sans-serif" font-size="12" font-weight="bold">General Rule:</text>
      <text x="0" y="175" fill="white" font-family="monospace" font-size="12">G_n = B_n (MSB)</text>
      <text x="0" y="195" fill="white" font-family="monospace" font-size="12">G_i = B_{i+1} ⊕ B_i</text>
      <text x="0" y="215" fill="white" font-family="Arial, sans-serif" font-size="11">for i = n-1, n-2, ..., 0</text>

      <text x="0" y="245" fill="white" font-family="Arial, sans-serif" font-size="12" font-weight="bold">Key Points:</text>
      <text x="0" y="265" fill="white" font-family="Arial, sans-serif" font-size="11">• MSB of Gray = MSB of Binary</text>
      <text x="0" y="280" fill="white" font-family="Arial, sans-serif" font-size="11">• Each Gray bit = XOR of adjacent</text>
      <text x="0" y="295" fill="white" font-family="Arial, sans-serif" font-size="11">  binary bits</text>
      <text x="0" y="310" fill="white" font-family="Arial, sans-serif" font-size="11">• Only one bit changes between</text>
      <text x="0" y="325" fill="white" font-family="Arial, sans-serif" font-size="11">  consecutive numbers</text>
    </g>

    <!-- Logic Circuit -->
    <g transform="translate(450, 40)">
      <text x="0" y="20" fill="white" font-family="Arial, sans-serif" font-size="14" font-weight="bold">Logic Circuit (4-bit):</text>

      <!-- XOR Gates -->
      <g transform="translate(20, 40)">
        <!-- G3 = B3 (direct connection) -->
        <line x1="0" y1="20" x2="50" y2="20" stroke="white" stroke-width="2"/>
        <text x="-10" y="25" fill="white" font-family="Arial, sans-serif" font-size="10">B₃</text>
        <text x="55" y="25" fill="white" font-family="Arial, sans-serif" font-size="10">G₃</text>

        <!-- G2 = B3 XOR B2 -->
        <g transform="translate(0, 40)">
          <path d="M -10 20 Q 10 20 20 35 Q 40 50 20 65 Q 10 80 -10 80 Q 10 50 -10 20" fill="none" stroke="white" stroke-width="2"/>
          <path d="M 0 20 Q 20 20 30 35 Q 50 50 30 65 Q 20 80 0 80 Q 20 50 0 20" fill="white" stroke="#047857" stroke-width="2"/>
          <path d="M 30 35 Q 70 35 80 50 Q 70 65 30 65" fill="white" stroke="#047857" stroke-width="2"/>
          <line x1="-20" y1="35" x2="5" y2="35" stroke="white" stroke-width="2"/>
          <line x1="-20" y1="65" x2="5" y2="65" stroke="white" stroke-width="2"/>
          <line x1="80" y1="50" x2="100" y2="50" stroke="white" stroke-width="2"/>
          <text x="-30" y="40" fill="white" font-family="Arial, sans-serif" font-size="9">B₃</text>
          <text x="-30" y="70" fill="white" font-family="Arial, sans-serif" font-size="9">B₂</text>
          <text x="105" y="55" fill="white" font-family="Arial, sans-serif" font-size="9">G₂</text>
        </g>

        <!-- G1 = B2 XOR B1 -->
        <g transform="translate(0, 120)">
          <path d="M -10 20 Q 10 20 20 35 Q 40 50 20 65 Q 10 80 -10 80 Q 10 50 -10 20" fill="none" stroke="white" stroke-width="2"/>
          <path d="M 0 20 Q 20 20 30 35 Q 50 50 30 65 Q 20 80 0 80 Q 20 50 0 20" fill="white" stroke="#047857" stroke-width="2"/>
          <path d="M 30 35 Q 70 35 80 50 Q 70 65 30 65" fill="white" stroke="#047857" stroke-width="2"/>
          <line x1="-20" y1="35" x2="5" y2="35" stroke="white" stroke-width="2"/>
          <line x1="-20" y1="65" x2="5" y2="65" stroke="white" stroke-width="2"/>
          <line x1="80" y1="50" x2="100" y2="50" stroke="white" stroke-width="2"/>
          <text x="-30" y="40" fill="white" font-family="Arial, sans-serif" font-size="9">B₂</text>
          <text x="-30" y="70" fill="white" font-family="Arial, sans-serif" font-size="9">B₁</text>
          <text x="105" y="55" fill="white" font-family="Arial, sans-serif" font-size="9">G₁</text>
        </g>

        <!-- G0 = B1 XOR B0 -->
        <g transform="translate(0, 200)">
          <path d="M -10 20 Q 10 20 20 35 Q 40 50 20 65 Q 10 80 -10 80 Q 10 50 -10 20" fill="none" stroke="white" stroke-width="2"/>
          <path d="M 0 20 Q 20 20 30 35 Q 50 50 30 65 Q 20 80 0 80 Q 20 50 0 20" fill="white" stroke="#047857" stroke-width="2"/>
          <path d="M 30 35 Q 70 35 80 50 Q 70 65 30 65" fill="white" stroke="#047857" stroke-width="2"/>
          <line x1="-20" y1="35" x2="5" y2="35" stroke="white" stroke-width="2"/>
          <line x1="-20" y1="65" x2="5" y2="65" stroke="white" stroke-width="2"/>
          <line x1="80" y1="50" x2="100" y2="50" stroke="white" stroke-width="2"/>
          <text x="-30" y="40" fill="white" font-family="Arial, sans-serif" font-size="9">B₁</text>
          <text x="-30" y="70" fill="white" font-family="Arial, sans-serif" font-size="9">B₀</text>
          <text x="105" y="55" fill="white" font-family="Arial, sans-serif" font-size="9">G₀</text>
        </g>
      </g>
    </g>

    <text x="20" y="360" fill="white" font-family="Arial, sans-serif" font-size="12">Binary to Gray: Each bit (except MSB) is XOR of adjacent binary bits. Used in analog-to-digital converters.</text>
  </g>

  <!-- Gray to Binary Converter -->
  <g transform="translate(720, 80)">
    <rect x="0" y="0" width="630" height="380" fill="url(#grayToBinGrad)" rx="10"/>
    <text x="315" y="25" text-anchor="middle" fill="white" font-family="Arial, sans-serif" font-size="18" font-weight="bold">GRAY TO BINARY CODE CONVERTER</text>

    <!-- Conversion Rules -->
    <g transform="translate(20, 40)">
      <text x="0" y="20" fill="white" font-family="Arial, sans-serif" font-size="14" font-weight="bold">Conversion Rules:</text>
      <text x="0" y="45" fill="white" font-family="Arial, sans-serif" font-size="12" font-weight="bold">For 4-bit conversion:</text>
      <text x="0" y="65" fill="white" font-family="monospace" font-size="12">B₃ = G₃</text>
      <text x="0" y="85" fill="white" font-family="monospace" font-size="12">B₂ = B₃ ⊕ G₂</text>
      <text x="0" y="105" fill="white" font-family="monospace" font-size="12">B₁ = B₂ ⊕ G₁</text>
      <text x="0" y="125" fill="white" font-family="monospace" font-size="12">B₀ = B₁ ⊕ G₀</text>

      <text x="0" y="155" fill="white" font-family="Arial, sans-serif" font-size="12" font-weight="bold">General Rule:</text>
      <text x="0" y="175" fill="white" font-family="monospace" font-size="12">B_n = G_n (MSB)</text>
      <text x="0" y="195" fill="white" font-family="monospace" font-size="12">B_i = B_{i+1} ⊕ G_i</text>
      <text x="0" y="215" fill="white" font-family="Arial, sans-serif" font-size="11">for i = n-1, n-2, ..., 0</text>

      <text x="0" y="245" fill="white" font-family="Arial, sans-serif" font-size="12" font-weight="bold">Alternative Method:</text>
      <text x="0" y="265" fill="white" font-family="monospace" font-size="11">B₃ = G₃</text>
      <text x="0" y="280" fill="white" font-family="monospace" font-size="11">B₂ = G₃ ⊕ G₂</text>
      <text x="0" y="295" fill="white" font-family="monospace" font-size="11">B₁ = G₃ ⊕ G₂ ⊕ G₁</text>
      <text x="0" y="310" fill="white" font-family="monospace" font-size="11">B₀ = G₃ ⊕ G₂ ⊕ G₁ ⊕ G₀</text>
      <text x="0" y="330" fill="white" font-family="Arial, sans-serif" font-size="10">(Cascade XOR from MSB)</text>
    </g>

    <!-- Logic Circuit -->
    <g transform="translate(280, 40)">
      <text x="0" y="20" fill="white" font-family="Arial, sans-serif" font-size="14" font-weight="bold">Logic Circuit (4-bit):</text>

      <g transform="translate(20, 40)">
        <!-- B3 = G3 (direct connection) -->
        <line x1="0" y1="20" x2="50" y2="20" stroke="white" stroke-width="2"/>
        <text x="-10" y="25" fill="white" font-family="Arial, sans-serif" font-size="10">G₃</text>
        <text x="55" y="25" fill="white" font-family="Arial, sans-serif" font-size="10">B₃</text>

        <!-- B2 = B3 XOR G2 -->
        <g transform="translate(0, 40)">
          <path d="M -10 20 Q 10 20 20 35 Q 40 50 20 65 Q 10 80 -10 80 Q 10 50 -10 20" fill="none" stroke="white" stroke-width="2"/>
          <path d="M 0 20 Q 20 20 30 35 Q 50 50 30 65 Q 20 80 0 80 Q 20 50 0 20" fill="white" stroke="#b91c1c" stroke-width="2"/>
          <path d="M 30 35 Q 70 35 80 50 Q 70 65 30 65" fill="white" stroke="#b91c1c" stroke-width="2"/>
          <line x1="-20" y1="35" x2="5" y2="35" stroke="white" stroke-width="2"/>
          <line x1="-20" y1="65" x2="5" y2="65" stroke="white" stroke-width="2"/>
          <line x1="80" y1="50" x2="100" y2="50" stroke="white" stroke-width="2"/>
          <text x="-30" y="40" fill="white" font-family="Arial, sans-serif" font-size="9">B₃</text>
          <text x="-30" y="70" fill="white" font-family="Arial, sans-serif" font-size="9">G₂</text>
          <text x="105" y="55" fill="white" font-family="Arial, sans-serif" font-size="9">B₂</text>
        </g>

        <!-- B1 = B2 XOR G1 -->
        <g transform="translate(0, 120)">
          <path d="M -10 20 Q 10 20 20 35 Q 40 50 20 65 Q 10 80 -10 80 Q 10 50 -10 20" fill="none" stroke="white" stroke-width="2"/>
          <path d="M 0 20 Q 20 20 30 35 Q 50 50 30 65 Q 20 80 0 80 Q 20 50 0 20" fill="white" stroke="#b91c1c" stroke-width="2"/>
          <path d="M 30 35 Q 70 35 80 50 Q 70 65 30 65" fill="white" stroke="#b91c1c" stroke-width="2"/>
          <line x1="-20" y1="35" x2="5" y2="35" stroke="white" stroke-width="2"/>
          <line x1="-20" y1="65" x2="5" y2="65" stroke="white" stroke-width="2"/>
          <line x1="80" y1="50" x2="100" y2="50" stroke="white" stroke-width="2"/>
          <text x="-30" y="40" fill="white" font-family="Arial, sans-serif" font-size="9">B₂</text>
          <text x="-30" y="70" fill="white" font-family="Arial, sans-serif" font-size="9">G₁</text>
          <text x="105" y="55" fill="white" font-family="Arial, sans-serif" font-size="9">B₁</text>
        </g>

        <!-- B0 = B1 XOR G0 -->
        <g transform="translate(0, 200)">
          <path d="M -10 20 Q 10 20 20 35 Q 40 50 20 65 Q 10 80 -10 80 Q 10 50 -10 20" fill="none" stroke="white" stroke-width="2"/>
          <path d="M 0 20 Q 20 20 30 35 Q 50 50 30 65 Q 20 80 0 80 Q 20 50 0 20" fill="white" stroke="#b91c1c" stroke-width="2"/>
          <path d="M 30 35 Q 70 35 80 50 Q 70 65 30 65" fill="white" stroke="#b91c1c" stroke-width="2"/>
          <line x1="-20" y1="35" x2="5" y2="35" stroke="white" stroke-width="2"/>
          <line x1="-20" y1="65" x2="5" y2="65" stroke="white" stroke-width="2"/>
          <line x1="80" y1="50" x2="100" y2="50" stroke="white" stroke-width="2"/>
          <text x="-30" y="40" fill="white" font-family="Arial, sans-serif" font-size="9">B₁</text>
          <text x="-30" y="70" fill="white" font-family="Arial, sans-serif" font-size="9">G₀</text>
          <text x="105" y="55" fill="white" font-family="Arial, sans-serif" font-size="9">B₀</text>
        </g>

        <!-- Connection lines showing cascade -->
        <line x1="50" y1="20" x2="70" y2="20" stroke="white" stroke-width="1"/>
        <line x1="70" y1="20" x2="70" y2="75" stroke="white" stroke-width="1"/>
        <line x1="70" y1="75" x2="-20" y2="75" stroke="white" stroke-width="1"/>

        <line x1="100" y1="90" x2="120" y2="90" stroke="white" stroke-width="1"/>
        <line x1="120" y1="90" x2="120" y2="155" stroke="white" stroke-width="1"/>
        <line x1="120" y1="155" x2="-20" y2="155" stroke="white" stroke-width="1"/>

        <line x1="100" y1="170" x2="140" y2="170" stroke="white" stroke-width="1"/>
        <line x1="140" y1="170" x2="140" y2="235" stroke="white" stroke-width="1"/>
        <line x1="140" y1="235" x2="-20" y2="235" stroke="white" stroke-width="1"/>
      </g>
    </g>

    <text x="20" y="360" fill="white" font-family="Arial, sans-serif" font-size="12">Gray to Binary: Sequential XOR operations. Each binary bit depends on previous binary bit and current Gray bit.</text>
  </g>

  <!-- Comparison and Applications -->
  <g transform="translate(50, 480)">
    <rect x="0" y="0" width="1300" height="380" fill="url(#comparisonGrad)" rx="10"/>
    <text x="650" y="25" text-anchor="middle" fill="white" font-family="Arial, sans-serif" font-size="18" font-weight="bold">CODE CONVERTER COMPARISON &amp; APPLICATIONS</text>

    <!-- Block Diagrams -->
    <g transform="translate(20, 50)">
      <text x="0" y="20" fill="white" font-family="Arial, sans-serif" font-size="16" font-weight="bold">Block Diagrams:</text>

      <!-- Binary to Gray Block -->
      <g transform="translate(50, 40)">
        <rect x="0" y="0" width="120" height="60" fill="white" stroke="#7c3aed" stroke-width="2"/>
        <text x="60" y="25" text-anchor="middle" fill="#7c3aed" font-family="Arial, sans-serif" font-size="12" font-weight="bold">BINARY</text>
        <text x="60" y="40" text-anchor="middle" fill="#7c3aed" font-family="Arial, sans-serif" font-size="12" font-weight="bold">TO</text>
        <text x="60" y="55" text-anchor="middle" fill="#7c3aed" font-family="Arial, sans-serif" font-size="12" font-weight="bold">GRAY</text>

        <!-- Inputs -->
        <line x1="-20" y1="15" x2="0" y2="15" stroke="white" stroke-width="2"/>
        <line x1="-20" y1="30" x2="0" y2="30" stroke="white" stroke-width="2"/>
        <line x1="-20" y1="45" x2="0" y2="45" stroke="white" stroke-width="2"/>
        <text x="-25" y="20" fill="white" font-family="Arial, sans-serif" font-size="10">B₃</text>
        <text x="-25" y="35" fill="white" font-family="Arial, sans-serif" font-size="10">B₂</text>
        <text x="-25" y="50" fill="white" font-family="Arial, sans-serif" font-size="10">B₁</text>
        <text x="-25" y="65" fill="white" font-family="Arial, sans-serif" font-size="10">B₀</text>

        <!-- Outputs -->
        <line x1="120" y1="15" x2="140" y2="15" stroke="white" stroke-width="2"/>
        <line x1="120" y1="30" x2="140" y2="30" stroke="white" stroke-width="2"/>
        <line x1="120" y1="45" x2="140" y2="45" stroke="white" stroke-width="2"/>
        <text x="145" y="20" fill="white" font-family="Arial, sans-serif" font-size="10">G₃</text>
        <text x="145" y="35" fill="white" font-family="Arial, sans-serif" font-size="10">G₂</text>
        <text x="145" y="50" fill="white" font-family="Arial, sans-serif" font-size="10">G₁</text>
        <text x="145" y="65" fill="white" font-family="Arial, sans-serif" font-size="10">G₀</text>
      </g>

      <!-- Gray to Binary Block -->
      <g transform="translate(250, 40)">
        <rect x="0" y="0" width="120" height="60" fill="white" stroke="#7c3aed" stroke-width="2"/>
        <text x="60" y="25" text-anchor="middle" fill="#7c3aed" font-family="Arial, sans-serif" font-size="12" font-weight="bold">GRAY</text>
        <text x="60" y="40" text-anchor="middle" fill="#7c3aed" font-family="Arial, sans-serif" font-size="12" font-weight="bold">TO</text>
        <text x="60" y="55" text-anchor="middle" fill="#7c3aed" font-family="Arial, sans-serif" font-size="12" font-weight="bold">BINARY</text>

        <!-- Inputs -->
        <line x1="-20" y1="15" x2="0" y2="15" stroke="white" stroke-width="2"/>
        <line x1="-20" y1="30" x2="0" y2="30" stroke="white" stroke-width="2"/>
        <line x1="-20" y1="45" x2="0" y2="45" stroke="white" stroke-width="2"/>
        <text x="-25" y="20" fill="white" font-family="Arial, sans-serif" font-size="10">G₃</text>
        <text x="-25" y="35" fill="white" font-family="Arial, sans-serif" font-size="10">G₂</text>
        <text x="-25" y="50" fill="white" font-family="Arial, sans-serif" font-size="10">G₁</text>
        <text x="-25" y="65" fill="white" font-family="Arial, sans-serif" font-size="10">G₀</text>

        <!-- Outputs -->
        <line x1="120" y1="15" x2="140" y2="15" stroke="white" stroke-width="2"/>
        <line x1="120" y1="30" x2="140" y2="30" stroke="white" stroke-width="2"/>
        <line x1="120" y1="45" x2="140" y2="45" stroke="white" stroke-width="2"/>
        <text x="145" y="20" fill="white" font-family="Arial, sans-serif" font-size="10">B₃</text>
        <text x="145" y="35" fill="white" font-family="Arial, sans-serif" font-size="10">B₂</text>
        <text x="145" y="50" fill="white" font-family="Arial, sans-serif" font-size="10">B₁</text>
        <text x="145" y="65" fill="white" font-family="Arial, sans-serif" font-size="10">B₀</text>
      </g>

      <!-- Bidirectional System -->
      <g transform="translate(100, 130)">
        <text x="0" y="20" fill="white" font-family="Arial, sans-serif" font-size="14" font-weight="bold">Complete Conversion System:</text>
        <rect x="0" y="30" width="100" height="40" fill="white" stroke="#7c3aed" stroke-width="2"/>
        <text x="50" y="50" text-anchor="middle" fill="#7c3aed" font-family="Arial, sans-serif" font-size="10" font-weight="bold">BINARY</text>

        <!-- Arrows -->
        <line x1="100" y1="40" x2="140" y2="40" stroke="white" stroke-width="2"/>
        <polygon points="135,35 145,40 135,45" fill="white"/>
        <text x="122" y="30" text-anchor="middle" fill="white" font-family="Arial, sans-serif" font-size="9">Bin→Gray</text>

        <line x1="140" y1="60" x2="100" y2="60" stroke="white" stroke-width="2"/>
        <polygon points="105,55 95,60 105,65" fill="white"/>
        <text x="122" y="75" text-anchor="middle" fill="white" font-family="Arial, sans-serif" font-size="9">Gray→Bin</text>

        <rect x="140" y="30" width="100" height="40" fill="white" stroke="#7c3aed" stroke-width="2"/>
        <text x="190" y="50" text-anchor="middle" fill="#7c3aed" font-family="Arial, sans-serif" font-size="10" font-weight="bold">GRAY</text>
      </g>
    </g>

    <!-- Applications -->
    <g transform="translate(450, 50)">
      <text x="0" y="20" fill="white" font-family="Arial, sans-serif" font-size="16" font-weight="bold">Applications:</text>

      <!-- ADC Applications -->
      <g transform="translate(0, 40)">
        <text x="0" y="20" fill="white" font-family="Arial, sans-serif" font-size="14" font-weight="bold">1. Analog-to-Digital Converters (ADC):</text>
        <text x="0" y="40" fill="white" font-family="Arial, sans-serif" font-size="12">• Shaft encoders</text>
        <text x="0" y="55" fill="white" font-family="Arial, sans-serif" font-size="12">• Position sensors</text>
        <text x="0" y="70" fill="white" font-family="Arial, sans-serif" font-size="12">• Rotary encoders</text>
        <text x="0" y="85" fill="white" font-family="Arial, sans-serif" font-size="12">• Prevents glitches during transitions</text>

        <text x="0" y="115" fill="white" font-family="Arial, sans-serif" font-size="14" font-weight="bold">2. Error Reduction:</text>
        <text x="0" y="135" fill="white" font-family="Arial, sans-serif" font-size="12">• Only one bit changes at a time</text>
        <text x="0" y="150" fill="white" font-family="Arial, sans-serif" font-size="12">• Minimizes transition errors</text>
        <text x="0" y="165" fill="white" font-family="Arial, sans-serif" font-size="12">• Reliable for mechanical systems</text>

        <text x="0" y="195" fill="white" font-family="Arial, sans-serif" font-size="14" font-weight="bold">3. Digital Communication:</text>
        <text x="0" y="215" fill="white" font-family="Arial, sans-serif" font-size="12">• Error-correcting codes</text>
        <text x="0" y="230" fill="white" font-family="Arial, sans-serif" font-size="12">• Hamming distance optimization</text>
      </g>
    </g>

    <!-- Advantages and Implementation -->
    <g transform="translate(850, 50)">
      <text x="0" y="20" fill="white" font-family="Arial, sans-serif" font-size="16" font-weight="bold">Advantages of Gray Code:</text>

      <g transform="translate(0, 40)">
        <text x="0" y="20" fill="white" font-family="Arial, sans-serif" font-size="14" font-weight="bold">Error Minimization:</text>
        <text x="0" y="40" fill="white" font-family="Arial, sans-serif" font-size="12">• Unit distance property</text>
        <text x="0" y="55" fill="white" font-family="Arial, sans-serif" font-size="12">• Adjacent codes differ by 1 bit</text>
        <text x="0" y="70" fill="white" font-family="Arial, sans-serif" font-size="12">• Reduced mechanical errors</text>

        <text x="0" y="100" fill="white" font-family="Arial, sans-serif" font-size="14" font-weight="bold">Implementation:</text>
        <text x="0" y="120" fill="white" font-family="Arial, sans-serif" font-size="12">• Simple XOR logic</text>
        <text x="0" y="135" fill="white" font-family="Arial, sans-serif" font-size="12">• Low hardware complexity</text>
        <text x="0" y="150" fill="white" font-family="Arial, sans-serif" font-size="12">• Fast conversion</text>

        <text x="0" y="180" fill="white" font-family="Arial, sans-serif" font-size="14" font-weight="bold">IC Implementations:</text>
        <text x="0" y="200" fill="white" font-family="Arial, sans-serif" font-size="12">74180 - 9-bit parity gen/checker</text>
        <text x="0" y="215" fill="white" font-family="Arial, sans-serif" font-size="12">74182 - Look-ahead carry gen</text>
        <text x="0" y="230" fill="white" font-family="Arial, sans-serif" font-size="12">Custom converters in FPGA/CPLD</text>
      </g>
    </g>

    <!-- Example Comparison -->
    <g transform="translate(20, 280)">
      <text x="0" y="20" fill="white" font-family="Arial, sans-serif" font-size="16" font-weight="bold">Example: 3→4 Transition Comparison</text>

      <g transform="translate(50, 40)">
        <text x="0" y="20" fill="white" font-family="Arial, sans-serif" font-size="14" font-weight="bold">Binary Transition:</text>
        <text x="0" y="40" fill="white" font-family="monospace" font-size="12">3₁₀: 0011</text>
        <text x="0" y="55" fill="white" font-family="monospace" font-size="12">4₁₀: 0100</text>
        <text x="0" y="70" fill="white" font-family="Arial, sans-serif" font-size="11" text-decoration="underline">3 bits change!</text>
        <text x="0" y="85" fill="white" font-family="Arial, sans-serif" font-size="11">Risk of errors: 0000-0111</text>
      </g>

      <g transform="translate(250, 40)">
        <text x="0" y="20" fill="white" font-family="Arial, sans-serif" font-size="14" font-weight="bold">Gray Transition:</text>
        <text x="0" y="40" fill="white" font-family="monospace" font-size="12">3₁₀: 0010</text>
        <text x="0" y="55" fill="white" font-family="monospace" font-size="12">4₁₀: 0110</text>
        <text x="0" y="70" fill="white" font-family="Arial, sans-serif" font-size="11" text-decoration="underline">Only 1 bit changes!</text>
        <text x="0" y="85" fill="white" font-family="Arial, sans-serif" font-size="11">Maximum error: ±1 count</text>
      </g>

      <g transform="translate(450, 40)">
        <text x="0" y="20" fill="white" font-family="Arial, sans-serif" font-size="14" font-weight="bold">Design Considerations:</text>
        <text x="0" y="40" fill="white" font-family="Arial, sans-serif" font-size="12">• Propagation delay in cascade</text>
        <text x="0" y="55" fill="white" font-family="Arial, sans-serif" font-size="12">• Power consumption</text>
        <text x="0" y="70" fill="white" font-family="Arial, sans-serif" font-size="12">• Bit width scaling</text>
        <text x="0" y="85" fill="white" font-family="Arial, sans-serif" font-size="12">• Interface requirements</text>
      </g>
    </g>
  </g>

  <text x="700" y="880" text-anchor="middle" fill="#4b5563" font-family="Arial, sans-serif" font-size="12">Code converters enable seamless translation between different digital representations, essential for system interfacing.</text>
</svg>