<svg width="1400" height="1200" xmlns="http://www.w3.org/2000/svg">
  <defs>
    <linearGradient id="headerGrad" x1="0%" y1="0%" x2="100%" y2="0%">
      <stop offset="0%" style="stop-color:#2563eb;stop-opacity:1" />
      <stop offset="100%" style="stop-color:#1d4ed8;stop-opacity:1" />
    </linearGradient>
    <linearGradient id="mux21Grad" x1="0%" y1="0%" x2="100%" y2="0%">
      <stop offset="0%" style="stop-color:#059669;stop-opacity:1" />
      <stop offset="100%" style="stop-color:#047857;stop-opacity:1" />
    </linearGradient>
    <linearGradient id="mux41Grad" x1="0%" y1="0%" x2="100%" y2="0%">
      <stop offset="0%" style="stop-color:#dc2626;stop-opacity:1" />
      <stop offset="100%" style="stop-color:#b91c1c;stop-opacity:1" />
    </linearGradient>
    <linearGradient id="mux81Grad" x1="0%" y1="0%" x2="100%" y2="0%">
      <stop offset="0%" style="stop-color:#9333ea;stop-opacity:1" />
      <stop offset="100%" style="stop-color:#7c3aed;stop-opacity:1" />
    </linearGradient>
    <linearGradient id="demuxGrad" x1="0%" y1="0%" x2="100%" y2="0%">
      <stop offset="0%" style="stop-color:#ea580c;stop-opacity:1" />
      <stop offset="100%" style="stop-color:#dc2626;stop-opacity:1" />
    </linearGradient>
  </defs>

  <!-- Background -->
  <rect width="1400" height="1200" fill="#f8fafc"/>

  <!-- Title -->
  <rect x="0" y="0" width="1400" height="60" fill="url(#headerGrad)"/>
  <text x="700" y="35" text-anchor="middle" fill="white" font-family="Arial, sans-serif" font-size="24" font-weight="bold">Multiplexers and Demultiplexers</text>

  <!-- 2:1 Multiplexer -->
  <g transform="translate(50, 80)">
    <rect x="0" y="0" width="420" height="380" fill="url(#mux21Grad)" rx="10"/>
    <text x="210" y="25" text-anchor="middle" fill="white" font-family="Arial, sans-serif" font-size="18" font-weight="bold">2:1 MULTIPLEXER</text>

    <!-- Truth Table -->
    <g transform="translate(20, 40)">
      <text x="0" y="20" fill="white" font-family="Arial, sans-serif" font-size="14" font-weight="bold">Truth Table:</text>
      <rect x="0" y="25" width="120" height="80" fill="white" stroke="#047857" stroke-width="2"/>
      <text x="60" y="40" text-anchor="middle" fill="#047857" font-family="Arial, sans-serif" font-size="12" font-weight="bold">2:1 MUX</text>
      <line x1="0" y1="45" x2="120" y2="45" stroke="#047857" stroke-width="1"/>

      <!-- Headers -->
      <text x="30" y="60" text-anchor="middle" fill="#047857" font-family="Arial, sans-serif" font-size="11" font-weight="bold">S</text>
      <text x="90" y="60" text-anchor="middle" fill="#047857" font-family="Arial, sans-serif" font-size="11" font-weight="bold">Y</text>
      <line x1="0" y1="65" x2="120" y2="65" stroke="#047857" stroke-width="1"/>

      <!-- Data rows -->
      <text x="30" y="80" text-anchor="middle" fill="#047857" font-family="monospace" font-size="11">0</text>
      <text x="90" y="80" text-anchor="middle" fill="#047857" font-family="monospace" font-size="11">I₀</text>
      <text x="30" y="95" text-anchor="middle" fill="#047857" font-family="monospace" font-size="11">1</text>
      <text x="90" y="95" text-anchor="middle" fill="#047857" font-family="monospace" font-size="11">I₁</text>
    </g>

    <!-- Boolean Equation -->
    <g transform="translate(20, 140)">
      <text x="0" y="20" fill="white" font-family="Arial, sans-serif" font-size="14" font-weight="bold">Boolean Equation:</text>
      <text x="0" y="40" fill="white" font-family="monospace" font-size="12">Y = S̄·I₀ + S·I₁</text>
    </g>

    <!-- Block Diagram -->
    <g transform="translate(160, 60)">
      <text x="0" y="20" fill="white" font-family="Arial, sans-serif" font-size="14" font-weight="bold">Block Diagram:</text>

      <!-- Trapezoid shape for MUX -->
      <g transform="translate(20, 30)">
        <polygon points="0,20 60,20 80,80 0,80" fill="white" stroke="#047857" stroke-width="2"/>
        <text x="40" y="55" text-anchor="middle" fill="#047857" font-family="Arial, sans-serif" font-size="12" font-weight="bold">MUX</text>

        <!-- Inputs -->
        <line x1="-20" y1="35" x2="0" y2="35" stroke="white" stroke-width="2"/>
        <line x1="-20" y1="65" x2="0" y2="65" stroke="white" stroke-width="2"/>
        <text x="-30" y="40" fill="white" font-family="Arial, sans-serif" font-size="12">I₀</text>
        <text x="-30" y="70" fill="white" font-family="Arial, sans-serif" font-size="12">I₁</text>

        <!-- Select -->
        <line x1="30" y1="90" x2="30" y2="80" stroke="white" stroke-width="2"/>
        <text x="30" y="105" text-anchor="middle" fill="white" font-family="Arial, sans-serif" font-size="12">S</text>

        <!-- Output -->
        <line x1="70" y1="50" x2="90" y2="50" stroke="white" stroke-width="2"/>
        <text x="95" y="55" fill="white" font-family="Arial, sans-serif" font-size="12">Y</text>
      </g>
    </g>

    <!-- Logic Circuit -->
    <g transform="translate(20, 190)">
      <text x="0" y="20" fill="white" font-family="Arial, sans-serif" font-size="14" font-weight="bold">Logic Circuit:</text>

      <!-- NOT Gate -->
      <g transform="translate(0, 30)">
        <polygon points="0,20 0,40 30,30" fill="white" stroke="#047857" stroke-width="2"/>
        <circle cx="35" cy="30" r="5" fill="white" stroke="#047857" stroke-width="2"/>
        <line x1="-20" y1="30" x2="0" y2="30" stroke="white" stroke-width="2"/>
        <line x1="40" y1="30" x2="60" y2="30" stroke="white" stroke-width="2"/>
        <text x="-30" y="35" fill="white" font-family="Arial, sans-serif" font-size="10">S</text>
      </g>

      <!-- AND Gates -->
      <g transform="translate(60, 15)">
        <path d="M 0 20 L 40 20 Q 60 20 60 35 Q 60 50 40 50 L 0 50 Z" fill="white" stroke="#047857" stroke-width="2"/>
        <line x1="-20" y1="30" x2="0" y2="30" stroke="white" stroke-width="2"/>
        <line x1="-20" y1="40" x2="0" y2="40" stroke="white" stroke-width="2"/>
        <line x1="60" y1="35" x2="90" y2="35" stroke="white" stroke-width="2"/>
        <text x="-30" y="35" fill="white" font-family="Arial, sans-serif" font-size="10">S̄</text>
        <text x="-30" y="45" fill="white" font-family="Arial, sans-serif" font-size="10">I₀</text>
      </g>

      <g transform="translate(60, 65)">
        <path d="M 0 20 L 40 20 Q 60 20 60 35 Q 60 50 40 50 L 0 50 Z" fill="white" stroke="#047857" stroke-width="2"/>
        <line x1="-20" y1="30" x2="0" y2="30" stroke="white" stroke-width="2"/>
        <line x1="-20" y1="40" x2="0" y2="40" stroke="white" stroke-width="2"/>
        <line x1="60" y1="35" x2="90" y2="35" stroke="white" stroke-width="2"/>
        <text x="-30" y="35" fill="white" font-family="Arial, sans-serif" font-size="10">S</text>
        <text x="-30" y="45" fill="white" font-family="Arial, sans-serif" font-size="10">I₁</text>
      </g>

      <!-- OR Gate -->
      <g transform="translate(150, 40)">
        <path d="M 0 20 Q 20 20 30 35 Q 50 50 30 65 Q 20 80 0 80 Q 20 50 0 20" fill="white" stroke="#047857" stroke-width="2"/>
        <path d="M 30 35 Q 70 35 80 50 Q 70 65 30 65" fill="white" stroke="#047857" stroke-width="2"/>
        <line x1="-20" y1="35" x2="5" y2="35" stroke="white" stroke-width="2"/>
        <line x1="-20" y1="65" x2="5" y2="65" stroke="white" stroke-width="2"/>
        <line x1="80" y1="50" x2="100" y2="50" stroke="white" stroke-width="2"/>
        <text x="105" y="55" fill="white" font-family="Arial, sans-serif" font-size="10">Y</text>
      </g>

      <!-- Connection lines -->
      <line x1="150" y1="50" x2="130" y2="50" stroke="white" stroke-width="2"/>
      <line x1="130" y1="50" x2="130" y2="75" stroke="white" stroke-width="2"/>
      <line x1="150" y1="100" x2="130" y2="100" stroke="white" stroke-width="2"/>
      <line x1="130" y1="100" x2="130" y2="105" stroke="white" stroke-width="2"/>
    </g>

    <text x="20" y="360" fill="white" font-family="Arial, sans-serif" font-size="12">Selects one of two inputs based on select line. Basic building block for larger MUX.</text>
  </g>

  <!-- 4:1 Multiplexer -->
  <g transform="translate(490, 80)">
    <rect x="0" y="0" width="420" height="380" fill="url(#mux41Grad)" rx="10"/>
    <text x="210" y="25" text-anchor="middle" fill="white" font-family="Arial, sans-serif" font-size="18" font-weight="bold">4:1 MULTIPLEXER</text>

    <!-- Truth Table -->
    <g transform="translate(20, 40)">
      <text x="0" y="20" fill="white" font-family="Arial, sans-serif" font-size="14" font-weight="bold">Truth Table:</text>
      <rect x="0" y="25" width="140" height="100" fill="white" stroke="#b91c1c" stroke-width="2"/>
      <text x="70" y="40" text-anchor="middle" fill="#b91c1c" font-family="Arial, sans-serif" font-size="12" font-weight="bold">4:1 MUX</text>
      <line x1="0" y1="45" x2="140" y2="45" stroke="#b91c1c" stroke-width="1"/>

      <!-- Headers -->
      <text x="25" y="60" text-anchor="middle" fill="#b91c1c" font-family="Arial, sans-serif" font-size="10" font-weight="bold">S₁</text>
      <text x="50" y="60" text-anchor="middle" fill="#b91c1c" font-family="Arial, sans-serif" font-size="10" font-weight="bold">S₀</text>
      <text x="110" y="60" text-anchor="middle" fill="#b91c1c" font-family="Arial, sans-serif" font-size="10" font-weight="bold">Y</text>
      <line x1="0" y1="65" x2="140" y2="65" stroke="#b91c1c" stroke-width="1"/>

      <!-- Data rows -->
      <text x="25" y="80" text-anchor="middle" fill="#b91c1c" font-family="monospace" font-size="10">0</text>
      <text x="50" y="80" text-anchor="middle" fill="#b91c1c" font-family="monospace" font-size="10">0</text>
      <text x="110" y="80" text-anchor="middle" fill="#b91c1c" font-family="monospace" font-size="10">I₀</text>
      <text x="25" y="95" text-anchor="middle" fill="#b91c1c" font-family="monospace" font-size="10">0</text>
      <text x="50" y="95" text-anchor="middle" fill="#b91c1c" font-family="monospace" font-size="10">1</text>
      <text x="110" y="95" text-anchor="middle" fill="#b91c1c" font-family="monospace" font-size="10">I₁</text>
      <text x="25" y="110" text-anchor="middle" fill="#b91c1c" font-family="monospace" font-size="10">1</text>
      <text x="50" y="110" text-anchor="middle" fill="#b91c1c" font-family="monospace" font-size="10">0</text>
      <text x="110" y="110" text-anchor="middle" fill="#b91c1c" font-family="monospace" font-size="10">I₂</text>
      <text x="25" y="125" text-anchor="middle" fill="#b91c1c" font-family="monospace" font-size="10">1</text>
      <text x="50" y="125" text-anchor="middle" fill="#b91c1c" font-family="monospace" font-size="10">1</text>
      <text x="110" y="125" text-anchor="middle" fill="#b91c1c" font-family="monospace" font-size="10">I₃</text>
    </g>

    <!-- Boolean Equation -->
    <g transform="translate(20, 160)">
      <text x="0" y="20" fill="white" font-family="Arial, sans-serif" font-size="14" font-weight="bold">Boolean Equation:</text>
      <text x="0" y="40" fill="white" font-family="monospace" font-size="11">Y = S̄₁S̄₀I₀ + S̄₁S₀I₁ + S₁S̄₀I₂ + S₁S₀I₃</text>
    </g>

    <!-- Block Diagram -->
    <g transform="translate(180, 60)">
      <text x="0" y="20" fill="white" font-family="Arial, sans-serif" font-size="14" font-weight="bold">Block Diagram:</text>

      <!-- Trapezoid shape for MUX -->
      <g transform="translate(20, 30)">
        <polygon points="0,20 80,20 100,100 0,100" fill="white" stroke="#b91c1c" stroke-width="2"/>
        <text x="50" y="65" text-anchor="middle" fill="#b91c1c" font-family="Arial, sans-serif" font-size="12" font-weight="bold">4:1</text>
        <text x="50" y="80" text-anchor="middle" fill="#b91c1c" font-family="Arial, sans-serif" font-size="12" font-weight="bold">MUX</text>

        <!-- Inputs -->
        <line x1="-20" y1="35" x2="0" y2="35" stroke="white" stroke-width="2"/>
        <line x1="-20" y1="50" x2="0" y2="50" stroke="white" stroke-width="2"/>
        <line x1="-20" y1="65" x2="0" y2="65" stroke="white" stroke-width="2"/>
        <line x1="-20" y1="80" x2="0" y2="80" stroke="white" stroke-width="2"/>
        <text x="-30" y="40" fill="white" font-family="Arial, sans-serif" font-size="10">I₀</text>
        <text x="-30" y="55" fill="white" font-family="Arial, sans-serif" font-size="10">I₁</text>
        <text x="-30" y="70" fill="white" font-family="Arial, sans-serif" font-size="10">I₂</text>
        <text x="-30" y="85" fill="white" font-family="Arial, sans-serif" font-size="10">I₃</text>

        <!-- Select lines -->
        <line x1="20" y1="110" x2="20" y2="100" stroke="white" stroke-width="2"/>
        <line x1="40" y1="110" x2="40" y2="100" stroke="white" stroke-width="2"/>
        <text x="20" y="125" text-anchor="middle" fill="white" font-family="Arial, sans-serif" font-size="10">S₀</text>
        <text x="40" y="125" text-anchor="middle" fill="white" font-family="Arial, sans-serif" font-size="10">S₁</text>

        <!-- Output -->
        <line x1="90" y1="60" x2="110" y2="60" stroke="white" stroke-width="2"/>
        <text x="115" y="65" fill="white" font-family="Arial, sans-serif" font-size="10">Y</text>
      </g>
    </g>

    <!-- Implementation using 2:1 MUX -->
    <g transform="translate(20, 220)">
      <text x="0" y="20" fill="white" font-family="Arial, sans-serif" font-size="14" font-weight="bold">Implementation using 2:1 MUX:</text>

      <!-- First level 2:1 MUX -->
      <g transform="translate(0, 40)">
        <polygon points="0,0 40,0 50,30 0,30" fill="white" stroke="#b91c1c" stroke-width="1"/>
        <text x="25" y="20" text-anchor="middle" fill="#b91c1c" font-family="Arial, sans-serif" font-size="8">2:1</text>
        <line x1="-15" y1="8" x2="0" y2="8" stroke="white" stroke-width="1"/>
        <line x1="-15" y1="22" x2="0" y2="22" stroke="white" stroke-width="1"/>
        <line x1="15" y1="35" x2="15" y2="30" stroke="white" stroke-width="1"/>
        <line x1="45" y1="15" x2="65" y2="15" stroke="white" stroke-width="1"/>
        <text x="-25" y="13" fill="white" font-family="Arial, sans-serif" font-size="8">I₀</text>
        <text x="-25" y="27" fill="white" font-family="Arial, sans-serif" font-size="8">I₁</text>
        <text x="15" y="45" text-anchor="middle" fill="white" font-family="Arial, sans-serif" font-size="8">S₀</text>
      </g>

      <g transform="translate(0, 90)">
        <polygon points="0,0 40,0 50,30 0,30" fill="white" stroke="#b91c1c" stroke-width="1"/>
        <text x="25" y="20" text-anchor="middle" fill="#b91c1c" font-family="Arial, sans-serif" font-size="8">2:1</text>
        <line x1="-15" y1="8" x2="0" y2="8" stroke="white" stroke-width="1"/>
        <line x1="-15" y1="22" x2="0" y2="22" stroke="white" stroke-width="1"/>
        <line x1="15" y1="35" x2="15" y2="30" stroke="white" stroke-width="1"/>
        <line x1="45" y1="15" x2="65" y2="15" stroke="white" stroke-width="1"/>
        <text x="-25" y="13" fill="white" font-family="Arial, sans-serif" font-size="8">I₂</text>
        <text x="-25" y="27" fill="white" font-family="Arial, sans-serif" font-size="8">I₃</text>
        <text x="15" y="45" text-anchor="middle" fill="white" font-family="Arial, sans-serif" font-size="8">S₀</text>
      </g>

      <!-- Final 2:1 MUX -->
      <g transform="translate(100, 65)">
        <polygon points="0,0 40,0 50,30 0,30" fill="white" stroke="#b91c1c" stroke-width="1"/>
        <text x="25" y="20" text-anchor="middle" fill="#b91c1c" font-family="Arial, sans-serif" font-size="8">2:1</text>
        <line x1="-15" y1="8" x2="0" y2="8" stroke="white" stroke-width="1"/>
        <line x1="-15" y1="22" x2="0" y2="22" stroke="white" stroke-width="1"/>
        <line x1="15" y1="35" x2="15" y2="30" stroke="white" stroke-width="1"/>
        <line x1="45" y1="15" x2="65" y2="15" stroke="white" stroke-width="1"/>
        <text x="15" y="45" text-anchor="middle" fill="white" font-family="Arial, sans-serif" font-size="8">S₁</text>
        <text x="70" y="20" fill="white" font-family="Arial, sans-serif" font-size="8">Y</text>
      </g>

      <!-- Connection lines -->
      <line x1="65" y1="55" x2="85" y2="73" stroke="white" stroke-width="1"/>
      <line x1="65" y1="105" x2="85" y2="87" stroke="white" stroke-width="1"/>
    </g>

    <text x="20" y="360" fill="white" font-family="Arial, sans-serif" font-size="12">Selects one of four inputs using 2 select lines. Can be built from three 2:1 MUX.</text>
  </g>

  <!-- 8:1 Multiplexer -->
  <g transform="translate(930, 80)">
    <rect x="0" y="0" width="420" height="380" fill="url(#mux81Grad)" rx="10"/>
    <text x="210" y="25" text-anchor="middle" fill="white" font-family="Arial, sans-serif" font-size="18" font-weight="bold">8:1 MULTIPLEXER</text>

    <!-- Truth Table (Simplified) -->
    <g transform="translate(20, 40)">
      <text x="0" y="20" fill="white" font-family="Arial, sans-serif" font-size="14" font-weight="bold">Select Truth Table:</text>
      <rect x="0" y="25" width="160" height="160" fill="white" stroke="#7c3aed" stroke-width="2"/>
      <text x="80" y="40" text-anchor="middle" fill="#7c3aed" font-family="Arial, sans-serif" font-size="12" font-weight="bold">8:1 MUX</text>
      <line x1="0" y1="45" x2="160" y2="45" stroke="#7c3aed" stroke-width="1"/>

      <!-- Headers -->
      <text x="25" y="60" text-anchor="middle" fill="#7c3aed" font-family="Arial, sans-serif" font-size="10" font-weight="bold">S₂</text>
      <text x="50" y="60" text-anchor="middle" fill="#7c3aed" font-family="Arial, sans-serif" font-size="10" font-weight="bold">S₁</text>
      <text x="75" y="60" text-anchor="middle" fill="#7c3aed" font-family="Arial, sans-serif" font-size="10" font-weight="bold">S₀</text>
      <text x="130" y="60" text-anchor="middle" fill="#7c3aed" font-family="Arial, sans-serif" font-size="10" font-weight="bold">Y</text>
      <line x1="0" y1="65" x2="160" y2="65" stroke="#7c3aed" stroke-width="1"/>

      <!-- Data rows -->
      <g font-family="monospace" font-size="10" fill="#7c3aed">
        <text x="25" y="80" text-anchor="middle">0</text><text x="50" y="80" text-anchor="middle">0</text><text x="75" y="80" text-anchor="middle">0</text><text x="130" y="80" text-anchor="middle">I₀</text>
        <text x="25" y="95" text-anchor="middle">0</text><text x="50" y="95" text-anchor="middle">0</text><text x="75" y="95" text-anchor="middle">1</text><text x="130" y="95" text-anchor="middle">I₁</text>
        <text x="25" y="110" text-anchor="middle">0</text><text x="50" y="110" text-anchor="middle">1</text><text x="75" y="110" text-anchor="middle">0</text><text x="130" y="110" text-anchor="middle">I₂</text>
        <text x="25" y="125" text-anchor="middle">0</text><text x="50" y="125" text-anchor="middle">1</text><text x="75" y="125" text-anchor="middle">1</text><text x="130" y="125" text-anchor="middle">I₃</text>
        <text x="25" y="140" text-anchor="middle">1</text><text x="50" y="140" text-anchor="middle">0</text><text x="75" y="140" text-anchor="middle">0</text><text x="130" y="140" text-anchor="middle">I₄</text>
        <text x="25" y="155" text-anchor="middle">1</text><text x="50" y="155" text-anchor="middle">0</text><text x="75" y="155" text-anchor="middle">1</text><text x="130" y="155" text-anchor="middle">I₅</text>
        <text x="25" y="170" text-anchor="middle">1</text><text x="50" y="170" text-anchor="middle">1</text><text x="75" y="170" text-anchor="middle">0</text><text x="130" y="170" text-anchor="middle">I₆</text>
        <text x="25" y="185" text-anchor="middle">1</text><text x="50" y="185" text-anchor="middle">1</text><text x="75" y="185" text-anchor="middle">1</text><text x="130" y="185" text-anchor="middle">I₇</text>
      </g>
    </g>

    <!-- Block Diagram -->
    <g transform="translate(200, 60)">
      <text x="0" y="20" fill="white" font-family="Arial, sans-serif" font-size="14" font-weight="bold">Block Diagram:</text>

      <!-- Trapezoid shape for MUX -->
      <g transform="translate(20, 30)">
        <polygon points="0,20 80,20 100,140 0,140" fill="white" stroke="#7c3aed" stroke-width="2"/>
        <text x="50" y="85" text-anchor="middle" fill="#7c3aed" font-family="Arial, sans-serif" font-size="12" font-weight="bold">8:1</text>
        <text x="50" y="100" text-anchor="middle" fill="#7c3aed" font-family="Arial, sans-serif" font-size="12" font-weight="bold">MUX</text>

        <!-- Inputs -->
        <line x1="-20" y1="35" x2="0" y2="35" stroke="white" stroke-width="2"/>
        <line x1="-20" y1="50" x2="0" y2="50" stroke="white" stroke-width="2"/>
        <line x1="-20" y1="65" x2="0" y2="65" stroke="white" stroke-width="2"/>
        <line x1="-20" y1="80" x2="0" y2="80" stroke="white" stroke-width="2"/>
        <line x1="-20" y1="95" x2="0" y2="95" stroke="white" stroke-width="2"/>
        <line x1="-20" y1="110" x2="0" y2="110" stroke="white" stroke-width="2"/>
        <line x1="-20" y1="125" x2="0" y2="125" stroke="white" stroke-width="2"/>
        <line x1="-20" y1="140" x2="0" y2="140" stroke="white" stroke-width="2"/>

        <text x="-30" y="40" fill="white" font-family="Arial, sans-serif" font-size="9">I₀</text>
        <text x="-30" y="55" fill="white" font-family="Arial, sans-serif" font-size="9">I₁</text>
        <text x="-30" y="70" fill="white" font-family="Arial, sans-serif" font-size="9">I₂</text>
        <text x="-30" y="85" fill="white" font-family="Arial, sans-serif" font-size="9">I₃</text>
        <text x="-30" y="100" fill="white" font-family="Arial, sans-serif" font-size="9">I₄</text>
        <text x="-30" y="115" fill="white" font-family="Arial, sans-serif" font-size="9">I₅</text>
        <text x="-30" y="130" fill="white" font-family="Arial, sans-serif" font-size="9">I₆</text>
        <text x="-30" y="145" fill="white" font-family="Arial, sans-serif" font-size="9">I₇</text>

        <!-- Select lines -->
        <line x1="20" y1="150" x2="20" y2="140" stroke="white" stroke-width="2"/>
        <line x1="40" y1="150" x2="40" y2="140" stroke="white" stroke-width="2"/>
        <line x1="60" y1="150" x2="60" y2="140" stroke="white" stroke-width="2"/>
        <text x="20" y="165" text-anchor="middle" fill="white" font-family="Arial, sans-serif" font-size="9">S₀</text>
        <text x="40" y="165" text-anchor="middle" fill="white" font-family="Arial, sans-serif" font-size="9">S₁</text>
        <text x="60" y="165" text-anchor="middle" fill="white" font-family="Arial, sans-serif" font-size="9">S₂</text>

        <!-- Output -->
        <line x1="90" y1="80" x2="110" y2="80" stroke="white" stroke-width="2"/>
        <text x="115" y="85" fill="white" font-family="Arial, sans-serif" font-size="9">Y</text>
      </g>
    </g>

    <!-- Applications -->
    <g transform="translate(20, 220)">
      <text x="0" y="20" fill="white" font-family="Arial, sans-serif" font-size="14" font-weight="bold">Applications:</text>
      <text x="0" y="40" fill="white" font-family="Arial, sans-serif" font-size="12">• Data routing</text>
      <text x="0" y="55" fill="white" font-family="Arial, sans-serif" font-size="12">• Function generation</text>
      <text x="0" y="70" fill="white" font-family="Arial, sans-serif" font-size="12">• Parallel to serial conversion</text>
      <text x="0" y="85" fill="white" font-family="Arial, sans-serif" font-size="12">• Boolean function implementation</text>

      <text x="0" y="115" fill="white" font-family="Arial, sans-serif" font-size="14" font-weight="bold">Boolean Implementation:</text>
      <text x="0" y="135" fill="white" font-family="Arial, sans-serif" font-size="12">Any 3-variable function can be</text>
      <text x="0" y="150" fill="white" font-family="Arial, sans-serif" font-size="12">implemented using 8:1 MUX:</text>
      <text x="0" y="165" fill="white" font-family="Arial, sans-serif" font-size="12">• Connect variables to select lines</text>
      <text x="0" y="180" fill="white" font-family="Arial, sans-serif" font-size="12">• Connect 0,1 to data inputs</text>
    </g>

    <text x="20" y="360" fill="white" font-family="Arial, sans-serif" font-size="12">Selects one of eight inputs using 3 select lines. Key component in data switching.</text>
  </g>

  <!-- Demultiplexers Section -->
  <g transform="translate(50, 480)">
    <rect x="0" y="0" width="1300" height="680" fill="url(#demuxGrad)" rx="10"/>
    <text x="650" y="25" text-anchor="middle" fill="white" font-family="Arial, sans-serif" font-size="18" font-weight="bold">DEMULTIPLEXERS (DEMUX)</text>

    <!-- 1:2 DEMUX -->
    <g transform="translate(20, 40)">
      <text x="0" y="20" fill="white" font-family="Arial, sans-serif" font-size="16" font-weight="bold">1:2 DEMULTIPLEXER</text>

      <!-- Truth Table -->
      <g transform="translate(0, 30)">
        <text x="0" y="20" fill="white" font-family="Arial, sans-serif" font-size="14" font-weight="bold">Truth Table:</text>
        <rect x="0" y="25" width="140" height="80" fill="white" stroke="#dc2626" stroke-width="2"/>
        <text x="70" y="40" text-anchor="middle" fill="#dc2626" font-family="Arial, sans-serif" font-size="12" font-weight="bold">1:2 DEMUX</text>
        <line x1="0" y1="45" x2="140" y2="45" stroke="#dc2626" stroke-width="1"/>

        <!-- Headers -->
        <text x="30" y="60" text-anchor="middle" fill="#dc2626" font-family="Arial, sans-serif" font-size="10" font-weight="bold">S</text>
        <text x="70" y="60" text-anchor="middle" fill="#dc2626" font-family="Arial, sans-serif" font-size="10" font-weight="bold">Y₀</text>
        <text x="110" y="60" text-anchor="middle" fill="#dc2626" font-family="Arial, sans-serif" font-size="10" font-weight="bold">Y₁</text>
        <line x1="0" y1="65" x2="140" y2="65" stroke="#dc2626" stroke-width="1"/>

        <!-- Data rows -->
        <text x="30" y="80" text-anchor="middle" fill="#dc2626" font-family="monospace" font-size="10">0</text>
        <text x="70" y="80" text-anchor="middle" fill="#dc2626" font-family="monospace" font-size="10">D</text>
        <text x="110" y="80" text-anchor="middle" fill="#dc2626" font-family="monospace" font-size="10">0</text>
        <text x="30" y="95" text-anchor="middle" fill="#dc2626" font-family="monospace" font-size="10">1</text>
        <text x="70" y="95" text-anchor="middle" fill="#dc2626" font-family="monospace" font-size="10">0</text>
        <text x="110" y="95" text-anchor="middle" fill="#dc2626" font-family="monospace" font-size="10">D</text>
      </g>

      <!-- Block Diagram -->
      <g transform="translate(160, 50)">
        <text x="0" y="20" fill="white" font-family="Arial, sans-serif" font-size="14" font-weight="bold">Block:</text>

        <g transform="translate(20, 30)">
          <polygon points="0,20 20,20 40,0 40,40" fill="white" stroke="#dc2626" stroke-width="2"/>
          <text x="30" y="25" text-anchor="middle" fill="#dc2626" font-family="Arial, sans-serif" font-size="8">DEMUX</text>

          <!-- Input -->
          <line x1="-20" y1="20" x2="0" y2="20" stroke="white" stroke-width="2"/>
          <text x="-30" y="25" fill="white" font-family="Arial, sans-serif" font-size="10">D</text>

          <!-- Select -->
          <line x1="10" y1="50" x2="10" y2="40" stroke="white" stroke-width="2"/>
          <text x="10" y="65" text-anchor="middle" fill="white" font-family="Arial, sans-serif" font-size="10">S</text>

          <!-- Outputs -->
          <line x1="40" y1="10" x2="60" y2="10" stroke="white" stroke-width="2"/>
          <line x1="40" y1="30" x2="60" y2="30" stroke="white" stroke-width="2"/>
          <text x="65" y="15" fill="white" font-family="Arial, sans-serif" font-size="10">Y₀</text>
          <text x="65" y="35" fill="white" font-family="Arial, sans-serif" font-size="10">Y₁</text>
        </g>
      </g>

      <!-- Boolean Equations -->
      <g transform="translate(0, 130)">
        <text x="0" y="20" fill="white" font-family="Arial, sans-serif" font-size="14" font-weight="bold">Boolean Equations:</text>
        <text x="0" y="40" fill="white" font-family="monospace" font-size="12">Y₀ = D · S̄</text>
        <text x="0" y="60" fill="white" font-family="monospace" font-size="12">Y₁ = D · S</text>
      </g>
    </g>

    <!-- 1:4 DEMUX -->
    <g transform="translate(320, 40)">
      <text x="0" y="20" fill="white" font-family="Arial, sans-serif" font-size="16" font-weight="bold">1:4 DEMULTIPLEXER</text>

      <!-- Truth Table -->
      <g transform="translate(0, 30)">
        <text x="0" y="20" fill="white" font-family="Arial, sans-serif" font-size="14" font-weight="bold">Truth Table:</text>
        <rect x="0" y="25" width="200" height="100" fill="white" stroke="#dc2626" stroke-width="2"/>
        <text x="100" y="40" text-anchor="middle" fill="#dc2626" font-family="Arial, sans-serif" font-size="12" font-weight="bold">1:4 DEMUX</text>
        <line x1="0" y1="45" x2="200" y2="45" stroke="#dc2626" stroke-width="1"/>

        <!-- Headers -->
        <text x="25" y="60" text-anchor="middle" fill="#dc2626" font-family="Arial, sans-serif" font-size="10" font-weight="bold">S₁</text>
        <text x="50" y="60" text-anchor="middle" fill="#dc2626" font-family="Arial, sans-serif" font-size="10" font-weight="bold">S₀</text>
        <text x="85" y="60" text-anchor="middle" fill="#dc2626" font-family="Arial, sans-serif" font-size="10" font-weight="bold">Y₀</text>
        <text x="115" y="60" text-anchor="middle" fill="#dc2626" font-family="Arial, sans-serif" font-size="10" font-weight="bold">Y₁</text>
        <text x="145" y="60" text-anchor="middle" fill="#dc2626" font-family="Arial, sans-serif" font-size="10" font-weight="bold">Y₂</text>
        <text x="175" y="60" text-anchor="middle" fill="#dc2626" font-family="Arial, sans-serif" font-size="10" font-weight="bold">Y₃</text>
        <line x1="0" y1="65" x2="200" y2="65" stroke="#dc2626" stroke-width="1"/>

        <!-- Data rows -->
        <g font-family="monospace" font-size="10" fill="#dc2626">
          <text x="25" y="80" text-anchor="middle">0</text><text x="50" y="80" text-anchor="middle">0</text><text x="85" y="80" text-anchor="middle">D</text><text x="115" y="80" text-anchor="middle">0</text><text x="145" y="80" text-anchor="middle">0</text><text x="175" y="80" text-anchor="middle">0</text>
          <text x="25" y="95" text-anchor="middle">0</text><text x="50" y="95" text-anchor="middle">1</text><text x="85" y="95" text-anchor="middle">0</text><text x="115" y="95" text-anchor="middle">D</text><text x="145" y="95" text-anchor="middle">0</text><text x="175" y="95" text-anchor="middle">0</text>
          <text x="25" y="110" text-anchor="middle">1</text><text x="50" y="110" text-anchor="middle">0</text><text x="85" y="110" text-anchor="middle">0</text><text x="115" y="110" text-anchor="middle">0</text><text x="145" y="110" text-anchor="middle">D</text><text x="175" y="110" text-anchor="middle">0</text>
          <text x="25" y="125" text-anchor="middle">1</text><text x="50" y="125" text-anchor="middle">1</text><text x="85" y="125" text-anchor="middle">0</text><text x="115" y="125" text-anchor="middle">0</text><text x="145" y="125" text-anchor="middle">0</text><text x="175" y="125" text-anchor="middle">D</text>
        </g>
      </g>

      <!-- Block Diagram -->
      <g transform="translate(220, 50)">
        <text x="0" y="20" fill="white" font-family="Arial, sans-serif" font-size="14" font-weight="bold">Block:</text>

        <g transform="translate(20, 30)">
          <polygon points="0,30 30,30 50,0 50,60" fill="white" stroke="#dc2626" stroke-width="2"/>
          <text x="40" y="35" text-anchor="middle" fill="#dc2626" font-family="Arial, sans-serif" font-size="8">1:4</text>
          <text x="40" y="45" text-anchor="middle" fill="#dc2626" font-family="Arial, sans-serif" font-size="8">DEMUX</text>

          <!-- Input -->
          <line x1="-20" y1="30" x2="0" y2="30" stroke="white" stroke-width="2"/>
          <text x="-30" y="35" fill="white" font-family="Arial, sans-serif" font-size="10">D</text>

          <!-- Select lines -->
          <line x1="10" y1="70" x2="10" y2="60" stroke="white" stroke-width="2"/>
          <line x1="25" y1="70" x2="25" y2="60" stroke="white" stroke-width="2"/>
          <text x="10" y="85" text-anchor="middle" fill="white" font-family="Arial, sans-serif" font-size="10">S₀</text>
          <text x="25" y="85" text-anchor="middle" fill="white" font-family="Arial, sans-serif" font-size="10">S₁</text>

          <!-- Outputs -->
          <line x1="50" y1="10" x2="70" y2="10" stroke="white" stroke-width="2"/>
          <line x1="50" y1="25" x2="70" y2="25" stroke="white" stroke-width="2"/>
          <line x1="50" y1="40" x2="70" y2="40" stroke="white" stroke-width="2"/>
          <line x1="50" y1="55" x2="70" y2="55" stroke="white" stroke-width="2"/>
          <text x="75" y="15" fill="white" font-family="Arial, sans-serif" font-size="9">Y₀</text>
          <text x="75" y="30" fill="white" font-family="Arial, sans-serif" font-size="9">Y₁</text>
          <text x="75" y="45" fill="white" font-family="Arial, sans-serif" font-size="9">Y₂</text>
          <text x="75" y="60" fill="white" font-family="Arial, sans-serif" font-size="9">Y₃</text>
        </g>
      </g>

      <!-- Boolean Equations -->
      <g transform="translate(0, 160)">
        <text x="0" y="20" fill="white" font-family="Arial, sans-serif" font-size="14" font-weight="bold">Boolean Equations:</text>
        <text x="0" y="40" fill="white" font-family="monospace" font-size="11">Y₀ = D · S̄₁ · S̄₀</text>
        <text x="0" y="55" fill="white" font-family="monospace" font-size="11">Y₁ = D · S̄₁ · S₀</text>
        <text x="0" y="70" fill="white" font-family="monospace" font-size="11">Y₂ = D · S₁ · S̄₀</text>
        <text x="0" y="85" fill="white" font-family="monospace" font-size="11">Y₃ = D · S₁ · S₀</text>
      </g>
    </g>

    <!-- 1:8 DEMUX -->
    <g transform="translate(760, 40)">
      <text x="0" y="20" fill="white" font-family="Arial, sans-serif" font-size="16" font-weight="bold">1:8 DEMULTIPLEXER</text>

      <!-- Block Diagram -->
      <g transform="translate(20, 50)">
        <text x="0" y="20" fill="white" font-family="Arial, sans-serif" font-size="14" font-weight="bold">Block Diagram:</text>

        <g transform="translate(20, 30)">
          <polygon points="0,40 40,40 60,0 60,80" fill="white" stroke="#dc2626" stroke-width="2"/>
          <text x="50" y="45" text-anchor="middle" fill="#dc2626" font-family="Arial, sans-serif" font-size="10">1:8</text>
          <text x="50" y="60" text-anchor="middle" fill="#dc2626" font-family="Arial, sans-serif" font-size="10">DEMUX</text>

          <!-- Input -->
          <line x1="-20" y1="40" x2="0" y2="40" stroke="white" stroke-width="2"/>
          <text x="-30" y="45" fill="white" font-family="Arial, sans-serif" font-size="10">D</text>

          <!-- Select lines -->
          <line x1="15" y1="90" x2="15" y2="80" stroke="white" stroke-width="2"/>
          <line x1="30" y1="90" x2="30" y2="80" stroke="white" stroke-width="2"/>
          <line x1="45" y1="90" x2="45" y2="80" stroke="white" stroke-width="2"/>
          <text x="15" y="105" text-anchor="middle" fill="white" font-family="Arial, sans-serif" font-size="9">S₀</text>
          <text x="30" y="105" text-anchor="middle" fill="white" font-family="Arial, sans-serif" font-size="9">S₁</text>
          <text x="45" y="105" text-anchor="middle" fill="white" font-family="Arial, sans-serif" font-size="9">S₂</text>

          <!-- Outputs -->
          <line x1="60" y1="10" x2="80" y2="10" stroke="white" stroke-width="2"/>
          <line x1="60" y1="20" x2="80" y2="20" stroke="white" stroke-width="2"/>
          <line x1="60" y1="30" x2="80" y2="30" stroke="white" stroke-width="2"/>
          <line x1="60" y1="40" x2="80" y2="40" stroke="white" stroke-width="2"/>
          <line x1="60" y1="50" x2="80" y2="50" stroke="white" stroke-width="2"/>
          <line x1="60" y1="60" x2="80" y2="60" stroke="white" stroke-width="2"/>
          <line x1="60" y1="70" x2="80" y2="70" stroke="white" stroke-width="2"/>
          <line x1="60" y1="80" x2="80" y2="80" stroke="white" stroke-width="2"/>

          <text x="85" y="15" fill="white" font-family="Arial, sans-serif" font-size="8">Y₀</text>
          <text x="85" y="25" fill="white" font-family="Arial, sans-serif" font-size="8">Y₁</text>
          <text x="85" y="35" fill="white" font-family="Arial, sans-serif" font-size="8">Y₂</text>
          <text x="85" y="45" fill="white" font-family="Arial, sans-serif" font-size="8">Y₃</text>
          <text x="85" y="55" fill="white" font-family="Arial, sans-serif" font-size="8">Y₄</text>
          <text x="85" y="65" fill="white" font-family="Arial, sans-serif" font-size="8">Y₅</text>
          <text x="85" y="75" fill="white" font-family="Arial, sans-serif" font-size="8">Y₆</text>
          <text x="85" y="85" fill="white" font-family="Arial, sans-serif" font-size="8">Y₇</text>
        </g>
      </g>

      <!-- General Equation -->
      <g transform="translate(0, 180)">
        <text x="0" y="20" fill="white" font-family="Arial, sans-serif" font-size="14" font-weight="bold">General Equation:</text>
        <text x="0" y="40" fill="white" font-family="monospace" font-size="11">Yᵢ = D · mᵢ</text>
        <text x="0" y="60" fill="white" font-family="Arial, sans-serif" font-size="11">where mᵢ is the i-th minterm</text>
        <text x="0" y="75" fill="white" font-family="Arial, sans-serif" font-size="11">of select variables</text>
      </g>
    </g>

    <!-- DEMUX vs MUX Comparison -->
    <g transform="translate(20, 280)">
      <text x="0" y="20" fill="white" font-family="Arial, sans-serif" font-size="16" font-weight="bold">DEMUX vs MUX COMPARISON</text>

      <!-- Left side: DEMUX -->
      <g transform="translate(0, 40)">
        <text x="0" y="20" fill="white" font-family="Arial, sans-serif" font-size="14" font-weight="bold">DEMULTIPLEXER:</text>
        <text x="0" y="40" fill="white" font-family="Arial, sans-serif" font-size="12">• One input → Multiple outputs</text>
        <text x="0" y="55" fill="white" font-family="Arial, sans-serif" font-size="12">• Data distribution</text>
        <text x="0" y="70" fill="white" font-family="Arial, sans-serif" font-size="12">• Serial to parallel conversion</text>
        <text x="0" y="85" fill="white" font-family="Arial, sans-serif" font-size="12">• Routes data to selected output</text>
        <text x="0" y="100" fill="white" font-family="Arial, sans-serif" font-size="12">• Only one output active at a time</text>

        <text x="0" y="130" fill="white" font-family="Arial, sans-serif" font-size="14" font-weight="bold">Applications:</text>
        <text x="0" y="150" fill="white" font-family="Arial, sans-serif" font-size="12">• Memory address decoding</text>
        <text x="0" y="165" fill="white" font-family="Arial, sans-serif" font-size="12">• Data distribution systems</text>
        <text x="0" y="180" fill="white" font-family="Arial, sans-serif" font-size="12">• Communication systems</text>
        <text x="0" y="195" fill="white" font-family="Arial, sans-serif" font-size="12">• Digital display drivers</text>

        <text x="0" y="225" fill="white" font-family="Arial, sans-serif" font-size="14" font-weight="bold">Implementation:</text>
        <text x="0" y="245" fill="white" font-family="Arial, sans-serif" font-size="12">DEMUX = Decoder with data input</text>
        <text x="0" y="260" fill="white" font-family="Arial, sans-serif" font-size="12">Each output = minterm · data</text>

        <text x="0" y="290" fill="white" font-family="Arial, sans-serif" font-size="14" font-weight="bold">Common ICs:</text>
        <text x="0" y="310" fill="white" font-family="Arial, sans-serif" font-size="12">74138 - 1:8 DEMUX (same as decoder)</text>
        <text x="0" y="325" fill="white" font-family="Arial, sans-serif" font-size="12">74139 - Dual 1:4 DEMUX</text>
        <text x="0" y="340" fill="white" font-family="Arial, sans-serif" font-size="12">74154 - 1:16 DEMUX</text>
      </g>

      <!-- Right side: MUX -->
      <g transform="translate(450, 40)">
        <text x="0" y="20" fill="white" font-family="Arial, sans-serif" font-size="14" font-weight="bold">MULTIPLEXER:</text>
        <text x="0" y="40" fill="white" font-family="Arial, sans-serif" font-size="12">• Multiple inputs → One output</text>
        <text x="0" y="55" fill="white" font-family="Arial, sans-serif" font-size="12">• Data selection</text>
        <text x="0" y="70" fill="white" font-family="Arial, sans-serif" font-size="12">• Parallel to serial conversion</text>
        <text x="0" y="85" fill="white" font-family="Arial, sans-serif" font-size="12">• Selects one input for output</text>
        <text x="0" y="100" fill="white" font-family="Arial, sans-serif" font-size="12">• Only one input selected at a time</text>

        <text x="0" y="130" fill="white" font-family="Arial, sans-serif" font-size="14" font-weight="bold">Applications:</text>
        <text x="0" y="150" fill="white" font-family="Arial, sans-serif" font-size="12">• Data routing</text>
        <text x="0" y="165" fill="white" font-family="Arial, sans-serif" font-size="12">• Function generators</text>
        <text x="0" y="180" fill="white" font-family="Arial, sans-serif" font-size="12">• Boolean function implementation</text>
        <text x="0" y="195" fill="white" font-family="Arial, sans-serif" font-size="12">• Time division multiplexing</text>

        <text x="0" y="225" fill="white" font-family="Arial, sans-serif" font-size="14" font-weight="bold">Function Implementation:</text>
        <text x="0" y="245" fill="white" font-family="Arial, sans-serif" font-size="12">Any n-variable Boolean function</text>
        <text x="0" y="260" fill="white" font-family="Arial, sans-serif" font-size="12">can be implemented using 2ⁿ:1 MUX</text>

        <text x="0" y="290" fill="white" font-family="Arial, sans-serif" font-size="14" font-weight="bold">Common ICs:</text>
        <text x="0" y="310" fill="white" font-family="Arial, sans-serif" font-size="12">74151 - 8:1 MUX</text>
        <text x="0" y="325" fill="white" font-family="Arial, sans-serif" font-size="12">74153 - Dual 4:1 MUX</text>
        <text x="0" y="340" fill="white" font-family="Arial, sans-serif" font-size="12">74157 - Quad 2:1 MUX</text>
      </g>

      <!-- Center: Relationship -->
      <g transform="translate(950, 40)">
        <text x="0" y="20" fill="white" font-family="Arial, sans-serif" font-size="14" font-weight="bold">RELATIONSHIP:</text>
        <text x="0" y="40" fill="white" font-family="Arial, sans-serif" font-size="12">MUX and DEMUX are</text>
        <text x="0" y="55" fill="white" font-family="Arial, sans-serif" font-size="12">complementary functions</text>

        <text x="0" y="85" fill="white" font-family="Arial, sans-serif" font-size="12">MUX output can feed</text>
        <text x="0" y="100" fill="white" font-family="Arial, sans-serif" font-size="12">DEMUX input for data</text>
        <text x="0" y="115" fill="white" font-family="Arial, sans-serif" font-size="12">transmission systems</text>

        <text x="0" y="145" fill="white" font-family="Arial, sans-serif" font-size="12" font-weight="bold">Key Differences:</text>
        <text x="0" y="165" fill="white" font-family="Arial, sans-serif" font-size="11">• MUX: n:1 (many to one)</text>
        <text x="0" y="180" fill="white" font-family="Arial, sans-serif" font-size="11">• DEMUX: 1:n (one to many)</text>
        <text x="0" y="195" fill="white" font-family="Arial, sans-serif" font-size="11">• Same select logic</text>
        <text x="0" y="210" fill="white" font-family="Arial, sans-serif" font-size="11">• Inverse operations</text>

        <text x="0" y="240" fill="white" font-family="Arial, sans-serif" font-size="12" font-weight="bold">Expansion:</text>
        <text x="0" y="260" fill="white" font-family="Arial, sans-serif" font-size="11">Both can be cascaded</text>
        <text x="0" y="275" fill="white" font-family="Arial, sans-serif" font-size="11">for larger systems</text>
        <text x="0" y="290" fill="white" font-family="Arial, sans-serif" font-size="11">using enable inputs</text>
      </g>
    </g>
  </g>
</svg>