<?xml version="1.0" encoding="UTF-8"?>
<svg width="800" height="600" viewBox="0 0 800 600" xmlns="http://www.w3.org/2000/svg">
  <defs>
    <style>
      .title { font-family: Arial, sans-serif; font-size: 24px; font-weight: bold; text-anchor: middle; }
      .subtitle { font-family: Arial, sans-serif; font-size: 16px; font-weight: bold; text-anchor: middle; }
      .label { font-family: Arial, sans-serif; font-size: 12px; text-anchor: middle; }
      .small-label { font-family: Arial, sans-serif; font-size: 10px; text-anchor: middle; }
      .memory-block { fill: #e6f3ff; stroke: #0066cc; stroke-width: 2; }
      .address-block { fill: #fff2e6; stroke: #cc6600; stroke-width: 1; }
      .data-flow { stroke: #009900; stroke-width: 2; fill: none; marker-end: url(#arrowhead); }
      .control-signal { stroke: #cc0000; stroke-width: 1.5; fill: none; marker-end: url(#arrowhead); }
    </style>
    <marker id="arrowhead" markerWidth="10" markerHeight="7" refX="9" refY="3.5" orient="auto">
      <polygon points="0 0, 10 3.5, 0 7" fill="#009900"/>
    </marker>
  </defs>
  
  <!-- Title -->
  <text x="400" y="30" class="title" fill="#333">8085 Memory Addressing Modes</text>
  
  <!-- Direct Addressing -->
  <g id="direct-addressing">
    <text x="200" y="80" class="subtitle" fill="#0066cc">Direct Addressing</text>
    
    <!-- Instruction Format -->
    <rect x="50" y="100" width="300" height="40" class="memory-block"/>
    <text x="200" y="125" class="label" fill="#333">LDA 2050H</text>
    
    <!-- Memory Location -->
    <rect x="100" y="160" width="80" height="30" class="address-block"/>
    <text x="140" y="180" class="small-label" fill="#333">2050H</text>
    
    <rect x="200" y="160" width="80" height="30" class="memory-block"/>
    <text x="240" y="180" class="small-label" fill="#333">Data</text>
    
    <!-- Arrow -->
    <path d="M 200 140 L 140 160" class="data-flow"/>
    <text x="170" y="155" class="small-label" fill="#009900">Address</text>
  </g>
  
  <!-- Indirect Addressing -->
  <g id="indirect-addressing">
    <text x="600" y="80" class="subtitle" fill="#0066cc">Indirect Addressing</text>
    
    <!-- Instruction Format -->
    <rect x="450" y="100" width="300" height="40" class="memory-block"/>
    <text x="600" y="125" class="label" fill="#333">LDAX B</text>
    
    <!-- Register Pair -->
    <rect x="500" y="160" width="60" height="25" class="address-block"/>
    <text x="530" y="177" class="small-label" fill="#333">B (20H)</text>
    
    <rect x="570" y="160" width="60" height="25" class="address-block"/>
    <text x="600" y="177" class="small-label" fill="#333">C (50H)</text>
    
    <!-- Memory Location -->
    <rect x="650" y="200" width="80" height="30" class="address-block"/>
    <text x="690" y="220" class="small-label" fill="#333">2050H</text>
    
    <rect x="650" y="240" width="80" height="30" class="memory-block"/>
    <text x="690" y="260" class="small-label" fill="#333">Data</text>
    
    <!-- Arrows -->
    <path d="M 530 185 L 580 200" class="data-flow"/>
    <path d="M 600 185 L 650 200" class="data-flow"/>
    <path d="M 690 230 L 690 240" class="data-flow"/>
  </g>
  
  <!-- Immediate Addressing -->
  <g id="immediate-addressing">
    <text x="200" y="320" class="subtitle" fill="#0066cc">Immediate Addressing</text>
    
    <!-- Instruction Format -->
    <rect x="50" y="340" width="300" height="40" class="memory-block"/>
    <text x="200" y="365" class="label" fill="#333">MVI A, 50H</text>
    
    <!-- Data directly in instruction -->
    <rect x="150" y="400" width="100" height="30" class="address-block"/>
    <text x="200" y="420" class="small-label" fill="#333">Data (50H)</text>
    
    <!-- Arrow -->
    <path d="M 200 380 L 200 400" class="data-flow"/>
    <text x="220" y="395" class="small-label" fill="#009900">Direct</text>
  </g>
  
  <!-- Register Addressing -->
  <g id="register-addressing">
    <text x="600" y="320" class="subtitle" fill="#0066cc">Register Addressing</text>
    
    <!-- Instruction Format -->
    <rect x="450" y="340" width="300" height="40" class="memory-block"/>
    <text x="600" y="365" class="label" fill="#333">MOV A, B</text>
    
    <!-- Registers -->
    <rect x="500" y="400" width="60" height="30" class="address-block"/>
    <text x="530" y="420" class="small-label" fill="#333">Register B</text>
    
    <rect x="640" y="400" width="60" height="30" class="memory-block"/>
    <text x="670" y="420" class="small-label" fill="#333">Register A</text>
    
    <!-- Arrow -->
    <path d="M 560 415 L 640 415" class="data-flow"/>
  </g>
  
  <!-- Implicit Addressing -->
  <g id="implicit-addressing">
    <text x="400" y="480" class="subtitle" fill="#0066cc">Implicit Addressing</text>
    
    <!-- Instruction Format -->
    <rect x="250" y="500" width="300" height="40" class="memory-block"/>
    <text x="400" y="525" class="label" fill="#333">CMA (Complement Accumulator)</text>
    
    <!-- Accumulator -->
    <rect x="350" y="560" width="100" height="30" class="address-block"/>
    <text x="400" y="580" class="small-label" fill="#333">Accumulator (A)</text>
    
    <!-- Arrow -->
    <path d="M 400 540 L 400 560" class="data-flow"/>
    <text x="420" y="555" class="small-label" fill="#009900">Implicit</text>
  </g>
</svg>
