<?xml version="1.0" encoding="UTF-8"?>
<svg width="800" height="600" viewBox="0 0 800 600" xmlns="http://www.w3.org/2000/svg">
  <defs>
    <style>
      .title { font-family: Arial, sans-serif; font-size: 24px; font-weight: bold; text-anchor: middle; }
      .subtitle { font-family: Arial, sans-serif; font-size: 16px; font-weight: bold; text-anchor: middle; }
      .label { font-family: Arial, sans-serif; font-size: 12px; text-anchor: middle; }
      .small-label { font-family: Arial, sans-serif; font-size: 10px; text-anchor: middle; }
      .instruction-block { fill: #e6f3ff; stroke: #0066cc; stroke-width: 2; }
      .step-block { fill: #fff2e6; stroke: #cc6600; stroke-width: 1; }
      .data-flow { stroke: #009900; stroke-width: 2; fill: none; marker-end: url(#arrowhead); }
      .cycle-flow { stroke: #cc0000; stroke-width: 1.5; fill: none; marker-end: url(#arrowhead); }
    </style>
    <marker id="arrowhead" markerWidth="10" markerHeight="7" refX="9" refY="3.5" orient="auto">
      <polygon points="0 0, 10 3.5, 0 7" fill="#009900"/>
    </marker>
  </defs>
  
  <!-- Title -->
  <text x="400" y="30" class="title" fill="#333">8085 Instruction Cycle Timing</text>
  
  <!-- Machine Cycle Overview -->
  <g id="machine-cycle">
    <text x="400" y="70" class="subtitle" fill="#0066cc">Machine Cycle Components</text>
    
    <!-- T-States -->
    <rect x="50" y="90" width="80" height="40" class="instruction-block"/>
    <text x="90" y="115" class="label" fill="#333">T1</text>
    
    <rect x="140" y="90" width="80" height="40" class="instruction-block"/>
    <text x="180" y="115" class="label" fill="#333">T2</text>
    
    <rect x="230" y="90" width="80" height="40" class="instruction-block"/>
    <text x="270" y="115" class="label" fill="#333">T3</text>
    
    <rect x="320" y="90" width="80" height="40" class="instruction-block"/>
    <text x="360" y="115" class="label" fill="#333">T4</text>
    
    <rect x="410" y="90" width="80" height="40" class="step-block"/>
    <text x="450" y="115" class="label" fill="#333">T5</text>
    <text x="450" y="125" class="small-label" fill="#666">(if needed)</text>
    
    <rect x="500" y="90" width="80" height="40" class="step-block"/>
    <text x="540" y="115" class="label" fill="#333">T6</text>
    <text x="540" y="125" class="small-label" fill="#666">(if needed)</text>
    
    <!-- Flow arrows -->
    <path d="M 130 110 L 140 110" class="cycle-flow"/>
    <path d="M 220 110 L 230 110" class="cycle-flow"/>
    <path d="M 310 110 L 320 110" class="cycle-flow"/>
    <path d="M 400 110 L 410 110" class="cycle-flow"/>
    <path d="M 490 110 L 500 110" class="cycle-flow"/>
  </g>
  
  <!-- Fetch Cycle Detail -->
  <g id="fetch-cycle">
    <text x="200" y="180" class="subtitle" fill="#0066cc">Opcode Fetch (OF)</text>
    
    <!-- T1 -->
    <rect x="50" y="200" width="120" height="60" class="instruction-block"/>
    <text x="110" y="220" class="label" fill="#333">T1</text>
    <text x="110" y="235" class="small-label" fill="#333">PC → Address Bus</text>
    <text x="110" y="250" class="small-label" fill="#333">ALE = 1</text>
    
    <!-- T2 -->
    <rect x="180" y="200" width="120" height="60" class="instruction-block"/>
    <text x="240" y="220" class="label" fill="#333">T2</text>
    <text x="240" y="235" class="small-label" fill="#333">RD = 0</text>
    <text x="240" y="250" class="small-label" fill="#333">Memory Read</text>
    
    <!-- T3 -->
    <rect x="310" y="200" width="120" height="60" class="instruction-block"/>
    <text x="370" y="220" class="label" fill="#333">T3</text>
    <text x="370" y="235" class="small-label" fill="#333">Data → IR</text>
    <text x="370" y="250" class="small-label" fill="#333">PC = PC + 1</text>
    
    <!-- T4 -->
    <rect x="440" y="200" width="120" height="60" class="instruction-block"/>
    <text x="500" y="220" class="label" fill="#333">T4</text>
    <text x="500" y="235" class="small-label" fill="#333">Decode</text>
    <text x="500" y="250" class="small-label" fill="#333">RD = 1</text>
  </g>
  
  <!-- Memory Read Cycle -->
  <g id="memory-read">
    <text x="200" y="300" class="subtitle" fill="#0066cc">Memory Read (MR)</text>
    
    <!-- T1 -->
    <rect x="50" y="320" width="120" height="60" class="instruction-block"/>
    <text x="110" y="340" class="label" fill="#333">T1</text>
    <text x="110" y="355" class="small-label" fill="#333">Address → Bus</text>
    <text x="110" y="370" class="small-label" fill="#333">ALE = 1</text>
    
    <!-- T2 -->
    <rect x="180" y="320" width="120" height="60" class="instruction-block"/>
    <text x="240" y="340" class="label" fill="#333">T2</text>
    <text x="240" y="355" class="small-label" fill="#333">RD = 0</text>
    <text x="240" y="370" class="small-label" fill="#333">Wait State</text>
    
    <!-- T3 -->
    <rect x="310" y="320" width="120" height="60" class="instruction-block"/>
    <text x="370" y="340" class="label" fill="#333">T3</text>
    <text x="370" y="355" class="small-label" fill="#333">Data Read</text>
    <text x="370" y="370" class="small-label" fill="#333">RD = 1</text>
  </g>
  
  <!-- Memory Write Cycle -->
  <g id="memory-write">
    <text x="200" y="420" class="subtitle" fill="#0066cc">Memory Write (MW)</text>
    
    <!-- T1 -->
    <rect x="50" y="440" width="120" height="60" class="instruction-block"/>
    <text x="110" y="460" class="label" fill="#333">T1</text>
    <text x="110" y="475" class="small-label" fill="#333">Address → Bus</text>
    <text x="110" y="490" class="small-label" fill="#333">ALE = 1</text>
    
    <!-- T2 -->
    <rect x="180" y="440" width="120" height="60" class="instruction-block"/>
    <text x="240" y="460" class="label" fill="#333">T2</text>
    <text x="240" y="475" class="small-label" fill="#333">Data → Bus</text>
    <text x="240" y="490" class="small-label" fill="#333">WR = 0</text>
    
    <!-- T3 -->
    <rect x="310" y="440" width="120" height="60" class="instruction-block"/>
    <text x="370" y="460" class="label" fill="#333">T3</text>
    <text x="370" y="475" class="small-label" fill="#333">Data Written</text>
    <text x="370" y="490" class="small-label" fill="#333">WR = 1</text>
  </g>
  
  <!-- I/O Read/Write -->
  <g id="io-cycle">
    <text x="600" y="180" class="subtitle" fill="#0066cc">I/O Operations</text>
    
    <!-- I/O Read -->
    <rect x="520" y="200" width="160" height="80" class="step-block"/>
    <text x="600" y="220" class="label" fill="#333">I/O Read (IOR)</text>
    <text x="600" y="240" class="small-label" fill="#333">T1: Address → Bus</text>
    <text x="600" y="255" class="small-label" fill="#333">T2: IO/M = 1, RD = 0</text>
    <text x="600" y="270" class="small-label" fill="#333">T3: Data Read</text>
    
    <!-- I/O Write -->
    <rect x="520" y="300" width="160" height="80" class="step-block"/>
    <text x="600" y="320" class="label" fill="#333">I/O Write (IOW)</text>
    <text x="600" y="340" class="small-label" fill="#333">T1: Address → Bus</text>
    <text x="600" y="355" class="small-label" fill="#333">T2: IO/M = 1, WR = 0</text>
    <text x="600" y="370" class="small-label" fill="#333">T3: Data Written</text>
  </g>
  
  <!-- Timing Information -->
  <g id="timing-info">
    <text x="600" y="440" class="subtitle" fill="#0066cc">Timing Details</text>
    
    <rect x="520" y="460" width="200" height="100" class="instruction-block"/>
    <text x="620" y="480" class="small-label" fill="#333">Clock Frequency: 3 MHz</text>
    <text x="620" y="495" class="small-label" fill="#333">T-State Period: 320 ns</text>
    <text x="620" y="510" class="small-label" fill="#333">Min Instruction: 4 T-States</text>
    <text x="620" y="525" class="small-label" fill="#333">Max Instruction: 18 T-States</text>
    <text x="620" y="540" class="small-label" fill="#333">Typical: 4-10 T-States</text>
  </g>
</svg>
