<?xml version="1.0" encoding="UTF-8"?>
<svg width="800" height="600" viewBox="0 0 800 600" xmlns="http://www.w3.org/2000/svg">
  <defs>
    <style>
      .title { font-family: Arial, sans-serif; font-size: 24px; font-weight: bold; text-anchor: middle; }
      .subtitle { font-family: Arial, sans-serif; font-size: 16px; font-weight: bold; text-anchor: middle; }
      .label { font-family: Arial, sans-serif; font-size: 12px; text-anchor: middle; }
      .small-label { font-family: Arial, sans-serif; font-size: 10px; text-anchor: middle; }
      .instruction-block { fill: #e6f3ff; stroke: #0066cc; stroke-width: 2; }
      .register-block { fill: #fff2e6; stroke: #cc6600; stroke-width: 1; }
      .memory-block { fill: #e6ffe6; stroke: #009900; stroke-width: 1; }
      .data-flow { stroke: #009900; stroke-width: 2; fill: none; marker-end: url(#arrowhead); }
    </style>
    <marker id="arrowhead" markerWidth="10" markerHeight="7" refX="9" refY="3.5" orient="auto">
      <polygon points="0 0, 10 3.5, 0 7" fill="#009900"/>
    </marker>
  </defs>
  
  <!-- Title -->
  <text x="400" y="30" class="title" fill="#333">8051 Special Function Registers (SFRs)</text>
  
  <!-- SFR Memory Map -->
  <g id="sfr-map">
    <text x="400" y="70" class="subtitle" fill="#0066cc">SFR Address Map (80H - FFH)</text>
    
    <!-- Row 1: 80H-87H -->
    <rect x="50" y="90" width="60" height="30" class="register-block"/>
    <text x="80" y="110" class="small-label" fill="#333">P0 (80H)</text>
    
    <rect x="120" y="90" width="60" height="30" class="register-block"/>
    <text x="150" y="110" class="small-label" fill="#333">SP (81H)</text>
    
    <rect x="190" y="90" width="60" height="30" class="register-block"/>
    <text x="220" y="110" class="small-label" fill="#333">DPL (82H)</text>
    
    <rect x="260" y="90" width="60" height="30" class="register-block"/>
    <text x="290" y="110" class="small-label" fill="#333">DPH (83H)</text>
    
    <!-- Row 2: 88H-8FH -->
    <rect x="50" y="130" width="60" height="30" class="register-block"/>
    <text x="80" y="150" class="small-label" fill="#333">TCON (88H)</text>
    
    <rect x="120" y="130" width="60" height="30" class="register-block"/>
    <text x="150" y="150" class="small-label" fill="#333">TMOD (89H)</text>
    
    <rect x="190" y="130" width="60" height="30" class="register-block"/>
    <text x="220" y="150" class="small-label" fill="#333">TL0 (8AH)</text>
    
    <rect x="260" y="130" width="60" height="30" class="register-block"/>
    <text x="290" y="150" class="small-label" fill="#333">TL1 (8BH)</text>
    
    <rect x="330" y="130" width="60" height="30" class="register-block"/>
    <text x="360" y="150" class="small-label" fill="#333">TH0 (8CH)</text>
    
    <rect x="400" y="130" width="60" height="30" class="register-block"/>
    <text x="430" y="150" class="small-label" fill="#333">TH1 (8DH)</text>
    
    <!-- Row 3: 90H-97H -->
    <rect x="50" y="170" width="60" height="30" class="register-block"/>
    <text x="80" y="190" class="small-label" fill="#333">P1 (90H)</text>
    
    <rect x="120" y="170" width="60" height="30" class="register-block"/>
    <text x="150" y="190" class="small-label" fill="#333">SCON (98H)</text>
    
    <rect x="190" y="170" width="60" height="30" class="register-block"/>
    <text x="220" y="190" class="small-label" fill="#333">SBUF (99H)</text>
    
    <!-- Row 4: A0H-A7H -->
    <rect x="50" y="210" width="60" height="30" class="register-block"/>
    <text x="80" y="230" class="small-label" fill="#333">P2 (A0H)</text>
    
    <rect x="120" y="210" width="60" height="30" class="register-block"/>
    <text x="150" y="230" class="small-label" fill="#333">IE (A8H)</text>
    
    <!-- Row 5: B0H-B7H -->
    <rect x="50" y="250" width="60" height="30" class="register-block"/>
    <text x="80" y="270" class="small-label" fill="#333">P3 (B0H)</text>
    
    <rect x="120" y="250" width="60" height="30" class="register-block"/>
    <text x="150" y="270" class="small-label" fill="#333">IP (B8H)</text>
    
    <!-- Row 6: D0H-D7H -->
    <rect x="50" y="290" width="60" height="30" class="register-block"/>
    <text x="80" y="310" class="small-label" fill="#333">PSW (D0H)</text>
    
    <!-- Row 7: E0H-F0H -->
    <rect x="50" y="330" width="60" height="30" class="register-block"/>
    <text x="80" y="350" class="small-label" fill="#333">ACC (E0H)</text>
    
    <rect x="120" y="330" width="60" height="30" class="register-block"/>
    <text x="150" y="350" class="small-label" fill="#333">B (F0H)</text>
  </g>
  
  <!-- Bit-Addressable SFRs -->
  <g id="bit-addressable">
    <text x="600" y="100" class="subtitle" fill="#0066cc">Bit-Addressable SFRs</text>
    
    <!-- ACC Register -->
    <rect x="500" y="120" width="200" height="40" class="instruction-block"/>
    <text x="600" y="145" class="label" fill="#333">ACC (E0H) - Accumulator</text>
    
    <!-- Bit positions -->
    <g id="acc-bits">
      <rect x="510" y="170" width="20" height="20" class="memory-block"/>
      <text x="520" y="185" class="small-label" fill="#333">E7</text>
      
      <rect x="540" y="170" width="20" height="20" class="memory-block"/>
      <text x="550" y="185" class="small-label" fill="#333">E6</text>
      
      <rect x="570" y="170" width="20" height="20" class="memory-block"/>
      <text x="580" y="185" class="small-label" fill="#333">E5</text>
      
      <rect x="600" y="170" width="20" height="20" class="memory-block"/>
      <text x="610" y="185" class="small-label" fill="#333">E4</text>
      
      <rect x="630" y="170" width="20" height="20" class="memory-block"/>
      <text x="640" y="185" class="small-label" fill="#333">E3</text>
      
      <rect x="660" y="170" width="20" height="20" class="memory-block"/>
      <text x="670" y="185" class="small-label" fill="#333">E2</text>
      
      <rect x="690" y="170" width="20" height="20" class="memory-block"/>
      <text x="700" y="185" class="small-label" fill="#333">E1</text>
      
      <rect x="720" y="170" width="20" height="20" class="memory-block"/>
      <text x="730" y="185" class="small-label" fill="#333">E0</text>
    </g>
    
    <!-- PSW Register -->
    <rect x="500" y="220" width="200" height="40" class="instruction-block"/>
    <text x="600" y="245" class="label" fill="#333">PSW (D0H) - Program Status Word</text>
    
    <!-- PSW Bit details -->
    <g id="psw-details">
      <rect x="500" y="270" width="200" height="80" class="register-block"/>
      <text x="520" y="290" class="small-label" fill="#333">CY (D7): Carry Flag</text>
      <text x="520" y="305" class="small-label" fill="#333">AC (D6): Auxiliary Carry</text>
      <text x="520" y="320" class="small-label" fill="#333">F0 (D5): User Flag 0</text>
      <text x="520" y="335" class="small-label" fill="#333">RS1 (D4): Register Bank Select</text>
    </g>
    
    <!-- IE Register -->
    <rect x="500" y="370" width="200" height="40" class="instruction-block"/>
    <text x="600" y="395" class="label" fill="#333">IE (A8H) - Interrupt Enable</text>
    
    <!-- IE Bit details -->
    <g id="ie-details">
      <rect x="500" y="420" width="200" height="100" class="register-block"/>
      <text x="520" y="440" class="small-label" fill="#333">EA (AFH): Enable All</text>
      <text x="520" y="455" class="small-label" fill="#333">ES (ACH): Serial Enable</text>
      <text x="520" y="470" class="small-label" fill="#333">ET1 (ABH): Timer 1 Enable</text>
      <text x="520" y="485" class="small-label" fill="#333">EX1 (AAH): External 1 Enable</text>
      <text x="520" y="500" class="small-label" fill="#333">ET0 (A9H): Timer 0 Enable</text>
      <text x="520" y="515" class="small-label" fill="#333">EX0 (A8H): External 0 Enable</text>
    </g>
  </g>
  
  <!-- SFR Access Methods -->
  <g id="access-methods">
    <text x="200" y="400" class="subtitle" fill="#0066cc">SFR Access Methods</text>
    
    <!-- Direct Access -->
    <rect x="50" y="420" width="150" height="60" class="instruction-block"/>
    <text x="125" y="440" class="label" fill="#333">Direct Access</text>
    <text x="125" y="455" class="small-label" fill="#333">MOV A, 80H</text>
    <text x="125" y="470" class="small-label" fill="#333">(Access P0)</text>
    
    <!-- Symbolic Access -->
    <rect x="220" y="420" width="150" height="60" class="instruction-block"/>
    <text x="295" y="440" class="label" fill="#333">Symbolic Access</text>
    <text x="295" y="455" class="small-label" fill="#333">MOV A, P0</text>
    <text x="295" y="470" class="small-label" fill="#333">(Same as above)</text>
    
    <!-- Bit Access -->
    <rect x="50" y="500" width="150" height="60" class="instruction-block"/>
    <text x="125" y="520" class="label" fill="#333">Bit Access</text>
    <text x="125" y="535" class="small-label" fill="#333">SETB E0</text>
    <text x="125" y="550" class="small-label" fill="#333">(Set ACC.0)</text>
    
    <!-- Port Bit Access -->
    <rect x="220" y="500" width="150" height="60" class="instruction-block"/>
    <text x="295" y="520" class="label" fill="#333">Port Bit Access</text>
    <text x="295" y="535" class="small-label" fill="#333">SETB P1.0</text>
    <text x="295" y="550" class="small-label" fill="#333">(Set P1 bit 0)</text>
  </g>
</svg>
