<?xml version="1.0" encoding="UTF-8"?>
<svg width="800" height="600" viewBox="0 0 800 600" xmlns="http://www.w3.org/2000/svg">
  <defs>
    <style>
      .title { font-family: Arial, sans-serif; font-size: 24px; font-weight: bold; text-anchor: middle; }
      .subtitle { font-family: Arial, sans-serif; font-size: 16px; font-weight: bold; text-anchor: middle; }
      .label { font-family: Arial, sans-serif; font-size: 12px; text-anchor: middle; }
      .small-label { font-family: Arial, sans-serif; font-size: 10px; text-anchor: middle; }
      .processor-block { fill: #e6f3ff; stroke: #0066cc; stroke-width: 2; }
      .memory-block { fill: #fff2e6; stroke: #cc6600; stroke-width: 1; }
      .io-block { fill: #e6ffe6; stroke: #009900; stroke-width: 1; }
      .bus-line { stroke: #333; stroke-width: 2; fill: none; }
      .data-flow { stroke: #009900; stroke-width: 2; fill: none; marker-end: url(#arrowhead); }
    </style>
    <marker id="arrowhead" markerWidth="10" markerHeight="7" refX="9" refY="3.5" orient="auto">
      <polygon points="0 0, 10 3.5, 0 7" fill="#009900"/>
    </marker>
  </defs>
  
  <!-- Title -->
  <text x="400" y="30" class="title" fill="#333">8085 Bus Structure and Data Transfer</text>
  
  <!-- 8085 Microprocessor -->
  <g id="processor">
    <rect x="300" y="60" width="200" height="120" class="processor-block"/>
    <text x="400" y="90" class="subtitle" fill="#333">8085 Microprocessor</text>
    
    <!-- Internal components -->
    <rect x="320" y="110" width="60" height="20" class="memory-block"/>
    <text x="350" y="125" class="small-label" fill="#333">ALU</text>
    
    <rect x="390" y="110" width="60" height="20" class="memory-block"/>
    <text x="420" y="125" class="small-label" fill="#333">Registers</text>
    
    <rect x="320" y="140" width="60" height="20" class="memory-block"/>
    <text x="350" y="155" class="small-label" fill="#333">Control Unit</text>
    
    <rect x="390" y="140" width="60" height="20" class="memory-block"/>
    <text x="420" y="155" class="small-label" fill="#333">PC &amp; SP</text>
  </g>
  
  <!-- Address Bus -->
  <g id="address-bus">
    <text x="100" y="220" class="subtitle" fill="#0066cc">Address Bus (16-bit)</text>
    
    <!-- Bus lines -->
    <line x1="50" y1="240" x2="750" y2="240" class="bus-line"/>
    <text x="400" y="235" class="small-label" fill="#333">A15 - A0</text>
    
    <!-- Address demultiplexing -->
    <rect x="120" y="250" width="100" height="40" class="io-block"/>
    <text x="170" y="275" class="label" fill="#333">Address Latch</text>
    
    <!-- Connection to processor -->
    <line x1="300" y1="180" x2="170" y2="240" class="data-flow"/>
    <text x="230" y="210" class="small-label" fill="#009900">AD7-AD0</text>
  </g>
  
  <!-- Data Bus -->
  <g id="data-bus">
    <text x="100" y="320" class="subtitle" fill="#0066cc">Data Bus (8-bit)</text>
    
    <!-- Bus lines -->
    <line x1="50" y1="340" x2="750" y2="340" class="bus-line"/>
    <text x="400" y="335" class="small-label" fill="#333">D7 - D0</text>
    
    <!-- Bidirectional indicator -->
    <path d="M 380 345 L 420 345" class="data-flow"/>
    <path d="M 420 350 L 380 350" class="data-flow"/>
    <text x="400" y="365" class="small-label" fill="#009900">Bidirectional</text>
    
    <!-- Connection to processor -->
    <line x1="400" y1="180" x2="400" y2="340" class="data-flow"/>
  </g>
  
  <!-- Control Bus -->
  <g id="control-bus">
    <text x="100" y="400" class="subtitle" fill="#0066cc">Control Signals</text>
    
    <!-- Control signals -->
    <rect x="50" y="420" width="80" height="25" class="memory-block"/>
    <text x="90" y="437" class="small-label" fill="#333">RD</text>
    
    <rect x="140" y="420" width="80" height="25" class="memory-block"/>
    <text x="180" y="437" class="small-label" fill="#333">WR</text>
    
    <rect x="230" y="420" width="80" height="25" class="memory-block"/>
    <text x="270" y="437" class="small-label" fill="#333">ALE</text>
    
    <rect x="320" y="420" width="80" height="25" class="memory-block"/>
    <text x="360" y="437" class="small-label" fill="#333">IO/M</text>
    
    <rect x="410" y="420" width="80" height="25" class="memory-block"/>
    <text x="450" y="437" class="small-label" fill="#333">S0, S1</text>
    
    <rect x="500" y="420" width="80" height="25" class="memory-block"/>
    <text x="540" y="437" class="small-label" fill="#333">READY</text>
    
    <!-- Connections to processor -->
    <line x1="350" y1="180" x2="90" y2="420" class="data-flow"/>
    <line x1="370" y1="180" x2="180" y2="420" class="data-flow"/>
    <line x1="390" y1="180" x2="270" y2="420" class="data-flow"/>
    <line x1="410" y1="180" x2="360" y2="420" class="data-flow"/>
    <line x1="430" y1="180" x2="450" y2="420" class="data-flow"/>
    <line x1="450" y1="180" x2="540" y2="420" class="data-flow"/>
  </g>
  
  <!-- Memory and I/O Devices -->
  <g id="devices">
    <!-- Memory -->
    <rect x="600" y="250" width="100" height="60" class="memory-block"/>
    <text x="650" y="275" class="label" fill="#333">Memory</text>
    <text x="650" y="290" class="small-label" fill="#333">ROM/RAM</text>
    
    <!-- I/O Device -->
    <rect x="600" y="350" width="100" height="60" class="io-block"/>
    <text x="650" y="375" class="label" fill="#333">I/O Device</text>
    <text x="650" y="390" class="small-label" fill="#333">Ports</text>
    
    <!-- Bus connections -->
    <line x1="650" y1="240" x2="650" y2="250" class="bus-line"/>
    <line x1="650" y1="310" x2="650" y2="340" class="bus-line"/>
    <line x1="650" y1="340" x2="650" y2="350" class="bus-line"/>
    <line x1="650" y1="410" x2="650" y2="420" class="bus-line"/>
  </g>
  
  <!-- Data Transfer Operations -->
  <g id="operations">
    <text x="150" y="500" class="subtitle" fill="#0066cc">Data Transfer Types</text>
    
    <!-- Memory Read -->
    <rect x="50" y="520" width="120" height="40" class="processor-block"/>
    <text x="110" y="535" class="label" fill="#333">Memory Read</text>
    <text x="110" y="550" class="small-label" fill="#333">IO/M=0, RD=0</text>
    
    <!-- Memory Write -->
    <rect x="180" y="520" width="120" height="40" class="processor-block"/>
    <text x="240" y="535" class="label" fill="#333">Memory Write</text>
    <text x="240" y="550" class="small-label" fill="#333">IO/M=0, WR=0</text>
    
    <!-- I/O Read -->
    <rect x="310" y="520" width="120" height="40" class="io-block"/>
    <text x="370" y="535" class="label" fill="#333">I/O Read</text>
    <text x="370" y="550" class="small-label" fill="#333">IO/M=1, RD=0</text>
    
    <!-- I/O Write -->
    <rect x="440" y="520" width="120" height="40" class="io-block"/>
    <text x="500" y="535" class="label" fill="#333">I/O Write</text>
    <text x="500" y="550" class="small-label" fill="#333">IO/M=1, WR=0</text>
  </g>
</svg>
