<?xml version="1.0" encoding="UTF-8"?>
<svg width="800" height="600" viewBox="0 0 800 600" xmlns="http://www.w3.org/2000/svg">
  <defs>
    <style>
      .title { font-family: Arial, sans-serif; font-size: 24px; font-weight: bold; text-anchor: middle; }
      .subtitle { font-family: Arial, sans-serif; font-size: 16px; font-weight: bold; text-anchor: middle; }
      .label { font-family: Arial, sans-serif; font-size: 12px; text-anchor: middle; }
      .small-label { font-family: Arial, sans-serif; font-size: 10px; text-anchor: middle; }
      .stack-block { fill: #e6f3ff; stroke: #0066cc; stroke-width: 2; }
      .memory-block { fill: #fff2e6; stroke: #cc6600; stroke-width: 1; }
      .pointer-block { fill: #e6ffe6; stroke: #009900; stroke-width: 1; }
      .data-flow { stroke: #009900; stroke-width: 2; fill: none; marker-end: url(#arrowhead); }
    </style>
    <marker id="arrowhead" markerWidth="10" markerHeight="7" refX="9" refY="3.5" orient="auto">
      <polygon points="0 0, 10 3.5, 0 7" fill="#009900"/>
    </marker>
  </defs>
  
  <!-- Title -->
  <text x="400" y="30" class="title" fill="#333">8085 Stack Operations and Subroutines</text>
  
  <!-- Stack Memory Structure -->
  <g id="stack-structure">
    <text x="200" y="70" class="subtitle" fill="#0066cc">Stack Memory Organization</text>
    
    <!-- Memory addresses (descending) -->
    <rect x="50" y="90" width="80" height="30" class="memory-block"/>
    <text x="90" y="110" class="small-label" fill="#333">2100H</text>
    
    <rect x="140" y="90" width="100" height="30" class="stack-block"/>
    <text x="190" y="110" class="small-label" fill="#333">Empty</text>
    
    <rect x="50" y="130" width="80" height="30" class="memory-block"/>
    <text x="90" y="150" class="small-label" fill="#333">20FFH</text>
    
    <rect x="140" y="130" width="100" height="30" class="stack-block"/>
    <text x="190" y="150" class="small-label" fill="#333">Data 2</text>
    
    <rect x="50" y="170" width="80" height="30" class="memory-block"/>
    <text x="90" y="190" class="small-label" fill="#333">20FEH</text>
    
    <rect x="140" y="170" width="100" height="30" class="stack-block"/>
    <text x="190" y="190" class="small-label" fill="#333">Data 1</text>
    
    <rect x="50" y="210" width="80" height="30" class="memory-block"/>
    <text x="90" y="230" class="small-label" fill="#333">20FDH</text>
    
    <rect x="140" y="210" width="100" height="30" class="stack-block"/>
    <text x="190" y="230" class="small-label" fill="#333">Empty</text>
    
    <!-- Stack Pointer -->
    <rect x="260" y="170" width="80" height="30" class="pointer-block"/>
    <text x="300" y="190" class="label" fill="#333">SP = 20FEH</text>
    
    <!-- Arrow pointing to current stack top -->
    <path d="M 260 185 L 240 185" class="data-flow"/>
    <text x="270" y="160" class="small-label" fill="#009900">Stack Top</text>
  </g>
  
  <!-- PUSH Operation -->
  <g id="push-operation">
    <text x="200" y="290" class="subtitle" fill="#0066cc">PUSH Operation</text>
    
    <!-- Before PUSH -->
    <text x="120" y="320" class="label" fill="#333">Before PUSH B</text>
    
    <rect x="50" y="330" width="60" height="25" class="memory-block"/>
    <text x="80" y="347" class="small-label" fill="#333">20FFH</text>
    
    <rect x="120" y="330" width="60" height="25" class="stack-block"/>
    <text x="150" y="347" class="small-label" fill="#333">XX</text>
    
    <rect x="50" y="360" width="60" height="25" class="memory-block"/>
    <text x="80" y="377" class="small-label" fill="#333">20FEH</text>
    
    <rect x="120" y="360" width="60" height="25" class="stack-block"/>
    <text x="150" y="377" class="small-label" fill="#333">Data</text>
    
    <rect x="200" y="360" width="60" height="25" class="pointer-block"/>
    <text x="230" y="377" class="small-label" fill="#333">SP=20FEH</text>
    
    <!-- After PUSH -->
    <text x="400" y="320" class="label" fill="#333">After PUSH B</text>
    
    <rect x="330" y="330" width="60" height="25" class="memory-block"/>
    <text x="360" y="347" class="small-label" fill="#333">20FFH</text>
    
    <rect x="400" y="330" width="60" height="25" class="stack-block"/>
    <text x="430" y="347" class="small-label" fill="#333">Reg B</text>
    
    <rect x="330" y="360" width="60" height="25" class="memory-block"/>
    <text x="360" y="377" class="small-label" fill="#333">20FEH</text>
    
    <rect x="400" y="360" width="60" height="25" class="stack-block"/>
    <text x="430" y="377" class="small-label" fill="#333">Reg C</text>
    
    <rect x="480" y="345" width="60" height="25" class="pointer-block"/>
    <text x="510" y="362" class="small-label" fill="#333">SP=2100H</text>
    
    <!-- Steps -->
    <rect x="570" y="330" width="150" height="60" class="memory-block"/>
    <text x="645" y="350" class="small-label" fill="#333">PUSH Steps:</text>
    <text x="645" y="365" class="small-label" fill="#333">1. SP = SP + 1</text>
    <text x="645" y="380" class="small-label" fill="#333">2. Store data at [SP]</text>
  </g>
  
  <!-- POP Operation -->
  <g id="pop-operation">
    <text x="200" y="430" class="subtitle" fill="#0066cc">POP Operation</text>
    
    <!-- Before POP -->
    <text x="120" y="460" class="label" fill="#333">Before POP H</text>
    
    <rect x="50" y="470" width="60" height="25" class="memory-block"/>
    <text x="80" y="487" class="small-label" fill="#333">20FFH</text>
    
    <rect x="120" y="470" width="60" height="25" class="stack-block"/>
    <text x="150" y="487" class="small-label" fill="#333">Data H</text>
    
    <rect x="50" y="500" width="60" height="25" class="memory-block"/>
    <text x="80" y="517" class="small-label" fill="#333">20FEH</text>
    
    <rect x="120" y="500" width="60" height="25" class="stack-block"/>
    <text x="150" y="517" class="small-label" fill="#333">Data L</text>
    
    <rect x="200" y="485" width="60" height="25" class="pointer-block"/>
    <text x="230" y="502" class="small-label" fill="#333">SP=20FFH</text>
    
    <!-- After POP -->
    <text x="400" y="460" class="label" fill="#333">After POP H</text>
    
    <rect x="330" y="470" width="60" height="25" class="memory-block"/>
    <text x="360" y="487" class="small-label" fill="#333">20FFH</text>
    
    <rect x="400" y="470" width="60" height="25" class="stack-block"/>
    <text x="430" y="487" class="small-label" fill="#333">XX</text>
    
    <rect x="330" y="500" width="60" height="25" class="memory-block"/>
    <text x="360" y="517" class="small-label" fill="#333">20FEH</text>
    
    <rect x="400" y="500" width="60" height="25" class="stack-block"/>
    <text x="430" y="517" class="small-label" fill="#333">XX</text>
    
    <rect x="480" y="485" width="60" height="25" class="pointer-block"/>
    <text x="510" y="502" class="small-label" fill="#333">SP=20FDH</text>
    
    <!-- Steps -->
    <rect x="570" y="470" width="150" height="60" class="memory-block"/>
    <text x="645" y="490" class="small-label" fill="#333">POP Steps:</text>
    <text x="645" y="505" class="small-label" fill="#333">1. Read data from [SP]</text>
    <text x="645" y="520" class="small-label" fill="#333">2. SP = SP - 1</text>
  </g>
  
  <!-- Subroutine Call -->
  <g id="subroutine">
    <text x="600" y="70" class="subtitle" fill="#0066cc">Subroutine Operations</text>
    
    <!-- CALL Operation -->
    <rect x="520" y="90" width="160" height="80" class="stack-block"/>
    <text x="600" y="115" class="label" fill="#333">CALL Subroutine</text>
    <text x="600" y="135" class="small-label" fill="#333">1. PC+3 → Stack (Return Addr)</text>
    <text x="600" y="150" class="small-label" fill="#333">2. Subroutine Addr → PC</text>
    <text x="600" y="165" class="small-label" fill="#333">3. Jump to subroutine</text>
    
    <!-- RET Operation -->
    <rect x="520" y="180" width="160" height="80" class="stack-block"/>
    <text x="600" y="205" class="label" fill="#333">RET from Subroutine</text>
    <text x="600" y="225" class="small-label" fill="#333">1. Pop return address</text>
    <text x="600" y="240" class="small-label" fill="#333">2. Return address → PC</text>
    <text x="600" y="255" class="small-label" fill="#333">3. Continue main program</text>
    
    <!-- Stack during subroutine -->
    <rect x="520" y="280" width="160" height="100" class="memory-block"/>
    <text x="600" y="300" class="label" fill="#333">Stack during CALL</text>
    <text x="600" y="320" class="small-label" fill="#333">High Byte of Return Addr</text>
    <text x="600" y="335" class="small-label" fill="#333">Low Byte of Return Addr</text>
    <text x="600" y="350" class="small-label" fill="#333">Previous Stack Data</text>
    <text x="600" y="365" class="small-label" fill="#333">...</text>
  </g>
</svg>
