<?xml version="1.0" encoding="UTF-8"?>
<svg width="800" height="600" viewBox="0 0 800 600" xmlns="http://www.w3.org/2000/svg">
  <defs>
    <style>
      .title { font-family: Arial, sans-serif; font-size: 24px; font-weight: bold; text-anchor: middle; }
      .subtitle { font-family: Arial, sans-serif; font-size: 16px; font-weight: bold; text-anchor: middle; }
      .label { font-family: Arial, sans-serif; font-size: 12px; text-anchor: middle; }
      .small-label { font-family: Arial, sans-serif; font-size: 10px; text-anchor: middle; }
      .instruction-block { fill: #e6f3ff; stroke: #0066cc; stroke-width: 2; }
      .operand-block { fill: #fff2e6; stroke: #cc6600; stroke-width: 1; }
      .format-block { fill: #e6ffe6; stroke: #009900; stroke-width: 1; }
      .data-flow { stroke: #009900; stroke-width: 2; fill: none; marker-end: url(#arrowhead); }
    </style>
    <marker id="arrowhead" markerWidth="10" markerHeight="7" refX="9" refY="3.5" orient="auto">
      <polygon points="0 0, 10 3.5, 0 7" fill="#009900"/>
    </marker>
  </defs>
  
  <!-- Title -->
  <text x="400" y="30" class="title" fill="#333">8085 Instruction Formats</text>
  
  <!-- One Byte Instructions -->
  <g id="one-byte">
    <text x="150" y="70" class="subtitle" fill="#0066cc">One Byte Instructions</text>
    
    <!-- Format -->
    <rect x="50" y="90" width="200" height="40" class="instruction-block"/>
    <text x="150" y="115" class="label" fill="#333">Opcode (8 bits)</text>
    
    <!-- Examples -->
    <rect x="50" y="150" width="80" height="30" class="operand-block"/>
    <text x="90" y="170" class="small-label" fill="#333">MOV A,B</text>
    
    <rect x="140" y="150" width="80" height="30" class="operand-block"/>
    <text x="180" y="170" class="small-label" fill="#333">ADD B</text>
    
    <rect x="50" y="190" width="80" height="30" class="operand-block"/>
    <text x="90" y="210" class="small-label" fill="#333">INR A</text>
    
    <rect x="140" y="190" width="80" height="30" class="operand-block"/>
    <text x="180" y="210" class="small-label" fill="#333">CMA</text>
    
    <!-- Binary representation -->
    <rect x="50" y="240" width="200" height="60" class="format-block"/>
    <text x="150" y="260" class="label" fill="#333">MOV A,B Binary</text>
    <text x="150" y="280" class="small-label" fill="#333">01111000</text>
    <text x="150" y="295" class="small-label" fill="#333">(78H)</text>
  </g>
  
  <!-- Two Byte Instructions -->
  <g id="two-byte">
    <text x="150" y="340" class="subtitle" fill="#0066cc">Two Byte Instructions</text>
    
    <!-- Format -->
    <rect x="50" y="360" width="100" height="40" class="instruction-block"/>
    <text x="100" y="385" class="label" fill="#333">Opcode</text>
    
    <rect x="150" y="360" width="100" height="40" class="operand-block"/>
    <text x="200" y="385" class="label" fill="#333">8-bit Data</text>
    
    <!-- Examples -->
    <rect x="50" y="420" width="80" height="30" class="operand-block"/>
    <text x="90" y="440" class="small-label" fill="#333">MVI A,50H</text>
    
    <rect x="140" y="420" width="80" height="30" class="operand-block"/>
    <text x="180" y="440" class="small-label" fill="#333">ADI 25H</text>
    
    <rect x="50" y="460" width="80" height="30" class="operand-block"/>
    <text x="90" y="480" class="small-label" fill="#333">CPI 40H</text>
    
    <rect x="140" y="460" width="80" height="30" class="operand-block"/>
    <text x="180" y="480" class="small-label" fill="#333">OUT 01H</text>
    
    <!-- Binary representation -->
    <rect x="50" y="510" width="200" height="60" class="format-block"/>
    <text x="150" y="530" class="label" fill="#333">MVI A,50H Binary</text>
    <text x="150" y="550" class="small-label" fill="#333">00111110 01010000</text>
    <text x="150" y="565" class="small-label" fill="#333">(3E 50)</text>
  </g>
  
  <!-- Three Byte Instructions -->
  <g id="three-byte">
    <text x="550" y="70" class="subtitle" fill="#0066cc">Three Byte Instructions</text>
    
    <!-- Format -->
    <rect x="450" y="90" width="80" height="40" class="instruction-block"/>
    <text x="490" y="115" class="label" fill="#333">Opcode</text>
    
    <rect x="530" y="90" width="80" height="40" class="operand-block"/>
    <text x="570" y="115" class="label" fill="#333">Low Byte</text>
    
    <rect x="610" y="90" width="80" height="40" class="operand-block"/>
    <text x="650" y="115" class="label" fill="#333">High Byte</text>
    
    <!-- Examples -->
    <rect x="450" y="150" width="100" height="30" class="operand-block"/>
    <text x="500" y="170" class="small-label" fill="#333">LDA 2050H</text>
    
    <rect x="560" y="150" width="100" height="30" class="operand-block"/>
    <text x="610" y="170" class="small-label" fill="#333">STA 3000H</text>
    
    <rect x="450" y="190" width="100" height="30" class="operand-block"/>
    <text x="500" y="210" class="small-label" fill="#333">JMP 2100H</text>
    
    <rect x="560" y="190" width="100" height="30" class="operand-block"/>
    <text x="610" y="210" class="small-label" fill="#333">CALL 4000H</text>
    
    <!-- Binary representation -->
    <rect x="450" y="240" width="240" height="80" class="format-block"/>
    <text x="570" y="260" class="label" fill="#333">LDA 2050H Binary</text>
    <text x="570" y="280" class="small-label" fill="#333">00111010 01010000 00100000</text>
    <text x="570" y="295" class="small-label" fill="#333">(3A 50 20)</text>
    <text x="570" y="310" class="small-label" fill="#333">Note: Address stored as Low-High</text>
  </g>
  
  <!-- Instruction Categories -->
  <g id="categories">
    <text x="550" y="360" class="subtitle" fill="#0066cc">Instruction Categories</text>
    
    <!-- Data Transfer -->
    <rect x="450" y="380" width="120" height="50" class="instruction-block"/>
    <text x="510" y="400" class="label" fill="#333">Data Transfer</text>
    <text x="510" y="415" class="small-label" fill="#333">MOV, MVI, LDA</text>
    <text x="510" y="425" class="small-label" fill="#333">STA, LXI, LDAX</text>
    
    <!-- Arithmetic -->
    <rect x="580" y="380" width="120" height="50" class="instruction-block"/>
    <text x="640" y="400" class="label" fill="#333">Arithmetic</text>
    <text x="640" y="415" class="small-label" fill="#333">ADD, SUB, INR</text>
    <text x="640" y="425" class="small-label" fill="#333">DCR, ADI, SUI</text>
    
    <!-- Logical -->
    <rect x="450" y="440" width="120" height="50" class="instruction-block"/>
    <text x="510" y="460" class="label" fill="#333">Logical</text>
    <text x="510" y="475" class="small-label" fill="#333">ANA, ORA, XRA</text>
    <text x="510" y="485" class="small-label" fill="#333">CMP, RLC, RRC</text>
    
    <!-- Branch -->
    <rect x="580" y="440" width="120" height="50" class="instruction-block"/>
    <text x="640" y="460" class="label" fill="#333">Branch</text>
    <text x="640" y="475" class="small-label" fill="#333">JMP, JZ, JNZ</text>
    <text x="640" y="485" class="small-label" fill="#333">CALL, RET, RST</text>
    
    <!-- Machine Control -->
    <rect x="450" y="500" width="120" height="50" class="instruction-block"/>
    <text x="510" y="520" class="label" fill="#333">Machine Control</text>
    <text x="510" y="535" class="small-label" fill="#333">HLT, NOP, EI</text>
    <text x="510" y="545" class="small-label" fill="#333">DI, SIM, RIM</text>
    
    <!-- Stack Operations -->
    <rect x="580" y="500" width="120" height="50" class="instruction-block"/>
    <text x="640" y="520" class="label" fill="#333">Stack Ops</text>
    <text x="640" y="535" class="small-label" fill="#333">PUSH, POP</text>
    <text x="640" y="545" class="small-label" fill="#333">XTHL, SPHL</text>
  </g>
  
  <!-- Addressing Mode Examples -->
  <g id="addressing-examples">
    <text x="150" y="360" class="subtitle" fill="#cc6600">Addressing Examples</text>
    
    <!-- Immediate -->
    <rect x="50" y="380" width="150" height="25" class="format-block"/>
    <text x="125" y="397" class="small-label" fill="#333">MVI A,50H - Immediate</text>
    
    <!-- Direct -->
    <rect x="50" y="410" width="150" height="25" class="format-block"/>
    <text x="125" y="427" class="small-label" fill="#333">LDA 2050H - Direct</text>
    
    <!-- Register -->
    <rect x="50" y="440" width="150" height="25" class="format-block"/>
    <text x="125" y="457" class="small-label" fill="#333">MOV A,B - Register</text>
    
    <!-- Indirect -->
    <rect x="50" y="470" width="150" height="25" class="format-block"/>
    <text x="125" y="487" class="small-label" fill="#333">LDAX B - Indirect</text>
    
    <!-- Implicit -->
    <rect x="50" y="500" width="150" height="25" class="format-block"/>
    <text x="125" y="517" class="small-label" fill="#333">CMA - Implicit</text>
  </g>
</svg>
