<?xml version="1.0" encoding="UTF-8"?>
<svg width="800" height="600" viewBox="0 0 800 600" xmlns="http://www.w3.org/2000/svg">
  <defs>
    <style>
      .title { font-family: Arial, sans-serif; font-size: 24px; font-weight: bold; text-anchor: middle; }
      .subtitle { font-family: Arial, sans-serif; font-size: 16px; font-weight: bold; text-anchor: middle; }
      .label { font-family: Arial, sans-serif; font-size: 12px; text-anchor: middle; }
      .small-label { font-family: Arial, sans-serif; font-size: 10px; text-anchor: middle; }
      .timing-high { fill: #ffcccc; stroke: #cc0000; stroke-width: 2; }
      .timing-low { fill: #ccffcc; stroke: #00cc00; stroke-width: 2; }
      .timing-undefined { fill: #cccccc; stroke: #666666; stroke-width: 1; }
      .clock-signal { stroke: #0066cc; stroke-width: 2; fill: none; }
      .data-signal { stroke: #cc6600; stroke-width: 2; fill: none; }
    </style>
  </defs>
  
  <!-- Title -->
  <text x="400" y="30" class="title" fill="#333">8051 Timing Diagrams</text>
  
  <!-- Clock Signal -->
  <g id="clock-timing">
    <text x="100" y="70" class="subtitle" fill="#0066cc">System Clock (XTAL)</text>
    
    <!-- Clock waveform -->
    <path d="M 50 90 L 50 110 L 80 110 L 80 90 L 110 90 L 110 110 L 140 110 L 140 90 L 170 90 L 170 110 L 200 110 L 200 90 L 230 90 L 230 110 L 260 110 L 260 90 L 290 90 L 290 110 L 320 110 L 320 90" class="clock-signal"/>
    
    <!-- Time markers -->
    <text x="50" y="130" class="small-label" fill="#333">0</text>
    <text x="80" y="130" class="small-label" fill="#333">T</text>
    <text x="110" y="130" class="small-label" fill="#333">2T</text>
    <text x="140" y="130" class="small-label" fill="#333">3T</text>
    <text x="170" y="130" class="small-label" fill="#333">4T</text>
    <text x="200" y="130" class="small-label" fill="#333">5T</text>
    <text x="230" y="130" class="small-label" fill="#333">6T</text>
    
    <!-- Machine cycle indication -->
    <rect x="50" y="140" width="120" height="20" class="timing-high"/>
    <text x="110" y="155" class="small-label" fill="#333">Machine Cycle 1</text>
    
    <rect x="170" y="140" width="150" height="20" class="timing-high"/>
    <text x="245" y="155" class="small-label" fill="#333">Machine Cycle 2</text>
  </g>
  
  <!-- Instruction Fetch Timing -->
  <g id="fetch-timing">
    <text x="400" y="180" class="subtitle" fill="#0066cc">Instruction Fetch Timing</text>
    
    <!-- PSEN signal -->
    <text x="50" y="210" class="label" fill="#333">PSEN</text>
    <rect x="80" y="200" width="30" height="15" class="timing-high"/>
    <rect x="110" y="200" width="60" height="15" class="timing-low"/>
    <rect x="170" y="200" width="150" height="15" class="timing-high"/>
    
    <!-- ALE signal -->
    <text x="50" y="235" class="label" fill="#333">ALE</text>
    <rect x="80" y="225" width="40" height="15" class="timing-high"/>
    <rect x="120" y="225" width="20" height="15" class="timing-low"/>
    <rect x="140" y="225" width="40" height="15" class="timing-high"/>
    <rect x="180" y="225" width="20" height="15" class="timing-low"/>
    <rect x="200" y="225" width="120" height="15" class="timing-high"/>
    
    <!-- Port 0 (Address/Data) -->
    <text x="50" y="260" class="label" fill="#333">Port 0</text>
    <rect x="80" y="250" width="40" height="15" class="timing-high"/>
    <rect x="120" y="250" width="60" height="15" class="timing-undefined"/>
    <rect x="180" y="250" width="40" height="15" class="timing-high"/>
    <rect x="220" y="250" width="100" height="15" class="timing-undefined"/>
    
    <text x="100" y="270" class="small-label" fill="#333">Addr Low</text>
    <text x="150" y="270" class="small-label" fill="#333">Instruction</text>
    <text x="200" y="270" class="small-label" fill="#333">Addr Low</text>
    <text x="270" y="270" class="small-label" fill="#333">Next Instr</text>
    
    <!-- Port 2 (Address High) -->
    <text x="50" y="295" class="label" fill="#333">Port 2</text>
    <rect x="80" y="285" width="240" height="15" class="timing-high"/>
    <text x="200" y="305" class="small-label" fill="#333">Address High (Stable)</text>
  </g>
  
  <!-- External Memory Read -->
  <g id="memory-read">
    <text x="400" y="340" class="subtitle" fill="#0066cc">External Data Memory Read</text>
    
    <!-- RD signal -->
    <text x="50" y="370" class="label" fill="#333">RD</text>
    <rect x="80" y="360" width="40" height="15" class="timing-high"/>
    <rect x="120" y="360" width="80" height="15" class="timing-low"/>
    <rect x="200" y="360" width="120" height="15" class="timing-high"/>
    
    <!-- WR signal -->
    <text x="50" y="395" class="label" fill="#333">WR</text>
    <rect x="80" y="385" width="240" height="15" class="timing-high"/>
    
    <!-- ALE signal -->
    <text x="50" y="420" class="label" fill="#333">ALE</text>
    <rect x="80" y="410" width="40" height="15" class="timing-high"/>
    <rect x="120" y="410" width="20" height="15" class="timing-low"/>
    <rect x="140" y="410" width="180" height="15" class="timing-high"/>
    
    <!-- Port 0 -->
    <text x="50" y="445" class="label" fill="#333">Port 0</text>
    <rect x="80" y="435" width="40" height="15" class="timing-high"/>
    <rect x="120" y="435" width="80" height="15" class="timing-undefined"/>
    <rect x="200" y="435" width="120" height="15" class="timing-high"/>
    
    <text x="100" y="455" class="small-label" fill="#333">Addr Low</text>
    <text x="160" y="455" class="small-label" fill="#333">Data In</text>
    <text x="260" y="455" class="small-label" fill="#333">Float</text>
  </g>
  
  <!-- External Memory Write -->
  <g id="memory-write">
    <text x="400" y="490" class="subtitle" fill="#0066cc">External Data Memory Write</text>
    
    <!-- RD signal -->
    <text x="50" y="520" class="label" fill="#333">RD</text>
    <rect x="80" y="510" width="240" height="15" class="timing-high"/>
    
    <!-- WR signal -->
    <text x="50" y="545" class="label" fill="#333">WR</text>
    <rect x="80" y="535" width="40" height="15" class="timing-high"/>
    <rect x="120" y="535" width="80" height="15" class="timing-low"/>
    <rect x="200" y="535" width="120" height="15" class="timing-high"/>
    
    <!-- ALE signal -->
    <text x="50" y="570" class="label" fill="#333">ALE</text>
    <rect x="80" y="560" width="40" height="15" class="timing-high"/>
    <rect x="120" y="560" width="20" height="15" class="timing-low"/>
    <rect x="140" y="560" width="180" height="15" class="timing-high"/>
    
    <!-- Port 0 -->
    <text x="350" y="520" class="label" fill="#333">Port 0</text>
    <rect x="380" y="510" width="40" height="15" class="timing-high"/>
    <rect x="420" y="510" width="80" height="15" class="timing-high"/>
    <rect x="500" y="510" width="120" height="15" class="timing-high"/>
    
    <text x="400" y="530" class="small-label" fill="#333">Addr Low</text>
    <text x="460" y="530" class="small-label" fill="#333">Data Out</text>
    <text x="560" y="530" class="small-label" fill="#333">Float</text>
  </g>
  
  <!-- Timing Parameters -->
  <g id="timing-params">
    <text x="600" y="180" class="subtitle" fill="#cc6600">Timing Parameters</text>
    
    <rect x="500" y="200" width="200" height="140" class="timing-undefined"/>
    <text x="600" y="220" class="label" fill="#333">Key Timing Values</text>
    <text x="520" y="240" class="small-label" fill="#333">• ALE pulse width: 2 Tosc</text>
    <text x="520" y="255" class="small-label" fill="#333">• PSEN delay: 1 Tosc</text>
    <text x="520" y="270" class="small-label" fill="#333">• Data setup time: 1 Tosc</text>
    <text x="520" y="285" class="small-label" fill="#333">• Data hold time: 0 Tosc</text>
    <text x="520" y="300" class="small-label" fill="#333">• Address setup: 1 Tosc</text>
    <text x="520" y="315" class="small-label" fill="#333">• Machine cycle: 12 Tosc</text>
    <text x="520" y="330" class="small-label" fill="#333">• Instruction cycle: 1-4 MC</text>
  </g>
</svg>
