<?xml version="1.0" encoding="UTF-8"?>
<svg width="800" height="600" viewBox="0 0 800 600" xmlns="http://www.w3.org/2000/svg">
  <defs>
    <style>
      .title { font-family: Arial, sans-serif; font-size: 24px; font-weight: bold; text-anchor: middle; }
      .subtitle { font-family: Arial, sans-serif; font-size: 16px; font-weight: bold; text-anchor: middle; }
      .label { font-family: Arial, sans-serif; font-size: 12px; text-anchor: middle; }
      .small-label { font-family: Arial, sans-serif; font-size: 10px; text-anchor: middle; }
      .alu-block { fill: #e6f3ff; stroke: #0066cc; stroke-width: 2; }
      .register-block { fill: #fff2e6; stroke: #cc6600; stroke-width: 1; }
      .flag-block { fill: #e6ffe6; stroke: #009900; stroke-width: 1; }
      .data-flow { stroke: #009900; stroke-width: 2; fill: none; marker-end: url(#arrowhead); }
      .control-flow { stroke: #cc0000; stroke-width: 1.5; fill: none; marker-end: url(#arrowhead); }
    </style>
    <marker id="arrowhead" markerWidth="10" markerHeight="7" refX="9" refY="3.5" orient="auto">
      <polygon points="0 0, 10 3.5, 0 7" fill="#009900"/>
    </marker>
  </defs>
  
  <!-- Title -->
  <text x="400" y="30" class="title" fill="#333">8085 Arithmetic Logic Unit (ALU)</text>
  
  <!-- ALU Main Block -->
  <g id="alu-main">
    <rect x="300" y="80" width="200" height="150" class="alu-block"/>
    <text x="400" y="110" class="subtitle" fill="#333">8085 ALU</text>
    
    <!-- ALU Operations -->
    <text x="400" y="140" class="label" fill="#333">Arithmetic Operations:</text>
    <text x="400" y="155" class="small-label" fill="#333">ADD, SUB, INR, DCR</text>
    
    <text x="400" y="175" class="label" fill="#333">Logic Operations:</text>
    <text x="400" y="190" class="small-label" fill="#333">AND, OR, XOR, NOT</text>
    
    <text x="400" y="210" class="label" fill="#333">Shift/Rotate:</text>
    <text x="400" y="225" class="small-label" fill="#333">RLC, RRC, RAL, RAR</text>
  </g>
  
  <!-- Input Registers -->
  <g id="inputs">
    <!-- Accumulator -->
    <rect x="100" y="120" width="80" height="40" class="register-block"/>
    <text x="140" y="145" class="label" fill="#333">Accumulator</text>
    <text x="140" y="160" class="small-label" fill="#333">(A Register)</text>
    
    <!-- Temporary Register -->
    <rect x="100" y="180" width="80" height="40" class="register-block"/>
    <text x="140" y="205" class="label" fill="#333">Temp Register</text>
    <text x="140" y="220" class="small-label" fill="#333">(Internal)</text>
    
    <!-- Data Bus Input -->
    <rect x="100" y="240" width="80" height="40" class="register-block"/>
    <text x="140" y="265" class="label" fill="#333">Data Bus</text>
    <text x="140" y="280" class="small-label" fill="#333">Input</text>
    
    <!-- Arrows to ALU -->
    <path d="M 180 140 L 300 140" class="data-flow"/>
    <path d="M 180 200 L 300 180" class="data-flow"/>
    <path d="M 180 260 L 300 220" class="data-flow"/>
  </g>
  
  <!-- Output and Flags -->
  <g id="outputs">
    <!-- Result to Accumulator -->
    <rect x="620" y="120" width="80" height="40" class="register-block"/>
    <text x="660" y="145" class="label" fill="#333">Result to</text>
    <text x="660" y="160" class="small-label" fill="#333">Accumulator</text>
    
    <!-- Result to Data Bus -->
    <rect x="620" y="180" width="80" height="40" class="register-block"/>
    <text x="660" y="205" class="label" fill="#333">Result to</text>
    <text x="660" y="220" class="small-label" fill="#333">Data Bus</text>
    
    <!-- Arrows from ALU -->
    <path d="M 500 140 L 620 140" class="data-flow"/>
    <path d="M 500 200 L 620 200" class="data-flow"/>
  </g>
  
  <!-- Flag Register -->
  <g id="flags">
    <text x="400" y="280" class="subtitle" fill="#009900">Flag Register (PSW)</text>
    
    <!-- Flag bits -->
    <rect x="250" y="300" width="50" height="30" class="flag-block"/>
    <text x="275" y="320" class="label" fill="#333">S (Sign)</text>
    
    <rect x="310" y="300" width="50" height="30" class="flag-block"/>
    <text x="335" y="320" class="label" fill="#333">Z (Zero)</text>
    
    <rect x="370" y="300" width="50" height="30" class="flag-block"/>
    <text x="395" y="320" class="label" fill="#333">AC (Aux)</text>
    
    <rect x="430" y="300" width="50" height="30" class="flag-block"/>
    <text x="455" y="320" class="label" fill="#333">P (Parity)</text>
    
    <rect x="490" y="300" width="50" height="30" class="flag-block"/>
    <text x="515" y="320" class="label" fill="#333">CY (Carry)</text>
    
    <!-- Connection from ALU -->
    <path d="M 400 230 L 400 300" class="control-flow"/>
    <text x="420" y="265" class="small-label" fill="#cc0000">Flag Updates</text>
  </g>
  
  <!-- ALU Operations Detail -->
  <g id="operations-detail">
    <text x="150" y="380" class="subtitle" fill="#0066cc">Arithmetic Operations</text>
    
    <!-- Addition -->
    <rect x="50" y="400" width="100" height="40" class="alu-block"/>
    <text x="100" y="415" class="label" fill="#333">ADD/ADI</text>
    <text x="100" y="430" class="small-label" fill="#333">A = A + Data</text>
    
    <!-- Subtraction -->
    <rect x="160" y="400" width="100" height="40" class="alu-block"/>
    <text x="210" y="415" class="label" fill="#333">SUB/SUI</text>
    <text x="210" y="430" class="small-label" fill="#333">A = A - Data</text>
    
    <!-- Increment -->
    <rect x="50" y="450" width="100" height="40" class="alu-block"/>
    <text x="100" y="465" class="label" fill="#333">INR</text>
    <text x="100" y="480" class="small-label" fill="#333">Reg = Reg + 1</text>
    
    <!-- Decrement -->
    <rect x="160" y="450" width="100" height="40" class="alu-block"/>
    <text x="210" y="465" class="label" fill="#333">DCR</text>
    <text x="210" y="480" class="small-label" fill="#333">Reg = Reg - 1</text>
    
    <!-- Compare -->
    <rect x="50" y="500" width="100" height="40" class="alu-block"/>
    <text x="100" y="515" class="label" fill="#333">CMP/CPI</text>
    <text x="100" y="530" class="small-label" fill="#333">Compare A with Data</text>
    
    <!-- DAA -->
    <rect x="160" y="500" width="100" height="40" class="alu-block"/>
    <text x="210" y="515" class="label" fill="#333">DAA</text>
    <text x="210" y="530" class="small-label" fill="#333">Decimal Adjust</text>
  </g>
  
  <!-- Logic Operations Detail -->
  <g id="logic-detail">
    <text x="450" y="380" class="subtitle" fill="#0066cc">Logic Operations</text>
    
    <!-- AND -->
    <rect x="350" y="400" width="100" height="40" class="alu-block"/>
    <text x="400" y="415" class="label" fill="#333">ANA/ANI</text>
    <text x="400" y="430" class="small-label" fill="#333">A = A AND Data</text>
    
    <!-- OR -->
    <rect x="460" y="400" width="100" height="40" class="alu-block"/>
    <text x="510" y="415" class="label" fill="#333">ORA/ORI</text>
    <text x="510" y="430" class="small-label" fill="#333">A = A OR Data</text>
    
    <!-- XOR -->
    <rect x="350" y="450" width="100" height="40" class="alu-block"/>
    <text x="400" y="465" class="label" fill="#333">XRA/XRI</text>
    <text x="400" y="480" class="small-label" fill="#333">A = A XOR Data</text>
    
    <!-- Complement -->
    <rect x="460" y="450" width="100" height="40" class="alu-block"/>
    <text x="510" y="465" class="label" fill="#333">CMA</text>
    <text x="510" y="480" class="small-label" fill="#333">A = NOT A</text>
    
    <!-- Rotate Left -->
    <rect x="350" y="500" width="100" height="40" class="alu-block"/>
    <text x="400" y="515" class="label" fill="#333">RLC/RAL</text>
    <text x="400" y="530" class="small-label" fill="#333">Rotate Left</text>
    
    <!-- Rotate Right -->
    <rect x="460" y="500" width="100" height="40" class="alu-block"/>
    <text x="510" y="515" class="label" fill="#333">RRC/RAR</text>
    <text x="510" y="530" class="small-label" fill="#333">Rotate Right</text>
  </g>
  
  <!-- Flag Effects -->
  <g id="flag-effects">
    <text x="650" y="380" class="subtitle" fill="#009900">Flag Effects</text>
    
    <rect x="580" y="400" width="140" height="160" class="flag-block"/>
    <text x="650" y="420" class="label" fill="#333">Operations affecting flags:</text>
    
    <text x="650" y="440" class="small-label" fill="#333">• ADD/SUB: All flags</text>
    <text x="650" y="455" class="small-label" fill="#333">• INR/DCR: S,Z,P,AC</text>
    <text x="650" y="470" class="small-label" fill="#333">• Logic Ops: S,Z,P (CY=0)</text>
    <text x="650" y="485" class="small-label" fill="#333">• Rotate: Only CY</text>
    <text x="650" y="500" class="small-label" fill="#333">• CMP: All flags</text>
    <text x="650" y="515" class="small-label" fill="#333">• DAA: S,Z,P,AC,CY</text>
    
    <text x="650" y="540" class="small-label" fill="#333">Flag meanings:</text>
    <text x="650" y="555" class="small-label" fill="#333">S=1: Negative result</text>
  </g>
</svg>
