<?xml version="1.0" encoding="UTF-8"?>
<svg width="800" height="600" viewBox="0 0 800 600" xmlns="http://www.w3.org/2000/svg">
  <defs>
    <style>
      .title { font-family: Arial, sans-serif; font-size: 24px; font-weight: bold; text-anchor: middle; }
      .subtitle { font-family: Arial, sans-serif; font-size: 16px; font-weight: bold; text-anchor: middle; }
      .label { font-family: Arial, sans-serif; font-size: 12px; text-anchor: middle; }
      .small-label { font-family: Arial, sans-serif; font-size: 10px; text-anchor: middle; }
      .port-block { fill: #e6f3ff; stroke: #0066cc; stroke-width: 2; }
      .pin-block { fill: #fff2e6; stroke: #cc6600; stroke-width: 1; }
      .function-block { fill: #e6ffe6; stroke: #009900; stroke-width: 1; }
      .data-flow { stroke: #009900; stroke-width: 2; fill: none; marker-end: url(#arrowhead); }
    </style>
    <marker id="arrowhead" markerWidth="10" markerHeight="7" refX="9" refY="3.5" orient="auto">
      <polygon points="0 0, 10 3.5, 0 7" fill="#009900"/>
    </marker>
  </defs>
  
  <!-- Title -->
  <text x="400" y="30" class="title" fill="#333">8051 I/O Port Structure</text>
  
  <!-- Port 0 Structure -->
  <g id="port0">
    <text x="150" y="70" class="subtitle" fill="#0066cc">Port 0 (P0.0 - P0.7)</text>
    
    <!-- Port 0 Block -->
    <rect x="50" y="90" width="200" height="80" class="port-block"/>
    <text x="150" y="115" class="label" fill="#333">Port 0 - Dual Purpose</text>
    <text x="150" y="135" class="small-label" fill="#333">• Lower 8-bit Address (A0-A7)</text>
    <text x="150" y="150" class="small-label" fill="#333">• 8-bit Data Bus (D0-D7)</text>
    <text x="150" y="165" class="small-label" fill="#333">• Open-drain outputs</text>
    
    <!-- Pin Configuration -->
    <rect x="60" y="180" width="30" height="20" class="pin-block"/>
    <text x="75" y="195" class="small-label" fill="#333">P0.0</text>
    
    <rect x="100" y="180" width="30" height="20" class="pin-block"/>
    <text x="115" y="195" class="small-label" fill="#333">P0.1</text>
    
    <rect x="140" y="180" width="30" height="20" class="pin-block"/>
    <text x="155" y="195" class="small-label" fill="#333">P0.2</text>
    
    <rect x="180" y="180" width="30" height="20" class="pin-block"/>
    <text x="195" y="195" class="small-label" fill="#333">P0.3</text>
    
    <rect x="220" y="180" width="30" height="20" class="pin-block"/>
    <text x="235" y="195" class="small-label" fill="#333">P0.7</text>
    
    <!-- External connections -->
    <text x="150" y="220" class="small-label" fill="#cc0000">Requires external pull-up resistors</text>
  </g>
  
  <!-- Port 1 Structure -->
  <g id="port1">
    <text x="550" y="70" class="subtitle" fill="#0066cc">Port 1 (P1.0 - P1.7)</text>
    
    <!-- Port 1 Block -->
    <rect x="450" y="90" width="200" height="80" class="port-block"/>
    <text x="550" y="115" class="label" fill="#333">Port 1 - General Purpose I/O</text>
    <text x="550" y="135" class="small-label" fill="#333">• 8-bit bidirectional I/O</text>
    <text x="550" y="150" class="small-label" fill="#333">• Internal pull-up resistors</text>
    <text x="550" y="165" class="small-label" fill="#333">• Can source 4 TTL loads</text>
    
    <!-- Pin Configuration -->
    <rect x="460" y="180" width="30" height="20" class="pin-block"/>
    <text x="475" y="195" class="small-label" fill="#333">P1.0</text>
    
    <rect x="500" y="180" width="30" height="20" class="pin-block"/>
    <text x="515" y="195" class="small-label" fill="#333">P1.1</text>
    
    <rect x="540" y="180" width="30" height="20" class="pin-block"/>
    <text x="555" y="195" class="small-label" fill="#333">P1.2</text>
    
    <rect x="580" y="180" width="30" height="20" class="pin-block"/>
    <text x="595" y="195" class="small-label" fill="#333">P1.3</text>
    
    <rect x="620" y="180" width="30" height="20" class="pin-block"/>
    <text x="635" y="195" class="small-label" fill="#333">P1.7</text>
  </g>
  
  <!-- Port 2 Structure -->
  <g id="port2">
    <text x="150" y="260" class="subtitle" fill="#0066cc">Port 2 (P2.0 - P2.7)</text>
    
    <!-- Port 2 Block -->
    <rect x="50" y="280" width="200" height="80" class="port-block"/>
    <text x="150" y="305" class="label" fill="#333">Port 2 - Dual Purpose</text>
    <text x="150" y="325" class="small-label" fill="#333">• Higher 8-bit Address (A8-A15)</text>
    <text x="150" y="340" class="small-label" fill="#333">• General purpose I/O</text>
    <text x="150" y="355" class="small-label" fill="#333">• Internal pull-up resistors</text>
    
    <!-- Pin Configuration -->
    <rect x="60" y="370" width="30" height="20" class="pin-block"/>
    <text x="75" y="385" class="small-label" fill="#333">P2.0</text>
    
    <rect x="100" y="370" width="30" height="20" class="pin-block"/>
    <text x="115" y="385" class="small-label" fill="#333">P2.1</text>
    
    <rect x="140" y="370" width="30" height="20" class="pin-block"/>
    <text x="155" y="385" class="small-label" fill="#333">P2.2</text>
    
    <rect x="180" y="370" width="30" height="20" class="pin-block"/>
    <text x="195" y="385" class="small-label" fill="#333">P2.3</text>
    
    <rect x="220" y="370" width="30" height="20" class="pin-block"/>
    <text x="235" y="385" class="small-label" fill="#333">P2.7</text>
  </g>
  
  <!-- Port 3 Structure -->
  <g id="port3">
    <text x="550" y="260" class="subtitle" fill="#0066cc">Port 3 (P3.0 - P3.7)</text>
    
    <!-- Port 3 Block -->
    <rect x="450" y="280" width="200" height="80" class="port-block"/>
    <text x="550" y="305" class="label" fill="#333">Port 3 - Special Functions</text>
    <text x="550" y="325" class="small-label" fill="#333">• Dual purpose I/O</text>
    <text x="550" y="340" class="small-label" fill="#333">• Special function pins</text>
    <text x="550" y="355" class="small-label" fill="#333">• Internal pull-up resistors</text>
    
    <!-- Special Functions -->
    <rect x="450" y="400" width="200" height="120" class="function-block"/>
    <text x="550" y="420" class="label" fill="#333">Port 3 Special Functions:</text>
    <text x="550" y="440" class="small-label" fill="#333">P3.0 (RXD) - Serial Input</text>
    <text x="550" y="455" class="small-label" fill="#333">P3.1 (TXD) - Serial Output</text>
    <text x="550" y="470" class="small-label" fill="#333">P3.2 (INT0) - External Interrupt 0</text>
    <text x="550" y="485" class="small-label" fill="#333">P3.3 (INT1) - External Interrupt 1</text>
    <text x="550" y="500" class="small-label" fill="#333">P3.4 (T0) - Timer 0 External Input</text>
    <text x="550" y="515" class="small-label" fill="#333">P3.5 (T1) - Timer 1 External Input</text>
  </g>
  
  <!-- Port Read/Write Operations -->
  <g id="port-operations">
    <text x="150" y="440" class="subtitle" fill="#009900">Port Operations</text>
    
    <!-- Read Operation -->
    <rect x="50" y="460" width="120" height="40" class="function-block"/>
    <text x="110" y="475" class="label" fill="#333">Port Read</text>
    <text x="110" y="490" class="small-label" fill="#333">Read pin status</text>
    
    <!-- Write Operation -->
    <rect x="180" y="460" width="120" height="40" class="function-block"/>
    <text x="240" y="475" class="label" fill="#333">Port Write</text>
    <text x="240" y="490" class="small-label" fill="#333">Write to latch</text>
    
    <!-- Read-Modify-Write -->
    <rect x="50" y="510" width="120" height="40" class="function-block"/>
    <text x="110" y="525" class="label" fill="#333">R-M-W</text>
    <text x="110" y="540" class="small-label" fill="#333">Read latch value</text>
    
    <!-- Port Configuration -->
    <rect x="180" y="510" width="120" height="40" class="function-block"/>
    <text x="240" y="525" class="label" fill="#333">Configuration</text>
    <text x="240" y="540" class="small-label" fill="#333">Set as input/output</text>
  </g>
  
  <!-- Port Electrical Characteristics -->
  <g id="electrical">
    <text x="400" y="440" class="subtitle" fill="#cc6600">Electrical Characteristics</text>
    
    <rect x="320" y="460" width="160" height="100" class="pin-block"/>
    <text x="400" y="480" class="label" fill="#333">Port Specifications:</text>
    <text x="400" y="500" class="small-label" fill="#333">• VCC: 5V ± 10%</text>
    <text x="400" y="515" class="small-label" fill="#333">• VOH: 2.4V min (high output)</text>
    <text x="400" y="530" class="small-label" fill="#333">• VOL: 0.45V max (low output)</text>
    <text x="400" y="545" class="small-label" fill="#333">• IIL: -50µA max (input low)</text>
  </g>
</svg>
