<?xml version="1.0" encoding="UTF-8"?>
<svg width="800" height="600" viewBox="0 0 800 600" xmlns="http://www.w3.org/2000/svg">
  <defs>
    <style>
      .title { font-family: Arial, sans-serif; font-size: 24px; font-weight: bold; text-anchor: middle; }
      .subtitle { font-family: Arial, sans-serif; font-size: 16px; font-weight: bold; text-anchor: middle; }
      .label { font-family: Arial, sans-serif; font-size: 12px; text-anchor: middle; }
      .small-label { font-family: Arial, sans-serif; font-size: 10px; text-anchor: middle; }
      .decoder-block { fill: #e6f3ff; stroke: #0066cc; stroke-width: 2; }
      .address-block { fill: #fff2e6; stroke: #cc6600; stroke-width: 1; }
      .output-block { fill: #e6ffe6; stroke: #009900; stroke-width: 1; }
      .data-flow { stroke: #009900; stroke-width: 2; fill: none; marker-end: url(#arrowhead); }
      .address-line { stroke: #cc6600; stroke-width: 1.5; fill: none; }
    </style>
    <marker id="arrowhead" markerWidth="10" markerHeight="7" refX="9" refY="3.5" orient="auto">
      <polygon points="0 0, 10 3.5, 0 7" fill="#009900"/>
    </marker>
  </defs>
  
  <!-- Title -->
  <text x="400" y="30" class="title" fill="#333">Address Decoding Circuits</text>
  
  <!-- 3-to-8 Decoder (74LS138) -->
  <g id="decoder-3to8">
    <text x="200" y="70" class="subtitle" fill="#0066cc">3-to-8 Decoder (74LS138)</text>
    
    <!-- Decoder IC -->
    <rect x="120" y="90" width="160" height="120" class="decoder-block"/>
    <text x="200" y="115" class="label" fill="#333">74LS138</text>
    <text x="200" y="130" class="small-label" fill="#333">3-to-8 Line Decoder</text>
    
    <!-- Input pins -->
    <rect x="80" y="140" width="40" height="15" class="address-block"/>
    <text x="100" y="152" class="small-label" fill="#333">A0</text>
    
    <rect x="80" y="160" width="40" height="15" class="address-block"/>
    <text x="100" y="172" class="small-label" fill="#333">A1</text>
    
    <rect x="80" y="180" width="40" height="15" class="address-block"/>
    <text x="100" y="192" class="small-label" fill="#333">A2</text>
    
    <!-- Enable pins -->
    <rect x="80" y="120" width="40" height="15" class="output-block"/>
    <text x="100" y="132" class="small-label" fill="#333">G1</text>
    
    <rect x="200" y="90" width="40" height="15" class="output-block"/>
    <text x="220" y="102" class="small-label" fill="#333">G2A</text>
    
    <rect x="240" y="90" width="40" height="15" class="output-block"/>
    <text x="260" y="102" class="small-label" fill="#333">G2B</text>
    
    <!-- Output pins -->
    <rect x="280" y="120" width="40" height="15" class="output-block"/>
    <text x="300" y="132" class="small-label" fill="#333">Y0</text>
    
    <rect x="280" y="140" width="40" height="15" class="output-block"/>
    <text x="300" y="152" class="small-label" fill="#333">Y1</text>
    
    <rect x="280" y="160" width="40" height="15" class="output-block"/>
    <text x="300" y="172" class="small-label" fill="#333">Y2</text>
    
    <rect x="280" y="180" width="40" height="15" class="output-block"/>
    <text x="300" y="192" class="small-label" fill="#333">Y3</text>
    
    <!-- Connection lines -->
    <line x1="120" y1="147" x2="120" y2="147" class="address-line"/>
    <line x1="120" y1="167" x2="120" y2="167" class="address-line"/>
    <line x1="120" y1="187" x2="120" y2="187" class="address-line"/>
    
    <!-- Truth table -->
    <rect x="50" y="230" width="280" height="80" class="address-block"/>
    <text x="190" y="250" class="label" fill="#333">Truth Table (when enabled)</text>
    <text x="80" y="270" class="small-label" fill="#333">A2 A1 A0 | Output</text>
    <text x="80" y="285" class="small-label" fill="#333">0  0  0  | Y0 = 0</text>
    <text x="80" y="300" class="small-label" fill="#333">0  0  1  | Y1 = 0</text>
    
    <text x="180" y="285" class="small-label" fill="#333">0  1  0  | Y2 = 0</text>
    <text x="180" y="300" class="small-label" fill="#333">0  1  1  | Y3 = 0</text>
    
    <text x="280" y="285" class="small-label" fill="#333">1  0  0  | Y4 = 0</text>
    <text x="280" y="300" class="small-label" fill="#333">All others high</text>
  </g>
  
  <!-- Memory Address Decoding Example -->
  <g id="memory-decoding">
    <text x="600" y="70" class="subtitle" fill="#0066cc">Memory Address Decoding</text>
    
    <!-- Memory Map -->
    <rect x="520" y="90" width="160" height="160" class="decoder-block"/>
    <text x="600" y="115" class="label" fill="#333">Memory Map Example</text>
    
    <!-- Memory blocks -->
    <rect x="540" y="130" width="120" height="20" class="output-block"/>
    <text x="600" y="145" class="small-label" fill="#333">ROM: 0000H-1FFFH</text>
    
    <rect x="540" y="155" width="120" height="20" class="address-block"/>
    <text x="600" y="170" class="small-label" fill="#333">RAM: 2000H-3FFFH</text>
    
    <rect x="540" y="180" width="120" height="20" class="output-block"/>
    <text x="600" y="195" class="small-label" fill="#333">I/O: 4000H-5FFFH</text>
    
    <rect x="540" y="205" width="120" height="20" class="address-block"/>
    <text x="600" y="220" class="small-label" fill="#333">Unused: 6000H-7FFFH</text>
    
    <!-- Address bits -->
    <text x="600" y="240" class="small-label" fill="#333">A15 A14 A13 decode to:</text>
  </g>
  
  <!-- Partial Address Decoding -->
  <g id="partial-decoding">
    <text x="200" y="340" class="subtitle" fill="#0066cc">Partial Address Decoding</text>
    
    <!-- Circuit diagram -->
    <rect x="50" y="360" width="300" height="120" class="decoder-block"/>
    <text x="200" y="385" class="label" fill="#333">Simple Decoding Circuit</text>
    
    <!-- Address lines -->
    <rect x="60" y="400" width="60" height="15" class="address-block"/>
    <text x="90" y="412" class="small-label" fill="#333">A15-A12</text>
    
    <!-- Logic gates -->
    <rect x="140" y="400" width="80" height="30" class="output-block"/>
    <text x="180" y="420" class="small-label" fill="#333">NAND Gate</text>
    
    <!-- Chip select -->
    <rect x="240" y="400" width="80" height="30" class="output-block"/>
    <text x="280" y="420" class="small-label" fill="#333">CS (Chip Select)</text>
    
    <!-- Connection -->
    <path d="M 120 407 L 140 415" class="data-flow"/>
    <path d="M 220 415 L 240 415" class="data-flow"/>
    
    <!-- Advantages/Disadvantages -->
    <rect x="60" y="450" width="130" height="50" class="output-block"/>
    <text x="125" y="470" class="small-label" fill="#333">Advantages:</text>
    <text x="125" y="485" class="small-label" fill="#333">• Simple circuit</text>
    <text x="125" y="495" class="small-label" fill="#333">• Low cost</text>
    
    <rect x="200" y="450" width="130" height="50" class="address-block"/>
    <text x="265" y="470" class="small-label" fill="#333">Disadvantages:</text>
    <text x="265" y="485" class="small-label" fill="#333">• Address folding</text>
    <text x="265" y="495" class="small-label" fill="#333">• Multiple locations</text>
  </g>
  
  <!-- Full Address Decoding -->
  <g id="full-decoding">
    <text x="600" y="340" class="subtitle" fill="#0066cc">Full Address Decoding</text>
    
    <!-- Circuit -->
    <rect x="450" y="360" width="300" height="120" class="decoder-block"/>
    <text x="600" y="385" class="label" fill="#333">Complete Decoding Circuit</text>
    
    <!-- All address lines -->
    <rect x="460" y="400" width="80" height="15" class="address-block"/>
    <text x="500" y="412" class="small-label" fill="#333">A15-A0 (All)</text>
    
    <!-- Decoder IC -->
    <rect x="560" y="400" width="80" height="30" class="output-block"/>
    <text x="600" y="420" class="small-label" fill="#333">Address Decoder</text>
    
    <!-- Unique select -->
    <rect x="660" y="400" width="80" height="30" class="output-block"/>
    <text x="700" y="420" class="small-label" fill="#333">Unique CS</text>
    
    <!-- Connections -->
    <path d="M 540 407 L 560 415" class="data-flow"/>
    <path d="M 640 415 L 660 415" class="data-flow"/>
    
    <!-- Benefits -->
    <rect x="460" y="450" width="270" height="50" class="output-block"/>
    <text x="595" y="470" class="small-label" fill="#333">Benefits: No address folding, unique memory locations</text>
    <text x="595" y="485" class="small-label" fill="#333">Drawback: More complex circuit, higher cost</text>
  </g>
  
  <!-- I/O Address Decoding -->
  <g id="io-decoding">
    <text x="200" y="520" class="subtitle" fill="#009900">I/O Port Address Decoding</text>
    
    <rect x="50" y="540" width="300" height="50" class="address-block"/>
    <text x="200" y="560" class="label" fill="#333">8085 I/O Decoding</text>
    <text x="200" y="575" class="small-label" fill="#333">Uses IO/M signal + A7-A0 for port selection</text>
    
    <!-- Port addresses -->
    <rect x="400" y="540" width="200" height="50" class="output-block"/>
    <text x="500" y="560" class="label" fill="#333">Example Port Addresses</text>
    <text x="500" y="575" class="small-label" fill="#333">Port 00H, 01H, 02H, 03H</text>
  </g>
</svg>
