<?xml version="1.0" encoding="UTF-8"?>
<svg width="800" height="600" viewBox="0 0 800 600" xmlns="http://www.w3.org/2000/svg">
  <defs>
    <style>
      .title { font-family: Arial, sans-serif; font-size: 24px; font-weight: bold; text-anchor: middle; }
      .subtitle { font-family: Arial, sans-serif; font-size: 16px; font-weight: bold; text-anchor: middle; }
      .label { font-family: Arial, sans-serif; font-size: 12px; text-anchor: middle; }
      .small-label { font-family: Arial, sans-serif; font-size: 10px; text-anchor: middle; }
      .display-block { fill: #e6f3ff; stroke: #0066cc; stroke-width: 2; }
      .digit-block { fill: #fff2e6; stroke: #cc6600; stroke-width: 1; }
      .decoder-block { fill: #e6ffe6; stroke: #009900; stroke-width: 1; }
      .connection { stroke: #333; stroke-width: 1.5; fill: none; }
      .data-flow { stroke: #009900; stroke-width: 2; fill: none; marker-end: url(#arrowhead); }
    </style>
    <marker id="arrowhead" markerWidth="10" markerHeight="7" refX="9" refY="3.5" orient="auto">
      <polygon points="0 0, 10 3.5, 0 7" fill="#009900"/>
    </marker>
  </defs>
  
  <!-- Title -->
  <text x="400" y="30" class="title" fill="#333">Seven Segment Display Interface</text>
  
  <!-- 8085 Microprocessor -->
  <g id="microprocessor">
    <rect x="50" y="80" width="150" height="100" class="display-block"/>
    <text x="125" y="110" class="subtitle" fill="#333">8085</text>
    <text x="125" y="130" class="label" fill="#333">Microprocessor</text>
    
    <!-- Output ports -->
    <rect x="70" y="150" width="40" height="20" class="digit-block"/>
    <text x="90" y="165" class="small-label" fill="#333">Port A</text>
    
    <rect x="120" y="150" width="40" height="20" class="digit-block"/>
    <text x="140" y="165" class="small-label" fill="#333">Port B</text>
  </g>
  
  <!-- BCD to 7-Segment Decoder -->
  <g id="decoder">
    <rect x="250" y="80" width="150" height="100" class="decoder-block"/>
    <text x="325" y="110" class="subtitle" fill="#333">7447/7448</text>
    <text x="325" y="130" class="label" fill="#333">BCD to 7-Segment</text>
    <text x="325" y="145" class="label" fill="#333">Decoder</text>
    
    <!-- Input/Output -->
    <rect x="220" y="120" width="30" height="40" class="digit-block"/>
    <text x="235" y="145" class="small-label" fill="#333">BCD</text>
    
    <rect x="400" y="120" width="30" height="40" class="digit-block"/>
    <text x="415" y="145" class="small-label" fill="#333">7-Seg</text>
  </g>
  
  <!-- Seven Segment Displays -->
  <g id="displays">
    <!-- Display 1 -->
    <g id="display1">
      <rect x="500" y="80" width="80" height="100" class="display-block"/>
      <text x="540" y="105" class="label" fill="#333">Display 1</text>
      
      <!-- 7-segment pattern -->
      <rect x="520" y="115" width="40" height="5" class="digit-block"/>  <!-- a -->
      <rect x="555" y="120" width="5" height="20" class="digit-block"/>  <!-- b -->
      <rect x="555" y="145" width="5" height="20" class="digit-block"/>  <!-- c -->
      <rect x="520" y="165" width="40" height="5" class="digit-block"/>  <!-- d -->
      <rect x="515" y="145" width="5" height="20" class="digit-block"/>  <!-- e -->
      <rect x="515" y="120" width="5" height="20" class="digit-block"/>  <!-- f -->
      <rect x="520" y="140" width="40" height="5" class="digit-block"/>  <!-- g -->
    </g>
    
    <!-- Display 2 -->
    <g id="display2">
      <rect x="620" y="80" width="80" height="100" class="display-block"/>
      <text x="660" y="105" class="label" fill="#333">Display 2</text>
      
      <!-- 7-segment pattern -->
      <rect x="640" y="115" width="40" height="5" class="digit-block"/>  <!-- a -->
      <rect x="675" y="120" width="5" height="20" class="digit-block"/>  <!-- b -->
      <rect x="675" y="145" width="5" height="20" class="digit-block"/>  <!-- c -->
      <rect x="640" y="165" width="40" height="5" class="digit-block"/>  <!-- d -->
      <rect x="635" y="145" width="5" height="20" class="digit-block"/>  <!-- e -->
      <rect x="635" y="120" width="5" height="20" class="digit-block"/>  <!-- f -->
      <rect x="640" y="140" width="40" height="5" class="digit-block"/>  <!-- g -->
    </g>
  </g>
  
  <!-- Connections -->
  <g id="connections">
    <!-- 8085 to Decoder -->
    <path d="M 200 130 L 250 130" class="data-flow"/>
    <text x="225" y="125" class="small-label" fill="#009900">BCD Data</text>
    
    <!-- Decoder to Displays -->
    <path d="M 400 130 L 500 130" class="data-flow"/>
    <path d="M 500 130 L 620 130" class="connection"/>
    <text x="510" y="125" class="small-label" fill="#009900">a,b,c,d,e,f,g</text>
  </g>
  
  <!-- Segment Encoding -->
  <g id="encoding">
    <text x="200" y="220" class="subtitle" fill="#0066cc">BCD to 7-Segment Encoding</text>
    
    <rect x="50" y="240" width="300" height="150" class="decoder-block"/>
    <text x="200" y="265" class="label" fill="#333">Truth Table</text>
    
    <!-- Truth table headers -->
    <text x="80" y="285" class="small-label" fill="#333">BCD Input</text>
    <text x="150" y="285" class="small-label" fill="#333">Hex Code</text>
    <text x="220" y="285" class="small-label" fill="#333">Display</text>
    <text x="280" y="285" class="small-label" fill="#333">Segments</text>
    
    <!-- Sample entries -->
    <text x="80" y="305" class="small-label" fill="#333">0000</text>
    <text x="150" y="305" class="small-label" fill="#333">3F</text>
    <text x="220" y="305" class="small-label" fill="#333">0</text>
    <text x="280" y="305" class="small-label" fill="#333">abcdef</text>
    
    <text x="80" y="320" class="small-label" fill="#333">0001</text>
    <text x="150" y="320" class="small-label" fill="#333">06</text>
    <text x="220" y="320" class="small-label" fill="#333">1</text>
    <text x="280" y="320" class="small-label" fill="#333">bc</text>
    
    <text x="80" y="335" class="small-label" fill="#333">0010</text>
    <text x="150" y="335" class="small-label" fill="#333">5B</text>
    <text x="220" y="335" class="small-label" fill="#333">2</text>
    <text x="280" y="335" class="small-label" fill="#333">abged</text>
    
    <text x="80" y="350" class="small-label" fill="#333">0011</text>
    <text x="150" y="350" class="small-label" fill="#333">4F</text>
    <text x="220" y="350" class="small-label" fill="#333">3</text>
    <text x="280" y="350" class="small-label" fill="#333">abgcd</text>
    
    <text x="80" y="365" class="small-label" fill="#333">1001</text>
    <text x="150" y="365" class="small-label" fill="#333">6F</text>
    <text x="220" y="365" class="small-label" fill="#333">9</text>
    <text x="280" y="365" class="small-label" fill="#333">abgcdf</text>
  </g>
  
  <!-- Multiplexed Display -->
  <g id="multiplexed">
    <text x="550" y="220" class="subtitle" fill="#0066cc">Multiplexed Display System</text>
    
    <rect x="400" y="240" width="300" height="150" class="display-block"/>
    <text x="550" y="265" class="label" fill="#333">Time Division Multiplexing</text>
    
    <!-- Digit select -->
    <rect x="420" y="285" width="80" height="30" class="digit-block"/>
    <text x="460" y="305" class="small-label" fill="#333">Digit Select</text>
    <text x="460" y="320" class="small-label" fill="#333">(Common Anode)</text>
    
    <!-- Segment drive -->
    <rect x="520" y="285" width="80" height="30" class="digit-block"/>
    <text x="560" y="305" class="small-label" fill="#333">Segment Drive</text>
    <text x="560" y="320" class="small-label" fill="#333">(7-bit pattern)</text>
    
    <!-- Timing -->
    <rect x="620" y="285" width="60" height="30" class="decoder-block"/>
    <text x="650" y="305" class="small-label" fill="#333">Timer</text>
    <text x="650" y="320" class="small-label" fill="#333">Control</text>
    
    <!-- Advantages -->
    <text x="550" y="345" class="label" fill="#333">Advantages:</text>
    <text x="550" y="360" class="small-label" fill="#333">• Reduced I/O pins</text>
    <text x="550" y="375" class="small-label" fill="#333">• Lower current consumption</text>
  </g>
  
  <!-- Programming Example -->
  <g id="programming">
    <text x="200" y="420" class="subtitle" fill="#009900">Programming Example</text>
    
    <rect x="50" y="440" width="300" height="140" class="decoder-block"/>
    <text x="200" y="465" class="label" fill="#333">Display Number 25 on 2-digit display</text>
    
    <!-- Code -->
    <text x="200" y="485" class="small-label" fill="#333">MVI A, 02H      ; Tens digit = 2</text>
    <text x="200" y="500" class="small-label" fill="#333">OUT PORT_A      ; Send to decoder</text>
    <text x="200" y="515" class="small-label" fill="#333">CALL DELAY      ; Wait</text>
    <text x="200" y="530" class="small-label" fill="#333">MVI A, 05H      ; Units digit = 5</text>
    <text x="200" y="545" class="small-label" fill="#333">OUT PORT_B      ; Send to decoder</text>
    <text x="200" y="560" class="small-label" fill="#333">CALL DELAY      ; Wait</text>
    <text x="200" y="575" class="small-label" fill="#333">JMP LOOP        ; Repeat</text>
  </g>
  
  <!-- Hardware Connections -->
  <g id="hardware">
    <text x="550" y="420" class="subtitle" fill="#009900">Hardware Connections</text>
    
    <rect x="400" y="440" width="300" height="140" class="display-block"/>
    <text x="550" y="465" class="label" fill="#333">Circuit Requirements</text>
    
    <!-- Components -->
    <text x="550" y="485" class="small-label" fill="#333">• 7447/7448 BCD to 7-segment decoder</text>
    <text x="550" y="500" class="small-label" fill="#333">• Common cathode 7-segment displays</text>
    <text x="550" y="515" class="small-label" fill="#333">• Current limiting resistors (330Ω)</text>
    <text x="550" y="530" class="small-label" fill="#333">• Pull-up resistors on decoder inputs</text>
    <text x="550" y="545" class="small-label" fill="#333">• 8255 PPI for I/O expansion</text>
    <text x="550" y="560" class="small-label" fill="#333">• Power supply (5V DC)</text>
  </g>
</svg>
