<?xml version="1.0" encoding="UTF-8"?>
<svg width="800" height="600" viewBox="0 0 800 600" xmlns="http://www.w3.org/2000/svg">
  <defs>
    <style>
      .title { font-family: Arial, sans-serif; font-size: 24px; font-weight: bold; text-anchor: middle; }
      .subtitle { font-family: Arial, sans-serif; font-size: 16px; font-weight: bold; text-anchor: middle; }
      .label { font-family: Arial, sans-serif; font-size: 12px; text-anchor: middle; }
      .small-label { font-family: Arial, sans-serif; font-size: 10px; text-anchor: middle; }
      .interface-block { fill: #e6f3ff; stroke: #0066cc; stroke-width: 2; }
      .keyboard-block { fill: #fff2e6; stroke: #cc6600; stroke-width: 1; }
      .scanner-block { fill: #e6ffe6; stroke: #009900; stroke-width: 1; }
      .data-flow { stroke: #009900; stroke-width: 2; fill: none; marker-end: url(#arrowhead); }
      .scan-line { stroke: #cc6600; stroke-width: 1.5; fill: none; }
    </style>
    <marker id="arrowhead" markerWidth="10" markerHeight="7" refX="9" refY="3.5" orient="auto">
      <polygon points="0 0, 10 3.5, 0 7" fill="#009900"/>
    </marker>
  </defs>
  
  <!-- Title -->
  <text x="400" y="30" class="title" fill="#333">Matrix Keyboard Interface</text>
  
  <!-- 8085 Microprocessor -->
  <g id="microprocessor">
    <rect x="50" y="80" width="150" height="120" class="interface-block"/>
    <text x="125" y="110" class="subtitle" fill="#333">8085</text>
    <text x="125" y="130" class="label" fill="#333">Microprocessor</text>
    
    <!-- Output port for rows -->
    <rect x="70" y="150" width="50" height="20" class="keyboard-block"/>
    <text x="95" y="165" class="small-label" fill="#333">Row Out</text>
    
    <!-- Input port for columns -->
    <rect x="130" y="150" width="50" height="20" class="keyboard-block"/>
    <text x="155" y="165" class="small-label" fill="#333">Col In</text>
    
    <!-- I/O interface -->
    <rect x="70" y="175" width="110" height="20" class="scanner-block"/>
    <text x="125" y="190" class="small-label" fill="#333">8255 PPI Interface</text>
  </g>
  
  <!-- Matrix Keyboard -->
  <g id="matrix-keyboard">
    <text x="450" y="70" class="subtitle" fill="#0066cc">4×4 Matrix Keyboard</text>
    
    <!-- Keyboard matrix -->
    <rect x="350" y="90" width="200" height="160" class="keyboard-block"/>
    
    <!-- Row labels -->
    <text x="330" y="120" class="small-label" fill="#333">R0</text>
    <text x="330" y="150" class="small-label" fill="#333">R1</text>
    <text x="330" y="180" class="small-label" fill="#333">R2</text>
    <text x="330" y="210" class="small-label" fill="#333">R3</text>
    
    <!-- Column labels -->
    <text x="380" y="80" class="small-label" fill="#333">C0</text>
    <text x="420" y="80" class="small-label" fill="#333">C1</text>
    <text x="460" y="80" class="small-label" fill="#333">C2</text>
    <text x="500" y="80" class="small-label" fill="#333">C3</text>
    
    <!-- Key positions -->
    <!-- Row 0 -->
    <rect x="370" y="110" width="20" height="20" class="interface-block"/>
    <text x="380" y="125" class="small-label" fill="#333">0</text>
    
    <rect x="410" y="110" width="20" height="20" class="interface-block"/>
    <text x="420" y="125" class="small-label" fill="#333">1</text>
    
    <rect x="450" y="110" width="20" height="20" class="interface-block"/>
    <text x="460" y="125" class="small-label" fill="#333">2</text>
    
    <rect x="490" y="110" width="20" height="20" class="interface-block"/>
    <text x="500" y="125" class="small-label" fill="#333">3</text>
    
    <!-- Row 1 -->
    <rect x="370" y="140" width="20" height="20" class="interface-block"/>
    <text x="380" y="155" class="small-label" fill="#333">4</text>
    
    <rect x="410" y="140" width="20" height="20" class="interface-block"/>
    <text x="420" y="155" class="small-label" fill="#333">5</text>
    
    <rect x="450" y="140" width="20" height="20" class="interface-block"/>
    <text x="460" y="155" class="small-label" fill="#333">6</text>
    
    <rect x="490" y="140" width="20" height="20" class="interface-block"/>
    <text x="500" y="155" class="small-label" fill="#333">7</text>
    
    <!-- Row 2 -->
    <rect x="370" y="170" width="20" height="20" class="interface-block"/>
    <text x="380" y="185" class="small-label" fill="#333">8</text>
    
    <rect x="410" y="170" width="20" height="20" class="interface-block"/>
    <text x="420" y="185" class="small-label" fill="#333">9</text>
    
    <rect x="450" y="170" width="20" height="20" class="interface-block"/>
    <text x="460" y="185" class="small-label" fill="#333">A</text>
    
    <rect x="490" y="170" width="20" height="20" class="interface-block"/>
    <text x="500" y="185" class="small-label" fill="#333">B</text>
    
    <!-- Row 3 -->
    <rect x="370" y="200" width="20" height="20" class="interface-block"/>
    <text x="380" y="215" class="small-label" fill="#333">C</text>
    
    <rect x="410" y="200" width="20" height="20" class="interface-block"/>
    <text x="420" y="215" class="small-label" fill="#333">D</text>
    
    <rect x="450" y="200" width="20" height="20" class="interface-block"/>
    <text x="460" y="215" class="small-label" fill="#333">E</text>
    
    <rect x="490" y="200" width="20" height="20" class="interface-block"/>
    <text x="500" y="215" class="small-label" fill="#333">F</text>
    
    <!-- Row lines -->
    <line x1="350" y1="120" x2="370" y2="120" class="scan-line"/>
    <line x1="350" y1="150" x2="370" y2="150" class="scan-line"/>
    <line x1="350" y1="180" x2="370" y2="180" class="scan-line"/>
    <line x1="350" y1="210" x2="370" y2="210" class="scan-line"/>
    
    <!-- Column lines -->
    <line x1="380" y1="90" x2="380" y2="110" class="scan-line"/>
    <line x1="420" y1="90" x2="420" y2="110" class="scan-line"/>
    <line x1="460" y1="90" x2="460" y2="110" class="scan-line"/>
    <line x1="500" y1="90" x2="500" y2="110" class="scan-line"/>
  </g>
  
  <!-- Connections -->
  <g id="connections">
    <!-- Row connections -->
    <path d="M 200 140 L 350 120" class="data-flow"/>
    <path d="M 200 150 L 350 150" class="data-flow"/>
    <path d="M 200 160 L 350 180" class="data-flow"/>
    <path d="M 200 170 L 350 210" class="data-flow"/>
    
    <!-- Column connections -->
    <path d="M 380 90 L 250 130" class="data-flow"/>
    <path d="M 420 90 L 260 140" class="data-flow"/>
    <path d="M 460 90 L 270 150" class="data-flow"/>
    <path d="M 500 90 L 280 160" class="data-flow"/>
    
    <text x="275" y="115" class="small-label" fill="#009900">Row Scan</text>
    <text x="320" y="70" class="small-label" fill="#009900">Column Read</text>
  </g>
  
  <!-- Scanning Algorithm -->
  <g id="scanning">
    <text x="150" y="280" class="subtitle" fill="#0066cc">Key Scanning Algorithm</text>
    
    <rect x="50" y="300" width="300" height="160" class="scanner-block"/>
    <text x="200" y="325" class="label" fill="#333">Sequential Row Scanning</text>
    
    <!-- Algorithm steps -->
    <text x="200" y="345" class="small-label" fill="#333">1. Initialize all rows to HIGH (1)</text>
    <text x="200" y="360" class="small-label" fill="#333">2. Make first row LOW (0)</text>
    <text x="200" y="375" class="small-label" fill="#333">3. Read column inputs</text>
    <text x="200" y="390" class="small-label" fill="#333">4. If any column is LOW, key pressed</text>
    <text x="200" y="405" class="small-label" fill="#333">5. Determine key from row-column</text>
    <text x="200" y="420" class="small-label" fill="#333">6. Move to next row and repeat</text>
    <text x="200" y="435" class="small-label" fill="#333">7. Complete scan of all rows</text>
    <text x="200" y="450" class="small-label" fill="#333">8. Repeat entire process</text>
  </g>
  
  <!-- Key Decoding -->
  <g id="decoding">
    <text x="550" y="280" class="subtitle" fill="#0066cc">Key Decoding Table</text>
    
    <rect x="400" y="300" width="300" height="160" class="keyboard-block"/>
    <text x="550" y="325" class="label" fill="#333">Row-Column to Key Mapping</text>
    
    <!-- Table headers -->
    <text x="430" y="345" class="small-label" fill="#333">Row</text>
    <text x="470" y="345" class="small-label" fill="#333">Column</text>
    <text x="520" y="345" class="small-label" fill="#333">Key</text>
    <text x="570" y="345" class="small-label" fill="#333">Binary</text>
    <text x="630" y="345" class="small-label" fill="#333">Hex</text>
    
    <!-- Sample entries -->
    <text x="430" y="365" class="small-label" fill="#333">0</text>
    <text x="470" y="365" class="small-label" fill="#333">0</text>
    <text x="520" y="365" class="small-label" fill="#333">0</text>
    <text x="570" y="365" class="small-label" fill="#333">0000</text>
    <text x="630" y="365" class="small-label" fill="#333">00</text>
    
    <text x="430" y="380" class="small-label" fill="#333">0</text>
    <text x="470" y="380" class="small-label" fill="#333">1</text>
    <text x="520" y="380" class="small-label" fill="#333">1</text>
    <text x="570" y="380" class="small-label" fill="#333">0001</text>
    <text x="630" y="380" class="small-label" fill="#333">01</text>
    
    <text x="430" y="395" class="small-label" fill="#333">1</text>
    <text x="470" y="395" class="small-label" fill="#333">0</text>
    <text x="520" y="395" class="small-label" fill="#333">4</text>
    <text x="570" y="395" class="small-label" fill="#333">0100</text>
    <text x="630" y="395" class="small-label" fill="#333">04</text>
    
    <text x="430" y="410" class="small-label" fill="#333">2</text>
    <text x="470" y="410" class="small-label" fill="#333">2</text>
    <text x="520" y="410" class="small-label" fill="#333">A</text>
    <text x="570" y="410" class="small-label" fill="#333">1010</text>
    <text x="630" y="410" class="small-label" fill="#333">0A</text>
    
    <text x="430" y="425" class="small-label" fill="#333">3</text>
    <text x="470" y="425" class="small-label" fill="#333">3</text>
    <text x="520" y="425" class="small-label" fill="#333">F</text>
    <text x="570" y="425" class="small-label" fill="#333">1111</text>
    <text x="630" y="425" class="small-label" fill="#333">0F</text>
    
    <!-- Formula -->
    <text x="550" y="445" class="small-label" fill="#333">Key Value = (Row × 4) + Column</text>
  </g>
  
  <!-- Programming Example -->
  <g id="programming">
    <text x="200" y="490" class="subtitle" fill="#009900">Programming Example</text>
    
    <rect x="50" y="510" width="300" height="80" class="interface-block"/>
    <text x="200" y="535" class="label" fill="#333">8085 Assembly Code</text>
    
    <!-- Code snippet -->
    <text x="200" y="555" class="small-label" fill="#333">MVI A, 0FEH    ; Row 0 = 0, others = 1</text>
    <text x="200" y="570" class="small-label" fill="#333">OUT PORT_A     ; Send to row pins</text>
    <text x="200" y="585" class="small-label" fill="#333">IN PORT_B      ; Read column pins</text>
  </g>
  
  <!-- Circuit Details -->
  <g id="circuit">
    <text x="550" y="490" class="subtitle" fill="#009900">Circuit Components</text>
    
    <rect x="400" y="510" width="300" height="80" class="scanner-block"/>
    <text x="550" y="535" class="label" fill="#333">Hardware Requirements</text>
    
    <!-- Components -->
    <text x="550" y="555" class="small-label" fill="#333">• Pull-up resistors on column lines (10kΩ)</text>
    <text x="550" y="570" class="small-label" fill="#333">• Debouncing capacitors (0.1µF)</text>
    <text x="550" y="585" class="small-label" fill="#333">• 8255 PPI for I/O interface</text>
  </g>
</svg>
