<?xml version="1.0" encoding="UTF-8"?>
<svg width="800" height="600" viewBox="0 0 800 600" xmlns="http://www.w3.org/2000/svg">
  <defs>
    <style>
      .title { font-family: Arial, sans-serif; font-size: 24px; font-weight: bold; text-anchor: middle; }
      .subtitle { font-family: Arial, sans-serif; font-size: 16px; font-weight: bold; text-anchor: middle; }
      .label { font-family: Arial, sans-serif; font-size: 12px; text-anchor: middle; }
      .small-label { font-family: Arial, sans-serif; font-size: 10px; text-anchor: middle; }
      .adc-block { fill: #e6f3ff; stroke: #0066cc; stroke-width: 2; }
      .analog-block { fill: #fff2e6; stroke: #cc6600; stroke-width: 1; }
      .digital-block { fill: #e6ffe6; stroke: #009900; stroke-width: 1; }
      .control-block { fill: #ffe6e6; stroke: #cc0000; stroke-width: 1; }
      .signal-flow { stroke: #009900; stroke-width: 2; fill: none; marker-end: url(#arrowhead); }
      .analog-signal { stroke: #cc6600; stroke-width: 2; fill: none; }
    </style>
    <marker id="arrowhead" markerWidth="10" markerHeight="7" refX="9" refY="3.5" orient="auto">
      <polygon points="0 0, 10 3.5, 0 7" fill="#009900"/>
    </marker>
  </defs>
  
  <!-- Title -->
  <text x="400" y="30" class="title" fill="#333">ADC (Analog to Digital Converter) Interface</text>
  
  <!-- Analog Input -->
  <g id="analog-input">
    <rect x="50" y="80" width="120" height="80" class="analog-block"/>
    <text x="110" y="110" class="subtitle" fill="#333">Analog Input</text>
    <text x="110" y="130" class="small-label" fill="#333">0V to +5V</text>
    <text x="110" y="145" class="small-label" fill="#333">Continuous Signal</text>
    
    <!-- Analog waveform representation -->
    <path d="M 60 180 Q 80 160 100 180 Q 120 200 140 180 Q 160 160 180 180" class="analog-signal"/>
    <text x="120" y="200" class="small-label" fill="#cc6600">Analog Waveform</text>
  </g>
  
  <!-- ADC 0808/0809 -->
  <g id="adc-main">
    <rect x="250" y="60" width="300" height="180" class="adc-block"/>
    <text x="400" y="90" class="subtitle" fill="#333">ADC 0808/0809</text>
    <text x="400" y="110" class="label" fill="#333">8-bit Analog to Digital Converter</text>
    
    <!-- Internal blocks -->
    <rect x="270" y="130" width="80" height="30" class="analog-block"/>
    <text x="310" y="150" class="small-label" fill="#333">8-Ch Multiplexer</text>
    
    <rect x="370" y="130" width="80" height="30" class="analog-block"/>
    <text x="410" y="150" class="small-label" fill="#333">Sample &amp; Hold</text>
    
    <rect x="470" y="130" width="60" height="30" class="digital-block"/>
    <text x="500" y="150" class="small-label" fill="#333">ADC Core</text>
    
    <rect x="270" y="170" width="100" height="30" class="control-block"/>
    <text x="320" y="190" class="small-label" fill="#333">Control Logic</text>
    
    <rect x="390" y="170" width="100" height="30" class="digital-block"/>
    <text x="440" y="190" class="small-label" fill="#333">Output Latch</text>
    
    <!-- Pin labels -->
    <text x="260" y="120" class="small-label" fill="#333">IN0-IN7</text>
    <text x="320" y="210" class="small-label" fill="#333">ALE, START</text>
    <text x="440" y="210" class="small-label" fill="#333">EOC</text>
    <text x="520" y="120" class="small-label" fill="#333">D7-D0</text>
  </g>
  
  <!-- Microprocessor Interface -->
  <g id="cpu-interface">
    <rect x="600" y="80" width="120" height="80" class="digital-block"/>
    <text x="660" y="110" class="subtitle" fill="#333">8085 CPU</text>
    <text x="660" y="130" class="small-label" fill="#333">Data Bus</text>
    <text x="660" y="145" class="small-label" fill="#333">Control Signals</text>
    
    <!-- Connections -->
    <path d="M 550 150 L 600 120" class="signal-flow"/>
    <text x="575" y="135" class="small-label" fill="#009900">D7-D0</text>
    
    <path d="M 550 185 L 600 150" class="signal-flow"/>
    <text x="575" y="170" class="small-label" fill="#009900">Control</text>
  </g>
  
  <!-- Input connections -->
  <g id="connections">
    <path d="M 170 120 L 250 145" class="analog-signal"/>
    <text x="210" y="135" class="small-label" fill="#cc6600">Analog In</text>
  </g>
  
  <!-- Conversion Process -->
  <g id="conversion-process">
    <text x="200" y="280" class="subtitle" fill="#0066cc">ADC Conversion Process</text>
    
    <!-- Step 1 -->
    <rect x="50" y="300" width="120" height="50" class="control-block"/>
    <text x="110" y="320" class="label" fill="#333">1. Start</text>
    <text x="110" y="335" class="small-label" fill="#333">Send START pulse</text>
    <text x="110" y="345" class="small-label" fill="#333">Select channel</text>
    
    <!-- Step 2 -->
    <rect x="180" y="300" width="120" height="50" class="analog-block"/>
    <text x="240" y="320" class="label" fill="#333">2. Sample</text>
    <text x="240" y="335" class="small-label" fill="#333">Sample &amp; Hold</text>
    <text x="240" y="345" class="small-label" fill="#333">analog input</text>
    
    <!-- Step 3 -->
    <rect x="310" y="300" width="120" height="50" class="adc-block"/>
    <text x="370" y="320" class="label" fill="#333">3. Convert</text>
    <text x="370" y="335" class="small-label" fill="#333">Successive</text>
    <text x="370" y="345" class="small-label" fill="#333">approximation</text>
    
    <!-- Step 4 -->
    <rect x="440" y="300" width="120" height="50" class="digital-block"/>
    <text x="500" y="320" class="label" fill="#333">4. Output</text>
    <text x="500" y="335" class="small-label" fill="#333">EOC = 1</text>
    <text x="500" y="345" class="small-label" fill="#333">Data ready</text>
    
    <!-- Arrows -->
    <path d="M 170 325 L 180 325" class="signal-flow"/>
    <path d="M 300 325 L 310 325" class="signal-flow"/>
    <path d="M 430 325 L 440 325" class="signal-flow"/>
  </g>
  
  <!-- Timing Diagram -->
  <g id="timing">
    <text x="200" y="390" class="subtitle" fill="#0066cc">Conversion Timing</text>
    
    <rect x="50" y="410" width="300" height="100" class="control-block"/>
    <text x="200" y="435" class="label" fill="#333">ADC 0808 Timing Parameters</text>
    
    <!-- Timing specifications -->
    <text x="200" y="455" class="small-label" fill="#333">Conversion Time: 100 μs (typical)</text>
    <text x="200" y="470" class="small-label" fill="#333">Clock Frequency: 640 kHz</text>
    <text x="200" y="485" class="small-label" fill="#333">Resolution: 8 bits (256 levels)</text>
    <text x="200" y="500" class="small-label" fill="#333">Input Range: 0V to Vref (5V)</text>
  </g>
  
  <!-- Programming Interface -->
  <g id="programming">
    <text x="550" y="280" class="subtitle" fill="#0066cc">Programming Interface</text>
    
    <rect x="400" y="300" width="300" height="110" class="digital-block"/>
    <text x="550" y="325" class="label" fill="#333">ADC Control Registers</text>
    
    <!-- Register details -->
    <text x="550" y="345" class="small-label" fill="#333">Channel Select (3 bits): A2, A1, A0</text>
    <text x="550" y="360" class="small-label" fill="#333">START: Pulse to begin conversion</text>
    <text x="550" y="375" class="small-label" fill="#333">EOC: End of Conversion flag</text>
    <text x="550" y="390" class="small-label" fill="#333">OE: Output Enable for data bus</text>
    <text x="550" y="405" class="small-label" fill="#333">ALE: Address Latch Enable</text>
  </g>
  
  <!-- Code Example -->
  <g id="code-example">
    <text x="550" y="440" class="subtitle" fill="#009900">Programming Example</text>
    
    <rect x="400" y="460" width="300" height="120" class="adc-block"/>
    <text x="550" y="485" class="label" fill="#333">8085 Assembly Code</text>
    
    <!-- Sample code -->
    <text x="550" y="505" class="small-label" fill="#333">MVI A, 00H      ; Select channel 0</text>
    <text x="550" y="520" class="small-label" fill="#333">OUT ADDR_PORT   ; Send channel address</text>
    <text x="550" y="535" class="small-label" fill="#333">OUT START_PORT  ; Start conversion</text>
    <text x="550" y="550" class="small-label" fill="#333">WAIT: IN EOC_PORT ; Check EOC flag</text>
    <text x="550" y="565" class="small-label" fill="#333">ANI 01H         ; Test EOC bit</text>
    <text x="550" y="580" class="small-label" fill="#333">JZ WAIT         ; Wait until ready</text>
  </g>
  
  <!-- Applications -->
  <g id="applications">
    <text x="200" y="540" class="subtitle" fill="#009900">Applications</text>
    
    <rect x="50" y="560" width="300" height="35" class="analog-block"/>
    <text x="200" y="580" class="small-label" fill="#333">Temperature sensing, Voltage monitoring, Data acquisition, Process control</text>
  </g>
  
  <!-- Resolution Formula -->
  <g id="resolution">
    <text x="100" y="250" class="subtitle" fill="#cc6600">Resolution</text>
    
    <rect x="50" y="260" width="150" height="15" class="adc-block"/>
    <text x="125" y="272" class="small-label" fill="#333">LSB = Vref / 2^n = 5V / 256 = 19.5mV</text>
  </g>
</svg>
