<?xml version="1.0" encoding="UTF-8"?>
<svg width="800" height="600" viewBox="0 0 800 600" xmlns="http://www.w3.org/2000/svg">
  <title>8085 Instruction Decoding Process</title>
  
  <defs>
    <style>
      .title { font-family: Arial, sans-serif; font-size: 20px; font-weight: bold; text-anchor: middle; }
      .subtitle { font-family: Arial, sans-serif; font-size: 14px; font-weight: bold; text-anchor: middle; }
      .label { font-family: Arial, sans-serif; font-size: 12px; text-anchor: middle; }
      .small-label { font-family: Arial, sans-serif; font-size: 10px; text-anchor: middle; }
      .box { fill: #e6f3ff; stroke: #0066cc; stroke-width: 2; }
      .process-box { fill: #fff2e6; stroke: #ff6600; stroke-width: 2; }
      .decision { fill: #ffe6e6; stroke: #cc0000; stroke-width: 2; }
      .arrow { stroke: #333; stroke-width: 2; marker-end: url(#arrowhead); }
      .data-flow { stroke: #0066cc; stroke-width: 2; stroke-dasharray: 5,5; }
    </style>
    
    <marker id="arrowhead" markerWidth="10" markerHeight="7" 
     refX="9" refY="3.5" orient="auto">
      <polygon points="0 0, 10 3.5, 0 7" fill="#333" />
    </marker>
  </defs>
  
  <!-- Title -->
  <text x="400" y="30" class="title" fill="#333">8085 Instruction Decoding Process</text>
  
  <!-- Instruction Fetch -->
  <g class="fetch-stage">
    <rect x="50" y="70" width="120" height="50" class="box" rx="5"/>
    <text x="110" y="90" class="label" fill="#333">Instruction</text>
    <text x="110" y="105" class="label" fill="#333">Fetch</text>
  </g>
  
  <!-- Instruction Register -->
  <g class="instruction-register">
    <rect x="250" y="70" width="120" height="50" class="box" rx="5"/>
    <text x="310" y="90" class="label" fill="#333">Instruction</text>
    <text x="310" y="105" class="label" fill="#333">Register (IR)</text>
  </g>
  
  <!-- Instruction Decoder -->
  <g class="decoder">
    <rect x="450" y="70" width="120" height="50" class="process-box" rx="5"/>
    <text x="510" y="90" class="label" fill="#333">Instruction</text>
    <text x="510" y="105" class="label" fill="#333">Decoder</text>
  </g>
  
  <!-- Control Unit -->
  <g class="control-unit">
    <rect x="650" y="70" width="120" height="50" class="process-box" rx="5"/>
    <text x="710" y="90" class="label" fill="#333">Control Unit</text>
    <text x="710" y="105" class="label" fill="#333">Logic</text>
  </g>
  
  <!-- Arrows for main flow -->
  <line x1="170" y1="95" x2="250" y2="95" class="arrow"/>
  <line x1="370" y1="95" x2="450" y2="95" class="arrow"/>
  <line x1="570" y1="95" x2="650" y2="95" class="arrow"/>
  
  <!-- Instruction Format Analysis -->
  <g class="format-analysis">
    <rect x="200" y="180" width="400" height="120" class="box" rx="5"/>
    <text x="400" y="200" class="subtitle" fill="#333">Instruction Format Analysis</text>
    
    <!-- 8-bit instruction breakdown -->
    <g class="bit-breakdown">
      <rect x="220" y="220" width="40" height="30" fill="#ffcccc" stroke="#cc0000"/>
      <text x="240" y="240" class="small-label" fill="#333">D7-D6</text>
      <text x="240" y="255" class="small-label" fill="#333">Op Code</text>
      
      <rect x="260" y="220" width="40" height="30" fill="#ccffcc" stroke="#00cc00"/>
      <text x="280" y="240" class="small-label" fill="#333">D5-D3</text>
      <text x="280" y="255" class="small-label" fill="#333">Reg/Mode</text>
      
      <rect x="300" y="220" width="40" height="30" fill="#ccccff" stroke="#0000cc"/>
      <text x="320" y="240" class="small-label" fill="#333">D2-D0</text>
      <text x="320" y="255" class="small-label" fill="#333">Source</text>
      
      <rect x="360" y="220" width="60" height="30" fill="#ffffcc" stroke="#cccc00"/>
      <text x="390" y="240" class="small-label" fill="#333">Data/Addr</text>
      <text x="390" y="255" class="small-label" fill="#333">(if needed)</text>
      
      <rect x="440" y="220" width="60" height="30" fill="#ffccff" stroke="#cc00cc"/>
      <text x="470" y="240" class="small-label" fill="#333">Extended</text>
      <text x="470" y="255" class="small-label" fill="#333">Address</text>
      
      <rect x="520" y="220" width="60" height="30" fill="#ccffff" stroke="#00cccc"/>
      <text x="550" y="240" class="small-label" fill="#333">Flags/</text>
      <text x="550" y="255" class="small-label" fill="#333">Conditions</text>
    </g>
  </g>
  
  <!-- Decoding Stages -->
  <g class="decoding-stages">
    <!-- Opcode Decode -->
    <rect x="50" y="340" width="140" height="60" class="decision" rx="5"/>
    <text x="120" y="360" class="label" fill="#333">Opcode</text>
    <text x="120" y="375" class="label" fill="#333">Decode</text>
    <text x="120" y="390" class="small-label" fill="#333">(Operation Type)</text>
    
    <!-- Addressing Mode -->
    <rect x="220" y="340" width="140" height="60" class="decision" rx="5"/>
    <text x="290" y="360" class="label" fill="#333">Addressing</text>
    <text x="290" y="375" class="label" fill="#333">Mode Decode</text>
    <text x="290" y="390" class="small-label" fill="#333">(How to get data)</text>
    
    <!-- Register Selection -->
    <rect x="390" y="340" width="140" height="60" class="decision" rx="5"/>
    <text x="460" y="360" class="label" fill="#333">Register</text>
    <text x="460" y="375" class="label" fill="#333">Selection</text>
    <text x="460" y="390" class="small-label" fill="#333">(Source/Dest)</text>
    
    <!-- Control Signals -->
    <rect x="560" y="340" width="140" height="60" class="process-box" rx="5"/>
    <text x="630" y="360" class="label" fill="#333">Control Signal</text>
    <text x="630" y="375" class="label" fill="#333">Generation</text>
    <text x="630" y="390" class="small-label" fill="#333">(Enable/Disable)</text>
  </g>
  
  <!-- Arrows from format analysis to decoding -->
  <line x1="280" y1="300" x2="120" y2="340" class="arrow"/>
  <line x1="350" y1="300" x2="290" y2="340" class="arrow"/>
  <line x1="420" y1="300" x2="460" y2="340" class="arrow"/>
  <line x1="520" y1="300" x2="630" y2="340" class="arrow"/>
  
  <!-- Output Signals -->
  <g class="output-signals">
    <text x="400" y="450" class="subtitle" fill="#333">Generated Control Signals</text>
    
    <rect x="50" y="470" width="100" height="40" fill="#e6ffe6" stroke="#00aa00"/>
    <text x="100" y="485" class="small-label" fill="#333">ALU Control</text>
    <text x="100" y="500" class="small-label" fill="#333">Signals</text>
    
    <rect x="170" y="470" width="100" height="40" fill="#e6ffe6" stroke="#00aa00"/>
    <text x="220" y="485" class="small-label" fill="#333">Register</text>
    <text x="220" y="500" class="small-label" fill="#333">Enable</text>
    
    <rect x="290" y="470" width="100" height="40" fill="#e6ffe6" stroke="#00aa00"/>
    <text x="340" y="485" class="small-label" fill="#333">Memory</text>
    <text x="340" y="500" class="small-label" fill="#333">R/W Control</text>
    
    <rect x="410" y="470" width="100" height="40" fill="#e6ffe6" stroke="#00aa00"/>
    <text x="460" y="485" class="small-label" fill="#333">Bus</text>
    <text x="460" y="500" class="small-label" fill="#333">Control</text>
    
    <rect x="530" y="470" width="100" height="40" fill="#e6ffe6" stroke="#00aa00"/>
    <text x="580" y="485" class="small-label" fill="#333">I/O</text>
    <text x="580" y="500" class="small-label" fill="#333">Control</text>
    
    <rect x="650" y="470" width="100" height="40" fill="#e6ffe6" stroke="#00aa00"/>
    <text x="700" y="485" class="small-label" fill="#333">Timing</text>
    <text x="700" y="500" class="small-label" fill="#333">Signals</text>
  </g>
  
  <!-- Arrows to output signals -->
  <line x1="120" y1="400" x2="100" y2="470" class="arrow"/>
  <line x1="290" y1="400" x2="220" y2="470" class="arrow"/>
  <line x1="460" y1="400" x2="340" y2="470" class="arrow"/>
  <line x1="630" y1="400" x2="460" y2="470" class="arrow"/>
  <line x1="630" y1="400" x2="580" y2="470" class="arrow"/>
  <line x1="630" y1="400" x2="700" y2="470" class="arrow"/>
  
  <!-- Execution Phase -->
  <g class="execution">
    <rect x="300" y="540" width="200" height="40" class="process-box" rx="5"/>
    <text x="400" y="555" class="label" fill="#333">Instruction Execution</text>
    <text x="400" y="570" class="label" fill="#333">Using Generated Signals</text>
  </g>
  
  <!-- Arrow to execution -->
  <line x1="400" y1="510" x2="400" y2="540" class="arrow"/>
</svg>
