<?xml version="1.0" encoding="UTF-8"?>
<svg width="800" height="600" viewBox="0 0 800 600" xmlns="http://www.w3.org/2000/svg">
  <title>8051 Power Management and Clock Distribution</title>
  
  <defs>
    <style>
      .title { font-family: Arial, sans-serif; font-size: 20px; font-weight: bold; text-anchor: middle; }
      .subtitle { font-family: Arial, sans-serif; font-size: 14px; font-weight: bold; text-anchor: middle; }
      .label { font-family: Arial, sans-serif; font-size: 12px; text-anchor: middle; }
      .small-label { font-family: Arial, sans-serif; font-size: 10px; text-anchor: middle; }
      .pin-label { font-family: Arial, sans-serif; font-size: 10px; text-anchor: start; }
      .power-box { fill: #ffe6e6; stroke: #cc0000; stroke-width: 2; }
      .clock-box { fill: #e6f3ff; stroke: #0066cc; stroke-width: 2; }
      .circuit-box { fill: #f0f0f0; stroke: #666; stroke-width: 2; }
      .power-line { stroke: #cc0000; stroke-width: 3; }
      .ground-line { stroke: #000; stroke-width: 3; }
      .clock-line { stroke: #0066cc; stroke-width: 2; }
      .signal-line { stroke: #00cc00; stroke-width: 2; }
    </style>
  </defs>
  
  <!-- Title -->
  <text x="400" y="30" class="title" fill="#333">8051 Power Management and Clock Distribution</text>
  
  <!-- Power Supply Section -->
  <g class="power-supply">
    <rect x="50" y="60" width="200" height="150" class="power-box" rx="10"/>
    <text x="150" y="80" class="subtitle" fill="#333">Power Supply</text>
    
    <!-- VCC -->
    <circle cx="80" cy="110" r="8" fill="#ff6666"/>
    <text x="95" y="115" class="pin-label" fill="#333">VCC (+5V)</text>
    <text x="95" y="128" class="small-label" fill="#333">Pin 40</text>
    
    <!-- VSS -->
    <rect x="72" y="140" width="16" height="8" fill="#000"/>
    <line x1="72" y1="156" x2="76" y2="156" stroke="#000" stroke-width="2"/>
    <line x1="78" y1="158" x2="82" y2="158" stroke="#000" stroke-width="2"/>
    <line x1="84" y1="160" x2="88" y2="160" stroke="#000" stroke-width="2"/>
    <text x="95" y="150" class="pin-label" fill="#333">VSS (Ground)</text>
    <text x="95" y="163" class="small-label" fill="#333">Pin 20</text>
    
    <!-- Power consumption -->
    <text x="80" y="185" class="small-label" fill="#333">Active: 11mA @ 12MHz</text>
    <text x="80" y="198" class="small-label" fill="#333">Idle: 2mA @ 12MHz</text>
  </g>
  
  <!-- Clock Generation -->
  <g class="clock-generation">
    <rect x="300" y="60" width="250" height="150" class="clock-box" rx="10"/>
    <text x="425" y="80" class="subtitle" fill="#333">Clock Generation &amp; Distribution</text>
    
    <!-- Crystal Oscillator -->
    <g class="crystal-osc">
      <rect x="320" y="100" width="60" height="40" fill="#ffffff" stroke="#0066cc" stroke-width="2"/>
      <text x="350" y="115" class="small-label" fill="#333">Crystal</text>
      <text x="350" y="128" class="small-label" fill="#333">Oscillator</text>
      
      <!-- XTAL1 and XTAL2 pins -->
      <circle cx="310" cy="120" r="3" fill="#0066cc"/>
      <text x="290" y="115" class="pin-label" fill="#333">XTAL1</text>
      <text x="290" y="128" class="small-label" fill="#333">Pin 19</text>
      
      <circle cx="390" cy="120" r="3" fill="#0066cc"/>
      <text x="395" y="115" class="pin-label" fill="#333">XTAL2</text>
      <text x="395" y="128" class="small-label" fill="#333">Pin 18</text>
    </g>
    
    <!-- Internal Clock Divider -->
    <g class="clock-divider">
      <rect x="450" y="100" width="80" height="40" fill="#ffffff" stroke="#0066cc" stroke-width="2"/>
      <text x="490" y="115" class="small-label" fill="#333">÷12 Clock</text>
      <text x="490" y="128" class="small-label" fill="#333">Divider</text>
    </g>
    
    <!-- Clock distribution -->
    <text x="425" y="170" class="small-label" fill="#333">Machine Cycle = 12 Oscillator Periods</text>
    <text x="425" y="185" class="small-label" fill="#333">Instruction Cycle = 1-4 Machine Cycles</text>
    <text x="425" y="200" class="small-label" fill="#333">ALE Frequency = Oscillator/6</text>
  </g>
  
  <!-- Power Management Modes -->
  <g class="power-modes">
    <rect x="600" y="60" width="150" height="150" class="circuit-box" rx="10"/>
    <text x="675" y="80" class="subtitle" fill="#333">Power Modes</text>
    
    <!-- Normal Mode -->
    <rect x="620" y="100" width="110" height="25" fill="#ccffcc" stroke="#00aa00"/>
    <text x="675" y="115" class="small-label" fill="#333">Normal Mode</text>
    
    <!-- Idle Mode -->
    <rect x="620" y="130" width="110" height="25" fill="#ffffcc" stroke="#aaaa00"/>
    <text x="675" y="145" class="small-label" fill="#333">Idle Mode</text>
    
    <!-- Power Down Mode -->
    <rect x="620" y="160" width="110" height="25" fill="#ffcccc" stroke="#aa0000"/>
    <text x="675" y="175" class="small-label" fill="#333">Power Down</text>
    
    <text x="675" y="200" class="small-label" fill="#333">Control via PCON</text>
  </g>
  
  <!-- Clock Distribution Network -->
  <g class="clock-distribution">
    <text x="400" y="250" class="subtitle" fill="#333">Internal Clock Distribution</text>
    
    <!-- Main Clock Bus -->
    <line x1="100" y1="280" x2="700" y2="280" class="clock-line"/>
    <text x="400" y="270" class="small-label" fill="#333">Internal System Clock</text>
    
    <!-- CPU Core -->
    <rect x="150" y="300" width="100" height="50" class="circuit-box" rx="5"/>
    <text x="200" y="320" class="label" fill="#333">CPU Core</text>
    <text x="200" y="335" class="small-label" fill="#333">Instruction Execution</text>
    <line x1="200" y1="280" x2="200" y2="300" class="clock-line"/>
    
    <!-- Timers -->
    <rect x="280" y="300" width="100" height="50" class="circuit-box" rx="5"/>
    <text x="330" y="320" class="label" fill="#333">Timer/Counter</text>
    <text x="330" y="335" class="small-label" fill="#333">T0, T1</text>
    <line x1="330" y1="280" x2="330" y2="300" class="clock-line"/>
    
    <!-- Serial Port -->
    <rect x="410" y="300" width="100" height="50" class="circuit-box" rx="5"/>
    <text x="460" y="320" class="label" fill="#333">Serial Port</text>
    <text x="460" y="335" class="small-label" fill="#333">UART</text>
    <line x1="460" y1="280" x2="460" y2="300" class="clock-line"/>
    
    <!-- Interrupt Controller -->
    <rect x="540" y="300" width="100" height="50" class="circuit-box" rx="5"/>
    <text x="590" y="320" class="label" fill="#333">Interrupt</text>
    <text x="590" y="335" class="small-label" fill="#333">Controller</text>
    <line x1="590" y1="280" x2="590" y2="300" class="clock-line"/>
  </g>
  
  <!-- External Clock Interface -->
  <g class="external-clock">
    <text x="400" y="390" class="subtitle" fill="#333">External Clock Signals</text>
    
    <!-- ALE -->
    <rect x="100" y="410" width="120" height="40" class="clock-box" rx="5"/>
    <text x="160" y="425" class="label" fill="#333">ALE</text>
    <text x="160" y="440" class="small-label" fill="#333">Address Latch Enable</text>
    
    <!-- PSEN -->
    <rect x="250" y="410" width="120" height="40" class="clock-box" rx="5"/>
    <text x="310" y="425" class="label" fill="#333">PSEN</text>
    <text x="310" y="440" class="small-label" fill="#333">Program Store Enable</text>
    
    <!-- EA -->
    <rect x="400" y="410" width="120" height="40" class="clock-box" rx="5"/>
    <text x="460" y="425" class="label" fill="#333">EA</text>
    <text x="460" y="440" class="small-label" fill="#333">External Access</text>
    
    <!-- RST -->
    <rect x="550" y="410" width="120" height="40" class="power-box" rx="5"/>
    <text x="610" y="425" class="label" fill="#333">RST</text>
    <text x="610" y="440" class="small-label" fill="#333">Reset Input</text>
  </g>
  
  <!-- Power Supply Connections -->
  <line x1="150" y1="110" x2="280" y2="110" class="power-line"/>
  <line x1="280" y1="110" x2="280" y2="60"/>
  <line x1="280" y1="60" x2="750" y2="60" class="power-line"/>
  <text x="500" y="55" class="small-label" fill="#cc0000">+5V Distribution</text>
  
  <line x1="150" y1="150" x2="280" y2="150" class="ground-line"/>
  <line x1="280" y1="150" x2="280" y2="220"/>
  <line x1="280" y1="220" x2="750" y2="220" class="ground-line"/>
  <text x="500" y="235" class="small-label" fill="#000">Ground Distribution</text>
  
  <!-- Clock frequency examples -->
  <g class="frequency-examples">
    <text x="400" y="510" class="subtitle" fill="#333">Common Clock Frequencies</text>
    
    <text x="200" y="530" class="small-label" fill="#333">11.0592 MHz → 921.6 kHz machine cycle</text>
    <text x="200" y="545" class="small-label" fill="#333">12.000 MHz → 1.000 MHz machine cycle</text>
    <text x="200" y="560" class="small-label" fill="#333">24.000 MHz → 2.000 MHz machine cycle</text>
    
    <text x="500" y="530" class="small-label" fill="#333">Standard baud rates with 11.0592 MHz:</text>
    <text x="500" y="545" class="small-label" fill="#333">9600, 19200, 38400, 57600, 115200</text>
    <text x="500" y="560" class="small-label" fill="#333">Perfect divisibility for UART</text>
  </g>
</svg>
