<?xml version="1.0" encoding="UTF-8"?>
<svg width="800" height="600" viewBox="0 0 800 600" xmlns="http://www.w3.org/2000/svg">
  <title>8051 External Memory Interface Circuit</title>
  
  <defs>
    <style>
      .title { font-family: Arial, sans-serif; font-size: 20px; font-weight: bold; text-anchor: middle; }
      .subtitle { font-family: Arial, sans-serif; font-size: 14px; font-weight: bold; text-anchor: middle; }
      .label { font-family: Arial, sans-serif; font-size: 12px; text-anchor: middle; }
      .small-label { font-family: Arial, sans-serif; font-size: 10px; text-anchor: middle; }
      .pin-label { font-family: Arial, sans-serif; font-size: 9px; text-anchor: start; }
      .ic-body { fill: #f0f0f0; stroke: #333; stroke-width: 2; }
      .memory-chip { fill: #e6f3ff; stroke: #0066cc; stroke-width: 2; }
      .latch-chip { fill: #fff2e6; stroke: #ff6600; stroke-width: 2; }
      .bus-line { stroke: #0066cc; stroke-width: 2; }
      .control-line { stroke: #cc0000; stroke-width: 2; }
      .addr-line { stroke: #00aa00; stroke-width: 2; }
      .data-line { stroke: #aa00aa; stroke-width: 2; }
    </style>
  </defs>
  
  <!-- Title -->
  <text x="400" y="30" class="title" fill="#333">8051 External Memory Interface Circuit</text>
  
  <!-- 8051 Microcontroller -->
  <g class="microcontroller">
    <rect x="50" y="80" width="100" height="160" class="ic-body" rx="5"/>
    <text x="100" y="100" class="label" fill="#333">8051</text>
    <text x="100" y="115" class="small-label" fill="#333">Microcontroller</text>
    
    <!-- Port 0 (Address/Data Bus) -->
    <g class="port0-pins">
      <text x="155" y="130" class="pin-label" fill="#333">P0.0-P0.7</text>
      <text x="155" y="142" class="pin-label" fill="#333">AD0-AD7</text>
      <line x1="150" y1="135" x2="180" y2="135" class="bus-line" stroke-width="3"/>
    </g>
    
    <!-- Port 2 (High Address) -->
    <g class="port2-pins">
      <text x="155" y="160" class="pin-label" fill="#333">P2.0-P2.7</text>
      <text x="155" y="172" class="pin-label" fill="#333">A8-A15</text>
      <line x1="150" y1="165" x2="180" y2="165" class="addr-line" stroke-width="3"/>
    </g>
    
    <!-- Control Signals -->
    <g class="control-pins">
      <text x="155" y="190" class="pin-label" fill="#333">ALE (P30)</text>
      <line x1="150" y1="195" x2="180" y2="195" class="control-line"/>
      
      <text x="155" y="205" class="pin-label" fill="#333">PSEN (P29)</text>
      <line x1="150" y1="210" x2="180" y2="210" class="control-line"/>
      
      <text x="155" y="220" class="pin-label" fill="#333">EA (P31)</text>
      <line x1="150" y1="225" x2="180" y2="225" class="control-line"/>
    </g>
  </g>
  
  <!-- Address Latch (74LS373) -->
  <g class="address-latch">
    <rect x="250" y="120" width="80" height="60" class="latch-chip" rx="5"/>
    <text x="290" y="140" class="label" fill="#333">74LS373</text>
    <text x="290" y="155" class="small-label" fill="#333">Address</text>
    <text x="290" y="170" class="small-label" fill="#333">Latch</text>
    
    <!-- Input connections -->
    <line x1="180" y1="135" x2="250" y2="135" class="bus-line" stroke-width="3"/>
    <line x1="180" y1="195" x2="220" y2="195" class="control-line"/>
    <line x1="220" y1="195" x2="220" y2="165"/>
    <line x1="220" y1="165" x2="250" y2="165" class="control-line"/>
    
    <!-- Output (Low Address) -->
    <line x1="330" y1="135" x2="380" y2="135" class="addr-line" stroke-width="3"/>
    <text x="340" y="125" class="small-label" fill="#333">A0-A7</text>
  </g>
  
  <!-- External Program Memory (EPROM/ROM) -->
  <g class="program-memory">
    <rect x="450" y="80" width="100" height="120" class="memory-chip" rx="5"/>
    <text x="500" y="105" class="label" fill="#333">EPROM</text>
    <text x="500" y="120" class="small-label" fill="#333">Program</text>
    <text x="500" y="135" class="small-label" fill="#333">Memory</text>
    <text x="500" y="150" class="small-label" fill="#333">0000H-FFFFH</text>
    
    <!-- Address inputs -->
    <line x1="380" y1="135" x2="450" y2="135" class="addr-line" stroke-width="3"/>
    <line x1="180" y1="165" x2="400" y2="165" class="addr-line" stroke-width="3"/>
    <line x1="400" y1="165" x2="400" y2="120"/>
    <line x1="400" y1="120" x2="450" y2="120" class="addr-line" stroke-width="3"/>
    
    <!-- Data output -->
    <line x1="500" y1="200" x2="500" y2="250" class="data-line" stroke-width="3"/>
    <line x1="180" y1="250" x2="500" y2="250" class="data-line" stroke-width="3"/>
    <line x1="180" y1="250" x2="180" y2="135"/>
    
    <!-- Control signals -->
    <line x1="180" y1="210" x2="420" y2="210" class="control-line"/>
    <line x1="420" y1="210" x2="420" y2="180"/>
    <line x1="420" y1="180" x2="450" y2="180" class="control-line"/>
    <text x="430" y="175" class="pin-label" fill="#333">OE</text>
    
    <!-- Pin labels -->
    <text x="365" y="130" class="pin-label" fill="#333">A0-A7</text>
    <text x="405" y="115" class="pin-label" fill="#333">A8-A15</text>
    <text x="505" y="245" class="pin-label" fill="#333">D0-D7</text>
  </g>
  
  <!-- External Data Memory (RAM) -->
  <g class="data-memory">
    <rect x="600" y="80" width="100" height="120" class="memory-chip" rx="5"/>
    <text x="650" y="105" class="label" fill="#333">SRAM</text>
    <text x="650" y="120" class="small-label" fill="#333">Data</text>
    <text x="650" y="135" class="small-label" fill="#333">Memory</text>
    <text x="650" y="150" class="small-label" fill="#333">0000H-FFFFH</text>
    
    <!-- Address inputs (shared with program memory) -->
    <line x1="380" y1="135" x2="380" y2="90"/>
    <line x1="380" y1="90" x2="600" y2="90" class="addr-line" stroke-width="3"/>
    <line x1="600" y1="90" x2="600" y2="135"/>
    <line x1="600" y1="135" x2="600" y2="135" class="addr-line" stroke-width="3"/>
    
    <line x1="400" y1="120" x2="580" y2="120" class="addr-line" stroke-width="3"/>
    <line x1="580" y1="120" x2="580" y2="120"/>
    <line x1="580" y1="120" x2="600" y2="120" class="addr-line" stroke-width="3"/>
    
    <!-- Data bus (bidirectional) -->
    <line x1="650" y1="200" x2="650" y2="250" class="data-line" stroke-width="3"/>
    <line x1="500" y1="250" x2="650" y2="250" class="data-line" stroke-width="3"/>
    
    <!-- Control signals -->
    <circle cx="620" cy="180" r="3" fill="#cc0000"/>
    <text x="625" y="175" class="pin-label" fill="#333">WR</text>
    <circle cx="680" cy="180" r="3" fill="#cc0000"/>
    <text x="685" y="175" class="pin-label" fill="#333">RD</text>
    
    <!-- Pin labels -->
    <text x="585" y="130" class="pin-label" fill="#333">A0-A7</text>
    <text x="585" y="115" class="pin-label" fill="#333">A8-A15</text>
    <text x="655" y="245" class="pin-label" fill="#333">D0-D7</text>
  </g>
  
  <!-- Address Decoder (optional) -->
  <g class="address-decoder">
    <rect x="450" y="280" width="100" height="60" class="latch-chip" rx="5"/>
    <text x="500" y="300" class="label" fill="#333">74LS138</text>
    <text x="500" y="315" class="small-label" fill="#333">Address</text>
    <text x="500" y="330" class="small-label" fill="#333">Decoder</text>
    
    <!-- High address inputs -->
    <line x1="400" y1="165" x2="400" y2="300"/>
    <line x1="400" y1="300" x2="450" y2="300" class="addr-line"/>
    <text x="405" y="295" class="pin-label" fill="#333">A13-A15</text>
    
    <!-- Chip select outputs -->
    <line x1="550" y1="290" x2="580" y2="290" class="control-line"/>
    <line x1="580" y1="290" x2="580" y2="160"/>
    <line x1="580" y1="160" x2="600" y2="160" class="control-line"/>
    <text x="585" y="155" class="pin-label" fill="#333">CS</text>
    
    <line x1="550" y1="310" x2="570" y2="310" class="control-line"/>
    <line x1="570" y1="310" x2="570" y2="160"/>
    <line x1="570" y1="160" x2="450" y2="160" class="control-line"/>
    <text x="455" y="155" class="pin-label" fill="#333">CS</text>
  </g>
  
  <!-- Memory Map -->
  <g class="memory-map">
    <text x="100" y="400" class="subtitle" fill="#333">Memory Map</text>
    
    <rect x="50" y="420" width="150" height="30" fill="#ffeeee" stroke="#cc0000"/>
    <text x="125" y="440" class="small-label" fill="#333">0000H - 1FFFH: Internal ROM</text>
    
    <rect x="50" y="450" width="150" height="30" fill="#eeeeff" stroke="#0000cc"/>
    <text x="125" y="470" class="small-label" fill="#333">2000H - 7FFFH: External ROM</text>
    
    <rect x="50" y="480" width="150" height="30" fill="#eeffee" stroke="#00cc00"/>
    <text x="125" y="500" class="small-label" fill="#333">8000H - FFFFH: External RAM</text>
    
    <rect x="50" y="510" width="150" height="30" fill="#ffffee" stroke="#cccc00"/>
    <text x="125" y="530" class="small-label" fill="#333">00H - 7FH: Internal RAM</text>
  </g>
  
  <!-- Control Signal Timing -->
  <g class="timing-info">
    <text x="400" y="400" class="subtitle" fill="#333">Control Signal Functions</text>
    
    <text x="250" y="430" class="small-label" fill="#333">ALE: Address Latch Enable - Latches low address</text>
    <text x="250" y="445" class="small-label" fill="#333">PSEN: Program Store Enable - Enables external ROM</text>
    <text x="250" y="460" class="small-label" fill="#333">EA: External Access - Selects external/internal ROM</text>
    <text x="250" y="475" class="small-label" fill="#333">RD: Read Enable - Enables external RAM read</text>
    <text x="250" y="490" class="small-label" fill="#333">WR: Write Enable - Enables external RAM write</text>
    
    <text x="250" y="520" class="small-label" fill="#333">EA = 1: Internal ROM (0000-1FFF), External (2000-FFFF)</text>
    <text x="250" y="535" class="small-label" fill="#333">EA = 0: All external ROM (0000-FFFF)</text>
  </g>
  
  <!-- Bus labels -->
  <text x="200" y="130" class="small-label" fill="#0066cc">Address/Data Bus</text>
  <text x="200" y="160" class="small-label" fill="#00aa00">High Address Bus</text>
  <text x="300" y="270" class="small-label" fill="#aa00aa">Data Bus (Bidirectional)</text>
</svg>
