<svg viewBox="0 0 900 700" xmlns="http://www.w3.org/2000/svg">
  <defs>
    <style>
      .title { font-family: Arial, sans-serif; font-size: 20px; font-weight: bold; fill: #2c3e50; text-anchor: middle; }
      .label { font-family: Arial, sans-serif; font-size: 12px; fill: #2c3e50; text-anchor: middle; }
      .small-label { font-family: Arial, sans-serif; font-size: 10px; fill: #2c3e50; text-anchor: middle; }
      .timer-block { stroke: #3498db; stroke-width: 2; fill: #ebf5fb; }
      .counter-block { stroke: #e74c3c; stroke-width: 2; fill: #fdedec; }
      .control-block { stroke: #f39c12; stroke-width: 2; fill: #fef9e7; }
      .register-block { stroke: #27ae60; stroke-width: 2; fill: #eafaf1; }
      .mode-block { stroke: #9b59b6; stroke-width: 2; fill: #f4f0ff; }
      .connection-line { stroke: #34495e; stroke-width: 2; fill: none; }
      .clock-line { stroke: #e74c3c; stroke-width: 2; fill: none; stroke-dasharray: 5,5; }
    </style>
  </defs>

  <!-- Title -->
  <text x="450" y="25" class="title">8051 Timer/Counter System Architecture</text>

  <!-- Timer 0 Block -->
  <g class="timer0-section">
    <rect x="50" y="60" width="180" height="150" class="timer-block"/>
    <text x="140" y="85" class="label">Timer 0 (16-bit)</text>
    
    <!-- TH0 Register -->
    <rect x="70" y="100" width="60" height="25" class="register-block"/>
    <text x="100" y="117" class="small-label">TH0</text>
    <text x="100" y="127" class="small-label">(High Byte)</text>
    
    <!-- TL0 Register -->
    <rect x="140" y="100" width="60" height="25" class="register-block"/>
    <text x="170" y="117" class="small-label">TL0</text>
    <text x="170" y="127" class="small-label">(Low Byte)</text>
    
    <!-- Control bits -->
    <text x="140" y="145" class="small-label">Control: TR0, TF0</text>
    <text x="140" y="160" class="small-label">Mode: M1, M0 (TMOD)</text>
    <text x="140" y="175" class="small-label">Pin: T0 (P3.4)</text>
    <text x="140" y="190" class="small-label">Interrupt: ET0</text>
  </g>

  <!-- Timer 1 Block -->
  <g class="timer1-section">
    <rect x="270" y="60" width="180" height="150" class="timer-block"/>
    <text x="360" y="85" class="label">Timer 1 (16-bit)</text>
    
    <!-- TH1 Register -->
    <rect x="290" y="100" width="60" height="25" class="register-block"/>
    <text x="320" y="117" class="small-label">TH1</text>
    <text x="320" y="127" class="small-label">(High Byte)</text>
    
    <!-- TL1 Register -->
    <rect x="360" y="100" width="60" height="25" class="register-block"/>
    <text x="390" y="117" class="small-label">TL1</text>
    <text x="390" y="127" class="small-label">(Low Byte)</text>
    
    <!-- Control bits -->
    <text x="360" y="145" class="small-label">Control: TR1, TF1</text>
    <text x="360" y="160" class="small-label">Mode: M1, M0 (TMOD)</text>
    <text x="360" y="175" class="small-label">Pin: T1 (P3.5)</text>
    <text x="360" y="190" class="small-label">Interrupt: ET1</text>
  </g>

  <!-- Control Registers -->
  <g class="control-registers">
    <rect x="490" y="60" width="200" height="150" class="control-block"/>
    <text x="590" y="85" class="label">Control Registers</text>
    
    <!-- TMOD Register -->
    <rect x="510" y="100" width="160" height="30" fill="#fff3cd" stroke="#ffc107"/>
    <text x="590" y="118" class="small-label">TMOD (Timer Mode)</text>
    <text x="590" y="128" class="small-label">Non-bit-addressable</text>
    
    <!-- TCON Register -->
    <rect x="510" y="140" width="160" height="30" fill="#d1ecf1" stroke="#17a2b8"/>
    <text x="590" y="158" class="small-label">TCON (Timer Control)</text>
    <text x="590" y="168" class="small-label">Bit-addressable</text>
    
    <text x="590" y="190" class="small-label">Controls start/stop,</text>
    <text x="590" y="205" class="small-label">overflow flags</text>
  </g>

  <!-- Timer Modes -->
  <g class="timer-modes">
    <rect x="50" y="240" width="640" height="200" stroke="#34495e" stroke-width="2" fill="#f8f9fa"/>
    <text x="370" y="265" class="label">Timer/Counter Operating Modes</text>
    
    <!-- Mode 0 -->
    <rect x="70" y="280" width="140" height="70" class="mode-block"/>
    <text x="140" y="300" class="small-label">Mode 0</text>
    <text x="140" y="315" class="small-label">13-bit Timer</text>
    <text x="140" y="330" class="small-label">TH: 8 bits</text>
    <text x="140" y="340" class="small-label">TL: 5 bits (lower)</text>
    
    <!-- Mode 1 -->
    <rect x="230" y="280" width="140" height="70" class="mode-block"/>
    <text x="300" y="300" class="small-label">Mode 1</text>
    <text x="300" y="315" class="small-label">16-bit Timer</text>
    <text x="300" y="330" class="small-label">TH: 8 bits</text>
    <text x="300" y="340" class="small-label">TL: 8 bits</text>
    
    <!-- Mode 2 -->
    <rect x="390" y="280" width="140" height="70" class="mode-block"/>
    <text x="460" y="300" class="small-label">Mode 2</text>
    <text x="460" y="315" class="small-label">8-bit Auto-reload</text>
    <text x="460" y="330" class="small-label">TH: Reload value</text>
    <text x="460" y="340" class="small-label">TL: Counter</text>
    
    <!-- Mode 3 -->
    <rect x="550" y="280" width="140" height="70" class="mode-block"/>
    <text x="620" y="300" class="small-label">Mode 3</text>
    <text x="620" y="315" class="small-label">Split Timer</text>
    <text x="620" y="330" class="small-label">TH0 &amp; TL0 separate</text>
    <text x="620" y="340" class="small-label">(Timer 0 only)</text>
    
    <!-- Clock Sources -->
    <text x="140" y="375" class="small-label">Internal Clock</text>
    <text x="140" y="390" class="small-label">(Crystal/12)</text>
    
    <text x="300" y="375" class="small-label">Internal Clock</text>
    <text x="300" y="390" class="small-label">(Crystal/12)</text>
    
    <text x="460" y="375" class="small-label">Internal/External</text>
    <text x="460" y="390" class="small-label">Clock selectable</text>
    
    <text x="620" y="375" class="small-label">TH0: Timer Mode</text>
    <text x="620" y="390" class="small-label">TL0: Counter Mode</text>
    
    <!-- Gate Control -->
    <text x="370" y="415" class="small-label">Gate Control: GATE bit in TMOD controls external enable via INT0/INT1 pins</text>
  </g>

  <!-- Register Details -->
  <g class="register-details">
    <rect x="50" y="460" width="400" height="220" stroke="#34495e" stroke-width="2" fill="#f8f9fa"/>
    <text x="250" y="485" class="label">Register Bit Definitions</text>
    
    <!-- TMOD Register bits -->
    <text x="70" y="510" class="small-label">TMOD Register (Timer Mode):</text>
    
    <rect x="70" y="520" width="30" height="20" fill="#ffebee" stroke="#f44336"/>
    <text x="85" y="533" class="small-label">GATE</text>
    
    <rect x="105" y="520" width="30" height="20" fill="#fff3e0" stroke="#ff9800"/>
    <text x="120" y="533" class="small-label">C/T</text>
    
    <rect x="140" y="520" width="30" height="20" fill="#e8f5e8" stroke="#4caf50"/>
    <text x="155" y="533" class="small-label">M1</text>
    
    <rect x="175" y="520" width="30" height="20" fill="#e3f2fd" stroke="#2196f3"/>
    <text x="190" y="533" class="small-label">M0</text>
    
    <text x="220" y="533" class="small-label">Timer 1</text>
    
    <rect x="270" y="520" width="30" height="20" fill="#ffebee" stroke="#f44336"/>
    <text x="285" y="533" class="small-label">GATE</text>
    
    <rect x="305" y="520" width="30" height="20" fill="#fff3e0" stroke="#ff9800"/>
    <text x="320" y="533" class="small-label">C/T</text>
    
    <rect x="340" y="520" width="30" height="20" fill="#e8f5e8" stroke="#4caf50"/>
    <text x="355" y="533" class="small-label">M1</text>
    
    <rect x="375" y="520" width="30" height="20" fill="#e3f2fd" stroke="#2196f3"/>
    <text x="390" y="533" class="small-label">M0</text>
    
    <text x="420" y="533" class="small-label">Timer 0</text>
    
    <!-- TCON Register bits -->
    <text x="70" y="570" class="small-label">TCON Register (Timer Control):</text>
    
    <rect x="70" y="580" width="35" height="20" fill="#fce4ec" stroke="#e91e63"/>
    <text x="87" y="593" class="small-label">TF1</text>
    
    <rect x="110" y="580" width="35" height="20" fill="#f3e5f5" stroke="#9c27b0"/>
    <text x="127" y="593" class="small-label">TR1</text>
    
    <rect x="150" y="580" width="35" height="20" fill="#fce4ec" stroke="#e91e63"/>
    <text x="167" y="593" class="small-label">TF0</text>
    
    <rect x="190" y="580" width="35" height="20" fill="#f3e5f5" stroke="#9c27b0"/>
    <text x="207" y="593" class="small-label">TR0</text>
    
    <!-- Bit descriptions -->
    <text x="70" y="620" class="small-label">GATE: 0=Timer, 1=Counter (external)</text>
    <text x="70" y="635" class="small-label">C/T: 0=Timer, 1=Counter mode</text>
    <text x="70" y="650" class="small-label">M1,M0: Mode selection (00,01,10,11)</text>
    <text x="70" y="665" class="small-label">TF: Timer overflow flag (interrupt)</text>
  </g>

  <!-- Clock Source Diagram -->
  <g class="clock-sources">
    <rect x="470" y="460" width="380" height="220" stroke="#34495e" stroke-width="2" fill="#f8f9fa"/>
    <text x="660" y="485" class="label">Clock Sources and Control</text>
    
    <!-- Crystal oscillator -->
    <rect x="490" y="505" width="80" height="30" fill="#e8f4fd" stroke="#1976d2"/>
    <text x="530" y="525" class="small-label">Crystal Osc</text>
    
    <!-- Divide by 12 -->
    <rect x="590" y="505" width="60" height="30" fill="#fff3e0" stroke="#f57c00"/>
    <text x="620" y="525" class="small-label">รท12</text>
    
    <!-- Timer input -->
    <rect x="670" y="505" width="60" height="30" fill="#f3e5f5" stroke="#7b1fa2"/>
    <text x="700" y="525" class="small-label">Timer</text>
    
    <!-- External input -->
    <rect x="490" y="550" width="80" height="30" fill="#e8f5e8" stroke="#388e3c"/>
    <text x="530" y="570" class="small-label">External Pin</text>
    <text x="530" y="580" class="small-label">(T0/T1)</text>
    
    <!-- Counter input -->
    <rect x="670" y="550" width="60" height="30" fill="#fce4ec" stroke="#c2185b"/>
    <text x="700" y="570" class="small-label">Counter</text>
    
    <!-- Control signals -->
    <line x1="570" y1="520" x2="590" y2="520" class="clock-line"/>
    <line x1="650" y1="520" x2="670" y2="520" class="clock-line"/>
    <line x1="570" y1="565" x2="590" y2="565" class="clock-line"/>
    <line x1="590" y1="565" x2="590" y2="565" class="clock-line"/>
    <line x1="670" y1="565" x2="670" y2="550" class="clock-line"/>
    
    <!-- Mode selection -->
    <rect x="590" y="600" width="100" height="40" fill="#f0f9ff" stroke="#0ea5e9"/>
    <text x="640" y="620" class="small-label">C/T bit selects</text>
    <text x="640" y="635" class="small-label">Timer or Counter</text>
    
    <!-- Gate control -->
    <text x="660" y="665" class="small-label">GATE bit enables external control via INT pins</text>
  </g>

  <!-- Connection lines -->
  <line x1="230" y1="140" x2="250" y2="140" class="connection-line"/>
  <line x1="450" y1="140" x2="490" y2="140" class="connection-line"/>
</svg>
