<?xml version="1.0" encoding="UTF-8"?>
<svg width="500" height="350" xmlns="http://www.w3.org/2000/svg">
  <defs>
    <style>
      .component-text { font-family: Arial, sans-serif; font-size: 12px; fill: #000; }
      .pin-text { font-family: Arial, sans-serif; font-size: 10px; fill: #333; }
      .value-text { font-family: Arial, sans-serif; font-size: 10px; fill: #666; }
      .wire { stroke: #000; stroke-width: 2; fill: none; }
      .component { fill: #f0f0f0; stroke: #000; stroke-width: 1; }
      .resistor { fill: #ffcccc; stroke: #000; stroke-width: 1; }
      .capacitor { fill: #ccccff; stroke: #000; stroke-width: 1; }
      .switch { fill: #ccffcc; stroke: #000; stroke-width: 1; }
    </style>
  </defs>
  
  <!-- Title -->
  <text x="250" y="25" text-anchor="middle" class="component-text" font-size="16" font-weight="bold">8051 Reset Circuit</text>
  
  <!-- 8051 Microcontroller (partial) -->
  <rect x="300" y="120" width="100" height="100" rx="5" class="component"/>
  <text x="350" y="135" text-anchor="middle" class="component-text" font-weight="bold">8051</text>
  <text x="350" y="150" text-anchor="middle" class="component-text">μC</text>
  
  <!-- RST pin -->
  <circle cx="300" cy="170" r="3" fill="#000"/>
  <text x="285" y="175" text-anchor="end" class="pin-text">RST</text>
  <text x="285" y="185" text-anchor="end" class="pin-text">Pin 9</text>
  
  <!-- VCC Supply -->
  <line x1="50" y1="50" x2="450" y2="50" stroke="#ff0000" stroke-width="3"/>
  <text x="50" y="40" class="component-text" fill="#ff0000">+5V (VCC)</text>
  
  <!-- Pull-up Resistor R1 -->
  <rect x="80" y="80" width="15" height="40" class="resistor"/>
  <path d="M 87 80 L 87 85 L 92 90 L 82 100 L 92 110 L 82 120 L 87 125 L 87 130" 
        stroke="#000" stroke-width="1" fill="none"/>
  <text x="87" y="70" text-anchor="middle" class="value-text">R1</text>
  <text x="87" y="145" text-anchor="middle" class="value-text">10kΩ</text>
  
  <!-- Connection from VCC to resistor -->
  <line x1="87" y1="50" x2="87" y2="80" class="wire"/>
  
  <!-- Capacitor C1 -->
  <g id="capacitor">
    <line x1="87" y1="200" x2="87" y2="210" class="wire"/>
    <line x1="82" y1="210" x2="92" y2="210" stroke="#000" stroke-width="3"/>
    <line x1="82" y1="215" x2="92" y2="215" stroke="#000" stroke-width="3"/>
    <line x1="87" y1="215" x2="87" y2="225" class="wire"/>
    <text x="105" y="212" class="value-text">C1</text>
    <text x="105" y="224" class="value-text">10μF</text>
  </g>
  
  <!-- Manual Reset Switch -->
  <g id="switch">
    <rect x="150" y="160" width="60" height="30" rx="5" class="switch"/>
    <text x="180" y="178" text-anchor="middle" class="component-text" font-size="10">RESET</text>
    <text x="180" y="190" text-anchor="middle" class="component-text" font-size="10">SWITCH</text>
    <circle cx="150" cy="175" r="3" fill="#000"/>
    <circle cx="210" cy="175" r="3" fill="#000"/>
    <line x1="150" y1="175" x2="170" y2="165" stroke="#000" stroke-width="2"/>
  </g>
  
  <!-- Ground connections -->
  <g id="ground1">
    <line x1="87" y1="225" x2="87" y2="270" class="wire"/>
    <line x1="82" y1="270" x2="92" y2="270" stroke="#000" stroke-width="3"/>
    <line x1="84" y1="275" x2="90" y2="275" stroke="#000" stroke-width="2"/>
    <line x1="86" y1="280" x2="88" y2="280" stroke="#000" stroke-width="1"/>
    <text x="100" y="275" class="value-text">GND</text>
  </g>
  
  <g id="ground2">
    <line x1="210" y1="175" x2="210" y2="270" class="wire"/>
    <line x1="205" y1="270" x2="215" y2="270" stroke="#000" stroke-width="3"/>
    <line x1="207" y1="275" x2="213" y2="275" stroke="#000" stroke-width="2"/>
    <line x1="209" y1="280" x2="211" y2="280" stroke="#000" stroke-width="1"/>
  </g>
  
  <!-- Main reset line -->
  <line x1="87" y1="130" x2="87" y2="170" class="wire"/>
  <line x1="87" y1="170" x2="150" y2="170" class="wire"/>
  <line x1="150" y1="170" x2="150" y2="175" class="wire"/>
  <line x1="87" y1="170" x2="87" y2="200" class="wire"/>
  
  <!-- Connection to microcontroller -->
  <line x1="87" y1="170" x2="300" y2="170" class="wire"/>
  
  <!-- Power-on Reset description -->
  <rect x="50" y="300" width="400" height="40" rx="5" fill="#ffffcc" stroke="#000"/>
  <text x="250" y="315" text-anchor="middle" class="component-text" font-weight="bold">Power-on Reset Operation:</text>
  <text x="250" y="330" text-anchor="middle" class="value-text">RST pin must be HIGH for at least 2 machine cycles to reset the 8051</text>
  
  <!-- Signal annotations -->
  <text x="120" y="165" class="value-text">Reset Signal</text>
  <text x="120" y="175" class="value-text">(Active HIGH)</text>
  
  <!-- Timing note -->
  <text x="400" y="260" class="value-text" font-size="9">Reset duration:</text>
  <text x="400" y="275" class="value-text" font-size="9">≥ 2 machine cycles</text>
  <text x="400" y="290" class="value-text" font-size="9">(24 clock cycles)</text>
</svg>
