<?xml version="1.0" encoding="UTF-8"?>
<svg width="600" height="400" xmlns="http://www.w3.org/2000/svg">
  <defs>
    <style>
      .component-text { font-family: Arial, sans-serif; font-size: 12px; fill: #000; }
      .timer-text { font-family: Arial, sans-serif; font-size: 10px; fill: #333; }
      .mode-text { font-family: Arial, sans-serif; font-size: 9px; fill: #666; }
      .title-text { font-family: Arial, sans-serif; font-size: 16px; font-weight: bold; fill: #000; }
      .wire { stroke: #000; stroke-width: 1; fill: none; }
      .timer-block { fill: #ffffcc; stroke: #000; stroke-width: 1; }
      .register-block { fill: #ccffcc; stroke: #000; stroke-width: 1; }
      .control-block { fill: #ffcccc; stroke: #000; stroke-width: 1; }
    </style>
  </defs>
  
  <!-- Title -->
  <text x="300" y="25" text-anchor="middle" class="title-text">8051 Timer/Counter System</text>
  
  <!-- 8051 Core -->
  <rect x="50" y="80" width="100" height="120" rx="5" fill="#f0f0f0" stroke="#000"/>
  <text x="100" y="100" text-anchor="middle" class="component-text" font-weight="bold">8051</text>
  <text x="100" y="115" text-anchor="middle" class="component-text">Core</text>
  
  <!-- Timer 0 -->
  <rect x="200" y="60" width="120" height="80" rx="5" class="timer-block"/>
  <text x="260" y="80" text-anchor="middle" class="component-text" font-weight="bold">Timer/Counter 0</text>
  <text x="260" y="95" text-anchor="middle" class="timer-text">16-bit</text>
  <text x="260" y="110" text-anchor="middle" class="timer-text">TH0 (8-bit) | TL0 (8-bit)</text>
  <text x="260" y="125" text-anchor="middle" class="timer-text">Pin: T0 (P3.4)</text>
  
  <!-- Timer 1 -->
  <rect x="200" y="160" width="120" height="80" rx="5" class="timer-block"/>
  <text x="260" y="180" text-anchor="middle" class="component-text" font-weight="bold">Timer/Counter 1</text>
  <text x="260" y="195" text-anchor="middle" class="timer-text">16-bit</text>
  <text x="260" y="210" text-anchor="middle" class="timer-text">TH1 (8-bit) | TL1 (8-bit)</text>
  <text x="260" y="225" text-anchor="middle" class="timer-text">Pin: T1 (P3.5)</text>
  
  <!-- Control Registers -->
  <rect x="370" y="80" width="100" height="60" rx="5" class="control-block"/>
  <text x="420" y="100" text-anchor="middle" class="component-text" font-weight="bold">TMOD Register</text>
  <text x="420" y="115" text-anchor="middle" class="timer-text">Timer Mode Control</text>
  <text x="420" y="130" text-anchor="middle" class="timer-text">Address: 89H</text>
  
  <rect x="370" y="160" width="100" height="60" rx="5" class="control-block"/>
  <text x="420" y="180" text-anchor="middle" class="component-text" font-weight="bold">TCON Register</text>
  <text x="420" y="195" text-anchor="middle" class="timer-text">Timer Control</text>
  <text x="420" y="210" text-anchor="middle" class="timer-text">Address: 88H</text>
  
  <!-- Clock Sources -->
  <rect x="50" y="220" width="80" height="30" class="register-block"/>
  <text x="90" y="238" text-anchor="middle" class="timer-text">Clock/12</text>
  
  <rect x="50" y="260" width="80" height="30" class="register-block"/>
  <text x="90" y="278" text-anchor="middle" class="timer-text">External Pin</text>
  
  <!-- Connections -->
  <line x1="150" y1="100" x2="200" y2="100" class="wire"/>
  <line x1="150" y1="140" x2="200" y2="200" class="wire"/>
  <line x1="320" y1="100" x2="370" y2="110" class="wire"/>
  <line x1="320" y1="200" x2="370" y2="190" class="wire"/>
  
  <line x1="130" y1="235" x2="200" y2="235" class="wire"/>
  <line x1="200" y1="235" x2="200" y2="120" class="wire"/>
  <line x1="200" y1="235" x2="200" y2="200" class="wire"/>
  
  <line x1="130" y1="275" x2="180" y2="275" class="wire"/>
  <line x1="180" y1="275" x2="180" y2="130" class="wire"/>
  <line x1="180" y1="130" x2="200" y2="130" class="wire"/>
  <line x1="180" y1="275" x2="180" y2="215" class="wire"/>
  <line x1="180" y1="215" x2="200" y2="215" class="wire"/>
  
  <!-- Timer Modes -->
  <rect x="50" y="320" width="500" height="70" rx="5" fill="#f9f9f9" stroke="#000"/>
  <text x="300" y="340" text-anchor="middle" class="component-text" font-weight="bold">Timer Operating Modes</text>
  
  <text x="70" y="360" class="component-text" font-weight="bold">Mode 0:</text>
  <text x="70" y="375" class="mode-text">13-bit Timer/Counter (TL: 5-bit, TH: 8-bit)</text>
  
  <text x="300" y="360" class="component-text" font-weight="bold">Mode 1:</text>
  <text x="300" y="375" class="mode-text">16-bit Timer/Counter (TL: 8-bit, TH: 8-bit)</text>
  
  <text x="70" y="385" class="component-text" font-weight="bold">Mode 2:</text>
  <text x="70" y="400" class="mode-text">8-bit Auto-reload (TL counts, TH holds reload value)</text>
  
  <text x="300" y="385" class="component-text" font-weight="bold">Mode 3:</text>
  <text x="300" y="400" class="mode-text">Split mode (Timer 0: two 8-bit timers)</text>
  
  <!-- TMOD Register Detail -->
  <g id="tmod-detail" transform="translate(500, 60)">
    <rect x="0" y="0" width="80" height="120" rx="5" fill="#ffe6e6" stroke="#000"/>
    <text x="40" y="15" text-anchor="middle" class="component-text" font-size="10" font-weight="bold">TMOD Bits</text>
    
    <!-- Timer 1 bits -->
    <text x="5" y="30" class="mode-text">GATE1</text>
    <text x="5" y="42" class="mode-text">C/T1</text>
    <text x="5" y="54" class="mode-text">M11</text>
    <text x="5" y="66" class="mode-text">M10</text>
    
    <!-- Timer 0 bits -->
    <text x="5" y="78" class="mode-text">GATE0</text>
    <text x="5" y="90" class="mode-text">C/T0</text>
    <text x="5" y="102" class="mode-text">M01</text>
    <text x="5" y="114" class="mode-text">M00</text>
    
    <text x="75" y="30" class="mode-text">Bit 7</text>
    <text x="75" y="42" class="mode-text">Bit 6</text>
    <text x="75" y="54" class="mode-text">Bit 5</text>
    <text x="75" y="66" class="mode-text">Bit 4</text>
    <text x="75" y="78" class="mode-text">Bit 3</text>
    <text x="75" y="90" class="mode-text">Bit 2</text>
    <text x="75" y="102" class="mode-text">Bit 1</text>
    <text x="75" y="114" class="mode-text">Bit 0</text>
  </g>
  
  <!-- TCON Register Detail -->
  <g id="tcon-detail" transform="translate(500, 200)">
    <rect x="0" y="0" width="80" height="120" rx="5" fill="#ffe6e6" stroke="#000"/>
    <text x="40" y="15" text-anchor="middle" class="component-text" font-size="10" font-weight="bold">TCON Bits</text>
    
    <text x="5" y="30" class="mode-text">TF1</text>
    <text x="5" y="42" class="mode-text">TR1</text>
    <text x="5" y="54" class="mode-text">TF0</text>
    <text x="5" y="66" class="mode-text">TR0</text>
    <text x="5" y="78" class="mode-text">IE1</text>
    <text x="5" y="90" class="mode-text">IT1</text>
    <text x="5" y="102" class="mode-text">IE0</text>
    <text x="5" y="114" class="mode-text">IT0</text>
    
    <text x="75" y="30" class="mode-text">Bit 7</text>
    <text x="75" y="42" class="mode-text">Bit 6</text>
    <text x="75" y="54" class="mode-text">Bit 5</text>
    <text x="75" y="66" class="mode-text">Bit 4</text>
    <text x="75" y="78" class="mode-text">Bit 3</text>
    <text x="75" y="90" class="mode-text">Bit 2</text>
    <text x="75" y="102" class="mode-text">Bit 1</text>
    <text x="75" y="114" class="mode-text">Bit 0</text>
  </g>
</svg>
