<?xml version="1.0" encoding="UTF-8"?>
<svg width="600" height="500" xmlns="http://www.w3.org/2000/svg">
  <defs>
    <style>
      .component-text { font-family: Arial, sans-serif; font-size: 12px; fill: #000; }
      .pin-text { font-family: Arial, sans-serif; font-size: 10px; fill: #333; }
      .signal-text { font-family: Arial, sans-serif; font-size: 9px; fill: #666; }
      .wire { stroke: #000; stroke-width: 1; fill: none; }
      .bus { stroke: #000; stroke-width: 2; fill: none; }
      .component { fill: #f0f0f0; stroke: #000; stroke-width: 1; }
      .memory { fill: #e6f3ff; stroke: #000; stroke-width: 1; }
      .decoder { fill: #ffe6e6; stroke: #000; stroke-width: 1; }
    </style>
  </defs>
  
  <!-- Title -->
  <text x="300" y="25" text-anchor="middle" class="component-text" font-size="16" font-weight="bold">8051 External Memory Interfacing</text>
  
  <!-- 8051 Microcontroller -->
  <rect x="50" y="100" width="120" height="150" rx="5" class="component"/>
  <text x="110" y="120" text-anchor="middle" class="component-text" font-weight="bold">8051</text>
  <text x="110" y="135" text-anchor="middle" class="component-text">μC</text>
  
  <!-- 8051 pins -->
  <g id="microcontroller-pins">
    <!-- Port 0 (AD0-AD7) -->
    <rect x="170" y="130" width="15" height="8" class="component"/>
    <text x="190" y="137" class="pin-text">P0 (AD0-AD7)</text>
    
    <!-- Port 2 (A8-A15) -->
    <rect x="170" y="150" width="15" height="8" class="component"/>
    <text x="190" y="157" class="pin-text">P2 (A8-A15)</text>
    
    <!-- ALE -->
    <rect x="170" y="170" width="15" height="6" class="component"/>
    <text x="190" y="176" class="pin-text">ALE</text>
    
    <!-- PSEN -->
    <rect x="170" y="180" width="15" height="6" class="component"/>
    <text x="190" y="186" class="pin-text">PSEN</text>
    
    <!-- RD (P3.7) -->
    <rect x="170" y="190" width="15" height="6" class="component"/>
    <text x="190" y="196" class="pin-text">RD (P3.7)</text>
    
    <!-- WR (P3.6) -->
    <rect x="170" y="200" width="15" height="6" class="component"/>
    <text x="190" y="206" class="pin-text">WR (P3.6)</text>
    
    <!-- EA -->
    <rect x="170" y="220" width="15" height="6" class="component"/>
    <text x="190" y="226" class="pin-text">EA</text>
  </g>
  
  <!-- Address Latch (74LS373) -->
  <rect x="250" y="120" width="80" height="60" rx="5" class="decoder"/>
  <text x="290" y="140" text-anchor="middle" class="component-text" font-weight="bold">74LS373</text>
  <text x="290" y="155" text-anchor="middle" class="component-text">Address</text>
  <text x="290" y="170" text-anchor="middle" class="component-text">Latch</text>
  
  <!-- External Program Memory (EPROM) -->
  <rect x="400" y="80" width="120" height="80" rx="5" class="memory"/>
  <text x="460" y="105" text-anchor="middle" class="component-text" font-weight="bold">External EPROM</text>
  <text x="460" y="120" text-anchor="middle" class="component-text">Program Memory</text>
  <text x="460" y="135" text-anchor="middle" class="component-text">8K x 8 (2764)</text>
  <text x="460" y="150" text-anchor="middle" class="pin-text">0000H-1FFFH</text>
  
  <!-- External Data Memory (RAM) -->
  <rect x="400" y="200" width="120" height="80" rx="5" class="memory"/>
  <text x="460" y="225" text-anchor="middle" class="component-text" font-weight="bold">External RAM</text>
  <text x="460" y="240" text-anchor="middle" class="component-text">Data Memory</text>
  <text x="460" y="255" text-anchor="middle" class="component-text">8K x 8 (6264)</text>
  <text x="460" y="270" text-anchor="middle" class="pin-text">0000H-1FFFH</text>
  
  <!-- Bus connections -->
  <!-- Address bus A15-A8 from P2 -->
  <line x1="185" y1="154" x2="230" y2="154" class="bus"/>
  <line x1="230" y1="154" x2="230" y2="100" class="bus"/>
  <line x1="230" y1="100" x2="400" y2="100" class="bus"/>
  <line x1="400" y1="100" x2="400" y2="120" class="bus"/>
  <line x1="400" y1="100" x2="400" y2="220" class="bus"/>
  <text x="315" y="95" class="signal-text">A15-A8</text>
  
  <!-- Address/Data bus AD7-AD0 to latch -->
  <line x1="185" y1="134" x2="250" y2="134" class="bus"/>
  <line x1="250" y1="134" x2="250" y2="150" class="bus"/>
  <text x="220" y="130" class="signal-text">AD7-AD0</text>
  
  <!-- ALE to latch enable -->
  <line x1="185" y1="173" x2="220" y2="173" class="wire"/>
  <line x1="220" y1="173" x2="220" y2="160" class="wire"/>
  <line x1="220" y1="160" x2="250" y2="160" class="wire"/>
  <text x="225" y="168" class="signal-text">ALE</text>
  
  <!-- Latched address A7-A0 -->
  <line x1="330" y1="150" x2="380" y2="150" class="bus"/>
  <line x1="380" y1="150" x2="380" y2="130" class="bus"/>
  <line x1="380" y1="130" x2="400" y2="130" class="bus"/>
  <line x1="380" y1="150" x2="380" y2="230" class="bus"/>
  <line x1="380" y1="230" x2="400" y2="230" class="bus"/>
  <text x="350" y="145" class="signal-text">A7-A0</text>
  
  <!-- Data bus D7-D0 -->
  <line x1="185" y1="134" x2="200" y2="134" class="bus"/>
  <line x1="200" y1="134" x2="200" y2="300" class="bus"/>
  <line x1="200" y1="300" x2="460" y2="300" class="bus"/>
  <line x1="460" y1="300" x2="460" y2="280" class="bus"/>
  <line x1="460" y1="300" x2="460" y2="160" class="bus"/>
  <text x="300" y="315" class="signal-text">D7-D0 (Data Bus)</text>
  
  <!-- Control signals -->
  <!-- PSEN to EPROM -->
  <line x1="185" y1="183" x2="210" y2="183" class="wire"/>
  <line x1="210" y1="183" x2="210" y2="320" class="wire"/>
  <line x1="210" y1="320" x2="480" y2="320" class="wire"/>
  <line x1="480" y1="320" x2="480" y2="160" class="wire"/>
  <text x="300" y="335" class="signal-text">PSEN (Program Store Enable)</text>
  
  <!-- RD to RAM -->
  <line x1="185" y1="193" x2="240" y2="193" class="wire"/>
  <line x1="240" y1="193" x2="240" y2="340" class="wire"/>
  <line x1="240" y1="340" x2="500" y2="340" class="wire"/>
  <line x1="500" y1="340" x2="500" y2="280" class="wire"/>
  <text x="350" y="355" class="signal-text">RD (Read Enable for Data Memory)</text>
  
  <!-- WR to RAM -->
  <line x1="185" y1="203" x2="260" y2="203" class="wire"/>
  <line x1="260" y1="203" x2="260" y2="360" class="wire"/>
  <line x1="260" y1="360" x2="520" y2="360" class="wire"/>
  <line x1="520" y1="360" x2="520" y2="280" class="wire"/>
  <text x="350" y="375" class="signal-text">WR (Write Enable for Data Memory)</text>
  
  <!-- EA pin connection -->
  <line x1="185" y1="223" x2="240" y2="223" class="wire"/>
  <line x1="240" y1="223" x2="240" y2="380" class="wire"/>
  <line x1="235" y1="380" x2="245" y2="380" stroke="#000" stroke-width="3"/>
  <text x="250" y="385" class="signal-text">EA = 0 (External Program Memory)</text>
  
  <!-- Memory organization -->
  <rect x="50" y="400" width="500" height="80" rx="5" fill="#f9f9f9" stroke="#000"/>
  <text x="300" y="420" text-anchor="middle" class="component-text" font-weight="bold">Memory Organization</text>
  
  <text x="70" y="440" class="component-text">Program Memory:</text>
  <text x="70" y="455" class="component-text">• EA = 0: External program memory used</text>
  <text x="70" y="470" class="component-text">• PSEN controls program memory read</text>
  
  <text x="320" y="440" class="component-text">Data Memory:</text>
  <text x="320" y="455" class="component-text">• Separate from program memory</text>
  <text x="320" y="470" class="component-text">• RD/WR controls data memory access</text>
</svg>
