<?xml version="1.0" encoding="UTF-8"?>
<svg width="700" height="500" xmlns="http://www.w3.org/2000/svg">
  <defs>
    <style>
      .component-text { font-family: Arial, sans-serif; font-size: 11px; fill: #000; }
      .register-text { font-family: Arial, sans-serif; font-size: 10px; fill: #000; }
      .bus-text { font-family: Arial, sans-serif; font-size: 9px; fill: #666; }
      .title-text { font-family: Arial, sans-serif; font-size: 16px; font-weight: bold; fill: #000; }
      .wire { stroke: #000; stroke-width: 1; fill: none; }
      .bus { stroke: #000; stroke-width: 2; fill: none; }
      .cpu { fill: #ffcccc; stroke: #000; stroke-width: 1; }
      .memory { fill: #ccffcc; stroke: #000; stroke-width: 1; }
      .io { fill: #ccccff; stroke: #000; stroke-width: 1; }
      .timer { fill: #ffffcc; stroke: #000; stroke-width: 1; }
      .interrupt { fill: #ffccff; stroke: #000; stroke-width: 1; }
    </style>
  </defs>
  
  <!-- Title -->
  <text x="350" y="25" text-anchor="middle" class="title-text">8051 Microcontroller Architecture</text>
  
  <!-- CPU Core -->
  <rect x="250" y="80" width="200" height="120" rx="10" class="cpu"/>
  <text x="350" y="100" text-anchor="middle" class="component-text" font-weight="bold">8051 CPU Core</text>
  
  <!-- ALU -->
  <rect x="280" y="110" width="60" height="30" class="cpu"/>
  <text x="310" y="128" text-anchor="middle" class="component-text">ALU</text>
  
  <!-- Accumulator -->
  <rect x="360" y="110" width="40" height="15" class="memory"/>
  <text x="380" y="120" text-anchor="middle" class="register-text">ACC</text>
  
  <!-- B Register -->
  <rect x="360" y="130" width="40" height="15" class="memory"/>
  <text x="380" y="140" text-anchor="middle" class="register-text">B Reg</text>
  
  <!-- PSW -->
  <rect x="360" y="150" width="40" height="15" class="memory"/>
  <text x="380" y="160" text-anchor="middle" class="register-text">PSW</text>
  
  <!-- Stack Pointer -->
  <rect x="280" y="150" width="40" height="15" class="memory"/>
  <text x="300" y="160" text-anchor="middle" class="register-text">SP</text>
  
  <!-- Data Pointer -->
  <rect x="280" y="170" width="40" height="15" class="memory"/>
  <text x="300" y="180" text-anchor="middle" class="register-text">DPTR</text>
  
  <!-- Program Counter -->
  <rect x="360" y="170" width="40" height="15" class="memory"/>
  <text x="380" y="180" text-anchor="middle" class="register-text">PC</text>
  
  <!-- Internal RAM -->
  <rect x="50" y="220" width="120" height="80" rx="5" class="memory"/>
  <text x="110" y="240" text-anchor="middle" class="component-text" font-weight="bold">Internal RAM</text>
  <text x="110" y="255" text-anchor="middle" class="component-text">256 Bytes</text>
  <text x="110" y="270" text-anchor="middle" class="component-text">• Lower 128B</text>
  <text x="110" y="285" text-anchor="middle" class="component-text">• Upper 128B (SFR)</text>
  
  <!-- Internal ROM -->
  <rect x="200" y="220" width="120" height="80" rx="5" class="memory"/>
  <text x="260" y="240" text-anchor="middle" class="component-text" font-weight="bold">Internal ROM</text>
  <text x="260" y="255" text-anchor="middle" class="component-text">4K Bytes</text>
  <text x="260" y="270" text-anchor="middle" class="component-text">Program Memory</text>
  <text x="260" y="285" text-anchor="middle" class="component-text">0000H - 0FFFH</text>
  
  <!-- Timer/Counter -->
  <rect x="350" y="220" width="100" height="80" rx="5" class="timer"/>
  <text x="400" y="240" text-anchor="middle" class="component-text" font-weight="bold">Timer/Counter</text>
  <text x="400" y="255" text-anchor="middle" class="component-text">Timer 0 (16-bit)</text>
  <text x="400" y="270" text-anchor="middle" class="component-text">Timer 1 (16-bit)</text>
  <text x="400" y="285" text-anchor="middle" class="component-text">4 Operating Modes</text>
  
  <!-- Serial Port -->
  <rect x="480" y="220" width="100" height="80" rx="5" class="io"/>
  <text x="530" y="240" text-anchor="middle" class="component-text" font-weight="bold">Serial Port</text>
  <text x="530" y="255" text-anchor="middle" class="component-text">UART</text>
  <text x="530" y="270" text-anchor="middle" class="component-text">4 Operating Modes</text>
  <text x="530" y="285" text-anchor="middle" class="component-text">TXD/RXD</text>
  
  <!-- Interrupt Control -->
  <rect x="50" y="320" width="120" height="60" rx="5" class="interrupt"/>
  <text x="110" y="340" text-anchor="middle" class="component-text" font-weight="bold">Interrupt System</text>
  <text x="110" y="355" text-anchor="middle" class="component-text">5 Interrupt Sources</text>
  <text x="110" y="370" text-anchor="middle" class="component-text">2 Priority Levels</text>
  
  <!-- I/O Ports -->
  <rect x="200" y="320" width="80" height="60" rx="5" class="io"/>
  <text x="240" y="340" text-anchor="middle" class="component-text" font-weight="bold">Port 0</text>
  <text x="240" y="355" text-anchor="middle" class="component-text">8-bit</text>
  <text x="240" y="370" text-anchor="middle" class="component-text">AD0-AD7</text>
  
  <rect x="300" y="320" width="80" height="60" rx="5" class="io"/>
  <text x="340" y="340" text-anchor="middle" class="component-text" font-weight="bold">Port 1</text>
  <text x="340" y="355" text-anchor="middle" class="component-text">8-bit</text>
  <text x="340" y="370" text-anchor="middle" class="component-text">General I/O</text>
  
  <rect x="400" y="320" width="80" height="60" rx="5" class="io"/>
  <text x="440" y="340" text-anchor="middle" class="component-text" font-weight="bold">Port 2</text>
  <text x="440" y="355" text-anchor="middle" class="component-text">8-bit</text>
  <text x="440" y="370" text-anchor="middle" class="component-text">A8-A15</text>
  
  <rect x="500" y="320" width="80" height="60" rx="5" class="io"/>
  <text x="540" y="340" text-anchor="middle" class="component-text" font-weight="bold">Port 3</text>
  <text x="540" y="355" text-anchor="middle" class="component-text">8-bit</text>
  <text x="540" y="370" text-anchor="middle" class="component-text">Special Functions</text>
  
  <!-- Clock Circuit -->
  <rect x="600" y="80" width="80" height="60" rx="5" class="timer"/>
  <text x="640" y="100" text-anchor="middle" class="component-text" font-weight="bold">Clock Circuit</text>
  <text x="640" y="115" text-anchor="middle" class="component-text">XTAL1/XTAL2</text>
  <text x="640" y="130" text-anchor="middle" class="component-text">Crystal Osc</text>
  
  <!-- Internal Bus -->
  <line x1="100" y1="400" x2="550" y2="400" class="bus"/>
  <text x="325" y="415" text-anchor="middle" class="bus-text" font-weight="bold">Internal Data Bus</text>
  
  <!-- Connections -->
  <line x1="350" y1="200" x2="350" y2="220" class="wire"/>
  <line x1="110" y1="300" x2="110" y2="400" class="wire"/>
  <line x1="260" y1="300" x2="260" y2="400" class="wire"/>
  <line x1="400" y1="300" x2="400" y2="400" class="wire"/>
  <line x1="530" y1="300" x2="530" y2="400" class="wire"/>
  <line x1="240" y1="380" x2="240" y2="400" class="wire"/>
  <line x1="340" y1="380" x2="340" y2="400" class="wire"/>
  <line x1="440" y1="380" x2="440" y2="400" class="wire"/>
  <line x1="540" y1="380" x2="540" y2="400" class="wire"/>
  
  <!-- External connections -->
  <text x="50" y="450" class="component-text" font-weight="bold">External Interface:</text>
  <text x="50" y="465" class="component-text">• External Program Memory (64K)</text>
  <text x="50" y="480" class="component-text">• External Data Memory (64K)</text>
  <text x="350" y="450" class="component-text" font-weight="bold">Special Features:</text>
  <text x="350" y="465" class="component-text">• Boolean Processor</text>
  <text x="350" y="480" class="component-text">• Bit-addressable RAM</text>
</svg>
