<?xml version="1.0" encoding="UTF-8"?>
<svg width="600" height="400" xmlns="http://www.w3.org/2000/svg">
  <defs>
    <style>
      .component-text { font-family: Arial, sans-serif; font-size: 12px; fill: #000; }
      .serial-text { font-family: Arial, sans-serif; font-size: 10px; fill: #333; }
      .mode-text { font-family: Arial, sans-serif; font-size: 9px; fill: #666; }
      .title-text { font-family: Arial, sans-serif; font-size: 16px; font-weight: bold; fill: #000; }
      .wire { stroke: #000; stroke-width: 1; fill: none; }
      .serial-block { fill: #ccffff; stroke: #000; stroke-width: 1; }
      .register-block { fill: #ccffcc; stroke: #000; stroke-width: 1; }
      .control-block { fill: #ffcccc; stroke: #000; stroke-width: 1; }
    </style>
  </defs>
  
  <!-- Title -->
  <text x="300" y="25" text-anchor="middle" class="title-text">8051 Serial Communication (UART)</text>
  
  <!-- 8051 Core -->
  <rect x="50" y="100" width="80" height="100" rx="5" fill="#f0f0f0" stroke="#000"/>
  <text x="90" y="120" text-anchor="middle" class="component-text" font-weight="bold">8051</text>
  <text x="90" y="135" text-anchor="middle" class="component-text">Core</text>
  
  <!-- Serial Port -->
  <rect x="180" y="120" width="120" height="80" rx="5" class="serial-block"/>
  <text x="240" y="140" text-anchor="middle" class="component-text" font-weight="bold">Serial Port (UART)</text>
  <text x="240" y="155" text-anchor="middle" class="serial-text">Full Duplex</text>
  <text x="240" y="170" text-anchor="middle" class="serial-text">TXD (P3.1)</text>
  <text x="240" y="185" text-anchor="middle" class="serial-text">RXD (P3.0)</text>
  
  <!-- Control Registers -->
  <rect x="350" y="80" width="100" height="50" rx="5" class="control-block"/>
  <text x="400" y="100" text-anchor="middle" class="component-text" font-weight="bold">SCON Register</text>
  <text x="400" y="115" text-anchor="middle" class="serial-text">Serial Control</text>
  <text x="400" y="125" text-anchor="middle" class="serial-text">Address: 98H</text>
  
  <rect x="350" y="150" width="100" height="50" rx="5" class="register-block"/>
  <text x="400" y="170" text-anchor="middle" class="component-text" font-weight="bold">SBUF Register</text>
  <text x="400" y="185" text-anchor="middle" class="serial-text">Serial Buffer</text>
  <text x="400" y="195" text-anchor="middle" class="serial-text">Address: 99H</text>
  
  <!-- External connections -->
  <rect x="480" y="120" width="100" height="50" rx="5" class="serial-block"/>
  <text x="530" y="140" text-anchor="middle" class="component-text" font-weight="bold">External Device</text>
  <text x="530" y="155" text-anchor="middle" class="serial-text">PC/Terminal</text>
  
  <!-- Baud Rate Generator -->
  <rect x="180" y="220" width="120" height="50" rx="5" class="control-block"/>
  <text x="240" y="240" text-anchor="middle" class="component-text" font-weight="bold">Baud Rate</text>
  <text x="240" y="255" text-anchor="middle" class="component-text">Generator</text>
  
  <!-- Timer 1 for baud rate -->
  <rect x="50" y="220" width="80" height="50" rx="5" fill="#ffffcc" stroke="#000"/>
  <text x="90" y="240" text-anchor="middle" class="component-text">Timer 1</text>
  <text x="90" y="255" text-anchor="middle" class="serial-text">(Mode 2)</text>
  
  <!-- Connections -->
  <line x1="130" y1="150" x2="180" y2="150" class="wire"/>
  <line x1="300" y1="150" x2="350" y2="150" class="wire"/>
  <line x1="300" y1="160" x2="320" y2="160" class="wire"/>
  <line x1="320" y1="160" x2="320" y2="175" class="wire"/>
  <line x1="320" y1="175" x2="350" y2="175" class="wire"/>
  
  <line x1="450" y1="145" x2="480" y2="145" class="wire"/>
  <line x1="240" y1="220" x2="240" y2="200" class="wire"/>
  <line x1="130" y1="245" x2="180" y2="245" class="wire"/>
  
  <!-- TXD/RXD lines -->
  <line x1="480" y1="135" x2="470" y2="135" class="wire"/>
  <line x1="470" y1="135" x2="470" y2="170" class="wire"/>
  <line x1="470" y1="170" x2="300" y2="170" class="wire"/>
  <text x="385" y="130" class="serial-text">TXD</text>
  
  <line x1="480" y1="155" x2="460" y2="155" class="wire"/>
  <line x1="460" y1="155" x2="460" y2="185" class="wire"/>
  <line x1="460" y1="185" x2="300" y2="185" class="wire"/>
  <text x="385" y="190" class="serial-text">RXD</text>
  
  <!-- Serial Communication Modes -->
  <rect x="50" y="290" width="500" height="100" rx="5" fill="#f9f9f9" stroke="#000"/>
  <text x="300" y="310" text-anchor="middle" class="component-text" font-weight="bold">Serial Communication Modes</text>
  
  <text x="70" y="330" class="component-text" font-weight="bold">Mode 0:</text>
  <text x="70" y="345" class="mode-text">Synchronous, 8-bit shift register, Fixed baud rate (fosc/12)</text>
  
  <text x="70" y="360" class="component-text" font-weight="bold">Mode 1:</text>
  <text x="70" y="375" class="mode-text">Asynchronous, 10-bit (1 start + 8 data + 1 stop), Variable baud rate</text>
  
  <text x="320" y="330" class="component-text" font-weight="bold">Mode 2:</text>
  <text x="320" y="345" class="mode-text">Asynchronous, 11-bit (1 start + 8 data + 1 parity + 1 stop)</text>
  
  <text x="320" y="360" class="component-text" font-weight="bold">Mode 3:</text>
  <text x="320" y="375" class="mode-text">Asynchronous, 11-bit, Variable baud rate</text>
  
  <!-- SCON Register Detail -->
  <g id="scon-detail" transform="translate(470, 80)">
    <rect x="0" y="0" width="120" height="100" rx="5" fill="#ffe6e6" stroke="#000"/>
    <text x="60" y="15" text-anchor="middle" class="component-text" font-size="10" font-weight="bold">SCON Register</text>
    
    <text x="5" y="30" class="mode-text">SM0 (Bit 7)</text>
    <text x="5" y="42" class="mode-text">SM1 (Bit 6)</text>
    <text x="5" y="54" class="mode-text">SM2 (Bit 5)</text>
    <text x="5" y="66" class="mode-text">REN (Bit 4)</text>
    <text x="5" y="78" class="mode-text">TB8 (Bit 3)</text>
    <text x="5" y="90" class="mode-text">RB8 (Bit 2)</text>
    
    <text x="65" y="30" class="mode-text">Mode Select</text>
    <text x="65" y="42" class="mode-text">Mode Select</text>
    <text x="65" y="54" class="mode-text">Multiprocessor</text>
    <text x="65" y="66" class="mode-text">Receive Enable</text>
    <text x="65" y="78" class="mode-text">Transmit Bit 8</text>
    <text x="65" y="90" class="mode-text">Receive Bit 8</text>
  </g>
  
  <!-- Baud Rate Calculation -->
  <g id="baud-calc" transform="translate(350, 220)">
    <rect x="0" y="0" width="200" height="60" rx="5" fill="#f0f0f0" stroke="#000"/>
    <text x="100" y="20" text-anchor="middle" class="component-text" font-weight="bold">Baud Rate Calculation</text>
    <text x="10" y="35" class="mode-text">Mode 1 &amp; 3: Baud Rate = (2^SMOD/32) × Timer1 Overflow</text>
    <text x="10" y="50" class="mode-text">Mode 2: Baud Rate = (2^SMOD/64) × fosc</text>
  </g>
</svg>
