<?xml version="1.0" encoding="UTF-8"?>
<svg width="500" height="300" xmlns="http://www.w3.org/2000/svg">
  <defs>
    <style>
      .component-text { font-family: Arial, sans-serif; font-size: 12px; fill: #000; }
      .pin-text { font-family: Arial, sans-serif; font-size: 10px; fill: #333; }
      .value-text { font-family: Arial, sans-serif; font-size: 10px; fill: #666; }
      .wire { stroke: #000; stroke-width: 2; fill: none; }
      .component { fill: #f0f0f0; stroke: #000; stroke-width: 1; }
      .crystal { fill: #ffffcc; stroke: #000; stroke-width: 1; }
    </style>
  </defs>
  
  <!-- Title -->
  <text x="250" y="25" text-anchor="middle" class="component-text" font-size="16" font-weight="bold">8051 Clock Circuit</text>
  
  <!-- 8051 Microcontroller (partial) -->
  <rect x="200" y="100" width="100" height="120" rx="5" class="component"/>
  <text x="250" y="115" text-anchor="middle" class="component-text" font-weight="bold">8051</text>
  <text x="250" y="130" text-anchor="middle" class="component-text">μC</text>
  
  <!-- XTAL1 pin -->
  <circle cx="200" cy="150" r="3" fill="#000"/>
  <text x="185" y="155" text-anchor="end" class="pin-text">XTAL1</text>
  <text x="185" y="167" text-anchor="end" class="pin-text">Pin 19</text>
  
  <!-- XTAL2 pin -->
  <circle cx="200" cy="180" r="3" fill="#000"/>
  <text x="185" y="185" text-anchor="end" class="pin-text">XTAL2</text>
  <text x="185" y="197" text-anchor="end" class="pin-text">Pin 18</text>
  
  <!-- Crystal Oscillator -->
  <rect x="80" y="155" width="40" height="20" rx="3" class="crystal"/>
  <text x="100" y="168" text-anchor="middle" class="component-text" font-size="10">CRYSTAL</text>
  <text x="100" y="180" text-anchor="middle" class="value-text">12 MHz</text>
  
  <!-- Capacitor C1 -->
  <g id="cap1">
    <line x1="145" y1="150" x2="155" y2="150" class="wire"/>
    <line x1="155" y1="145" x2="155" y2="155" stroke="#000" stroke-width="2"/>
    <line x1="160" y1="145" x2="160" y2="155" stroke="#000" stroke-width="2"/>
    <line x1="160" y1="150" x2="170" y2="150" class="wire"/>
    <text x="157" y="140" text-anchor="middle" class="value-text">C1</text>
    <text x="157" y="195" text-anchor="middle" class="value-text">30pF</text>
  </g>
  
  <!-- Capacitor C2 -->
  <g id="cap2">
    <line x1="145" y1="180" x2="155" y2="180" class="wire"/>
    <line x1="155" y1="175" x2="155" y2="185" stroke="#000" stroke-width="2"/>
    <line x1="160" y1="175" x2="160" y2="185" stroke="#000" stroke-width="2"/>
    <line x1="160" y1="180" x2="170" y2="180" class="wire"/>
    <text x="157" y="205" text-anchor="middle" class="value-text">C2</text>
    <text x="157" y="215" text-anchor="middle" class="value-text">30pF</text>
  </g>
  
  <!-- Ground connections -->
  <g id="ground1">
    <line x1="170" y1="150" x2="170" y2="225" class="wire"/>
    <line x1="165" y1="225" x2="175" y2="225" stroke="#000" stroke-width="3"/>
    <line x1="167" y1="230" x2="173" y2="230" stroke="#000" stroke-width="2"/>
    <line x1="169" y1="235" x2="171" y2="235" stroke="#000" stroke-width="1"/>
    <text x="180" y="230" class="value-text">GND</text>
  </g>
  
  <g id="ground2">
    <line x1="170" y1="180" x2="170" y2="225" class="wire"/>
  </g>
  
  <!-- Wiring -->
  <!-- Crystal to XTAL1 -->
  <line x1="120" y1="165" x2="145" y2="165" class="wire"/>
  <line x1="145" y1="165" x2="145" y2="150" class="wire"/>
  <line x1="145" y1="150" x2="200" y2="150" class="wire"/>
  
  <!-- Crystal to XTAL2 -->
  <line x1="120" y1="165" x2="135" y2="165" class="wire"/>
  <line x1="135" y1="165" x2="135" y2="180" class="wire"/>
  <line x1="135" y1="180" x2="145" y2="180" class="wire"/>
  <line x1="170" y1="180" x2="200" y2="180" class="wire"/>
  
  <!-- Crystal connections -->
  <line x1="80" y1="165" x2="70" y2="165" class="wire"/>
  <line x1="70" y1="165" x2="70" y2="150" class="wire"/>
  <line x1="70" y1="150" x2="145" y2="150" class="wire"/>
  
  <line x1="80" y1="165" x2="70" y2="165" class="wire"/>
  <line x1="70" y1="165" x2="70" y2="180" class="wire"/>
  <line x1="70" y1="180" x2="135" y2="180" class="wire"/>
  
  <!-- Internal Clock Generation Block -->
  <rect x="350" y="140" width="80" height="50" rx="5" class="component"/>
  <text x="390" y="155" text-anchor="middle" class="component-text" font-size="10">Internal</text>
  <text x="390" y="167" text-anchor="middle" class="component-text" font-size="10">Clock</text>
  <text x="390" y="179" text-anchor="middle" class="component-text" font-size="10">Generator</text>
  
  <!-- Connection from microcontroller to clock generator -->
  <line x1="300" y1="165" x2="350" y2="165" class="wire"/>
  <text x="325" y="160" text-anchor="middle" class="value-text">Clock Signal</text>
  
  <!-- Frequency notes -->
  <text x="250" y="260" text-anchor="middle" class="component-text" font-size="11">Typical Crystal Frequencies:</text>
  <text x="250" y="275" text-anchor="middle" class="value-text">11.0592 MHz, 12 MHz, 16 MHz</text>
  <text x="250" y="290" text-anchor="middle" class="value-text">Machine Cycle = Crystal Frequency ÷ 12</text>
</svg>
