<?xml version="1.0" encoding="UTF-8"?>
<svg width="600" height="400" xmlns="http://www.w3.org/2000/svg">
  <defs>
    <style>
      .component-text { font-family: Arial, sans-serif; font-size: 12px; fill: #000; }
      .address-text { font-family: Arial, sans-serif; font-size: 10px; fill: #333; }
      .memory-block { fill: #e6f3ff; stroke: #000; stroke-width: 1; }
      .sfr-block { fill: #ffe6e6; stroke: #000; stroke-width: 1; }
      .bit-block { fill: #e6ffe6; stroke: #000; stroke-width: 1; }
      .register-block { fill: #fff3e6; stroke: #000; stroke-width: 1; }
    </style>
  </defs>
  
  <!-- Title -->
  <text x="300" y="25" text-anchor="middle" class="component-text" font-size="16" font-weight="bold">8051 Internal RAM Organization</text>
  
  <!-- Memory blocks -->
  <!-- Bank 3 (Register Bank 3) -->
  <rect x="100" y="50" width="150" height="30" class="register-block"/>
  <text x="120" y="68" class="component-text">Register Bank 3</text>
  <text x="260" y="68" class="address-text">18H-1FH</text>
  
  <!-- Bank 2 (Register Bank 2) -->
  <rect x="100" y="80" width="150" height="30" class="register-block"/>
  <text x="120" y="98" class="component-text">Register Bank 2</text>
  <text x="260" y="98" class="address-text">10H-17H</text>
  
  <!-- Bank 1 (Register Bank 1) -->
  <rect x="100" y="110" width="150" height="30" class="register-block"/>
  <text x="120" y="128" class="component-text">Register Bank 1</text>
  <text x="260" y="128" class="address-text">08H-0FH</text>
  
  <!-- Bank 0 (Register Bank 0) -->
  <rect x="100" y="140" width="150" height="30" class="register-block"/>
  <text x="120" y="158" class="component-text">Register Bank 0</text>
  <text x="260" y="158" class="address-text">00H-07H</text>
  
  <!-- Bit Addressable Area -->
  <rect x="100" y="170" width="150" height="40" class="bit-block"/>
  <text x="120" y="188" class="component-text">Bit Addressable Area</text>
  <text x="120" y="202" class="component-text">(16 bytes, 128 bits)</text>
  <text x="260" y="195" class="address-text">20H-2FH</text>
  
  <!-- General Purpose RAM -->
  <rect x="100" y="210" width="150" height="50" class="memory-block"/>
  <text x="120" y="230" class="component-text">General Purpose</text>
  <text x="120" y="245" class="component-text">RAM (80 bytes)</text>
  <text x="260" y="240" class="address-text">30H-7FH</text>
  
  <!-- Stack Area (part of general purpose) -->
  <rect x="270" y="210" width="120" height="25" class="memory-block" stroke="#ff0000" stroke-dasharray="3,3"/>
  <text x="280" y="225" class="component-text" fill="#ff0000">Stack Area</text>
  
  <!-- SFR Area -->
  <rect x="100" y="270" width="150" height="40" class="sfr-block"/>
  <text x="120" y="288" class="component-text">Special Function</text>
  <text x="120" y="302" class="component-text">Registers (SFR)</text>
  <text x="260" y="295" class="address-text">80H-FFH</text>
  
  <!-- Register Bank Details -->
  <rect x="350" y="50" width="200" height="120" rx="5" fill="#f9f9f9" stroke="#000"/>
  <text x="450" y="70" text-anchor="middle" class="component-text" font-weight="bold">Register Banks (R0-R7)</text>
  
  <text x="360" y="90" class="component-text">Bank 0 (Default): 00H-07H</text>
  <text x="370" y="102" class="address-text">R0=00H, R1=01H, ..., R7=07H</text>
  
  <text x="360" y="120" class="component-text">Bank 1: 08H-0FH</text>
  <text x="370" y="132" class="address-text">R0=08H, R1=09H, ..., R7=0FH</text>
  
  <text x="360" y="150" class="component-text">Bank 2: 10H-17H</text>
  <text x="360" y="162" class="component-text">Bank 3: 18H-1FH</text>
  
  <!-- Bit Addressable Details -->
  <rect x="350" y="180" width="200" height="80" rx="5" fill="#f9f9f9" stroke="#000"/>
  <text x="450" y="200" text-anchor="middle" class="component-text" font-weight="bold">Bit Addressing</text>
  
  <text x="360" y="220" class="component-text">Byte 20H → Bits 00H-07H</text>
  <text x="360" y="235" class="component-text">Byte 21H → Bits 08H-0FH</text>
  <text x="360" y="250" class="component-text">...</text>
  <text x="360" y="265" class="component-text">Byte 2FH → Bits 78H-7FH</text>
  
  <!-- SFR Details -->
  <rect x="100" y="320" width="450" height="60" rx="5" fill="#f9f9f9" stroke="#000"/>
  <text x="325" y="340" text-anchor="middle" class="component-text" font-weight="bold">Important SFRs</text>
  
  <text x="120" y="360" class="component-text">ACC (E0H), B (F0H), PSW (D0H), SP (81H)</text>
  <text x="120" y="375" class="component-text">DPTR: DPH (83H), DPL (82H), PC (Program Counter)</text>
  
  <!-- Address indicators -->
  <text x="50" y="68" class="address-text">1FH</text>
  <text x="50" y="158" class="address-text">00H</text>
  <text x="50" y="195" class="address-text">2FH</text>
  <text x="50" y="240" class="address-text">7FH</text>
  <text x="50" y="295" class="address-text">FFH</text>
  <text x="50" y="305" class="address-text">80H</text>
  
  <!-- Memory size indicator -->
  <text x="20" y="200" class="component-text" font-weight="bold" transform="rotate(-90 20 200)">128 Bytes</text>
  <text x="20" y="290" class="component-text" font-weight="bold" transform="rotate(-90 20 290)">128 Bytes</text>
</svg>
