<svg viewBox="0 0 900 700" xmlns="http://www.w3.org/2000/svg">
  <defs>
    <style>
      .title { font-family: Arial, sans-serif; font-size: 20px; font-weight: bold; fill: #2c3e50; text-anchor: middle; }
      .label { font-family: Arial, sans-serif; font-size: 12px; fill: #2c3e50; text-anchor: middle; }
      .small-label { font-family: Arial, sans-serif; font-size: 10px; fill: #2c3e50; text-anchor: middle; }
      .cpu-block { stroke: #e74c3c; stroke-width: 2; fill: #fdedec; }
      .alu-block { stroke: #f39c12; stroke-width: 2; fill: #fef9e7; }
      .control-block { stroke: #9b59b6; stroke-width: 2; fill: #f4f0ff; }
      .register-block { stroke: #27ae60; stroke-width: 2; fill: #eafaf1; }
      .bus-block { stroke: #3498db; stroke-width: 2; fill: #ebf5fb; }
      .connection-line { stroke: #34495e; stroke-width: 2; fill: none; }
      .data-flow { stroke: #e74c3c; stroke-width: 3; fill: none; marker-end: url(#arrowhead); }
      .control-flow { stroke: #9b59b6; stroke-width: 2; fill: none; stroke-dasharray: 5,5; }
    </style>
  </defs>

  <!-- Arrow marker definition -->
  <defs>
    <marker id="arrowhead" markerWidth="10" markerHeight="7" 
     refX="10" refY="3.5" orient="auto">
      <polygon points="0 0, 10 3.5, 0 7" fill="#e74c3c"/>
    </marker>
  </defs>

  <!-- Title -->
  <text x="450" y="25" class="title">8051 Detailed Architecture Block Diagram</text>

  <!-- CPU Core -->
  <g class="cpu-core">
    <rect x="350" y="60" width="200" height="150" class="cpu-block"/>
    <text x="450" y="85" class="label">8051 CPU Core</text>
    
    <!-- ALU -->
    <rect x="370" y="100" width="80" height="50" class="alu-block"/>
    <text x="410" y="120" class="small-label">ALU</text>
    <text x="410" y="135" class="small-label">Arithmetic &amp;</text>
    <text x="410" y="145" class="small-label">Logic Unit</text>
    
    <!-- Accumulator -->
    <rect x="460" y="100" width="40" height="25" class="register-block"/>
    <text x="480" y="117" class="small-label">ACC</text>
    
    <!-- B Register -->
    <rect x="460" y="130" width="40" height="25" class="register-block"/>
    <text x="480" y="147" class="small-label">B Reg</text>
    
    <!-- PSW -->
    <rect x="510" y="100" width="30" height="25" class="register-block"/>
    <text x="525" y="117" class="small-label">PSW</text>
    
    <!-- Boolean Processor -->
    <rect x="370" y="160" width="80" height="35" class="control-block"/>
    <text x="410" y="180" class="small-label">Boolean</text>
    <text x="410" y="190" class="small-label">Processor</text>
    
    <!-- Instruction Processing -->
    <rect x="460" y="160" width="80" height="35" class="control-block"/>
    <text x="500" y="180" class="small-label">Instruction</text>
    <text x="500" y="190" class="small-label">Decoder</text>
  </g>

  <!-- Memory Blocks -->
  <g class="memory-section">
    <!-- Program Memory -->
    <rect x="50" y="100" width="120" height="100" class="bus-block"/>
    <text x="110" y="125" class="label">Program Memory</text>
    <text x="110" y="140" class="small-label">4KB Internal ROM</text>
    <text x="110" y="155" class="small-label">64KB External ROM</text>
    <text x="110" y="170" class="small-label">(via PSEN)</text>
    <text x="110" y="185" class="small-label">0000H-FFFFH</text>
    
    <!-- Data Memory -->
    <rect x="50" y="230" width="120" height="100" class="register-block"/>
    <text x="110" y="255" class="label">Data Memory</text>
    <text x="110" y="270" class="small-label">128B Internal RAM</text>
    <text x="110" y="285" class="small-label">64KB External RAM</text>
    <text x="110" y="300" class="small-label">(via RD/WR)</text>
    <text x="110" y="315" class="small-label">00H-FFFFH</text>
  </g>

  <!-- Special Function Registers -->
  <g class="sfr-section">
    <rect x="200" y="100" width="120" height="230" class="control-block"/>
    <text x="260" y="125" class="label">Special Function</text>
    <text x="260" y="140" class="label">Registers (SFR)</text>
    
    <!-- Key SFRs -->
    <rect x="220" y="155" width="80" height="15" fill="#e8f4fd" stroke="#1976d2"/>
    <text x="260" y="167" class="small-label">PC - Program Counter</text>
    
    <rect x="220" y="175" width="80" height="15" fill="#fff3e0" stroke="#f57c00"/>
    <text x="260" y="187" class="small-label">DPTR - Data Pointer</text>
    
    <rect x="220" y="195" width="80" height="15" fill="#f3e5f5" stroke="#7b1fa2"/>
    <text x="260" y="207" class="small-label">SP - Stack Pointer</text>
    
    <rect x="220" y="215" width="80" height="15" fill="#e8f5e8" stroke="#388e3c"/>
    <text x="260" y="227" class="small-label">P0, P1, P2, P3</text>
    
    <rect x="220" y="235" width="80" height="15" fill="#fce4ec" stroke="#c2185b"/>
    <text x="260" y="247" class="small-label">TCON, TMOD</text>
    
    <rect x="220" y="255" width="80" height="15" fill="#f0f9ff" stroke="#0ea5e9"/>
    <text x="260" y="267" class="small-label">SCON, SBUF</text>
    
    <rect x="220" y="275" width="80" height="15" fill="#f0fdf4" stroke="#22c55e"/>
    <text x="260" y="287" class="small-label">IE, IP</text>
    
    <rect x="220" y="295" width="80" height="15" fill="#fdf4ff" stroke="#a855f7"/>
    <text x="260" y="307" class="small-label">TH0, TL0, TH1, TL1</text>
    
    <text x="260" y="325" class="small-label">Address Range:</text>
    <text x="260" y="338" class="small-label">80H - FFH</text>
  </g>

  <!-- I/O Ports -->
  <g class="io-ports">
    <rect x="600" y="100" width="150" height="200" class="bus-block"/>
    <text x="675" y="125" class="label">I/O Ports</text>
    
    <!-- Port 0 -->
    <rect x="620" y="140" width="110" height="25" fill="#ffebee" stroke="#f44336"/>
    <text x="675" y="157" class="small-label">Port 0 (P0.0-P0.7)</text>
    
    <!-- Port 1 -->
    <rect x="620" y="170" width="110" height="25" fill="#fff3e0" stroke="#ff9800"/>
    <text x="675" y="187" class="small-label">Port 1 (P1.0-P1.7)</text>
    
    <!-- Port 2 -->
    <rect x="620" y="200" width="110" height="25" fill="#e8f5e8" stroke="#4caf50"/>
    <text x="675" y="217" class="small-label">Port 2 (P2.0-P2.7)</text>
    
    <!-- Port 3 -->
    <rect x="620" y="230" width="110" height="25" fill="#e3f2fd" stroke="#2196f3"/>
    <text x="675" y="247" class="small-label">Port 3 (P3.0-P3.7)</text>
    
    <text x="675" y="275" class="small-label">32 I/O pins total</text>
    <text x="675" y="290" class="small-label">Bidirectional</text>
  </g>

  <!-- Timers/Counters -->
  <g class="timers-section">
    <rect x="780" y="100" width="100" height="120" class="alu-block"/>
    <text x="830" y="125" class="label">Timers/</text>
    <text x="830" y="140" class="label">Counters</text>
    
    <rect x="790" y="155" width="80" height="25" fill="#fcf3cf" stroke="#f39c12"/>
    <text x="830" y="172" class="small-label">Timer 0 (16-bit)</text>
    
    <rect x="790" y="185" width="80" height="25" fill="#fcf3cf" stroke="#f39c12"/>
    <text x="830" y="202" class="small-label">Timer 1 (16-bit)</text>
  </g>

  <!-- Serial Port -->
  <g class="serial-section">
    <rect x="780" y="240" width="100" height="80" class="control-block"/>
    <text x="830" y="265" class="label">Serial Port</text>
    <text x="830" y="280" class="small-label">Full Duplex UART</text>
    <text x="830" y="295" class="small-label">TXD/RXD</text>
    <text x="830" y="310" class="small-label">4 Operating Modes</text>
  </g>

  <!-- Interrupt System -->
  <g class="interrupt-section">
    <rect x="600" y="340" width="280" height="100" class="register-block"/>
    <text x="740" y="365" class="label">Interrupt System</text>
    
    <rect x="620" y="380" width="60" height="20" fill="#ffeaa7" stroke="#fdcb6e"/>
    <text x="650" y="395" class="small-label">INT0</text>
    
    <rect x="690" y="380" width="60" height="20" fill="#fab1a0" stroke="#e17055"/>
    <text x="720" y="395" class="small-label">INT1</text>
    
    <rect x="760" y="380" width="60" height="20" fill="#fd79a8" stroke="#e84393"/>
    <text x="790" y="395" class="small-label">Timer 0</text>
    
    <rect x="620" y="405" width="60" height="20" fill="#fdcb6e" stroke="#f39c12"/>
    <text x="650" y="420" class="small-label">Timer 1</text>
    
    <rect x="690" y="405" width="60" height="20" fill="#a29bfe" stroke="#6c5ce7"/>
    <text x="720" y="420" class="small-label">Serial</text>
    
    <text x="790" y="420" class="small-label">5 Interrupt Sources</text>
  </g>

  <!-- Oscillator and Clock -->
  <g class="clock-section">
    <rect x="50" y="370" width="120" height="80" class="alu-block"/>
    <text x="110" y="395" class="label">Oscillator &amp;</text>
    <text x="110" y="410" class="label">Clock Circuit</text>
    <text x="110" y="425" class="small-label">XTAL1, XTAL2</text>
    <text x="110" y="440" class="small-label">Internal clock gen</text>
  </g>

  <!-- Control Unit -->
  <g class="main-control">
    <rect x="200" y="370" width="280" height="80" class="control-block"/>
    <text x="340" y="395" class="label">Timing and Control Unit</text>
    <text x="340" y="410" class="small-label">• Instruction fetch/decode/execute control</text>
    <text x="340" y="425" class="small-label">• Memory and I/O timing signals</text>
    <text x="340" y="440" class="small-label">• Interrupt handling coordination</text>
  </g>

  <!-- Bus System -->
  <g class="bus-system">
    <rect x="50" y="480" width="830" height="180" stroke="#34495e" stroke-width="2" fill="#f8f9fa"/>
    <text x="465" y="505" class="label">Internal Bus System and Data Flow</text>
    
    <!-- Internal Data Bus -->
    <line x1="80" y1="530" x2="850" y2="530" stroke="#e74c3c" stroke-width="4"/>
    <text x="465" y="525" class="small-label">Internal Data Bus (8-bit)</text>
    
    <!-- Address Bus -->
    <line x1="80" y1="560" x2="850" y2="560" stroke="#3498db" stroke-width="4"/>
    <text x="465" y="555" class="small-label">Internal Address Bus (16-bit)</text>
    
    <!-- Control Bus -->
    <line x1="80" y1="590" x2="850" y2="590" stroke="#9b59b6" stroke-width="4"/>
    <text x="465" y="585" class="small-label">Internal Control Bus</text>
    
    <!-- Data Flow Description -->
    <text x="150" y="620" class="label">Key Data Paths:</text>
    <text x="150" y="635" class="small-label">• Program Counter → Program Memory Address</text>
    <text x="150" y="650" class="small-label">• Instruction → CPU → Instruction Decoder</text>
    
    <text x="550" y="620" class="label">Control Signals:</text>
    <text x="550" y="635" class="small-label">• PSEN: Program Store Enable</text>
    <text x="550" y="650" class="small-label">• ALE: Address Latch Enable</text>
  </g>

  <!-- Connection lines -->
  <path d="M 170 150 L 200 150" class="connection-line"/>
  <path d="M 320 150 L 350 150" class="connection-line"/>
  <path d="M 550 150 L 600 150" class="connection-line"/>
  <path d="M 450 210 L 450 240" class="connection-line"/>
  <path d="M 450 240 L 340 240" class="connection-line"/>
  
  <!-- Data flow arrows -->
  <path d="M 170 280 L 200 280" class="data-flow"/>
  <path d="M 320 200 L 350 200" class="data-flow"/>
  <path d="M 550 130 L 600 130" class="data-flow"/>
  
  <!-- Control flow lines -->
  <path d="M 340 370 L 450 210" class="control-flow"/>
  <path d="M 340 370 L 740 340" class="control-flow"/>
</svg>
