<svg viewBox="0 0 900 650" xmlns="http://www.w3.org/2000/svg">
  <defs>
    <style>
      .title { font-family: Arial, sans-serif; font-size: 20px; font-weight: bold; fill: #2c3e50; text-anchor: middle; }
      .label { font-family: Arial, sans-serif; font-size: 12px; fill: #2c3e50; text-anchor: middle; }
      .small-label { font-family: Arial, sans-serif; font-size: 10px; fill: #2c3e50; text-anchor: middle; }
      .memory-section { stroke: #3498db; stroke-width: 2; fill: #ebf5fb; }
      .register-section { stroke: #e74c3c; stroke-width: 2; fill: #fdedec; }
      .bit-section { stroke: #f39c12; stroke-width: 2; fill: #fef9e7; }
      .stack-section { stroke: #27ae60; stroke-width: 2; fill: #eafaf1; }
      .address-text { font-family: monospace; font-size: 10px; fill: #2c3e50; text-anchor: middle; }
    </style>
  </defs>

  <!-- Title -->
  <text x="450" y="25" class="title">8051 Internal RAM Organization (128 Bytes)</text>

  <!-- RAM Overview -->
  <g class="ram-overview">
    <rect x="50" y="50" width="800" height="60" class="memory-section"/>
    <text x="450" y="75" class="label">Internal RAM Address Space: 00H to 7FH (128 bytes)</text>
    <text x="450" y="95" class="small-label">Organized into Register Banks, Bit-Addressable Area, and General Purpose RAM</text>
  </g>

  <!-- Register Banks (00H-1FH) -->
  <g class="register-banks">
    <rect x="50" y="130" width="200" height="180" class="register-section"/>
    <text x="150" y="150" class="label">Register Banks</text>
    <text x="150" y="165" class="small-label">00H - 1FH (32 bytes)</text>
    
    <!-- Bank 0 -->
    <rect x="60" y="175" width="180" height="25" fill="#e8f6f3" stroke="#1abc9c"/>
    <text x="150" y="192" class="small-label">Bank 0 (00H-07H): R0-R7</text>
    
    <!-- Bank 1 -->
    <rect x="60" y="205" width="180" height="25" fill="#ebf5fb" stroke="#3498db"/>
    <text x="150" y="222" class="small-label">Bank 1 (08H-0FH): R0-R7</text>
    
    <!-- Bank 2 -->
    <rect x="60" y="235" width="180" height="25" fill="#fdf2e9" stroke="#f39c12"/>
    <text x="150" y="252" class="small-label">Bank 2 (10H-17H): R0-R7</text>
    
    <!-- Bank 3 -->
    <rect x="60" y="265" width="180" height="25" fill="#fdedec" stroke="#e74c3c"/>
    <text x="150" y="282" class="small-label">Bank 3 (18H-1FH): R0-R7</text>
    
    <text x="150" y="300" class="small-label">Active bank selected by PSW.3-PSW.4</text>
  </g>

  <!-- Bit-Addressable Area (20H-2FH) -->
  <g class="bit-addressable">
    <rect x="270" y="130" width="200" height="180" class="bit-section"/>
    <text x="370" y="150" class="label">Bit-Addressable RAM</text>
    <text x="370" y="165" class="small-label">20H - 2FH (16 bytes)</text>
    
    <!-- Bit addresses -->
    <rect x="280" y="175" width="180" height="20" fill="#fff3cd" stroke="#ffc107"/>
    <text x="370" y="188" class="small-label">128 individual bits (00H-7FH)</text>
    
    <rect x="280" y="200" width="180" height="15" fill="#f8f9fa" stroke="#6c757d"/>
    <text x="370" y="210" class="address-text">Byte 20H: Bits 00H-07H</text>
    
    <rect x="280" y="220" width="180" height="15" fill="#f8f9fa" stroke="#6c757d"/>
    <text x="370" y="230" class="address-text">Byte 21H: Bits 08H-0FH</text>
    
    <text x="370" y="250" class="small-label">...</text>
    
    <rect x="280" y="260" width="180" height="15" fill="#f8f9fa" stroke="#6c757d"/>
    <text x="370" y="270" class="address-text">Byte 2FH: Bits 78H-7FH</text>
    
    <text x="370" y="290" class="small-label">Can be accessed as individual bits</text>
    <text x="370" y="305" class="small-label">or as bytes</text>
  </g>

  <!-- General Purpose RAM (30H-7FH) -->
  <g class="general-purpose">
    <rect x="490" y="130" width="200" height="180" class="stack-section"/>
    <text x="590" y="150" class="label">General Purpose RAM</text>
    <text x="590" y="165" class="small-label">30H - 7FH (80 bytes)</text>
    
    <!-- Stack area -->
    <rect x="500" y="175" width="180" height="40" fill="#d5f4e6" stroke="#27ae60"/>
    <text x="590" y="195" class="small-label">Stack Area</text>
    <text x="590" y="210" class="small-label">(SP starts at 07H by default)</text>
    
    <!-- Variable storage -->
    <rect x="500" y="220" width="180" height="60" fill="#e8f5e8" stroke="#52c41a"/>
    <text x="590" y="240" class="small-label">User Variables</text>
    <text x="590" y="255" class="small-label">Arrays</text>
    <text x="590" y="270" class="small-label">Temporary Data</text>
    
    <text x="590" y="295" class="small-label">80 bytes available for</text>
    <text x="590" y="308" class="small-label">user data storage</text>
  </g>

  <!-- Stack Pointer Details -->
  <g class="stack-details">
    <rect x="710" y="130" width="140" height="180" class="register-section"/>
    <text x="780" y="150" class="label">Stack Pointer</text>
    <text x="780" y="165" class="small-label">(SP Register)</text>
    
    <rect x="720" y="175" width="120" height="25" fill="#ffeaa7" stroke="#fdcb6e"/>
    <text x="780" y="192" class="small-label">Default: 07H</text>
    
    <rect x="720" y="205" width="120" height="25" fill="#fab1a0" stroke="#e17055"/>
    <text x="780" y="222" class="small-label">Auto-increment on PUSH</text>
    
    <rect x="720" y="235" width="120" height="25" fill="#fd79a8" stroke="#e84393"/>
    <text x="780" y="252" class="small-label">Auto-decrement on POP</text>
    
    <text x="780" y="275" class="small-label">Points to current</text>
    <text x="780" y="290" class="small-label">top of stack</text>
    <text x="780" y="305" class="small-label">location</text>
  </g>

  <!-- Detailed Address Map -->
  <g class="address-map">
    <rect x="50" y="330" width="800" height="300" stroke="#34495e" stroke-width="2" fill="#f8f9fa"/>
    <text x="450" y="355" class="label">Detailed Internal RAM Address Map</text>
    
    <!-- Address scale -->
    <line x1="80" y1="380" x2="820" y2="380" stroke="#34495e" stroke-width="2"/>
    
    <!-- Address markers -->
    <g class="address-markers">
      <line x1="80" y1="375" x2="80" y2="385" stroke="#34495e" stroke-width="2"/>
      <text x="80" y="395" class="address-text">00H</text>
      
      <line x1="200" y1="375" x2="200" y2="385" stroke="#34495e" stroke-width="2"/>
      <text x="200" y="395" class="address-text">20H</text>
      
      <line x1="320" y1="375" x2="320" y2="385" stroke="#34495e" stroke-width="2"/>
      <text x="320" y="395" class="address-text">30H</text>
      
      <line x1="820" y1="375" x2="820" y2="385" stroke="#34495e" stroke-width="2"/>
      <text x="820" y="395" class="address-text">7FH</text>
    </g>
    
    <!-- Memory sections -->
    <rect x="80" y="410" width="120" height="80" fill="#ffebee" stroke="#f44336"/>
    <text x="140" y="430" class="small-label">Register Banks</text>
    <text x="140" y="445" class="small-label">4 Banks × 8 Registers</text>
    <text x="140" y="460" class="small-label">00H-1FH</text>
    <text x="140" y="475" class="small-label">32 bytes</text>
    
    <rect x="200" y="410" width="120" height="80" fill="#fff3e0" stroke="#ff9800"/>
    <text x="260" y="430" class="small-label">Bit-Addressable</text>
    <text x="260" y="445" class="small-label">128 individual bits</text>
    <text x="260" y="460" class="small-label">20H-2FH</text>
    <text x="260" y="475" class="small-label">16 bytes</text>
    
    <rect x="320" y="410" width="500" height="80" fill="#e8f5e8" stroke="#4caf50"/>
    <text x="570" y="430" class="small-label">General Purpose RAM</text>
    <text x="570" y="445" class="small-label">User data, variables, stack</text>
    <text x="570" y="460" class="small-label">30H-7FH</text>
    <text x="570" y="475" class="small-label">80 bytes</text>
    
    <!-- Register bank details -->
    <g class="bank-details">
      <text x="140" y="510" class="small-label">Bank Selection (PSW bits):</text>
      <text x="140" y="525" class="address-text">Bank 0: PSW.4=0, PSW.3=0</text>
      <text x="140" y="540" class="address-text">Bank 1: PSW.4=0, PSW.3=1</text>
      <text x="140" y="555" class="address-text">Bank 2: PSW.4=1, PSW.3=0</text>
      <text x="140" y="570" class="address-text">Bank 3: PSW.4=1, PSW.3=1</text>
    </g>
    
    <!-- Bit addressing details -->
    <g class="bit-details">
      <text x="260" y="510" class="small-label">Bit Addressing:</text>
      <text x="260" y="525" class="address-text">Byte 20H = Bits 00H-07H</text>
      <text x="260" y="540" class="address-text">Byte 21H = Bits 08H-0FH</text>
      <text x="260" y="555" class="address-text">...</text>
      <text x="260" y="570" class="address-text">Byte 2FH = Bits 78H-7FH</text>
    </g>
    
    <!-- Stack details -->
    <g class="stack-usage">
      <text x="570" y="510" class="small-label">Typical Usage:</text>
      <text x="570" y="525" class="address-text">30H-4FH: User variables</text>
      <text x="570" y="540" class="address-text">50H-6FH: Arrays/buffers</text>
      <text x="570" y="555" class="address-text">70H-7FH: Stack growth area</text>
      <text x="570" y="570" class="address-text">Stack grows upward from SP</text>
    </g>
    
    <!-- Notes -->
    <text x="450" y="600" class="small-label">Note: All addresses are in hexadecimal. Internal RAM is separate from SFR space (80H-FFH)</text>
    <text x="450" y="615" class="small-label">Total internal RAM: 128 bytes (00H-7FH) + 128 bytes SFR space (80H-FFH)</text>
  </g>
</svg>
