<?xml version="1.0" encoding="UTF-8"?>
<svg width="600" height="450" xmlns="http://www.w3.org/2000/svg">
  <defs>
    <style>
      .component-text { font-family: Arial, sans-serif; font-size: 12px; fill: #000; }
      .pin-text { font-family: Arial, sans-serif; font-size: 9px; fill: #333; }
      .wire { stroke: #000; stroke-width: 1; fill: none; }
      .component { fill: #f0f0f0; stroke: #000; stroke-width: 1; }
      .pin-rect { fill: #e8e8e8; stroke: #333; stroke-width: 1; }
      .chip-body { fill: #e8e8e8; stroke: #000; stroke-width: 2; }
    </style>
  </defs>
  
  <!-- Title -->
  <text x="300" y="25" text-anchor="middle" class="component-text" font-size="16" font-weight="bold">8051 Microcontroller Pin Diagram</text>
  
  <!-- Chip body -->
  <rect x="200" y="60" width="200" height="320" rx="10" class="chip-body"/>
  
  <!-- Chip label -->
  <text x="300" y="220" text-anchor="middle" class="component-text" font-size="14" font-weight="bold">8051</text>
  <text x="300" y="240" text-anchor="middle" class="component-text" font-size="12">MICROCONTROLLER</text>
  
  <!-- Left side pins (1-20) -->
  <g id="left-pins">
    <!-- Pin 1: P1.0 -->
    <rect x="170" y="70" width="30" height="12" class="pin-rect"/>
    <text x="165" y="78" text-anchor="end" class="pin-text">P1.0</text>
    <text x="165" y="90" text-anchor="end" class="pin-text">1</text>
    
    <!-- Pin 2: P1.1 -->
    <rect x="170" y="86" width="30" height="12" class="pin-rect"/>
    <text x="165" y="94" text-anchor="end" class="pin-text">P1.1</text>
    <text x="165" y="106" text-anchor="end" class="pin-text">2</text>
    
    <!-- Pin 3: P1.2 -->
    <rect x="170" y="102" width="30" height="12" class="pin-rect"/>
    <text x="165" y="110" text-anchor="end" class="pin-text">P1.2</text>
    <text x="165" y="122" text-anchor="end" class="pin-text">3</text>
    
    <!-- Pin 4: P1.3 -->
    <rect x="170" y="118" width="30" height="12" class="pin-rect"/>
    <text x="165" y="126" text-anchor="end" class="pin-text">P1.3</text>
    <text x="165" y="138" text-anchor="end" class="pin-text">4</text>
    
    <!-- Pin 5: P1.4 -->
    <rect x="170" y="134" width="30" height="12" class="pin-rect"/>
    <text x="165" y="142" text-anchor="end" class="pin-text">P1.4</text>
    <text x="165" y="154" text-anchor="end" class="pin-text">5</text>
    
    <!-- Pin 6: P1.5 -->
    <rect x="170" y="150" width="30" height="12" class="pin-rect"/>
    <text x="165" y="158" text-anchor="end" class="pin-text">P1.5</text>
    <text x="165" y="170" text-anchor="end" class="pin-text">6</text>
    
    <!-- Pin 7: P1.6 -->
    <rect x="170" y="166" width="30" height="12" class="pin-rect"/>
    <text x="165" y="174" text-anchor="end" class="pin-text">P1.6</text>
    <text x="165" y="186" text-anchor="end" class="pin-text">7</text>
    
    <!-- Pin 8: P1.7 -->
    <rect x="170" y="182" width="30" height="12" class="pin-rect"/>
    <text x="165" y="190" text-anchor="end" class="pin-text">P1.7</text>
    <text x="165" y="202" text-anchor="end" class="pin-text">8</text>
    
    <!-- Pin 9: RST -->
    <rect x="170" y="198" width="30" height="12" class="pin-rect"/>
    <text x="165" y="206" text-anchor="end" class="pin-text">RST</text>
    <text x="165" y="218" text-anchor="end" class="pin-text">9</text>
    
    <!-- Pin 10: P3.0/RXD -->
    <rect x="170" y="214" width="30" height="12" class="pin-rect"/>
    <text x="165" y="222" text-anchor="end" class="pin-text">P3.0/RXD</text>
    <text x="165" y="234" text-anchor="end" class="pin-text">10</text>
    
    <!-- Pin 11: P3.1/TXD -->
    <rect x="170" y="230" width="30" height="12" class="pin-rect"/>
    <text x="165" y="238" text-anchor="end" class="pin-text">P3.1/TXD</text>
    <text x="165" y="250" text-anchor="end" class="pin-text">11</text>
    
    <!-- Pin 12: P3.2/INT0 -->
    <rect x="170" y="246" width="30" height="12" class="pin-rect"/>
    <text x="165" y="254" text-anchor="end" class="pin-text">P3.2/INT0</text>
    <text x="165" y="266" text-anchor="end" class="pin-text">12</text>
    
    <!-- Pin 13: P3.3/INT1 -->
    <rect x="170" y="262" width="30" height="12" class="pin-rect"/>
    <text x="165" y="270" text-anchor="end" class="pin-text">P3.3/INT1</text>
    <text x="165" y="282" text-anchor="end" class="pin-text">13</text>
    
    <!-- Pin 14: P3.4/T0 -->
    <rect x="170" y="278" width="30" height="12" class="pin-rect"/>
    <text x="165" y="286" text-anchor="end" class="pin-text">P3.4/T0</text>
    <text x="165" y="298" text-anchor="end" class="pin-text">14</text>
    
    <!-- Pin 15: P3.5/T1 -->
    <rect x="170" y="294" width="30" height="12" class="pin-rect"/>
    <text x="165" y="302" text-anchor="end" class="pin-text">P3.5/T1</text>
    <text x="165" y="314" text-anchor="end" class="pin-text">15</text>
    
    <!-- Pin 16: P3.6/WR -->
    <rect x="170" y="310" width="30" height="12" class="pin-rect"/>
    <text x="165" y="318" text-anchor="end" class="pin-text">P3.6/WR</text>
    <text x="165" y="330" text-anchor="end" class="pin-text">16</text>
    
    <!-- Pin 17: P3.7/RD -->
    <rect x="170" y="326" width="30" height="12" class="pin-rect"/>
    <text x="165" y="334" text-anchor="end" class="pin-text">P3.7/RD</text>
    <text x="165" y="346" text-anchor="end" class="pin-text">17</text>
    
    <!-- Pin 18: XTAL2 -->
    <rect x="170" y="342" width="30" height="12" class="pin-rect"/>
    <text x="165" y="350" text-anchor="end" class="pin-text">XTAL2</text>
    <text x="165" y="362" text-anchor="end" class="pin-text">18</text>
    
    <!-- Pin 19: XTAL1 -->
    <rect x="170" y="358" width="30" height="12" class="pin-rect"/>
    <text x="165" y="366" text-anchor="end" class="pin-text">XTAL1</text>
    <text x="165" y="378" text-anchor="end" class="pin-text">19</text>
    
    <!-- Pin 20: VSS -->
    <rect x="170" y="374" width="30" height="12" class="pin-rect"/>
    <text x="165" y="382" text-anchor="end" class="pin-text">VSS</text>
    <text x="165" y="394" text-anchor="end" class="pin-text">20</text>
  </g>
  
  <!-- Right side pins (21-40) -->
  <g id="right-pins">
    <!-- Pin 21: P2.0/A8 -->
    <rect x="400" y="374" width="30" height="12" class="pin-rect"/>
    <text x="435" y="382" text-anchor="start" class="pin-text">P2.0/A8</text>
    <text x="435" y="394" text-anchor="start" class="pin-text">21</text>
    
    <!-- Pin 22: P2.1/A9 -->
    <rect x="400" y="358" width="30" height="12" class="pin-rect"/>
    <text x="435" y="366" text-anchor="start" class="pin-text">P2.1/A9</text>
    <text x="435" y="378" text-anchor="start" class="pin-text">22</text>
    
    <!-- Pin 23: P2.2/A10 -->
    <rect x="400" y="342" width="30" height="12" class="pin-rect"/>
    <text x="435" y="350" text-anchor="start" class="pin-text">P2.2/A10</text>
    <text x="435" y="362" text-anchor="start" class="pin-text">23</text>
    
    <!-- Pin 24: P2.3/A11 -->
    <rect x="400" y="326" width="30" height="12" class="pin-rect"/>
    <text x="435" y="334" text-anchor="start" class="pin-text">P2.3/A11</text>
    <text x="435" y="346" text-anchor="start" class="pin-text">24</text>
    
    <!-- Pin 25: P2.4/A12 -->
    <rect x="400" y="310" width="30" height="12" class="pin-rect"/>
    <text x="435" y="318" text-anchor="start" class="pin-text">P2.4/A12</text>
    <text x="435" y="330" text-anchor="start" class="pin-text">25</text>
    
    <!-- Pin 26: P2.5/A13 -->
    <rect x="400" y="294" width="30" height="12" class="pin-rect"/>
    <text x="435" y="302" text-anchor="start" class="pin-text">P2.5/A13</text>
    <text x="435" y="314" text-anchor="start" class="pin-text">26</text>
    
    <!-- Pin 27: P2.6/A14 -->
    <rect x="400" y="278" width="30" height="12" class="pin-rect"/>
    <text x="435" y="286" text-anchor="start" class="pin-text">P2.6/A14</text>
    <text x="435" y="298" text-anchor="start" class="pin-text">27</text>
    
    <!-- Pin 28: P2.7/A15 -->
    <rect x="400" y="262" width="30" height="12" class="pin-rect"/>
    <text x="435" y="270" text-anchor="start" class="pin-text">P2.7/A15</text>
    <text x="435" y="282" text-anchor="start" class="pin-text">28</text>
    
    <!-- Pin 29: PSEN -->
    <rect x="400" y="246" width="30" height="12" class="pin-rect"/>
    <text x="435" y="254" text-anchor="start" class="pin-text">PSEN</text>
    <text x="435" y="266" text-anchor="start" class="pin-text">29</text>
    
    <!-- Pin 30: ALE/PROG -->
    <rect x="400" y="230" width="30" height="12" class="pin-rect"/>
    <text x="435" y="238" text-anchor="start" class="pin-text">ALE/PROG</text>
    <text x="435" y="250" text-anchor="start" class="pin-text">30</text>
    
    <!-- Pin 31: EA/VPP -->
    <rect x="400" y="214" width="30" height="12" class="pin-rect"/>
    <text x="435" y="222" text-anchor="start" class="pin-text">EA/VPP</text>
    <text x="435" y="234" text-anchor="start" class="pin-text">31</text>
    
    <!-- Pin 32: P0.7/AD7 -->
    <rect x="400" y="198" width="30" height="12" class="pin-rect"/>
    <text x="435" y="206" text-anchor="start" class="pin-text">P0.7/AD7</text>
    <text x="435" y="218" text-anchor="start" class="pin-text">32</text>
    
    <!-- Pin 33: P0.6/AD6 -->
    <rect x="400" y="182" width="30" height="12" class="pin-rect"/>
    <text x="435" y="190" text-anchor="start" class="pin-text">P0.6/AD6</text>
    <text x="435" y="202" text-anchor="start" class="pin-text">33</text>
    
    <!-- Pin 34: P0.5/AD5 -->
    <rect x="400" y="166" width="30" height="12" class="pin-rect"/>
    <text x="435" y="174" text-anchor="start" class="pin-text">P0.5/AD5</text>
    <text x="435" y="186" text-anchor="start" class="pin-text">34</text>
    
    <!-- Pin 35: P0.4/AD4 -->
    <rect x="400" y="150" width="30" height="12" class="pin-rect"/>
    <text x="435" y="158" text-anchor="start" class="pin-text">P0.4/AD4</text>
    <text x="435" y="170" text-anchor="start" class="pin-text">35</text>
    
    <!-- Pin 36: P0.3/AD3 -->
    <rect x="400" y="134" width="30" height="12" class="pin-rect"/>
    <text x="435" y="142" text-anchor="start" class="pin-text">P0.3/AD3</text>
    <text x="435" y="154" text-anchor="start" class="pin-text">36</text>
    
    <!-- Pin 37: P0.2/AD2 -->
    <rect x="400" y="118" width="30" height="12" class="pin-rect"/>
    <text x="435" y="126" text-anchor="start" class="pin-text">P0.2/AD2</text>
    <text x="435" y="138" text-anchor="start" class="pin-text">37</text>
    
    <!-- Pin 38: P0.1/AD1 -->
    <rect x="400" y="102" width="30" height="12" class="pin-rect"/>
    <text x="435" y="110" text-anchor="start" class="pin-text">P0.1/AD1</text>
    <text x="435" y="122" text-anchor="start" class="pin-text">38</text>
    
    <!-- Pin 39: P0.0/AD0 -->
    <rect x="400" y="86" width="30" height="12" class="pin-rect"/>
    <text x="435" y="94" text-anchor="start" class="pin-text">P0.0/AD0</text>
    <text x="435" y="106" text-anchor="start" class="pin-text">39</text>
    
    <!-- Pin 40: VCC -->
    <rect x="400" y="70" width="30" height="12" class="pin-rect"/>
    <text x="435" y="78" text-anchor="start" class="pin-text">VCC</text>
    <text x="435" y="90" text-anchor="start" class="pin-text">40</text>
  </g>
  
  <!-- Pin 1 indicator -->
  <circle cx="185" cy="65" r="3" fill="#ff0000"/>
  
  <!-- Port descriptions -->
  <text x="50" y="420" class="component-text" font-size="10">P0: 8-bit bidirectional I/O port (AD0-AD7 when external memory used)</text>
  <text x="50" y="435" class="component-text" font-size="10">P1: 8-bit bidirectional I/O port with internal pull-ups</text>
  <text x="300" y="420" class="component-text" font-size="10">P2: 8-bit bidirectional I/O port (A8-A15 when external memory used)</text>
  <text x="300" y="435" class="component-text" font-size="10">P3: 8-bit bidirectional I/O port with alternate functions</text>
</svg>
