<?xml version="1.0" encoding="UTF-8"?>
<svg width="600" height="400" xmlns="http://www.w3.org/2000/svg">
  <defs>
    <style>
      .component-text { font-family: Arial, sans-serif; font-size: 12px; fill: #000; }
      .timing-text { font-family: Arial, sans-serif; font-size: 10px; fill: #333; }
      .signal-text { font-family: Arial, sans-serif; font-size: 9px; fill: #666; }
      .wire { stroke: #000; stroke-width: 1; fill: none; }
      .clock-high { stroke: #000; stroke-width: 2; fill: none; }
      .clock-low { stroke: #000; stroke-width: 2; fill: none; }
      .title-text { font-family: Arial, sans-serif; font-size: 16px; font-weight: bold; fill: #000; }
    </style>
  </defs>
  
  <!-- Title -->
  <text x="300" y="25" text-anchor="middle" class="title-text">8085 Timing Diagram - Memory Read Operation</text>
  
  <!-- Time scale -->
  <g id="time-scale">
    <line x1="100" y1="50" x2="500" y2="50" class="wire"/>
    <text x="150" y="45" text-anchor="middle" class="timing-text">T1</text>
    <text x="200" y="45" text-anchor="middle" class="timing-text">T2</text>
    <text x="250" y="45" text-anchor="middle" class="timing-text">T3</text>
    <text x="300" y="45" text-anchor="middle" class="timing-text">T4</text>
    <text x="350" y="45" text-anchor="middle" class="timing-text">T1</text>
    <text x="400" y="45" text-anchor="middle" class="timing-text">T2</text>
    <text x="450" y="45" text-anchor="middle" class="timing-text">T3</text>
    
    <!-- Vertical time markers -->
    <line x1="125" y1="50" x2="125" y2="350" stroke="#ddd" stroke-width="1"/>
    <line x1="175" y1="50" x2="175" y2="350" stroke="#ddd" stroke-width="1"/>
    <line x1="225" y1="50" x2="225" y2="350" stroke="#ddd" stroke-width="1"/>
    <line x1="275" y1="50" x2="275" y2="350" stroke="#ddd" stroke-width="1"/>
    <line x1="325" y1="50" x2="325" y2="350" stroke="#ddd" stroke-width="1"/>
    <line x1="375" y1="50" x2="375" y2="350" stroke="#ddd" stroke-width="1"/>
    <line x1="425" y1="50" x2="425" y2="350" stroke="#ddd" stroke-width="1"/>
    <line x1="475" y1="50" x2="475" y2="350" stroke="#ddd" stroke-width="1"/>
  </g>
  
  <!-- CLK Signal -->
  <g id="clk-signal">
    <text x="50" y="80" class="component-text">CLK</text>
    <line x1="100" y1="85" x2="125" y2="85" class="clock-low"/>
    <line x1="125" y1="85" x2="125" y2="75" class="clock-high"/>
    <line x1="125" y1="75" x2="175" y2="75" class="clock-high"/>
    <line x1="175" y1="75" x2="175" y2="85" class="clock-low"/>
    <line x1="175" y1="85" x2="225" y2="85" class="clock-low"/>
    <line x1="225" y1="85" x2="225" y2="75" class="clock-high"/>
    <line x1="225" y1="75" x2="275" y2="75" class="clock-high"/>
    <line x1="275" y1="75" x2="275" y2="85" class="clock-low"/>
    <line x1="275" y1="85" x2="325" y2="85" class="clock-low"/>
    <line x1="325" y1="85" x2="325" y2="75" class="clock-high"/>
    <line x1="325" y1="75" x2="375" y2="75" class="clock-high"/>
    <line x1="375" y1="75" x2="375" y2="85" class="clock-low"/>
    <line x1="375" y1="85" x2="425" y2="85" class="clock-low"/>
    <line x1="425" y1="85" x2="425" y2="75" class="clock-high"/>
    <line x1="425" y1="75" x2="475" y2="75" class="clock-high"/>
    <line x1="475" y1="75" x2="475" y2="85" class="clock-low"/>
  </g>
  
  <!-- Address Bus A15-A8 -->
  <g id="address-high">
    <text x="50" y="115" class="component-text">A15-A8</text>
    <line x1="100" y1="120" x2="125" y2="120" class="wire"/>
    <line x1="125" y1="120" x2="125" y2="110" class="wire"/>
    <line x1="125" y1="110" x2="475" y2="110" class="wire"/>
    <line x1="475" y1="110" x2="475" y2="120" class="wire"/>
    <line x1="475" y1="120" x2="500" y2="120" class="wire"/>
    <text x="300" y="107" text-anchor="middle" class="signal-text">Higher Address</text>
  </g>
  
  <!-- Address/Data Bus AD7-AD0 -->
  <g id="address-data">
    <text x="50" y="150" class="component-text">AD7-AD0</text>
    <!-- Address phase -->
    <line x1="100" y1="155" x2="125" y2="155" class="wire"/>
    <line x1="125" y1="155" x2="125" y2="145" class="wire"/>
    <line x1="125" y1="145" x2="225" y2="145" class="wire"/>
    <line x1="225" y1="145" x2="225" y2="155" class="wire"/>
    <!-- Transition -->
    <line x1="225" y1="155" x2="235" y2="165" class="wire"/>
    <line x1="235" y1="165" x2="245" y2="145" class="wire"/>
    <!-- Data phase -->
    <line x1="245" y1="145" x2="425" y2="145" class="wire"/>
    <line x1="425" y1="145" x2="425" y2="155" class="wire"/>
    <line x1="425" y1="155" x2="500" y2="155" class="wire"/>
    <text x="175" y="142" text-anchor="middle" class="signal-text">Address</text>
    <text x="335" y="142" text-anchor="middle" class="signal-text">Data In</text>
  </g>
  
  <!-- ALE Signal -->
  <g id="ale-signal">
    <text x="50" y="185" class="component-text">ALE</text>
    <line x1="100" y1="190" x2="125" y2="190" class="wire"/>
    <line x1="125" y1="190" x2="125" y2="180" class="wire"/>
    <line x1="125" y1="180" x2="225" y2="180" class="wire"/>
    <line x1="225" y1="180" x2="225" y2="190" class="wire"/>
    <line x1="225" y1="190" x2="500" y2="190" class="wire"/>
    <text x="175" y="177" text-anchor="middle" class="signal-text">HIGH</text>
  </g>
  
  <!-- RD Signal -->
  <g id="rd-signal">
    <text x="50" y="220" class="component-text">RD</text>
    <line x1="100" y1="225" x2="225" y2="225" class="wire"/>
    <line x1="225" y1="225" x2="225" y2="215" class="wire"/>
    <line x1="225" y1="215" x2="375" y2="215" class="wire"/>
    <line x1="375" y1="215" x2="375" y2="225" class="wire"/>
    <line x1="375" y1="225" x2="500" y2="225" class="wire"/>
    <text x="300" y="212" text-anchor="middle" class="signal-text">LOW (Active)</text>
  </g>
  
  <!-- IO/M Signal -->
  <g id="iom-signal">
    <text x="50" y="255" class="component-text">IO/M</text>
    <line x1="100" y1="260" x2="125" y2="260" class="wire"/>
    <line x1="125" y1="260" x2="125" y2="250" class="wire"/>
    <line x1="125" y1="250" x2="475" y2="250" class="wire"/>
    <line x1="475" y1="250" x2="475" y2="260" class="wire"/>
    <line x1="475" y1="260" x2="500" y2="260" class="wire"/>
    <text x="300" y="247" text-anchor="middle" class="signal-text">LOW (Memory)</text>
  </g>
  
  <!-- S1, S0 Status Signals -->
  <g id="status-signals">
    <text x="50" y="290" class="component-text">S1, S0</text>
    <line x1="100" y1="295" x2="125" y2="295" class="wire"/>
    <line x1="125" y1="295" x2="125" y2="285" class="wire"/>
    <line x1="125" y1="285" x2="475" y2="285" class="wire"/>
    <line x1="475" y1="285" x2="475" y2="295" class="wire"/>
    <line x1="475" y1="295" x2="500" y2="295" class="wire"/>
    <text x="300" y="282" text-anchor="middle" class="signal-text">S1=1, S0=0 (Memory Read)</text>
  </g>
  
  <!-- Timing annotations -->
  <rect x="50" y="320" width="500" height="60" rx="5" fill="#f9f9f9" stroke="#000"/>
  <text x="300" y="340" text-anchor="middle" class="component-text" font-weight="bold">Memory Read Cycle Timing</text>
  
  <text x="70" y="355" class="timing-text">T1: Address is placed on address bus, ALE goes HIGH</text>
  <text x="70" y="370" class="timing-text">T2: ALE goes LOW, RD becomes active (LOW)</text>
  <text x="350" y="355" class="timing-text">T3: Data is read from memory</text>
  <text x="350" y="370" class="timing-text">T4: RD goes HIGH, cycle ends</text>
</svg>
