<?xml version="1.0" encoding="UTF-8"?>
<svg width="700" height="500" xmlns="http://www.w3.org/2000/svg">
  <defs>
    <style>
      .component-text { font-family: Arial, sans-serif; font-size: 12px; fill: #000; }
      .pin-text { font-family: Arial, sans-serif; font-size: 9px; fill: #333; }
      .bus-text { font-family: Arial, sans-serif; font-size: 10px; fill: #666; }
      .wire { stroke: #000; stroke-width: 1; fill: none; }
      .bus { stroke: #000; stroke-width: 3; fill: none; }
      .component { fill: #f0f0f0; stroke: #000; stroke-width: 1; }
      .memory { fill: #e6f3ff; stroke: #000; stroke-width: 1; }
      .decoder { fill: #ffe6e6; stroke: #000; stroke-width: 1; }
    </style>
  </defs>
  
  <!-- Title -->
  <text x="350" y="25" text-anchor="middle" class="component-text" font-size="16" font-weight="bold">8085 Memory Interfacing</text>
  
  <!-- 8085 Microprocessor -->
  <rect x="50" y="100" width="120" height="200" rx="5" class="component"/>
  <text x="110" y="120" text-anchor="middle" class="component-text" font-weight="bold">8085</text>
  <text x="110" y="135" text-anchor="middle" class="component-text">Microprocessor</text>
  
  <!-- 8085 pins -->
  <g id="processor-pins">
    <!-- Address bus -->
    <rect x="170" y="150" width="15" height="8" class="component"/>
    <text x="190" y="157" class="pin-text">A15-A8</text>
    
    <!-- Address/Data bus -->
    <rect x="170" y="170" width="15" height="8" class="component"/>
    <text x="190" y="177" class="pin-text">AD7-AD0</text>
    
    <!-- Control signals -->
    <rect x="170" y="190" width="15" height="6" class="component"/>
    <text x="190" y="196" class="pin-text">ALE</text>
    
    <rect x="170" y="200" width="15" height="6" class="component"/>
    <text x="190" y="206" class="pin-text">RD</text>
    
    <rect x="170" y="210" width="15" height="6" class="component"/>
    <text x="190" y="216" class="pin-text">WR</text>
    
    <rect x="170" y="220" width="15" height="6" class="component"/>
    <text x="190" y="226" class="pin-text">IO/M</text>
  </g>
  
  <!-- Address Latch (74LS373) -->
  <rect x="250" y="140" width="80" height="60" rx="5" class="decoder"/>
  <text x="290" y="155" text-anchor="middle" class="component-text" font-weight="bold">74LS373</text>
  <text x="290" y="170" text-anchor="middle" class="component-text">Address</text>
  <text x="290" y="185" text-anchor="middle" class="component-text">Latch</text>
  
  <!-- Memory chips -->
  <!-- ROM -->
  <rect x="400" y="80" width="100" height="80" rx="5" class="memory"/>
  <text x="450" y="100" text-anchor="middle" class="component-text" font-weight="bold">ROM</text>
  <text x="450" y="115" text-anchor="middle" class="component-text">2764</text>
  <text x="450" y="130" text-anchor="middle" class="component-text">8K x 8</text>
  <text x="450" y="145" text-anchor="middle" class="pin-text">0000H-1FFFH</text>
  
  <!-- RAM -->
  <rect x="400" y="200" width="100" height="80" rx="5" class="memory"/>
  <text x="450" y="220" text-anchor="middle" class="component-text" font-weight="bold">RAM</text>
  <text x="450" y="235" text-anchor="middle" class="component-text">6264</text>
  <text x="450" y="250" text-anchor="middle" class="component-text">8K x 8</text>
  <text x="450" y="265" text-anchor="middle" class="pin-text">2000H-3FFFH</text>
  
  <!-- Address Decoder -->
  <rect x="550" y="140" width="80" height="60" rx="5" class="decoder"/>
  <text x="590" y="155" text-anchor="middle" class="component-text" font-weight="bold">74LS138</text>
  <text x="590" y="170" text-anchor="middle" class="component-text">3-to-8</text>
  <text x="590" y="185" text-anchor="middle" class="component-text">Decoder</text>
  
  <!-- Bus connections -->
  <!-- Address bus A15-A8 -->
  <line x1="185" y1="154" x2="250" y2="154" class="bus"/>
  <line x1="330" y1="154" x2="400" y2="154" class="bus"/>
  <line x1="400" y1="154" x2="400" y2="120" class="bus"/>
  <line x1="400" y1="154" x2="400" y2="240" class="bus"/>
  <text x="365" y="150" class="bus-text">A15-A8</text>
  
  <!-- Address/Data bus AD7-AD0 -->
  <line x1="185" y1="174" x2="250" y2="174" class="bus"/>
  <line x1="330" y1="174" x2="380" y2="174" class="bus"/>
  <line x1="380" y1="174" x2="380" y2="130" class="bus"/>
  <line x1="380" y1="130" x2="400" y2="130" class="bus"/>
  <line x1="380" y1="174" x2="380" y2="250" class="bus"/>
  <line x1="380" y1="250" x2="400" y2="250" class="bus"/>
  <text x="340" y="190" class="bus-text">A7-A0/D7-D0</text>
  
  <!-- Data bus D7-D0 -->
  <line x1="500" y1="130" x2="520" y2="130" class="bus"/>
  <line x1="520" y1="130" x2="520" y2="250" class="bus"/>
  <line x1="520" y1="250" x2="500" y2="250" class="bus"/>
  <line x1="520" y1="190" x2="350" y2="190" class="bus"/>
  <text x="525" y="190" class="bus-text">D7-D0</text>
  
  <!-- Control signals -->
  <!-- ALE to latch -->
  <line x1="185" y1="194" x2="290" y2="194" class="wire"/>
  <line x1="290" y1="194" x2="290" y2="200" class="wire"/>
  <text x="220" y="190" class="pin-text">ALE</text>
  
  <!-- RD signal -->
  <line x1="185" y1="204" x2="220" y2="204" class="wire"/>
  <line x1="220" y1="204" x2="220" y2="300" class="wire"/>
  <line x1="220" y1="300" x2="450" y2="300" class="wire"/>
  <line x1="450" y1="300" x2="450" y2="280" class="wire"/>
  <line x1="430" y1="300" x2="430" y2="160" class="wire"/>
  <text x="225" y="250" class="pin-text">RD</text>
  
  <!-- WR signal -->
  <line x1="185" y1="214" x2="230" y2="214" class="wire"/>
  <line x1="230" y1="214" x2="230" y2="310" class="wire"/>
  <line x1="230" y1="310" x2="460" y2="310" class="wire"/>
  <line x1="460" y1="310" x2="460" y2="280" class="wire"/>
  <text x="235" y="260" class="pin-text">WR</text>
  
  <!-- Chip Select signals from decoder -->
  <line x1="630" y1="160" x2="650" y2="160" class="wire"/>
  <line x1="650" y1="160" x2="650" y2="100" class="wire"/>
  <line x1="650" y1="100" x2="500" y2="100" class="wire"/>
  <text x="520" y="95" class="pin-text">CS (ROM)</text>
  
  <line x1="630" y1="180" x2="660" y2="180" class="wire"/>
  <line x1="660" y1="180" x2="660" y2="220" class="wire"/>
  <line x1="660" y1="220" x2="500" y2="220" class="wire"/>
  <text x="520" y="215" class="pin-text">CS (RAM)</text>
  
  <!-- Address lines to decoder -->
  <line x1="550" y1="170" x2="420" y2="170" class="wire"/>
  <text x="470" y="165" class="pin-text">A15-A13</text>
  
  <!-- Memory map -->
  <rect x="50" y="350" width="600" height="120" rx="5" fill="#f9f9f9" stroke="#000"/>
  <text x="350" y="370" text-anchor="middle" class="component-text" font-weight="bold">Memory Map</text>
  
  <text x="70" y="390" class="component-text">ROM (2764): 0000H - 1FFFH (8K)</text>
  <text x="70" y="405" class="component-text">RAM (6264): 2000H - 3FFFH (8K)</text>
  <text x="70" y="420" class="component-text">Available: 4000H - FFFFH (48K)</text>
  
  <text x="350" y="390" class="component-text">Address Decoding:</text>
  <text x="350" y="405" class="component-text">A15=0, A14=0, A13=0 → ROM Select</text>
  <text x="350" y="420" class="component-text">A15=0, A14=0, A13=1 → RAM Select</text>
  
  <text x="70" y="445" class="component-text">Control Logic:</text>
  <text x="70" y="460" class="component-text">RD = Memory Read, WR = Memory Write, ALE = Address Latch Enable</text>
</svg>
