<?xml version="1.0" encoding="UTF-8"?>
<svg width="600" height="450" xmlns="http://www.w3.org/2000/svg">
  <defs>
    <style>
      .component-text { font-family: Arial, sans-serif; font-size: 12px; fill: #000; }
      .pin-text { font-family: Arial, sans-serif; font-size: 10px; fill: #333; }
      .signal-text { font-family: Arial, sans-serif; font-size: 9px; fill: #666; }
      .wire { stroke: #000; stroke-width: 1; fill: none; }
      .bus { stroke: #000; stroke-width: 2; fill: none; }
      .component { fill: #f0f0f0; stroke: #000; stroke-width: 1; }
      .io-device { fill: #e6f3ff; stroke: #000; stroke-width: 1; }
      .decoder { fill: #ffe6e6; stroke: #000; stroke-width: 1; }
    </style>
  </defs>
  
  <!-- Title -->
  <text x="300" y="25" text-anchor="middle" class="component-text" font-size="16" font-weight="bold">8085 I/O Interfacing</text>
  
  <!-- 8085 Microprocessor -->
  <rect x="50" y="100" width="120" height="150" rx="5" class="component"/>
  <text x="110" y="120" text-anchor="middle" class="component-text" font-weight="bold">8085</text>
  <text x="110" y="135" text-anchor="middle" class="component-text">Microprocessor</text>
  
  <!-- 8085 pins -->
  <g id="processor-pins">
    <!-- Address bus -->
    <rect x="170" y="130" width="15" height="8" class="component"/>
    <text x="190" y="137" class="pin-text">A15-A8</text>
    
    <!-- Address/Data bus -->
    <rect x="170" y="150" width="15" height="8" class="component"/>
    <text x="190" y="157" class="pin-text">AD7-AD0</text>
    
    <!-- Control signals -->
    <rect x="170" y="170" width="15" height="6" class="component"/>
    <text x="190" y="176" class="pin-text">ALE</text>
    
    <rect x="170" y="180" width="15" height="6" class="component"/>
    <text x="190" y="186" class="pin-text">RD</text>
    
    <rect x="170" y="190" width="15" height="6" class="component"/>
    <text x="190" y="196" class="pin-text">WR</text>
    
    <rect x="170" y="200" width="15" height="6" class="component"/>
    <text x="190" y="206" class="pin-text">IO/M</text>
  </g>
  
  <!-- Address Latch (74LS373) -->
  <rect x="220" y="130" width="80" height="60" rx="5" class="decoder"/>
  <text x="260" y="150" text-anchor="middle" class="component-text" font-weight="bold">74LS373</text>
  <text x="260" y="165" text-anchor="middle" class="component-text">Address</text>
  <text x="260" y="180" text-anchor="middle" class="component-text">Latch</text>
  
  <!-- Address Decoder -->
  <rect x="330" y="130" width="80" height="60" rx="5" class="decoder"/>
  <text x="370" y="150" text-anchor="middle" class="component-text" font-weight="bold">74LS138</text>
  <text x="370" y="165" text-anchor="middle" class="component-text">3-to-8</text>
  <text x="370" y="180" text-anchor="middle" class="component-text">Decoder</text>
  
  <!-- Input Device -->
  <rect x="450" y="80" width="120" height="60" rx="5" class="io-device"/>
  <text x="510" y="105" text-anchor="middle" class="component-text" font-weight="bold">Input Device</text>
  <text x="510" y="120" text-anchor="middle" class="component-text">(Keyboard/Switches)</text>
  <text x="510" y="130" class="pin-text">Port Address: 80H</text>
  
  <!-- Output Device -->
  <rect x="450" y="180" width="120" height="60" rx="5" class="io-device"/>
  <text x="510" y="205" text-anchor="middle" class="component-text" font-weight="bold">Output Device</text>
  <text x="510" y="220" text-anchor="middle" class="component-text">(Display/LEDs)</text>
  <text x="510" y="230" class="pin-text">Port Address: 81H</text>
  
  <!-- Bus connections -->
  <!-- Address bus A15-A8 -->
  <line x1="185" y1="134" x2="220" y2="134" class="bus"/>
  <line x1="300" y1="134" x2="330" y2="134" class="bus"/>
  <line x1="410" y1="134" x2="430" y2="134" class="bus"/>
  <line x1="430" y1="134" x2="430" y2="110" class="bus"/>
  <line x1="430" y1="134" x2="430" y2="210" class="bus"/>
  <text x="350" y="130" class="signal-text">A15-A8</text>
  
  <!-- Address/Data bus AD7-AD0 -->
  <line x1="185" y1="154" x2="220" y2="154" class="bus"/>
  <line x1="300" y1="154" x2="320" y2="154" class="bus"/>
  <line x1="320" y1="154" x2="320" y2="120" class="bus"/>
  <line x1="320" y1="120" x2="450" y2="120" class="bus"/>
  <line x1="320" y1="154" x2="320" y2="220" class="bus"/>
  <line x1="320" y1="220" x2="450" y2="220" class="bus"/>
  <text x="385" y="116" class="signal-text">D7-D0</text>
  
  <!-- Control signals -->
  <!-- ALE to latch -->
  <line x1="185" y1="173" x2="200" y2="173" class="wire"/>
  <line x1="200" y1="173" x2="200" y2="200" class="wire"/>
  <line x1="200" y1="200" x2="260" y2="200" class="wire"/>
  <line x1="260" y1="200" x2="260" y2="190" class="wire"/>
  
  <!-- IO/M to decoder -->
  <line x1="185" y1="203" x2="210" y2="203" class="wire"/>
  <line x1="210" y1="203" x2="210" y2="210" class="wire"/>
  <line x1="210" y1="210" x2="370" y2="210" class="wire"/>
  <line x1="370" y1="210" x2="370" y2="190" class="wire"/>
  <text x="290" y="225" class="signal-text">IO/M = 1 (I/O)</text>
  
  <!-- RD signal -->
  <line x1="185" y1="183" x2="240" y2="183" class="wire"/>
  <line x1="240" y1="183" x2="240" y2="260" class="wire"/>
  <line x1="240" y1="260" x2="480" y2="260" class="wire"/>
  <line x1="480" y1="260" x2="480" y2="140" class="wire"/>
  <text x="300" y="275" class="signal-text">RD (Input Enable)</text>
  
  <!-- WR signal -->
  <line x1="185" y1="193" x2="250" y2="193" class="wire"/>
  <line x1="250" y1="193" x2="250" y2="280" class="wire"/>
  <line x1="250" y1="280" x2="500" y2="280" class="wire"/>
  <line x1="500" y1="280" x2="500" y2="240" class="wire"/>
  <text x="340" y="295" class="signal-text">WR (Output Enable)</text>
  
  <!-- Chip Select signals -->
  <line x1="410" y1="150" x2="440" y2="150" class="wire"/>
  <line x1="440" y1="150" x2="440" y2="100" class="wire"/>
  <line x1="440" y1="100" x2="450" y2="100" class="wire"/>
  <text x="420" y="95" class="signal-text">CS0</text>
  
  <line x1="410" y1="170" x2="460" y2="170" class="wire"/>
  <line x1="460" y1="170" x2="460" y2="180" class="wire"/>
  <text x="420" y="165" class="signal-text">CS1</text>
  
  <!-- I/O Port Address Decoding -->
  <rect x="50" y="320" width="520" height="100" rx="5" fill="#f9f9f9" stroke="#000"/>
  <text x="310" y="340" text-anchor="middle" class="component-text" font-weight="bold">I/O Port Address Decoding</text>
  
  <text x="70" y="360" class="component-text">Memory Mapped I/O:</text>
  <text x="70" y="375" class="component-text">• I/O devices are treated as memory locations</text>
  <text x="70" y="390" class="component-text">• Uses same instructions as memory operations</text>
  <text x="70" y="405" class="component-text">• IO/M = 0 during I/O operations</text>
  
  <text x="320" y="360" class="component-text">I/O Mapped I/O:</text>
  <text x="320" y="375" class="component-text">• Separate I/O address space (0-255)</text>
  <text x="320" y="390" class="component-text">• Uses IN/OUT instructions</text>
  <text x="320" y="405" class="component-text">• IO/M = 1 during I/O operations</text>
  
  <!-- Port addresses -->
  <text x="450" y="95" class="signal-text">Port 80H</text>
  <text x="450" y="175" class="signal-text">Port 81H</text>
</svg>
