<?xml version="1.0" encoding="UTF-8"?>
<svg width="600" height="500" xmlns="http://www.w3.org/2000/svg">
  <defs>
    <style>
      .component-text { font-family: Arial, sans-serif; font-size: 12px; fill: #000; }
      .interrupt-text { font-family: Arial, sans-serif; font-size: 10px; fill: #333; }
      .priority-text { font-family: Arial, sans-serif; font-size: 9px; fill: #666; }
      .title-text { font-family: Arial, sans-serif; font-size: 16px; font-weight: bold; fill: #000; }
      .wire { stroke: #000; stroke-width: 1; fill: none; }
      .interrupt-block { fill: #ffcccc; stroke: #000; stroke-width: 1; }
      .priority-high { fill: #ff9999; stroke: #000; stroke-width: 2; }
      .priority-low { fill: #ffcccc; stroke: #000; stroke-width: 1; }
      .maskable { fill: #ccffcc; stroke: #000; stroke-width: 1; }
      .non-maskable { fill: #ffccff; stroke: #000; stroke-width: 1; }
    </style>
  </defs>
  
  <!-- Title -->
  <text x="300" y="25" text-anchor="middle" class="title-text">8085 Interrupt System</text>
  
  <!-- 8085 Microprocessor -->
  <rect x="50" y="80" width="120" height="150" rx="5" class="interrupt-block"/>
  <text x="110" y="100" text-anchor="middle" class="component-text" font-weight="bold">8085</text>
  <text x="110" y="115" text-anchor="middle" class="component-text">Microprocessor</text>
  
  <!-- Interrupt pins -->
  <g id="interrupt-pins">
    <!-- TRAP -->
    <rect x="170" y="100" width="15" height="8" class="non-maskable"/>
    <text x="190" y="107" class="interrupt-text">TRAP</text>
    
    <!-- RST 7.5 -->
    <rect x="170" y="120" width="15" height="8" class="maskable"/>
    <text x="190" y="127" class="interrupt-text">RST 7.5</text>
    
    <!-- RST 6.5 -->
    <rect x="170" y="140" width="15" height="8" class="maskable"/>
    <text x="190" y="147" class="interrupt-text">RST 6.5</text>
    
    <!-- RST 5.5 -->
    <rect x="170" y="160" width="15" height="8" class="maskable"/>
    <text x="190" y="167" class="interrupt-text">RST 5.5</text>
    
    <!-- INTR -->
    <rect x="170" y="180" width="15" height="8" class="maskable"/>
    <text x="190" y="187" class="interrupt-text">INTR</text>
    
    <!-- INTA -->
    <rect x="170" y="200" width="15" height="8" class="interrupt-block"/>
    <text x="190" y="207" class="interrupt-text">INTA</text>
  </g>
  
  <!-- Interrupt Sources -->
  <g id="interrupt-sources">
    <!-- TRAP Source -->
    <rect x="250" y="95" width="100" height="25" class="priority-high"/>
    <text x="300" y="110" text-anchor="middle" class="component-text" font-weight="bold">TRAP</text>
    <text x="300" y="122" text-anchor="middle" class="priority-text">Non-Maskable</text>
    
    <!-- RST 7.5 Source -->
    <rect x="250" y="125" width="100" height="20" class="priority-high"/>
    <text x="300" y="138" text-anchor="middle" class="component-text">RST 7.5</text>
    <text x="300" y="150" text-anchor="middle" class="priority-text">Maskable</text>
    
    <!-- RST 6.5 Source -->
    <rect x="250" y="150" width="100" height="20" class="priority-low"/>
    <text x="300" y="163" text-anchor="middle" class="component-text">RST 6.5</text>
    <text x="300" y="175" text-anchor="middle" class="priority-text">Maskable</text>
    
    <!-- RST 5.5 Source -->
    <rect x="250" y="175" width="100" height="20" class="priority-low"/>
    <text x="300" y="188" text-anchor="middle" class="component-text">RST 5.5</text>
    <text x="300" y="200" text-anchor="middle" class="priority-text">Maskable</text>
    
    <!-- INTR Source -->
    <rect x="250" y="200" width="100" height="20" class="priority-low"/>
    <text x="300" y="213" text-anchor="middle" class="component-text">INTR</text>
    <text x="300" y="225" text-anchor="middle" class="priority-text">Maskable</text>
  </g>
  
  <!-- Vector Addresses -->
  <g id="vector-addresses">
    <rect x="380" y="95" width="80" height="25" class="interrupt-block"/>
    <text x="420" y="110" text-anchor="middle" class="interrupt-text" font-weight="bold">0024H</text>
    
    <rect x="380" y="125" width="80" height="20" class="interrupt-block"/>
    <text x="420" y="138" text-anchor="middle" class="interrupt-text" font-weight="bold">003CH</text>
    
    <rect x="380" y="150" width="80" height="20" class="interrupt-block"/>
    <text x="420" y="163" text-anchor="middle" class="interrupt-text" font-weight="bold">0034H</text>
    
    <rect x="380" y="175" width="80" height="20" class="interrupt-block"/>
    <text x="420" y="188" text-anchor="middle" class="interrupt-text" font-weight="bold">002CH</text>
    
    <rect x="380" y="200" width="80" height="20" class="interrupt-block"/>
    <text x="420" y="213" text-anchor="middle" class="interrupt-text" font-weight="bold">Variable</text>
  </g>
  
  <!-- Priority levels -->
  <text x="500" y="110" class="priority-text" font-weight="bold">Priority 1 (Highest)</text>
  <text x="500" y="138" class="priority-text" font-weight="bold">Priority 2</text>
  <text x="500" y="163" class="priority-text" font-weight="bold">Priority 3</text>
  <text x="500" y="188" class="priority-text" font-weight="bold">Priority 4</text>
  <text x="500" y="213" class="priority-text" font-weight="bold">Priority 5 (Lowest)</text>
  
  <!-- Connections -->
  <line x1="185" y1="104" x2="250" y2="104" class="wire"/>
  <line x1="185" y1="124" x2="250" y2="135" class="wire"/>
  <line x1="185" y1="144" x2="250" y2="160" class="wire"/>
  <line x1="185" y1="164" x2="250" y2="185" class="wire"/>
  <line x1="185" y1="184" x2="250" y2="210" class="wire"/>
  
  <line x1="350" y1="107" x2="380" y2="107" class="wire"/>
  <line x1="350" y1="135" x2="380" y2="135" class="wire"/>
  <line x1="350" y1="160" x2="380" y2="160" class="wire"/>
  <line x1="350" y1="185" x2="380" y2="185" class="wire"/>
  <line x1="350" y1="210" x2="380" y2="210" class="wire"/>
  
  <!-- Interrupt Control -->
  <rect x="50" y="260" width="500" height="120" rx="5" fill="#f9f9f9" stroke="#000"/>
  <text x="300" y="280" text-anchor="middle" class="component-text" font-weight="bold">Interrupt Control and Masking</text>
  
  <!-- SIM instruction details -->
  <text x="70" y="300" class="component-text" font-weight="bold">SIM (Set Interrupt Mask) Instruction:</text>
  <text x="70" y="315" class="interrupt-text">• Bit 0: Enable/Disable RST 5.5 (1=Disable, 0=Enable)</text>
  <text x="70" y="330" class="interrupt-text">• Bit 1: Enable/Disable RST 6.5 (1=Disable, 0=Enable)</text>
  <text x="70" y="345" class="interrupt-text">• Bit 2: Enable/Disable RST 7.5 (1=Disable, 0=Enable)</text>
  <text x="70" y="360" class="interrupt-text">• Bit 3: Mask Set Enable (Must be 1 to set masks)</text>
  
  <!-- RIM instruction details -->
  <text x="320" y="300" class="component-text" font-weight="bold">RIM (Read Interrupt Mask) Instruction:</text>
  <text x="320" y="315" class="interrupt-text">• Reads current mask status</text>
  <text x="320" y="330" class="interrupt-text">• Shows pending interrupts</text>
  <text x="320" y="345" class="interrupt-text">• Bit 4: IE flag status</text>
  <text x="320" y="360" class="interrupt-text">• Bits 4-6: Pending interrupt status</text>
  
  <!-- Interrupt characteristics -->
  <rect x="50" y="400" width="500" height="80" rx="5" fill="#f0f0f0" stroke="#000"/>
  <text x="300" y="420" text-anchor="middle" class="component-text" font-weight="bold">Interrupt Characteristics</text>
  
  <text x="70" y="440" class="component-text">TRAP:</text>
  <text x="70" y="455" class="interrupt-text">• Non-maskable, edge and level triggered</text>
  <text x="70" y="470" class="interrupt-text">• Cannot be disabled by DI instruction</text>
  
  <text x="250" y="440" class="component-text">RST 7.5:</text>
  <text x="250" y="455" class="interrupt-text">• Edge triggered (rising edge)</text>
  <text x="250" y="470" class="interrupt-text">• Has internal flip-flop</text>
  
  <text x="400" y="440" class="component-text">RST 6.5, 5.5:</text>
  <text x="400" y="455" class="interrupt-text">• Level triggered</text>
  <text x="400" y="470" class="interrupt-text">• Must remain high until serviced</text>
</svg>
