<?xml version="1.0" encoding="UTF-8"?>
<svg width="800" height="600" xmlns="http://www.w3.org/2000/svg">
  <defs>
    <style>
      .component-text { font-family: Arial, sans-serif; font-size: 11px; fill: #000; }
      .register-text { font-family: Arial, sans-serif; font-size: 10px; fill: #000; }
      .bus-text { font-family: Arial, sans-serif; font-size: 9px; fill: #666; }
      .title-text { font-family: Arial, sans-serif; font-size: 16px; font-weight: bold; fill: #000; }
      .wire { stroke: #000; stroke-width: 1; fill: none; }
      .bus { stroke: #000; stroke-width: 2; fill: none; }
      .alu { fill: #ffcccc; stroke: #000; stroke-width: 1; }
      .register { fill: #ccffcc; stroke: #000; stroke-width: 1; }
      .control { fill: #ccccff; stroke: #000; stroke-width: 1; }
      .buffer { fill: #ffffcc; stroke: #000; stroke-width: 1; }
    </style>
  </defs>
  
  <!-- Title -->
  <text x="400" y="25" text-anchor="middle" class="title-text">8085 Microprocessor Architecture</text>
  
  <!-- ALU -->
  <polygon points="350,80 420,80 435,100 420,120 350,120 335,100" class="alu"/>
  <text x="385" y="95" text-anchor="middle" class="component-text" font-weight="bold">ALU</text>
  <text x="385" y="108" text-anchor="middle" class="component-text">(8-bit)</text>
  
  <!-- Accumulator -->
  <rect x="280" y="140" width="50" height="25" class="register"/>
  <text x="305" y="155" text-anchor="middle" class="register-text" font-weight="bold">ACC (A)</text>
  
  <!-- Flag Register -->
  <rect x="350" y="140" width="50" height="25" class="register"/>
  <text x="375" y="155" text-anchor="middle" class="register-text" font-weight="bold">FLAGS</text>
  
  <!-- Temporary Register -->
  <rect x="420" y="140" width="50" height="25" class="register"/>
  <text x="445" y="155" text-anchor="middle" class="register-text" font-weight="bold">TEMP</text>
  
  <!-- General Purpose Registers -->
  <g id="gp-registers">
    <rect x="180" y="200" width="40" height="20" class="register"/>
    <text x="200" y="213" text-anchor="middle" class="register-text">B</text>
    
    <rect x="230" y="200" width="40" height="20" class="register"/>
    <text x="250" y="213" text-anchor="middle" class="register-text">C</text>
    
    <rect x="180" y="230" width="40" height="20" class="register"/>
    <text x="200" y="243" text-anchor="middle" class="register-text">D</text>
    
    <rect x="230" y="230" width="40" height="20" class="register"/>
    <text x="250" y="243" text-anchor="middle" class="register-text">E</text>
    
    <rect x="180" y="260" width="40" height="20" class="register"/>
    <text x="200" y="273" text-anchor="middle" class="register-text">H</text>
    
    <rect x="230" y="260" width="40" height="20" class="register"/>
    <text x="250" y="273" text-anchor="middle" class="register-text">L</text>
    
    <text x="225" y="190" text-anchor="middle" class="component-text" font-weight="bold">General Purpose</text>
    <text x="225" y="295" text-anchor="middle" class="component-text">Registers</text>
  </g>
  
  <!-- Stack Pointer -->
  <rect x="320" y="200" width="50" height="25" class="register"/>
  <text x="345" y="215" text-anchor="middle" class="register-text" font-weight="bold">SP</text>
  
  <!-- Program Counter -->
  <rect x="320" y="240" width="50" height="25" class="register"/>
  <text x="345" y="255" text-anchor="middle" class="register-text" font-weight="bold">PC</text>
  
  <!-- Instruction Register -->
  <rect x="400" y="200" width="50" height="25" class="register"/>
  <text x="425" y="215" text-anchor="middle" class="register-text" font-weight="bold">IR</text>
  
  <!-- Instruction Decoder -->
  <rect x="470" y="200" width="60" height="45" class="control"/>
  <text x="500" y="215" text-anchor="middle" class="component-text" font-weight="bold">Instruction</text>
  <text x="500" y="228" text-anchor="middle" class="component-text">Decoder &amp;</text>
  <text x="500" y="241" text-anchor="middle" class="component-text">Control</text>
  
  <!-- Timing and Control -->
  <rect x="550" y="200" width="60" height="45" class="control"/>
  <text x="580" y="215" text-anchor="middle" class="component-text" font-weight="bold">Timing</text>
  <text x="580" y="228" text-anchor="middle" class="component-text">&amp; Control</text>
  <text x="580" y="241" text-anchor="middle" class="component-text">Unit</text>
  
  <!-- Address Buffer -->
  <rect x="100" y="300" width="80" height="30" class="buffer"/>
  <text x="140" y="318" text-anchor="middle" class="component-text" font-weight="bold">Address Buffer</text>
  
  <!-- Address/Data Buffer -->
  <rect x="220" y="300" width="80" height="30" class="buffer"/>
  <text x="260" y="315" text-anchor="middle" class="component-text" font-weight="bold">Address/Data</text>
  <text x="260" y="325" text-anchor="middle" class="component-text">Buffer</text>
  
  <!-- Data Buffer -->
  <rect x="340" y="300" width="80" height="30" class="buffer"/>
  <text x="380" y="318" text-anchor="middle" class="component-text" font-weight="bold">Data Buffer</text>
  
  <!-- Serial I/O Control -->
  <rect x="460" y="300" width="80" height="30" class="control"/>
  <text x="500" y="315" text-anchor="middle" class="component-text" font-weight="bold">Serial I/O</text>
  <text x="500" y="325" text-anchor="middle" class="component-text">Control</text>
  
  <!-- Interrupt Control -->
  <rect x="580" y="300" width="80" height="30" class="control"/>
  <text x="620" y="315" text-anchor="middle" class="component-text" font-weight="bold">Interrupt</text>
  <text x="620" y="325" text-anchor="middle" class="component-text">Control</text>
  
  <!-- Internal Bus -->
  <line x1="200" y1="350" x2="600" y2="350" class="bus"/>
  <text x="400" y="365" text-anchor="middle" class="bus-text" font-weight="bold">Internal Data Bus (8-bit)</text>
  
  <!-- External Buses -->
  <!-- Address Bus -->
  <line x1="140" y1="380" x2="140" y2="420" class="bus"/>
  <line x1="140" y1="420" x2="200" y2="420" class="bus"/>
  <text x="170" y="435" text-anchor="middle" class="bus-text" font-weight="bold">Address Bus (16-bit)</text>
  
  <!-- Address/Data Bus -->
  <line x1="260" y1="380" x2="260" y2="450" class="bus"/>
  <line x1="260" y1="450" x2="320" y2="450" class="bus"/>
  <text x="290" y="465" text-anchor="middle" class="bus-text" font-weight="bold">Address/Data Bus (8-bit)</text>
  
  <!-- Data Bus -->
  <line x1="380" y1="380" x2="380" y2="480" class="bus"/>
  <line x1="380" y1="480" x2="440" y2="480" class="bus"/>
  <text x="410" y="495" text-anchor="middle" class="bus-text" font-weight="bold">Data Bus (8-bit)</text>
  
  <!-- Control Bus -->
  <line x1="500" y1="380" x2="500" y2="510" class="bus"/>
  <line x1="500" y1="510" x2="620" y2="510" class="bus"/>
  <line x1="620" y1="380" x2="620" y2="510" class="bus"/>
  <text x="560" y="525" text-anchor="middle" class="bus-text" font-weight="bold">Control Bus</text>
  
  <!-- Connections -->
  <!-- ALU connections -->
  <line x1="305" y1="140" x2="305" y2="120" class="wire"/>
  <line x1="305" y1="120" x2="350" y2="120" class="wire"/>
  
  <line x1="375" y1="140" x2="375" y2="120" class="wire"/>
  
  <line x1="445" y1="140" x2="445" y2="120" class="wire"/>
  <line x1="445" y1="120" x2="420" y2="120" class="wire"/>
  
  <!-- Register connections to internal bus -->
  <line x1="305" y1="165" x2="305" y2="350" class="wire"/>
  <line x1="375" y1="165" x2="375" y2="350" class="wire"/>
  <line x1="225" y1="280" x2="225" y2="350" class="wire"/>
  <line x1="345" y1="225" x2="345" y2="350" class="wire"/>
  <line x1="345" y1="265" x2="345" y2="350" class="wire"/>
  <line x1="425" y1="225" x2="425" y2="350" class="wire"/>
  
  <!-- Buffer connections -->
  <line x1="140" y1="330" x2="140" y2="350" class="wire"/>
  <line x1="260" y1="330" x2="260" y2="350" class="wire"/>
  <line x1="380" y1="330" x2="380" y2="350" class="wire"/>
  <line x1="500" y1="330" x2="500" y2="350" class="wire"/>
  <line x1="620" y1="330" x2="620" y2="350" class="wire"/>
  
  <!-- Control signals -->
  <line x1="530" y1="222" x2="550" y2="222" class="wire"/>
  <line x1="580" y1="245" x2="580" y2="300" class="wire"/>
  
  <!-- Pin labels -->
  <text x="50" y="420" class="component-text">A15-A8</text>
  <text x="50" y="450" class="component-text">AD7-AD0</text>
  <text x="50" y="480" class="component-text">D7-D0</text>
  <text x="50" y="510" class="component-text">RD, WR, ALE</text>
  <text x="50" y="525" class="component-text">IO/M, S0, S1</text>
  
  <!-- Legend -->
  <rect x="650" y="80" width="120" height="120" rx="5" fill="#f9f9f9" stroke="#000"/>
  <text x="710" y="100" text-anchor="middle" class="component-text" font-weight="bold">Legend</text>
  
  <rect x="660" y="110" width="15" height="10" class="alu"/>
  <text x="680" y="118" class="component-text">ALU</text>
  
  <rect x="660" y="125" width="15" height="10" class="register"/>
  <text x="680" y="133" class="component-text">Registers</text>
  
  <rect x="660" y="140" width="15" height="10" class="control"/>
  <text x="680" y="148" class="component-text">Control Units</text>
  
  <rect x="660" y="155" width="15" height="10" class="buffer"/>
  <text x="680" y="163" class="component-text">Buffers</text>
  
  <line x1="660" y1="175" x2="675" y2="175" class="bus"/>
  <text x="680" y="178" class="component-text">Bus</text>
</svg>
