<svg viewBox="0 0 900 650" xmlns="http://www.w3.org/2000/svg">
  <defs>
    <style>
      .title { font-family: Arial, sans-serif; font-size: 20px; font-weight: bold; fill: #2c3e50; text-anchor: middle; }
      .label { font-family: Arial, sans-serif; font-size: 12px; fill: #2c3e50; text-anchor: middle; }
      .small-label { font-family: Arial, sans-serif; font-size: 10px; fill: #2c3e50; text-anchor: middle; }
      .cpu-block { stroke: #e74c3c; stroke-width: 2; fill: #fdedec; }
      .io-device { stroke: #3498db; stroke-width: 2; fill: #ebf5fb; }
      .decoder-block { stroke: #f39c12; stroke-width: 2; fill: #fef9e7; }
      .buffer-block { stroke: #27ae60; stroke-width: 2; fill: #eafaf1; }
      .control-line { stroke: #9b59b6; stroke-width: 2; fill: none; }
      .data-line { stroke: #e74c3c; stroke-width: 3; fill: none; }
      .address-line { stroke: #3498db; stroke-width: 2; fill: none; }
    </style>
  </defs>

  <!-- Title -->
  <text x="450" y="25" class="title">8085 I/O Interfacing - Memory Mapped and I/O Mapped</text>

  <!-- CPU Section -->
  <g class="cpu-section">
    <rect x="50" y="60" width="150" height="200" class="cpu-block"/>
    <text x="125" y="85" class="label">8085 CPU</text>
    
    <!-- CPU pins -->
    <circle cx="200" cy="110" r="3" fill="#e74c3c"/>
    <text x="215" y="115" class="small-label">A8-A15</text>
    
    <circle cx="200" cy="130" r="3" fill="#3498db"/>
    <text x="215" y="135" class="small-label">AD0-AD7</text>
    
    <circle cx="200" cy="150" r="3" fill="#f39c12"/>
    <text x="215" y="155" class="small-label">ALE</text>
    
    <circle cx="200" cy="170" r="3" fill="#9b59b6"/>
    <text x="215" y="175" class="small-label">RD</text>
    
    <circle cx="200" cy="190" r="3" fill="#9b59b6"/>
    <text x="215" y="195" class="small-label">WR</text>
    
    <circle cx="200" cy="210" r="3" fill="#9b59b6"/>
    <text x="215" y="215" class="small-label">IO/M</text>
  </g>

  <!-- Address Latch -->
  <g class="address-latch">
    <rect x="250" y="120" width="80" height="40" class="buffer-block"/>
    <text x="290" y="145" class="small-label">Address Latch</text>
    <text x="290" y="155" class="small-label">74LS373</text>
    
    <!-- Connections -->
    <line x1="200" y1="130" x2="250" y2="130" class="data-line"/>
    <line x1="200" y1="150" x2="240" y2="150" class="control-line"/>
    <line x1="240" y1="150" x2="240" y2="140" class="control-line"/>
    <line x1="240" y1="140" x2="250" y2="140" class="control-line"/>
    
    <!-- Output -->
    <line x1="330" y1="140" x2="380" y2="140" class="address-line"/>
    <text x="355" y="135" class="small-label">A0-A7</text>
  </g>

  <!-- I/O Address Decoder -->
  <g class="io-decoder">
    <rect x="380" y="80" width="100" height="80" class="decoder-block"/>
    <text x="430" y="105" class="small-label">I/O Address</text>
    <text x="430" y="120" class="small-label">Decoder</text>
    <text x="430" y="135" class="small-label">74LS138</text>
    
    <!-- Address inputs -->
    <line x1="200" y1="110" x2="350" y2="110" class="address-line"/>
    <line x1="350" y1="110" x2="350" y2="100" class="address-line"/>
    <line x1="350" y1="100" x2="380" y2="100" class="address-line"/>
    
    <line x1="380" y1="140" x2="380" y2="120" class="address-line"/>
    
    <!-- IO/M control -->
    <line x1="200" y1="210" x2="370" y2="210" class="control-line"/>
    <line x1="370" y1="210" x2="370" y2="130" class="control-line"/>
    <line x1="370" y1="130" x2="380" y2="130" class="control-line"/>
    <text x="375" y="125" class="small-label">EN</text>
    
    <!-- Chip select outputs -->
    <line x1="480" y1="100" x2="520" y2="100" class="control-line"/>
    <text x="500" y="95" class="small-label">CS0</text>
    
    <line x1="480" y1="120" x2="520" y2="120" class="control-line"/>
    <text x="500" y="115" class="small-label">CS1</text>
    
    <line x1="480" y1="140" x2="520" y2="140" class="control-line"/>
    <text x="500" y="135" class="small-label">CS2</text>
  </g>

  <!-- I/O Device 1 -->
  <g class="io-device1">
    <rect x="550" y="60" width="120" height="80" class="io-device"/>
    <text x="610" y="85" class="label">Input Device</text>
    <text x="610" y="100" class="small-label">(Keyboard/Switch)</text>
    <text x="610" y="115" class="small-label">Port Address: 00H</text>
    
    <!-- Connections -->
    <line x1="520" y1="100" x2="550" y2="100" class="control-line"/>
    <text x="535" y="95" class="small-label">CS</text>
    
    <line x1="200" y1="170" x2="540" y2="170" class="control-line"/>
    <line x1="540" y1="170" x2="540" y2="110" class="control-line"/>
    <line x1="540" y1="110" x2="550" y2="110" class="control-line"/>
    <text x="545" y="105" class="small-label">RD</text>
    
    <!-- Data bus connection -->
    <line x1="200" y1="130" x2="200" y2="300" class="data-line"/>
    <line x1="200" y1="300" x2="610" y2="300" class="data-line"/>
    <line x1="610" y1="300" x2="610" y2="140" class="data-line"/>
  </g>

  <!-- I/O Device 2 -->
  <g class="io-device2">
    <rect x="550" y="160" width="120" height="80" class="io-device"/>
    <text x="610" y="185" class="label">Output Device</text>
    <text x="610" y="200" class="small-label">(LED/Display)</text>
    <text x="610" y="215" class="small-label">Port Address: 01H</text>
    
    <!-- Connections -->
    <line x1="520" y1="120" x2="540" y2="120" class="control-line"/>
    <line x1="540" y1="120" x2="540" y2="180" class="control-line"/>
    <line x1="540" y1="180" x2="550" y2="180" class="control-line"/>
    
    <line x1="200" y1="190" x2="530" y2="190" class="control-line"/>
    <line x1="530" y1="190" x2="530" y2="190" class="control-line"/>
    <line x1="530" y1="190" x2="550" y2="190" class="control-line"/>
    <text x="535" y="185" class="small-label">WR</text>
    
    <!-- Data bus already connected above -->
    <line x1="610" y1="240" x2="610" y2="300" class="data-line"/>
  </g>

  <!-- I/O Device 3 (Memory Mapped) -->
  <g class="io-device3">
    <rect x="700" y="60" width="120" height="80" class="io-device"/>
    <text x="760" y="85" class="label">Memory Mapped</text>
    <text x="760" y="100" class="small-label">I/O Device</text>
    <text x="760" y="115" class="small-label">Address: 8000H</text>
    
    <!-- Direct address connection -->
    <line x1="350" y1="110" x2="690" y2="110" class="address-line"/>
    <line x1="690" y1="110" x2="690" y2="100" class="address-line"/>
    <line x1="690" y1="100" x2="700" y2="100" class="address-line"/>
    
    <line x1="380" y1="140" x2="380" y2="250" class="address-line"/>
    <line x1="380" y1="250" x2="690" y2="250" class="address-line"/>
    <line x1="690" y1="250" x2="690" y2="110" class="address-line"/>
    
    <!-- Control signals -->
    <line x1="530" y1="190" x2="680" y2="190" class="control-line"/>
    <line x1="680" y1="190" x2="680" y2="120" class="control-line"/>
    <line x1="680" y1="120" x2="700" y2="120" class="control-line"/>
    
    <line x1="540" y1="170" x2="680" y2="170" class="control-line"/>
    <line x1="680" y1="170" x2="680" y2="110" class="control-line"/>
    <line x1="680" y1="110" x2="700" y2="110" class="control-line"/>
    
    <!-- Data connection -->
    <line x1="610" y1="300" x2="760" y2="300" class="data-line"/>
    <line x1="760" y1="300" x2="760" y2="140" class="data-line"/>
  </g>

  <!-- Comparison Table -->
  <g class="comparison-table">
    <rect x="50" y="350" width="800" height="280" stroke="#34495e" stroke-width="2" fill="#f8f9fa"/>
    <text x="450" y="375" class="label">I/O Mapped vs Memory Mapped I/O Comparison</text>
    
    <!-- Table headers -->
    <rect x="80" y="390" width="150" height="30" fill="#34495e"/>
    <text x="155" y="410" class="label" fill="white">Aspect</text>
    
    <rect x="230" y="390" width="250" height="30" fill="#34495e"/>
    <text x="355" y="410" class="label" fill="white">I/O Mapped I/O</text>
    
    <rect x="480" y="390" width="250" height="30" fill="#34495e"/>
    <text x="605" y="410" class="label" fill="white">Memory Mapped I/O</text>
    
    <!-- Address Space row -->
    <rect x="80" y="420" width="150" height="40" fill="#ecf0f1" stroke="#bdc3c7"/>
    <text x="155" y="445" class="small-label">Address Space</text>
    
    <rect x="230" y="420" width="250" height="40" fill="#ecf0f1" stroke="#bdc3c7"/>
    <text x="355" y="435" class="small-label">Separate 8-bit I/O space</text>
    <text x="355" y="450" class="small-label">(256 ports: 00H-FFH)</text>
    
    <rect x="480" y="420" width="250" height="40" fill="#ecf0f1" stroke="#bdc3c7"/>
    <text x="605" y="435" class="small-label">Part of memory space</text>
    <text x="605" y="450" class="small-label">(64KB address range)</text>
    
    <!-- Instructions row -->
    <rect x="80" y="460" width="150" height="40" fill="#ecf0f1" stroke="#bdc3c7"/>
    <text x="155" y="485" class="small-label">Instructions</text>
    
    <rect x="230" y="460" width="250" height="40" fill="#ecf0f1" stroke="#bdc3c7"/>
    <text x="355" y="475" class="small-label">IN, OUT instructions</text>
    <text x="355" y="490" class="small-label">Special I/O opcodes</text>
    
    <rect x="480" y="460" width="250" height="40" fill="#ecf0f1" stroke="#bdc3c7"/>
    <text x="605" y="475" class="small-label">Any memory instruction</text>
    <text x="605" y="490" class="small-label">(MOV, LDA, STA, etc.)</text>
    
    <!-- Control Signal row -->
    <rect x="80" y="500" width="150" height="40" fill="#ecf0f1" stroke="#bdc3c7"/>
    <text x="155" y="525" class="small-label">Control Signal</text>
    
    <rect x="230" y="500" width="250" height="40" fill="#ecf0f1" stroke="#bdc3c7"/>
    <text x="355" y="515" class="small-label">IO/M = 1 (High)</text>
    <text x="355" y="530" class="small-label">Separate I/O space</text>
    
    <rect x="480" y="500" width="250" height="40" fill="#ecf0f1" stroke="#bdc3c7"/>
    <text x="605" y="515" class="small-label">IO/M = 0 (Low)</text>
    <text x="605" y="530" class="small-label">Same as memory access</text>
    
    <!-- Addressing row -->
    <rect x="80" y="540" width="150" height="40" fill="#ecf0f1" stroke="#bdc3c7"/>
    <text x="155" y="565" class="small-label">Addressing</text>
    
    <rect x="230" y="540" width="250" height="40" fill="#ecf0f1" stroke="#bdc3c7"/>
    <text x="355" y="555" class="small-label">8-bit port address</text>
    <text x="355" y="570" class="small-label">A0-A7 used only</text>
    
    <rect x="480" y="540" width="250" height="40" fill="#ecf0f1" stroke="#bdc3c7"/>
    <text x="605" y="555" class="small-label">16-bit memory address</text>
    <text x="605" y="570" class="small-label">Full A0-A15 used</text>
    
    <!-- Advantages/Disadvantages -->
    <text x="200" y="600" class="label">I/O Mapped Advantages:</text>
    <text x="200" y="615" class="small-label">• Separate address space for I/O</text>
    <text x="200" y="625" class="small-label">• Clear distinction between memory and I/O</text>
    
    <text x="550" y="600" class="label">Memory Mapped Advantages:</text>
    <text x="550" y="615" class="small-label">• Any memory instruction can access I/O</text>
    <text x="550" y="625" class="small-label">• More flexible programming</text>
  </g>

  <!-- Data bus label -->
  <text x="300" y="315" class="small-label">Data Bus (D0-D7)</text>
</svg>
