<svg viewBox="0 0 800 600" xmlns="http://www.w3.org/2000/svg">
  <defs>
    <style>
      .title { font-family: Arial, sans-serif; font-size: 18px; font-weight: bold; fill: #2c3e50; text-anchor: middle; }
      .label { font-family: Arial, sans-serif; font-size: 12px; fill: #2c3e50; text-anchor: middle; }
      .small-label { font-family: Arial, sans-serif; font-size: 10px; fill: #2c3e50; text-anchor: middle; }
      .memory-block { stroke: #34495e; stroke-width: 2; fill: #ecf0f1; }
      .cpu-block { stroke: #e74c3c; stroke-width: 2; fill: #fdf2e9; }
      .decoder-block { stroke: #f39c12; stroke-width: 2; fill: #fef9e7; }
      .latch-block { stroke: #27ae60; stroke-width: 2; fill: #eafaf1; }
      .bus-line { stroke: #3498db; stroke-width: 3; fill: none; }
      .control-line { stroke: #9b59b6; stroke-width: 2; fill: none; }
      .address-line { stroke: #e74c3c; stroke-width: 2; fill: none; }
    </style>
  </defs>

  <!-- Title -->
  <text x="400" y="25" class="title">8085 Memory Interfacing and Address Decoding</text>

  <!-- 8085 CPU -->
  <g class="cpu-section">
    <rect x="50" y="50" width="120" height="200" class="cpu-block"/>
    <text x="110" y="75" class="label">8085</text>
    <text x="110" y="90" class="label">CPU</text>
    
    <!-- CPU pins -->
    <circle cx="170" cy="110" r="3" fill="#e74c3c"/>
    <text x="185" y="115" class="small-label">A8-A15</text>
    
    <circle cx="170" cy="130" r="3" fill="#3498db"/>
    <text x="185" y="135" class="small-label">AD0-AD7</text>
    
    <circle cx="170" cy="150" r="3" fill="#f39c12"/>
    <text x="185" y="155" class="small-label">ALE</text>
    
    <circle cx="170" cy="170" r="3" fill="#9b59b6"/>
    <text x="185" y="175" class="small-label">RD</text>
    
    <circle cx="170" cy="190" r="3" fill="#9b59b6"/>
    <text x="185" y="195" class="small-label">WR</text>
    
    <circle cx="170" cy="210" r="3" fill="#9b59b6"/>
    <text x="185" y="215" class="small-label">IO/M</text>
  </g>

  <!-- Address Latch (74LS373) -->
  <g class="latch-section">
    <rect x="250" y="120" width="80" height="60" class="latch-block"/>
    <text x="290" y="140" class="small-label">74LS373</text>
    <text x="290" y="155" class="small-label">Address</text>
    <text x="290" y="170" class="small-label">Latch</text>
    
    <!-- Latch connections -->
    <line x1="170" y1="130" x2="250" y2="130" class="bus-line"/>
    <line x1="170" y1="150" x2="240" y2="150" class="control-line"/>
    <line x1="240" y1="150" x2="240" y2="160" class="control-line"/>
    <line x1="240" y1="160" x2="250" y2="160" class="control-line"/>
    
    <!-- Output from latch -->
    <line x1="330" y1="150" x2="380" y2="150" class="address-line"/>
    <text x="355" y="145" class="small-label">A0-A7</text>
  </g>

  <!-- Address Decoder -->
  <g class="decoder-section">
    <rect x="200" y="200" width="100" height="80" class="decoder-block"/>
    <text x="250" y="225" class="small-label">Address</text>
    <text x="250" y="240" class="small-label">Decoder</text>
    <text x="250" y="255" class="small-label">74LS138</text>
    
    <!-- Address inputs to decoder -->
    <line x1="170" y1="110" x2="200" y2="110" class="address-line"/>
    <line x1="200" y1="110" x2="200" y2="220" class="address-line"/>
    
    <!-- Chip select outputs -->
    <line x1="300" y1="220" x2="350" y2="220" class="control-line"/>
    <text x="325" y="215" class="small-label">CS0</text>
    
    <line x1="300" y1="240" x2="350" y2="240" class="control-line"/>
    <text x="325" y="235" class="small-label">CS1</text>
    
    <line x1="300" y1="260" x2="350" y2="260" class="control-line"/>
    <text x="325" y="255" class="small-label">CS2</text>
  </g>

  <!-- Memory Block 1 (ROM) -->
  <g class="memory1-section">
    <rect x="400" y="80" width="120" height="100" class="memory-block"/>
    <text x="460" y="105" class="label">ROM</text>
    <text x="460" y="120" class="small-label">8KB</text>
    <text x="460" y="135" class="small-label">(0000H-1FFFH)</text>
    
    <!-- Memory connections -->
    <line x1="380" y1="150" x2="400" y2="150" class="address-line"/>
    <text x="385" y="145" class="small-label">A0-A7</text>
    
    <line x1="170" y1="110" x2="380" y2="110" class="address-line"/>
    <line x1="380" y1="110" x2="380" y2="130" class="address-line"/>
    <line x1="380" y1="130" x2="400" y2="130" class="address-line"/>
    <text x="385" y="125" class="small-label">A8-A12</text>
    
    <line x1="350" y1="220" x2="380" y2="220" class="control-line"/>
    <line x1="380" y1="220" x2="380" y2="160" class="control-line"/>
    <line x1="380" y1="160" x2="400" y2="160" class="control-line"/>
    <text x="385" y="205" class="small-label">CS</text>
    
    <!-- Data bus -->
    <line x1="170" y1="130" x2="170" y2="300" class="bus-line"/>
    <line x1="170" y1="300" x2="460" y2="300" class="bus-line"/>
    <line x1="460" y1="300" x2="460" y2="180" class="bus-line"/>
    <text x="315" y="295" class="small-label">Data Bus (D0-D7)</text>
    
    <!-- Control signals -->
    <line x1="170" y1="170" x2="390" y2="170" class="control-line"/>
    <line x1="390" y1="170" x2="390" y2="170" class="control-line"/>
    <line x1="390" y1="170" x2="400" y2="170" class="control-line"/>
    <text x="385" y="165" class="small-label">RD</text>
  </g>

  <!-- Memory Block 2 (RAM) -->
  <g class="memory2-section">
    <rect x="560" y="80" width="120" height="100" class="memory-block"/>
    <text x="620" y="105" class="label">RAM</text>
    <text x="620" y="120" class="small-label">8KB</text>
    <text x="620" y="135" class="small-label">(2000H-3FFFH)</text>
    
    <!-- Memory connections -->
    <line x1="380" y1="150" x2="540" y2="150" class="address-line"/>
    <line x1="540" y1="150" x2="540" y2="130" class="address-line"/>
    <line x1="540" y1="130" x2="560" y2="130" class="address-line"/>
    
    <line x1="380" y1="110" x2="540" y2="110" class="address-line"/>
    <line x1="540" y1="110" x2="560" y2="110" class="address-line"/>
    
    <line x1="350" y1="240" x2="540" y2="240" class="control-line"/>
    <line x1="540" y1="240" x2="540" y2="140" class="control-line"/>
    <line x1="540" y1="140" x2="560" y2="140" class="control-line"/>
    
    <!-- Data bus connection -->
    <line x1="460" y1="300" x2="620" y2="300" class="bus-line"/>
    <line x1="620" y1="300" x2="620" y2="180" class="bus-line"/>
    
    <!-- Control signals -->
    <line x1="390" y1="170" x2="550" y2="170" class="control-line"/>
    <line x1="550" y1="170" x2="550" y2="150" class="control-line"/>
    <line x1="550" y1="150" x2="560" y2="150" class="control-line"/>
    
    <line x1="170" y1="190" x2="550" y2="190" class="control-line"/>
    <line x1="550" y1="190" x2="550" y2="160" class="control-line"/>
    <line x1="550" y1="160" x2="560" y2="160" class="control-line"/>
    <text x="555" y="155" class="small-label">WR</text>
  </g>

  <!-- Memory Map -->
  <g class="memory-map">
    <rect x="50" y="350" width="700" height="220" stroke="#34495e" stroke-width="2" fill="#f8f9fa"/>
    <text x="400" y="375" class="label">Memory Map and Address Decoding</text>
    
    <!-- Address ranges -->
    <rect x="80" y="390" width="150" height="40" fill="#e8f5e8" stroke="#27ae60"/>
    <text x="155" y="415" class="small-label">0000H - 1FFFH (ROM)</text>
    
    <rect x="250" y="390" width="150" height="40" fill="#fdf2e9" stroke="#f39c12"/>
    <text x="325" y="415" class="small-label">2000H - 3FFFH (RAM)</text>
    
    <rect x="420" y="390" width="150" height="40" fill="#fdedec" stroke="#e74c3c"/>
    <text x="495" y="415" class="small-label">4000H - 5FFFH (I/O)</text>
    
    <rect x="590" y="390" width="150" height="40" fill="#f4f6f7" stroke="#85929e"/>
    <text x="665" y="415" class="small-label">6000H - FFFFH (Unused)</text>
    
    <!-- Decoding logic explanation -->
    <text x="80" y="460" class="small-label">Address Decoding Logic:</text>
    <text x="80" y="480" class="small-label">• A15-A13 = 000 → ROM Select (CS0)</text>
    <text x="80" y="500" class="small-label">• A15-A13 = 001 → RAM Select (CS1)</text>
    <text x="80" y="520" class="small-label">• A15-A13 = 010 → I/O Select (CS2)</text>
    <text x="80" y="540" class="small-label">• ALE signal latches A0-A7 for complete 16-bit address</text>
  </g>
</svg>
