<svg viewBox="0 0 900 650" xmlns="http://www.w3.org/2000/svg">
  <defs>
    <style>
      .title { font-family: Arial, sans-serif; font-size: 20px; font-weight: bold; fill: #2c3e50; text-anchor: middle; }
      .label { font-family: Arial, sans-serif; font-size: 12px; fill: #2c3e50; text-anchor: middle; }
      .small-label { font-family: Arial, sans-serif; font-size: 10px; fill: #2c3e50; text-anchor: middle; }
      .register-block { stroke: #e74c3c; stroke-width: 2; fill: #fdedec; }
      .flag-block { stroke: #f39c12; stroke-width: 2; fill: #fef9e7; }
      .address-block { stroke: #3498db; stroke-width: 2; fill: #ebf5fb; }
      .data-block { stroke: #27ae60; stroke-width: 2; fill: #eafaf1; }
      .special-block { stroke: #9b59b6; stroke-width: 2; fill: #f4f0ff; }
      .bit-text { font-family: monospace; font-size: 8px; fill: #2c3e50; text-anchor: middle; }
    </style>
  </defs>

  <!-- Title -->
  <text x="450" y="25" class="title">8085 Complete Register Set and Organization</text>

  <!-- Accumulator -->
  <g class="accumulator-section">
    <rect x="50" y="60" width="120" height="60" class="register-block"/>
    <text x="110" y="85" class="label">Accumulator (A)</text>
    <text x="110" y="100" class="small-label">8-bit register</text>
    <text x="110" y="115" class="small-label">Primary ALU operand</text>
    
    <!-- Bit representation -->
    <g class="acc-bits">
      <rect x="60" y="125" width="12" height="15" fill="#fff" stroke="#e74c3c"/>
      <text x="66" y="137" class="bit-text">A7</text>
      <rect x="72" y="125" width="12" height="15" fill="#fff" stroke="#e74c3c"/>
      <text x="78" y="137" class="bit-text">A6</text>
      <rect x="84" y="125" width="12" height="15" fill="#fff" stroke="#e74c3c"/>
      <text x="90" y="137" class="bit-text">A5</text>
      <rect x="96" y="125" width="12" height="15" fill="#fff" stroke="#e74c3c"/>
      <text x="102" y="137" class="bit-text">A4</text>
      <rect x="108" y="125" width="12" height="15" fill="#fff" stroke="#e74c3c"/>
      <text x="114" y="137" class="bit-text">A3</text>
      <rect x="120" y="125" width="12" height="15" fill="#fff" stroke="#e74c3c"/>
      <text x="126" y="137" class="bit-text">A2</text>
      <rect x="132" y="125" width="12" height="15" fill="#fff" stroke="#e74c3c"/>
      <text x="138" y="137" class="bit-text">A1</text>
      <rect x="144" y="125" width="12" height="15" fill="#fff" stroke="#e74c3c"/>
      <text x="150" y="137" class="bit-text">A0</text>
    </g>
  </g>

  <!-- Flag Register -->
  <g class="flag-register">
    <rect x="200" y="60" width="160" height="60" class="flag-block"/>
    <text x="280" y="85" class="label">Flag Register (PSW)</text>
    <text x="280" y="100" class="small-label">Program Status Word</text>
    
    <!-- Flag bits -->
    <g class="flag-bits">
      <rect x="210" y="125" width="15" height="15" fill="#fff3cd" stroke="#ffc107"/>
      <text x="217" y="137" class="bit-text">S</text>
      <rect x="225" y="125" width="15" height="15" fill="#fff3cd" stroke="#ffc107"/>
      <text x="232" y="137" class="bit-text">Z</text>
      <rect x="240" y="125" width="15" height="15" fill="#fff3cd" stroke="#ffc107"/>
      <text x="247" y="137" class="bit-text">X</text>
      <rect x="255" y="125" width="15" height="15" fill="#fff3cd" stroke="#ffc107"/>
      <text x="262" y="137" class="bit-text">AC</text>
      <rect x="270" y="125" width="15" height="15" fill="#fff3cd" stroke="#ffc107"/>
      <text x="277" y="137" class="bit-text">X</text>
      <rect x="285" y="125" width="15" height="15" fill="#fff3cd" stroke="#ffc107"/>
      <text x="292" y="137" class="bit-text">P</text>
      <rect x="300" y="125" width="15" height="15" fill="#fff3cd" stroke="#ffc107"/>
      <text x="307" y="137" class="bit-text">X</text>
      <rect x="315" y="125" width="15" height="15" fill="#fff3cd" stroke="#ffc107"/>
      <text x="322" y="137" class="bit-text">CY</text>
    </g>
    
    <text x="280" y="155" class="small-label">S=Sign, Z=Zero, AC=Aux Carry, P=Parity, CY=Carry</text>
  </g>

  <!-- General Purpose Registers -->
  <g class="general-registers">
    <rect x="400" y="60" width="200" height="120" class="data-block"/>
    <text x="500" y="85" class="label">General Purpose Registers</text>
    
    <!-- Register pairs -->
    <rect x="420" y="95" width="40" height="20" fill="#d5f4e6" stroke="#27ae60"/>
    <text x="440" y="108" class="small-label">B</text>
    <rect x="465" y="95" width="40" height="20" fill="#d5f4e6" stroke="#27ae60"/>
    <text x="485" y="108" class="small-label">C</text>
    <text x="525" y="108" class="small-label">BC Pair (16-bit)</text>
    
    <rect x="420" y="120" width="40" height="20" fill="#d5f4e6" stroke="#27ae60"/>
    <text x="440" y="133" class="small-label">D</text>
    <rect x="465" y="120" width="40" height="20" fill="#d5f4e6" stroke="#27ae60"/>
    <text x="485" y="133" class="small-label">E</text>
    <text x="525" y="133" class="small-label">DE Pair (16-bit)</text>
    
    <rect x="420" y="145" width="40" height="20" fill="#d5f4e6" stroke="#27ae60"/>
    <text x="440" y="158" class="small-label">H</text>
    <rect x="465" y="145" width="40" height="20" fill="#d5f4e6" stroke="#27ae60"/>
    <text x="485" y="158" class="small-label">L</text>
    <text x="525" y="158" class="small-label">HL Pair (16-bit)</text>
  </g>

  <!-- Address Registers -->
  <g class="address-registers">
    <rect x="650" y="60" width="200" height="120" class="address-block"/>
    <text x="750" y="85" class="label">Address Registers</text>
    
    <!-- Program Counter -->
    <rect x="670" y="95" width="160" height="25" fill="#d6eaf8" stroke="#3498db"/>
    <text x="750" y="112" class="small-label">Program Counter (PC) - 16 bit</text>
    
    <!-- Stack Pointer -->
    <rect x="670" y="125" width="160" height="25" fill="#d6eaf8" stroke="#3498db"/>
    <text x="750" y="142" class="small-label">Stack Pointer (SP) - 16 bit</text>
    
    <text x="750" y="165" class="small-label">Points to current instruction and stack top</text>
  </g>

  <!-- Register Functions and Usage -->
  <g class="register-functions">
    <rect x="50" y="200" width="800" height="420" stroke="#34495e" stroke-width="2" fill="#f8f9fa"/>
    <text x="450" y="225" class="label">Register Functions and Usage Details</text>
    
    <!-- Accumulator Details -->
    <rect x="80" y="240" width="180" height="100" class="register-block"/>
    <text x="170" y="260" class="label">Accumulator (A)</text>
    <text x="170" y="275" class="small-label">• Primary ALU operand</text>
    <text x="170" y="290" class="small-label">• Result destination</text>
    <text x="170" y="305" class="small-label">• I/O operations</text>
    <text x="170" y="320" class="small-label">• Data transfer hub</text>
    <text x="170" y="335" class="small-label">• Rotate/shift operations</text>
    
    <!-- Flag Register Details -->
    <rect x="280" y="240" width="180" height="100" class="flag-block"/>
    <text x="370" y="260" class="label">Flag Register</text>
    <text x="370" y="275" class="small-label">• Sign (S): Bit 7 of result</text>
    <text x="370" y="290" class="small-label">• Zero (Z): Result is zero</text>
    <text x="370" y="305" class="small-label">• Auxiliary Carry (AC): BCD</text>
    <text x="370" y="320" class="small-label">• Parity (P): Even parity</text>
    <text x="370" y="335" class="small-label">• Carry (CY): Arithmetic carry</text>
    
    <!-- General Purpose Details -->
    <rect x="480" y="240" width="180" height="100" class="data-block"/>
    <text x="570" y="260" class="label">General Purpose</text>
    <text x="570" y="275" class="small-label">• B, C: BC pair addressing</text>
    <text x="570" y="290" class="small-label">• D, E: DE pair addressing</text>
    <text x="570" y="305" class="small-label">• H, L: HL memory pointer</text>
    <text x="570" y="320" class="small-label">• Individual 8-bit storage</text>
    <text x="570" y="335" class="small-label">• 16-bit arithmetic/addressing</text>
    
    <!-- Address Register Details -->
    <rect x="680" y="240" width="180" height="100" class="address-block"/>
    <text x="770" y="260" class="label">Address Registers</text>
    <text x="770" y="275" class="small-label">• PC: Next instruction address</text>
    <text x="770" y="290" class="small-label">• SP: Stack top pointer</text>
    <text x="770" y="305" class="small-label">• Auto-increment/decrement</text>
    <text x="770" y="320" class="small-label">• Subroutine/interrupt handling</text>
    <text x="770" y="335" class="small-label">• 64KB address space</text>
    
    <!-- Register Pairs Usage -->
    <text x="200" y="370" class="label">Register Pair Usage Patterns</text>
    
    <rect x="80" y="385" width="200" height="60" fill="#e8f4fd" stroke="#1976d2"/>
    <text x="180" y="405" class="small-label">BC Pair Applications</text>
    <text x="180" y="420" class="small-label">• Counter register for loops</text>
    <text x="180" y="435" class="small-label">• Address pointer for I/O operations</text>
    
    <rect x="300" y="385" width="200" height="60" fill="#fff3e0" stroke="#f57c00"/>
    <text x="400" y="405" class="small-label">DE Pair Applications</text>
    <text x="400" y="420" class="small-label">• Destination address pointer</text>
    <text x="400" y="435" class="small-label">• 16-bit data storage</text>
    
    <rect x="520" y="385" width="200" height="60" fill="#f3e5f5" stroke="#7b1fa2"/>
    <text x="620" y="405" class="small-label">HL Pair Applications</text>
    <text x="620" y="420" class="small-label">• Primary memory pointer</text>
    <text x="620" y="435" class="small-label">• Indirect addressing mode</text>
    
    <!-- Stack Operations -->
    <text x="200" y="470" class="label">Stack Operations</text>
    
    <rect x="80" y="485" width="300" height="80" fill="#f0f9ff" stroke="#0ea5e9"/>
    <text x="230" y="505" class="small-label">Stack Pointer (SP) Behavior</text>
    <text x="230" y="520" class="small-label">• PUSH: Increment SP, then store data</text>
    <text x="230" y="535" class="small-label">• POP: Load data, then decrement SP</text>
    <text x="230" y="550" class="small-label">• Points to last used location</text>
    <text x="230" y="565" class="small-label">• Used for subroutines and interrupts</text>
    
    <rect x="400" y="485" width="300" height="80" fill="#f0fdf4" stroke="#22c55e"/>
    <text x="550" y="505" class="small-label">Program Counter (PC) Behavior</text>
    <text x="550" y="520" class="small-label">• Auto-increments after instruction fetch</text>
    <text x="550" y="535" class="small-label">• Modified by jump/branch instructions</text>
    <text x="550" y="550" class="small-label">• Saved/restored during interrupts</text>
    <text x="550" y="565" class="small-label">• 16-bit address for 64KB space</text>
    
    <!-- Register Transfer Operations -->
    <text x="450" y="590" class="label">Common Register Operations</text>
    <text x="450" y="605" class="small-label">MOV A,B • LXI H,address • PUSH B • POP D • INR A • DCR C • ADD B • CMP C</text>
  </g>
</svg>
