<?xml version="1.0" encoding="UTF-8"?>
<svg width="800" height="600" viewBox="0 0 800 600" xmlns="http://www.w3.org/2000/svg">
  <title>LCD Display Interface with 8051 Microcontroller</title>
  
  <defs>
    <style>
      .title { font-family: Arial, sans-serif; font-size: 20px; font-weight: bold; text-anchor: middle; }
      .subtitle { font-family: Arial, sans-serif; font-size: 14px; font-weight: bold; text-anchor: middle; }
      .label { font-family: Arial, sans-serif; font-size: 12px; text-anchor: middle; }
      .small-label { font-family: Arial, sans-serif; font-size: 10px; text-anchor: start; }
      .pin-label { font-family: Arial, sans-serif; font-size: 9px; text-anchor: start; }
      .code-text { font-family: 'Courier New', monospace; font-size: 9px; text-anchor: start; }
      .ic-body { fill: #f0f0f0; stroke: #333; stroke-width: 2; }
      .lcd-body { fill: #e6f3ff; stroke: #0066cc; stroke-width: 2; }
      .data-bus { stroke: #0066cc; stroke-width: 2; }
      .control-line { stroke: #cc0000; stroke-width: 2; }
      .power-line { stroke: #00aa00; stroke-width: 2; }
    </style>
  </defs>
  
  <!-- Title -->
  <text x="400" y="30" class="title" fill="#333">LCD Display Interface with 8051 Microcontroller</text>
  
  <!-- 8051 Microcontroller -->
  <g class="microcontroller">
    <rect x="50" y="80" width="120" height="200" class="ic-body" rx="10"/>
    <text x="110" y="100" class="label" fill="#333">8051</text>
    <text x="110" y="115" class="small-label" fill="#333">Microcontroller</text>
    
    <!-- Port 1 pins for data -->
    <g class="port1-pins">
      <text x="175" y="140" class="pin-label" fill="#333">P1.0 → D4</text>
      <text x="175" y="155" class="pin-label" fill="#333">P1.1 → D5</text>
      <text x="175" y="170" class="pin-label" fill="#333">P1.2 → D6</text>
      <text x="175" y="185" class="pin-label" fill="#333">P1.3 → D7</text>
      
      <!-- Data lines -->
      <line x1="170" y1="145" x2="220" y2="145" class="data-bus"/>
      <line x1="170" y1="160" x2="220" y2="160" class="data-bus"/>
      <line x1="170" y1="175" x2="220" y2="175" class="data-bus"/>
      <line x1="170" y1="190" x2="220" y2="190" class="data-bus"/>
    </g>
    
    <!-- Control pins -->
    <g class="control-pins">
      <text x="175" y="210" class="pin-label" fill="#333">P1.4 → RS</text>
      <text x="175" y="225" class="pin-label" fill="#333">P1.5 → EN</text>
      <text x="175" y="240" class="pin-label" fill="#333">P1.6 → RW</text>
      
      <!-- Control lines -->
      <line x1="170" y1="215" x2="220" y2="215" class="control-line"/>
      <line x1="170" y1="230" x2="220" y2="230" class="control-line"/>
      <line x1="170" y1="245" x2="220" y2="245" class="control-line"/>
    </g>
  </g>
  
  <!-- LCD Display -->
  <g class="lcd-display">
    <rect x="300" y="80" width="200" height="200" class="lcd-body" rx="10"/>
    <text x="400" y="100" class="label" fill="#333">16x2 LCD Display</text>
    <text x="400" y="115" class="small-label" fill="#333">HD44780 Controller</text>
    
    <!-- LCD screen representation -->
    <rect x="320" y="130" width="160" height="60" fill="#000" stroke="#333"/>
    <rect x="325" y="135" width="150" height="25" fill="#006600"/>
    <text x="400" y="150" class="label" fill="#ffffff">Hello World!</text>
    <rect x="325" y="160" width="150" height="25" fill="#006600"/>
    <text x="400" y="175" class="label" fill="#ffffff">8051 LCD Demo</text>
    
    <!-- Pin connections -->
    <g class="lcd-pins">
      <!-- Data pins -->
      <circle cx="290" cy="145" r="3" fill="#0066cc"/>
      <text x="260" y="150" class="pin-label" fill="#333">D4</text>
      <line x1="220" y1="145" x2="290" y2="145" class="data-bus"/>
      
      <circle cx="290" cy="160" r="3" fill="#0066cc"/>
      <text x="260" y="165" class="pin-label" fill="#333">D5</text>
      <line x1="220" y1="160" x2="290" y2="160" class="data-bus"/>
      
      <circle cx="290" cy="175" r="3" fill="#0066cc"/>
      <text x="260" y="180" class="pin-label" fill="#333">D6</text>
      <line x1="220" y1="175" x2="290" y2="175" class="data-bus"/>
      
      <circle cx="290" cy="190" r="3" fill="#0066cc"/>
      <text x="260" y="195" class="pin-label" fill="#333">D7</text>
      <line x1="220" y1="190" x2="290" y2="190" class="data-bus"/>
      
      <!-- Control pins -->
      <circle cx="290" cy="215" r="3" fill="#cc0000"/>
      <text x="260" y="220" class="pin-label" fill="#333">RS</text>
      <line x1="220" y1="215" x2="290" y2="215" class="control-line"/>
      
      <circle cx="290" cy="230" r="3" fill="#cc0000"/>
      <text x="260" y="235" class="pin-label" fill="#333">EN</text>
      <line x1="220" y1="230" x2="290" y2="230" class="control-line"/>
      
      <circle cx="290" cy="245" r="3" fill="#cc0000"/>
      <text x="260" y="250" class="pin-label" fill="#333">RW</text>
      <line x1="220" y1="245" x2="290" y2="245" class="control-line"/>
      
      <!-- Power and ground -->
      <circle cx="290" cy="210" r="3" fill="#00aa00"/>
      <text x="260" y="205" class="pin-label" fill="#333">VCC</text>
      
      <circle cx="290" cy="260" r="3" fill="#000"/>
      <text x="260" y="265" class="pin-label" fill="#333">VSS</text>
      
      <!-- Contrast control -->
      <circle cx="290" cy="275" r="3" fill="#666"/>
      <text x="260" y="280" class="pin-label" fill="#333">VEE</text>
    </g>
  </g>
  
  <!-- Control Signal Functions -->
  <g class="control-functions">
    <text x="600" y="100" class="subtitle" fill="#333">Control Signals</text>
    
    <rect x="550" y="120" width="200" height="160" fill="#f9f9f9" stroke="#666" rx="5"/>
    
    <text x="560" y="140" class="small-label" fill="#333">RS (Register Select):</text>
    <text x="570" y="155" class="small-label" fill="#333">0 = Command Register</text>
    <text x="570" y="170" class="small-label" fill="#333">1 = Data Register</text>
    
    <text x="560" y="190" class="small-label" fill="#333">EN (Enable):</text>
    <text x="570" y="205" class="small-label" fill="#333">High to Low pulse</text>
    <text x="570" y="220" class="small-label" fill="#333">to latch data</text>
    
    <text x="560" y="240" class="small-label" fill="#333">RW (Read/Write):</text>
    <text x="570" y="255" class="small-label" fill="#333">0 = Write to LCD</text>
    <text x="570" y="270" class="small-label" fill="#333">1 = Read from LCD</text>
  </g>
  
  <!-- LCD Commands -->
  <g class="lcd-commands">
    <text x="200" y="320" class="subtitle" fill="#333">Common LCD Commands</text>
    
    <rect x="50" y="340" width="500" height="120" fill="#f9f9f9" stroke="#666" rx="5"/>
    
    <text x="70" y="360" class="code-text" fill="#333">0x01 - Clear Display</text>
    <text x="70" y="375" class="code-text" fill="#333">0x02 - Return Home</text>
    <text x="70" y="390" class="code-text" fill="#333">0x06 - Entry Mode (Auto increment)</text>
    <text x="70" y="405" class="code-text" fill="#333">0x0C - Display ON, Cursor OFF</text>
    <text x="70" y="420" class="code-text" fill="#333">0x0E - Display ON, Cursor ON</text>
    <text x="70" y="435" class="code-text" fill="#333">0x38 - 8-bit mode, 2 lines, 5x7 dots</text>
    <text x="70" y="450" class="code-text" fill="#333">0x28 - 4-bit mode, 2 lines, 5x7 dots</text>
    
    <text x="320" y="360" class="code-text" fill="#333">0x80 - Set cursor to line 1, position 1</text>
    <text x="320" y="375" class="code-text" fill="#333">0xC0 - Set cursor to line 2, position 1</text>
    <text x="320" y="390" class="code-text" fill="#333">0x10 - Shift cursor left</text>
    <text x="320" y="405" class="code-text" fill="#333">0x14 - Shift cursor right</text>
    <text x="320" y="420" class="code-text" fill="#333">0x18 - Shift display left</text>
    <text x="320" y="435" class="code-text" fill="#333">0x1C - Shift display right</text>
  </g>
  
  <!-- Programming Example -->
  <g class="programming-example">
    <text x="650" y="320" class="subtitle" fill="#333">Programming Example</text>
    
    <rect x="570" y="340" width="180" height="220" fill="#f0f8ff" stroke="#0066cc" rx="5"/>
    
    <text x="580" y="360" class="code-text" fill="#333">; LCD Initialization</text>
    <text x="580" y="375" class="code-text" fill="#333">LCD_INIT:</text>
    <text x="580" y="390" class="code-text" fill="#333">  MOV A,#38H</text>
    <text x="580" y="405" class="code-text" fill="#333">  CALL LCD_CMD</text>
    <text x="580" y="420" class="code-text" fill="#333">  MOV A,#0CH</text>
    <text x="580" y="435" class="code-text" fill="#333">  CALL LCD_CMD</text>
    <text x="580" y="450" class="code-text" fill="#333">  MOV A,#01H</text>
    <text x="580" y="465" class="code-text" fill="#333">  CALL LCD_CMD</text>
    <text x="580" y="480" class="code-text" fill="#333">  RET</text>
    
    <text x="580" y="500" class="code-text" fill="#333">; Send Command</text>
    <text x="580" y="515" class="code-text" fill="#333">LCD_CMD:</text>
    <text x="580" y="530" class="code-text" fill="#333">  MOV P1,A</text>
    <text x="580" y="545" class="code-text" fill="#333">  CLR P1.4  ; RS=0</text>
    <text x="580" y="560" class="code-text" fill="#333">  CALL PULSE_EN</text>
  </g>
  
  <!-- 4-bit Mode Connection -->
  <g class="four-bit-mode">
    <text x="400" y="480" class="subtitle" fill="#333">4-bit Mode Operation</text>
    
    <rect x="200" y="500" width="400" height="80" fill="#fff8f0" stroke="#ff6600" rx="5"/>
    
    <text x="220" y="520" class="small-label" fill="#333">• Uses only D4-D7 data lines (4 pins instead of 8)</text>
    <text x="220" y="535" class="small-label" fill="#333">• Data sent in two 4-bit nibbles (upper first, then lower)</text>
    <text x="220" y="550" class="small-label" fill="#333">• Saves I/O pins on microcontroller</text>
    <text x="220" y="565" class="small-label" fill="#333">• Slightly slower than 8-bit mode but more economical</text>
  </g>
</svg>
