<?xml version="1.0" encoding="UTF-8"?>
<svg width="800" height="600" viewBox="0 0 800 600" xmlns="http://www.w3.org/2000/svg">
  <title>8051 Interrupt Handling and Priority System</title>
  
  <defs>
    <style>
      .title { font-family: Arial, sans-serif; font-size: 20px; font-weight: bold; text-anchor: middle; }
      .subtitle { font-family: Arial, sans-serif; font-size: 14px; font-weight: bold; text-anchor: middle; }
      .label { font-family: Arial, sans-serif; font-size: 12px; text-anchor: middle; }
      .small-label { font-family: Arial, sans-serif; font-size: 10px; text-anchor: start; }
      .code-text { font-family: 'Courier New', monospace; font-size: 9px; text-anchor: start; }
      .interrupt-box { fill: #ffe6e6; stroke: #cc0000; stroke-width: 2; }
      .priority-box { fill: #e6f3ff; stroke: #0066cc; stroke-width: 2; }
      .vector-box { fill: #e6ffe6; stroke: #00aa00; stroke-width: 2; }
      .register-box { fill: #fff2e6; stroke: #ff6600; stroke-width: 2; }
      .flow-arrow { stroke: #333; stroke-width: 2; marker-end: url(#arrowhead); }
    </style>
    
    <marker id="arrowhead" markerWidth="10" markerHeight="7" 
     refX="9" refY="3.5" orient="auto">
      <polygon points="0 0, 10 3.5, 0 7" fill="#333" />
    </marker>
  </defs>
  
  <!-- Title -->
  <text x="400" y="30" class="title" fill="#333">8051 Interrupt Handling and Priority System</text>
  
  <!-- Interrupt Sources -->
  <g class="interrupt-sources">
    <text x="150" y="60" class="subtitle" fill="#333">Interrupt Sources</text>
    
    <!-- External Interrupt 0 -->
    <rect x="50" y="80" width="120" height="40" class="interrupt-box" rx="5"/>
    <text x="110" y="95" class="label" fill="#333">External INT0</text>
    <text x="110" y="110" class="small-label" fill="#333">Pin P3.2, Vector 0003H</text>
    
    <!-- Timer 0 Interrupt -->
    <rect x="50" y="130" width="120" height="40" class="interrupt-box" rx="5"/>
    <text x="110" y="145" class="label" fill="#333">Timer 0</text>
    <text x="110" y="160" class="small-label" fill="#333">Overflow, Vector 000BH</text>
    
    <!-- External Interrupt 1 -->
    <rect x="50" y="180" width="120" height="40" class="interrupt-box" rx="5"/>
    <text x="110" y="195" class="label" fill="#333">External INT1</text>
    <text x="110" y="210" class="small-label" fill="#333">Pin P3.3, Vector 0013H</text>
    
    <!-- Timer 1 Interrupt -->
    <rect x="50" y="230" width="120" height="40" class="interrupt-box" rx="5"/>
    <text x="110" y="245" class="label" fill="#333">Timer 1</text>
    <text x="110" y="260" class="small-label" fill="#333">Overflow, Vector 001BH</text>
    
    <!-- Serial Port Interrupt -->
    <rect x="50" y="280" width="120" height="40" class="interrupt-box" rx="5"/>
    <text x="110" y="295" class="label" fill="#333">Serial Port</text>
    <text x="110" y="310" class="small-label" fill="#333">TI/RI, Vector 0023H</text>
  </g>
  
  <!-- Interrupt Enable Register (IE) -->
  <g class="ie-register">
    <text x="350" y="60" class="subtitle" fill="#333">Interrupt Enable Register (IE) - A8H</text>
    
    <rect x="250" y="80" width="200" height="120" class="register-box" rx="5"/>
    
    <!-- Bit layout -->
    <g class="bit-layout">
      <rect x="270" y="100" width="20" height="25" fill="#ffcccc" stroke="#cc0000"/>
      <text x="280" y="118" class="small-label" fill="#333">EA</text>
      <text x="265" y="135" class="small-label" fill="#333">Bit 7</text>
      
      <rect x="290" y="100" width="20" height="25" fill="#cccccc" stroke="#666"/>
      <text x="300" y="118" class="small-label" fill="#333">-</text>
      <text x="295" y="135" class="small-label" fill="#333">Bit 6</text>
      
      <rect x="310" y="100" width="20" height="25" fill="#cccccc" stroke="#666"/>
      <text x="320" y="118" class="small-label" fill="#333">-</text>
      <text x="315" y="135" class="small-label" fill="#333">Bit 5</text>
      
      <rect x="330" y="100" width="20" height="25" fill="#ccffcc" stroke="#00cc00"/>
      <text x="340" y="118" class="small-label" fill="#333">ES</text>
      <text x="335" y="135" class="small-label" fill="#333">Bit 4</text>
      
      <rect x="350" y="100" width="20" height="25" fill="#ccffcc" stroke="#00cc00"/>
      <text x="360" y="118" class="small-label" fill="#333">ET1</text>
      <text x="355" y="135" class="small-label" fill="#333">Bit 3</text>
      
      <rect x="370" y="100" width="20" height="25" fill="#ccffcc" stroke="#00cc00"/>
      <text x="380" y="118" class="small-label" fill="#333">EX1</text>
      <text x="375" y="135" class="small-label" fill="#333">Bit 2</text>
      
      <rect x="390" y="100" width="20" height="25" fill="#ccffcc" stroke="#00cc00"/>
      <text x="400" y="118" class="small-label" fill="#333">ET0</text>
      <text x="395" y="135" class="small-label" fill="#333">Bit 1</text>
      
      <rect x="410" y="100" width="20" height="25" fill="#ccffcc" stroke="#00cc00"/>
      <text x="420" y="118" class="small-label" fill="#333">EX0</text>
      <text x="415" y="135" class="small-label" fill="#333">Bit 0</text>
    </g>
    
    <!-- Bit descriptions -->
    <text x="260" y="160" class="small-label" fill="#333">EA: Global interrupt enable/disable</text>
    <text x="260" y="175" class="small-label" fill="#333">ES: Serial port interrupt enable</text>
    <text x="260" y="190" class="small-label" fill="#333">ET1/ET0: Timer 1/0 interrupt enable</text>
  </g>
  
  <!-- Interrupt Priority Register (IP) -->
  <g class="ip-register">
    <text x="600" y="60" class="subtitle" fill="#333">Interrupt Priority (IP) - B8H</text>
    
    <rect x="500" y="80" width="200" height="120" class="priority-box" rx="5"/>
    
    <!-- Priority bit layout -->
    <g class="priority-bits">
      <rect x="520" y="100" width="20" height="25" fill="#cccccc" stroke="#666"/>
      <text x="530" y="118" class="small-label" fill="#333">-</text>
      
      <rect x="540" y="100" width="20" height="25" fill="#cccccc" stroke="#666"/>
      <text x="550" y="118" class="small-label" fill="#333">-</text>
      
      <rect x="560" y="100" width="20" height="25" fill="#cccccc" stroke="#666"/>
      <text x="570" y="118" class="small-label" fill="#333">-</text>
      
      <rect x="580" y="100" width="20" height="25" fill="#ccffff" stroke="#0066cc"/>
      <text x="590" y="118" class="small-label" fill="#333">PS</text>
      
      <rect x="600" y="100" width="20" height="25" fill="#ccffff" stroke="#0066cc"/>
      <text x="610" y="118" class="small-label" fill="#333">PT1</text>
      
      <rect x="620" y="100" width="20" height="25" fill="#ccffff" stroke="#0066cc"/>
      <text x="630" y="118" class="small-label" fill="#333">PX1</text>
      
      <rect x="640" y="100" width="20" height="25" fill="#ccffff" stroke="#0066cc"/>
      <text x="650" y="118" class="small-label" fill="#333">PT0</text>
      
      <rect x="660" y="100" width="20" height="25" fill="#ccffff" stroke="#0066cc"/>
      <text x="670" y="118" class="small-label" fill="#333">PX0</text>
    </g>
    
    <text x="510" y="150" class="small-label" fill="#333">0 = Low Priority, 1 = High Priority</text>
    <text x="510" y="165" class="small-label" fill="#333">Default: All interrupts low priority</text>
    <text x="510" y="180" class="small-label" fill="#333">High priority can interrupt low priority</text>
  </g>
  
  <!-- Interrupt Processing Flow -->
  <g class="interrupt-flow">
    <text x="400" y="240" class="subtitle" fill="#333">Interrupt Processing Flow</text>
    
    <!-- Flow steps -->
    <rect x="100" y="260" width="120" height="40" class="vector-box" rx="5"/>
    <text x="160" y="275" class="label" fill="#333">Interrupt</text>
    <text x="160" y="290" class="label" fill="#333">Request</text>
    
    <rect x="250" y="260" width="120" height="40" class="vector-box" rx="5"/>
    <text x="310" y="275" class="label" fill="#333">Check Priority</text>
    <text x="310" y="290" class="label" fill="#333">&amp; Enable</text>
    
    <rect x="400" y="260" width="120" height="40" class="vector-box" rx="5"/>
    <text x="460" y="275" class="label" fill="#333">Save PC</text>
    <text x="460" y="290" class="label" fill="#333">to Stack</text>
    
    <rect x="550" y="260" width="120" height="40" class="vector-box" rx="5"/>
    <text x="610" y="275" class="label" fill="#333">Jump to</text>
    <text x="610" y="290" class="label" fill="#333">ISR Vector</text>
    
    <!-- Flow arrows -->
    <line x1="220" y1="280" x2="250" y2="280" class="flow-arrow"/>
    <line x1="370" y1="280" x2="400" y2="280" class="flow-arrow"/>
    <line x1="520" y1="280" x2="550" y2="280" class="flow-arrow"/>
    
    <!-- Return flow -->
    <rect x="400" y="320" width="120" height="40" class="vector-box" rx="5"/>
    <text x="460" y="335" class="label" fill="#333">Execute ISR</text>
    <text x="460" y="350" class="label" fill="#333">Code</text>
    
    <rect x="250" y="320" width="120" height="40" class="vector-box" rx="5"/>
    <text x="310" y="335" class="label" fill="#333">RETI</text>
    <text x="310" y="350" class="label" fill="#333">Instruction</text>
    
    <rect x="100" y="320" width="120" height="40" class="vector-box" rx="5"/>
    <text x="160" y="335" class="label" fill="#333">Restore PC</text>
    <text x="160" y="350" class="label" fill="#333">Continue</text>
    
    <!-- Return arrows -->
    <line x1="610" y1="300" x2="610" y2="320" class="flow-arrow"/>
    <line x1="460" y1="320" x2="460" y2="300" stroke="#333" stroke-width="2"/>
    <line x1="400" y1="340" x2="370" y2="340" class="flow-arrow"/>
    <line x1="250" y1="340" x2="220" y2="340" class="flow-arrow"/>
  </g>
  
  <!-- Interrupt Vectors -->
  <g class="interrupt-vectors">
    <text x="150" y="400" class="subtitle" fill="#333">Interrupt Vector Table</text>
    
    <rect x="50" y="420" width="250" height="120" class="vector-box" rx="5"/>
    
    <text x="70" y="440" class="code-text" fill="#333">0000H: Reset Vector</text>
    <text x="70" y="455" class="code-text" fill="#333">0003H: External Interrupt 0 (INT0)</text>
    <text x="70" y="470" class="code-text" fill="#333">000BH: Timer 0 Overflow</text>
    <text x="70" y="485" class="code-text" fill="#333">0013H: External Interrupt 1 (INT1)</text>
    <text x="70" y="500" class="code-text" fill="#333">001BH: Timer 1 Overflow</text>
    <text x="70" y="515" class="code-text" fill="#333">0023H: Serial Port (TI/RI)</text>
    <text x="70" y="530" class="code-text" fill="#333">002BH: Available for future use</text>
  </g>
  
  <!-- Priority Levels -->
  <g class="priority-levels">
    <text x="500" y="400" class="subtitle" fill="#333">Priority Levels (High to Low)</text>
    
    <rect x="350" y="420" width="250" height="120" class="priority-box" rx="5"/>
    
    <text x="370" y="440" class="small-label" fill="#333">1. External Interrupt 0 (INT0)</text>
    <text x="370" y="455" class="small-label" fill="#333">2. Timer 0 Overflow</text>
    <text x="370" y="470" class="small-label" fill="#333">3. External Interrupt 1 (INT1)</text>
    <text x="370" y="485" class="small-label" fill="#333">4. Timer 1 Overflow</text>
    <text x="370" y="500" class="small-label" fill="#333">5. Serial Port Interrupt</text>
    <text x="370" y="520" class="small-label" fill="#333">Note: Can be modified by IP register</text>
  </g>
  
  <!-- ISR Programming Example -->
  <g class="isr-example">
    <text x="650" y="400" class="subtitle" fill="#333">ISR Example</text>
    
    <rect x="620" y="420" width="150" height="120" class="register-box" rx="5"/>
    
    <text x="630" y="440" class="code-text" fill="#333">ORG 0003H  ; INT0 vector</text>
    <text x="630" y="455" class="code-text" fill="#333">LJMP INT0_ISR</text>
    <text x="630" y="470" class="code-text" fill="#333"></text>
    <text x="630" y="485" class="code-text" fill="#333">INT0_ISR:</text>
    <text x="630" y="500" class="code-text" fill="#333">  PUSH ACC</text>
    <text x="630" y="515" class="code-text" fill="#333">  ; ISR code here</text>
    <text x="630" y="530" class="code-text" fill="#333">  POP ACC</text>
    <text x="630" y="545" class="code-text" fill="#333">  RETI</text>
  </g>
</svg>
