<?xml version="1.0" encoding="UTF-8"?>
<svg width="800" height="600" viewBox="0 0 800 600" xmlns="http://www.w3.org/2000/svg">
  <title>8255 Programmable Peripheral Interface (PPI)</title>
  
  <defs>
    <style>
      .title { font-family: Arial, sans-serif; font-size: 20px; font-weight: bold; text-anchor: middle; }
      .subtitle { font-family: Arial, sans-serif; font-size: 14px; font-weight: bold; text-anchor: middle; }
      .label { font-family: Arial, sans-serif; font-size: 12px; text-anchor: middle; }
      .small-label { font-family: Arial, sans-serif; font-size: 10px; text-anchor: start; }
      .pin-label { font-family: Arial, sans-serif; font-size: 9px; text-anchor: start; }
      .code-text { font-family: 'Courier New', monospace; font-size: 9px; text-anchor: start; }
      .ic-body { fill: #f0f0f0; stroke: #333; stroke-width: 2; }
      .port-box { fill: #e6f3ff; stroke: #0066cc; stroke-width: 2; }
      .control-box { fill: #ffe6e6; stroke: #cc0000; stroke-width: 2; }
      .mode-box { fill: #e6ffe6; stroke: #00aa00; stroke-width: 2; }
      .data-bus { stroke: #0066cc; stroke-width: 2; }
      .control-line { stroke: #cc0000; stroke-width: 2; }
    </style>
  </defs>
  
  <!-- Title -->
  <text x="400" y="30" class="title" fill="#333">8255 Programmable Peripheral Interface (PPI)</text>
  
  <!-- 8255 IC Package -->
  <g class="ic-package">
    <rect x="200" y="80" width="150" height="200" class="ic-body" rx="10"/>
    <text x="275" y="100" class="label" fill="#333">8255 PPI</text>
    <text x="275" y="115" class="small-label" fill="#333">40-pin DIP</text>
    
    <!-- Port A pins -->
    <g class="port-a-pins">
      <text x="360" y="140" class="pin-label" fill="#333">PA0-PA7</text>
      <text x="360" y="152" class="pin-label" fill="#333">Port A</text>
      <!-- Pin connections -->
      <line x1="350" y1="145" x2="380" y2="145" class="data-bus" stroke-width="3"/>
    </g>
    
    <!-- Port B pins -->
    <g class="port-b-pins">
      <text x="360" y="170" class="pin-label" fill="#333">PB0-PB7</text>
      <text x="360" y="182" class="pin-label" fill="#333">Port B</text>
      <line x1="350" y1="175" x2="380" y2="175" class="data-bus" stroke-width="3"/>
    </g>
    
    <!-- Port C pins -->
    <g class="port-c-pins">
      <text x="360" y="200" class="pin-label" fill="#333">PC0-PC7</text>
      <text x="360" y="212" class="pin-label" fill="#333">Port C</text>
      <line x1="350" y1="205" x2="380" y2="205" class="data-bus" stroke-width="3"/>
    </g>
    
    <!-- Control pins (left side) -->
    <g class="control-pins">
      <text x="120" y="140" class="pin-label" fill="#333">D0-D7</text>
      <text x="120" y="152" class="pin-label" fill="#333">Data Bus</text>
      <line x1="170" y1="145" x2="200" y2="145" class="data-bus" stroke-width="3"/>
      
      <text x="120" y="170" class="pin-label" fill="#333">A0, A1</text>
      <text x="120" y="182" class="pin-label" fill="#333">Address</text>
      <line x1="170" y1="175" x2="200" y2="175" class="control-line"/>
      
      <text x="120" y="200" class="pin-label" fill="#333">CS</text>
      <text x="120" y="212" class="pin-label" fill="#333">Chip Select</text>
      <line x1="170" y1="205" x2="200" y2="205" class="control-line"/>
      
      <text x="120" y="230" class="pin-label" fill="#333">RD</text>
      <text x="120" y="242" class="pin-label" fill="#333">Read</text>
      <line x1="170" y1="235" x2="200" y2="235" class="control-line"/>
      
      <text x="120" y="260" class="pin-label" fill="#333">WR</text>
      <text x="120" y="272" class="pin-label" fill="#333">Write</text>
      <line x1="170" y1="265" x2="200" y2="265" class="control-line"/>
    </g>
  </g>
  
  <!-- Port Configuration -->
  <g class="port-config">
    <text x="150" y="320" class="subtitle" fill="#333">Port Configuration</text>
    
    <!-- Port A -->
    <rect x="50" y="340" width="100" height="60" class="port-box" rx="5"/>
    <text x="100" y="360" class="label" fill="#333">Port A</text>
    <text x="100" y="375" class="small-label" fill="#333">8-bit I/O</text>
    <text x="100" y="390" class="small-label" fill="#333">Mode 0,1,2</text>
    
    <!-- Port B -->
    <rect x="170" y="340" width="100" height="60" class="port-box" rx="5"/>
    <text x="220" y="360" class="label" fill="#333">Port B</text>
    <text x="220" y="375" class="small-label" fill="#333">8-bit I/O</text>
    <text x="220" y="390" class="small-label" fill="#333">Mode 0,1 only</text>
    
    <!-- Port C -->
    <rect x="290" y="340" width="100" height="60" class="port-box" rx="5"/>
    <text x="340" y="360" class="label" fill="#333">Port C</text>
    <text x="340" y="375" class="small-label" fill="#333">8-bit I/O or</text>
    <text x="340" y="390" class="small-label" fill="#333">Control signals</text>
  </g>
  
  <!-- Operating Modes -->
  <g class="operating-modes">
    <text x="550" y="320" class="subtitle" fill="#333">Operating Modes</text>
    
    <!-- Mode 0 -->
    <rect x="450" y="340" width="120" height="50" class="mode-box" rx="5"/>
    <text x="510" y="360" class="label" fill="#333">Mode 0</text>
    <text x="510" y="375" class="small-label" fill="#333">Simple I/O</text>
    
    <!-- Mode 1 -->
    <rect x="580" y="340" width="120" height="50" class="mode-box" rx="5"/>
    <text x="640" y="360" class="label" fill="#333">Mode 1</text>
    <text x="640" y="375" class="small-label" fill="#333">Strobed I/O</text>
    
    <!-- Mode 2 -->
    <rect x="450" y="400" width="120" height="50" class="mode-box" rx="5"/>
    <text x="510" y="420" class="label" fill="#333">Mode 2</text>
    <text x="510" y="435" class="small-label" fill="#333">Bidirectional</text>
    
    <!-- BSR Mode -->
    <rect x="580" y="400" width="120" height="50" class="mode-box" rx="5"/>
    <text x="640" y="420" class="label" fill="#333">BSR Mode</text>
    <text x="640" y="435" class="small-label" fill="#333">Bit Set/Reset</text>
  </g>
  
  <!-- Control Word Format -->
  <g class="control-word">
    <text x="400" y="480" class="subtitle" fill="#333">Control Word Format</text>
    
    <rect x="150" y="500" width="500" height="80" class="control-box" rx="5"/>
    
    <!-- Bit layout -->
    <g class="bit-layout">
      <rect x="170" y="520" width="30" height="25" fill="#ffcccc" stroke="#cc0000"/>
      <text x="185" y="540" class="small-label" fill="#333">D7</text>
      <text x="175" y="555" class="small-label" fill="#333">Mode</text>
      
      <rect x="200" y="520" width="30" height="25" fill="#ccffcc" stroke="#00cc00"/>
      <text x="215" y="540" class="small-label" fill="#333">D6-D5</text>
      <text x="205" y="555" class="small-label" fill="#333">PA Mode</text>
      
      <rect x="230" y="520" width="30" height="25" fill="#ccccff" stroke="#0000cc"/>
      <text x="245" y="540" class="small-label" fill="#333">D4</text>
      <text x="240" y="555" class="small-label" fill="#333">PA Dir</text>
      
      <rect x="260" y="520" width="30" height="25" fill="#ffffcc" stroke="#cccc00"/>
      <text x="275" y="540" class="small-label" fill="#333">D3</text>
      <text x="270" y="555" class="small-label" fill="#333">PCU Dir</text>
      
      <rect x="290" y="520" width="30" height="25" fill="#ffccff" stroke="#cc00cc"/>
      <text x="305" y="540" class="small-label" fill="#333">D2</text>
      <text x="300" y="555" class="small-label" fill="#333">PB Mode</text>
      
      <rect x="320" y="520" width="30" height="25" fill="#ccffff" stroke="#00cccc"/>
      <text x="335" y="540" class="small-label" fill="#333">D1</text>
      <text x="330" y="555" class="small-label" fill="#333">PB Dir</text>
      
      <rect x="350" y="520" width="30" height="25" fill="#f0f0f0" stroke="#666"/>
      <text x="365" y="540" class="small-label" fill="#333">D0</text>
      <text x="360" y="555" class="small-label" fill="#333">PCL Dir</text>
    </g>
    
    <text x="420" y="530" class="small-label" fill="#333">1 = Input, 0 = Output</text>
    <text x="420" y="545" class="small-label" fill="#333">D7 = 1 for Mode Set</text>
    <text x="420" y="560" class="small-label" fill="#333">D7 = 0 for BSR Mode</text>
  </g>
  
  <!-- Address Decoding -->
  <g class="address-decode">
    <text x="100" y="460" class="subtitle" fill="#333">Address Selection</text>
    
    <rect x="50" y="470" width="200" height="100" fill="#f9f9f9" stroke="#666" rx="5"/>
    
    <text x="70" y="490" class="code-text" fill="#333">A1  A0  Register</text>
    <text x="70" y="505" class="code-text" fill="#333">0   0   Port A</text>
    <text x="70" y="520" class="code-text" fill="#333">0   1   Port B</text>
    <text x="70" y="535" class="code-text" fill="#333">1   0   Port C</text>
    <text x="70" y="550" class="code-text" fill="#333">1   1   Control Word</text>
  </g>
  
  <!-- Programming Example -->
  <g class="programming-example">
    <text x="600" y="480" class="subtitle" fill="#333">Programming Example</text>
    
    <rect x="500" y="500" width="250" height="80" fill="#f0f8ff" stroke="#0066cc" rx="5"/>
    
    <text x="510" y="520" class="code-text" fill="#333">; Configure all ports as output</text>
    <text x="510" y="535" class="code-text" fill="#333">MOV AL, 80H    ; Control word</text>
    <text x="510" y="550" class="code-text" fill="#333">OUT 83H, AL    ; Send to control reg</text>
    <text x="510" y="565" class="code-text" fill="#333">MOV AL, 55H    ; Data pattern</text>
    <text x="510" y="580" class="code-text" fill="#333">OUT 80H, AL    ; Output to Port A</text>
  </g>
</svg>
