<?xml version="1.0" encoding="UTF-8"?>
<svg width="800" height="600" viewBox="0 0 800 600" xmlns="http://www.w3.org/2000/svg">
  <title>Stepper Motor Interface with 8051 Microcontroller</title>
  
  <defs>
    <style>
      .title { font-family: Arial, sans-serif; font-size: 20px; font-weight: bold; text-anchor: middle; }
      .subtitle { font-family: Arial, sans-serif; font-size: 14px; font-weight: bold; text-anchor: middle; }
      .label { font-family: Arial, sans-serif; font-size: 12px; text-anchor: middle; }
      .small-label { font-family: Arial, sans-serif; font-size: 10px; text-anchor: start; }
      .pin-label { font-family: Arial, sans-serif; font-size: 9px; text-anchor: start; }
      .code-text { font-family: 'Courier New', monospace; font-size: 9px; text-anchor: start; }
      .ic-body { fill: #f0f0f0; stroke: #333; stroke-width: 2; }
      .motor-body { fill: #e6f3ff; stroke: #0066cc; stroke-width: 2; }
      .driver-body { fill: #ffe6e6; stroke: #cc0000; stroke-width: 2; }
      .coil { fill: #ffcc99; stroke: #996633; stroke-width: 2; }
      .control-line { stroke: #cc0000; stroke-width: 2; }
      .power-line { stroke: #00aa00; stroke-width: 3; }
    </style>
  </defs>
  
  <!-- Title -->
  <text x="400" y="30" class="title" fill="#333">Stepper Motor Interface with 8051 Microcontroller</text>
  
  <!-- 8051 Microcontroller -->
  <g class="microcontroller">
    <rect x="50" y="80" width="120" height="200" class="ic-body" rx="10"/>
    <text x="110" y="100" class="label" fill="#333">8051</text>
    <text x="110" y="115" class="small-label" fill="#333">Microcontroller</text>
    
    <!-- Port 1 pins for stepper control -->
    <g class="port1-pins">
      <text x="175" y="140" class="pin-label" fill="#333">P1.0 → A</text>
      <text x="175" y="155" class="pin-label" fill="#333">P1.1 → B</text>
      <text x="175" y="170" class="pin-label" fill="#333">P1.2 → C</text>
      <text x="175" y="185" class="pin-label" fill="#333">P1.3 → D</text>
      
      <!-- Control lines to driver -->
      <line x1="170" y1="145" x2="220" y2="145" class="control-line"/>
      <line x1="170" y1="160" x2="220" y2="160" class="control-line"/>
      <line x1="170" y1="175" x2="220" y2="175" class="control-line"/>
      <line x1="170" y1="190" x2="220" y2="190" class="control-line"/>
    </g>
    
    <!-- Additional control pins -->
    <g class="control-pins">
      <text x="175" y="210" class="pin-label" fill="#333">P1.4 → Enable</text>
      <text x="175" y="225" class="pin-label" fill="#333">P1.5 → Direction</text>
      <text x="175" y="240" class="pin-label" fill="#333">P1.6 → Speed Control</text>
      
      <line x1="170" y1="215" x2="220" y2="215" class="control-line"/>
      <line x1="170" y1="230" x2="220" y2="230" class="control-line"/>
      <line x1="170" y1="245" x2="220" y2="245" class="control-line"/>
    </g>
  </g>
  
  <!-- Driver IC (ULN2003) -->
  <g class="driver-ic">
    <rect x="250" y="120" width="100" height="160" class="driver-body" rx="10"/>
    <text x="300" y="140" class="label" fill="#333">ULN2003</text>
    <text x="300" y="155" class="small-label" fill="#333">Darlington</text>
    <text x="300" y="170" class="small-label" fill="#333">Driver</text>
    
    <!-- Input connections -->
    <line x1="220" y1="145" x2="250" y2="145" class="control-line"/>
    <line x1="220" y1="160" x2="250" y2="160" class="control-line"/>
    <line x1="220" y1="175" x2="250" y2="175" class="control-line"/>
    <line x1="220" y1="190" x2="250" y2="190" class="control-line"/>
    
    <!-- Input labels -->
    <text x="230" y="140" class="pin-label" fill="#333">A</text>
    <text x="230" y="155" class="pin-label" fill="#333">B</text>
    <text x="230" y="170" class="pin-label" fill="#333">C</text>
    <text x="230" y="185" class="pin-label" fill="#333">D</text>
    
    <!-- Output connections to motor -->
    <line x1="350" y1="145" x2="400" y2="145" class="power-line"/>
    <line x1="350" y1="160" x2="400" y2="160" class="power-line"/>
    <line x1="350" y1="175" x2="400" y2="175" class="power-line"/>
    <line x1="350" y1="190" x2="400" y2="190" class="power-line"/>
    
    <!-- Power connections -->
    <circle cx="300" cy="200" r="5" fill="#cc0000"/>
    <text x="310" y="205" class="pin-label" fill="#333">VCC (+12V)</text>
    
    <rect x="290" y="220" width="20" height="8" fill="#000"/>
    <text x="315" y="225" class="pin-label" fill="#333">GND</text>
    
    <!-- Protection diodes indicator -->
    <text x="300" y="260" class="small-label" fill="#333">Built-in flyback</text>
    <text x="300" y="275" class="small-label" fill="#333">diodes for</text>
    <text x="300" y="290" class="small-label" fill="#333">inductive loads</text>
  </g>
  
  <!-- Stepper Motor -->
  <g class="stepper-motor">
    <circle cx="500" cy="200" r="80" class="motor-body"/>
    <text x="500" y="155" class="label" fill="#333">Stepper Motor</text>
    <text x="500" y="250" class="small-label" fill="#333">4-Phase Unipolar</text>
    
    <!-- Motor coils -->
    <g class="motor-coils">
      <!-- Coil A -->
      <circle cx="460" cy="160" r="15" class="coil"/>
      <text x="455" y="165" class="small-label" fill="#333">A</text>
      <line x1="400" y1="145" x2="445" y2="160" class="power-line"/>
      
      <!-- Coil B -->
      <circle cx="540" cy="160" r="15" class="coil"/>
      <text x="535" y="165" class="small-label" fill="#333">B</text>
      <line x1="400" y1="160" x2="525" y2="160" class="power-line"/>
      
      <!-- Coil C -->
      <circle cx="540" cy="240" r="15" class="coil"/>
      <text x="535" y="245" class="small-label" fill="#333">C</text>
      <line x1="400" y1="175" x2="525" y2="240" class="power-line"/>
      
      <!-- Coil D -->
      <circle cx="460" cy="240" r="15" class="coil"/>
      <text x="455" y="245" class="small-label" fill="#333">D</text>
      <line x1="400" y1="190" x2="445" y2="240" class="power-line"/>
      
      <!-- Center tap -->
      <circle cx="500" cy="200" r="8" fill="#ff6666"/>
      <text x="505" y="205" class="pin-label" fill="#333">+12V</text>
      
      <!-- Rotor -->
      <circle cx="500" cy="200" r="25" fill="#cccccc" stroke="#666" stroke-width="2"/>
      <text x="495" y="205" class="small-label" fill="#333">Rotor</text>
    </g>
  </g>
  
  <!-- Step Sequences -->
  <g class="step-sequences">
    <text x="150" y="340" class="subtitle" fill="#333">Stepping Sequences</text>
    
    <!-- Wave Drive -->
    <rect x="50" y="360" width="160" height="100" fill="#f9f9f9" stroke="#666" rx="5"/>
    <text x="130" y="380" class="label" fill="#333">Wave Drive (1-Phase)</text>
    
    <text x="70" y="400" class="code-text" fill="#333">Step  A  B  C  D</text>
    <text x="70" y="415" class="code-text" fill="#333">  1   1  0  0  0</text>
    <text x="70" y="430" class="code-text" fill="#333">  2   0  1  0  0</text>
    <text x="70" y="445" class="code-text" fill="#333">  3   0  0  1  0</text>
    <text x="70" y="460" class="code-text" fill="#333">  4   0  0  0  1</text>
    
    <!-- Full Step -->
    <rect x="230" y="360" width="160" height="100" fill="#f9f9f9" stroke="#666" rx="5"/>
    <text x="310" y="380" class="label" fill="#333">Full Step (2-Phase)</text>
    
    <text x="250" y="400" class="code-text" fill="#333">Step  A  B  C  D</text>
    <text x="250" y="415" class="code-text" fill="#333">  1   1  1  0  0</text>
    <text x="250" y="430" class="code-text" fill="#333">  2   0  1  1  0</text>
    <text x="250" y="445" class="code-text" fill="#333">  3   0  0  1  1</text>
    <text x="250" y="460" class="code-text" fill="#333">  4   1  0  0  1</text>
    
    <!-- Half Step -->
    <rect x="410" y="360" width="160" height="100" fill="#f9f9f9" stroke="#666" rx="5"/>
    <text x="490" y="380" class="label" fill="#333">Half Step</text>
    
    <text x="430" y="400" class="code-text" fill="#333">Step  A  B  C  D</text>
    <text x="430" y="415" class="code-text" fill="#333">  1   1  0  0  0</text>
    <text x="430" y="430" class="code-text" fill="#333">  2   1  1  0  0</text>
    <text x="430" y="445" class="code-text" fill="#333">  3   0  1  0  0</text>
    <text x="430" y="460" class="code-text" fill="#333">  4   0  1  1  0</text>
  </g>
  
  <!-- Programming Example -->
  <g class="programming-example">
    <text x="650" y="340" class="subtitle" fill="#333">Programming Example</text>
    
    <rect x="590" y="360" width="180" height="200" fill="#f0f8ff" stroke="#0066cc" rx="5"/>
    
    <text x="600" y="380" class="code-text" fill="#333">; Stepper Motor Control</text>
    <text x="600" y="395" class="code-text" fill="#333">ORG 8000H</text>
    <text x="600" y="410" class="code-text" fill="#333"></text>
    <text x="600" y="425" class="code-text" fill="#333">; Step sequence table</text>
    <text x="600" y="440" class="code-text" fill="#333">STEPS:</text>
    <text x="600" y="455" class="code-text" fill="#333">  DB 09H, 0CH, 06H, 03H</text>
    <text x="600" y="470" class="code-text" fill="#333"></text>
    <text x="600" y="485" class="code-text" fill="#333">MAIN:</text>
    <text x="600" y="500" class="code-text" fill="#333">  MOV DPTR,#STEPS</text>
    <text x="600" y="515" class="code-text" fill="#333">  MOV R0,#04H  ; 4 steps</text>
    <text x="600" y="530" class="code-text" fill="#333">LOOP:</text>
    <text x="600" y="545" class="code-text" fill="#333">  MOVX A,@DPTR</text>
    <text x="600" y="560" class="code-text" fill="#333">  MOV P1,A     ; Output</text>
  </g>
  
  <!-- Circuit Characteristics -->
  <g class="characteristics">
    <text x="300" y="490" class="subtitle" fill="#333">Circuit Characteristics</text>
    
    <rect x="200" y="510" width="300" height="80" fill="#fff8f0" stroke="#ff6600" rx="5"/>
    
    <text x="220" y="530" class="small-label" fill="#333">• Step Angle: 1.8° or 0.9° (200 or 400 steps/revolution)</text>
    <text x="220" y="545" class="small-label" fill="#333">• Holding Torque: Determined by motor specifications</text>
    <text x="220" y="560" class="small-label" fill="#333">• Speed Control: Delay between steps</text>
    <text x="220" y="575" class="small-label" fill="#333">• Direction Control: Forward/Reverse sequence</text>
  </g>
  
  <!-- Connection labels -->
  <text x="380" y="140" class="pin-label" fill="#333">Coil A</text>
  <text x="380" y="155" class="pin-label" fill="#333">Coil B</text>
  <text x="380" y="170" class="pin-label" fill="#333">Coil C</text>
  <text x="380" y="185" class="pin-label" fill="#333">Coil D</text>
</svg>
