<?xml version="1.0" encoding="UTF-8"?>
<svg width="800" height="600" viewBox="0 0 800 600" xmlns="http://www.w3.org/2000/svg">
  <title>Digital Signal Processing with 8051 Microcontroller</title>
  
  <defs>
    <style>
      .title { font-family: Arial, sans-serif; font-size: 20px; font-weight: bold; text-anchor: middle; }
      .subtitle { font-family: Arial, sans-serif; font-size: 14px; font-weight: bold; text-anchor: middle; }
      .label { font-family: Arial, sans-serif; font-size: 12px; text-anchor: middle; }
      .small-label { font-family: Arial, sans-serif; font-size: 10px; text-anchor: start; }
      .code-text { font-family: 'Courier New', monospace; font-size: 9px; text-anchor: start; }
      .ic-body { fill: #f0f0f0; stroke: #333; stroke-width: 2; }
      .adc-body { fill: #e6f3ff; stroke: #0066cc; stroke-width: 2; }
      .dac-body { fill: #ffe6e6; stroke: #cc0000; stroke-width: 2; }
      .filter-body { fill: #e6ffe6; stroke: #00aa00; stroke-width: 2; }
      .signal-line { stroke: #0066cc; stroke-width: 2; }
      .digital-line { stroke: #cc0000; stroke-width: 2; }
    </style>
  </defs>
  
  <!-- Title -->
  <text x="400" y="30" class="title" fill="#333">Digital Signal Processing with 8051 Microcontroller</text>
  
  <!-- Input Signal -->
  <g class="input-signal">
    <text x="100" y="70" class="subtitle" fill="#333">Analog Input</text>
    
    <!-- Analog waveform -->
    <path d="M 50 100 Q 80 80, 110 100 Q 140 120, 170 100 Q 200 80, 230 100" 
          fill="none" stroke="#0066cc" stroke-width="3"/>
    <text x="140" y="140" class="small-label" fill="#333">Continuous Analog Signal</text>
    <text x="140" y="155" class="small-label" fill="#333">f(t) = A sin(ωt + φ)</text>
  </g>
  
  <!-- Anti-Aliasing Filter -->
  <g class="anti-alias-filter">
    <rect x="270" y="80" width="80" height="60" class="filter-body" rx="5"/>
    <text x="310" y="105" class="label" fill="#333">Anti-Aliasing</text>
    <text x="310" y="120" class="label" fill="#333">Filter</text>
    <text x="310" y="135" class="small-label" fill="#333">fc &lt; fs/2</text>
    
    <!-- Input connection -->
    <line x1="230" y1="100" x2="270" y2="110" class="signal-line"/>
    <text x="240" y="95" class="small-label" fill="#333">Raw Signal</text>
  </g>
  
  <!-- ADC -->
  <g class="adc-converter">
    <rect x="380" y="80" width="100" height="80" class="adc-body" rx="5"/>
    <text x="430" y="110" class="label" fill="#333">ADC</text>
    <text x="430" y="125" class="small-label" fill="#333">0804/0808</text>
    <text x="430" y="140" class="small-label" fill="#333">8-bit Resolution</text>
    <text x="430" y="155" class="small-label" fill="#333">Sample Rate: fs</text>
    
    <!-- Connections -->
    <line x1="350" y1="110" x2="380" y2="120" class="signal-line"/>
    <line x1="480" y1="120" x2="520" y2="120" class="digital-line"/>
  </g>
  
  <!-- 8051 Microcontroller -->
  <g class="microcontroller">
    <rect x="550" y="60" width="120" height="140" class="ic-body" rx="10"/>
    <text x="610" y="85" class="label" fill="#333">8051</text>
    <text x="610" y="100" class="small-label" fill="#333">Microcontroller</text>
    
    <!-- Ports -->
    <text x="560" y="120" class="small-label" fill="#333">P0: Data Bus</text>
    <text x="560" y="135" class="small-label" fill="#333">P1: Control</text>
    <text x="560" y="150" class="small-label" fill="#333">P2: Address</text>
    <text x="560" y="165" class="small-label" fill="#333">P3: Serial/Timer</text>
    
    <!-- Processing indication -->
    <text x="610" y="185" class="small-label" fill="#333">DSP Algorithm</text>
    
    <!-- Input connection -->
    <line x1="520" y1="120" x2="550" y2="130" class="digital-line"/>
  </g>
  
  <!-- Digital Processing Block -->
  <g class="digital-processing">
    <text x="400" y="240" class="subtitle" fill="#333">Digital Signal Processing Algorithms</text>
    
    <!-- FFT Block -->
    <rect x="100" y="260" width="120" height="60" class="filter-body" rx="5"/>
    <text x="160" y="285" class="label" fill="#333">FFT/DFT</text>
    <text x="160" y="300" class="small-label" fill="#333">Frequency Analysis</text>
    
    <!-- FIR Filter -->
    <rect x="240" y="260" width="120" height="60" class="filter-body" rx="5"/>
    <text x="300" y="285" class="label" fill="#333">FIR Filter</text>
    <text x="300" y="300" class="small-label" fill="#333">Linear Phase</text>
    
    <!-- IIR Filter -->
    <rect x="380" y="260" width="120" height="60" class="filter-body" rx="5"/>
    <text x="440" y="285" class="label" fill="#333">IIR Filter</text>
    <text x="440" y="300" class="small-label" fill="#333">Feedback</text>
    
    <!-- Convolution -->
    <rect x="520" y="260" width="120" height="60" class="filter-body" rx="5"/>
    <text x="580" y="285" class="label" fill="#333">Convolution</text>
    <text x="580" y="300" class="small-label" fill="#333">y(n) = x(n)*h(n)</text>
    
    <!-- Connection from microcontroller -->
    <line x1="610" y1="200" x2="610" y2="240" class="digital-line"/>
    <line x1="200" y1="240" x2="600" y2="240" class="digital-line"/>
    <line x1="160" y1="240" x2="160" y2="260" class="digital-line"/>
    <line x1="300" y1="240" x2="300" y2="260" class="digital-line"/>
    <line x1="440" y1="240" x2="440" y2="260" class="digital-line"/>
    <line x1="580" y1="240" x2="580" y2="260" class="digital-line"/>
  </g>
  
  <!-- DAC and Output -->
  <g class="output-stage">
    <text x="400" y="370" class="subtitle" fill="#333">Output Stage</text>
    
    <!-- DAC -->
    <rect x="200" y="390" width="100" height="80" class="dac-body" rx="5"/>
    <text x="250" y="420" class="label" fill="#333">DAC</text>
    <text x="250" y="435" class="small-label" fill="#333">0800/1408</text>
    <text x="250" y="450" class="small-label" fill="#333">8-bit Output</text>
    <text x="250" y="465" class="small-label" fill="#333">Reconstruction</text>
    
    <!-- Reconstruction Filter -->
    <rect x="330" y="390" width="100" height="80" class="filter-body" rx="5"/>
    <text x="380" y="420" class="label" fill="#333">Reconstruction</text>
    <text x="380" y="435" class="label" fill="#333">Filter</text>
    <text x="380" y="450" class="small-label" fill="#333">Low Pass</text>
    <text x="380" y="465" class="small-label" fill="#333">fc = fs/2</text>
    
    <!-- Output Signal -->
    <g class="output-signal">
      <text x="500" y="415" class="small-label" fill="#333">Processed Analog Output</text>
      <path d="M 460 430 Q 490 410, 520 430 Q 550 450, 580 430" 
            fill="none" stroke="#cc0000" stroke-width="3"/>
    </g>
    
    <!-- Connections -->
    <line x1="300" y1="320" x2="250" y2="390" class="digital-line"/>
    <line x1="300" y1="430" x2="330" y2="430" class="signal-line"/>
    <line x1="430" y1="430" x2="460" y2="430" class="signal-line"/>
  </g>
  
  <!-- Processing Examples -->
  <g class="processing-examples">
    <text x="150" y="520" class="subtitle" fill="#333">DSP Implementation Examples</text>
    
    <rect x="50" y="540" width="700" height="50" fill="#f9f9f9" stroke="#666" rx="5"/>
    
    <text x="70" y="560" class="code-text" fill="#333">; Moving Average Filter (Low-pass)</text>
    <text x="70" y="575" class="code-text" fill="#333">y(n) = (1/N) * Σ x(n-k), k=0 to N-1</text>
    
    <text x="350" y="560" class="code-text" fill="#333">; High-pass Filter</text>
    <text x="350" y="575" class="code-text" fill="#333">y(n) = x(n) - x(n-1)</text>
    
    <text x="550" y="560" class="code-text" fill="#333">; Echo Effect</text>
    <text x="550" y="575" class="code-text" fill="#333">y(n) = x(n) + α*x(n-D)</text>
  </g>
  
  <!-- Sampling Theory -->
  <g class="sampling-theory">
    <text x="600" y="370" class="subtitle" fill="#333">Sampling Theory</text>
    
    <rect x="500" y="390" width="250" height="120" fill="#fff8f0" stroke="#ff6600" rx="5"/>
    
    <text x="510" y="410" class="small-label" fill="#333">Nyquist Theorem: fs ≥ 2 * fmax</text>
    <text x="510" y="425" class="small-label" fill="#333">where fs = sampling frequency</text>
    <text x="510" y="440" class="small-label" fill="#333">      fmax = highest input frequency</text>
    
    <text x="510" y="460" class="small-label" fill="#333">Quantization: Analog → Digital mapping</text>
    <text x="510" y="475" class="small-label" fill="#333">Resolution = Vref / 2^n bits</text>
    <text x="510" y="490" class="small-label" fill="#333">For 8-bit ADC: 256 levels</text>
    <text x="510" y="505" class="small-label" fill="#333">Step size = 5V / 256 ≈ 19.5mV</text>
  </g>
</svg>
