<?xml version="1.0" encoding="UTF-8"?>
<svg width="800" height="600" viewBox="0 0 800 600" xmlns="http://www.w3.org/2000/svg">
  <title>8051 Serial Communication and UART Programming</title>
  
  <defs>
    <style>
      .title { font-family: Arial, sans-serif; font-size: 20px; font-weight: bold; text-anchor: middle; }
      .subtitle { font-family: Arial, sans-serif; font-size: 14px; font-weight: bold; text-anchor: middle; }
      .label { font-family: Arial, sans-serif; font-size: 12px; text-anchor: middle; }
      .small-label { font-family: Arial, sans-serif; font-size: 10px; text-anchor: start; }
      .code-text { font-family: 'Courier New', monospace; font-size: 9px; text-anchor: start; }
      .pin-label { font-family: Arial, sans-serif; font-size: 9px; text-anchor: start; }
      .ic-body { fill: #f0f0f0; stroke: #333; stroke-width: 2; }
      .uart-body { fill: #e6f3ff; stroke: #0066cc; stroke-width: 2; }
      .register-body { fill: #ffe6e6; stroke: #cc0000; stroke-width: 2; }
      .mode-body { fill: #e6ffe6; stroke: #00aa00; stroke-width: 2; }
      .signal-line { stroke: #0066cc; stroke-width: 2; }
      .data-line { stroke: #cc0000; stroke-width: 2; }
    </style>
  </defs>
  
  <!-- Title -->
  <text x="400" y="30" class="title" fill="#333">8051 Serial Communication and UART Programming</text>
  
  <!-- 8051 Microcontroller -->
  <g class="microcontroller">
    <rect x="50" y="80" width="120" height="160" class="ic-body" rx="10"/>
    <text x="110" y="100" class="label" fill="#333">8051</text>
    <text x="110" y="115" class="small-label" fill="#333">Microcontroller</text>
    
    <!-- Serial pins -->
    <g class="serial-pins">
      <text x="175" y="140" class="pin-label" fill="#333">P3.0 (RXD)</text>
      <text x="175" y="155" class="pin-label" fill="#333">Receive Data</text>
      <line x1="170" y1="145" x2="220" y2="145" class="signal-line"/>
      
      <text x="175" y="175" class="pin-label" fill="#333">P3.1 (TXD)</text>
      <text x="175" y="190" class="pin-label" fill="#333">Transmit Data</text>
      <line x1="170" y1="180" x2="220" y2="180" class="signal-line"/>
      
      <!-- Internal UART block -->
      <rect x="70" y="200" width="80" height="30" class="uart-body" rx="5"/>
      <text x="110" y="220" class="small-label" fill="#333">Internal UART</text>
    </g>
  </g>
  
  <!-- External Device Connection -->
  <g class="external-device">
    <rect x="300" y="120" width="100" height="80" class="uart-body" rx="10"/>
    <text x="350" y="145" class="label" fill="#333">External</text>
    <text x="350" y="160" class="label" fill="#333">Device</text>
    <text x="350" y="175" class="small-label" fill="#333">(PC/Terminal)</text>
    
    <!-- Connections -->
    <line x1="220" y1="145" x2="300" y2="155" class="signal-line"/>
    <line x1="220" y1="180" x2="300" y2="170" class="signal-line"/>
    
    <!-- Signal labels -->
    <text x="240" y="140" class="pin-label" fill="#333">RXD</text>
    <text x="240" y="185" class="pin-label" fill="#333">TXD</text>
  </g>
  
  <!-- UART Registers -->
  <g class="uart-registers">
    <text x="550" y="60" class="subtitle" fill="#333">UART Control Registers</text>
    
    <!-- SCON Register -->
    <rect x="450" y="80" width="200" height="80" class="register-body" rx="5"/>
    <text x="550" y="100" class="label" fill="#333">SCON (98H) - Serial Control</text>
    
    <!-- SCON bit layout -->
    <g class="scon-bits">
      <rect x="470" y="110" width="20" height="20" fill="#ffcccc" stroke="#cc0000"/>
      <text x="480" y="125" class="small-label" fill="#333">SM0</text>
      
      <rect x="490" y="110" width="20" height="20" fill="#ffcccc" stroke="#cc0000"/>
      <text x="500" y="125" class="small-label" fill="#333">SM1</text>
      
      <rect x="510" y="110" width="20" height="20" fill="#ccffcc" stroke="#00cc00"/>
      <text x="520" y="125" class="small-label" fill="#333">SM2</text>
      
      <rect x="530" y="110" width="20" height="20" fill="#ccccff" stroke="#0000cc"/>
      <text x="540" y="125" class="small-label" fill="#333">REN</text>
      
      <rect x="550" y="110" width="20" height="20" fill="#ffffcc" stroke="#cccc00"/>
      <text x="560" y="125" class="small-label" fill="#333">TB8</text>
      
      <rect x="570" y="110" width="20" height="20" fill="#ffccff" stroke="#cc00cc"/>
      <text x="580" y="125" class="small-label" fill="#333">RB8</text>
      
      <rect x="590" y="110" width="20" height="20" fill="#ccffff" stroke="#00cccc"/>
      <text x="600" y="125" class="small-label" fill="#333">TI</text>
      
      <rect x="610" y="110" width="20" height="20" fill="#f0f0f0" stroke="#666"/>
      <text x="620" y="125" class="small-label" fill="#333">RI</text>
    </g>
    
    <text x="470" y="150" class="small-label" fill="#333">SM0,SM1: Mode select  REN: Receive enable</text>
    <text x="470" y="165" class="small-label" fill="#333">TI: Transmit interrupt  RI: Receive interrupt</text>
    
    <!-- SBUF Register -->
    <rect x="450" y="180" width="200" height="40" class="register-body" rx="5"/>
    <text x="550" y="200" class="label" fill="#333">SBUF (99H) - Serial Buffer</text>
    <text x="470" y="215" class="small-label" fill="#333">Shared for both transmit and receive</text>
  </g>
  
  <!-- Operating Modes -->
  <g class="operating-modes">
    <text x="200" y="260" class="subtitle" fill="#333">Serial Communication Modes</text>
    
    <!-- Mode 0 -->
    <rect x="50" y="280" width="140" height="60" class="mode-body" rx="5"/>
    <text x="120" y="300" class="label" fill="#333">Mode 0</text>
    <text x="70" y="315" class="small-label" fill="#333">Shift Register</text>
    <text x="70" y="330" class="small-label" fill="#333">Synchronous, fc/12</text>
    
    <!-- Mode 1 -->
    <rect x="210" y="280" width="140" height="60" class="mode-body" rx="5"/>
    <text x="280" y="300" class="label" fill="#333">Mode 1</text>
    <text x="230" y="315" class="small-label" fill="#333">8-bit UART</text>
    <text x="230" y="330" class="small-label" fill="#333">Variable baud rate</text>
    
    <!-- Mode 2 -->
    <rect x="370" y="280" width="140" height="60" class="mode-body" rx="5"/>
    <text x="440" y="300" class="label" fill="#333">Mode 2</text>
    <text x="390" y="315" class="small-label" fill="#333">9-bit UART</text>
    <text x="390" y="330" class="small-label" fill="#333">Fixed baud: fc/32 or fc/64</text>
    
    <!-- Mode 3 -->
    <rect x="530" y="280" width="140" height="60" class="mode-body" rx="5"/>
    <text x="600" y="300" class="label" fill="#333">Mode 3</text>
    <text x="550" y="315" class="small-label" fill="#333">9-bit UART</text>
    <text x="550" y="330" class="small-label" fill="#333">Variable baud rate</text>
  </g>
  
  <!-- Baud Rate Generation -->
  <g class="baud-rate">
    <text x="150" y="370" class="subtitle" fill="#333">Baud Rate Generation</text>
    
    <rect x="50" y="390" width="300" height="80" class="uart-body" rx="5"/>
    
    <text x="70" y="410" class="small-label" fill="#333">Mode 1 &amp; 3: Timer 1 overflow rate / 32</text>
    <text x="70" y="425" class="small-label" fill="#333">Mode 2: Oscillator frequency / 32 (SMOD=1)</text>
    <text x="70" y="440" class="small-label" fill="#333">        Oscillator frequency / 64 (SMOD=0)</text>
    
    <text x="70" y="460" class="small-label" fill="#333">For 9600 baud with 11.0592 MHz crystal:</text>
    <text x="70" y="475" class="small-label" fill="#333">Timer 1 reload value = 256 - (Crystal/(32*12*Baud))</text>
  </g>
  
  <!-- Programming Example -->
  <g class="programming-example">
    <text x="550" y="370" class="subtitle" fill="#333">Programming Example</text>
    
    <rect x="400" y="390" width="350" height="140" class="ic-body" rx="5"/>
    
    <text x="410" y="410" class="code-text" fill="#333">; Initialize UART for Mode 1, 9600 baud</text>
    <text x="410" y="425" class="code-text" fill="#333">MOV TMOD,#20H    ; Timer 1, Mode 2 (auto reload)</text>
    <text x="410" y="440" class="code-text" fill="#333">MOV TH1,#0FDH    ; Reload value for 9600 baud</text>
    <text x="410" y="455" class="code-text" fill="#333">MOV SCON,#50H    ; Mode 1, REN=1</text>
    <text x="410" y="470" class="code-text" fill="#333">SETB TR1         ; Start Timer 1</text>
    
    <text x="410" y="490" class="code-text" fill="#333">; Transmit character</text>
    <text x="410" y="505" class="code-text" fill="#333">MOV SBUF,#'A'    ; Load character to transmit</text>
    <text x="410" y="520" class="code-text" fill="#333">JNB TI,$         ; Wait for transmission complete</text>
    <text x="410" y="535" class="code-text" fill="#333">CLR TI           ; Clear transmit interrupt flag</text>
  </g>
  
  <!-- Data Frame Format -->
  <g class="data-frame">
    <text x="400" y="550" class="subtitle" fill="#333">Data Frame Format (Mode 1)</text>
    
    <rect x="200" y="565" width="400" height="30" fill="#f9f9f9" stroke="#666" rx="5"/>
    
    <!-- Frame bits -->
    <rect x="220" y="570" width="30" height="20" fill="#cccccc" stroke="#666"/>
    <text x="235" y="585" class="small-label" fill="#333">Start</text>
    
    <rect x="250" y="570" width="200" height="20" fill="#ccffcc" stroke="#00cc00"/>
    <text x="350" y="585" class="small-label" fill="#333">8 Data Bits (LSB first)</text>
    
    <rect x="450" y="570" width="30" height="20" fill="#ffcccc" stroke="#cc0000"/>
    <text x="465" y="585" class="small-label" fill="#333">Stop</text>
    
    <text x="220" y="610" class="small-label" fill="#333">Start bit = 0, Stop bit = 1, Transmission: LSB first</text>
  </g>
</svg>
