<?xml version="1.0" encoding="UTF-8"?>
<svg width="800" height="600" viewBox="0 0 800 600" xmlns="http://www.w3.org/2000/svg">
  <title>8051 Special Function Registers (SFRs) Map</title>
  
  <defs>
    <style>
      .title { font-family: Arial, sans-serif; font-size: 20px; font-weight: bold; text-anchor: middle; }
      .subtitle { font-family: Arial, sans-serif; font-size: 14px; font-weight: bold; text-anchor: middle; }
      .label { font-family: Arial, sans-serif; font-size: 12px; text-anchor: middle; }
      .small-label { font-family: Arial, sans-serif; font-size: 10px; text-anchor: start; }
      .addr-label { font-family: 'Courier New', monospace; font-size: 9px; text-anchor: start; }
      .register-name { font-family: Arial, sans-serif; font-size: 10px; font-weight: bold; text-anchor: start; }
      .io-port { fill: #e6f3ff; stroke: #0066cc; stroke-width: 2; }
      .timer-reg { fill: #ffe6e6; stroke: #cc0000; stroke-width: 2; }
      .serial-reg { fill: #e6ffe6; stroke: #00aa00; stroke-width: 2; }
      .interrupt-reg { fill: #fff2e6; stroke: #ff6600; stroke-width: 2; }
      .system-reg { fill: #f0e6ff; stroke: #6600cc; stroke-width: 2; }
      .bit-addressable { fill: #ffffcc; stroke: #cccc00; stroke-width: 2; }
    </style>
  </defs>
  
  <!-- Title -->
  <text x="400" y="30" class="title" fill="#333">8051 Special Function Registers (SFRs) Map</text>
  
  <!-- SFR Address Range -->
  <text x="400" y="60" class="subtitle" fill="#333">SFR Address Space: 80H - FFH (128 Bytes)</text>
  
  <!-- I/O Ports -->
  <g class="io-ports-group">
    <text x="150" y="90" class="subtitle" fill="#333">I/O Ports</text>
    
    <!-- Port 0 -->
    <rect x="50" y="110" width="120" height="30" class="io-port" rx="5"/>
    <text x="60" y="125" class="addr-label" fill="#333">80H - P0</text>
    <text x="60" y="135" class="register-name" fill="#333">Port 0 (AD0-AD7)</text>
    
    <!-- Port 1 -->
    <rect x="180" y="110" width="120" height="30" class="io-port" rx="5"/>
    <text x="190" y="125" class="addr-label" fill="#333">90H - P1</text>
    <text x="190" y="135" class="register-name" fill="#333">Port 1 (P1.0-P1.7)</text>
    
    <!-- Port 2 -->
    <rect x="50" y="150" width="120" height="30" class="io-port" rx="5"/>
    <text x="60" y="165" class="addr-label" fill="#333">A0H - P2</text>
    <text x="60" y="175" class="register-name" fill="#333">Port 2 (A8-A15)</text>
    
    <!-- Port 3 -->
    <rect x="180" y="150" width="120" height="30" class="io-port" rx="5"/>
    <text x="190" y="165" class="addr-label" fill="#333">B0H - P3</text>
    <text x="190" y="175" class="register-name" fill="#333">Port 3 (Alt Functions)</text>
  </g>
  
  <!-- Timer/Counter Registers -->
  <g class="timer-registers">
    <text x="500" y="90" class="subtitle" fill="#333">Timer/Counter Registers</text>
    
    <!-- TCON -->
    <rect x="400" y="110" width="120" height="30" class="timer-reg" rx="5"/>
    <text x="410" y="125" class="addr-label" fill="#333">88H - TCON</text>
    <text x="410" y="135" class="register-name" fill="#333">Timer Control</text>
    
    <!-- TMOD -->
    <rect x="530" y="110" width="120" height="30" class="timer-reg" rx="5"/>
    <text x="540" y="125" class="addr-label" fill="#333">89H - TMOD</text>
    <text x="540" y="135" class="register-name" fill="#333">Timer Mode</text>
    
    <!-- Timer 0 Registers -->
    <rect x="400" y="150" width="120" height="30" class="timer-reg" rx="5"/>
    <text x="410" y="165" class="addr-label" fill="#333">8AH - TL0</text>
    <text x="410" y="175" class="register-name" fill="#333">Timer 0 Low</text>
    
    <rect x="530" y="150" width="120" height="30" class="timer-reg" rx="5"/>
    <text x="540" y="165" class="addr-label" fill="#333">8CH - TH0</text>
    <text x="540" y="175" class="register-name" fill="#333">Timer 0 High</text>
    
    <!-- Timer 1 Registers -->
    <rect x="400" y="190" width="120" height="30" class="timer-reg" rx="5"/>
    <text x="410" y="205" class="addr-label" fill="#333">8BH - TL1</text>
    <text x="410" y="215" class="register-name" fill="#333">Timer 1 Low</text>
    
    <rect x="530" y="190" width="120" height="30" class="timer-reg" rx="5"/>
    <text x="540" y="205" class="addr-label" fill="#333">8DH - TH1</text>
    <text x="540" y="215" class="register-name" fill="#333">Timer 1 High</text>
  </g>
  
  <!-- Serial Communication Registers -->
  <g class="serial-registers">
    <text x="150" y="250" class="subtitle" fill="#333">Serial Communication</text>
    
    <!-- SCON -->
    <rect x="50" y="270" width="120" height="30" class="serial-reg" rx="5"/>
    <text x="60" y="285" class="addr-label" fill="#333">98H - SCON</text>
    <text x="60" y="295" class="register-name" fill="#333">Serial Control</text>
    
    <!-- SBUF -->
    <rect x="180" y="270" width="120" height="30" class="serial-reg" rx="5"/>
    <text x="190" y="285" class="addr-label" fill="#333">99H - SBUF</text>
    <text x="190" y="295" class="register-name" fill="#333">Serial Buffer</text>
  </g>
  
  <!-- Interrupt Registers -->
  <g class="interrupt-registers">
    <text x="500" y="250" class="subtitle" fill="#333">Interrupt Control</text>
    
    <!-- IE -->
    <rect x="400" y="270" width="120" height="30" class="interrupt-reg" rx="5"/>
    <text x="410" y="285" class="addr-label" fill="#333">A8H - IE</text>
    <text x="410" y="295" class="register-name" fill="#333">Interrupt Enable</text>
    
    <!-- IP -->
    <rect x="530" y="270" width="120" height="30" class="interrupt-reg" rx="5"/>
    <text x="540" y="285" class="addr-label" fill="#333">B8H - IP</text>
    <text x="540" y="295" class="register-name" fill="#333">Interrupt Priority</text>
  </g>
  
  <!-- System Registers -->
  <g class="system-registers">
    <text x="400" y="330" class="subtitle" fill="#333">System Control Registers</text>
    
    <!-- Stack Pointer -->
    <rect x="200" y="350" width="120" height="30" class="system-reg" rx="5"/>
    <text x="210" y="365" class="addr-label" fill="#333">81H - SP</text>
    <text x="210" y="375" class="register-name" fill="#333">Stack Pointer</text>
    
    <!-- Data Pointer -->
    <rect x="330" y="350" width="120" height="30" class="system-reg" rx="5"/>
    <text x="340" y="365" class="addr-label" fill="#333">82H - DPL</text>
    <text x="340" y="375" class="register-name" fill="#333">Data Pointer Low</text>
    
    <rect x="460" y="350" width="120" height="30" class="system-reg" rx="5"/>
    <text x="470" y="365" class="addr-label" fill="#333">83H - DPH</text>
    <text x="470" y="375" class="register-name" fill="#333">Data Pointer High</text>
    
    <!-- PSW -->
    <rect x="200" y="390" width="120" height="30" class="system-reg" rx="5"/>
    <text x="210" y="405" class="addr-label" fill="#333">D0H - PSW</text>
    <text x="210" y="415" class="register-name" fill="#333">Program Status Word</text>
    
    <!-- Accumulator -->
    <rect x="330" y="390" width="120" height="30" class="system-reg" rx="5"/>
    <text x="340" y="405" class="addr-label" fill="#333">E0H - ACC</text>
    <text x="340" y="415" class="register-name" fill="#333">Accumulator</text>
    
    <!-- B Register -->
    <rect x="460" y="390" width="120" height="30" class="system-reg" rx="5"/>
    <text x="470" y="405" class="addr-label" fill="#333">F0H - B</text>
    <text x="470" y="415" class="register-name" fill="#333">B Register</text>
    
    <!-- Power Control -->
    <rect x="330" y="430" width="120" height="30" class="system-reg" rx="5"/>
    <text x="340" y="445" class="addr-label" fill="#333">87H - PCON</text>
    <text x="340" y="455" class="register-name" fill="#333">Power Control</text>
  </g>
  
  <!-- Bit Addressable SFRs -->
  <g class="bit-addressable-sfrs">
    <text x="400" y="490" class="subtitle" fill="#333">Bit Addressable SFRs</text>
    
    <rect x="100" y="510" width="600" height="60" class="bit-addressable" rx="5"/>
    
    <text x="120" y="530" class="register-name" fill="#333">Registers with bit addressing capability:</text>
    <text x="130" y="545" class="small-label" fill="#333">• P0 (80H), P1 (90H), P2 (A0H), P3 (B0H)</text>
    <text x="130" y="560" class="small-label" fill="#333">• TCON (88H), SCON (98H), IE (A8H), IP (B8H), PSW (D0H), ACC (E0H), B (F0H)</text>
    
    <text x="500" y="545" class="small-label" fill="#333">Bit Address = Register Address + Bit Number</text>
    <text x="500" y="560" class="small-label" fill="#333">Example: P1.0 = 90H.0 = 90H (bit 0)</text>
  </g>
  
  <!-- SFR Memory Map Summary -->
  <g class="sfr-summary">
    <text x="100" y="200" class="subtitle" fill="#333">Key SFR Categories</text>
    
    <rect x="50" y="210" width="250" height="30" fill="#f9f9f9" stroke="#666" rx="5"/>
    
    <text x="60" y="225" class="small-label" fill="#333">• I/O Ports: Direct hardware interface</text>
    <text x="60" y="235" class="small-label" fill="#333">• Timer/Counter: Internal timing functions</text>
    
    <text x="160" y="225" class="small-label" fill="#333">• Serial: UART communication</text>
    <text x="160" y="235" class="small-label" fill="#333">• System: CPU control &amp; status</text>
  </g>
</svg>
