<?xml version="1.0" encoding="UTF-8"?>
<svg width="800" height="600" viewBox="0 0 800 600" xmlns="http://www.w3.org/2000/svg">
  <defs>
    <style>
      .memory-block { fill: #e2e8f0; stroke: #4a5568; stroke-width: 2; }
      .address-bus { stroke: #3182ce; stroke-width: 2; fill: none; }
      .data-bus { stroke: #38a169; stroke-width: 2; fill: none; }
      .control-bus { stroke: #d69e2e; stroke-width: 2; fill: none; }
      .processor { fill: #2d3748; stroke: #4a5568; stroke-width: 2; }
      .label-text { font-family: Arial, sans-serif; font-size: 12px; fill: #2d3748; text-anchor: middle; }
      .address-text { font-family: 'Courier New', monospace; font-size: 10px; fill: #2d3748; }
      .bus-label { font-family: Arial, sans-serif; font-size: 10px; fill: #2d3748; font-weight: bold; }
    </style>
  </defs>
  
  <!-- Title -->
  <text x="400" y="30" style="font-family: Arial, sans-serif; font-size: 18px; font-weight: bold; fill: #2d3748; text-anchor: middle;">Memory Organization and Address Decoding</text>
  
  <!-- 8085 Processor -->
  <rect x="50" y="150" width="120" height="80" rx="4" class="processor"/>
  <text x="110" y="195" style="font-family: Arial, sans-serif; font-size: 14px; font-weight: bold; fill: #e2e8f0; text-anchor: middle;">8085</text>
  
  <!-- Address Bus -->
  <g class="address-bus-group">
    <line x1="170" y1="160" x2="250" y2="160" class="address-bus"/>
    <line x1="250" y1="160" x2="250" y2="120" class="address-bus"/>
    <line x1="250" y1="120" x2="750" y2="120" class="address-bus"/>
    <text x="500" y="115" class="bus-label">Address Bus (A0-A15)</text>
  </g>
  
  <!-- Data Bus -->
  <g class="data-bus-group">
    <line x1="170" y1="190" x2="270" y2="190" class="data-bus"/>
    <line x1="270" y1="190" x2="270" y2="520" class="data-bus"/>
    <line x1="270" y1="520" x2="750" y2="520" class="data-bus"/>
    <text x="500" y="535" class="bus-label">Data Bus (D0-D7)</text>
  </g>
  
  <!-- Control Bus -->
  <g class="control-bus-group">
    <line x1="170" y1="220" x2="290" y2="220" class="control-bus"/>
    <line x1="290" y1="220" x2="290" y2="300" class="control-bus"/>
    <line x1="290" y1="300" x2="750" y2="300" class="control-bus"/>
    <text x="500" y="315" class="bus-label">Control Bus (RD, WR, IO/M, ALE)</text>
  </g>
  
  <!-- Memory Blocks -->
  
  <!-- ROM/EPROM Block -->
  <rect x="350" y="80" width="100" height="60" class="memory-block"/>
  <text x="400" y="105" class="label-text">ROM/EPROM</text>
  <text x="400" y="125" class="address-text">0000H-1FFFH</text>
  <text x="400" y="135" class="address-text">8K Bytes</text>
  
  <!-- RAM Block 1 -->
  <rect x="480" y="80" width="100" height="60" class="memory-block"/>
  <text x="530" y="105" class="label-text">RAM</text>
  <text x="530" y="125" class="address-text">2000H-3FFFH</text>
  <text x="530" y="135" class="address-text">8K Bytes</text>
  
  <!-- RAM Block 2 -->
  <rect x="610" y="80" width="100" height="60" class="memory-block"/>
  <text x="660" y="105" class="label-text">RAM</text>
  <text x="660" y="125" class="address-text">4000H-5FFFH</text>
  <text x="660" y="135" class="address-text">8K Bytes</text>
  
  <!-- I/O Device Block -->
  <rect x="350" y="350" width="100" height="60" class="memory-block"/>
  <text x="400" y="375" class="label-text">I/O Device</text>
  <text x="400" y="395" class="address-text">Port 00H-FFH</text>
  
  <!-- Memory Mapped I/O -->
  <rect x="480" y="350" width="100" height="60" class="memory-block"/>
  <text x="530" y="375" class="label-text">Memory Mapped</text>
  <text x="530" y="385" class="label-text">I/O</text>
  <text x="530" y="405" class="address-text">6000H-7FFFH</text>
  
  <!-- Address Decoder -->
  <rect x="620" y="200" width="80" height="40" class="memory-block"/>
  <text x="660" y="215" class="label-text">Address</text>
  <text x="660" y="230" class="label-text">Decoder</text>
  
  <!-- Connection lines from address decoder -->
  <line x1="660" y1="200" x2="660" y2="120" class="address-bus"/>
  <line x1="620" y1="220" x2="580" y2="220" class="address-bus"/>
  <line x1="580" y1="220" x2="580" y2="140" class="address-bus"/>
  <line x1="700" y1="220" x2="740" y2="220" class="address-bus"/>
  <line x1="740" y1="220" x2="740" y2="140" class="address-bus"/>
  
  <!-- Chip Select lines -->
  <g class="chip-select">
    <line x1="620" y1="210" x2="450" y2="210" stroke="#e53e3e" stroke-width="1"/>
    <line x1="450" y1="210" x2="450" y2="140" stroke="#e53e3e" stroke-width="1"/>
    <text x="480" y="205" style="font-family: Arial, sans-serif; font-size: 9px; fill: #e53e3e;">CS0</text>
    
    <line x1="620" y1="215" x2="580" y2="215" stroke="#e53e3e" stroke-width="1"/>
    <line x1="580" y1="215" x2="580" y2="140" stroke="#e53e3e" stroke-width="1"/>
    <text x="550" y="205" style="font-family: Arial, sans-serif; font-size: 9px; fill: #e53e3e;">CS1</text>
    
    <line x1="620" y1="225" x2="710" y2="225" stroke="#e53e3e" stroke-width="1"/>
    <line x1="710" y1="225" x2="710" y2="140" stroke="#e53e3e" stroke-width="1"/>
    <text x="680" y="220" style="font-family: Arial, sans-serif; font-size: 9px; fill: #e53e3e;">CS2</text>
  </g>
  
  <!-- Address decoding table -->
  <g class="decode-table">
    <text x="50" y="320" style="font-family: Arial, sans-serif; font-size: 12px; font-weight: bold; fill: #2d3748;">Address Decoding:</text>
    <text x="50" y="340" class="address-text">A15 A14 A13 | Device</text>
    <text x="50" y="355" class="address-text">0   0   0  | ROM (0000-1FFF)</text>
    <text x="50" y="370" class="address-text">0   0   1  | RAM1 (2000-3FFF)</text>
    <text x="50" y="385" class="address-text">0   1   0  | RAM2 (4000-5FFF)</text>
    <text x="50" y="400" class="address-text">0   1   1  | Mem I/O (6000-7FFF)</text>
    <text x="50" y="415" class="address-text">1   x   x  | Available</text>
  </g>
  
  <!-- Memory Map -->
  <g class="memory-map">
    <text x="350" y="470" style="font-family: Arial, sans-serif; font-size: 12px; font-weight: bold; fill: #2d3748;">Memory Map (64K Address Space):</text>
    <rect x="350" y="480" width="30" height="20" fill="#fbb6ce"/>
    <text x="390" y="495" class="address-text">FFFFH - Available</text>
    <rect x="350" y="500" width="30" height="20" fill="#fed7e2"/>
    <text x="390" y="515" class="address-text">8000H - Available</text>
    <rect x="350" y="520" width="30" height="20" fill="#a7f3d0"/>
    <text x="390" y="535" class="address-text">6000H - Memory I/O</text>
    <rect x="350" y="540" width="30" height="20" fill="#bfdbfe"/>
    <text x="390" y="555" class="address-text">4000H - RAM Block 2</text>
    <rect x="350" y="560" width="30" height="20" fill="#bfdbfe"/>
    <text x="390" y="575" class="address-text">2000H - RAM Block 1</text>
    <rect x="350" y="580" width="30" height="20" fill="#fde68a"/>
    <text x="390" y="595" class="address-text">0000H - ROM/EPROM</text>
  </g>
</svg>
