<?xml version="1.0" encoding="UTF-8"?>
<svg width="800" height="600" viewBox="0 0 800 600" xmlns="http://www.w3.org/2000/svg">
  <defs>
    <style>
      .timing-line { stroke: #2d3748; stroke-width: 2; fill: none; }
      .high-signal { stroke: #38a169; stroke-width: 3; fill: none; }
      .low-signal { stroke: #e53e3e; stroke-width: 3; fill: none; }
      .clock-signal { stroke: #3182ce; stroke-width: 2; fill: none; }
      .label-text { font-family: Arial, sans-serif; font-size: 11px; fill: #2d3748; font-weight: bold; }
      .time-text { font-family: 'Courier New', monospace; font-size: 9px; fill: #4a5568; text-anchor: middle; }
      .signal-text { font-family: Arial, sans-serif; font-size: 10px; fill: #2d3748; }
      .phase-label { font-family: Arial, sans-serif; font-size: 10px; fill: #4a5568; text-anchor: middle; }
    </style>
  </defs>
  
  <!-- Title -->
  <text x="400" y="25" style="font-family: Arial, sans-serif; font-size: 18px; font-weight: bold; fill: #2d3748; text-anchor: middle;">8085 Memory Read Cycle Timing Diagram</text>
  
  <!-- Time scale -->
  <g class="time-scale">
    <line x1="100" y1="50" x2="700" y2="50" class="timing-line"/>
    <text x="150" y="45" class="time-text">T1</text>
    <text x="250" y="45" class="time-text">T2</text>
    <text x="350" y="45" class="time-text">T3</text>
    <text x="450" y="45" class="time-text">T4</text>
    <text x="550" y="45" class="time-text">T5</text>
    <text x="650" y="45" class="time-text">T6</text>
    
    <!-- Vertical time markers -->
    <line x1="100" y1="50" x2="100" y2="520" stroke="#cbd5e0" stroke-width="1"/>
    <line x1="200" y1="50" x2="200" y2="520" stroke="#cbd5e0" stroke-width="1"/>
    <line x1="300" y1="50" x2="300" y2="520" stroke="#cbd5e0" stroke-width="1"/>
    <line x1="400" y1="50" x2="400" y2="520" stroke="#cbd5e0" stroke-width="1"/>
    <line x1="500" y1="50" x2="500" y2="520" stroke="#cbd5e0" stroke-width="1"/>
    <line x1="600" y1="50" x2="600" y2="520" stroke="#cbd5e0" stroke-width="1"/>
    <line x1="700" y1="50" x2="700" y2="520" stroke="#cbd5e0" stroke-width="1"/>
  </g>
  
  <!-- CLK Signal -->
  <g class="clk-signal">
    <text x="20" y="85" class="label-text">CLK</text>
    <line x1="100" y1="100" x2="150" y2="100" class="clock-signal"/>
    <line x1="150" y1="100" x2="150" y2="70" class="clock-signal"/>
    <line x1="150" y1="70" x2="200" y2="70" class="clock-signal"/>
    <line x1="200" y1="70" x2="200" y2="100" class="clock-signal"/>
    <line x1="200" y1="100" x2="250" y2="100" class="clock-signal"/>
    <line x1="250" y1="100" x2="250" y2="70" class="clock-signal"/>
    <line x1="250" y1="70" x2="300" y2="70" class="clock-signal"/>
    <line x1="300" y1="70" x2="300" y2="100" class="clock-signal"/>
    <line x1="300" y1="100" x2="350" y2="100" class="clock-signal"/>
    <line x1="350" y1="100" x2="350" y2="70" class="clock-signal"/>
    <line x1="350" y1="70" x2="400" y2="70" class="clock-signal"/>
    <line x1="400" y1="70" x2="400" y2="100" class="clock-signal"/>
    <line x1="400" y1="100" x2="450" y2="100" class="clock-signal"/>
    <line x1="450" y1="100" x2="450" y2="70" class="clock-signal"/>
    <line x1="450" y1="70" x2="500" y2="70" class="clock-signal"/>
    <line x1="500" y1="70" x2="500" y2="100" class="clock-signal"/>
    <line x1="500" y1="100" x2="700" y2="100" class="clock-signal"/>
  </g>
  
  <!-- AD0-AD7 (Address/Data Bus) -->
  <g class="ad-bus">
    <text x="20" y="135" class="label-text">AD0-AD7</text>
    <line x1="100" y1="150" x2="200" y2="150" class="high-signal"/>
    <line x1="200" y1="150" x2="210" y2="140" class="timing-line"/>
    <line x1="210" y1="140" x2="210" y2="160" class="timing-line"/>
    <line x1="210" y1="150" x2="600" y2="150" class="high-signal"/>
    <line x1="600" y1="150" x2="700" y2="150" class="low-signal"/>
    <text x="150" y="145" class="signal-text">Address (A0-A7)</text>
    <text x="400" y="145" class="signal-text">Data from Memory</text>
  </g>
  
  <!-- A8-A15 (Higher Order Address) -->
  <g class="a8-a15">
    <text x="20" y="185" class="label-text">A8-A15</text>
    <line x1="100" y1="200" x2="600" y2="200" class="high-signal"/>
    <line x1="600" y1="200" x2="700" y2="200" class="low-signal"/>
    <text x="350" y="195" class="signal-text">Higher Order Address (A8-A15)</text>
  </g>
  
  <!-- ALE (Address Latch Enable) -->
  <g class="ale-signal">
    <text x="20" y="235" class="label-text">ALE</text>
    <line x1="100" y1="250" x2="120" y2="250" class="low-signal"/>
    <line x1="120" y1="250" x2="120" y2="220" class="timing-line"/>
    <line x1="120" y1="220" x2="180" y2="220" class="high-signal"/>
    <line x1="180" y1="220" x2="180" y2="250" class="timing-line"/>
    <line x1="180" y1="250" x2="700" y2="250" class="low-signal"/>
    <text x="150" y="215" class="signal-text">Latch Address</text>
  </g>
  
  <!-- IO/M (IO or Memory) -->
  <g class="iom-signal">
    <text x="20" y="285" class="label-text">IO/M</text>
    <line x1="100" y1="300" x2="700" y2="300" class="low-signal"/>
    <text x="400" y="295" class="signal-text">Memory Operation (Low)</text>
  </g>
  
  <!-- S1 (Status Signal) -->
  <g class="s1-signal">
    <text x="20" y="335" class="label-text">S1</text>
    <line x1="100" y1="350" x2="700" y2="350" class="high-signal"/>
    <text x="400" y="345" class="signal-text">Memory Read (High)</text>
  </g>
  
  <!-- S0 (Status Signal) -->
  <g class="s0-signal">
    <text x="20" y="385" class="label-text">S0</text>
    <line x1="100" y1="400" x2="700" y2="400" class="high-signal"/>
    <text x="400" y="395" class="signal-text">Memory Read (High)</text>
  </g>
  
  <!-- RD (Read Control) -->
  <g class="rd-signal">
    <text x="20" y="435" class="label-text">RD</text>
    <line x1="100" y1="450" x2="250" y2="450" class="high-signal"/>
    <line x1="250" y1="450" x2="250" y2="420" class="timing-line"/>
    <line x1="250" y1="420" x2="450" y2="420" class="low-signal"/>
    <line x1="450" y1="420" x2="450" y2="450" class="timing-line"/>
    <line x1="450" y1="450" x2="700" y2="450" class="high-signal"/>
    <text x="350" y="415" class="signal-text">Read Enable</text>
  </g>
  
  <!-- READY Signal -->
  <g class="ready-signal">
    <text x="20" y="485" class="label-text">READY</text>
    <line x1="100" y1="500" x2="700" y2="500" class="high-signal"/>
    <text x="400" y="495" class="signal-text">Memory Ready (High)</text>
  </g>
  
  <!-- Machine Cycle Phases -->
  <g class="machine-cycle">
    <text x="200" y="540" class="phase-label">Opcode Fetch</text>
    <text x="500" y="540" class="phase-label">Memory Read</text>
    
    <!-- Phase separators -->
    <line x1="300" y1="50" x2="300" y2="520" stroke="#d69e2e" stroke-width="2" stroke-dasharray="5,5"/>
    <text x="305" y="65" style="font-family: Arial, sans-serif; font-size: 10px; fill: #d69e2e; font-weight: bold;">Phase Boundary</text>
  </g>
  
  <!-- Timing annotations -->
  <g class="timing-annotations">
    <text x="750" y="100" style="font-family: Arial, sans-serif; font-size: 10px; fill: #4a5568;">CLK Period = 320ns</text>
    <text x="750" y="150" style="font-family: Arial, sans-serif; font-size: 10px; fill: #4a5568;">Address Setup: 100ns</text>
    <text x="750" y="200" style="font-family: Arial, sans-serif; font-size: 10px; fill: #4a5568;">Data Valid: 200ns</text>
    <text x="750" y="250" style="font-family: Arial, sans-serif; font-size: 10px; fill: #4a5568;">ALE Width: 120ns</text>
    <text x="750" y="300" style="font-family: Arial, sans-serif; font-size: 10px; fill: #4a5568;">RD Active: 400ns</text>
  </g>
</svg>
