<?xml version="1.0" encoding="UTF-8"?>
<svg width="800" height="600" viewBox="0 0 800 600" xmlns="http://www.w3.org/2000/svg">
  <defs>
    <style>
      .interrupt-block { fill: #fed7d7; stroke: #e53e3e; stroke-width: 2; }
      .priority-block { fill: #faf0e6; stroke: #d69e2e; stroke-width: 2; }
      .vector-block { fill: #c6f6d5; stroke: #38a169; stroke-width: 2; }
      .processor-block { fill: #bee3f8; stroke: #3182ce; stroke-width: 2; }
      .label-text { font-family: Arial, sans-serif; font-size: 12px; fill: #2d3748; text-anchor: middle; font-weight: bold; }
      .detail-text { font-family: Arial, sans-serif; font-size: 10px; fill: #2d3748; }
      .vector-text { font-family: 'Courier New', monospace; font-size: 10px; fill: #2d3748; text-anchor: middle; }
      .arrow { stroke: #4a5568; stroke-width: 2; fill: none; marker-end: url(#arrowhead); }
      .priority-line { stroke: #d69e2e; stroke-width: 3; fill: none; }
    </style>
    <marker id="arrowhead" markerWidth="10" markerHeight="7" refX="10" refY="3.5" orient="auto">
      <polygon points="0 0, 10 3.5, 0 7" fill="#4a5568"/>
    </marker>
  </defs>
  
  <!-- Title -->
  <text x="400" y="25" style="font-family: Arial, sans-serif; font-size: 18px; font-weight: bold; fill: #2d3748; text-anchor: middle;">8085 Interrupt System Architecture</text>
  
  <!-- 8085 Processor -->
  <rect x="300" y="100" width="200" height="120" class="processor-block"/>
  <text x="400" y="140" style="font-family: Arial, sans-serif; font-size: 16px; font-weight: bold; fill: #2d3748; text-anchor: middle;">8085</text>
  <text x="400" y="160" style="font-family: Arial, sans-serif; font-size: 14px; fill: #2d3748; text-anchor: middle;">Microprocessor</text>
  <text x="400" y="190" class="detail-text" text-anchor="middle">Interrupt Control Logic</text>
  <text x="400" y="205" class="detail-text" text-anchor="middle">Program Counter</text>
  
  <!-- TRAP Interrupt (Highest Priority) -->
  <rect x="50" y="80" width="100" height="50" class="interrupt-block"/>
  <text x="100" y="100" class="label-text">TRAP</text>
  <text x="100" y="115" class="detail-text" text-anchor="middle">Non-Maskable</text>
  <text x="100" y="125" class="detail-text" text-anchor="middle">Edge Triggered</text>
  
  <!-- RST 7.5 -->
  <rect x="50" y="150" width="100" height="50" class="interrupt-block"/>
  <text x="100" y="170" class="label-text">RST 7.5</text>
  <text x="100" y="185" class="detail-text" text-anchor="middle">Maskable</text>
  <text x="100" y="195" class="detail-text" text-anchor="middle">Edge Triggered</text>
  
  <!-- RST 6.5 -->
  <rect x="50" y="220" width="100" height="50" class="interrupt-block"/>
  <text x="100" y="240" class="label-text">RST 6.5</text>
  <text x="100" y="255" class="detail-text" text-anchor="middle">Maskable</text>
  <text x="100" y="265" class="detail-text" text-anchor="middle">Level Triggered</text>
  
  <!-- RST 5.5 -->
  <rect x="50" y="290" width="100" height="50" class="interrupt-block"/>
  <text x="100" y="310" class="label-text">RST 5.5</text>
  <text x="100" y="325" class="detail-text" text-anchor="middle">Maskable</text>
  <text x="100" y="335" class="detail-text" text-anchor="middle">Level Triggered</text>
  
  <!-- INTR -->
  <rect x="50" y="360" width="100" height="50" class="interrupt-block"/>
  <text x="100" y="380" class="label-text">INTR</text>
  <text x="100" y="395" class="detail-text" text-anchor="middle">Maskable</text>
  <text x="100" y="405" class="detail-text" text-anchor="middle">Level Triggered</text>
  
  <!-- Priority Level Indicator -->
  <g class="priority-indicator">
    <text x="200" y="75" style="font-family: Arial, sans-serif; font-size: 11px; font-weight: bold; fill: #d69e2e;">Priority</text>
    <text x="210" y="90" style="font-family: Arial, sans-serif; font-size: 10px; fill: #d69e2e;">(High)</text>
    <line x1="180" y1="105" x2="180" y2="385" class="priority-line"/>
    <text x="210" y="400" style="font-family: Arial, sans-serif; font-size: 10px; fill: #d69e2e;">(Low)</text>
    
    <!-- Priority numbers -->
    <text x="200" y="110" style="font-family: Arial, sans-serif; font-size: 12px; fill: #d69e2e; font-weight: bold;">1</text>
    <text x="200" y="180" style="font-family: Arial, sans-serif; font-size: 12px; fill: #d69e2e; font-weight: bold;">2</text>
    <text x="200" y="250" style="font-family: Arial, sans-serif; font-size: 12px; fill: #d69e2e; font-weight: bold;">3</text>
    <text x="200" y="320" style="font-family: Arial, sans-serif; font-size: 12px; fill: #d69e2e; font-weight: bold;">4</text>
    <text x="200" y="390" style="font-family: Arial, sans-serif; font-size: 12px; fill: #d69e2e; font-weight: bold;">5</text>
  </g>
  
  <!-- Interrupt Vector Addresses -->
  <g class="vector-addresses">
    <text x="600" y="75" style="font-family: Arial, sans-serif; font-size: 11px; font-weight: bold; fill: #2d3748;">Vector Address</text>
    
    <rect x="550" y="90" width="80" height="30" class="vector-block"/>
    <text x="590" y="110" class="vector-text">0024H</text>
    
    <rect x="550" y="160" width="80" height="30" class="vector-block"/>
    <text x="590" y="180" class="vector-text">003CH</text>
    
    <rect x="550" y="230" width="80" height="30" class="vector-block"/>
    <text x="590" y="250" class="vector-text">0034H</text>
    
    <rect x="550" y="300" width="80" height="30" class="vector-block"/>
    <text x="590" y="320" class="vector-text">002CH</text>
    
    <rect x="550" y="370" width="80" height="30" class="vector-block"/>
    <text x="590" y="390" class="vector-text">External</text>
  </g>
  
  <!-- Connecting arrows -->
  <line x1="150" y1="105" x2="300" y2="125" class="arrow"/>
  <line x1="150" y1="175" x2="300" y2="145" class="arrow"/>
  <line x1="150" y1="245" x2="300" y2="165" class="arrow"/>
  <line x1="150" y1="315" x2="300" y2="185" class="arrow"/>
  <line x1="150" y1="385" x2="300" y2="205" class="arrow"/>
  
  <line x1="500" y1="125" x2="550" y2="105" class="arrow"/>
  <line x1="500" y1="145" x2="550" y2="175" class="arrow"/>
  <line x1="500" y1="165" x2="550" y2="245" class="arrow"/>
  <line x1="500" y1="185" x2="550" y2="315" class="arrow"/>
  <line x1="500" y1="205" x2="550" y2="385" class="arrow"/>
  
  <!-- Interrupt Enable/Disable Control -->
  <rect x="300" y="250" width="200" height="60" class="priority-block"/>
  <text x="400" y="270" class="label-text">Interrupt Control</text>
  <text x="320" y="290" class="detail-text">EI/DI Instructions</text>
  <text x="320" y="300" class="detail-text">SIM/RIM Instructions</text>
  
  <!-- INTA Signal -->
  <rect x="650" y="150" width="100" height="40" class="processor-block"/>
  <text x="700" y="175" class="label-text">INTA</text>
  <text x="700" y="185" class="detail-text" text-anchor="middle">Acknowledge</text>
  
  <line x1="500" y1="170" x2="650" y2="170" class="arrow"/>
  
  <!-- Interrupt Process Steps -->
  <g class="process-steps">
    <text x="50" y="470" style="font-family: Arial, sans-serif; font-size: 12px; font-weight: bold; fill: #2d3748;">Interrupt Process:</text>
    <text x="50" y="490" class="detail-text">1. Interrupt request received and recognized</text>
    <text x="50" y="505" class="detail-text">2. Current instruction completion</text>
    <text x="50" y="520" class="detail-text">3. Push PC and PSW to stack</text>
    <text x="50" y="535" class="detail-text">4. Jump to interrupt vector address</text>
    <text x="50" y="550" class="detail-text">5. Execute interrupt service routine (ISR)</text>
    <text x="50" y="565" class="detail-text">6. Return with RET instruction</text>
    
    <text x="400" y="490" class="detail-text">• TRAP: Cannot be disabled, highest priority</text>
    <text x="400" y="505" class="detail-text">• RST 7.5: Edge-triggered, can be masked</text>
    <text x="400" y="520" class="detail-text">• RST 6.5/5.5: Level-triggered, can be masked</text>
    <text x="400" y="535" class="detail-text">• INTR: Requires external vector, lowest priority</text>
    <text x="400" y="550" class="detail-text">• SIM: Set Interrupt Mask</text>
    <text x="400" y="565" class="detail-text">• RIM: Read Interrupt Mask</text>
  </g>
</svg>
