<?xml version="1.0" encoding="UTF-8"?>
<svg width="800" height="600" viewBox="0 0 800 600" xmlns="http://www.w3.org/2000/svg">
  <defs>
    <style>
      .stack-frame { fill: #e2e8f0; stroke: #4a5568; stroke-width: 2; }
      .stack-pointer { fill: #fed7d7; stroke: #e53e3e; stroke-width: 2; }
      .data-block { fill: #c6f6d5; stroke: #38a169; stroke-width: 2; }
      .register-block { fill: #bee3f8; stroke: #3182ce; stroke-width: 2; }
      .label-text { font-family: Arial, sans-serif; font-size: 11px; fill: #2d3748; text-anchor: middle; font-weight: bold; }
      .address-text { font-family: 'Courier New', monospace; font-size: 10px; fill: #2d3748; text-anchor: middle; }
      .detail-text { font-family: Arial, sans-serif; font-size: 10px; fill: #2d3748; }
      .arrow { stroke: #4a5568; stroke-width: 2; fill: none; marker-end: url(#arrowhead); }
      .instruction-text { font-family: 'Courier New', monospace; font-size: 10px; fill: #2d3748; font-weight: bold; }
    </style>
    <marker id="arrowhead" markerWidth="10" markerHeight="7" refX="10" refY="3.5" orient="auto">
      <polygon points="0 0, 10 3.5, 0 7" fill="#4a5568"/>
    </marker>
  </defs>
  
  <!-- Title -->
  <text x="400" y="25" style="font-family: Arial, sans-serif; font-size: 18px; font-weight: bold; fill: #2d3748; text-anchor: middle;">8085 Stack Operations and Subroutine Handling</text>
  
  <!-- Memory Stack Representation -->
  <g class="memory-stack">
    <text x="150" y="65" style="font-family: Arial, sans-serif; font-size: 14px; font-weight: bold; fill: #2d3748; text-anchor: middle;">Memory Stack</text>
    
    <!-- Stack memory locations -->
    <rect x="100" y="80" width="100" height="25" class="stack-frame"/>
    <text x="70" y="97" class="address-text">2100H</text>
    <text x="150" y="97" class="address-text">Available</text>
    
    <rect x="100" y="105" width="100" height="25" class="stack-frame"/>
    <text x="70" y="122" class="address-text">20FFH</text>
    <text x="150" y="122" class="address-text">PCL (Low)</text>
    
    <rect x="100" y="130" width="100" height="25" class="stack-frame"/>
    <text x="70" y="147" class="address-text">20FEH</text>
    <text x="150" y="147" class="address-text">PCH (High)</text>
    
    <rect x="100" y="155" width="100" height="25" class="data-block"/>
    <text x="70" y="172" class="address-text">20FDH</text>
    <text x="150" y="172" class="address-text">Data B</text>
    
    <rect x="100" y="180" width="100" height="25" class="data-block"/>
    <text x="70" y="197" class="address-text">20FCH</text>
    <text x="150" y="197" class="address-text">Data A</text>
    
    <rect x="100" y="205" width="100" height="25" class="stack-frame"/>
    <text x="70" y="222" class="address-text">20FBH</text>
    <text x="150" y="222" class="address-text">Available</text>
    
    <!-- Stack Pointer indicator -->
    <rect x="220" y="155" width="60" height="25" class="stack-pointer"/>
    <text x="250" y="172" class="label-text">SP</text>
    <line x1="220" y1="167" x2="200" y2="167" class="arrow"/>
    
    <!-- Stack direction indicator -->
    <text x="50" y="140" style="font-family: Arial, sans-serif; font-size: 10px; fill: #e53e3e; font-weight: bold;">High</text>
    <text x="50" y="150" style="font-family: Arial, sans-serif; font-size: 10px; fill: #e53e3e; font-weight: bold;">Address</text>
    <line x1="30" y1="100" x2="30" y2="220" stroke="#e53e3e" stroke-width="2" marker-end="url(#arrowhead)"/>
    <text x="50" y="210" style="font-family: Arial, sans-serif; font-size: 10px; fill: #e53e3e; font-weight: bold;">Low</text>
    <text x="50" y="220" style="font-family: Arial, sans-serif; font-size: 10px; fill: #e53e3e; font-weight: bold;">Address</text>
  </g>
  
  <!-- Stack Operations -->
  <g class="stack-operations">
    <text x="400" y="65" style="font-family: Arial, sans-serif; font-size: 14px; font-weight: bold; fill: #2d3748; text-anchor: middle;">Stack Operations</text>
    
    <!-- PUSH Operation -->
    <rect x="320" y="80" width="160" height="80" class="data-block"/>
    <text x="400" y="100" class="label-text">PUSH Operation</text>
    <text x="330" y="120" class="instruction-text">PUSH B</text>
    <text x="330" y="135" class="detail-text">1. SP ← SP - 1</text>
    <text x="330" y="145" class="detail-text">2. [SP] ← B register</text>
    <text x="330" y="155" class="detail-text">3. SP ← SP - 1</text>
    <text x="330" y="165" class="detail-text">4. [SP] ← C register</text>
    
    <!-- POP Operation -->
    <rect x="320" y="180" width="160" height="80" class="data-block"/>
    <text x="400" y="200" class="label-text">POP Operation</text>
    <text x="330" y="220" class="instruction-text">POP B</text>
    <text x="330" y="235" class="detail-text">1. C ← [SP]</text>
    <text x="330" y="245" class="detail-text">2. SP ← SP + 1</text>
    <text x="330" y="255" class="detail-text">3. B ← [SP]</text>
    <text x="330" y="265" class="detail-text">4. SP ← SP + 1</text>
  </g>
  
  <!-- Subroutine Operations -->
  <g class="subroutine-operations">
    <text x="650" y="65" style="font-family: Arial, sans-serif; font-size: 14px; font-weight: bold; fill: #2d3748; text-anchor: middle;">Subroutine Calls</text>
    
    <!-- CALL Operation -->
    <rect x="550" y="80" width="200" height="80" class="register-block"/>
    <text x="650" y="100" class="label-text">CALL Instruction</text>
    <text x="560" y="120" class="instruction-text">CALL 3000H</text>
    <text x="560" y="135" class="detail-text">1. SP ← SP - 1</text>
    <text x="560" y="145" class="detail-text">2. [SP] ← PCH (return address high)</text>
    <text x="560" y="155" class="detail-text">3. SP ← SP - 1</text>
    <text x="560" y="165" class="detail-text">4. [SP] ← PCL (return address low)</text>
    <text x="560" y="175" class="detail-text">5. PC ← 3000H (jump to subroutine)</text>
    
    <!-- RET Operation -->
    <rect x="550" y="180" width="200" height="70" class="register-block"/>
    <text x="650" y="200" class="label-text">RET Instruction</text>
    <text x="560" y="220" class="instruction-text">RET</text>
    <text x="560" y="235" class="detail-text">1. PCL ← [SP]</text>
    <text x="560" y="245" class="detail-text">2. SP ← SP + 1</text>
    <text x="560" y="255" class="detail-text">3. PCH ← [SP]</text>
    <text x="560" y="265" class="detail-text">4. SP ← SP + 1</text>
  </g>
  
  <!-- Program Flow Example -->
  <g class="program-flow">
    <text x="400" y="310" style="font-family: Arial, sans-serif; font-size: 14px; font-weight: bold; fill: #2d3748; text-anchor: middle;">Program Flow Example</text>
    
    <!-- Main Program -->
    <rect x="50" y="330" width="150" height="120" class="stack-frame"/>
    <text x="125" y="350" class="label-text">Main Program</text>
    <text x="60" y="370" class="address-text">2000H: MOV A,05H</text>
    <text x="60" y="385" class="address-text">2002H: CALL 3000H</text>
    <text x="60" y="400" class="address-text">2005H: ADD B</text>
    <text x="60" y="415" class="address-text">2006H: MOV B,A</text>
    <text x="60" y="430" class="address-text">2007H: HLT</text>
    
    <!-- Subroutine -->
    <rect x="250" y="330" width="150" height="120" class="register-block"/>
    <text x="325" y="350" class="label-text">Subroutine</text>
    <text x="260" y="370" class="address-text">3000H: MOV B,0AH</text>
    <text x="260" y="385" class="address-text">3002H: ADD B</text>
    <text x="260" y="400" class="address-text">3003H: MOV C,A</text>
    <text x="260" y="415" class="address-text">3004H: RET</text>
    
    <!-- Flow arrows -->
    <path d="M 200 385 Q 225 360 250 385" class="arrow" fill="none"/>
    <text x="225" y="375" class="detail-text">CALL</text>
    
    <path d="M 250 415 Q 225 440 200 415" class="arrow" fill="none"/>
    <text x="225" y="430" class="detail-text">RET</text>
    
    <!-- Stack during call -->
    <rect x="450" y="330" width="120" height="120" class="data-block"/>
    <text x="510" y="350" class="label-text">Stack During Call</text>
    <text x="460" y="370" class="address-text">20FFH: 20H (PCH)</text>
    <text x="460" y="385" class="address-text">20FEH: 05H (PCL)</text>
    <text x="460" y="400" class="detail-text">SP = 20FEH</text>
    <text x="460" y="415" class="detail-text">Return Address:</text>
    <text x="460" y="430" class="detail-text">2005H</text>
  </g>
  
  <!-- Stack Instructions Summary -->
  <g class="instructions-summary">
    <text x="50" y="490" style="font-family: Arial, sans-serif; font-size: 12px; font-weight: bold; fill: #2d3748;">Stack Instructions:</text>
    <text x="50" y="510" class="instruction-text">PUSH rp  </text><text x="120" y="510" class="detail-text">Push register pair onto stack</text>
    <text x="50" y="525" class="instruction-text">POP rp   </text><text x="120" y="525" class="detail-text">Pop register pair from stack</text>
    <text x="50" y="540" class="instruction-text">CALL addr</text><text x="120" y="540" class="detail-text">Call subroutine at address</text>
    <text x="50" y="555" class="instruction-text">RET      </text><text x="120" y="555" class="detail-text">Return from subroutine</text>
    <text x="50" y="570" class="instruction-text">XTHL     </text><text x="120" y="570" class="detail-text">Exchange H-L with top of stack</text>
    
    <text x="400" y="510" class="instruction-text">SPHL     </text><text x="470" y="510" class="detail-text">Copy H-L to Stack Pointer</text>
    <text x="400" y="525" class="instruction-text">PCHL     </text><text x="470" y="525" class="detail-text">Copy H-L to Program Counter</text>
    <text x="400" y="540" class="instruction-text">CC/CNC   </text><text x="470" y="540" class="detail-text">Conditional call instructions</text>
    <text x="400" y="555" class="instruction-text">RC/RNC   </text><text x="470" y="555" class="detail-text">Conditional return instructions</text>
    <text x="400" y="570" class="instruction-text">RST n    </text><text x="470" y="570" class="detail-text">Restart instruction (n=0-7)</text>
  </g>
</svg>
