<?xml version="1.0" encoding="UTF-8"?>
<svg width="800" height="600" viewBox="0 0 800 600" xmlns="http://www.w3.org/2000/svg">
  <defs>
    <style>
      .alu-block { fill: #fed7d7; stroke: #e53e3e; stroke-width: 2; }
      .register-block { fill: #bee3f8; stroke: #3182ce; stroke-width: 2; }
      .flag-block { fill: #c6f6d5; stroke: #38a169; stroke-width: 2; }
      .input-block { fill: #faf0e6; stroke: #d69e2e; stroke-width: 2; }
      .label-text { font-family: Arial, sans-serif; font-size: 12px; fill: #2d3748; text-anchor: middle; font-weight: bold; }
      .detail-text { font-family: Arial, sans-serif; font-size: 10px; fill: #2d3748; }
      .operation-text { font-family: 'Courier New', monospace; font-size: 10px; fill: #2d3748; font-weight: bold; }
      .arrow { stroke: #4a5568; stroke-width: 2; fill: none; marker-end: url(#arrowhead); }
      .data-flow { stroke: #3182ce; stroke-width: 2; fill: none; }
    </style>
    <marker id="arrowhead" markerWidth="10" markerHeight="7" refX="10" refY="3.5" orient="auto">
      <polygon points="0 0, 10 3.5, 0 7" fill="#4a5568"/>
    </marker>
  </defs>
  
  <!-- Title -->
  <text x="400" y="25" style="font-family: Arial, sans-serif; font-size: 18px; font-weight: bold; fill: #2d3748; text-anchor: middle;">8085 Arithmetic Logic Unit (ALU) Architecture</text>
  
  <!-- ALU Main Block -->
  <rect x="300" y="150" width="200" height="120" class="alu-block"/>
  <text x="400" y="190" style="font-family: Arial, sans-serif; font-size: 16px; font-weight: bold; fill: #2d3748; text-anchor: middle;">ALU</text>
  <text x="400" y="210" class="label-text">Arithmetic Logic Unit</text>
  <text x="320" y="230" class="detail-text">• 8-bit operations</text>
  <text x="320" y="245" class="detail-text">• Arithmetic functions</text>
  <text x="320" y="260" class="detail-text">• Logic functions</text>
  
  <!-- Accumulator (Input A) -->
  <rect x="100" y="120" width="80" height="40" class="register-block"/>
  <text x="140" y="145" class="label-text">Accumulator</text>
  <text x="140" y="155" class="label-text">(A Register)</text>
  
  <!-- Temporary Register (Input B) -->
  <rect x="100" y="200" width="80" height="40" class="register-block"/>
  <text x="140" y="225" class="label-text">Temporary</text>
  <text x="140" y="235" class="label-text">Register</text>
  
  <!-- Data Input from Registers -->
  <rect x="100" y="280" width="80" height="40" class="input-block"/>
  <text x="140" y="305" class="label-text">Register Data</text>
  <text x="140" y="315" class="label-text">(B,C,D,E,H,L)</text>
  
  <!-- Memory Data Input -->
  <rect x="100" y="360" width="80" height="40" class="input-block"/>
  <text x="140" y="385" class="label-text">Memory Data</text>
  <text x="140" y="395" class="label-text">([HL])</text>
  
  <!-- ALU Operations -->
  <g class="alu-operations">
    <text x="400" y="320" style="font-family: Arial, sans-serif; font-size: 14px; font-weight: bold; fill: #2d3748; text-anchor: middle;">ALU Operations</text>
    
    <!-- Arithmetic Operations -->
    <rect x="250" y="340" width="100" height="80" class="alu-block"/>
    <text x="300" y="360" class="label-text">Arithmetic</text>
    <text x="260" y="375" class="operation-text">ADD</text>
    <text x="260" y="385" class="operation-text">SUB</text>
    <text x="260" y="395" class="operation-text">INR</text>
    <text x="260" y="405" class="operation-text">DCR</text>
    <text x="260" y="415" class="operation-text">DAA</text>
    
    <!-- Logic Operations -->
    <rect x="450" y="340" width="100" height="80" class="alu-block"/>
    <text x="500" y="360" class="label-text">Logic</text>
    <text x="460" y="375" class="operation-text">ANA</text>
    <text x="460" y="385" class="operation-text">ORA</text>
    <text x="460" y="395" class="operation-text">XRA</text>
    <text x="460" y="405" class="operation-text">CMA</text>
    <text x="460" y="415" class="operation-text">CMP</text>
  </g>
  
  <!-- Flag Register -->
  <rect x="600" y="150" width="120" height="120" class="flag-block"/>
  <text x="660" y="175" class="label-text">Flag Register</text>
  <text x="660" y="190" class="label-text">(PSW)</text>
  
  <!-- Individual flags -->
  <g class="individual-flags">
    <rect x="610" y="200" width="15" height="15" class="flag-block"/>
    <text x="617" y="211" style="font-family: 'Courier New', monospace; font-size: 8px; fill: #2d3748; text-anchor: middle;">S</text>
    <text x="635" y="211" class="detail-text">Sign</text>
    
    <rect x="610" y="220" width="15" height="15" class="flag-block"/>
    <text x="617" y="231" style="font-family: 'Courier New', monospace; font-size: 8px; fill: #2d3748; text-anchor: middle;">Z</text>
    <text x="635" y="231" class="detail-text">Zero</text>
    
    <rect x="610" y="240" width="15" height="15" class="flag-block"/>
    <text x="617" y="251" style="font-family: 'Courier New', monospace; font-size: 8px; fill: #2d3748; text-anchor: middle;">AC</text>
    <text x="640" y="251" class="detail-text">Aux Carry</text>
    
    <rect x="670" y="200" width="15" height="15" class="flag-block"/>
    <text x="677" y="211" style="font-family: 'Courier New', monospace; font-size: 8px; fill: #2d3748; text-anchor: middle;">P</text>
    <text x="695" y="211" class="detail-text">Parity</text>
    
    <rect x="670" y="220" width="15" height="15" class="flag-block"/>
    <text x="677" y="231" style="font-family: 'Courier New', monospace; font-size: 8px; fill: #2d3748; text-anchor: middle;">CY</text>
    <text x="700" y="231" class="detail-text">Carry</text>
  </g>
  
  <!-- Data Flow Arrows -->
  <line x1="180" y1="140" x2="280" y2="160" class="data-flow" marker-end="url(#arrowhead)"/>
  <line x1="180" y1="220" x2="280" y2="200" class="data-flow" marker-end="url(#arrowhead)"/>
  <line x1="180" y1="300" x2="280" y2="240" class="data-flow" marker-end="url(#arrowhead)"/>
  <line x1="180" y1="380" x2="280" y2="260" class="data-flow" marker-end="url(#arrowhead)"/>
  
  <!-- ALU to Accumulator -->
  <path d="M 400 150 Q 250 100 140 120" class="arrow" fill="none"/>
  <text x="250" y="95" class="detail-text">Result to Accumulator</text>
  
  <!-- ALU to Flags -->
  <line x1="500" y1="200" x2="600" y2="200" class="arrow"/>
  <text x="520" y="195" class="detail-text">Status Flags</text>
  
  <!-- Example Operations -->
  <g class="examples">
    <text x="50" y="480" style="font-family: Arial, sans-serif; font-size: 12px; font-weight: bold; fill: #2d3748;">Example Operations:</text>
    
    <text x="50" y="500" class="operation-text">ADD B</text>
    <text x="100" y="500" class="detail-text">A ← A + B (with carry to CY flag)</text>
    
    <text x="50" y="515" class="operation-text">SUB C</text>
    <text x="100" y="515" class="detail-text">A ← A - C (with borrow from CY flag)</text>
    
    <text x="50" y="530" class="operation-text">ANA D</text>
    <text x="100" y="530" class="detail-text">A ← A AND D (logic AND operation)</text>
    
    <text x="50" y="545" class="operation-text">ORA E</text>
    <text x="100" y="545" class="detail-text">A ← A OR E (logic OR operation)</text>
    
    <text x="50" y="560" class="operation-text">CMP H</text>
    <text x="100" y="560" class="detail-text">Compare A with H (affects flags only)</text>
    
    <text x="400" y="500" class="operation-text">INR A</text>
    <text x="450" y="500" class="detail-text">A ← A + 1 (increment operation)</text>
    
    <text x="400" y="515" class="operation-text">DCR B</text>
    <text x="450" y="515" class="detail-text">B ← B - 1 (decrement operation)</text>
    
    <text x="400" y="530" class="operation-text">XRA A</text>
    <text x="450" y="530" class="detail-text">A ← A XOR A (clear accumulator)</text>
    
    <text x="400" y="545" class="operation-text">DAA</text>
    <text x="440" y="545" class="detail-text">Decimal adjust accumulator</text>
    
    <text x="400" y="560" class="operation-text">CMA</text>
    <text x="440" y="560" class="detail-text">Complement accumulator</text>
  </g>
  
  <!-- ALU Control Signals -->
  <rect x="350" y="80" width="100" height="50" class="input-block"/>
  <text x="400" y="100" class="label-text">Control Unit</text>
  <text x="400" y="115" class="detail-text">Operation Select</text>
  <line x1="400" y1="130" x2="400" y2="150" class="arrow"/>
  
  <!-- Timing Information -->
  <g class="timing-info">
    <text x="600" y="320" style="font-family: Arial, sans-serif; font-size: 12px; font-weight: bold; fill: #2d3748;">ALU Characteristics:</text>
    <text x="600" y="340" class="detail-text">• 8-bit parallel operation</text>
    <text x="600" y="355" class="detail-text">• Single clock cycle execution</text>
    <text x="600" y="370" class="detail-text">• Automatic flag setting</text>
    <text x="600" y="385" class="detail-text">• Two's complement arithmetic</text>
    <text x="600" y="400" class="detail-text">• BCD arithmetic support</text>
  </g>
</svg>
