<?xml version="1.0" encoding="UTF-8"?>
<svg width="800" height="600" viewBox="0 0 800 600" xmlns="http://www.w3.org/2000/svg">
  <defs>
    <style>
      .microcontroller-block { fill: #2d3748; stroke: #4a5568; stroke-width: 2; }
      .cpu-core { fill: #fed7d7; stroke: #e53e3e; stroke-width: 2; }
      .memory-block { fill: #bee3f8; stroke: #3182ce; stroke-width: 2; }
      .peripheral-block { fill: #c6f6d5; stroke: #38a169; stroke-width: 2; }
      .io-block { fill: #faf0e6; stroke: #d69e2e; stroke-width: 2; }
      .label-text { font-family: Arial, sans-serif; font-size: 11px; fill: #2d3748; text-anchor: middle; font-weight: bold; }
      .white-text { font-family: Arial, sans-serif; font-size: 11px; fill: #e2e8f0; text-anchor: middle; font-weight: bold; }
      .detail-text { font-family: Arial, sans-serif; font-size: 9px; fill: #2d3748; }
      .bus-line { stroke: #4a5568; stroke-width: 2; fill: none; }
    </style>
  </defs>
  
  <!-- Title -->
  <text x="400" y="25" style="font-family: Arial, sans-serif; font-size: 18px; font-weight: bold; fill: #2d3748; text-anchor: middle;">8051 Microcontroller Architecture</text>
  
  <!-- Main 8051 Chip -->
  <rect x="100" y="60" width="600" height="480" rx="10" class="microcontroller-block"/>
  <text x="400" y="85" style="font-family: Arial, sans-serif; font-size: 16px; font-weight: bold; fill: #e2e8f0; text-anchor: middle;">8051 MICROCONTROLLER</text>
  
  <!-- CPU Core -->
  <rect x="120" y="110" width="160" height="100" class="cpu-core"/>
  <text x="200" y="135" class="label-text">8-bit CPU</text>
  <text x="200" y="150" class="label-text">Arithmetic Logic Unit</text>
  <text x="130" y="170" class="detail-text">• Accumulator (A)</text>
  <text x="130" y="185" class="detail-text">• B Register</text>
  <text x="130" y="200" class="detail-text">• PSW (Flags)</text>
  
  <!-- Program Memory -->
  <rect x="300" y="110" width="120" height="80" class="memory-block"/>
  <text x="360" y="135" class="label-text">Program Memory</text>
  <text x="360" y="150" class="label-text">(ROM/EPROM)</text>
  <text x="310" y="170" class="detail-text">• 4K bytes internal</text>
  <text x="310" y="185" class="detail-text">• Up to 64K external</text>
  
  <!-- Data Memory -->
  <rect x="440" y="110" width="120" height="80" class="memory-block"/>
  <text x="500" y="135" class="label-text">Data Memory</text>
  <text x="500" y="150" class="label-text">(RAM)</text>
  <text x="450" y="170" class="detail-text">• 128 bytes internal</text>
  <text x="450" y="185" class="detail-text">• Up to 64K external</text>
  
  <!-- Special Function Registers -->
  <rect x="580" y="110" width="100" height="80" class="peripheral-block"/>
  <text x="630" y="135" class="label-text">SFR</text>
  <text x="630" y="150" class="label-text">Registers</text>
  <text x="590" y="170" class="detail-text">• Timer/Counter</text>
  <text x="590" y="185" class="detail-text">• Serial Port</text>
  
  <!-- Internal RAM Organization -->
  <rect x="120" y="230" width="180" height="120" class="memory-block"/>
  <text x="210" y="250" class="label-text">Internal RAM (128 bytes)</text>
  <text x="130" y="270" class="detail-text">00H-1FH: Register Banks (0-3)</text>
  <text x="130" y="285" class="detail-text">20H-2FH: Bit Addressable Area</text>
  <text x="130" y="300" class="detail-text">30H-7FH: General Purpose RAM</text>
  <text x="130" y="315" class="detail-text">80H-FFH: Special Function Registers</text>
  <text x="130" y="330" class="detail-text">Bank 0: R0-R7 (00H-07H)</text>
  <text x="130" y="345" class="detail-text">Bank 1: R0-R7 (08H-0FH)</text>
  
  <!-- Timer/Counter -->
  <rect x="320" y="230" width="140" height="80" class="peripheral-block"/>
  <text x="390" y="250" class="label-text">Timer/Counter</text>
  <text x="330" y="270" class="detail-text">• Timer 0 (16-bit)</text>
  <text x="330" y="285" class="detail-text">• Timer 1 (16-bit)</text>
  <text x="330" y="300" class="detail-text">• Multiple modes</text>
  
  <!-- Serial Port -->
  <rect x="480" y="230" width="100" height="80" class="peripheral-block"/>
  <text x="530" y="250" class="label-text">Serial Port</text>
  <text x="490" y="270" class="detail-text">• UART</text>
  <text x="490" y="285" class="detail-text">• 4 modes</text>
  <text x="490" y="300" class="detail-text">• Baud rate gen</text>
  
  <!-- Interrupt System -->
  <rect x="600" y="230" width="80" height="80" class="peripheral-block"/>
  <text x="640" y="250" class="label-text">Interrupts</text>
  <text x="610" y="270" class="detail-text">• 5 sources</text>
  <text x="610" y="285" class="detail-text">• 2 priority</text>
  <text x="610" y="300" class="detail-text">• levels</text>
  
  <!-- I/O Ports -->
  <rect x="120" y="370" width="100" height="80" class="io-block"/>
  <text x="170" y="395" class="label-text">Port 0</text>
  <text x="170" y="410" class="label-text">(P0.0-P0.7)</text>
  <text x="130" y="430" class="detail-text">• 8-bit I/O</text>
  <text x="130" y="445" class="detail-text">• Open drain</text>
  
  <rect x="240" y="370" width="100" height="80" class="io-block"/>
  <text x="290" y="395" class="label-text">Port 1</text>
  <text x="290" y="410" class="label-text">(P1.0-P1.7)</text>
  <text x="250" y="430" class="detail-text">• 8-bit I/O</text>
  <text x="250" y="445" class="detail-text">• Internal pull-up</text>
  
  <rect x="360" y="370" width="100" height="80" class="io-block"/>
  <text x="410" y="395" class="label-text">Port 2</text>
  <text x="410" y="410" class="label-text">(P2.0-P2.7)</text>
  <text x="370" y="430" class="detail-text">• 8-bit I/O</text>
  <text x="370" y="445" class="detail-text">• High addr bus</text>
  
  <rect x="480" y="370" width="100" height="80" class="io-block"/>
  <text x="530" y="395" class="label-text">Port 3</text>
  <text x="530" y="410" class="label-text">(P3.0-P3.7)</text>
  <text x="490" y="430" class="detail-text">• 8-bit I/O</text>
  <text x="490" y="445" class="detail-text">• Alt functions</text>
  
  <!-- Oscillator and Clock -->
  <rect x="600" y="370" width="80" height="80" class="cpu-core"/>
  <text x="640" y="395" class="label-text">Oscillator</text>
  <text x="640" y="410" class="label-text">&amp; Clock</text>
  <text x="610" y="430" class="detail-text">• XTAL1/2</text>
  <text x="610" y="445" class="detail-text">• 12 MHz max</text>
  
  <!-- Internal Bus Structure -->
  <g class="internal-buses">
    <!-- Data bus connections -->
    <line x1="280" y1="160" x2="300" y2="160" class="bus-line"/>
    <line x1="420" y1="160" x2="440" y2="160" class="bus-line"/>
    <line x1="560" y1="160" x2="580" y2="160" class="bus-line"/>
    
    <!-- Address bus -->
    <line x1="200" y1="210" x2="200" y2="230" class="bus-line"/>
    <line x1="200" y1="230" x2="640" y2="230" class="bus-line"/>
    
    <!-- Control signals -->
    <line x1="200" y1="350" x2="200" y2="370" class="bus-line"/>
    <line x1="200" y1="350" x2="640" y2="350" class="bus-line"/>
  </g>
  
  <!-- External Connections -->
  <g class="external-labels">
    <text x="50" y="140" style="font-family: Arial, sans-serif; font-size: 10px; fill: #4a5568;">External Program Memory Interface</text>
    <text x="50" y="200" style="font-family: Arial, sans-serif; font-size: 10px; fill: #4a5568;">External Data Memory Interface</text>
    <text x="50" y="420" style="font-family: Arial, sans-serif; font-size: 10px; fill: #4a5568;">General Purpose I/O</text>
    <text x="720" y="140" style="font-family: Arial, sans-serif; font-size: 10px; fill: #4a5568;">Control Signals</text>
    <text x="720" y="200" style="font-family: Arial, sans-serif; font-size: 10px; fill: #4a5568;">Timer/Serial I/O</text>
    <text x="720" y="420" style="font-family: Arial, sans-serif; font-size: 10px; fill: #4a5568;">Clock Input</text>
  </g>
  
  <!-- Key Features -->
  <g class="key-features">
    <text x="50" y="570" style="font-family: Arial, sans-serif; font-size: 12px; font-weight: bold; fill: #2d3748;">Key Features:</text>
    <text x="50" y="585" style="font-family: Arial, sans-serif; font-size: 10px; fill: #4a5568;">• 8-bit CPU with Boolean processor • 4K ROM, 128 bytes RAM • 32 I/O lines (4 ports) • 2 Timers/Counters • Serial interface • 5 interrupt sources</text>
  </g>
</svg>
