<?xml version="1.0" encoding="UTF-8"?>
<svg width="800" height="600" viewBox="0 0 800 600" xmlns="http://www.w3.org/2000/svg">
  <defs>
    <style>
      .timer-block { fill: #fed7d7; stroke: #e53e3e; stroke-width: 2; }
      .register-block { fill: #bee3f8; stroke: #3182ce; stroke-width: 2; }
      .control-block { fill: #c6f6d5; stroke: #38a169; stroke-width: 2; }
      .mode-block { fill: #faf0e6; stroke: #d69e2e; stroke-width: 2; }
      .input-block { fill: #e6fffa; stroke: #319795; stroke-width: 2; }
      .label-text { font-family: Arial, sans-serif; font-size: 11px; fill: #2d3748; text-anchor: middle; font-weight: bold; }
      .detail-text { font-family: Arial, sans-serif; font-size: 9px; fill: #2d3748; }
      .register-text { font-family: 'Courier New', monospace; font-size: 10px; fill: #2d3748; font-weight: bold; }
      .signal-line { stroke: #4a5568; stroke-width: 2; fill: none; }
      .clock-line { stroke: #3182ce; stroke-width: 2; fill: none; }
      .control-line { stroke: #38a169; stroke-width: 2; fill: none; }
    </style>
  </defs>
  
  <!-- Title -->
  <text x="400" y="25" style="font-family: Arial, sans-serif; font-size: 18px; font-weight: bold; fill: #2d3748; text-anchor: middle;">8051 Timer/Counter System Architecture</text>
  
  <!-- Timer 0 Block -->
  <rect x="100" y="70" width="200" height="120" class="timer-block"/>
  <text x="200" y="95" style="font-family: Arial, sans-serif; font-size: 14px; font-weight: bold; fill: #2d3748; text-anchor: middle;">Timer 0</text>
  <text x="200" y="115" class="label-text">16-bit Timer/Counter</text>
  
  <!-- Timer 0 Registers -->
  <rect x="110" y="130" width="80" height="25" class="register-block"/>
  <text x="150" y="147" class="register-text">TH0</text>
  <text x="110" y="125" class="detail-text">High Byte</text>
  
  <rect x="110" y="160" width="80" height="25" class="register-block"/>
  <text x="150" y="177" class="register-text">TL0</text>
  <text x="110" y="155" class="detail-text">Low Byte</text>
  
  <!-- Timer 1 Block -->
  <rect x="400" y="70" width="200" height="120" class="timer-block"/>
  <text x="500" y="95" style="font-family: Arial, sans-serif; font-size: 14px; font-weight: bold; fill: #2d3748; text-anchor: middle;">Timer 1</text>
  <text x="500" y="115" class="label-text">16-bit Timer/Counter</text>
  
  <!-- Timer 1 Registers -->
  <rect x="410" y="130" width="80" height="25" class="register-block"/>
  <text x="450" y="147" class="register-text">TH1</text>
  <text x="410" y="125" class="detail-text">High Byte</text>
  
  <rect x="410" y="160" width="80" height="25" class="register-block"/>
  <text x="450" y="177" class="register-text">TL1</text>
  <text x="410" y="155" class="detail-text">Low Byte</text>
  
  <!-- Control Registers -->
  <g class="control-registers">
    <text x="200" y="230" style="font-family: Arial, sans-serif; font-size: 14px; font-weight: bold; fill: #2d3748;">Control Registers</text>
    
    <!-- TMOD Register -->
    <rect x="50" y="250" width="300" height="60" class="control-block"/>
    <text x="200" y="270" class="label-text">TMOD (Timer Mode Register)</text>
    <text x="200" y="285" class="label-text">Address: 89H</text>
    
    <!-- TMOD bit fields -->
    <rect x="70" y="295" width="30" height="12" class="mode-block"/>
    <text x="85" y="304" style="font-family: 'Courier New', monospace; font-size: 8px; fill: #2d3748; text-anchor: middle;">GATE</text>
    
    <rect x="100" y="295" width="30" height="12" class="mode-block"/>
    <text x="115" y="304" style="font-family: 'Courier New', monospace; font-size: 8px; fill: #2d3748; text-anchor: middle;">C/T</text>
    
    <rect x="130" y="295" width="30" height="12" class="mode-block"/>
    <text x="145" y="304" style="font-family: 'Courier New', monospace; font-size: 8px; fill: #2d3748; text-anchor: middle;">M1</text>
    
    <rect x="160" y="295" width="30" height="12" class="mode-block"/>
    <text x="175" y="304" style="font-family: 'Courier New', monospace; font-size: 8px; fill: #2d3748; text-anchor: middle;">M0</text>
    
    <rect x="210" y="295" width="30" height="12" class="mode-block"/>
    <text x="225" y="304" style="font-family: 'Courier New', monospace; font-size: 8px; fill: #2d3748; text-anchor: middle;">GATE</text>
    
    <rect x="240" y="295" width="30" height="12" class="mode-block"/>
    <text x="255" y="304" style="font-family: 'Courier New', monospace; font-size: 8px; fill: #2d3748; text-anchor: middle;">C/T</text>
    
    <rect x="270" y="295" width="30" height="12" class="mode-block"/>
    <text x="285" y="304" style="font-family: 'Courier New', monospace; font-size: 8px; fill: #2d3748; text-anchor: middle;">M1</text>
    
    <rect x="300" y="295" width="30" height="12" class="mode-block"/>
    <text x="315" y="304" style="font-family: 'Courier New', monospace; font-size: 8px; fill: #2d3748; text-anchor: middle;">M0</text>
    
    <text x="145" y="320" class="detail-text">Timer 1</text>
    <text x="285" y="320" class="detail-text">Timer 0</text>
    
    <!-- TCON Register -->
    <rect x="400" y="250" width="300" height="60" class="control-block"/>
    <text x="550" y="270" class="label-text">TCON (Timer Control Register)</text>
    <text x="550" y="285" class="label-text">Address: 88H</text>
    
    <!-- TCON bit fields -->
    <rect x="420" y="295" width="25" height="12" class="control-block"/>
    <text x="432" y="304" style="font-family: 'Courier New', monospace; font-size: 7px; fill: #2d3748; text-anchor: middle;">TF1</text>
    
    <rect x="445" y="295" width="25" height="12" class="control-block"/>
    <text x="457" y="304" style="font-family: 'Courier New', monospace; font-size: 7px; fill: #2d3748; text-anchor: middle;">TR1</text>
    
    <rect x="470" y="295" width="25" height="12" class="control-block"/>
    <text x="482" y="304" style="font-family: 'Courier New', monospace; font-size: 7px; fill: #2d3748; text-anchor: middle;">TF0</text>
    
    <rect x="495" y="295" width="25" height="12" class="control-block"/>
    <text x="507" y="304" style="font-family: 'Courier New', monospace; font-size: 7px; fill: #2d3748; text-anchor: middle;">TR0</text>
    
    <rect x="540" y="295" width="25" height="12" class="input-block"/>
    <text x="552" y="304" style="font-family: 'Courier New', monospace; font-size: 7px; fill: #2d3748; text-anchor: middle;">IE1</text>
    
    <rect x="565" y="295" width="25" height="12" class="input-block"/>
    <text x="577" y="304" style="font-family: 'Courier New', monospace; font-size: 7px; fill: #2d3748; text-anchor: middle;">IT1</text>
    
    <rect x="590" y="295" width="25" height="12" class="input-block"/>
    <text x="602" y="304" style="font-family: 'Courier New', monospace; font-size: 7px; fill: #2d3748; text-anchor: middle;">IE0</text>
    
    <rect x="615" y="295" width="25" height="12" class="input-block"/>
    <text x="627" y="304" style="font-family: 'Courier New', monospace; font-size: 7px; fill: #2d3748; text-anchor: middle;">IT0</text>
  </g>
  
  <!-- Timer Modes -->
  <g class="timer-modes">
    <text x="50" y="370" style="font-family: Arial, sans-serif; font-size: 14px; font-weight: bold; fill: #2d3748;">Timer Operating Modes</text>
    
    <!-- Mode 0 -->
    <rect x="50" y="390" width="160" height="50" class="mode-block"/>
    <text x="130" y="410" class="label-text">Mode 0</text>
    <text x="60" y="425" class="detail-text">13-bit Timer/Counter</text>
    <text x="60" y="435" class="detail-text">8192 count capacity</text>
    
    <!-- Mode 1 -->
    <rect x="220" y="390" width="160" height="50" class="mode-block"/>
    <text x="300" y="410" class="label-text">Mode 1</text>
    <text x="230" y="425" class="detail-text">16-bit Timer/Counter</text>
    <text x="230" y="435" class="detail-text">65536 count capacity</text>
    
    <!-- Mode 2 -->
    <rect x="390" y="390" width="160" height="50" class="mode-block"/>
    <text x="470" y="410" class="label-text">Mode 2</text>
    <text x="400" y="425" class="detail-text">8-bit Auto-reload</text>
    <text x="400" y="435" class="detail-text">TH as reload value</text>
    
    <!-- Mode 3 -->
    <rect x="560" y="390" width="160" height="50" class="mode-block"/>
    <text x="640" y="410" class="label-text">Mode 3</text>
    <text x="570" y="425" class="detail-text">Split Timer Mode</text>
    <text x="570" y="435" class="detail-text">Two 8-bit timers</text>
  </g>
  
  <!-- Clock Sources -->
  <g class="clock-sources">
    <text x="50" y="480" style="font-family: Arial, sans-serif; font-size: 14px; font-weight: bold; fill: #2d3748;">Clock Sources</text>
    
    <!-- Internal Clock -->
    <rect x="50" y="500" width="150" height="60" class="input-block"/>
    <text x="125" y="520" class="label-text">Internal Clock</text>
    <text x="60" y="535" class="detail-text">• System clock ÷ 12</text>
    <text x="60" y="550" class="detail-text">• Timer mode (C/T = 0)</text>
    
    <!-- External Clock -->
    <rect x="220" y="500" width="150" height="60" class="input-block"/>
    <text x="295" y="520" class="label-text">External Clock</text>
    <text x="230" y="535" class="detail-text">• T0, T1 pins (P3.4, P3.5)</text>
    <text x="230" y="550" class="detail-text">• Counter mode (C/T = 1)</text>
    
    <!-- Gate Control -->
    <rect x="390" y="500" width="150" height="60" class="input-block"/>
    <text x="465" y="520" class="label-text">Gate Control</text>
    <text x="400" y="535" class="detail-text">• INT0, INT1 pins</text>
    <text x="400" y="550" class="detail-text">• External enable/disable</text>
  </g>
  
  <!-- Interrupt Generation -->
  <g class="interrupt-system">
    <text x="560" y="480" style="font-family: Arial, sans-serif; font-size: 14px; font-weight: bold; fill: #2d3748;">Interrupt System</text>
    
    <rect x="560" y="500" width="180" height="60" class="timer-block"/>
    <text x="650" y="520" class="label-text">Timer Interrupts</text>
    <text x="570" y="535" class="detail-text">• TF0, TF1 flags set on overflow</text>
    <text x="570" y="550" class="detail-text">• Vector: 000BH (T0), 001BH (T1)</text>
  </g>
  
  <!-- Programming Examples -->
  <g class="programming-examples">
    <text x="50" y="585" style="font-family: Arial, sans-serif; font-size: 12px; font-weight: bold; fill: #2d3748;">Programming Examples:</text>
    
    <text x="200" y="585" style="font-family: 'Courier New', monospace; font-size: 9px; fill: #2d3748;">MOV TMOD,#01H  ; Timer 0, Mode 1</text>
    <text x="450" y="585" style="font-family: 'Courier New', monospace; font-size: 9px; fill: #2d3748;">SETB TR0      ; Start Timer 0</text>
  </g>
  
  <!-- Signal connections -->
  <line x1="200" y1="190" x2="200" y2="250" class="signal-line"/>
  <line x1="500" y1="190" x2="500" y2="250" class="signal-line"/>
  
  <!-- External pin connections -->
  <text x="320" y="100" class="detail-text">T0 (P3.4)</text>
  <text x="620" y="100" class="detail-text">T1 (P3.5)</text>
  <text x="320" y="140" class="detail-text">INT0 (P3.2)</text>
  <text x="620" y="140" class="detail-text">INT1 (P3.3)</text>
</svg>
