<svg width="600" height="450" viewBox="0 0 600 450" xmlns="http://www.w3.org/2000/svg">
  <defs>
    <style>
      .title { font-family: Arial, sans-serif; font-size: 18px; font-weight: bold; text-anchor: middle; }
      .subtitle { font-family: Arial, sans-serif; font-size: 14px; font-weight: bold; text-anchor: middle; }
      .label { font-family: Arial, sans-serif; font-size: 12px; text-anchor: middle; }
      .pin-label { font-family: Arial, sans-serif; font-size: 10px; text-anchor: start; }
      .cpu-box { fill: #e8f4f8; stroke: #2c5aa0; stroke-width: 2; }
      .alu-box { fill: #ffe6e6; stroke: #cc0000; stroke-width: 2; }
      .register-box { fill: #fff8dc; stroke: #b8860b; stroke-width: 2; }
      .control-box { fill: #f0fff0; stroke: #009900; stroke-width: 2; }
      .data-flow { stroke: #ff6b6b; stroke-width: 2; fill: none; marker-end: url(#arrowhead); }
      .bus-line { stroke: #333; stroke-width: 2; fill: none; }
    </style>
    <marker id="arrowhead" markerWidth="10" markerHeight="7" 
            refX="9" refY="3.5" orient="auto">
      <polygon points="0 0, 10 3.5, 0 7" fill="#ff6b6b" />
    </marker>
  </defs>
  
  <!-- Title -->
  <text x="300" y="25" class="title">Basic Microprocessor System Architecture</text>
  
  <!-- CPU Core -->
  <rect x="200" y="60" width="200" height="120" class="cpu-box" />
  <text x="300" y="85" class="label">Central Processing Unit (CPU)</text>
  
  <!-- ALU -->
  <rect x="220" y="100" width="80" height="40" class="alu-box" />
  <text x="260" y="120" class="label">ALU</text>
  
  <!-- Control Unit -->
  <rect x="320" y="100" width="80" height="40" class="control-box" />
  <text x="360" y="120" class="label">Control Unit</text>
  
  <!-- Registers -->
  <rect x="220" y="150" width="160" height="25" class="register-box" />
  <text x="300" y="165" class="label">Registers (A, B, C, D, E, H, L)</text>
  
  <!-- Memory System -->
  <rect x="50" y="220" width="120" height="80" class="register-box" />
  <text x="110" y="245" class="label">Memory System</text>
  <text x="60" y="265" class="pin-label">• Program Memory</text>
  <text x="60" y="280" class="pin-label">• Data Memory</text>
  <text x="60" y="295" class="pin-label">• Stack Memory</text>
  
  <!-- I/O System -->
  <rect x="430" y="220" width="120" height="80" class="cpu-box" />
  <text x="490" y="245" class="label">I/O System</text>
  <text x="440" y="265" class="pin-label">• Input Devices</text>
  <text x="440" y="280" class="pin-label">• Output Devices</text>
  <text x="440" y="295" class="pin-label">• Peripheral Control</text>
  
  <!-- System Buses -->
  <g class="system-buses">
    <!-- Address Bus -->
    <line x1="300" y1="180" x2="300" y2="220" class="bus-line" />
    <line x1="170" y1="220" x2="430" y2="220" class="bus-line" />
    <text x="300" y="210" class="label">Address Bus</text>
    
    <!-- Data Bus -->
    <line x1="280" y1="180" x2="280" y2="240" class="data-flow" />
    <line x1="170" y1="240" x2="430" y2="240" class="data-flow" />
    <text x="280" y="230" class="label">Data Bus</text>
    
    <!-- Control Bus -->
    <line x1="320" y1="180" x2="320" y2="260" class="bus-line" />
    <line x1="170" y1="260" x2="430" y2="260" class="bus-line" />
    <text x="320" y="250" class="label">Control Bus</text>
  </g>
  
  <!-- System Functions -->
  <g class="system-functions">
    <text x="300" y="340" class="subtitle">Basic System Functions</text>
    
    <rect x="50" y="360" width="500" height="70" fill="#f8f8ff" stroke="#483d8b" stroke-width="2" />
    
    <text x="60" y="380" class="pin-label">1. Instruction Fetch: CPU reads instructions from memory via address and data buses</text>
    <text x="60" y="395" class="pin-label">2. Instruction Decode: Control unit interprets the fetched instruction</text>
    <text x="60" y="410" class="pin-label">3. Instruction Execute: ALU performs operations, registers store intermediate results</text>
    <text x="60" y="425" class="pin-label">4. Data Transfer: CPU communicates with memory and I/O devices through buses</text>
  </g>
</svg>
