<svg width="600" height="450" viewBox="0 0 600 450" xmlns="http://www.w3.org/2000/svg">
  <defs>
    <style>
      .title { font-family: Arial, sans-serif; font-size: 18px; font-weight: bold; text-anchor: middle; }
      .subtitle { font-family: Arial, sans-serif; font-size: 14px; font-weight: bold; text-anchor: middle; }
      .label { font-family: Arial, sans-serif; font-size: 12px; text-anchor: middle; }
      .pin-label { font-family: Arial, sans-serif; font-size: 10px; text-anchor: start; }
      .instruction-box { fill: #e6f3ff; stroke: #0066cc; stroke-width: 2; }
      .addressing-box { fill: #ffe6e6; stroke: #cc0000; stroke-width: 2; }
      .format-box { fill: #fff8dc; stroke: #b8860b; stroke-width: 2; }
      .example-box { fill: #f0fff0; stroke: #009900; stroke-width: 2; }
      .signal-line { stroke: #333; stroke-width: 2; fill: none; }
    </style>
  </defs>
  
  <!-- Title -->
  <text x="300" y="25" class="title">8085 Instruction Set Classification and Formats</text>
  
  <!-- Instruction Categories -->
  <g class="instruction-categories">
    <text x="300" y="55" class="subtitle">Instruction Categories</text>
    
    <!-- Data Transfer -->
    <rect x="50" y="70" width="120" height="80" class="instruction-box" />
    <text x="110" y="90" class="label">Data Transfer</text>
    <text x="60" y="110" class="pin-label">• MOV (Move)</text>
    <text x="60" y="125" class="pin-label">• LDA (Load Acc)</text>
    <text x="60" y="140" class="pin-label">• STA (Store Acc)</text>
    
    <!-- Arithmetic -->
    <rect x="190" y="70" width="120" height="80" class="addressing-box" />
    <text x="250" y="90" class="label">Arithmetic</text>
    <text x="200" y="110" class="pin-label">• ADD, SUB</text>
    <text x="200" y="125" class="pin-label">• INR, DCR</text>
    <text x="200" y="140" class="pin-label">• INX, DCX</text>
    
    <!-- Logical -->
    <rect x="330" y="70" width="120" height="80" class="format-box" />
    <text x="390" y="90" class="label">Logical</text>
    <text x="340" y="110" class="pin-label">• ANA, ORA, XRA</text>
    <text x="340" y="125" class="pin-label">• CMP (Compare)</text>
    <text x="340" y="140" class="pin-label">• RLC, RRC</text>
    
    <!-- Branch -->
    <rect x="470" y="70" width="120" height="80" class="example-box" />
    <text x="530" y="90" class="label">Branch/Control</text>
    <text x="480" y="110" class="pin-label">• JMP, CALL, RET</text>
    <text x="480" y="125" class="pin-label">• JZ, JNZ, JC</text>
    <text x="480" y="140" class="pin-label">• RST, HLT, NOP</text>
  </g>
  
  <!-- Instruction Formats -->
  <g class="instruction-formats">
    <text x="300" y="180" class="subtitle">Instruction Formats</text>
    
    <!-- One Byte -->
    <rect x="50" y="200" width="150" height="60" class="instruction-box" />
    <text x="125" y="220" class="label">One Byte (1 Byte)</text>
    <text x="60" y="240" class="pin-label">Opcode only</text>
    <text x="60" y="255" class="pin-label">Examples: MOV A,B; ADD B</text>
    
    <!-- Two Byte -->
    <rect x="220" y="200" width="150" height="60" class="addressing-box" />
    <text x="295" y="220" class="label">Two Byte (2 Bytes)</text>
    <text x="230" y="240" class="pin-label">Opcode + 8-bit data</text>
    <text x="230" y="255" class="pin-label">Examples: MVI A,05H; ADI 10H</text>
    
    <!-- Three Byte -->
    <rect x="390" y="200" width="150" height="60" class="format-box" />
    <text x="465" y="220" class="label">Three Byte (3 Bytes)</text>
    <text x="400" y="240" class="pin-label">Opcode + 16-bit address</text>
    <text x="400" y="255" class="pin-label">Examples: LDA 2050H; JMP 3000H</text>
  </g>
  
  <!-- Addressing Modes -->
  <g class="addressing-modes">
    <text x="300" y="290" class="subtitle">Addressing Modes</text>
    
    <!-- Immediate -->
    <rect x="50" y="310" width="100" height="50" class="instruction-box" />
    <text x="100" y="330" class="label">Immediate</text>
    <text x="60" y="345" class="pin-label">MVI A,50H</text>
    
    <!-- Register -->
    <rect x="170" y="310" width="100" height="50" class="addressing-box" />
    <text x="220" y="330" class="label">Register</text>
    <text x="180" y="345" class="pin-label">MOV A,B</text>
    
    <!-- Direct -->
    <rect x="290" y="310" width="100" height="50" class="format-box" />
    <text x="340" y="330" class="label">Direct</text>
    <text x="300" y="345" class="pin-label">LDA 2050H</text>
    
    <!-- Indirect -->
    <rect x="410" y="310" width="100" height="50" class="example-box" />
    <text x="460" y="330" class="label">Register Indirect</text>
    <text x="420" y="345" class="pin-label">MOV A,M</text>
    
    <!-- Implicit -->
    <rect x="530" y="310" width="60" height="50" class="instruction-box" />
    <text x="560" y="330" class="label">Implicit</text>
    <text x="535" y="345" class="pin-label">CMA</text>
  </g>
  
  <!-- Instruction Examples -->
  <g class="examples">
    <text x="300" y="390" class="subtitle">Common Instruction Examples</text>
    
    <rect x="50" y="405" width="500" height="35" fill="#f8f8ff" stroke="#483d8b" stroke-width="2" />
    
    <text x="60" y="420" class="pin-label">MOV A,B (1 byte) | MVI A,05H (2 bytes) | LDA 2050H (3 bytes) | ADD M (1 byte) | JMP 3000H (3 bytes)</text>
  </g>
</svg>
