<svg viewBox="0 0 900 650" xmlns="http://www.w3.org/2000/svg">
  <defs>
    <style>
      .title { font-family: Arial, sans-serif; font-size: 20px; font-weight: bold; fill: #2c3e50; text-anchor: middle; }
      .label { font-family: Arial, sans-serif; font-size: 12px; fill: #2c3e50; text-anchor: middle; }
      .small-label { font-family: Arial, sans-serif; font-size: 10px; fill: #2c3e50; text-anchor: middle; }
      .memory-section { stroke: #3498db; stroke-width: 2; fill: #ebf5fb; }
      .program-section { stroke: #e74c3c; stroke-width: 2; fill: #fdedec; }
      .data-section { stroke: #27ae60; stroke-width: 2; fill: #eafaf1; }
      .external-section { stroke: #f39c12; stroke-width: 2; fill: #fef9e7; }
      .address-text { font-family: monospace; font-size: 10px; fill: #2c3e50; text-anchor: middle; }
    </style>
  </defs>

  <!-- Title -->
  <text x="450" y="25" class="title">Complete Memory Organization and Address Space Layout</text>

  <!-- 8085 Memory Map -->
  <g class="memory-map-8085">
    <rect x="50" y="50" width="200" height="300" stroke="#34495e" stroke-width="2" fill="#f8f9fa"/>
    <text x="150" y="75" class="label">8085 Memory Map (64KB)</text>
    
    <!-- Memory sections -->
    <rect x="70" y="85" width="160" height="60" class="program-section"/>
    <text x="150" y="105" class="small-label">ROM/EPROM</text>
    <text x="150" y="120" class="small-label">Program Memory</text>
    <text x="150" y="135" class="address-text">0000H - 1FFFH (8KB)</text>
    
    <rect x="70" y="150" width="160" height="40" class="external-section"/>
    <text x="150" y="170" class="small-label">Expansion Area</text>
    <text x="150" y="185" class="address-text">2000H - 7FFFH (24KB)</text>
    
    <rect x="70" y="195" width="160" height="60" class="data-section"/>
    <text x="150" y="215" class="small-label">RAM</text>
    <text x="150" y="230" class="small-label">Data Memory &amp; Stack</text>
    <text x="150" y="245" class="address-text">8000H - BFFFH (16KB)</text>
    
    <rect x="70" y="260" width="160" height="60" class="memory-section"/>
    <text x="150" y="280" class="small-label">I/O &amp; Memory</text>
    <text x="150" y="295" class="small-label">Mapped Devices</text>
    <text x="150" y="310" class="address-text">C000H - FFFFH (16KB)</text>
    
    <!-- Address scale -->
    <line x1="260" y1="85" x2="260" y2="320" stroke="#34495e" stroke-width="2"/>
    <text x="275" y="90" class="address-text">0000H</text>
    <text x="275" y="155" class="address-text">2000H</text>
    <text x="275" y="200" class="address-text">8000H</text>
    <text x="275" y="265" class="address-text">C000H</text>
    <text x="275" y="325" class="address-text">FFFFH</text>
  </g>

  <!-- 8051 Memory Organization -->
  <g class="memory-map-8051">
    <rect x="320" y="50" width="250" height="300" stroke="#34495e" stroke-width="2" fill="#f8f9fa"/>
    <text x="445" y="75" class="label">8051 Memory Organization</text>
    
    <!-- Program Memory -->
    <rect x="340" y="85" width="100" height="120" class="program-section"/>
    <text x="390" y="105" class="small-label">Program Memory</text>
    <text x="390" y="120" class="small-label">(Harvard Architecture)</text>
    
    <rect x="350" y="130" width="80" height="30" fill="#fdf2e9" stroke="#f39c12"/>
    <text x="390" y="150" class="address-text">Internal ROM</text>
    <text x="390" y="160" class="address-text">0000H-0FFFH</text>
    
    <rect x="350" y="165" width="80" height="30" fill="#fdedec" stroke="#e74c3c"/>
    <text x="390" y="185" class="address-text">External ROM</text>
    <text x="390" y="195" class="address-text">1000H-FFFFH</text>
    
    <!-- Data Memory -->
    <rect x="460" y="85" width="100" height="120" class="data-section"/>
    <text x="510" y="105" class="small-label">Data Memory</text>
    <text x="510" y="120" class="small-label">(Separate Space)</text>
    
    <rect x="470" y="130" width="80" height="30" fill="#eafaf1" stroke="#27ae60"/>
    <text x="510" y="150" class="address-text">Internal RAM</text>
    <text x="510" y="160" class="address-text">00H-7FH</text>
    
    <rect x="470" y="165" width="80" height="30" fill="#e8f5e8" stroke="#52c41a"/>
    <text x="510" y="185" class="address-text">External RAM</text>
    <text x="510" y="195" class="address-text">0000H-FFFFH</text>
    
    <!-- SFR Space -->
    <rect x="340" y="215" width="220" height="40" class="memory-section"/>
    <text x="450" y="235" class="small-label">Special Function Registers (SFR)</text>
    <text x="450" y="250" class="address-text">80H - FFH (Bit Addressable)</text>
    
    <!-- Bit Addressable -->
    <rect x="340" y="265" width="220" height="40" class="external-section"/>
    <text x="450" y="285" class="small-label">Bit Addressable Space</text>
    <text x="450" y="300" class="address-text">20H-2FH (Data) + 80H-FFH (SFR)</text>
  </g>

  <!-- Address Space Comparison -->
  <g class="address-comparison">
    <rect x="600" y="50" width="250" height="300" stroke="#34495e" stroke-width="2" fill="#f8f9fa"/>
    <text x="725" y="75" class="label">Address Space Features</text>
    
    <!-- 8085 Features -->
    <rect x="620" y="90" width="210" height="80" fill="#fdf2e9" stroke="#f39c12"/>
    <text x="725" y="110" class="small-label">8085 Microprocessor</text>
    <text x="725" y="125" class="small-label">• Von Neumann Architecture</text>
    <text x="725" y="140" class="small-label">• Unified 64KB address space</text>
    <text x="725" y="155" class="small-label">• Program and data share memory</text>
    
    <!-- 8051 Features -->
    <rect x="620" y="180" width="210" height="80" fill="#eafaf1" stroke="#27ae60"/>
    <text x="725" y="200" class="small-label">8051 Microcontroller</text>
    <text x="725" y="215" class="small-label">• Harvard Architecture</text>
    <text x="725" y="230" class="small-label">• Separate program/data spaces</text>
    <text x="725" y="245" class="small-label">• Internal + External memory</text>
    
    <!-- Addressing Modes -->
    <rect x="620" y="270" width="210" height="70" fill="#ebf5fb" stroke="#3498db"/>
    <text x="725" y="290" class="small-label">Common Addressing</text>
    <text x="725" y="305" class="small-label">• Direct addressing</text>
    <text x="725" y="320" class="small-label">• Indirect addressing</text>
    <text x="725" y="335" class="small-label">• Immediate addressing</text>
  </g>

  <!-- Detailed Memory Layout -->
  <g class="detailed-layout">
    <rect x="50" y="370" width="800" height="260" stroke="#34495e" stroke-width="2" fill="#f8f9fa"/>
    <text x="450" y="395" class="label">Detailed Memory Organization and Usage</text>
    
    <!-- Stack Organization -->
    <text x="100" y="420" class="label">Stack Organization</text>
    
    <rect x="70" y="430" width="120" height="40" fill="#ffeaa7" stroke="#fdcb6e"/>
    <text x="130" y="450" class="small-label">8085 Stack</text>
    <text x="130" y="465" class="small-label">SP points to last used</text>
    
    <rect x="200" y="430" width="120" height="40" fill="#fab1a0" stroke="#e17055"/>
    <text x="260" y="450" class="small-label">8051 Stack</text>
    <text x="260" y="465" class="small-label">SP points to next free</text>
    
    <!-- Interrupt Vectors -->
    <text x="100" y="490" class="label">Interrupt Vector Locations</text>
    
    <rect x="70" y="500" width="120" height="50" fill="#dda0dd" stroke="#9370db"/>
    <text x="130" y="520" class="small-label">8085 Vectors</text>
    <text x="130" y="535" class="small-label">0000H, 0008H, 0010H</text>
    <text x="130" y="545" class="small-label">etc. (RST locations)</text>
    
    <rect x="200" y="500" width="120" height="50" fill="#98fb98" stroke="#32cd32"/>
    <text x="260" y="520" class="small-label">8051 Vectors</text>
    <text x="260" y="535" class="small-label">0000H, 0003H, 000BH</text>
    <text x="260" y="545" class="small-label">etc. (Interrupt table)</text>
    
    <!-- Memory Protection -->
    <text x="450" y="420" class="label">Memory Protection &amp; Access</text>
    
    <rect x="370" y="430" width="160" height="50" fill="#e6f3ff" stroke="#0080ff"/>
    <text x="450" y="450" class="small-label">8085: No built-in protection</text>
    <text x="450" y="465" class="small-label">Software must manage</text>
    <text x="450" y="475" class="small-label">memory boundaries</text>
    
    <rect x="370" y="490" width="160" height="50" fill="#fff2e6" stroke="#ff8000"/>
    <text x="450" y="510" class="small-label">8051: Hardware separation</text>
    <text x="450" y="525" class="small-label">Program/Data spaces</text>
    <text x="450" y="535" class="small-label">naturally protected</text>
    
    <!-- Memory Expansion -->
    <text x="650" y="420" class="label">Memory Expansion</text>
    
    <rect x="570" y="430" width="160" height="50" fill="#f0fff0" stroke="#00ff00"/>
    <text x="650" y="450" class="small-label">8085: Memory mapping</text>
    <text x="650" y="465" class="small-label">Address decoding for</text>
    <text x="650" y="475" class="small-label">external devices</text>
    
    <rect x="570" y="490" width="160" height="50" fill="#fff5ee" stroke="#ff6347"/>
    <text x="650" y="510" class="small-label">8051: EA pin control</text>
    <text x="650" y="525" class="small-label">PSEN, ALE signals</text>
    <text x="650" y="535" class="small-label">for external memory</text>
    
    <!-- Performance Considerations -->
    <text x="450" y="570" class="label">Performance Impact</text>
    <text x="200" y="590" class="small-label">8085: Single bus limits concurrent access</text>
    <text x="200" y="605" class="small-label">8051: Separate buses allow simultaneous program fetch and data access</text>
    <text x="450" y="620" class="small-label">Both support external memory expansion with appropriate control logic</text>
  </g>
</svg>
