<svg width="600" height="450" viewBox="0 0 600 450" xmlns="http://www.w3.org/2000/svg">
  <defs>
    <style>
      .title { font-family: Arial, sans-serif; font-size: 18px; font-weight: bold; text-anchor: middle; }
      .subtitle { font-family: Arial, sans-serif; font-size: 14px; font-weight: bold; text-anchor: middle; }
      .label { font-family: Arial, sans-serif; font-size: 12px; text-anchor: middle; }
      .pin-label { font-family: Arial, sans-serif; font-size: 10px; text-anchor: start; }
      .processor-box { fill: #e8f4f8; stroke: #2c5aa0; stroke-width: 2; }
      .memory-box { fill: #ffe6e6; stroke: #cc0000; stroke-width: 2; }
      .buffer-box { fill: #fff8dc; stroke: #b8860b; stroke-width: 2; }
      .control-box { fill: #f0fff0; stroke: #009900; stroke-width: 2; }
      .bus-line { stroke: #333; stroke-width: 2; fill: none; }
      .control-line { stroke: #ff6b6b; stroke-width: 2; fill: none; }
    </style>
  </defs>
  
  <!-- Title -->
  <text x="300" y="25" class="title">8085 Memory Interfacing - Complete Circuit</text>
  
  <!-- 8085 Processor -->
  <rect x="50" y="60" width="120" height="150" class="processor-box" />
  <text x="110" y="85" class="label">8085</text>
  <text x="110" y="100" class="label">Microprocessor</text>
  
  <!-- Address/Data Bus -->
  <text x="60" y="120" class="pin-label">AD7-AD0</text>
  <text x="60" y="135" class="pin-label">A15-A8</text>
  
  <!-- Control Signals -->
  <text x="60" y="155" class="pin-label">ALE</text>
  <text x="60" y="170" class="pin-label">RD</text>
  <text x="60" y="185" class="pin-label">WR</text>
  <text x="60" y="200" class="pin-label">IO/M</text>
  
  <!-- Address Latch -->
  <rect x="200" y="80" width="100" height="60" class="buffer-box" />
  <text x="250" y="105" class="label">Address Latch</text>
  <text x="250" y="120" class="label">74LS373</text>
  <text x="250" y="135" class="pin-label">Lower 8-bit Addr</text>
  
  <!-- Address Decoder -->
  <rect x="330" y="60" width="100" height="80" class="control-box" />
  <text x="380" y="85" class="label">Address</text>
  <text x="380" y="100" class="label">Decoder</text>
  <text x="380" y="115" class="label">74LS138</text>
  <text x="380" y="130" class="pin-label">Chip Select</text>
  
  <!-- RAM Memory -->
  <rect x="460" y="60" width="100" height="80" class="memory-box" />
  <text x="510" y="85" class="label">RAM</text>
  <text x="510" y="100" class="label">6264/6116</text>
  <text x="510" y="115" class="label">8KB SRAM</text>
  <text x="510" y="130" class="pin-label">2000H-3FFFH</text>
  
  <!-- ROM Memory -->
  <rect x="460" y="160" width="100" height="80" class="memory-box" />
  <text x="510" y="185" class="label">ROM</text>
  <text x="510" y="200" class="label">2764/27128</text>
  <text x="510" y="215" class="label">8KB EPROM</text>
  <text x="510" y="230" class="pin-label">0000H-1FFFH</text>
  
  <!-- Data Bus Buffer -->
  <rect x="200" y="160" width="100" height="60" class="buffer-box" />
  <text x="250" y="185" class="label">Data Bus</text>
  <text x="250" y="200" class="label">Buffer</text>
  <text x="250" y="215" class="pin-label">74LS245</text>
  
  <!-- Address Bus Connections -->
  <line x1="170" y1="135" x2="200" y2="110" class="bus-line" />
  <line x1="300" y1="110" x2="330" y2="100" class="bus-line" />
  <line x1="170" y1="135" x2="330" y2="100" class="bus-line" />
  
  <!-- Memory Connections -->
  <line x1="430" y1="100" x2="460" y2="100" class="control-line" />
  <line x1="430" y1="200" x2="460" y2="200" class="control-line" />
  
  <!-- Control Signals -->
  <line x1="170" y1="155" x2="200" y2="125" class="control-line" />
  <line x1="170" y1="170" x2="460" y2="110" class="control-line" />
  <line x1="170" y1="185" x2="460" y2="125" class="control-line" />
  
  <!-- Data Bus -->
  <line x1="170" y1="120" x2="200" y2="190" class="bus-line" />
  <line x1="300" y1="190" x2="460" y2="115" class="bus-line" />
  <line x1="300" y1="190" x2="460" y2="215" class="bus-line" />
  
  <!-- Memory Map -->
  <g class="memory-map">
    <text x="150" y="270" class="subtitle">Memory Map</text>
    
    <rect x="50" y="290" width="200" height="140" class="control-box" />
    
    <text x="60" y="310" class="pin-label">FFFFH ┌─────────────────┐</text>
    <text x="60" y="325" class="pin-label">      │                 │</text>
    <text x="60" y="340" class="pin-label">4000H │  I/O &amp; Expansion │</text>
    <text x="60" y="355" class="pin-label">3FFFH ├─────────────────┤</text>
    <text x="60" y="370" class="pin-label">2000H │      RAM        │</text>
    <text x="60" y="385" class="pin-label">1FFFH ├─────────────────┤</text>
    <text x="60" y="400" class="pin-label">0000H │      ROM        │</text>
    <text x="60" y="415" class="pin-label">      └─────────────────┘</text>
  </g>
  
  <!-- Control Logic -->
  <g class="control-logic">
    <text x="400" y="270" class="subtitle">Control Logic</text>
    
    <rect x="300" y="290" width="200" height="140" fill="#f8f8ff" stroke="#483d8b" stroke-width="2" />
    
    <text x="310" y="310" class="pin-label">Address Decoding:</text>
    <text x="310" y="325" class="pin-label">• A15-A13 → Address Decoder</text>
    <text x="310" y="340" class="pin-label">• Generates chip select signals</text>
    
    <text x="310" y="365" class="pin-label">Control Signals:</text>
    <text x="310" y="380" class="pin-label">• RD → Memory OE (Output Enable)</text>
    <text x="310" y="395" class="pin-label">• WR → Memory WE (Write Enable)</text>
    <text x="310" y="410" class="pin-label">• IO/M → Memory/IO select</text>
  </g>
</svg>
