<?xml version="1.0" encoding="UTF-8"?>
<svg width="600" height="400" xmlns="http://www.w3.org/2000/svg">
  <defs>
    <style>
      .component-text { font-family: Arial, sans-serif; font-size: 12px; fill: #000; }
      .pin-text { font-family: Arial, sans-serif; font-size: 10px; fill: #333; }
      .signal-text { font-family: Arial, sans-serif; font-size: 9px; fill: #666; }
      .wire { stroke: #000; stroke-width: 1; fill: none; }
      .bus { stroke: #000; stroke-width: 2; fill: none; }
      .component { fill: #f0f0f0; stroke: #000; stroke-width: 1; }
      .latch { fill: #e6f3ff; stroke: #000; stroke-width: 1; }
    </style>
  </defs>
  
  <!-- Title -->
  <text x="300" y="25" text-anchor="middle" class="component-text" font-size="16" font-weight="bold">8085 Address/Data Bus De-multiplexing</text>
  
  <!-- 8085 Microprocessor -->
  <rect x="50" y="100" width="100" height="120" rx="5" class="component"/>
  <text x="100" y="120" text-anchor="middle" class="component-text" font-weight="bold">8085</text>
  <text x="100" y="135" text-anchor="middle" class="component-text">μP</text>
  
  <!-- 8085 pins -->
  <g id="processor-pins">
    <!-- AD7-AD0 -->
    <rect x="150" y="140" width="15" height="8" class="component"/>
    <text x="170" y="147" class="pin-text">AD7-AD0</text>
    
    <!-- A15-A8 -->
    <rect x="150" y="160" width="15" height="8" class="component"/>
    <text x="170" y="167" class="pin-text">A15-A8</text>
    
    <!-- ALE -->
    <rect x="150" y="180" width="15" height="6" class="component"/>
    <text x="170" y="186" class="pin-text">ALE</text>
  </g>
  
  <!-- 74LS373 Address Latch -->
  <rect x="250" y="120" width="80" height="80" rx="5" class="latch"/>
  <text x="290" y="140" text-anchor="middle" class="component-text" font-weight="bold">74LS373</text>
  <text x="290" y="155" text-anchor="middle" class="component-text">Octal Latch</text>
  <text x="290" y="170" text-anchor="middle" class="component-text">with 3-state</text>
  <text x="290" y="185" text-anchor="middle" class="component-text">Outputs</text>
  
  <!-- Latch pins -->
  <g id="latch-pins">
    <!-- Input side -->
    <circle cx="250" cy="140" r="2" fill="#000"/>
    <text x="240" y="145" text-anchor="end" class="pin-text">D7-D0</text>
    
    <circle cx="250" cy="160" r="2" fill="#000"/>
    <text x="240" y="165" text-anchor="end" class="pin-text">LE</text>
    
    <circle cx="250" cy="180" r="2" fill="#000"/>
    <text x="240" y="185" text-anchor="end" class="pin-text">OC</text>
    
    <!-- Output side -->
    <circle cx="330" cy="140" r="2" fill="#000"/>
    <text x="340" y="145" class="pin-text">Q7-Q0</text>
  </g>
  
  <!-- Connections -->
  <!-- AD7-AD0 to latch input -->
  <line x1="165" y1="144" x2="190" y2="144" class="bus"/>
  <line x1="190" y1="144" x2="190" y2="140" class="bus"/>
  <line x1="190" y1="140" x2="250" y2="140" class="bus"/>
  <text x="220" y="138" text-anchor="middle" class="signal-text">AD7-AD0</text>
  
  <!-- ALE to LE pin -->
  <line x1="165" y1="183" x2="200" y2="183" class="wire"/>
  <line x1="200" y1="183" x2="200" y2="160" class="wire"/>
  <line x1="200" y1="160" x2="250" y2="160" class="wire"/>
  <text x="210" y="175" class="signal-text">ALE</text>
  
  <!-- Ground to OC pin -->
  <line x1="250" y1="180" x2="230" y2="180" class="wire"/>
  <line x1="230" y1="180" x2="230" y2="220" class="wire"/>
  <line x1="225" y1="220" x2="235" y2="220" stroke="#000" stroke-width="3"/>
  <line x1="227" y1="225" x2="233" y2="225" stroke="#000" stroke-width="2"/>
  <line x1="229" y1="230" x2="231" y2="230" stroke="#000" stroke-width="1"/>
  <text x="240" y="225" class="pin-text">GND</text>
  
  <!-- Output buses -->
  <!-- A15-A8 direct connection -->
  <line x1="165" y1="164" x2="400" y2="164" class="bus"/>
  <text x="280" y="160" class="signal-text">A15-A8 (Higher Address)</text>
  
  <!-- A7-A0 from latch output -->
  <line x1="330" y1="140" x2="400" y2="140" class="bus"/>
  <text x="360" y="135" class="signal-text">A7-A0 (Lower Address)</text>
  
  <!-- Data bus (bidirectional) -->
  <line x1="190" y1="144" x2="190" y2="260" class="bus"/>
  <line x1="190" y1="260" x2="400" y2="260" class="bus"/>
  <text x="290" y="255" class="signal-text">D7-D0 (Data Bus)</text>
  
  <!-- Memory/IO interface -->
  <rect x="450" y="100" width="100" height="80" rx="5" class="component"/>
  <text x="500" y="125" text-anchor="middle" class="component-text" font-weight="bold">Memory/</text>
  <text x="500" y="140" text-anchor="middle" class="component-text">I/O Device</text>
  <text x="500" y="160" text-anchor="middle" class="component-text">Interface</text>
  
  <!-- Timing diagram -->
  <rect x="50" y="280" width="500" height="100" rx="5" fill="#f9f9f9" stroke="#000"/>
  <text x="300" y="300" text-anchor="middle" class="component-text" font-weight="bold">Timing Diagram</text>
  
  <!-- ALE signal -->
  <text x="70" y="320" class="pin-text">ALE:</text>
  <line x1="100" y1="325" x2="120" y2="325" class="wire"/>
  <line x1="120" y1="325" x2="120" y2="315" class="wire"/>
  <line x1="120" y1="315" x2="160" y2="315" class="wire"/>
  <line x1="160" y1="315" x2="160" y2="325" class="wire"/>
  <line x1="160" y1="325" x2="180" y2="325" class="wire"/>
  
  <!-- AD7-AD0 signal -->
  <text x="70" y="340" class="pin-text">AD7-AD0:</text>
  <line x1="100" y1="345" x2="120" y2="345" class="wire"/>
  <text x="125" y="340" class="signal-text">Address</text>
  <line x1="160" y1="345" x2="180" y2="345" class="wire"/>
  <text x="185" y="340" class="signal-text">Data</text>
  
  <!-- Latched Address -->
  <text x="70" y="360" class="pin-text">A7-A0:</text>
  <line x1="120" y1="365" x2="180" y2="365" class="wire"/>
  <text x="145" y="360" class="signal-text">Stable Address</text>
  
  <!-- Explanation -->
  <text x="300" y="320" text-anchor="middle" class="signal-text">1. ALE goes HIGH</text>
  <text x="300" y="335" text-anchor="middle" class="signal-text">2. Address is latched in 74LS373</text>
  <text x="300" y="350" text-anchor="middle" class="signal-text">3. AD7-AD0 becomes data bus</text>
  <text x="300" y="365" text-anchor="middle" class="signal-text">4. Separate address and data buses available</text>
</svg>
