<svg width="600" height="500" viewBox="0 0 600 500" xmlns="http://www.w3.org/2000/svg">
  <defs>
    <style>
      .title { font-family: Arial, sans-serif; font-size: 18px; font-weight: bold; text-anchor: middle; }
      .subtitle { font-family: Arial, sans-serif; font-size: 14px; font-weight: bold; text-anchor: middle; }
      .label { font-family: Arial, sans-serif; font-size: 12px; text-anchor: middle; }
      .pin-label { font-family: Arial, sans-serif; font-size: 10px; text-anchor: start; }
      .mode-box { fill: #e6f3ff; stroke: #0066cc; stroke-width: 2; }
      .config-box { fill: #ffe6e6; stroke: #cc0000; stroke-width: 2; }
      .control-box { fill: #fff8dc; stroke: #b8860b; stroke-width: 2; }
      .register-box { fill: #f0fff0; stroke: #009900; stroke-width: 2; }
      .signal-line { stroke: #333; stroke-width: 2; fill: none; }
      .data-flow { stroke: #ff6b6b; stroke-width: 2; fill: none; marker-end: url(#arrowhead); }
    </style>
    <marker id="arrowhead" markerWidth="10" markerHeight="7" 
            refX="9" refY="3.5" orient="auto">
      <polygon points="0 0, 10 3.5, 0 7" fill="#ff6b6b" />
    </marker>
  </defs>
  
  <!-- Title -->
  <text x="300" y="25" class="title">8051 Timer/Counter Programming and Configuration</text>
  
  <!-- Timer/Counter Overview -->
  <g class="timer-overview">
    <text x="150" y="55" class="subtitle">Timer/Counter Structure</text>
    
    <!-- Timer 0 -->
    <rect x="50" y="70" width="120" height="80" class="mode-box" />
    <text x="110" y="90" class="label">Timer/Counter 0</text>
    <text x="60" y="110" class="pin-label">• 16-bit timer/counter</text>
    <text x="60" y="125" class="pin-label">• TH0 (High byte)</text>
    <text x="60" y="140" class="pin-label">• TL0 (Low byte)</text>
    
    <!-- Timer 1 -->
    <rect x="190" y="70" width="120" height="80" class="mode-box" />
    <text x="250" y="90" class="label">Timer/Counter 1</text>
    <text x="200" y="110" class="pin-label">• 16-bit timer/counter</text>
    <text x="200" y="125" class="pin-label">• TH1 (High byte)</text>
    <text x="200" y="140" class="pin-label">• TL1 (Low byte)</text>
    
    <!-- Timer 2 (8052) -->
    <rect x="330" y="70" width="120" height="80" class="config-box" />
    <text x="390" y="90" class="label">Timer/Counter 2</text>
    <text x="390" y="105" class="pin-label">(8052 only)</text>
    <text x="340" y="125" class="pin-label">• 16-bit auto-reload</text>
    <text x="340" y="140" class="pin-label">• Capture/Compare</text>
  </g>
  
  <!-- TMOD Register -->
  <g class="tmod-register">
    <text x="150" y="180" class="subtitle">TMOD Register (Timer Mode)</text>
    
    <rect x="50" y="200" width="400" height="40" class="control-box" />
    
    <!-- Bit positions -->
    <text x="70" y="215" class="pin-label">GATE</text>
    <text x="110" y="215" class="pin-label">C/T</text>
    <text x="140" y="215" class="pin-label">M1</text>
    <text x="170" y="215" class="pin-label">M0</text>
    <text x="200" y="215" class="pin-label">GATE</text>
    <text x="240" y="215" class="pin-label">C/T</text>
    <text x="270" y="215" class="pin-label">M1</text>
    <text x="300" y="215" class="pin-label">M0</text>
    
    <text x="130" y="230" class="pin-label">Timer 1</text>
    <text x="270" y="230" class="pin-label">Timer 0</text>
    
    <!-- Bit numbers -->
    <text x="70" y="190" class="pin-label" font-size="8">7</text>
    <text x="110" y="190" class="pin-label" font-size="8">6</text>
    <text x="140" y="190" class="pin-label" font-size="8">5</text>
    <text x="170" y="190" class="pin-label" font-size="8">4</text>
    <text x="200" y="190" class="pin-label" font-size="8">3</text>
    <text x="240" y="190" class="pin-label" font-size="8">2</text>
    <text x="270" y="190" class="pin-label" font-size="8">1</text>
    <text x="300" y="190" class="pin-label" font-size="8">0</text>
  </g>
  
  <!-- Timer Modes -->
  <g class="timer-modes">
    <text x="300" y="270" class="subtitle">Timer Operating Modes</text>
    
    <!-- Mode 0 -->
    <rect x="50" y="290" width="120" height="60" class="mode-box" />
    <text x="110" y="310" class="label">Mode 0</text>
    <text x="60" y="325" class="pin-label">• 13-bit timer</text>
    <text x="60" y="340" class="pin-label">• 8192 counts max</text>
    
    <!-- Mode 1 -->
    <rect x="190" y="290" width="120" height="60" class="mode-box" />
    <text x="250" y="310" class="label">Mode 1</text>
    <text x="200" y="325" class="pin-label">• 16-bit timer</text>
    <text x="200" y="340" class="pin-label">• 65536 counts max</text>
    
    <!-- Mode 2 -->
    <rect x="330" y="290" width="120" height="60" class="mode-box" />
    <text x="390" y="310" class="label">Mode 2</text>
    <text x="340" y="325" class="pin-label">• 8-bit auto-reload</text>
    <text x="340" y="340" class="pin-label">• Continuous operation</text>
    
    <!-- Mode 3 -->
    <rect x="470" y="290" width="120" height="60" class="config-box" />
    <text x="530" y="310" class="label">Mode 3</text>
    <text x="480" y="325" class="pin-label">• Split timer mode</text>
    <text x="480" y="340" class="pin-label">• Timer 0 only</text>
  </g>
  
  <!-- TCON Register -->
  <g class="tcon-register">
    <text x="150" y="380" class="subtitle">TCON Register (Timer Control)</text>
    
    <rect x="50" y="400" width="400" height="40" class="register-box" />
    
    <!-- Bit labels -->
    <text x="70" y="415" class="pin-label">TF1</text>
    <text x="110" y="415" class="pin-label">TR1</text>
    <text x="140" y="415" class="pin-label">TF0</text>
    <text x="170" y="415" class="pin-label">TR0</text>
    <text x="200" y="415" class="pin-label">IE1</text>
    <text x="240" y="415" class="pin-label">IT1</text>
    <text x="270" y="415" class="pin-label">IE0</text>
    <text x="300" y="415" class="pin-label">IT0</text>
    
    <!-- Bit numbers -->
    <text x="70" y="390" class="pin-label" font-size="8">7</text>
    <text x="110" y="390" class="pin-label" font-size="8">6</text>
    <text x="140" y="390" class="pin-label" font-size="8">5</text>
    <text x="170" y="390" class="pin-label" font-size="8">4</text>
    <text x="200" y="390" class="pin-label" font-size="8">3</text>
    <text x="240" y="390" class="pin-label" font-size="8">2</text>
    <text x="270" y="390" class="pin-label" font-size="8">1</text>
    <text x="300" y="390" class="pin-label" font-size="8">0</text>
  </g>
  
  <!-- Programming Example -->
  <g class="programming-example">
    <rect x="470" y="380" width="120" height="100" fill="#f0f8ff" stroke="#4682b4" stroke-width="2" />
    <text x="530" y="400" class="subtitle">Programming</text>
    
    <text x="480" y="420" class="pin-label">Timer 0 Mode 1:</text>
    <text x="480" y="435" class="pin-label">MOV TMOD,#01H</text>
    <text x="480" y="450" class="pin-label">MOV TH0,#HIGH</text>
    <text x="480" y="465" class="pin-label">MOV TL0,#LOW</text>
    <text x="480" y="480" class="pin-label">SETB TR0</text>
  </g>
</svg>
