<svg width="600" height="400" viewBox="0 0 600 400" xmlns="http://www.w3.org/2000/svg">
  <defs>
    <style>
      .title { font-family: Arial, sans-serif; font-size: 18px; font-weight: bold; text-anchor: middle; }
      .label { font-family: Arial, sans-serif; font-size: 12px; text-anchor: middle; }
      .pin-label { font-family: Arial, sans-serif; font-size: 10px; text-anchor: middle; }
      .processor-box { fill: #e8f4f8; stroke: #2c5aa0; stroke-width: 2; }
      .memory-box { fill: #f0e8ff; stroke: #6a0dad; stroke-width: 2; }
      .io-box { fill: #fff8dc; stroke: #b8860b; stroke-width: 2; }
      .bus-line { stroke: #333; stroke-width: 2; fill: none; }
      .data-flow { stroke: #ff6b6b; stroke-width: 2; fill: none; marker-end: url(#arrowhead); }
    </style>
    <marker id="arrowhead" markerWidth="10" markerHeight="7" 
            refX="9" refY="3.5" orient="auto">
      <polygon points="0 0, 10 3.5, 0 7" fill="#ff6b6b" />
    </marker>
  </defs>
  
  <!-- Title -->
  <text x="300" y="25" class="title">8085 System Bus Organization</text>
  
  <!-- 8085 Processor -->
  <rect x="50" y="50" width="120" height="100" class="processor-box" />
  <text x="110" y="75" class="label">8085</text>
  <text x="110" y="90" class="label">Microprocessor</text>
  
  <!-- Address Bus -->
  <text x="110" y="110" class="pin-label">A15-A0</text>
  <line x1="170" y1="105" x2="250" y2="105" class="bus-line" />
  <text x="210" y="95" class="pin-label">Address Bus (16-bit)</text>
  
  <!-- Data Bus -->
  <text x="110" y="125" class="pin-label">D7-D0</text>
  <line x1="170" y1="120" x2="250" y2="120" class="data-flow" />
  <text x="210" y="135" class="pin-label">Data Bus (8-bit)</text>
  
  <!-- Control Bus -->
  <text x="110" y="140" class="pin-label">Control</text>
  <line x1="170" y1="135" x2="250" y2="135" class="bus-line" />
  <text x="210" y="150" class="pin-label">Control Bus</text>
  
  <!-- Memory System -->
  <rect x="300" y="60" width="100" height="80" class="memory-box" />
  <text x="350" y="85" class="label">Memory</text>
  <text x="350" y="100" class="label">System</text>
  <text x="350" y="115" class="pin-label">ROM/RAM</text>
  
  <!-- I/O System -->
  <rect x="450" y="60" width="100" height="80" class="io-box" />
  <text x="500" y="85" class="label">I/O</text>
  <text x="500" y="100" class="label">Devices</text>
  <text x="500" y="115" class="pin-label">Ports</text>
  
  <!-- Bus connections to Memory -->
  <line x1="250" y1="105" x2="300" y2="105" class="bus-line" />
  <line x1="250" y1="120" x2="300" y2="120" class="data-flow" />
  <line x1="250" y1="135" x2="300" y2="135" class="bus-line" />
  
  <!-- Bus connections to I/O -->
  <line x1="400" y1="105" x2="450" y2="105" class="bus-line" />
  <line x1="400" y1="120" x2="450" y2="120" class="data-flow" />
  <line x1="400" y1="135" x2="450" y2="135" class="bus-line" />
  
  <!-- System Bus Labels -->
  <g class="bus-labels">
    <rect x="220" y="180" width="160" height="100" fill="none" stroke="#666" stroke-dasharray="5,5" />
    <text x="300" y="200" class="label">System Bus Structure</text>
    
    <!-- Address Bus Details -->
    <text x="240" y="220" class="pin-label">• Address Bus: 16 lines (A15-A0)</text>
    <text x="240" y="235" class="pin-label">• Data Bus: 8 lines (D7-D0)</text>
    <text x="240" y="250" class="pin-label">• Control Bus: Multiple lines</text>
    <text x="250" y="265" class="pin-label">- RD, WR, ALE, IO/M, etc.</text>
  </g>
  
  <!-- Control Signals Detail -->
  <g class="control-signals">
    <rect x="50" y="200" width="150" height="120" fill="#f9f9f9" stroke="#999" />
    <text x="125" y="220" class="label">Control Signals</text>
    
    <text x="60" y="240" class="pin-label">RD: Read Enable</text>
    <text x="60" y="255" class="pin-label">WR: Write Enable</text>
    <text x="60" y="270" class="pin-label">ALE: Address Latch Enable</text>
    <text x="60" y="285" class="pin-label">IO/M: I/O or Memory</text>
    <text x="60" y="300" class="pin-label">S0, S1: Status Signals</text>
  </g>
  
  <!-- Memory Address Range -->
  <g class="address-range">
    <rect x="420" y="200" width="130" height="80" fill="#f0f8ff" stroke="#4682b4" />
    <text x="485" y="220" class="label">Address Space</text>
    
    <text x="430" y="240" class="pin-label">Memory: 0000H-FFFFH</text>
    <text x="430" y="255" class="pin-label">I/O: 00H-FFH</text>
    <text x="430" y="270" class="pin-label">Total: 64KB + 256 Ports</text>
  </g>
</svg>
