<svg width="600" height="500" viewBox="0 0 600 500" xmlns="http://www.w3.org/2000/svg">
  <defs>
    <style>
      .title { font-family: Arial, sans-serif; font-size: 18px; font-weight: bold; text-anchor: middle; }
      .subtitle { font-family: Arial, sans-serif; font-size: 14px; font-weight: bold; text-anchor: middle; }
      .label { font-family: Arial, sans-serif; font-size: 12px; text-anchor: middle; }
      .pin-label { font-family: Arial, sans-serif; font-size: 10px; text-anchor: start; }
      .register-box { fill: #e6f3ff; stroke: #0066cc; stroke-width: 2; }
      .psw-box { fill: #ffe6e6; stroke: #cc0000; stroke-width: 2; }
      .pointer-box { fill: #fff8dc; stroke: #b8860b; stroke-width: 2; }
      .special-box { fill: #f0fff0; stroke: #009900; stroke-width: 2; }
      .bit-box { fill: #f5f5dc; stroke: #8b4513; stroke-width: 2; }
    </style>
  </defs>
  
  <!-- Title -->
  <text x="300" y="25" class="title">8051 Register Set and Organization</text>
  
  <!-- Accumulator and B Register -->
  <g class="main-registers">
    <text x="150" y="55" class="subtitle">Main Working Registers</text>
    
    <!-- Accumulator -->
    <rect x="50" y="70" width="120" height="50" class="register-box" />
    <text x="110" y="90" class="label">Accumulator (A)</text>
    <text x="110" y="105" class="pin-label">Address: E0H</text>
    <text x="110" y="115" class="pin-label">8-bit register</text>
    
    <!-- B Register -->
    <rect x="190" y="70" width="120" height="50" class="register-box" />
    <text x="250" y="90" class="label">B Register</text>
    <text x="250" y="105" class="pin-label">Address: F0H</text>
    <text x="250" y="115" class="pin-label">8-bit register</text>
  </g>
  
  <!-- Program Status Word -->
  <g class="psw-register">
    <text x="450" y="55" class="subtitle">Program Status Word</text>
    
    <rect x="350" y="70" width="200" height="50" class="psw-box" />
    <text x="450" y="90" class="label">PSW Register (D0H)</text>
    <text x="450" y="105" class="pin-label">CY AC F0 RS1 RS0 OV - P</text>
    <text x="450" y="115" class="pin-label">Bit-addressable</text>
  </g>
  
  <!-- Register Banks -->
  <g class="register-banks">
    <text x="200" y="150" class="subtitle">Register Banks (R0-R7)</text>
    
    <!-- Bank 0 -->
    <rect x="50" y="170" width="120" height="80" class="special-box" />
    <text x="110" y="190" class="label">Bank 0 (Default)</text>
    <text x="60" y="210" class="pin-label">R0: 00H  R1: 01H</text>
    <text x="60" y="225" class="pin-label">R2: 02H  R3: 03H</text>
    <text x="60" y="240" class="pin-label">R4: 04H  R5: 05H</text>
    <text x="60" y="255" class="pin-label">R6: 06H  R7: 07H</text>
    
    <!-- Bank 1 -->
    <rect x="190" y="170" width="120" height="80" class="register-box" />
    <text x="250" y="190" class="label">Bank 1</text>
    <text x="200" y="210" class="pin-label">R0: 08H  R1: 09H</text>
    <text x="200" y="225" class="pin-label">R2: 0AH  R3: 0BH</text>
    <text x="200" y="240" class="pin-label">R4: 0CH  R5: 0DH</text>
    <text x="200" y="255" class="pin-label">R6: 0EH  R7: 0FH</text>
    
    <!-- Bank 2 -->
    <rect x="330" y="170" width="120" height="80" class="pointer-box" />
    <text x="390" y="190" class="label">Bank 2</text>
    <text x="340" y="210" class="pin-label">R0: 10H  R1: 11H</text>
    <text x="340" y="225" class="pin-label">R2: 12H  R3: 13H</text>
    <text x="340" y="240" class="pin-label">R4: 14H  R5: 15H</text>
    <text x="340" y="255" class="pin-label">R6: 16H  R7: 17H</text>
    
    <!-- Bank 3 -->
    <rect x="470" y="170" width="120" height="80" class="bit-box" />
    <text x="530" y="190" class="label">Bank 3</text>
    <text x="480" y="210" class="pin-label">R0: 18H  R1: 19H</text>
    <text x="480" y="225" class="pin-label">R2: 1AH  R3: 1BH</text>
    <text x="480" y="240" class="pin-label">R4: 1CH  R5: 1DH</text>
    <text x="480" y="255" class="pin-label">R6: 1EH  R7: 1FH</text>
  </g>
  
  <!-- Special Function Registers -->
  <g class="special-registers">
    <text x="300" y="280" class="subtitle">Special Function Registers (SFRs)</text>
    
    <!-- Stack Pointer -->
    <rect x="50" y="300" width="120" height="50" class="pointer-box" />
    <text x="110" y="320" class="label">Stack Pointer (SP)</text>
    <text x="110" y="335" class="pin-label">Address: 81H</text>
    <text x="110" y="345" class="pin-label">Default: 07H</text>
    
    <!-- Data Pointer -->
    <rect x="190" y="300" width="120" height="50" class="register-box" />
    <text x="250" y="320" class="label">Data Pointer</text>
    <text x="250" y="335" class="pin-label">DPTR: 82H,83H</text>
    <text x="250" y="345" class="pin-label">16-bit pointer</text>
    
    <!-- Program Counter -->
    <rect x="330" y="300" width="120" height="50" class="special-box" />
    <text x="390" y="320" class="label">Program Counter</text>
    <text x="390" y="335" class="pin-label">PC (16-bit)</text>
    <text x="390" y="345" class="pin-label">Not directly accessible</text>
    
    <!-- Port Registers -->
    <rect x="470" y="300" width="120" height="50" class="bit-box" />
    <text x="530" y="320" class="label">Port Registers</text>
    <text x="530" y="335" class="pin-label">P0-P3: 80H,90H</text>
    <text x="530" y="345" class="pin-label">A0H,B0H</text>
  </g>
  
  <!-- PSW Flag Details -->
  <g class="flag-details">
    <text x="300" y="380" class="subtitle">PSW Flag Descriptions</text>
    
    <rect x="50" y="400" width="500" height="80" fill="#f8f8ff" stroke="#483d8b" stroke-width="2" />
    
    <text x="60" y="420" class="pin-label">CY: Carry flag | AC: Auxiliary carry | F0: User flag 0 | RS1,RS0: Register bank select</text>
    <text x="60" y="435" class="pin-label">OV: Overflow flag | P: Parity flag (even parity of accumulator)</text>
    <text x="60" y="450" class="pin-label">RS1 RS0: 00=Bank0, 01=Bank1, 10=Bank2, 11=Bank3</text>
    <text x="60" y="465" class="pin-label">Bank selection affects which physical registers R0-R7 point to</text>
  </g>
</svg>
