<svg width="600" height="450" viewBox="0 0 600 450" xmlns="http://www.w3.org/2000/svg">
  <defs>
    <style>
      .title { font-family: Arial, sans-serif; font-size: 18px; font-weight: bold; text-anchor: middle; }
      .subtitle { font-family: Arial, sans-serif; font-size: 14px; font-weight: bold; text-anchor: middle; }
      .label { font-family: Arial, sans-serif; font-size: 12px; text-anchor: middle; }
      .pin-label { font-family: Arial, sans-serif; font-size: 10px; text-anchor: start; }
      .processor-box { fill: #e8f4f8; stroke: #2c5aa0; stroke-width: 2; }
      .interface-box { fill: #fff8dc; stroke: #b8860b; stroke-width: 2; }
      .device-box { fill: #f0e8ff; stroke: #6a0dad; stroke-width: 2; }
      .control-box { fill: #ffe6e6; stroke: #cc0000; stroke-width: 2; }
      .bus-line { stroke: #333; stroke-width: 2; fill: none; }
      .control-line { stroke: #ff6b6b; stroke-width: 2; fill: none; }
    </style>
  </defs>
  
  <!-- Title -->
  <text x="300" y="25" class="title">8085 I/O Interfacing Techniques</text>
  
  <!-- 8085 Processor -->
  <rect x="50" y="60" width="100" height="120" class="processor-box" />
  <text x="100" y="85" class="label">8085</text>
  <text x="100" y="100" class="label">Processor</text>
  
  <!-- Control Signals -->
  <text x="60" y="120" class="pin-label">IO/M</text>
  <text x="60" y="135" class="pin-label">RD</text>
  <text x="60" y="150" class="pin-label">WR</text>
  <text x="60" y="165" class="pin-label">ALE</text>
  
  <!-- I/O Interface Types -->
  <g class="interface-types">
    <text x="350" y="55" class="subtitle">I/O Interfacing Methods</text>
    
    <!-- Memory Mapped I/O -->
    <rect x="200" y="80" width="150" height="80" class="interface-box" />
    <text x="275" y="105" class="label">Memory Mapped I/O</text>
    <text x="210" y="125" class="pin-label">• I/O devices treated as</text>
    <text x="210" y="140" class="pin-label">  memory locations</text>
    <text x="210" y="155" class="pin-label">• Uses entire 16-bit address</text>
    
    <!-- Isolated I/O -->
    <rect x="370" y="80" width="150" height="80" class="device-box" />
    <text x="445" y="105" class="label">Isolated I/O</text>
    <text x="380" y="125" class="pin-label">• Separate I/O address space</text>
    <text x="380" y="140" class="pin-label">• Uses IN/OUT instructions</text>
    <text x="380" y="155" class="pin-label">• 8-bit port addressing</text>
  </g>
  
  <!-- Address Decoding -->
  <g class="address-decoding">
    <text x="200" y="200" class="subtitle">Address Decoding Circuit</text>
    
    <!-- Address Decoder -->
    <rect x="200" y="220" width="100" height="60" class="control-box" />
    <text x="250" y="240" class="label">Address</text>
    <text x="250" y="255" class="label">Decoder</text>
    <text x="250" y="270" class="pin-label">74LS138</text>
    
    <!-- Input Ports -->
    <rect x="350" y="200" width="80" height="40" class="interface-box" />
    <text x="390" y="220" class="label">Input Port</text>
    <text x="390" y="235" class="pin-label">74LS244</text>
    
    <!-- Output Ports -->
    <rect x="350" y="250" width="80" height="40" class="interface-box" />
    <text x="390" y="270" class="label">Output Port</text>
    <text x="390" y="285" class="pin-label">74LS373</text>
    
    <!-- External Devices -->
    <rect x="460" y="200" width="80" height="90" class="device-box" />
    <text x="500" y="220" class="label">External</text>
    <text x="500" y="235" class="label">Devices</text>
    <text x="470" y="255" class="pin-label">• Keyboards</text>
    <text x="470" y="270" class="pin-label">• Displays</text>
    <text x="470" y="285" class="pin-label">• Sensors</text>
  </g>
  
  <!-- Signal Flow -->
  <line x1="150" y1="120" x2="200" y2="120" class="bus-line" />
  <line x1="150" y1="135" x2="200" y2="135" class="control-line" />
  <line x1="150" y1="150" x2="200" y2="150" class="control-line" />
  
  <line x1="300" y1="250" x2="350" y2="220" class="control-line" />
  <line x1="300" y1="250" x2="350" y2="270" class="control-line" />
  
  <line x1="430" y1="220" x2="460" y2="220" class="bus-line" />
  <line x1="430" y1="270" x2="460" y2="270" class="bus-line" />
  
  <!-- Control Signal Details -->
  <g class="control-signals">
    <text x="150" y="330" class="subtitle">Control Signal Functions</text>
    
    <rect x="50" y="350" width="500" height="80" fill="#f8f8ff" stroke="#483d8b" stroke-width="2" />
    
    <text x="60" y="370" class="pin-label">• IO/M = 1: I/O operation (Isolated I/O), IO/M = 0: Memory operation (Memory Mapped I/O)</text>
    <text x="60" y="385" class="pin-label">• RD = 0: Read operation from I/O device or memory</text>
    <text x="60" y="400" class="pin-label">• WR = 0: Write operation to I/O device or memory</text>
    <text x="60" y="415" class="pin-label">• ALE: Address Latch Enable for demultiplexing address/data bus</text>
  </g>
</svg>
