<svg width="600" height="500" viewBox="0 0 600 500" xmlns="http://www.w3.org/2000/svg">
  <defs>
    <style>
      .title { font-family: Arial, sans-serif; font-size: 18px; font-weight: bold; text-anchor: middle; }
      .subtitle { font-family: Arial, sans-serif; font-size: 14px; font-weight: bold; text-anchor: middle; }
      .label { font-family: Arial, sans-serif; font-size: 12px; text-anchor: middle; }
      .pin-label { font-family: Arial, sans-serif; font-size: 10px; text-anchor: start; }
      .serial-box { fill: #e6f3ff; stroke: #0066cc; stroke-width: 2; }
      .register-box { fill: #ffe6e6; stroke: #cc0000; stroke-width: 2; }
      .mode-box { fill: #fff8dc; stroke: #b8860b; stroke-width: 2; }
      .data-box { fill: #f0fff0; stroke: #009900; stroke-width: 2; }
      .signal-line { stroke: #333; stroke-width: 2; fill: none; }
      .data-flow { stroke: #ff6b6b; stroke-width: 2; fill: none; marker-end: url(#arrowhead); }
    </style>
    <marker id="arrowhead" markerWidth="10" markerHeight="7" 
            refX="9" refY="3.5" orient="auto">
      <polygon points="0 0, 10 3.5, 0 7" fill="#ff6b6b" />
    </marker>
  </defs>
  
  <!-- Title -->
  <text x="300" y="25" class="title">8051 Serial Communication Interface (UART)</text>
  
  <!-- Serial Port Overview -->
  <g class="serial-overview">
    <text x="150" y="55" class="subtitle">Serial Port Structure</text>
    
    <!-- UART Block -->
    <rect x="50" y="70" width="200" height="100" class="serial-box" />
    <text x="150" y="95" class="label">8051 Serial Port (UART)</text>
    <text x="60" y="115" class="pin-label">• Full duplex operation</text>
    <text x="60" y="130" class="pin-label">• Asynchronous communication</text>
    <text x="60" y="145" class="pin-label">• 4 operating modes</text>
    <text x="60" y="160" class="pin-label">• Built-in baud rate generator</text>
    
    <!-- Pin Connections -->
    <rect x="270" y="70" width="100" height="100" class="data-box" />
    <text x="320" y="95" class="label">Pin Connections</text>
    <text x="280" y="115" class="pin-label">TXD (P3.1)</text>
    <text x="280" y="130" class="pin-label">- Transmit Data</text>
    <text x="280" y="150" class="pin-label">RXD (P3.0)</text>
    <text x="280" y="165" class="pin-label">- Receive Data</text>
  </g>
  
  <!-- SCON Register -->
  <g class="scon-register">
    <text x="200" y="200" class="subtitle">SCON Register (Serial Control)</text>
    
    <rect x="50" y="220" width="400" height="40" class="register-box" />
    
    <!-- Bit labels -->
    <text x="70" y="235" class="pin-label">SM0</text>
    <text x="110" y="235" class="pin-label">SM1</text>
    <text x="140" y="235" class="pin-label">SM2</text>
    <text x="170" y="235" class="pin-label">REN</text>
    <text x="200" y="235" class="pin-label">TB8</text>
    <text x="240" y="235" class="pin-label">RB8</text>
    <text x="270" y="235" class="pin-label">TI</text>
    <text x="300" y="235" class="pin-label">RI</text>
    
    <!-- Bit numbers -->
    <text x="70" y="210" class="pin-label" font-size="8">7</text>
    <text x="110" y="210" class="pin-label" font-size="8">6</text>
    <text x="140" y="210" class="pin-label" font-size="8">5</text>
    <text x="170" y="210" class="pin-label" font-size="8">4</text>
    <text x="200" y="210" class="pin-label" font-size="8">3</text>
    <text x="240" y="210" class="pin-label" font-size="8">2</text>
    <text x="270" y="210" class="pin-label" font-size="8">1</text>
    <text x="300" y="210" class="pin-label" font-size="8">0</text>
    
    <!-- Bit descriptions -->
    <rect x="470" y="200" width="120" height="80" class="data-box" />
    <text x="530" y="220" class="label">Bit Functions</text>
    <text x="480" y="235" class="pin-label">SM0,SM1: Mode select</text>
    <text x="480" y="250" class="pin-label">REN: Receive enable</text>
    <text x="480" y="265" class="pin-label">TI: Transmit interrupt</text>
    <text x="480" y="280" class="pin-label">RI: Receive interrupt</text>
  </g>
  
  <!-- Serial Modes -->
  <g class="serial-modes">
    <text x="300" y="310" class="subtitle">Serial Communication Modes</text>
    
    <!-- Mode 0 -->
    <rect x="50" y="330" width="120" height="80" class="mode-box" />
    <text x="110" y="350" class="label">Mode 0</text>
    <text x="60" y="370" class="pin-label">• Shift register mode</text>
    <text x="60" y="385" class="pin-label">• Synchronous</text>
    <text x="60" y="400" class="pin-label">• 8-bit data</text>
    
    <!-- Mode 1 -->
    <rect x="190" y="330" width="120" height="80" class="mode-box" />
    <text x="250" y="350" class="label">Mode 1</text>
    <text x="200" y="370" class="pin-label">• 8-bit UART</text>
    <text x="200" y="385" class="pin-label">• Variable baud rate</text>
    <text x="200" y="400" class="pin-label">• Start/Stop bits</text>
    
    <!-- Mode 2 -->
    <rect x="330" y="330" width="120" height="80" class="mode-box" />
    <text x="390" y="350" class="label">Mode 2</text>
    <text x="340" y="370" class="pin-label">• 9-bit UART</text>
    <text x="340" y="385" class="pin-label">• Fixed baud rate</text>
    <text x="340" y="400" class="pin-label">• Fosc/32 or Fosc/64</text>
    
    <!-- Mode 3 -->
    <rect x="470" y="330" width="120" height="80" class="mode-box" />
    <text x="530" y="350" class="label">Mode 3</text>
    <text x="480" y="370" class="pin-label">• 9-bit UART</text>
    <text x="480" y="385" class="pin-label">• Variable baud rate</text>
    <text x="480" y="400" class="pin-label">• Timer 1 controlled</text>
  </g>
  
  <!-- SBUF Register and Data Flow -->
  <g class="data-registers">
    <text x="150" y="440" class="subtitle">Data Registers</text>
    
    <rect x="50" y="455" width="100" height="30" class="register-box" />
    <text x="100" y="475" class="label">SBUF (Transmit)</text>
    
    <rect x="170" y="455" width="100" height="30" class="register-box" />
    <text x="220" y="475" class="label">SBUF (Receive)</text>
    
    <text x="300" y="470" class="pin-label">Same address (99H) but different registers</text>
  </g>
  
  <!-- Programming Example -->
  <g class="programming-example">
    <rect x="400" y="440" width="180" height="50" fill="#f0f8ff" stroke="#4682b4" stroke-width="2" />
    <text x="490" y="460" class="subtitle">Mode 1 Setup</text>
    
    <text x="410" y="475" class="pin-label">MOV SCON,#50H ; Mode 1, REN=1</text>
  </g>
</svg>
