<svg width="600" height="500" viewBox="0 0 600 500" xmlns="http://www.w3.org/2000/svg">
  <defs>
    <style>
      .title { font-family: Arial, sans-serif; font-size: 18px; font-weight: bold; text-anchor: middle; }
      .subtitle { font-family: Arial, sans-serif; font-size: 14px; font-weight: bold; text-anchor: middle; }
      .label { font-family: Arial, sans-serif; font-size: 12px; text-anchor: middle; }
      .pin-label { font-family: Arial, sans-serif; font-size: 10px; text-anchor: start; }
      .timing-box { fill: #e6f3ff; stroke: #0066cc; stroke-width: 2; }
      .signal-box { fill: #ffe6e6; stroke: #cc0000; stroke-width: 2; }
      .phase-box { fill: #fff8dc; stroke: #b8860b; stroke-width: 2; }
      .clock-box { fill: #f0fff0; stroke: #009900; stroke-width: 2; }
      .signal-line { stroke: #333; stroke-width: 2; fill: none; }
      .high-signal { stroke: #006600; stroke-width: 3; fill: none; }
      .low-signal { stroke: #cc0000; stroke-width: 3; fill: none; }
    </style>
  </defs>
  
  <!-- Title -->
  <text x="300" y="25" class="title">8085 Instruction Execution Timing Diagram</text>
  
  <!-- Timing States -->
  <g class="timing-states">
    <text x="300" y="55" class="subtitle">Machine Cycle Timing States</text>
    
    <!-- State Labels -->
    <text x="80" y="80" class="label">T1</text>
    <text x="140" y="80" class="label">T2</text>
    <text x="200" y="80" class="label">T3</text>
    <text x="260" y="80" class="label">T4</text>
    <text x="320" y="80" class="label">T5</text>
    <text x="380" y="80" class="label">T6</text>
    
    <!-- Time scale -->
    <line x1="50" y1="85" x2="420" y2="85" class="signal-line" />
    <text x="450" y="85" class="pin-label">Time →</text>
  </g>
  
  <!-- Clock Signal -->
  <g class="clock-signal">
    <text x="30" y="120" class="pin-label">CLK:</text>
    <path d="M 60 130 L 80 130 L 80 110 L 120 110 L 120 130 L 140 130 L 140 110 L 180 110 L 180 130 L 200 130 L 200 110 L 240 110 L 240 130 L 260 130 L 260 110 L 300 110 L 300 130 L 320 130 L 320 110 L 360 110 L 360 130 L 380 130 L 380 110 L 420 110" class="high-signal" />
  </g>
  
  <!-- Address Bus -->
  <g class="address-bus">
    <text x="30" y="160" class="pin-label">A15-A8:</text>
    <rect x="80" y="155" width="340" height="10" fill="#ffcccc" stroke="#cc0000" />
    <text x="250" y="163" class="pin-label" font-size="8">STABLE ADDRESS</text>
  </g>
  
  <!-- AD7-AD0 (Multiplexed) -->
  <g class="multiplexed-bus">
    <text x="30" y="190" class="pin-label">AD7-AD0:</text>
    <rect x="80" y="185" width="60" height="10" fill="#ffcccc" stroke="#cc0000" />
    <text x="110" y="193" class="pin-label" font-size="8">ADDR</text>
    <rect x="140" y="185" width="280" height="10" fill="#ccffcc" stroke="#00cc00" />
    <text x="280" y="193" class="pin-label" font-size="8">DATA</text>
  </g>
  
  <!-- ALE Signal -->
  <g class="ale-signal">
    <text x="30" y="220" class="pin-label">ALE:</text>
    <path d="M 60 225 L 80 225 L 80 205 L 130 205 L 130 225 L 420 225" class="high-signal" />
    <text x="105" y="215" class="pin-label" font-size="8">HIGH</text>
  </g>
  
  <!-- RD Signal -->
  <g class="rd-signal">
    <text x="30" y="250" class="pin-label">RD:</text>
    <path d="M 60 245 L 140 245 L 140 225 L 340 225 L 340 245 L 420 245" class="low-signal" />
    <text x="240" y="235" class="pin-label" font-size="8">ACTIVE LOW</text>
  </g>
  
  <!-- WR Signal -->
  <g class="wr-signal">
    <text x="30" y="280" class="pin-label">WR:</text>
    <path d="M 60 285 L 420 285" class="signal-line" />
    <text x="240" y="295" class="pin-label" font-size="8">INACTIVE (HIGH)</text>
  </g>
  
  <!-- IO/M Signal -->
  <g class="iom-signal">
    <text x="30" y="310" class="pin-label">IO/M:</text>
    <path d="M 60 305 L 420 305" class="low-signal" />
    <text x="240" y="295" class="pin-label" font-size="8">MEMORY OPERATION (LOW)</text>
  </g>
  
  <!-- Instruction Phases -->
  <g class="instruction-phases">
    <text x="300" y="350" class="subtitle">Instruction Execution Phases</text>
    
    <!-- Opcode Fetch -->
    <rect x="50" y="370" width="150" height="60" class="timing-box" />
    <text x="125" y="390" class="label">Opcode Fetch</text>
    <text x="60" y="410" class="pin-label">• T1-T4: Fetch instruction</text>
    <text x="60" y="425" class="pin-label">• Address on bus in T1</text>
    
    <!-- Memory Read -->
    <rect x="220" y="370" width="150" height="60" class="signal-box" />
    <text x="295" y="390" class="label">Memory Read</text>
    <text x="230" y="410" class="pin-label">• T2-T3: RD active</text>
    <text x="230" y="425" class="pin-label">• Data available in T3</text>
    
    <!-- Instruction Decode -->
    <rect x="390" y="370" width="150" height="60" class="phase-box" />
    <text x="465" y="390" class="label">Decode &amp; Execute</text>
    <text x="400" y="410" class="pin-label">• T4+: Instruction decode</text>
    <text x="400" y="425" class="pin-label">• Execute operation</text>
  </g>
  
  <!-- Timing Notes -->
  <g class="timing-notes">
    <rect x="50" y="450" width="500" height="40" fill="#f8f8ff" stroke="#483d8b" stroke-width="2" />
    <text x="300" y="470" class="subtitle">Timing Characteristics</text>
    <text x="60" y="485" class="pin-label">• Clock frequency: Up to 3 MHz (8085), 5 MHz (8085A), 6 MHz (8085AH) • Each T-state = 1 clock period</text>
  </g>
</svg>
