<svg width="600" height="500" viewBox="0 0 600 500" xmlns="http://www.w3.org/2000/svg">
  <defs>
    <style>
      .title { font-family: Arial, sans-serif; font-size: 18px; font-weight: bold; text-anchor: middle; }
      .subtitle { font-family: Arial, sans-serif; font-size: 14px; font-weight: bold; text-anchor: middle; }
      .label { font-family: Arial, sans-serif; font-size: 12px; text-anchor: middle; }
      .pin-label { font-family: Arial, sans-serif; font-size: 10px; text-anchor: start; }
      .memory-block { fill: #e6f3ff; stroke: #0066cc; stroke-width: 2; }
      .stack-block { fill: #fff2e6; stroke: #ff6600; stroke-width: 2; }
      .program-block { fill: #e6ffe6; stroke: #009900; stroke-width: 2; }
      .address-line { stroke: #666; stroke-width: 1; fill: none; }
      .pointer-arrow { stroke: #ff0000; stroke-width: 2; fill: none; marker-end: url(#arrowhead); }
    </style>
    <marker id="arrowhead" markerWidth="10" markerHeight="7" 
            refX="9" refY="3.5" orient="auto">
      <polygon points="0 0, 10 3.5, 0 7" fill="#ff0000" />
    </marker>
  </defs>
  
  <!-- Title -->
  <text x="300" y="25" class="title">8085 Memory Organization and Stack Operation</text>
  
  <!-- Memory Map -->
  <g class="memory-map">
    <text x="150" y="55" class="subtitle">Memory Map</text>
    
    <!-- High Memory (System/ROM) -->
    <rect x="50" y="70" width="200" height="40" class="memory-block" />
    <text x="150" y="85" class="label">System ROM</text>
    <text x="150" y="100" class="pin-label">FFFFH</text>
    
    <!-- User Memory Area -->
    <rect x="50" y="120" width="200" height="80" class="program-block" />
    <text x="150" y="140" class="label">User Program Area</text>
    <text x="150" y="155" class="pin-label">Available for</text>
    <text x="150" y="170" class="pin-label">User Programs</text>
    <text x="150" y="185" class="pin-label">8000H-DFFFH</text>
    
    <!-- Stack Area -->
    <rect x="50" y="210" width="200" height="60" class="stack-block" />
    <text x="150" y="230" class="label">Stack Area</text>
    <text x="150" y="245" class="pin-label">LIFO Operation</text>
    <text x="150" y="260" class="pin-label">6000H-7FFFH</text>
    
    <!-- RAM Area -->
    <rect x="50" y="280" width="200" height="60" class="memory-block" />
    <text x="150" y="300" class="label">RAM Area</text>
    <text x="150" y="315" class="pin-label">Data Storage</text>
    <text x="150" y="330" class="pin-label">2000H-5FFFH</text>
    
    <!-- Low Memory -->
    <rect x="50" y="350" width="200" height="40" class="memory-block" />
    <text x="150" y="365" class="label">Monitor ROM</text>
    <text x="150" y="380" class="pin-label">0000H-1FFFH</text>
    
    <!-- Address Lines -->
    <line x1="30" y1="70" x2="30" y2="390" class="address-line" />
    <text x="20" y="75" class="pin-label" text-anchor="middle">FFFFH</text>
    <text x="20" y="395" class="pin-label" text-anchor="middle">0000H</text>
  </g>
  
  <!-- Stack Operation Detail -->
  <g class="stack-detail">
    <text x="450" y="55" class="subtitle">Stack Operations</text>
    
    <!-- Stack Pointer -->
    <rect x="350" y="70" width="80" height="30" fill="#ffeeee" stroke="#cc0000" stroke-width="2" />
    <text x="390" y="85" class="label">SP Register</text>
    <text x="390" y="95" class="pin-label">Stack Pointer</text>
    
    <!-- Stack Memory Representation -->
    <g class="stack-memory">
      <rect x="350" y="120" width="80" height="25" class="stack-block" />
      <text x="390" y="135" class="pin-label">Top of Stack</text>
      
      <rect x="350" y="145" width="80" height="25" fill="#fff8dc" stroke="#ddd" />
      <text x="390" y="160" class="pin-label">Data n-1</text>
      
      <rect x="350" y="170" width="80" height="25" fill="#fff8dc" stroke="#ddd" />
      <text x="390" y="185" class="pin-label">Data n-2</text>
      
      <rect x="350" y="195" width="80" height="25" fill="#fff8dc" stroke="#ddd" />
      <text x="390" y="210" class="pin-label">Data n-3</text>
      
      <!-- Stack Pointer Arrow -->
      <line x1="440" y1="85" x2="440" y2="132" class="pointer-arrow" />
      <text x="450" y="110" class="pin-label">Points to TOS</text>
    </g>
    
    <!-- PUSH Operation -->
    <g class="push-operation">
      <rect x="460" y="120" width="120" height="100" fill="#f0fff0" stroke="#90ee90" stroke-width="2" />
      <text x="520" y="140" class="subtitle">PUSH Operation</text>
      
      <text x="470" y="160" class="pin-label">1. SP = SP - 1</text>
      <text x="470" y="175" class="pin-label">2. Store data at [SP]</text>
      <text x="470" y="190" class="pin-label">3. Data on stack</text>
      
      <text x="520" y="210" class="pin-label">Example: PUSH B</text>
    </g>
    
    <!-- POP Operation -->
    <g class="pop-operation">
      <rect x="460" y="240" width="120" height="100" fill="#fff0f0" stroke="#ffb6c1" stroke-width="2" />
      <text x="520" y="260" class="subtitle">POP Operation</text>
      
      <text x="470" y="280" class="pin-label">1. Load data from [SP]</text>
      <text x="470" y="295" class="pin-label">2. SP = SP + 1</text>
      <text x="470" y="310" class="pin-label">3. Data restored</text>
      
      <text x="520" y="330" class="pin-label">Example: POP B</text>
    </g>
  </g>
  
  <!-- Stack Initialization -->
  <g class="stack-init">
    <rect x="50" y="420" width="500" height="60" fill="#f8f8ff" stroke="#483d8b" stroke-width="2" />
    <text x="300" y="440" class="subtitle">Stack Initialization</text>
    
    <text x="60" y="460" class="pin-label">• Initialize SP to highest stack address (e.g., LXI SP, 7FFFH)</text>
    <text x="60" y="475" class="pin-label">• Stack grows downward (toward lower addresses)</text>
  </g>
</svg>
