<?xml version="1.0" encoding="UTF-8"?>
<svg xmlns="http://www.w3.org/2000/svg" viewBox="0 0 1400 1400">
  <defs>
    <style>
      .title { font: bold 24px Arial; text-anchor: middle; fill: #2c3e50; }
      .subtitle { font: bold 18px Arial; text-anchor: middle; fill: #34495e; }
      .label { font: 14px Arial; text-anchor: middle; fill: #2c3e50; }
      .formula { font: 12px Arial; text-anchor: middle; fill: #e74c3c; }
      .text { font: 11px Arial; fill: #2c3e50; }
      .circuit { stroke: #2c3e50; stroke-width: 2; fill: none; }
      .component { stroke: #2c3e50; stroke-width: 2; fill: white; }
      .wheatstone { stroke: #3498db; stroke-width: 2; fill: #e8f4fd; }
      .maxwell { stroke: #27ae60; stroke-width: 2; fill: #e8f6f3; }
      .schering { stroke: #e67e22; stroke-width: 2; fill: #fdf2e9; }
      .q-meter { stroke: #9b59b6; stroke-width: 2; fill: #f4f6ff; }
      .kelvin { stroke: #e74c3c; stroke-width: 2; fill: #fff5f5; }
      .wien { stroke: #f39c12; stroke-width: 2; fill: #fffef7; }
      .resistor { stroke: #2c3e50; stroke-width: 2; fill: white; }
      .inductor { stroke: #27ae60; stroke-width: 2; fill: none; }
      .capacitor { stroke: #3498db; stroke-width: 2; fill: none; }
    </style>
    <marker id="arrow" markerWidth="10" markerHeight="7" refX="9" refY="3.5" orient="auto">
      <polygon points="0 0, 10 3.5, 0 7" fill="#2c3e50"/>
    </marker>
  </defs>

  <!-- Title -->
  <text x="700" y="30" class="title">Individual Bridge Circuits - Detailed Analysis</text>
  <text x="700" y="55" class="subtitle">Wheatstone, Maxwell, Schering, Q-meter, Kelvin, and Wien Bridge</text>

  <!-- Wheatstone Bridge -->
  <g transform="translate(50, 80)">
    <text x="200" y="20" class="subtitle">Wheatstone Bridge</text>

    <!-- Bridge Circuit -->
    <g transform="translate(20, 40)">
      <text x="150" y="15" class="label">Wheatstone Bridge Circuit</text>

      <rect x="0" y="25" width="300" height="200" class="wheatstone"/>

      <!-- Bridge structure -->
      <g transform="translate(50, 50)">
        <!-- Resistors -->
        <rect x="50" y="20" width="40" height="15" class="resistor"/>
        <text x="70" y="18" class="text">R1</text>

        <rect x="135" y="50" width="15" height="40" class="resistor"/>
        <text x="160" y="70" class="text">R2</text>

        <rect x="50" y="105" width="40" height="15" class="resistor"/>
        <text x="70" y="138" class="text">R3</text>

        <rect x="5" y="50" width="15" height="40" class="resistor"/>
        <text x="-10" y="70" class="text">Rx</text>

        <!-- Connections -->
        <line x1="50" y1="27" x2="20" y2="27" stroke="#2c3e50" stroke-width="2"/>
        <line x1="20" y1="27" x2="20" y2="50" stroke="#2c3e50" stroke-width="2"/>
        <line x1="90" y1="27" x2="135" y2="27" stroke="#2c3e50" stroke-width="2"/>
        <line x1="135" y1="27" x2="135" y2="50" stroke="#2c3e50" stroke-width="2"/>
        <line x1="50" y1="112" x2="20" y2="112" stroke="#2c3e50" stroke-width="2"/>
        <line x1="20" y1="90" x2="20" y2="112" stroke="#2c3e50" stroke-width="2"/>
        <line x1="90" y1="112" x2="135" y2="112" stroke="#2c3e50" stroke-width="2"/>
        <line x1="135" y1="90" x2="135" y2="112" stroke="#2c3e50" stroke-width="2"/>

        <!-- Galvanometer -->
        <circle cx="77" cy="70" r="15" class="component"/>
        <text x="77" y="75" class="text">G</text>
        <line x1="70" y1="35" x2="70" y2="55" stroke="#2c3e50" stroke-width="2"/>
        <line x1="70" y1="85" x2="70" y2="105" stroke="#2c3e50" stroke-width="2"/>

        <!-- Supply voltage -->
        <line x1="77" y1="15" x2="77" y2="27" stroke="#2c3e50" stroke-width="2"/>
        <line x1="77" y1="112" x2="77" y2="125" stroke="#2c3e50" stroke-width="2"/>
        <text x="85" y="20" class="text">+V</text>
        <text x="85" y="135" class="text">-V</text>
      </g>

      <!-- Balance Condition -->
      <g transform="translate(0, 180)">
        <text x="150" y="15" class="formula">Balance Condition (G = 0):</text>
        <text x="150" y="35" class="formula">Rx/R3 = R1/R2</text>
        <text x="150" y="55" class="formula">Therefore: Rx = R3 × (R1/R2)</text>
      </g>
    </g>

    <!-- Applications -->
    <g transform="translate(350, 40)">
      <text x="120" y="15" class="label">Applications &amp; Features</text>

      <rect x="0" y="25" width="240" height="200" fill="#e8f4fd" stroke="#3498db"/>
      <text x="10" y="45" class="formula">Applications:</text>
      <text x="10" y="60" class="text">• Resistance measurement</text>
      <text x="10" y="75" class="text">• Strain gauge circuits</text>
      <text x="10" y="90" class="text">• Temperature measurement (RTD)</text>
      <text x="10" y="105" class="text">• Bridge transducers</text>

      <text x="10" y="125" class="formula">Advantages:</text>
      <text x="10" y="140" class="text">• High accuracy</text>
      <text x="10" y="155" class="text">• Simple construction</text>
      <text x="10" y="170" class="text">• No loading effects at balance</text>

      <text x="10" y="190" class="formula">Range: 1Ω to 100MΩ</text>
      <text x="10" y="205" class="formula">Accuracy: ±0.1% to ±5%</text>
    </g>
  </g>

  <!-- Maxwell Bridge -->
  <g transform="translate(50, 340)">
    <text x="200" y="20" class="subtitle">Maxwell Bridge (Inductance)</text>

    <!-- Bridge Circuit -->
    <g transform="translate(20, 40)">
      <text x="150" y="15" class="label">Maxwell Bridge Circuit</text>

      <rect x="0" y="25" width="300" height="200" class="maxwell"/>

      <!-- Bridge structure -->
      <g transform="translate(50, 50)">
        <!-- Components -->
        <!-- L and R in series (unknown) -->
        <rect x="5" y="50" width="15" height="15" class="resistor"/>
        <g transform="translate(5, 75)">
          <path d="M0,0 Q5,0 5,5 Q5,10 10,10 Q15,10 15,5 Q15,0 20,0" class="inductor"/>
        </g>
        <text x="-15" y="65" class="text">Rx</text>
        <text x="-15" y="85" class="text">Lx</text>

        <!-- R1 -->
        <rect x="50" y="20" width="40" height="15" class="resistor"/>
        <text x="70" y="18" class="text">R1</text>

        <!-- R2 -->
        <rect x="135" y="50" width="15" height="40" class="resistor"/>
        <text x="160" y="70" class="text">R2</text>

        <!-- R3 and C in parallel -->
        <rect x="50" y="105" width="40" height="15" class="resistor"/>
        <text x="70" y="138" class="text">R3</text>
        <g transform="translate(50, 85)">
          <line x1="0" y1="0" x2="5" y2="0" class="capacitor"/>
          <line x1="5" y1="-3" x2="5" y2="3" class="capacitor"/>
          <line x1="8" y1="-3" x2="8" y2="3" class="capacitor"/>
          <line x1="8" y1="0" x2="13" y2="0" class="capacitor"/>
          <line x1="13" y1="0" x2="40" y2="0" class="capacitor"/>
        </g>
        <text x="70" y="82" class="text">C</text>

        <!-- Connections -->
        <line x1="50" y1="27" x2="20" y2="27" stroke="#2c3e50" stroke-width="2"/>
        <line x1="20" y1="27" x2="20" y2="50" stroke="#2c3e50" stroke-width="2"/>
        <line x1="90" y1="27" x2="135" y2="27" stroke="#2c3e50" stroke-width="2"/>
        <line x1="135" y1="27" x2="135" y2="50" stroke="#2c3e50" stroke-width="2"/>
        <line x1="50" y1="112" x2="20" y2="112" stroke="#2c3e50" stroke-width="2"/>
        <line x1="20" y1="90" x2="20" y2="112" stroke="#2c3e50" stroke-width="2"/>
        <line x1="90" y1="112" x2="135" y2="112" stroke="#2c3e50" stroke-width="2"/>
        <line x1="135" y1="90" x2="135" y2="112" stroke="#2c3e50" stroke-width="2"/>

        <!-- Detector -->
        <circle cx="77" cy="70" r="15" class="component"/>
        <text x="77" y="75" class="text">D</text>
        <line x1="70" y1="35" x2="70" y2="55" stroke="#2c3e50" stroke-width="2"/>
        <line x1="70" y1="85" x2="70" y2="105" stroke="#2c3e50" stroke-width="2"/>

        <!-- AC Supply -->
        <circle cx="77" cy="15" r="8" class="component"/>
        <text x="77" y="19" class="text">~</text>
        <line x1="77" y1="23" x2="77" y2="27" stroke="#2c3e50" stroke-width="2"/>
        <line x1="77" y1="112" x2="77" y2="125" stroke="#2c3e50" stroke-width="2"/>
      </g>

      <!-- Balance Equations -->
      <g transform="translate(0, 180)">
        <text x="150" y="15" class="formula">Balance Conditions:</text>
        <text x="150" y="35" class="formula">Lx = R1 × R2 × C</text>
        <text x="150" y="55" class="formula">Rx = (R1 × R2) / R3</text>
      </g>
    </g>

    <!-- Applications -->
    <g transform="translate(350, 40)">
      <text x="120" y="15" class="label">Maxwell Bridge Features</text>

      <rect x="0" y="25" width="240" height="200" fill="#e8f6f3" stroke="#27ae60"/>
      <text x="10" y="45" class="formula">Measures:</text>
      <text x="10" y="60" class="text">• Inductance (L)</text>
      <text x="10" y="75" class="text">• Resistance of inductor (R)</text>
      <text x="10" y="90" class="text">• Q factor: Q = ωL/R</text>

      <text x="10" y="110" class="formula">Advantages:</text>
      <text x="10" y="125" class="text">• Independent balance conditions</text>
      <text x="10" y="140" class="text">• Suitable for medium Q inductors</text>
      <text x="10" y="155" class="text">• Commercial standard capacitors</text>

      <text x="10" y="175" class="formula">Limitations:</text>
      <text x="10" y="190" class="text">• Poor for high Q inductors</text>
      <text x="10" y="205" class="text">• Frequency dependent</text>
    </g>
  </g>

  <!-- Schering Bridge -->
  <g transform="translate(50, 580)">
    <text x="200" y="20" class="subtitle">Schering Bridge (Capacitance)</text>

    <!-- Bridge Circuit -->
    <g transform="translate(20, 40)">
      <text x="150" y="15" class="label">Schering Bridge Circuit</text>

      <rect x="0" y="25" width="300" height="200" class="schering"/>

      <!-- Bridge structure -->
      <g transform="translate(50, 50)">
        <!-- Components -->
        <!-- Cx and Rx in series (unknown capacitor) -->
        <rect x="5" y="50" width="15" height="15" class="resistor"/>
        <g transform="translate(5, 75)">
          <line x1="0" y1="0" x2="5" y2="0" class="capacitor"/>
          <line x1="5" y1="-5" x2="5" y2="5" class="capacitor"/>
          <line x1="10" y1="-5" x2="10" y2="5" class="capacitor"/>
          <line x1="10" y1="0" x2="15" y2="0" class="capacitor"/>
        </g>
        <text x="-15" y="65" class="text">Rx</text>
        <text x="-15" y="95" class="text">Cx</text>

        <!-- R1 -->
        <rect x="50" y="20" width="40" height="15" class="resistor"/>
        <text x="70" y="18" class="text">R1</text>

        <!-- C2 -->
        <g transform="translate(135, 50)">
          <line x1="0" y1="0" x2="5" y2="0" class="capacitor"/>
          <line x1="5" y1="-5" x2="5" y2="5" class="capacitor"/>
          <line x1="10" y1="-5" x2="10" y2="5" class="capacitor"/>
          <line x1="10" y1="0" x2="15" y2="0" class="capacitor"/>
          <line x1="0" y1="0" x2="0" y2="40" class="capacitor"/>
          <line x1="15" y1="0" x2="15" y2="40" class="capacitor"/>
        </g>
        <text x="160" y="70" class="text">C2</text>

        <!-- R3 and C3 in parallel -->
        <rect x="50" y="105" width="40" height="15" class="resistor"/>
        <text x="70" y="138" class="text">R3</text>
        <g transform="translate(50, 85)">
          <line x1="0" y1="0" x2="5" y2="0" class="capacitor"/>
          <line x1="5" y1="-3" x2="5" y2="3" class="capacitor"/>
          <line x1="8" y1="-3" x2="8" y2="3" class="capacitor"/>
          <line x1="8" y1="0" x2="13" y2="0" class="capacitor"/>
          <line x1="13" y1="0" x2="40" y2="0" class="capacitor"/>
        </g>
        <text x="70" y="82" class="text">C3</text>

        <!-- Connections -->
        <line x1="50" y1="27" x2="20" y2="27" stroke="#2c3e50" stroke-width="2"/>
        <line x1="20" y1="27" x2="20" y2="50" stroke="#2c3e50" stroke-width="2"/>
        <line x1="90" y1="27" x2="135" y2="27" stroke="#2c3e50" stroke-width="2"/>
        <line x1="135" y1="27" x2="135" y2="50" stroke="#2c3e50" stroke-width="2"/>
        <line x1="50" y1="112" x2="20" y2="112" stroke="#2c3e50" stroke-width="2"/>
        <line x1="20" y1="90" x2="20" y2="112" stroke="#2c3e50" stroke-width="2"/>
        <line x1="90" y1="112" x2="135" y2="112" stroke="#2c3e50" stroke-width="2"/>
        <line x1="150" y1="90" x2="150" y2="112" stroke="#2c3e50" stroke-width="2"/>

        <!-- Detector -->
        <circle cx="77" cy="70" r="15" class="component"/>
        <text x="77" y="75" class="text">D</text>
        <line x1="70" y1="35" x2="70" y2="55" stroke="#2c3e50" stroke-width="2"/>
        <line x1="70" y1="85" x2="70" y2="105" stroke="#2c3e50" stroke-width="2"/>

        <!-- AC Supply -->
        <circle cx="77" cy="15" r="8" class="component"/>
        <text x="77" y="19" class="text">~</text>
        <line x1="77" y1="23" x2="77" y2="27" stroke="#2c3e50" stroke-width="2"/>
        <line x1="77" y1="112" x2="77" y2="125" stroke="#2c3e50" stroke-width="2"/>
      </g>

      <!-- Balance Equations -->
      <g transform="translate(0, 180)">
        <text x="150" y="15" class="formula">Balance Conditions:</text>
        <text x="150" y="35" class="formula">Cx = (C2 × R3) / R1</text>
        <text x="150" y="55" class="formula">Rx = (R1 × C3) / C2</text>
      </g>
    </g>

    <!-- Applications -->
    <g transform="translate(350, 40)">
      <text x="120" y="15" class="label">Schering Bridge Features</text>

      <rect x="0" y="25" width="240" height="200" fill="#fdf2e9" stroke="#e67e22"/>
      <text x="10" y="45" class="formula">Measures:</text>
      <text x="10" y="60" class="text">• Capacitance (Cx)</text>
      <text x="10" y="75" class="text">• Loss resistance (Rx)</text>
      <text x="10" y="90" class="text">• Loss factor: tan δ = ωRxCx</text>
      <text x="10" y="105" class="text">• Power factor of capacitor</text>

      <text x="10" y="125" class="formula">Applications:</text>
      <text x="10" y="140" class="text">• Cable testing</text>
      <text x="10" y="155" class="text">• Insulation measurements</text>
      <text x="10" y="170" class="text">• High voltage capacitor testing</text>

      <text x="10" y="190" class="formula">Range:</text>
      <text x="10" y="205" class="text">pF to μF capacitance range</text>
    </g>
  </g>

  <!-- Q-Meter and Kelvin Bridge -->
  <g transform="translate(50, 820)">
    <text x="300" y="20" class="subtitle">Q-Meter Bridge and Kelvin Double Bridge</text>

    <!-- Q-Meter -->
    <g transform="translate(20, 40)">
      <text x="120" y="15" class="label">Q-Meter Bridge</text>

      <rect x="0" y="25" width="240" height="160" class="q-meter"/>

      <g transform="translate(20, 50)">
        <!-- Series resonant circuit -->
        <rect x="20" y="20" width="20" height="10" class="resistor"/>
        <text x="30" y="18" class="text">R</text>

        <g transform="translate(50, 20)">
          <path d="M0,5 Q5,5 5,10 Q5,15 10,15 Q15,15 15,10 Q15,5 20,5" class="inductor"/>
        </g>
        <text x="60" y="18" class="text">L</text>

        <g transform="translate(80, 20)">
          <line x1="0" y1="5" x2="5" y2="5" class="capacitor"/>
          <line x1="5" y1="2" x2="5" y2="8" class="capacitor"/>
          <line x1="10" y1="2" x2="10" y2="8" class="capacitor"/>
          <line x1="10" y1="5" x2="15" y2="5" class="capacitor"/>
        </g>
        <text x="87" y="18" class="text">C</text>

        <!-- Voltmeter -->
        <circle cx="30" cy="50" r="15" class="component"/>
        <text x="30" y="55" class="text">V</text>

        <!-- RF Generator -->
        <circle cx="120" cy="50" r="15" class="component"/>
        <text x="120" y="55" class="text">RF</text>

        <!-- Connections -->
        <line x1="20" y1="25" x2="20" y2="35" stroke="#2c3e50" stroke-width="2"/>
        <line x1="20" y1="35" x2="30" y2="35" stroke="#2c3e50" stroke-width="2"/>
        <line x1="95" y1="25" x2="120" y2="25" stroke="#2c3e50" stroke-width="2"/>
        <line x1="120" y1="25" x2="120" y2="35" stroke="#2c3e50" stroke-width="2"/>
        <line x1="30" y1="65" x2="30" y2="80" stroke="#2c3e50" stroke-width="2"/>
        <line x1="30" y1="80" x2="120" y2="80" stroke="#2c3e50" stroke-width="2"/>
        <line x1="120" y1="65" x2="120" y2="80" stroke="#2c3e50" stroke-width="2"/>
      </g>

      <text x="120" y="140" class="formula">Q = ωL/R = (1/ωRC)</text>
      <text x="120" y="155" class="formula">At resonance: ω₀ = 1/√(LC)</text>
      <text x="120" y="170" class="formula">Q = V_C/V_applied</text>
    </g>

    <!-- Kelvin Bridge -->
    <g transform="translate(280, 40)">
      <text x="150" y="15" class="label">Kelvin Double Bridge</text>

      <rect x="0" y="25" width="300" height="160" class="kelvin"/>

      <g transform="translate(20, 50)">
        <!-- Four terminal resistors -->
        <rect x="20" y="10" width="30" height="10" class="resistor"/>
        <text x="35" y="8" class="text">R1</text>

        <rect x="80" y="10" width="30" height="10" class="resistor"/>
        <text x="95" y="8" class="text">R2</text>

        <rect x="20" y="50" width="30" height="10" class="resistor"/>
        <text x="35" y="68" class="text">R3</text>

        <rect x="80" y="50" width="30" height="10" class="resistor"/>
        <text x="95" y="68" class="text">Rx</text>

        <!-- Link resistance -->
        <rect x="50" y="25" width="30" height="5" class="resistor"/>
        <text x="65" y="23" class="text">r</text>

        <!-- Yoke resistors -->
        <rect x="140" y="20" width="15" height="20" class="resistor"/>
        <text x="165" y="30" class="text">P</text>

        <rect x="140" y="40" width="15" height="20" class="resistor"/>
        <text x="165" y="50" class="text">Q</text>

        <!-- Galvanometer -->
        <circle cx="70" cy="80" r="12" class="component"/>
        <text x="70" y="85" class="text">G</text>

        <!-- Connections -->
        <line x1="50" y1="15" x2="50" y2="25" stroke="#2c3e50" stroke-width="2"/>
        <line x1="80" y1="15" x2="80" y2="25" stroke="#2c3e50" stroke-width="2"/>
        <line x1="80" y1="30" x2="80" y2="50" stroke="#2c3e50" stroke-width="2"/>
        <line x1="50" y1="30" x2="50" y2="50" stroke="#2c3e50" stroke-width="2"/>
        <line x1="140" y1="30" x2="110" y2="30" stroke="#2c3e50" stroke-width="2"/>
        <line x1="140" y1="50" x2="110" y2="50" stroke="#2c3e50" stroke-width="2"/>
        <line x1="65" y1="40" x2="70" y2="68" stroke="#2c3e50" stroke-width="2"/>
        <line x1="155" y1="40" x2="155" y2="80" stroke="#2c3e50" stroke-width="2"/>
        <line x1="155" y1="80" x2="82" y2="80" stroke="#2c3e50" stroke-width="2"/>
      </g>

      <text x="150" y="140" class="formula">Balance: Rx/R3 = R2/R1</text>
      <text x="150" y="155" class="formula">Independent of link resistance 'r'</text>
      <text x="150" y="170" class="formula">For low resistance measurement</text>
    </g>

    <!-- Wien Bridge -->
    <g transform="translate(600, 40)">
      <text x="120" y="15" class="label">Wien Bridge</text>

      <rect x="0" y="25" width="240" height="160" class="wien"/>

      <g transform="translate(20, 50)">
        <!-- Bridge components -->
        <rect x="20" y="10" width="30" height="10" class="resistor"/>
        <text x="35" y="8" class="text">R1</text>

        <rect x="80" y="10" width="30" height="10" class="resistor"/>
        <text x="95" y="8" class="text">R2</text>

        <!-- R3 and C3 in series -->
        <rect x="20" y="50" width="15" height="10" class="resistor"/>
        <text x="27" y="68" class="text">R3</text>

        <g transform="translate(40, 50)">
          <line x1="0" y1="5" x2="5" y2="5" class="capacitor"/>
          <line x1="5" y1="2" x2="5" y2="8" class="capacitor"/>
          <line x1="10" y1="2" x2="10" y2="8" class="capacitor"/>
          <line x1="10" y1="5" x2="15" y2="5" class="capacitor"/>
        </g>
        <text x="47" y="68" class="text">C3</text>

        <!-- R4 and C4 in parallel -->
        <rect x="80" y="50" width="30" height="10" class="resistor"/>
        <text x="95" y="68" class="text">R4</text>

        <g transform="translate(80, 40)">
          <line x1="0" y1="0" x2="5" y2="0" class="capacitor"/>
          <line x1="5" y1="-3" x2="5" y2="3" class="capacitor"/>
          <line x1="8" y1="-3" x2="8" y2="3" class="capacitor"/>
          <line x1="8" y1="0" x2="13" y2="0" class="capacitor"/>
          <line x1="13" y1="0" x2="30" y2="0" class="capacitor"/>
        </g>
        <text x="95" y="38" class="text">C4</text>

        <!-- AC source and detector -->
        <circle cx="65" cy="30" r="8" class="component"/>
        <text x="65" y="34" class="text">~</text>

        <circle cx="65" cy="70" r="8" class="component"/>
        <text x="65" y="75" class="text">D</text>
      </g>

      <text x="120" y="140" class="formula">At balance:</text>
      <text x="120" y="155" class="formula">R3/R4 = C4/C3 = R1/R2</text>
      <text x="120" y="170" class="formula">Used for frequency measurement</text>
    </g>
  </g>

  <!-- Summary Table -->
  <g transform="translate(50, 1040)">
    <text x="650" y="20" class="subtitle">Bridge Circuits Summary</text>

    <g transform="translate(20, 40)">
      <!-- Table header -->
      <rect x="0" y="0" width="1200" height="30" fill="#34495e"/>
      <text x="100" y="20" class="label" fill="white">Bridge Type</text>
      <text x="250" y="20" class="label" fill="white">Measures</text>
      <text x="400" y="20" class="label" fill="white">Balance Condition</text>
      <text x="650" y="20" class="label" fill="white">Applications</text>
      <text x="950" y="20" class="label" fill="white">Frequency</text>
      <text x="1100" y="20" class="label" fill="white">Accuracy</text>

      <!-- Wheatstone -->
      <rect x="0" y="30" width="1200" height="25" fill="#e8f4fd"/>
      <text x="10" y="47" class="text">Wheatstone</text>
      <text x="200" y="47" class="text">Resistance</text>
      <text x="350" y="47" class="text">Rx = R3(R1/R2)</text>
      <text x="550" y="47" class="text">Medium resistance, strain gauges</text>
      <text x="900" y="47" class="text">DC/AC</text>
      <text x="1050" y="47" class="text">±0.1%</text>

      <!-- Maxwell -->
      <rect x="0" y="55" width="1200" height="25" fill="#e8f6f3"/>
      <text x="10" y="72" class="text">Maxwell</text>
      <text x="200" y="72" class="text">Inductance</text>
      <text x="350" y="72" class="text">Lx = R1R2C, Rx = R1R2/R3</text>
      <text x="550" y="72" class="text">Medium Q inductors</text>
      <text x="900" y="72" class="text">AC</text>
      <text x="1050" y="72" class="text">±1%</text>

      <!-- Schering -->
      <rect x="0" y="80" width="1200" height="25" fill="#fdf2e9"/>
      <text x="10" y="97" class="text">Schering</text>
      <text x="200" y="97" class="text">Capacitance</text>
      <text x="350" y="97" class="text">Cx = C2R3/R1, Rx = R1C3/C2</text>
      <text x="550" y="97" class="text">Cable testing, insulation</text>
      <text x="900" y="97" class="text">AC</text>
      <text x="1050" y="97" class="text">±0.5%</text>

      <!-- Q-Meter -->
      <rect x="0" y="105" width="1200" height="25" fill="#f4f6ff"/>
      <text x="10" y="122" class="text">Q-Meter</text>
      <text x="200" y="122" class="text">Q factor</text>
      <text x="350" y="122" class="text">Q = VC/Vapplied</text>
      <text x="550" y="122" class="text">Coil Q measurement</text>
      <text x="900" y="122" class="text">RF</text>
      <text x="1050" y="122" class="text">±5%</text>

      <!-- Kelvin -->
      <rect x="0" y="130" width="1200" height="25" fill="#fff5f5"/>
      <text x="10" y="147" class="text">Kelvin</text>
      <text x="200" y="147" class="text">Low resistance</text>
      <text x="350" y="147" class="text">Rx = R3(R2/R1)</text>
      <text x="550" y="147" class="text">mΩ measurements</text>
      <text x="900" y="147" class="text">DC</text>
      <text x="1050" y="147" class="text">±0.05%</text>

      <!-- Wien -->
      <rect x="0" y="155" width="1200" height="25" fill="#fffef7"/>
      <text x="10" y="172" class="text">Wien</text>
      <text x="200" y="172" class="text">Frequency/C,R</text>
      <text x="350" y="172" class="text">R3/R4 = C4/C3 = R1/R2</text>
      <text x="550" y="172" class="text">Audio frequency measurement</text>
      <text x="900" y="172" class="text">AC</text>
      <text x="1050" y="172" class="text">±2%</text>
    </g>
  </g>

</svg>