<?xml version="1.0" encoding="UTF-8"?>
<svg width="800" height="600" viewBox="0 0 800 600" xmlns="http://www.w3.org/2000/svg">
  <defs>
    <linearGradient id="gradient" x1="0%" y1="0%" x2="100%" y2="100%">
      <stop offset="0%" style="stop-color:#6366f1;stop-opacity:1" />
      <stop offset="100%" style="stop-color:#8b5cf6;stop-opacity:1" />
    </linearGradient>
    <filter id="shadow" x="-50%" y="-50%" width="200%" height="200%">
      <feDropShadow dx="2" dy="2" stdDeviation="3" flood-color="#00000040"/>
    </filter>
  </defs>
  
  <!-- Background -->
  <rect width="800" height="600" fill="#f8fafc"/>
  
  <!-- Header -->
  <rect x="50" y="20" width="700" height="60" fill="url(#gradient)" rx="10" filter="url(#shadow)"/>
  <text x="400" y="55" text-anchor="middle" fill="white" font-size="24" font-weight="bold">Hill Cipher - Matrix-Based Encryption</text>
  
  <!-- Key Matrix Section -->
  <rect x="50" y="100" width="350" height="200" fill="white" stroke="#e2e8f0" stroke-width="2" rx="8" filter="url(#shadow)"/>
  <text x="60" y="125" fill="#374151" font-size="18" font-weight="bold">2×2 Key Matrix</text>
  
  <!-- Key Matrix -->
  <rect x="80" y="140" width="120" height="120" fill="#f1f5f9" stroke="#64748b" stroke-width="2" rx="4"/>
  <line x1="75" y1="140" x2="75" y2="260" stroke="#374151" stroke-width="3"/>
  <line x1="205" y1="140" x2="205" y2="260" stroke="#374151" stroke-width="3"/>
  <line x1="75" y1="140" x2="80" y2="140" stroke="#374151" stroke-width="3"/>
  <line x1="75" y1="260" x2="80" y2="260" stroke="#374151" stroke-width="3"/>
  <line x1="200" y1="140" x2="205" y2="140" stroke="#374151" stroke-width="3"/>
  <line x1="200" y1="260" x2="205" y2="260" stroke="#374151" stroke-width="3"/>
  
  <text x="110" y="185" text-anchor="middle" fill="#374151" font-size="20" font-weight="bold">3</text>
  <text x="170" y="185" text-anchor="middle" fill="#374151" font-size="20" font-weight="bold">2</text>
  <text x="110" y="235" text-anchor="middle" fill="#374151" font-size="20" font-weight="bold">5</text>
  <text x="170" y="235" text-anchor="middle" fill="#374151" font-size="20" font-weight="bold">1</text>
  
  <!-- Key Matrix Label -->
  <text x="140" y="285" text-anchor="middle" fill="#374151" font-size="14">K = Key Matrix</text>
  
  <!-- Plaintext Section -->
  <rect x="400" y="100" width="350" height="200" fill="white" stroke="#e2e8f0" stroke-width="2" rx="8" filter="url(#shadow)"/>
  <text x="410" y="125" fill="#374151" font-size="18" font-weight="bold">Plaintext to Numbers</text>
  
  <!-- Plaintext Conversion -->
  <text x="410" y="150" fill="#374151" font-size="14">Plaintext: "HI"</text>
  <text x="410" y="175" fill="#374151" font-size="14">H = 7, I = 8 (A=0, B=1, ...)</text>
  
  <!-- Plaintext Vector -->
  <rect x="480" y="190" width="40" height="80" fill="#f1f5f9" stroke="#64748b" stroke-width="2" rx="4"/>
  <line x1="475" y1="190" x2="475" y2="270" stroke="#374151" stroke-width="3"/>
  <line x1="525" y1="190" x2="525" y2="270" stroke="#374151" stroke-width="3"/>
  <line x1="475" y1="190" x2="480" y2="190" stroke="#374151" stroke-width="3"/>
  <line x1="475" y1="270" x2="480" y2="270" stroke="#374151" stroke-width="3"/>
  <line x1="520" y1="190" x2="525" y2="190" stroke="#374151" stroke-width="3"/>
  <line x1="520" y1="270" x2="525" y2="270" stroke="#374151" stroke-width="3"/>
  
  <text x="500" y="220" text-anchor="middle" fill="#374151" font-size="18" font-weight="bold">7</text>
  <text x="500" y="250" text-anchor="middle" fill="#374151" font-size="18" font-weight="bold">8</text>
  
  <!-- Encryption Process -->
  <rect x="50" y="320" width="700" height="250" fill="white" stroke="#e2e8f0" stroke-width="2" rx="8" filter="url(#shadow)"/>
  <text x="60" y="345" fill="#374151" font-size="18" font-weight="bold">Encryption Process: C = K × P (mod 26)</text>
  
  <!-- Matrix Multiplication -->
  <g transform="translate(100, 380)">
    <!-- Key Matrix -->
    <rect x="0" y="0" width="80" height="80" fill="#f1f5f9" stroke="#64748b" stroke-width="2" rx="4"/>
    <line x1="-5" y1="0" x2="-5" y2="80" stroke="#374151" stroke-width="3"/>
    <line x1="85" y1="0" x2="85" y2="80" stroke="#374151" stroke-width="3"/>
    <text x="20" y="30" text-anchor="middle" fill="#374151" font-size="16" font-weight="bold">3</text>
    <text x="60" y="30" text-anchor="middle" fill="#374151" font-size="16" font-weight="bold">2</text>
    <text x="20" y="60" text-anchor="middle" fill="#374151" font-size="16" font-weight="bold">5</text>
    <text x="60" y="60" text-anchor="middle" fill="#374151" font-size="16" font-weight="bold">1</text>
    
    <!-- Multiplication Symbol -->
    <text x="105" y="45" text-anchor="middle" fill="#374151" font-size="20" font-weight="bold">×</text>
    
    <!-- Plaintext Vector -->
    <rect x="130" y="10" width="30" height="60" fill="#f1f5f9" stroke="#64748b" stroke-width="2" rx="4"/>
    <line x1="125" y1="10" x2="125" y2="70" stroke="#374151" stroke-width="3"/>
    <line x1="165" y1="10" x2="165" y2="70" stroke="#374151" stroke-width="3"/>
    <text x="145" y="35" text-anchor="middle" fill="#374151" font-size="16" font-weight="bold">7</text>
    <text x="145" y="55" text-anchor="middle" fill="#374151" font-size="16" font-weight="bold">8</text>
    
    <!-- Equals Symbol -->
    <text x="185" y="45" text-anchor="middle" fill="#374151" font-size="20" font-weight="bold">=</text>
    
    <!-- Result Vector -->
    <rect x="210" y="10" width="40" height="60" fill="#dcfce7" stroke="#16a34a" stroke-width="2" rx="4"/>
    <line x1="205" y1="10" x2="205" y2="70" stroke="#16a34a" stroke-width="3"/>
    <line x1="255" y1="10" x2="255" y2="70" stroke="#16a34a" stroke-width="3"/>
    <text x="230" y="35" text-anchor="middle" fill="#16a34a" font-size="16" font-weight="bold">37</text>
    <text x="230" y="55" text-anchor="middle" fill="#16a34a" font-size="16" font-weight="bold">43</text>
  </g>
  
  <!-- Calculation Steps -->
  <text x="60" y="480" fill="#374151" font-size="14">Step 1: Matrix multiplication</text>
  <text x="60" y="500" fill="#374151" font-size="14">• First element: (3×7) + (2×8) = 21 + 16 = 37</text>
  <text x="60" y="520" fill="#374151" font-size="14">• Second element: (5×7) + (1×8) = 35 + 8 = 43</text>
  
  <text x="400" y="480" fill="#374151" font-size="14">Step 2: Apply modulo 26</text>
  <text x="400" y="500" fill="#374151" font-size="14">• 37 mod 26 = 11 → L</text>
  <text x="400" y="520" fill="#374151" font-size="14">• 43 mod 26 = 17 → R</text>
  
  <!-- Final Result -->
  <rect x="300" y="540" width="200" height="40" fill="#dcfce7" stroke="#16a34a" stroke-width="2" rx="8"/>
  <text x="400" y="565" text-anchor="middle" fill="#16a34a" font-size="16" font-weight="bold">Ciphertext: "LR"</text>
</svg>
