<svg viewBox="0 0 1200 800" xmlns="http://www.w3.org/2000/svg">
  <defs>
    <linearGradient id="magnetGrad" x1="0%" y1="0%" x2="100%" y2="100%">
      <stop offset="0%" style="stop-color:#DC2626;stop-opacity:1" />
      <stop offset="100%" style="stop-color:#991B1B;stop-opacity:1" />
    </linearGradient>
    <linearGradient id="coilGrad" x1="0%" y1="0%" x2="100%" y2="100%">
      <stop offset="0%" style="stop-color:#F59E0B;stop-opacity:1" />
      <stop offset="100%" style="stop-color:#D97706;stop-opacity:1" />
    </linearGradient>
    <linearGradient id="waveGrad" x1="0%" y1="0%" x2="100%" y2="0%">
      <stop offset="0%" style="stop-color:#3B82F6;stop-opacity:1" />
      <stop offset="50%" style="stop-color:#10B981;stop-opacity:1" />
      <stop offset="100%" style="stop-color:#3B82F6;stop-opacity:1" />
    </linearGradient>
    <radialGradient id="fieldGrad" cx="50%" cy="50%" r="50%">
      <stop offset="0%" style="stop-color:#7C3AED;stop-opacity:0.8" />
      <stop offset="100%" style="stop-color:#5B21B6;stop-opacity:0.3" />
    </radialGradient>
    <filter id="glow">
      <feGaussianBlur stdDeviation="3" result="coloredBlur"/>
      <feMerge> 
        <feMergeNode in="coloredBlur"/>
        <feMergeNode in="SourceGraphic"/>
      </feMerge>
    </filter>
    <marker id="fieldArrow" markerWidth="10" markerHeight="7" refX="9" refY="3.5" orient="auto">
      <polygon points="0 0, 10 3.5, 0 7" fill="#7C3AED"/>
    </marker>
    <marker id="vectorArrow" markerWidth="8" markerHeight="6" refX="7" refY="3" orient="auto">
      <polygon points="0 0, 8 3, 0 6" fill="#10B981"/>
    </marker>
  </defs>

  <!-- Background -->
  <rect width="1200" height="800" fill="#F8FAFC"/>
  
  <!-- Title -->
  <text x="600" y="40" text-anchor="middle" font-family="Arial, sans-serif" font-size="28" font-weight="bold" fill="#1E293B">AC Waveform Generation - Rotating Machine Principle</text>
  
  <!-- Basic Generator Principle -->
  <g transform="translate(50,80)">
    <rect x="0" y="0" width="500" height="280" fill="#F0FDF4" stroke="#BBF7D0" stroke-width="2" rx="10"/>
    <text x="250" y="25" text-anchor="middle" font-family="Arial, sans-serif" font-size="20" font-weight="bold" fill="#1E293B">Basic AC Generator Principle</text>
    
    <!-- Magnet poles -->
    <g transform="translate(250,150)">
      <!-- North pole -->
      <rect x="-120" y="-60" width="80" height="120" fill="url(#magnetGrad)" stroke="#991B1B" stroke-width="3" rx="10"/>
      <text x="-80" y="5" text-anchor="middle" font-family="Arial, sans-serif" font-size="24" font-weight="bold" fill="white">N</text>
      
      <!-- South pole -->
      <rect x="40" y="-60" width="80" height="120" fill="url(#magnetGrad)" stroke="#991B1B" stroke-width="3" rx="10"/>
      <text x="80" y="5" text-anchor="middle" font-family="Arial, sans-serif" font-size="24" font-weight="bold" fill="white">S</text>
      
      <!-- Magnetic field lines -->
      <g stroke="#7C3AED" stroke-width="2" fill="none" opacity="0.7">
        <path d="M -40,-40 Q 20,-60 60,-40" marker-end="url(#fieldArrow)"/>
        <path d="M -40,-20 Q 20,-25 60,-20" marker-end="url(#fieldArrow)"/>
        <path d="M -40,0 Q 20,0 60,0" marker-end="url(#fieldArrow)"/>
        <path d="M -40,20 Q 20,25 60,20" marker-end="url(#fieldArrow)"/>
        <path d="M -40,40 Q 20,60 60,40" marker-end="url(#fieldArrow)"/>
        
        <!-- Field strength indicator -->
        <text x="20" y="-75" text-anchor="middle" font-family="Arial, sans-serif" font-size="12" fill="#7C3AED">B = 1.2T</text>
      </g>
      
      <!-- Rotating coil -->
      <g id="rotatingCoil" transform-origin="0 0">
        <animateTransform attributeName="transform" type="rotate" 
                          values="0;360" dur="4s" repeatCount="indefinite"/>
        
        <!-- Coil conductors -->
        <line x1="-30" y1="-30" x2="-30" y2="30" stroke="url(#coilGrad)" stroke-width="4"/>
        <line x1="30" y1="-30" x2="30" y2="30" stroke="url(#coilGrad)" stroke-width="4"/>
        
        <!-- End connections -->
        <path d="M -30,-30 Q 0,-40 30,-30" stroke="url(#coilGrad)" stroke-width="4" fill="none"/>
        <path d="M -30,30 Q 0,40 30,30" stroke="url(#coilGrad)" stroke-width="4" fill="none"/>
        
        <!-- Rotation axis -->
        <circle r="5" fill="#374151" stroke="#1F2937" stroke-width="2"/>
        
        <!-- Velocity vectors -->
        <g stroke="#10B981" stroke-width="3" fill="#10B981">
          <line x1="-30" y1="-30" x2="-50" y2="-20" marker-end="url(#vectorArrow)"/>
          <line x1="30" y1="-30" x2="50" y2="-20" marker-end="url(#vectorArrow)"/>
          <line x1="-30" y1="30" x2="-50" y2="20" marker-end="url(#vectorArrow)"/>
          <line x1="30" y1="30" x2="50" y2="20" marker-end="url(#vectorArrow)"/>
          <text x="0" y="-55" text-anchor="middle" font-family="Arial, sans-serif" font-size="10" fill="#10B981">v = ωr</text>
        </g>
      </g>
      
      <!-- Slip rings and brushes -->
      <g transform="translate(0,80)">
        <circle cx="-15" cy="0" r="8" fill="url(#coilGrad)" stroke="#D97706" stroke-width="2"/>
        <circle cx="15" cy="0" r="8" fill="url(#coilGrad)" stroke="#D97706" stroke-width="2"/>
        
        <!-- Brushes -->
        <rect x="-20" y="-15" width="10" height="8" fill="#6B7280" stroke="#374151" stroke-width="1"/>
        <rect x="10" y="-15" width="10" height="8" fill="#6B7280" stroke="#374151" stroke-width="1"/>
        
        <!-- Output terminals -->
        <line x1="-25" y1="-11" x2="-35" y2="-11" stroke="#DC2626" stroke-width="3"/>
        <line x1="25" y1="-11" x2="35" y2="-11" stroke="#1E40AF" stroke-width="3"/>
        <text x="-40" y="-5" font-family="Arial, sans-serif" font-size="12" font-weight="bold" fill="#DC2626">+</text>
        <text x="40" y="-5" font-family="Arial, sans-serif" font-size="12" font-weight="bold" fill="#1E40AF">−</text>
        
        <text x="0" y="25" text-anchor="middle" font-family="Arial, sans-serif" font-size="11" fill="#1E293B">Slip Rings &amp; Brushes</text>
      </g>
    </g>
    
    <!-- EMF equation -->
    <rect x="30" y="240" width="440" height="30" fill="#F0F9FF" stroke="#0EA5E9" stroke-width="1" rx="5"/>
    <text x="250" y="258" text-anchor="middle" font-family="Arial, sans-serif" font-size="14" font-weight="bold" fill="#1E293B">EMF = BLv sin(ωt) = E_max sin(ωt)</text>
  </g>

  <!-- Generated Waveform -->
  <g transform="translate(570,80)">
    <rect x="0" y="0" width="580" height="280" fill="#FEF2F2" stroke="#FECACA" stroke-width="2" rx="10"/>
    <text x="290" y="25" text-anchor="middle" font-family="Arial, sans-serif" font-size="20" font-weight="bold" fill="#1E293B">Generated AC Waveform</text>
    
    <!-- Waveform graph -->
    <g transform="translate(50,60)">
      <!-- Axes -->
      <g stroke="#374151" stroke-width="2">
        <line x1="0" y1="100" x2="480" y2="100"/> <!-- X-axis -->
        <line x1="0" y1="20" x2="0" y2="180"/> <!-- Y-axis -->
        
        <!-- Axis labels -->
        <text x="240" y="200" text-anchor="middle" font-family="Arial, sans-serif" font-size="12" fill="#374151">Time (t) / Angle (ωt)</text>
        <text x="-15" y="110" text-anchor="middle" font-family="Arial, sans-serif" font-size="12" fill="#374151" transform="rotate(-90 -15 110)">EMF (V)</text>
      </g>
      
      <!-- Sine wave -->
      <path d="M 0,100 Q 60,20 120,100 Q 180,180 240,100 Q 300,20 360,100 Q 420,180 480,100" 
            stroke="url(#waveGrad)" stroke-width="4" fill="none" filter="url(#glow)"/>
      
      <!-- Peak values -->
      <g font-family="Arial, sans-serif" font-size="11" fill="#DC2626">
        <text x="125" y="15">+E_max</text>
        <text x="365" y="15">+E_max</text>
        <text x="245" y="195">-E_max</text>
      </g>
      
      <!-- Time markers -->
      <g stroke="#6B7280" stroke-width="1" stroke-dasharray="2,2">
        <line x1="120" y1="20" x2="120" y2="180"/>
        <line x1="240" y1="20" x2="240" y2="180"/>
        <line x1="360" y1="20" x2="360" y2="180"/>
      </g>
      
      <!-- Angular positions -->
      <g font-family="Arial, sans-serif" font-size="10" fill="#6B7280">
        <text x="30" y="195">π/2</text>
        <text x="115" y="195">π</text>
        <text x="230" y="195">3π/2</text>
        <text x="350" y="195">2π</text>
      </g>
      
      <!-- Period marking -->
      <g stroke="#F59E0B" stroke-width="2">
        <line x1="0" y1="210" x2="240" y2="210"/>
        <text x="120" y="225" text-anchor="middle" font-family="Arial, sans-serif" font-size="12" font-weight="bold" fill="#F59E0B">T = 2π/ω</text>
      </g>
      
      <!-- Frequency -->
      <text x="400" y="40" font-family="Arial, sans-serif" font-size="12" font-weight="bold" fill="#059669">f = 1/T = ω/2π Hz</text>
    </g>
  </g>

  <!-- Position vs EMF Relationship -->
  <g transform="translate(50,380)">
    <rect x="0" y="0" width="550" height="200" fill="#F3E8FF" stroke="#8B5CF6" stroke-width="2" rx="10"/>
    <text x="275" y="25" text-anchor="middle" font-family="Arial, sans-serif" font-size="18" font-weight="bold" fill="#1E293B">Coil Position vs Generated EMF</text>
    
    <!-- Position diagrams -->
    <g transform="translate(50,50)">
      <!-- Position 0° -->
      <g transform="translate(60,50)">
        <text x="0" y="-25" text-anchor="middle" font-family="Arial, sans-serif" font-size="12" font-weight="bold" fill="#7C3AED">θ = 0°</text>
        <!-- Magnet -->
        <rect x="-40" y="-20" width="15" height="40" fill="#DC2626"/>
        <rect x="25" y="-20" width="15" height="40" fill="#DC2626"/>
        <text x="-32" y="5" font-family="Arial, sans-serif" font-size="10" fill="white">N</text>
        <text x="33" y="5" font-family="Arial, sans-serif" font-size="10" fill="white">S</text>
        <!-- Coil horizontal -->
        <line x1="-10" y1="-15" x2="-10" y2="15" stroke="#F59E0B" stroke-width="3"/>
        <line x1="10" y1="-15" x2="10" y2="15" stroke="#F59E0B" stroke-width="3"/>
        <path d="M -10,-15 Q 0,-20 10,-15" stroke="#F59E0B" stroke-width="3" fill="none"/>
        <path d="M -10,15 Q 0,20 10,15" stroke="#F59E0B" stroke-width="3" fill="none"/>
        <!-- Velocity parallel to field -->
        <line x1="0" y1="-30" x2="15" y2="-30" stroke="#10B981" stroke-width="2" marker-end="url(#vectorArrow)"/>
        <text x="0" y="40" text-anchor="middle" font-family="Arial, sans-serif" font-size="11" fill="#1E293B">EMF = 0</text>
        <text x="0" y="52" text-anchor="middle" font-family="Arial, sans-serif" font-size="10" fill="#6B7280">v ∥ B</text>
      </g>
      
      <!-- Position 90° -->
      <g transform="translate(180,50)">
        <text x="0" y="-25" text-anchor="middle" font-family="Arial, sans-serif" font-size="12" font-weight="bold" fill="#7C3AED">θ = 90°</text>
        <!-- Magnet -->
        <rect x="-40" y="-20" width="15" height="40" fill="#DC2626"/>
        <rect x="25" y="-20" width="15" height="40" fill="#DC2626"/>
        <text x="-32" y="5" font-family="Arial, sans-serif" font-size="10" fill="white">N</text>
        <text x="33" y="5" font-family="Arial, sans-serif" font-size="10" fill="white">S</text>
        <!-- Coil vertical -->
        <line x1="-15" y1="0" x2="15" y2="0" stroke="#F59E0B" stroke-width="3"/>
        <line x1="-15" y1="0" x2="-15" y2="0" stroke="#F59E0B" stroke-width="3"/>
        <line x1="15" y1="0" x2="15" y2="0" stroke="#F59E0B" stroke-width="3"/>
        <path d="M -15,0 Q -20,-10 -15,-20" stroke="#F59E0B" stroke-width="3" fill="none"/>
        <path d="M 15,0 Q 20,-10 15,-20" stroke="#F59E0B" stroke-width="3" fill="none"/>
        <path d="M -15,0 Q -20,10 -15,20" stroke="#F59E0B" stroke-width="3" fill="none"/>
        <path d="M 15,0 Q 20,10 15,20" stroke="#F59E0B" stroke-width="3" fill="none"/>
        <!-- Velocity perpendicular to field -->
        <line x1="-15" y1="-30" x2="-15" y2="-15" stroke="#10B981" stroke-width="2" marker-end="url(#vectorArrow)"/>
        <line x1="15" y1="-30" x2="15" y2="-15" stroke="#10B981" stroke-width="2" marker-end="url(#vectorArrow)"/>
        <text x="0" y="40" text-anchor="middle" font-family="Arial, sans-serif" font-size="11" fill="#1E293B">EMF = Max</text>
        <text x="0" y="52" text-anchor="middle" font-family="Arial, sans-serif" font-size="10" fill="#6B7280">v ⊥ B</text>
      </g>
      
      <!-- Position 180° -->
      <g transform="translate(300,50)">
        <text x="0" y="-25" text-anchor="middle" font-family="Arial, sans-serif" font-size="12" font-weight="bold" fill="#7C3AED">θ = 180°</text>
        <!-- Magnet -->
        <rect x="-40" y="-20" width="15" height="40" fill="#DC2626"/>
        <rect x="25" y="-20" width="15" height="40" fill="#DC2626"/>
        <text x="-32" y="5" font-family="Arial, sans-serif" font-size="10" fill="white">N</text>
        <text x="33" y="5" font-family="Arial, sans-serif" font-size="10" fill="white">S</text>
        <!-- Coil horizontal (opposite) -->
        <line x1="-10" y1="-15" x2="-10" y2="15" stroke="#F59E0B" stroke-width="3"/>
        <line x1="10" y1="-15" x2="10" y2="15" stroke="#F59E0B" stroke-width="3"/>
        <path d="M -10,-15 Q 0,-20 10,-15" stroke="#F59E0B" stroke-width="3" fill="none"/>
        <path d="M -10,15 Q 0,20 10,15" stroke="#F59E0B" stroke-width="3" fill="none"/>
        <!-- Velocity parallel (opposite) -->
        <line x1="0" y1="-30" x2="-15" y2="-30" stroke="#10B981" stroke-width="2" marker-end="url(#vectorArrow)"/>
        <text x="0" y="40" text-anchor="middle" font-family="Arial, sans-serif" font-size="11" fill="#1E293B">EMF = 0</text>
        <text x="0" y="52" text-anchor="middle" font-family="Arial, sans-serif" font-size="10" fill="#6B7280">v ∥ B</text>
      </g>
      
      <!-- Position 270° -->
      <g transform="translate(420,50)">
        <text x="0" y="-25" text-anchor="middle" font-family="Arial, sans-serif" font-size="12" font-weight="bold" fill="#7C3AED">θ = 270°</text>
        <!-- Magnet -->
        <rect x="-40" y="-20" width="15" height="40" fill="#DC2626"/>
        <rect x="25" y="-20" width="15" height="40" fill="#DC2626"/>
        <text x="-32" y="5" font-family="Arial, sans-serif" font-size="10" fill="white">N</text>
        <text x="33" y="5" font-family="Arial, sans-serif" font-size="10" fill="white">S</text>
        <!-- Coil vertical (opposite) -->
        <line x1="-15" y1="0" x2="15" y2="0" stroke="#F59E0B" stroke-width="3"/>
        <path d="M -15,0 Q -20,-10 -15,-20" stroke="#F59E0B" stroke-width="3" fill="none"/>
        <path d="M 15,0 Q 20,-10 15,-20" stroke="#F59E0B" stroke-width="3" fill="none"/>
        <path d="M -15,0 Q -20,10 -15,20" stroke="#F59E0B" stroke-width="3" fill="none"/>
        <path d="M 15,0 Q 20,10 15,20" stroke="#F59E0B" stroke-width="3" fill="none"/>
        <!-- Velocity perpendicular (opposite) -->
        <line x1="-15" y1="15" x2="-15" y2="30" stroke="#10B981" stroke-width="2" marker-end="url(#vectorArrow)"/>
        <line x1="15" y1="15" x2="15" y2="30" stroke="#10B981" stroke-width="2" marker-end="url(#vectorArrow)"/>
        <text x="0" y="40" text-anchor="middle" font-family="Arial, sans-serif" font-size="11" fill="#1E293B">EMF = -Max</text>
        <text x="0" y="52" text-anchor="middle" font-family="Arial, sans-serif" font-size="10" fill="#6B7280">v ⊥ B</text>
      </g>
    </g>
    
    <!-- EMF formula -->
    <rect x="50" y="150" width="450" height="40" fill="#F0F9FF" stroke="#0EA5E9" stroke-width="1" rx="5"/>
    <text x="275" y="168" text-anchor="middle" font-family="Arial, sans-serif" font-size="14" font-weight="bold" fill="#1E293B">EMF = BLv sin θ = BLωr sin(ωt)</text>
    <text x="275" y="183" text-anchor="middle" font-family="Arial, sans-serif" font-size="12" fill="#6B7280">where ωr = peripheral velocity, θ = ωt</text>
  </g>

  <!-- Three-Phase Generation -->
  <g transform="translate(620,380)">
    <rect x="0" y="0" width="530" height="200" fill="#FEF3C7" stroke="#F59E0B" stroke-width="2" rx="10"/>
    <text x="265" y="25" text-anchor="middle" font-family="Arial, sans-serif" font-size="18" font-weight="bold" fill="#1E293B">Three-Phase AC Generation</text>
    
    <!-- Three coils arrangement -->
    <g transform="translate(130,100)">
      <!-- Central rotor -->
      <circle r="30" fill="#6B7280" stroke="#374151" stroke-width="3"/>
      <text x="0" y="5" text-anchor="middle" font-family="Arial, sans-serif" font-size="12" font-weight="bold" fill="white">Rotor</text>
      
      <!-- Coil A (Red) - 0° -->
      <g transform="rotate(0)">
        <rect x="-3" y="-50" width="6" height="20" fill="#DC2626" stroke="#991B1B" stroke-width="1"/>
        <text x="15" y="-35" font-family="Arial, sans-serif" font-size="12" font-weight="bold" fill="#DC2626">A</text>
      </g>
      
      <!-- Coil B (Blue) - 120° -->
      <g transform="rotate(120)">
        <rect x="-3" y="-50" width="6" height="20" fill="#3B82F6" stroke="#1E40AF" stroke-width="1"/>
        <text x="15" y="-35" font-family="Arial, sans-serif" font-size="12" font-weight="bold" fill="#3B82F6">B</text>
      </g>
      
      <!-- Coil C (Green) - 240° -->
      <g transform="rotate(240)">
        <rect x="-3" y="-50" width="6" height="20" fill="#10B981" stroke="#059669" stroke-width="1"/>
        <text x="15" y="-35" font-family="Arial, sans-serif" font-size="12" font-weight="bold" fill="#10B981">C</text>
      </g>
      
      <!-- 120° spacing indicators -->
      <g stroke="#6B7280" stroke-width="1" stroke-dasharray="2,2" fill="none">
        <path d="M 0,0 L 0,-60"/>
        <path d="M 0,0 L -52,-30"/>
        <path d="M 0,0 L 52,-30"/>
      </g>
      
      <text x="0" y="80" text-anchor="middle" font-family="Arial, sans-serif" font-size="11" fill="#6B7280">120° electrical spacing</text>
    </g>
    
    <!-- Three-phase waveforms -->
    <g transform="translate(280,60)">
      <!-- Mini graph axes -->
      <g stroke="#374151" stroke-width="1">
        <line x1="0" y1="60" x2="200" y2="60"/>
        <line x1="0" y1="20" x2="0" y2="100"/>
      </g>
      
      <!-- Phase A waveform -->
      <path d="M 0,60 Q 25,30 50,60 Q 75,90 100,60 Q 125,30 150,60 Q 175,90 200,60" 
            stroke="#DC2626" stroke-width="2" fill="none"/>
      
      <!-- Phase B waveform (120° behind) -->
      <path d="M 0,77.5 Q 25,97.5 50,77.5 Q 75,57.5 100,77.5 Q 125,97.5 150,77.5 Q 175,57.5 200,77.5" 
            stroke="#3B82F6" stroke-width="2" fill="none"/>
      
      <!-- Phase C waveform (240° behind) -->
      <path d="M 0,42.5 Q 25,22.5 50,42.5 Q 75,62.5 100,42.5 Q 125,22.5 150,42.5 Q 175,62.5 200,42.5" 
            stroke="#10B981" stroke-width="2" fill="none"/>
      
      <!-- Legend -->
      <g font-family="Arial, sans-serif" font-size="10">
        <line x1="210" y1="30" x2="220" y2="30" stroke="#DC2626" stroke-width="2"/>
        <text x="225" y="34" fill="#DC2626">Phase A</text>
        
        <line x1="210" y1="45" x2="220" y2="45" stroke="#3B82F6" stroke-width="2"/>
        <text x="225" y="49" fill="#3B82F6">Phase B</text>
        
        <line x1="210" y1="60" x2="220" y2="60" stroke="#10B981" stroke-width="2"/>
        <text x="225" y="64" fill="#10B981">Phase C</text>
      </g>
      
      <text x="100" y="120" text-anchor="middle" font-family="Arial, sans-serif" font-size="11" fill="#1E293B">EA = E sin(ωt)</text>
      <text x="100" y="135" text-anchor="middle" font-family="Arial, sans-serif" font-size="11" fill="#1E293B">EB = E sin(ωt - 120°)</text>
      <text x="100" y="150" text-anchor="middle" font-family="Arial, sans-serif" font-size="11" fill="#1E293B">EC = E sin(ωt - 240°)</text>
    </g>
  </g>

  <!-- Practical Generator Construction -->
  <g transform="translate(50,600)">
    <rect x="0" y="0" width="500" height="140" fill="#F1F5F9" stroke="#CBD5E1" stroke-width="2" rx="8"/>
    <text x="250" y="25" text-anchor="middle" font-family="Arial, sans-serif" font-size="18" font-weight="bold" fill="#1E293B">Practical Generator Features</text>
    
    <g font-family="Arial, sans-serif" font-size="12" fill="#374151">
      <text x="30" y="50" font-weight="bold" fill="#DC2626">Stator (Stationary):</text>
      <text x="40" y="65">• Contains field windings</text>
      <text x="40" y="80">• Creates magnetic field</text>
      <text x="40" y="95">• Electromagnets or permanent magnets</text>
      <text x="40" y="110">• Multiple poles for higher frequency</text>
      
      <text x="270" y="50" font-weight="bold" fill="#3B82F6">Rotor (Rotating):</text>
      <text x="280" y="65">• Contains output windings</text>
      <text x="280" y="80">• Rotates in magnetic field</text>
      <text x="280" y="95">• Connected via slip rings</text>
      <text x="280" y="110">• Speed determines frequency</text>
    </g>
  </g>

  <!-- Key Equations and Parameters -->
  <g transform="translate(570,600)">
    <rect x="0" y="0" width="580" height="140" fill="#F0FDF4" stroke="#BBF7D0" stroke-width="2" rx="8"/>
    <text x="290" y="25" text-anchor="middle" font-family="Arial, sans-serif" font-size="18" font-weight="bold" fill="#1E293B">Key Equations &amp; Parameters</text>
    
    <g font-family="Arial, sans-serif" font-size="12" fill="#1E293B">
      <text x="30" y="50" font-weight="bold">Frequency:</text>
      <text x="120" y="50" fill="#059669">f = (P × N) / 120 Hz</text>
      <text x="300" y="50" font-size="11" fill="#6B7280">P = poles, N = RPM</text>
      
      <text x="30" y="70" font-weight="bold">Angular velocity:</text>
      <text x="120" y="70" fill="#059669">ω = 2πf rad/s</text>
      <text x="300" y="70" font-size="11" fill="#6B7280">ω = 2π × 50 = 314 rad/s</text>
      
      <text x="30" y="90" font-weight="bold">EMF amplitude:</text>
      <text x="120" y="90" fill="#059669">E_max = BLv = BLωr</text>
      <text x="300" y="90" font-size="11" fill="#6B7280">B = flux density, L = length</text>
      
      <text x="30" y="110" font-weight="bold">RMS value:</text>
      <text x="120" y="110" fill="#059669">E_rms = E_max/√2 = 0.707 E_max</text>
      <text x="300" y="110" font-size="11" fill="#6B7280">Standard measurement</text>
    </g>
  </g>

  <!-- Bottom info bar -->
  <g transform="translate(50,760)">
    <text x="0" y="0" font-family="Arial, sans-serif" font-size="14" font-weight="bold" fill="#1E293B">Key Principle:</text>
    <text x="120" y="0" font-family="Arial, sans-serif" font-size="12" fill="#374151">Faraday's Law: EMF is induced when conductor moves through magnetic field</text>
    <text x="600" y="0" font-family="Arial, sans-serif" font-size="12" fill="#059669">Standard: 50Hz in India, 60Hz in USA</text>
  </g>
</svg>