<svg viewBox="0 0 1200 800" xmlns="http://www.w3.org/2000/svg">
  <defs>
    <linearGradient id="resistorGrad" x1="0%" y1="0%" x2="100%" y2="100%">
      <stop offset="0%" style="stop-color:#F59E0B;stop-opacity:1" />
      <stop offset="100%" style="stop-color:#D97706;stop-opacity:1" />
    </linearGradient>
    <linearGradient id="inductorGrad" x1="0%" y1="0%" x2="100%" y2="100%">
      <stop offset="0%" style="stop-color:#3B82F6;stop-opacity:1" />
      <stop offset="100%" style="stop-color:#1E40AF;stop-opacity:1" />
    </linearGradient>
    <linearGradient id="capacitorGrad" x1="0%" y1="0%" x2="100%" y2="100%">
      <stop offset="0%" style="stop-color:#10B981;stop-opacity:1" />
      <stop offset="100%" style="stop-color:#059669;stop-opacity:1" />
    </linearGradient>
    <linearGradient id="sourceGrad" x1="0%" y1="0%" x2="100%" y2="100%">
      <stop offset="0%" style="stop-color:#DC2626;stop-opacity:1" />
      <stop offset="100%" style="stop-color:#991B1B;stop-opacity:1" />
    </linearGradient>
    <linearGradient id="phasorGrad" x1="0%" y1="0%" x2="100%" y2="100%">
      <stop offset="0%" style="stop-color:#7C3AED;stop-opacity:1" />
      <stop offset="100%" style="stop-color:#5B21B6;stop-opacity:1" />
    </linearGradient>
    <marker id="phasorArrow" markerWidth="10" markerHeight="7" refX="9" refY="3.5" orient="auto">
      <polygon points="0 0, 10 3.5, 0 7" fill="#7C3AED"/>
    </marker>
    <marker id="currentArrow" markerWidth="8" markerHeight="6" refX="7" refY="3" orient="auto">
      <polygon points="0 0, 8 3, 0 6" fill="#059669"/>
    </marker>
    <filter id="glow">
      <feGaussianBlur stdDeviation="2" result="coloredBlur"/>
      <feMerge> 
        <feMergeNode in="coloredBlur"/>
        <feMergeNode in="SourceGraphic"/>
      </feMerge>
    </filter>
  </defs>

  <!-- Background -->
  <rect width="1200" height="800" fill="#F8FAFC"/>
  
  <!-- Title -->
  <text x="600" y="40" text-anchor="middle" font-family="Arial, sans-serif" font-size="28" font-weight="bold" fill="#1E293B">RLC Circuit Behavior in AC</text>
  
  <!-- Pure Resistor Circuit -->
  <g transform="translate(50,80)">
    <rect x="0" y="0" width="350" height="240" fill="url(#resistorGrad)" stroke="#D97706" stroke-width="3" rx="10" opacity="0.1"/>
    <rect x="0" y="0" width="350" height="240" fill="none" stroke="#D97706" stroke-width="3" rx="10"/>
    <text x="175" y="25" text-anchor="middle" font-family="Arial, sans-serif" font-size="18" font-weight="bold" fill="#1E293B">Pure Resistor (R)</text>
    
    <!-- Circuit diagram -->
    <g transform="translate(100,60)">
      <!-- AC source -->
      <circle cx="0" cy="30" r="20" fill="none" stroke="url(#sourceGrad)" stroke-width="3"/>
      <path d="M -8,30 Q 0,20 8,30 Q 0,40 -8,30" stroke="#DC2626" stroke-width="2" fill="none"/>
      <text x="0" y="65" text-anchor="middle" font-family="Arial, sans-serif" font-size="10" fill="#DC2626">v = V sin(ωt)</text>
      
      <!-- Resistor -->
      <g transform="translate(100,30)">
        <rect x="-30" y="-8" width="60" height="16" fill="url(#resistorGrad)" stroke="#D97706" stroke-width="2" rx="8"/>
        <path d="M -20,0 L -10,-5 L 0,5 L 10,-5 L 20,0" stroke="white" stroke-width="2" fill="none"/>
        <text x="0" y="-25" text-anchor="middle" font-family="Arial, sans-serif" font-size="12" fill="#1E293B">R</text>
        <text x="0" y="35" text-anchor="middle" font-family="Arial, sans-serif" font-size="10" fill="#D97706">i = I sin(ωt)</text>
      </g>
      
      <!-- Connecting wires -->
      <line x1="20" y1="30" x2="70" y2="30" stroke="#374151" stroke-width="3"/>
      <line x1="130" y1="30" x2="150" y2="30" stroke="#374151" stroke-width="3"/>
      <line x1="150" y1="30" x2="150" y2="80" stroke="#374151" stroke-width="3"/>
      <line x1="150" y1="80" x2="0" y2="80" stroke="#374151" stroke-width="3"/>
      <line x1="0" y1="80" x2="0" y2="50" stroke="#374151" stroke-width="3"/>
      
      <!-- Current direction -->
      <g stroke="#059669" stroke-width="2" fill="#059669">
        <line x1="45" y1="30" x2="60" y2="30" marker-end="url(#currentArrow)"/>
        <text x="52" y="20" text-anchor="middle" font-family="Arial, sans-serif" font-size="10" fill="#059669">I</text>
      </g>
    </g>
    
    <!-- Waveform -->
    <g transform="translate(50,120)">
      <!-- Axes -->
      <g stroke="#374151" stroke-width="1">
        <line x1="0" y1="50" x2="250" y2="50"/>
        <line x1="0" y1="20" x2="0" y2="80"/>
      </g>
      <!-- Voltage and current in phase -->
      <path d="M 0,50 Q 31.25,30 62.5,50 Q 93.75,70 125,50 Q 156.25,30 187.5,50 Q 218.75,70 250,50" 
            stroke="#DC2626" stroke-width="3" fill="none"/>
      <path d="M 0,50 Q 31.25,35 62.5,50 Q 93.75,65 125,50 Q 156.25,35 187.5,50 Q 218.75,65 250,50" 
            stroke="#F59E0B" stroke-width="3" fill="none"/>
      
      <text x="260" y="35" font-family="Arial, sans-serif" font-size="10" fill="#DC2626">v</text>
      <text x="260" y="55" font-family="Arial, sans-serif" font-size="10" fill="#F59E0B">i</text>
      <text x="125" y="15" text-anchor="middle" font-family="Arial, sans-serif" font-size="11" font-weight="bold" fill="#1E293B">In Phase (φ = 0°)</text>
    </g>
    
    <!-- Key characteristics -->
    <g font-family="Arial, sans-serif" font-size="11" fill="#374151">
      <text x="20" y="210" font-weight="bold">• Voltage and current in phase</text>
      <text x="20" y="225">• Impedance Z = R (purely resistive)</text>
    </g>
  </g>

  <!-- Pure Inductor Circuit -->
  <g transform="translate(420,80)">
    <rect x="0" y="0" width="350" height="240" fill="url(#inductorGrad)" stroke="#1E40AF" stroke-width="3" rx="10" opacity="0.1"/>
    <rect x="0" y="0" width="350" height="240" fill="none" stroke="#1E40AF" stroke-width="3" rx="10"/>
    <text x="175" y="25" text-anchor="middle" font-family="Arial, sans-serif" font-size="18" font-weight="bold" fill="#1E293B">Pure Inductor (L)</text>
    
    <!-- Circuit diagram -->
    <g transform="translate(100,60)">
      <!-- AC source -->
      <circle cx="0" cy="30" r="20" fill="none" stroke="url(#sourceGrad)" stroke-width="3"/>
      <path d="M -8,30 Q 0,20 8,30 Q 0,40 -8,30" stroke="#DC2626" stroke-width="2" fill="none"/>
      <text x="0" y="65" text-anchor="middle" font-family="Arial, sans-serif" font-size="10" fill="#DC2626">v = V sin(ωt)</text>
      
      <!-- Inductor -->
      <g transform="translate(100,30)">
        <g stroke="url(#inductorGrad)" stroke-width="3" fill="none">
          <path d="M -30,0 Q -25,-8 -20,0 Q -15,8 -10,0 Q -5,-8 0,0 Q 5,8 10,0 Q 15,-8 20,0 Q 25,8 30,0"/>
        </g>
        <text x="0" y="-25" text-anchor="middle" font-family="Arial, sans-serif" font-size="12" fill="#1E293B">L</text>
        <text x="0" y="35" text-anchor="middle" font-family="Arial, sans-serif" font-size="10" fill="#1E40AF">i = I sin(ωt - 90°)</text>
      </g>
      
      <!-- Connecting wires -->
      <line x1="20" y1="30" x2="70" y2="30" stroke="#374151" stroke-width="3"/>
      <line x1="130" y1="30" x2="150" y2="30" stroke="#374151" stroke-width="3"/>
      <line x1="150" y1="30" x2="150" y2="80" stroke="#374151" stroke-width="3"/>
      <line x1="150" y1="80" x2="0" y2="80" stroke="#374151" stroke-width="3"/>
      <line x1="0" y1="80" x2="0" y2="50" stroke="#374151" stroke-width="3"/>
      
      <!-- Current direction -->
      <g stroke="#059669" stroke-width="2" fill="#059669">
        <line x1="45" y1="30" x2="60" y2="30" marker-end="url(#currentArrow)"/>
        <text x="52" y="20" text-anchor="middle" font-family="Arial, sans-serif" font-size="10" fill="#059669">I</text>
      </g>
    </g>
    
    <!-- Waveform -->
    <g transform="translate(50,120)">
      <!-- Axes -->
      <g stroke="#374151" stroke-width="1">
        <line x1="0" y1="50" x2="250" y2="50"/>
        <line x1="0" y1="20" x2="0" y2="80"/>
      </g>
      <!-- Current lagging voltage by 90° -->
      <path d="M 0,50 Q 31.25,30 62.5,50 Q 93.75,70 125,50 Q 156.25,30 187.5,50 Q 218.75,70 250,50" 
            stroke="#DC2626" stroke-width="3" fill="none"/>
      <path d="M 31.25,50 Q 62.5,35 93.75,50 Q 125,65 156.25,50 Q 187.5,35 218.75,50 Q 250,65 281.25,50" 
            stroke="#3B82F6" stroke-width="3" fill="none"/>
      
      <text x="260" y="35" font-family="Arial, sans-serif" font-size="10" fill="#DC2626">v</text>
      <text x="260" y="55" font-family="Arial, sans-serif" font-size="10" fill="#3B82F6">i</text>
      <text x="125" y="15" text-anchor="middle" font-family="Arial, sans-serif" font-size="11" font-weight="bold" fill="#1E293B">Current lags by 90°</text>
    </g>
    
    <!-- Key characteristics -->
    <g font-family="Arial, sans-serif" font-size="11" fill="#374151">
      <text x="20" y="210" font-weight="bold">• Current lags voltage by 90°</text>
      <text x="20" y="225">• Impedance Z = XL = ωL (inductive)</text>
    </g>
  </g>

  <!-- Pure Capacitor Circuit -->
  <g transform="translate(790,80)">
    <rect x="0" y="0" width="360" height="240" fill="url(#capacitorGrad)" stroke="#059669" stroke-width="3" rx="10" opacity="0.1"/>
    <rect x="0" y="0" width="360" height="240" fill="none" stroke="#059669" stroke-width="3" rx="10"/>
    <text x="180" y="25" text-anchor="middle" font-family="Arial, sans-serif" font-size="18" font-weight="bold" fill="#1E293B">Pure Capacitor (C)</text>
    
    <!-- Circuit diagram -->
    <g transform="translate(100,60)">
      <!-- AC source -->
      <circle cx="0" cy="30" r="20" fill="none" stroke="url(#sourceGrad)" stroke-width="3"/>
      <path d="M -8,30 Q 0,20 8,30 Q 0,40 -8,30" stroke="#DC2626" stroke-width="2" fill="none"/>
      <text x="0" y="65" text-anchor="middle" font-family="Arial, sans-serif" font-size="10" fill="#DC2626">v = V sin(ωt)</text>
      
      <!-- Capacitor -->
      <g transform="translate(100,30)">
        <g stroke="url(#capacitorGrad)" stroke-width="3">
          <line x1="-5" y1="-15" x2="-5" y2="15"/>
          <line x1="5" y1="-15" x2="5" y2="15"/>
        </g>
        <line x1="-30" y1="0" x2="-5" y2="0" stroke="#374151" stroke-width="2"/>
        <line x1="5" y1="0" x2="30" y2="0" stroke="#374151" stroke-width="2"/>
        <text x="0" y="-25" text-anchor="middle" font-family="Arial, sans-serif" font-size="12" fill="#1E293B">C</text>
        <text x="0" y="35" text-anchor="middle" font-family="Arial, sans-serif" font-size="10" fill="#10B981">i = I sin(ωt + 90°)</text>
      </g>
      
      <!-- Connecting wires -->
      <line x1="20" y1="30" x2="70" y2="30" stroke="#374151" stroke-width="3"/>
      <line x1="130" y1="30" x2="160" y2="30" stroke="#374151" stroke-width="3"/>
      <line x1="160" y1="30" x2="160" y2="80" stroke="#374151" stroke-width="3"/>
      <line x1="160" y1="80" x2="0" y2="80" stroke="#374151" stroke-width="3"/>
      <line x1="0" y1="80" x2="0" y2="50" stroke="#374151" stroke-width="3"/>
      
      <!-- Current direction -->
      <g stroke="#059669" stroke-width="2" fill="#059669">
        <line x1="45" y1="30" x2="60" y2="30" marker-end="url(#currentArrow)"/>
        <text x="52" y="20" text-anchor="middle" font-family="Arial, sans-serif" font-size="10" fill="#059669">I</text>
      </g>
    </g>
    
    <!-- Waveform -->
    <g transform="translate(50,120)">
      <!-- Axes -->
      <g stroke="#374151" stroke-width="1">
        <line x1="0" y1="50" x2="250" y2="50"/>
        <line x1="0" y1="20" x2="0" y2="80"/>
      </g>
      <!-- Current leading voltage by 90° -->
      <path d="M 0,50 Q 31.25,30 62.5,50 Q 93.75,70 125,50 Q 156.25,30 187.5,50 Q 218.75,70 250,50" 
            stroke="#DC2626" stroke-width="3" fill="none"/>
      <path d="M -31.25,50 Q 0,35 31.25,50 Q 62.5,65 93.75,50 Q 125,35 156.25,50 Q 187.5,65 218.75,50" 
            stroke="#10B981" stroke-width="3" fill="none"/>
      
      <text x="260" y="35" font-family="Arial, sans-serif" font-size="10" fill="#DC2626">v</text>
      <text x="260" y="55" font-family="Arial, sans-serif" font-size="10" fill="#10B981">i</text>
      <text x="125" y="15" text-anchor="middle" font-family="Arial, sans-serif" font-size="11" font-weight="bold" fill="#1E293B">Current leads by 90°</text>
    </g>
    
    <!-- Key characteristics -->
    <g font-family="Arial, sans-serif" font-size="11" fill="#374151">
      <text x="20" y="210" font-weight="bold">• Current leads voltage by 90°</text>
      <text x="20" y="225">• Impedance Z = XC = 1/(ωC) (capacitive)</text>
    </g>
  </g>

  <!-- RLC Series Circuit -->
  <g transform="translate(50,340)">
    <rect x="0" y="0" width="550" height="220" fill="#F3E8FF" stroke="#8B5CF6" stroke-width="3" rx="10"/>
    <text x="275" y="25" text-anchor="middle" font-family="Arial, sans-serif" font-size="20" font-weight="bold" fill="#1E293B">RLC Series Circuit</text>
    
    <!-- Circuit diagram -->
    <g transform="translate(50,60)">
      <!-- AC source -->
      <circle cx="30" cy="40" r="20" fill="none" stroke="url(#sourceGrad)" stroke-width="3"/>
      <path d="M 22,40 Q 30,30 38,40 Q 30,50 22,40" stroke="#DC2626" stroke-width="2" fill="none"/>
      <text x="30" y="75" text-anchor="middle" font-family="Arial, sans-serif" font-size="10" fill="#DC2626">V</text>
      
      <!-- Resistor -->
      <g transform="translate(120,40)">
        <rect x="-20" y="-6" width="40" height="12" fill="url(#resistorGrad)" stroke="#D97706" stroke-width="2" rx="6"/>
        <path d="M -10,0 L -5,-3 L 0,3 L 5,-3 L 10,0" stroke="white" stroke-width="1.5" fill="none"/>
        <text x="0" y="-20" text-anchor="middle" font-family="Arial, sans-serif" font-size="12" fill="#1E293B">R</text>
      </g>
      
      <!-- Inductor -->
      <g transform="translate(200,40)">
        <g stroke="url(#inductorGrad)" stroke-width="2" fill="none">
          <path d="M -20,0 Q -15,-5 -10,0 Q -5,5 0,0 Q 5,-5 10,0 Q 15,5 20,0"/>
        </g>
        <text x="0" y="-20" text-anchor="middle" font-family="Arial, sans-serif" font-size="12" fill="#1E293B">L</text>
      </g>
      
      <!-- Capacitor -->
      <g transform="translate(280,40)">
        <g stroke="url(#capacitorGrad)" stroke-width="2">
          <line x1="-3" y1="-10" x2="-3" y2="10"/>
          <line x1="3" y1="-10" x2="3" y2="10"/>
        </g>
        <line x1="-20" y1="0" x2="-3" y2="0" stroke="#374151" stroke-width="2"/>
        <line x1="3" y1="0" x2="20" y2="0" stroke="#374151" stroke-width="2"/>
        <text x="0" y="-20" text-anchor="middle" font-family="Arial, sans-serif" font-size="12" fill="#1E293B">C</text>
      </g>
      
      <!-- Connecting wires -->
      <line x1="50" y1="40" x2="100" y2="40" stroke="#374151" stroke-width="3"/>
      <line x1="140" y1="40" x2="180" y2="40" stroke="#374151" stroke-width="3"/>
      <line x1="220" y1="40" x2="260" y2="40" stroke="#374151" stroke-width="3"/>
      <line x1="300" y1="40" x2="350" y2="40" stroke="#374151" stroke-width="3"/>
      <line x1="350" y1="40" x2="350" y2="100" stroke="#374151" stroke-width="3"/>
      <line x1="350" y1="100" x2="30" y2="100" stroke="#374151" stroke-width="3"/>
      <line x1="30" y1="100" x2="30" y2="60" stroke="#374151" stroke-width="3"/>
      
      <!-- Current -->
      <g stroke="#059669" stroke-width="2" fill="#059669">
        <line x1="70" y1="40" x2="85" y2="40" marker-end="url(#currentArrow)"/>
        <text x="77" y="30" text-anchor="middle" font-family="Arial, sans-serif" font-size="12" fill="#059669">I</text>
      </g>
    </g>
    
    <!-- Impedance calculation -->
    <rect x="60" y="140" width="430" height="60" fill="#F0F9FF" stroke="#0EA5E9" stroke-width="1" rx="5"/>
    <text x="275" y="160" text-anchor="middle" font-family="Arial, sans-serif" font-size="14" font-weight="bold" fill="#1E293B">Z = √[R² + (XL - XC)²]</text>
    <text x="275" y="180" text-anchor="middle" font-family="Arial, sans-serif" font-size="12" fill="#6B7280">XL = ωL, XC = 1/(ωC), φ = tan⁻¹[(XL - XC)/R]</text>
    <text x="275" y="195" text-anchor="middle" font-family="Arial, sans-serif" font-size="11" fill="#059669">Total impedance depends on frequency</text>
  </g>

  <!-- Phasor Diagram -->
  <g transform="translate(620,340)">
    <rect x="0" y="0" width="530" height="220" fill="#FEF3C7" stroke="#F59E0B" stroke-width="3" rx="10"/>
    <text x="265" y="25" text-anchor="middle" font-family="Arial, sans-serif" font-size="20" font-weight="bold" fill="#1E293B">Phasor Diagrams</text>
    
    <!-- Resistor phasor -->
    <g transform="translate(80,80)">
      <text x="0" y="-10" text-anchor="middle" font-family="Arial, sans-serif" font-size="12" font-weight="bold" fill="#1E293B">Resistor</text>
      <!-- Axes -->
      <g stroke="#6B7280" stroke-width="1">
        <line x1="-30" y1="0" x2="50" y2="0"/>
        <line x1="0" y1="-30" x2="0" y2="30"/>
      </g>
      <!-- V and I phasors (same direction) -->
      <g stroke="#DC2626" stroke-width="3" fill="#DC2626">
        <line x1="0" y1="0" x2="40" y2="0" marker-end="url(#phasorArrow)"/>
        <text x="45" y="5" font-family="Arial, sans-serif" font-size="10" fill="#DC2626">V</text>
      </g>
      <g stroke="#F59E0B" stroke-width="3" fill="#F59E0B">
        <line x1="0" y1="0" x2="30" y2="0" marker-end="url(#phasorArrow)"/>
        <text x="35" y="-5" font-family="Arial, sans-serif" font-size="10" fill="#F59E0B">I</text>
      </g>
      <text x="0" y="45" text-anchor="middle" font-family="Arial, sans-serif" font-size="10" fill="#6B7280">φ = 0°</text>
    </g>
    
    <!-- Inductor phasor -->
    <g transform="translate(220,80)">
      <text x="0" y="-10" text-anchor="middle" font-family="Arial, sans-serif" font-size="12" font-weight="bold" fill="#1E293B">Inductor</text>
      <!-- Axes -->
      <g stroke="#6B7280" stroke-width="1">
        <line x1="-30" y1="0" x2="50" y2="0"/>
        <line x1="0" y1="-30" x2="0" y2="30"/>
      </g>
      <!-- V leads I by 90° -->
      <g stroke="#DC2626" stroke-width="3" fill="#DC2626">
        <line x1="0" y1="0" x2="0" y2="-30" marker-end="url(#phasorArrow)"/>
        <text x="5" y="-35" font-family="Arial, sans-serif" font-size="10" fill="#DC2626">V</text>
      </g>
      <g stroke="#3B82F6" stroke-width="3" fill="#3B82F6">
        <line x1="0" y1="0" x2="30" y2="0" marker-end="url(#phasorArrow)"/>
        <text x="35" y="5" font-family="Arial, sans-serif" font-size="10" fill="#3B82F6">I</text>
      </g>
      <text x="0" y="45" text-anchor="middle" font-family="Arial, sans-serif" font-size="10" fill="#6B7280">φ = +90°</text>
    </g>
    
    <!-- Capacitor phasor -->
    <g transform="translate(360,80)">
      <text x="0" y="-10" text-anchor="middle" font-family="Arial, sans-serif" font-size="12" font-weight="bold" fill="#1E293B">Capacitor</text>
      <!-- Axes -->
      <g stroke="#6B7280" stroke-width="1">
        <line x1="-30" y1="0" x2="50" y2="0"/>
        <line x1="0" y1="-30" x2="0" y2="30"/>
      </g>
      <!-- I leads V by 90° -->
      <g stroke="#DC2626" stroke-width="3" fill="#DC2626">
        <line x1="0" y1="0" x2="30" y2="0" marker-end="url(#phasorArrow)"/>
        <text x="35" y="5" font-family="Arial, sans-serif" font-size="10" fill="#DC2626">V</text>
      </g>
      <g stroke="#10B981" stroke-width="3" fill="#10B981">
        <line x1="0" y1="0" x2="0" y2="-30" marker-end="url(#phasorArrow)"/>
        <text x="5" y="-35" font-family="Arial, sans-serif" font-size="10" fill="#10B981">I</text>
      </g>
      <text x="0" y="45" text-anchor="middle" font-family="Arial, sans-serif" font-size="10" fill="#6B7280">φ = -90°</text>
    </g>
    
    <!-- Frequency effects -->
    <rect x="20" y="140" width="490" height="60" fill="#F3E8FF" stroke="#C4B5FD" stroke-width="1" rx="5"/>
    <text x="265" y="160" text-anchor="middle" font-family="Arial, sans-serif" font-size="14" font-weight="bold" fill="#1E293B">Frequency Effects</text>
    <text x="30" y="180" font-family="Arial, sans-serif" font-size="12" fill="#374151">Low f: XC >> XL → Capacitive</text>
    <text x="265" y="180" text-anchor="middle" font-family="Arial, sans-serif" font-size="12" fill="#374151">f₀: XL = XC → Resonance</text>
    <text x="480" y="180" text-anchor="end" font-family="Arial, sans-serif" font-size="12" fill="#374151">High f: XL >> XC → Inductive</text>
  </g>

  <!-- Impedance vs Frequency Graph -->
  <g transform="translate(50,580)">
    <rect x="0" y="0" width="500" height="160" fill="#F1F5F9" stroke="#CBD5E1" stroke-width="2" rx="10"/>
    <text x="250" y="25" text-anchor="middle" font-family="Arial, sans-serif" font-size="18" font-weight="bold" fill="#1E293B">Impedance vs Frequency</text>
    
    <g transform="translate(50,50)">
      <!-- Axes -->
      <g stroke="#374151" stroke-width="2">
        <line x1="0" y1="80" x2="400" y2="80"/>
        <line x1="0" y1="10" x2="0" y2="90"/>
        
        <text x="200" y="105" text-anchor="middle" font-family="Arial, sans-serif" font-size="12" fill="#374151">Frequency (Hz)</text>
        <text x="-15" y="50" text-anchor="middle" font-family="Arial, sans-serif" font-size="12" fill="#374151" transform="rotate(-90 -15 50)">Impedance</text>
      </g>
      
      <!-- XL curve (increasing) -->
      <path d="M 20,75 Q 100,60 200,40 Q 300,25 380,15" stroke="#3B82F6" stroke-width="3" fill="none"/>
      <text x="390" y="20" font-family="Arial, sans-serif" font-size="11" fill="#3B82F6">XL = ωL</text>
      
      <!-- XC curve (decreasing) -->
      <path d="M 20,15 Q 100,30 200,45 Q 300,60 380,75" stroke="#10B981" stroke-width="3" fill="none"/>
      <text x="390" y="80" font-family="Arial, sans-serif" font-size="11" fill="#10B981">XC = 1/(ωC)</text>
      
      <!-- Total impedance Z -->
      <path d="M 20,70 Q 100,55 200,50 Q 300,55 380,70" stroke="#7C3AED" stroke-width="4" fill="none"/>
      <text x="390" y="45" font-family="Arial, sans-serif" font-size="11" fill="#7C3AED">Z total</text>
      
      <!-- Resonant frequency -->
      <line x1="200" y1="10" x2="200" y2="90" stroke="#DC2626" stroke-width="2" stroke-dasharray="5,5"/>
      <text x="205" y="25" font-family="Arial, sans-serif" font-size="11" fill="#DC2626">f₀ = 1/(2π√LC)</text>
    </g>
  </g>

  <!-- Summary Table -->
  <g transform="translate(570,580)">
    <rect x="0" y="0" width="580" height="160" fill="#F0FDF4" stroke="#BBF7D0" stroke-width="2" rx="10"/>
    <text x="290" y="25" text-anchor="middle" font-family="Arial, sans-serif" font-size="18" font-weight="bold" fill="#1E293B">Component Summary</text>
    
    <!-- Table headers -->
    <g font-family="Arial, sans-serif" font-size="12" font-weight="bold" fill="#1E293B">
      <text x="30" y="50">Component</text>
      <text x="120" y="50">Impedance</text>
      <text x="220" y="50">Phase Angle</text>
      <text x="320" y="50">V-I Relationship</text>
      <text x="450" y="50">Power</text>
    </g>
    
    <!-- Table rows -->
    <g font-family="Arial, sans-serif" font-size="11" fill="#374151">
      <rect x="20" y="55" width="540" height="20" fill="#FEF3C7" opacity="0.5"/>
      <text x="30" y="68" fill="#D97706">Resistor (R)</text>
      <text x="120" y="68">Z = R</text>
      <text x="220" y="68">φ = 0°</text>
      <text x="320" y="68">In phase</text>
      <text x="450" y="68">P = I²R</text>
      
      <text x="30" y="88" fill="#1E40AF">Inductor (L)</text>
      <text x="120" y="88">Z = XL = ωL</text>
      <text x="220" y="88">φ = +90°</text>
      <text x="320" y="88">I lags V</text>
      <text x="450" y="88">P = 0 (reactive)</text>
      
      <rect x="20" y="95" width="540" height="20" fill="#F0FDF4" opacity="0.5"/>
      <text x="30" y="108" fill="#059669">Capacitor (C)</text>
      <text x="120" y="108">Z = XC = 1/(ωC)</text>
      <text x="220" y="108">φ = -90°</text>
      <text x="320" y="108">I leads V</text>
      <text x="450" y="108">P = 0 (reactive)</text>
      
      <text x="30" y="128" fill="#7C3AED">RLC Series</text>
      <text x="120" y="128">Z = √[R² + (XL-XC)²]</text>
      <text x="220" y="128">φ = tan⁻¹[(XL-XC)/R]</text>
      <text x="320" y="128">Depends on f</text>
      <text x="450" y="128">P = I²R cos φ</text>
    </g>
  </g>

  <!-- Key Points -->
  <g transform="translate(50,760)">
    <text x="0" y="0" font-family="Arial, sans-serif" font-size="14" font-weight="bold" fill="#1E293B">Key Points:</text>
    <g font-family="Arial, sans-serif" font-size="12" fill="#374151">
      <text x="100" y="0">• Only resistors dissipate power (real power)</text>
      <text x="400" y="0">• Reactances store and release energy (reactive power)</text>
      <text x="800" y="0">• At resonance: XL = XC, Z = R</text>
    </g>
  </g>
</svg>