<svg viewBox="0 0 1200 800" xmlns="http://www.w3.org/2000/svg">
  <defs>
    <linearGradient id="phaseAGrad" x1="0%" y1="0%" x2="100%" y2="100%">
      <stop offset="0%" style="stop-color:#DC2626;stop-opacity:1" />
      <stop offset="100%" style="stop-color:#991B1B;stop-opacity:1" />
    </linearGradient>
    <linearGradient id="phaseBGrad" x1="0%" y1="0%" x2="100%" y2="100%">
      <stop offset="0%" style="stop-color:#3B82F6;stop-opacity:1" />
      <stop offset="100%" style="stop-color:#1E40AF;stop-opacity:1" />
    </linearGradient>
    <linearGradient id="phaseCGrad" x1="0%" y1="0%" x2="100%" y2="100%">
      <stop offset="0%" style="stop-color:#10B981;stop-opacity:1" />
      <stop offset="100%" style="stop-color:#059669;stop-opacity:1" />
    </linearGradient>
    <linearGradient id="rotorGrad" x1="0%" y1="0%" x2="100%" y2="100%">
      <stop offset="0%" style="stop-color:#6B7280;stop-opacity:1" />
      <stop offset="100%" style="stop-color:#374151;stop-opacity:1" />
    </linearGradient>
    <linearGradient id="magnetGrad" x1="0%" y1="0%" x2="100%" y2="100%">
      <stop offset="0%" style="stop-color:#7C3AED;stop-opacity:1" />
      <stop offset="100%" style="stop-color:#5B21B6;stop-opacity:1" />
    </linearGradient>
    <filter id="glow">
      <feGaussianBlur stdDeviation="3" result="coloredBlur"/>
      <feMerge> 
        <feMergeNode in="coloredBlur"/>
        <feMergeNode in="SourceGraphic"/>
      </feMerge>
    </filter>
    <marker id="rotationArrow" markerWidth="10" markerHeight="7" refX="9" refY="3.5" orient="auto">
      <polygon points="0 0, 10 3.5, 0 7" fill="#F59E0B"/>
    </marker>
  </defs>

  <!-- Background -->
  <rect width="1200" height="800" fill="#F8FAFC"/>
  
  <!-- Title -->
  <text x="600" y="40" text-anchor="middle" font-family="Arial, sans-serif" font-size="28" font-weight="bold" fill="#1E293B">Three-Phase EMF Generation &amp; Advantages</text>
  
  <!-- Three-Phase Generator Construction -->
  <g transform="translate(50,80)">
    <rect x="0" y="0" width="500" height="280" fill="#F0FDF4" stroke="#BBF7D0" stroke-width="2" rx="10"/>
    <text x="250" y="25" text-anchor="middle" font-family="Arial, sans-serif" font-size="20" font-weight="bold" fill="#1E293B">Three-Phase Generator Construction</text>
    
    <!-- Generator cross-section -->
    <g transform="translate(250,150)">
      <!-- Stator outer ring -->
      <circle r="120" fill="none" stroke="#6B7280" stroke-width="4"/>
      <circle r="100" fill="none" stroke="#6B7280" stroke-width="2"/>
      
      <!-- Rotor (rotating magnet) -->
      <g id="rotor" transform-origin="0 0">
        <animateTransform attributeName="transform" type="rotate" 
                          values="0;360" dur="6s" repeatCount="indefinite"/>
        
        <!-- Magnet -->
        <rect x="-15" y="-60" width="30" height="120" fill="url(#magnetGrad)" stroke="#5B21B6" stroke-width="2" rx="5"/>
        <text x="0" y="-30" text-anchor="middle" font-family="Arial, sans-serif" font-size="16" font-weight="bold" fill="white">N</text>
        <text x="0" y="40" text-anchor="middle" font-family="Arial, sans-serif" font-size="16" font-weight="bold" fill="white">S</text>
        
        <!-- Rotation indicator -->
        <circle r="80" fill="none" stroke="#F59E0B" stroke-width="2" stroke-dasharray="5,5" opacity="0.7"/>
        <g transform="translate(0,-80)">
          <path d="M -10,0 Q 0,-10 10,0" stroke="#F59E0B" stroke-width="2" fill="none" marker-end="url(#rotationArrow)"/>
        </g>
      </g>
      
      <!-- Three-phase windings -->
      <!-- Phase A (Red) - 0° -->
      <g stroke="url(#phaseAGrad)" stroke-width="4" fill="url(#phaseAGrad)">
        <rect x="-5" y="-110" width="10" height="20" rx="5"/>
        <rect x="-5" y="90" width="10" height="20" rx="5"/>
        <text x="20" y="-95" font-family="Arial, sans-serif" font-size="14" font-weight="bold" fill="#DC2626">A</text>
        <text x="20" y="105" font-family="Arial, sans-serif" font-size="14" font-weight="bold" fill="#DC2626">A'</text>
      </g>
      
      <!-- Phase B (Blue) - 120° -->
      <g transform="rotate(120)" stroke="url(#phaseBGrad)" stroke-width="4" fill="url(#phaseBGrad)">
        <rect x="-5" y="-110" width="10" height="20" rx="5"/>
        <rect x="-5" y="90" width="10" height="20" rx="5"/>
        <text x="20" y="-95" font-family="Arial, sans-serif" font-size="14" font-weight="bold" fill="#3B82F6">B</text>
        <text x="20" y="105" font-family="Arial, sans-serif" font-size="14" font-weight="bold" fill="#3B82F6">B'</text>
      </g>
      
      <!-- Phase C (Green) - 240° -->
      <g transform="rotate(240)" stroke="url(#phaseCGrad)" stroke-width="4" fill="url(#phaseCGrad)">
        <rect x="-5" y="-110" width="10" height="20" rx="5"/>
        <rect x="-5" y="90" width="10" height="20" rx="5"/>
        <text x="20" y="-95" font-family="Arial, sans-serif" font-size="14" font-weight="bold" fill="#10B981">C</text>
        <text x="20" y="105" font-family="Arial, sans-serif" font-size="14" font-weight="bold" fill="#10B981">C'</text>
      </g>
      
      <!-- 120° spacing indicators -->
      <g stroke="#6B7280" stroke-width="1" stroke-dasharray="2,2" fill="none">
        <line x1="0" y1="0" x2="0" y2="-130"/>
        <line x1="0" y1="0" x2="-112.6" y2="65"/>
        <line x1="0" y1="0" x2="112.6" y2="65"/>
      </g>
      
      <!-- Angular labels -->
      <g font-family="Arial, sans-serif" font-size="12" fill="#6B7280">
        <text x="25" y="-85" fill="#DC2626">0°</text>
        <text x="-90" y="80" fill="#3B82F6">120°</text>
        <text x="75" y="80" fill="#10B981">240°</text>
      </g>
      
      <text x="0" y="155" text-anchor="middle" font-family="Arial, sans-serif" font-size="12" fill="#1E293B">120° Electrical Spacing</text>
    </g>
  </g>

  <!-- Three-Phase Waveforms -->
  <g transform="translate(570,80)">
    <rect x="0" y="0" width="580" height="280" fill="#FEF2F2" stroke="#FECACA" stroke-width="2" rx="10"/>
    <text x="290" y="25" text-anchor="middle" font-family="Arial, sans-serif" font-size="20" font-weight="bold" fill="#1E293B">Three-Phase Waveforms</text>
    
    <!-- Waveform graph -->
    <g transform="translate(50,60)">
      <!-- Grid lines -->
      <g stroke="#E5E7EB" stroke-width="1" opacity="0.5">
        <line x1="0" y1="30" x2="480" y2="30"/>
        <line x1="0" y1="100" x2="480" y2="100"/>
        <line x1="0" y1="170" x2="480" y2="170"/>
        
        <line x1="120" y1="10" x2="120" y2="190"/>
        <line x1="240" y1="10" x2="240" y2="190"/>
        <line x1="360" y1="10" x2="360" y2="190"/>
      </g>
      
      <!-- Axes -->
      <g stroke="#374151" stroke-width="2">
        <line x1="0" y1="100" x2="480" y2="100"/> <!-- X-axis -->
        <line x1="0" y1="10" x2="0" y2="190"/> <!-- Y-axis -->
        
        <!-- Labels -->
        <text x="240" y="210" text-anchor="middle" font-family="Arial, sans-serif" font-size="12" fill="#374151">Time (ωt)</text>
        <text x="-20" y="105" text-anchor="middle" font-family="Arial, sans-serif" font-size="12" fill="#374151" transform="rotate(-90 -20 105)">EMF</text>
      </g>
      
      <!-- Phase A waveform (0°) -->
      <path d="M 0,100 Q 60,30 120,100 Q 180,170 240,100 Q 300,30 360,100 Q 420,170 480,100" 
            stroke="url(#phaseAGrad)" stroke-width="4" fill="none" filter="url(#glow)"/>
      
      <!-- Phase B waveform (120° lagging) -->
      <path d="M 40,100 Q 100,30 160,100 Q 220,170 280,100 Q 340,30 400,100 Q 460,170 520,100" 
            stroke="url(#phaseBGrad)" stroke-width="4" fill="none" filter="url(#glow)"/>
      
      <!-- Phase C waveform (240° lagging) -->
      <path d="M 80,100 Q 140,30 200,100 Q 260,170 320,100 Q 380,30 440,100 Q 500,170 560,100" 
            stroke="url(#phaseCGrad)" stroke-width="4" fill="none" filter="url(#glow)"/>
      
      <!-- Phase labels -->
      <g font-family="Arial, sans-serif" font-size="12" font-weight="bold">
        <text x="490" y="45" fill="#DC2626">EA</text>
        <text x="490" y="85" fill="#3B82F6">EB</text>
        <text x="490" y="125" fill="#10B981">EC</text>
      </g>
      
      <!-- Angular markings -->
      <g font-family="Arial, sans-serif" font-size="10" fill="#6B7280">
        <text x="60" y="205">π/2</text>
        <text x="115" y="205">π</text>
        <text x="225" y="205">2π</text>
        <text x="355" y="205">3π</text>
      </g>
      
      <!-- Phase difference indicators -->
      <g stroke="#F59E0B" stroke-width="2" fill="none">
        <path d="M 0,180 Q 20,175 40,180"/>
        <text x="20" y="195" text-anchor="middle" font-family="Arial, sans-serif" font-size="10" fill="#F59E0B">120°</text>
        
        <path d="M 40,180 Q 60,175 80,180"/>
        <text x="60" y="195" text-anchor="middle" font-family="Arial, sans-serif" font-size="10" fill="#F59E0B">120°</text>
      </g>
    </g>
  </g>

  <!-- Phasor Diagram -->
  <g transform="translate(50,380)">
    <rect x="0" y="0" width="350" height="200" fill="#F3E8FF" stroke="#8B5CF6" stroke-width="2" rx="10"/>
    <text x="175" y="25" text-anchor="middle" font-family="Arial, sans-serif" font-size="18" font-weight="bold" fill="#1E293B">Phasor Diagram</text>
    
    <g transform="translate(175,110)">
      <!-- Reference circle -->
      <circle r="70" fill="none" stroke="#E5E7EB" stroke-width="2" stroke-dasharray="3,3"/>
      
      <!-- Axes -->
      <g stroke="#6B7280" stroke-width="1">
        <line x1="-80" y1="0" x2="80" y2="0"/>
        <line x1="0" y1="-80" x2="0" y2="80"/>
      </g>
      
      <!-- Phase A phasor (reference) -->
      <g stroke="url(#phaseAGrad)" stroke-width="4" fill="url(#phaseAGrad)">
        <line x1="0" y1="0" x2="70" y2="0" marker-end="url(#rotationArrow)"/>
        <text x="85" y="5" font-family="Arial, sans-serif" font-size="14" font-weight="bold" fill="#DC2626">EA</text>
        <text x="85" y="-10" font-family="Arial, sans-serif" font-size="10" fill="#DC2626">0°</text>
      </g>
      
      <!-- Phase B phasor (120° behind) -->
      <g transform="rotate(240)" stroke="url(#phaseBGrad)" stroke-width="4" fill="url(#phaseBGrad)">
        <line x1="0" y1="0" x2="70" y2="0" marker-end="url(#rotationArrow)"/>
        <text x="85" y="5" font-family="Arial, sans-serif" font-size="14" font-weight="bold" fill="#3B82F6">EB</text>
        <text x="85" y="-10" font-family="Arial, sans-serif" font-size="10" fill="#3B82F6">-120°</text>
      </g>
      
      <!-- Phase C phasor (240° behind) -->
      <g transform="rotate(120)" stroke="url(#phaseCGrad)" stroke-width="4" fill="url(#phaseCGrad)">
        <line x1="0" y1="0" x2="70" y2="0" marker-end="url(#rotationArrow)"/>
        <text x="85" y="5" font-family="Arial, sans-serif" font-size="14" font-weight="bold" fill="#10B981">EC</text>
        <text x="85" y="-10" font-family="Arial, sans-serif" font-size="10" fill="#10B981">-240°</text>
      </g>
      
      <!-- Angle indicators -->
      <g stroke="#F59E0B" stroke-width="2" fill="none">
        <path d="M 50,0 Q 48.3,-12.9 43.3,-25"/>
        <path d="M 43.3,25 Q 48.3,12.9 50,0"/>
        <text x="55" y="-15" font-family="Arial, sans-serif" font-size="10" fill="#F59E0B">120°</text>
        <text x="55" y="25" font-family="Arial, sans-serif" font-size="10" fill="#F59E0B">120°</text>
      </g>
    </g>
    
    <!-- Phasor equations -->
    <g font-family="Arial, sans-serif" font-size="11" fill="#374151">
      <text x="20" y="170" fill="#DC2626">EA = E sin(ωt)</text>
      <text x="20" y="185" fill="#3B82F6">EB = E sin(ωt - 120°)</text>
      <text x="200" y="170" fill="#10B981">EC = E sin(ωt - 240°)</text>
      <text x="200" y="185" fill="#7C3AED">EA + EB + EC = 0</text>
    </g>
  </g>

  <!-- Mathematical Analysis -->
  <g transform="translate(420,380)">
    <rect x="0" y="0" width="380" height="200" fill="#FEF3C7" stroke="#F59E0B" stroke-width="2" rx="10"/>
    <text x="190" y="25" text-anchor="middle" font-family="Arial, sans-serif" font-size="18" font-weight="bold" fill="#1E293B">Mathematical Analysis</text>
    
    <!-- Balanced system properties -->
    <g font-family="Arial, sans-serif" fill="#1E293B">
      <text x="30" y="50" font-size="14" font-weight="bold">Balanced Three-Phase System:</text>
      
      <text x="40" y="70" font-size="12">1. Equal magnitudes: |EA| = |EB| = |EC| = E</text>
      <text x="40" y="85" font-size="12">2. Equal phase differences: 120° apart</text>
      <text x="40" y="100" font-size="12">3. Sum of phasors: EA + EB + EC = 0</text>
      
      <text x="30" y="125" font-size="14" font-weight="bold" fill="#D97706">Instantaneous Values:</text>
      <rect x="30" y="135" width="320" height="55" fill="#F0F9FF" stroke="#0EA5E9" stroke-width="1" rx="5"/>
      <text x="40" y="152" font-size="11" fill="#DC2626">ea = E sin(ωt)</text>
      <text x="40" y="167" font-size="11" fill="#3B82F6">eb = E sin(ωt - 120°) = E sin(ωt - 2π/3)</text>
      <text x="40" y="182" font-size="11" fill="#10B981">ec = E sin(ωt - 240°) = E sin(ωt - 4π/3)</text>
    </g>
  </g>

  <!-- Single Phase vs Three Phase Comparison -->
  <g transform="translate(820,380)">
    <rect x="0" y="0" width="330" height="200" fill="#F1F5F9" stroke="#CBD5E1" stroke-width="2" rx="10"/>
    <text x="165" y="25" text-anchor="middle" font-family="Arial, sans-serif" font-size="16" font-weight="bold" fill="#1E293B">Single vs Three Phase</text>
    
    <!-- Single phase -->
    <g transform="translate(50,50)">
      <rect x="0" y="0" width="100" height="60" fill="#FEE2E2" stroke="#EF4444" stroke-width="1" rx="5"/>
      <text x="50" y="18" text-anchor="middle" font-family="Arial, sans-serif" font-size="12" font-weight="bold" fill="#1E293B">Single Phase</text>
      
      <!-- Single phase waveform -->
      <g transform="translate(50,30)">
        <path d="M -30,0 Q -15,-10 0,0 Q 15,10 30,0" stroke="#EF4444" stroke-width="2" fill="none"/>
      </g>
      
      <text x="50" y="52" text-anchor="middle" font-family="Arial, sans-serif" font-size="10" fill="#374151">Pulsating power</text>
    </g>
    
    <!-- Three phase -->
    <g transform="translate(180,50)">
      <rect x="0" y="0" width="100" height="60" fill="#DCFCE7" stroke="#16A34A" stroke-width="1" rx="5"/>
      <text x="50" y="18" text-anchor="middle" font-family="Arial, sans-serif" font-size="12" font-weight="bold" fill="#1E293B">Three Phase</text>
      
      <!-- Three phase power -->
      <g transform="translate(50,30)">
        <line x1="-30" y1="0" x2="30" y2="0" stroke="#16A34A" stroke-width="3"/>
        <text x="0" y="-8" text-anchor="middle" font-family="Arial, sans-serif" font-size="8" fill="#16A34A">Constant</text>
      </g>
      
      <text x="50" y="52" text-anchor="middle" font-family="Arial, sans-serif" font-size="10" fill="#374151">Constant power</text>
    </g>
    
    <!-- Advantages list -->
    <g font-family="Arial, sans-serif" font-size="11" fill="#374151">
      <text x="20" y="135" font-weight="bold" fill="#16A34A">Three-Phase Advantages:</text>
      <text x="30" y="150">• Constant power flow</text>
      <text x="30" y="165">• Better efficiency</text>
      <text x="30" y="180">• Smaller conductor size</text>
      <text x="30" y="195">• Self-starting motors</text>
    </g>
  </g>

  <!-- Advantages of Three-Phase System -->
  <g transform="translate(50,600)">
    <rect x="0" y="0" width="1100" height="140" fill="#DCFCE7" stroke="#16A34A" stroke-width="3" rx="10"/>
    <text x="550" y="25" text-anchor="middle" font-family="Arial, sans-serif" font-size="20" font-weight="bold" fill="#1E293B">Advantages of Three-Phase System</text>
    
    <!-- Advantage 1 -->
    <g transform="translate(50,50)">
      <rect x="0" y="0" width="150" height="70" fill="#F0FDF4" stroke="#BBF7D0" stroke-width="1" rx="5"/>
      <text x="75" y="18" text-anchor="middle" font-family="Arial, sans-serif" font-size="12" font-weight="bold" fill="#1E293B">Constant Power</text>
      <text x="10" y="35" font-family="Arial, sans-serif" font-size="10" fill="#374151">• No power pulsations</text>
      <text x="10" y="48" font-family="Arial, sans-serif" font-size="10" fill="#374151">• Smooth motor operation</text>
      <text x="10" y="61" font-family="Arial, sans-serif" font-size="10" fill="#374151">• Reduced vibrations</text>
    </g>
    
    <!-- Advantage 2 -->
    <g transform="translate(220,50)">
      <rect x="0" y="0" width="150" height="70" fill="#FEF3C7" stroke="#F59E0B" stroke-width="1" rx="5"/>
      <text x="75" y="18" text-anchor="middle" font-family="Arial, sans-serif" font-size="12" font-weight="bold" fill="#1E293B">Economic</text>
      <text x="10" y="35" font-family="Arial, sans-serif" font-size="10" fill="#374151">• Less copper required</text>
      <text x="10" y="48" font-family="Arial, sans-serif" font-size="10" fill="#374151">• 25% material saving</text>
      <text x="10" y="61" font-family="Arial, sans-serif" font-size="10" fill="#374151">• Lower installation cost</text>
    </g>
    
    <!-- Advantage 3 -->
    <g transform="translate(390,50)">
      <rect x="0" y="0" width="150" height="70" fill="#DBEAFE" stroke="#3B82F6" stroke-width="1" rx="5"/>
      <text x="75" y="18" text-anchor="middle" font-family="Arial, sans-serif" font-size="12" font-weight="bold" fill="#1E293B">Motor Performance</text>
      <text x="10" y="35" font-family="Arial, sans-serif" font-size="10" fill="#374151">• Self-starting torque</text>
      <text x="10" y="48" font-family="Arial, sans-serif" font-size="10" fill="#374151">• Higher efficiency</text>
      <text x="10" y="61" font-family="Arial, sans-serif" font-size="10" fill="#374151">• Better speed control</text>
    </g>
    
    <!-- Advantage 4 -->
    <g transform="translate(560,50)">
      <rect x="0" y="0" width="150" height="70" fill="#FEE2E2" stroke="#EF4444" stroke-width="1" rx="5"/>
      <text x="75" y="18" text-anchor="middle" font-family="Arial, sans-serif" font-size="12" font-weight="bold" fill="#1E293B">Power Rating</text>
      <text x="10" y="35" font-family="Arial, sans-serif" font-size="10" fill="#374151">• Higher power capability</text>
      <text x="10" y="48" font-family="Arial, sans-serif" font-size="10" fill="#374151">• Same size transformer</text>
      <text x="10" y="61" font-family="Arial, sans-serif" font-size="10" fill="#374151">• 50% more power</text>
    </g>
    
    <!-- Advantage 5 -->
    <g transform="translate(730,50)">
      <rect x="0" y="0" width="150" height="70" fill="#F3E8FF" stroke="#8B5CF6" stroke-width="1" rx="5"/>
      <text x="75" y="18" text-anchor="middle" font-family="Arial, sans-serif" font-size="12" font-weight="bold" fill="#1E293B">Voltage Options</text>
      <text x="10" y="35" font-family="Arial, sans-serif" font-size="10" fill="#374151">• Two voltage levels</text>
      <text x="10" y="48" font-family="Arial, sans-serif" font-size="10" fill="#374151">• Line &amp; phase voltage</text>
      <text x="10" y="61" font-family="Arial, sans-serif" font-size="10" fill="#374151">• Flexible applications</text>
    </g>
    
    <!-- Advantage 6 -->
    <g transform="translate(900,50)">
      <rect x="0" y="0" width="150" height="70" fill="#FDF2F8" stroke="#EC4899" stroke-width="1" rx="5"/>
      <text x="75" y="18" text-anchor="middle" font-family="Arial, sans-serif" font-size="12" font-weight="bold" fill="#1E293B">Rotating Field</text>
      <text x="10" y="35" font-family="Arial, sans-serif" font-size="10" fill="#374151">• Natural rotating field</text>
      <text x="10" y="48" font-family="Arial, sans-serif" font-size="10" fill="#374151">• No starting circuits</text>
      <text x="10" y="61" font-family="Arial, sans-serif" font-size="10" fill="#374151">• Simple motor design</text>
    </g>
  </g>

  <!-- Applications -->
  <g transform="translate(50,760)">
    <text x="0" y="0" font-family="Arial, sans-serif" font-size="16" font-weight="bold" fill="#1E293B">Applications:</text>
    <g font-family="Arial, sans-serif" font-size="12" fill="#374151">
      <text x="120" y="0">• Power transmission &amp; distribution</text>
      <text x="380" y="0">• Industrial motors &amp; machinery</text>
      <text x="650" y="0">• Large heating &amp; welding equipment</text>
      <text x="950" y="0">• Power factor improvement</text>
    </g>
    <text x="0" y="25" font-family="Arial, sans-serif" font-size="12" fill="#6B7280">Standard frequencies: 50Hz (India, Europe) | 60Hz (USA, Canada)</text>
  </g>
</svg>