<svg viewBox="0 0 900 600" xmlns="http://www.w3.org/2000/svg">
  <defs>
    <style>
      .title { font: bold 16px Arial; text-anchor: middle; }
      .label { font: 12px Arial; text-anchor: middle; }
      .axis { font: 10px Arial; }
      .concept { fill: #e3f2fd; stroke: #1976d2; stroke-width: 2; }
      .am-block { fill: #e8f5e8; stroke: #4caf50; stroke-width: 2; }
      .fm-block { fill: #fff3e0; stroke: #ff9800; stroke-width: 2; }
      .block-text { font: 11px Arial; text-anchor: middle; }
      .wave { fill: none; stroke-width: 2; }
      .carrier { stroke: #1976d2; }
      .modulating { stroke: #f44336; }
      .am-signal { stroke: #4caf50; stroke-width: 3; }
      .fm-signal { stroke: #ff9800; stroke-width: 3; }
      .description { font: 11px Arial; }
      .section-title { font: bold 14px Arial; text-anchor: middle; }
      .antenna { stroke: #333; stroke-width: 2; }
    </style>
  </defs>
  
  <!-- Title -->
  <text x="450" y="25" class="title">Modulation Fundamentals and AM vs FM Comparison</text>
  
  <!-- What is Modulation Section -->
  <g transform="translate(50, 50)">
    <text x="200" y="15" class="section-title" fill="#1976d2">What is Modulation?</text>
    
    <rect x="0" y="25" width="400" height="60" class="concept" rx="5"/>
    <text x="200" y="45" class="block-text" font-weight="bold">Modulation is the process of varying one or more properties</text>
    <text x="200" y="58" class="block-text" font-weight="bold">of a high-frequency carrier signal with a modulating signal</text>
    <text x="200" y="71" class="block-text" font-weight="bold">containing information to be transmitted</text>
    
    <!-- Simple diagram showing modulation concept -->
    <g transform="translate(0, 100)">
      <!-- Information signal -->
      <text x="80" y="15" class="axis">Information Signal</text>
      <path class="wave modulating" d="M20,25 Q50,15 80,30 Q110,45 140,25"/>
      
      <!-- Carrier signal -->
      <text x="250" y="15" class="axis">Carrier Signal</text>
      <path class="wave carrier" d="M180,25 Q190,20 200,25 Q210,30 220,25 Q230,20 240,25 Q250,30 260,25 Q270,20 280,25 Q290,30 300,25"/>
      
      <!-- Modulated signal -->
      <text x="380" y="15" class="axis">Modulated Signal</text>
      <path class="wave am-signal" d="M320,25 Q325,18 330,25 Q335,32 340,25 Q345,16 350,25 Q355,34 360,25 Q365,14 370,25 Q375,36 380,25 Q385,12 390,25 Q395,38 400,25 Q405,10 410,25 Q415,40 420,25"/>
      
      <!-- Arrow indicators -->
      <polygon points="150,25 170,20 170,30" fill="#666"/>
      <polygon points="310,25 330,20 330,30" fill="#666"/>
      <text x="160" y="40" class="axis">+</text>
      <text x="320" y="40" class="axis">=</text>
    </g>
  </g>
  
  <!-- Need for Modulation -->
  <g transform="translate(500, 50)">
    <text x="170" y="15" class="section-title" fill="#1976d2">Need for Modulation</text>
    
    <!-- Antenna Size -->
    <g transform="translate(0, 30)">
      <rect x="0" y="0" width="160" height="35" fill="#ffebee" stroke="#f44336" rx="3"/>
      <text x="80" y="15" class="block-text" font-weight="bold">Antenna Size Reduction</text>
      <text x="80" y="28" class="block-text">λ = c/f (Higher f = Smaller antenna)</text>
    </g>
    
    <!-- Multiplexing -->
    <g transform="translate(170, 30)">
      <rect x="0" y="0" width="160" height="35" fill="#e8f5e8" stroke="#4caf50" rx="3"/>
      <text x="80" y="15" class="block-text" font-weight="bold">Frequency Multiplexing</text>
      <text x="80" y="28" class="block-text">Multiple signals share spectrum</text>
    </g>
    
    <!-- Range -->
    <g transform="translate(0, 70)">
      <rect x="0" y="0" width="160" height="35" fill="#e3f2fd" stroke="#2196f3" rx="3"/>
      <text x="80" y="15" class="block-text" font-weight="bold">Transmission Range</text>
      <text x="80" y="28" class="block-text">High frequency travels farther</text>
    </g>
    
    <!-- Interference -->
    <g transform="translate(170, 70)">
      <rect x="0" y="0" width="160" height="35" fill="#fff3e0" stroke="#ff9800" rx="3"/>
      <text x="80" y="15" class="block-text" font-weight="bold">Noise Immunity</text>
      <text x="80" y="28" class="block-text">Reduces interference effects</text>
    </g>
    
    <!-- Visual antenna comparison -->
    <g transform="translate(50, 120)">
      <text x="100" y="15" class="axis">Antenna Size Comparison</text>
      <!-- Low frequency antenna (large) -->
      <line x1="20" y1="30" x2="20" y2="80" class="antenna"/>
      <text x="30" y="45" class="axis">Low freq</text>
      <text x="30" y="58" class="axis">(Large)</text>
      
      <!-- High frequency antenna (small) -->
      <line x1="150" y1="45" x2="150" y2="65" class="antenna"/>
      <text x="160" y="55" class="axis">High freq</text>
      <text x="160" y="68" class="axis">(Small)</text>
    </g>
  </g>
  
  <!-- AM vs FM Comparison -->
  <g transform="translate(50, 280)">
    <text x="400" y="15" class="section-title" fill="#7b1fa2">AM vs FM Comparison</text>
    
    <!-- Table Header -->
    <rect x="0" y="25" width="150" height="30" fill="#f5f5f5" stroke="#666"/>
    <text x="75" y="45" class="block-text" font-weight="bold">Parameter</text>
    
    <rect x="150" y="25" width="300" height="30" class="am-block"/>
    <text x="300" y="45" class="block-text" font-weight="bold">AM (Amplitude Modulation)</text>
    
    <rect x="450" y="25" width="300" height="30" class="fm-block"/>
    <text x="600" y="45" class="block-text" font-weight="bold">FM (Frequency Modulation)</text>
    
    <!-- Parameter Varied -->
    <rect x="0" y="55" width="150" height="25" fill="#f5f5f5" stroke="#666"/>
    <text x="75" y="72" class="block-text">Parameter Varied</text>
    
    <rect x="150" y="55" width="300" height="25" class="am-block"/>
    <text x="300" y="72" class="block-text">Amplitude of carrier</text>
    
    <rect x="450" y="55" width="300" height="25" class="fm-block"/>
    <text x="600" y="72" class="block-text">Frequency of carrier</text>
    
    <!-- Bandwidth -->
    <rect x="0" y="80" width="150" height="25" fill="#f5f5f5" stroke="#666"/>
    <text x="75" y="97" class="block-text">Bandwidth</text>
    
    <rect x="150" y="80" width="300" height="25" class="am-block"/>
    <text x="300" y="97" class="block-text">Narrow (2 × fm)</text>
    
    <rect x="450" y="80" width="300" height="25" class="fm-block"/>
    <text x="600" y="97" class="block-text">Wide (2 × mf × fm)</text>
    
    <!-- Noise Immunity -->
    <rect x="0" y="105" width="150" height="25" fill="#f5f5f5" stroke="#666"/>
    <text x="75" y="122" class="block-text">Noise Immunity</text>
    
    <rect x="150" y="105" width="300" height="25" class="am-block"/>
    <text x="300" y="122" class="block-text">Poor (amplitude sensitive)</text>
    
    <rect x="450" y="105" width="300" height="25" class="fm-block"/>
    <text x="600" y="122" class="block-text">Excellent (frequency based)</text>
    
    <!-- Power Efficiency -->
    <rect x="0" y="130" width="150" height="25" fill="#f5f5f5" stroke="#666"/>
    <text x="75" y="147" class="block-text">Power Efficiency</text>
    
    <rect x="150" y="130" width="300" height="25" class="am-block"/>
    <text x="300" y="147" class="block-text">Less efficient (carrier power waste)</text>
    
    <rect x="450" y="130" width="300" height="25" class="fm-block"/>
    <text x="600" y="147" class="block-text">More efficient (constant amplitude)</text>
    
    <!-- Circuit Complexity -->
    <rect x="0" y="155" width="150" height="25" fill="#f5f5f5" stroke="#666"/>
    <text x="75" y="172" class="block-text">Circuit Complexity</text>
    
    <rect x="150" y="155" width="300" height="25" class="am-block"/>
    <text x="300" y="172" class="block-text">Simple (envelope detection)</text>
    
    <rect x="450" y="155" width="300" height="25" class="fm-block"/>
    <text x="600" y="172" class="block-text">Complex (frequency discrimination)</text>
    
    <!-- Quality -->
    <rect x="0" y="180" width="150" height="25" fill="#f5f5f5" stroke="#666"/>
    <text x="75" y="197" class="block-text">Audio Quality</text>
    
    <rect x="150" y="180" width="300" height="25" class="am-block"/>
    <text x="300" y="197" class="block-text">Moderate (noise affects quality)</text>
    
    <rect x="450" y="180" width="300" height="25" class="fm-block"/>
    <text x="600" y="197" class="block-text">High fidelity (noise immunity)</text>
    
    <!-- Applications -->
    <rect x="0" y="205" width="150" height="25" fill="#f5f5f5" stroke="#666"/>
    <text x="75" y="222" class="block-text">Applications</text>
    
    <rect x="150" y="205" width="300" height="25" class="am-block"/>
    <text x="300" y="222" class="block-text">Medium wave broadcasting</text>
    
    <rect x="450" y="205" width="300" height="25" class="fm-block"/>
    <text x="600" y="222" class="block-text">High-fidelity broadcasting</text>
  </g>
  
  <!-- Visual Comparison of AM and FM Waveforms -->
  <g transform="translate(50, 520)">
    <text x="400" y="15" class="section-title" fill="#7b1fa2">Waveform Comparison</text>
    
    <!-- AM Waveform -->
    <g transform="translate(0, 30)">
      <text x="150" y="0" class="label" fill="#4caf50">AM Signal</text>
      <path class="wave am-signal" d="M20,20 Q25,10 30,20 Q35,30 40,20 Q45,8 50,20 Q55,32 60,20 Q65,6 70,20 Q75,34 80,20 Q85,4 90,20 Q95,36 100,20 Q105,2 110,20 Q115,38 120,20 Q125,6 130,20 Q135,34 140,20 Q145,8 150,20 Q155,32 160,20 Q165,10 170,20 Q175,30 180,20 Q185,12 190,20 Q195,28 200,20 Q205,14 210,20 Q215,26 220,20 Q225,16 230,20 Q235,24 240,20 Q245,18 250,20 Q255,22 260,20 Q265,19 270,20 Q275,21 280,20">
        <animate attributeName="d" values="M20,20 Q25,10 30,20 Q35,30 40,20 Q45,8 50,20 Q55,32 60,20 Q65,6 70,20 Q75,34 80,20 Q85,4 90,20 Q95,36 100,20 Q105,2 110,20 Q115,38 120,20 Q125,6 130,20 Q135,34 140,20 Q145,8 150,20 Q155,32 160,20 Q165,10 170,20 Q175,30 180,20 Q185,12 190,20 Q195,28 200,20 Q205,14 210,20 Q215,26 220,20 Q225,16 230,20 Q235,24 240,20 Q245,18 250,20 Q255,22 260,20 Q265,19 270,20 Q275,21 280,20;M20,20 Q25,12 30,20 Q35,28 40,20 Q45,10 50,20 Q55,30 60,20 Q65,8 70,20 Q75,32 80,20 Q85,6 90,20 Q95,34 100,20 Q105,4 110,20 Q115,36 120,20 Q125,8 130,20 Q135,32 140,20 Q145,10 150,20 Q155,30 160,20 Q165,12 170,20 Q175,28 180,20 Q185,14 190,20 Q195,26 200,20 Q205,16 210,20 Q215,24 220,20 Q225,18 230,20 Q235,22 240,20 Q245,19 250,20 Q255,21 260,20 Q265,20 270,20 Q275,20 280,20;M20,20 Q25,10 30,20 Q35,30 40,20 Q45,8 50,20 Q55,32 60,20 Q65,6 70,20 Q75,34 80,20 Q85,4 90,20 Q95,36 100,20 Q105,2 110,20 Q115,38 120,20 Q125,6 130,20 Q135,34 140,20 Q145,8 150,20 Q155,32 160,20 Q165,10 170,20 Q175,30 180,20 Q185,12 190,20 Q195,28 200,20 Q205,14 210,20 Q215,26 220,20 Q225,16 230,20 Q235,24 240,20 Q245,18 250,20 Q255,22 260,20 Q265,19 270,20 Q275,21 280,20" dur="4s" repeatCount="indefinite"/>
      </path>
      <text x="150" y="50" class="description">Amplitude varies with modulating signal</text>
    </g>
    
    <!-- FM Waveform -->
    <g transform="translate(400, 30)">
      <text x="150" y="0" class="label" fill="#ff9800">FM Signal</text>
      <path class="wave fm-signal" d="M20,20 Q22,15 24,20 Q26,25 28,20 Q29,18 30,20 Q31,22 32,20 Q33,17 34,20 Q35,23 36,20 Q37,16 38,20 Q39,24 40,20 Q41,15 42,20 Q43,25 44,20 Q44.5,18 45,20 Q45.5,22 46,20 Q46.5,17 47,20 Q47.5,23 48,20 Q48.5,16 49,20 Q49.5,24 50,20 Q51,14 52,20 Q53,26 54,20 Q55,12 56,20 Q57,28 58,20 Q59,10 60,20 Q61,30 62,20 Q63,8 64,20 Q65,32 66,20 Q67,6 68,20 Q69,34 70,20 Q71,4 72,20 Q73,36 74,20 Q75,2 76,20 Q77,38 78,20 Q79,4 80,20 Q81,36 82,20 Q83,6 84,20 Q85,34 86,20 Q87,8 88,20 Q89,32 90,20 Q91,10 92,20 Q93,30 94,20 Q95,12 96,20 Q97,28 98,20 Q99,14 100,20 Q101,26 102,20 Q103,16 104,20 Q105,24 106,20 Q106.5,18 107,20 Q107.5,22 108,20 Q108.5,17 109,20 Q109.5,23 110,20 Q110.5,16 111,20 Q111.5,24 112,20 Q112.5,15 113,20 Q113.5,25 114,20 Q115,17 116,20 Q117,23 118,20 Q119,18 120,20 Q121,22 122,20 Q123,19 124,20 Q125,21 126,20 Q127,19.5 128,20 Q129,20.5 130,20 Q131,19.8 132,20 Q133,20.2 134,20 Q135,19.9 136,20 Q137,20.1 138,20 Q139,20 140,20 Q141,20 142,20 Q143,20 144,20 Q145,20 146,20 Q147,20 148,20 Q149,20 150,20 Q151,20 152,20 Q153,20 154,20 Q155,20 156,20 Q157,20 158,20 Q159,20 160,20 Q161,20 162,20 Q163,20 164,20 Q165,20 166,20 Q167,20 168,20 Q169,20 170,20 Q171,20 172,20 Q173,20 174,20 Q175,20 176,20 Q177,20 178,20 Q179,20 180,20 Q181,20 182,20 Q183,20 184,20 Q185,20 186,20 Q187,20 188,20 Q189,20 190,20 Q191,20 192,20 Q193,20 194,20 Q195,20 196,20 Q197,20 198,20 Q199,20 200,20 Q201,19 202,20 Q203,21 204,20 Q205,18 206,20 Q207,22 208,20 Q209,17 210,20 Q211,23 212,20 Q213,16 214,20 Q215,24 216,20 Q217,15 218,20 Q219,25 220,20 Q221,14 222,20 Q223,26 224,20 Q225,13 226,20 Q227,27 228,20 Q229,12 230,20 Q231,28 232,20 Q233,11 234,20 Q235,29 236,20 Q237,10 238,20 Q239,30 240,20 Q241,9 242,20 Q243,31 244,20 Q245,8 246,20 Q247,32 248,20 Q249,7 250,20 Q251,33 252,20 Q253,6 254,20 Q255,34 256,20 Q257,5 258,20 Q259,35 260,20 Q261,4 262,20 Q263,36 264,20 Q265,3 266,20 Q267,37 268,20 Q269,2 270,20 Q271,38 272,20 Q273,1 274,20 Q275,39 276,20 Q277,2 278,20 Q279,38 280,20">
        <animate attributeName="d" values="M20,20 Q22,15 24,20 Q26,25 28,20 Q29,18 30,20 Q31,22 32,20 Q33,17 34,20 Q35,23 36,20 Q37,16 38,20 Q39,24 40,20 Q41,15 42,20 Q43,25 44,20 Q44.5,18 45,20 Q45.5,22 46,20 Q46.5,17 47,20 Q47.5,23 48,20 Q48.5,16 49,20 Q49.5,24 50,20 Q51,14 52,20 Q53,26 54,20 Q55,12 56,20 Q57,28 58,20 Q59,10 60,20 Q61,30 62,20 Q63,8 64,20 Q65,32 66,20 Q67,6 68,20 Q69,34 70,20 Q71,4 72,20 Q73,36 74,20 Q75,2 76,20 Q77,38 78,20 Q79,4 80,20 Q81,36 82,20 Q83,6 84,20 Q85,34 86,20 Q87,8 88,20 Q89,32 90,20 Q91,10 92,20 Q93,30 94,20 Q95,12 96,20 Q97,28 98,20 Q99,14 100,20 Q101,26 102,20 Q103,16 104,20 Q105,24 106,20 Q106.5,18 107,20 Q107.5,22 108,20 Q108.5,17 109,20 Q109.5,23 110,20 Q110.5,16 111,20 Q111.5,24 112,20 Q112.5,15 113,20 Q113.5,25 114,20 Q115,17 116,20 Q117,23 118,20 Q119,18 120,20 Q121,22 122,20 Q123,19 124,20 Q125,21 126,20 Q127,19.5 128,20 Q129,20.5 130,20 Q131,19.8 132,20 Q133,20.2 134,20 Q135,19.9 136,20 Q137,20.1 138,20 Q139,20 140,20 Q141,20 142,20 Q143,20 144,20 Q145,20 146,20 Q147,20 148,20 Q149,20 150,20 Q151,20 152,20 Q153,20 154,20 Q155,20 156,20 Q157,20 158,20 Q159,20 160,20 Q161,20 162,20 Q163,20 164,20 Q165,20 166,20 Q167,20 168,20 Q169,20 170,20 Q171,20 172,20 Q173,20 174,20 Q175,20 176,20 Q177,20 178,20 Q179,20 180,20 Q181,20 182,20 Q183,20 184,20 Q185,20 186,20 Q187,20 188,20 Q189,20 190,20 Q191,20 192,20 Q193,20 194,20 Q195,20 196,20 Q197,20 198,20 Q199,20 200,20 Q201,19 202,20 Q203,21 204,20 Q205,18 206,20 Q207,22 208,20 Q209,17 210,20 Q211,23 212,20 Q213,16 214,20 Q215,24 216,20 Q217,15 218,20 Q219,25 220,20 Q221,14 222,20 Q223,26 224,20 Q225,13 226,20 Q227,27 228,20 Q229,12 230,20 Q231,28 232,20 Q233,11 234,20 Q235,29 236,20 Q237,10 238,20 Q239,30 240,20 Q241,9 242,20 Q243,31 244,20 Q245,8 246,20 Q247,32 248,20 Q249,7 250,20 Q251,33 252,20 Q253,6 254,20 Q255,34 256,20 Q257,5 258,20 Q259,35 260,20 Q261,4 262,20 Q263,36 264,20 Q265,3 266,20 Q267,37 268,20 Q269,2 270,20 Q271,38 272,20 Q273,1 274,20 Q275,39 276,20 Q277,2 278,20 Q279,38 280,20;M20,20 Q21,16 22,20 Q23,24 24,20 Q25,18 26,20 Q27,22 28,20 Q29,19 30,20 Q31,21 32,20 Q33,19.5 34,20 Q35,20.5 36,20 Q37,19.8 38,20 Q39,20.2 40,20 Q41,19.9 42,20 Q43,20.1 44,20 Q45,20 46,20 Q47,20 48,20 Q49,20 50,20 Q51,20 52,20 Q53,20 54,20 Q55,20 56,20 Q57,20 58,20 Q59,20 60,20 Q61,20 62,20 Q63,20 64,20 Q65,20 66,20 Q67,20 68,20 Q69,20 70,20 Q71,20 72,20 Q73,20 74,20 Q75,20 76,20 Q77,20 78,20 Q79,20 80,20 Q81,20 82,20 Q83,20 84,20 Q85,20 86,20 Q87,20 88,20 Q89,20 90,20 Q91,20 92,20 Q93,20 94,20 Q95,20 96,20 Q97,20 98,20 Q99,20 100,20 Q101,20 102,20 Q103,20 104,20 Q105,20 106,20 Q107,20 108,20 Q109,20 110,20 Q111,20 112,20 Q113,20 114,20 Q115,20 116,20 Q117,20 118,20 Q119,20 120,20 Q121,19 122,20 Q123,21 124,20 Q125,18 126,20 Q127,22 128,20 Q129,17 130,20 Q131,23 132,20 Q133,16 134,20 Q135,24 136,20 Q137,15 138,20 Q139,25 140,20 Q141,14 142,20 Q143,26 144,20 Q145,13 146,20 Q147,27 148,20 Q149,12 150,20 Q151,28 152,20 Q153,11 154,20 Q155,29 156,20 Q157,10 158,20 Q159,30 160,20 Q161,9 162,20 Q163,31 164,20 Q165,8 166,20 Q167,32 168,20 Q169,7 170,20 Q171,33 172,20 Q173,6 174,20 Q175,34 176,20 Q177,5 178,20 Q179,35 180,20 Q181,4 182,20 Q183,36 184,20 Q185,3 186,20 Q187,37 188,20 Q189,2 190,20 Q191,38 192,20 Q193,1 194,20 Q195,39 196,20 Q197,2 198,20 Q199,38 200,20 Q201,3 202,20 Q203,37 204,20 Q205,4 206,20 Q207,36 208,20 Q209,5 210,20 Q211,35 212,20 Q213,6 214,20 Q215,34 216,20 Q217,7 218,20 Q219,33 220,20 Q221,8 222,20 Q223,32 224,20 Q225,9 226,20 Q227,31 228,20 Q229,10 230,20 Q231,30 232,20 Q233,11 234,20 Q235,29 236,20 Q237,12 238,20 Q239,28 240,20 Q241,13 242,20 Q243,27 244,20 Q245,14 246,20 Q247,26 248,20 Q249,15 250,20 Q251,25 252,20 Q253,16 254,20 Q255,24 256,20 Q257,17 258,20 Q259,23 260,20 Q261,18 262,20 Q263,22 264,20 Q265,19 266,20 Q267,21 268,20 Q269,19.5 270,20 Q271,20.5 272,20 Q273,19.8 274,20 Q275,20.2 276,20 Q277,19.9 278,20 Q279,20.1 280,20;M20,20 Q22,15 24,20 Q26,25 28,20 Q29,18 30,20 Q31,22 32,20 Q33,17 34,20 Q35,23 36,20 Q37,16 38,20 Q39,24 40,20 Q41,15 42,20 Q43,25 44,20 Q44.5,18 45,20 Q45.5,22 46,20 Q46.5,17 47,20 Q47.5,23 48,20 Q48.5,16 49,20 Q49.5,24 50,20 Q51,14 52,20 Q53,26 54,20 Q55,12 56,20 Q57,28 58,20 Q59,10 60,20 Q61,30 62,20 Q63,8 64,20 Q65,32 66,20 Q67,6 68,20 Q69,34 70,20 Q71,4 72,20 Q73,36 74,20 Q75,2 76,20 Q77,38 78,20 Q79,4 80,20 Q81,36 82,20 Q83,6 84,20 Q85,34 86,20 Q87,8 88,20 Q89,32 90,20 Q91,10 92,20 Q93,30 94,20 Q95,12 96,20 Q97,28 98,20 Q99,14 100,20 Q101,26 102,20 Q103,16 104,20 Q105,24 106,20 Q106.5,18 107,20 Q107.5,22 108,20 Q108.5,17 109,20 Q109.5,23 110,20 Q110.5,16 111,20 Q111.5,24 112,20 Q112.5,15 113,20 Q113.5,25 114,20 Q115,17 116,20 Q117,23 118,20 Q119,18 120,20 Q121,22 122,20 Q123,19 124,20 Q125,21 126,20 Q127,19.5 128,20 Q129,20.5 130,20 Q131,19.8 132,20 Q133,20.2 134,20 Q135,19.9 136,20 Q137,20.1 138,20 Q139,20 140,20 Q141,20 142,20 Q143,20 144,20 Q145,20 146,20 Q147,20 148,20 Q149,20 150,20 Q151,20 152,20 Q153,20 154,20 Q155,20 156,20 Q157,20 158,20 Q159,20 160,20 Q161,20 162,20 Q163,20 164,20 Q165,20 166,20 Q167,20 168,20 Q169,20 170,20 Q171,20 172,20 Q173,20 174,20 Q175,20 176,20 Q177,20 178,20 Q179,20 180,20 Q181,20 182,20 Q183,20 184,20 Q185,20 186,20 Q187,20 188,20 Q189,20 190,20 Q191,20 192,20 Q193,20 194,20 Q195,20 196,20 Q197,20 198,20 Q199,20 200,20 Q201,19 202,20 Q203,21 204,20 Q205,18 206,20 Q207,22 208,20 Q209,17 210,20 Q211,23 212,20 Q213,16 214,20 Q215,24 216,20 Q217,15 218,20 Q219,25 220,20 Q221,14 222,20 Q223,26 224,20 Q225,13 226,20 Q227,27 228,20 Q229,12 230,20 Q231,28 232,20 Q233,11 234,20 Q235,29 236,20 Q237,10 238,20 Q239,30 240,20 Q241,9 242,20 Q243,31 244,20 Q245,8 246,20 Q247,32 248,20 Q249,7 250,20 Q251,33 252,20 Q253,6 254,20 Q255,34 256,20 Q257,5 258,20 Q259,35 260,20 Q261,4 262,20 Q263,36 264,20 Q265,3 266,20 Q267,37 268,20 Q269,2 270,20 Q271,38 272,20 Q273,1 274,20 Q275,39 276,20 Q277,2 278,20 Q279,38 280,20" dur="4s" repeatCount="indefinite"/>
      </path>
      <text x="150" y="50" class="description">Frequency varies with modulating signal</text>
    </g>
  </g>
</svg>