<svg viewBox="0 0 800 600" xmlns="http://www.w3.org/2000/svg">
  <!-- Background -->
  <rect width="800" height="600" fill="#f8f9fa"/>
  
  <!-- Title -->
  <text x="400" y="30" text-anchor="middle" font-family="Arial, sans-serif" font-size="18" font-weight="bold" fill="#2c3e50">
    AM Voltage Equation Derivation - Waveform Analysis
  </text>
  
  <!-- Message Signal Section -->
  <g transform="translate(50, 60)">
    <text x="0" y="0" font-family="Arial, sans-serif" font-size="14" font-weight="bold" fill="#e74c3c">
      Message Signal: m(t) = Am cos(ωmt)
    </text>
    
    <!-- Message waveform -->
    <g transform="translate(0, 20)">
      <line x1="0" y1="40" x2="300" y2="40" stroke="#333" stroke-width="1"/>
      <path d="M 0 40 Q 25 20 50 40 T 100 40 T 150 40 T 200 40 T 250 40 T 300 40" 
            fill="none" stroke="#e74c3c" stroke-width="2"/>
      
      <!-- Amplitude markers -->
      <line x1="0" y1="20" x2="0" y2="60" stroke="#666" stroke-width="1" stroke-dasharray="2,2"/>
      <text x="-15" y="25" font-family="Arial, sans-serif" font-size="10" fill="#666">Am</text>
      <text x="-20" y="65" font-family="Arial, sans-serif" font-size="10" fill="#666">-Am</text>
      
      <!-- Time axis -->
      <text x="310" y="45" font-family="Arial, sans-serif" font-size="12" fill="#333">t</text>
      <polygon points="300,40 295,37 295,43" fill="#333"/>
    </g>
  </g>
  
  <!-- Carrier Signal Section -->
  <g transform="translate(400, 60)">
    <text x="0" y="0" font-family="Arial, sans-serif" font-size="14" font-weight="bold" fill="#3498db">
      Carrier Signal: c(t) = Ac cos(ωct)
    </text>
    
    <!-- Carrier waveform -->
    <g transform="translate(0, 20)">
      <line x1="0" y1="40" x2="300" y2="40" stroke="#333" stroke-width="1"/>
      
      <!-- High frequency carrier -->
      <path d="M 0 40" fill="none" stroke="#3498db" stroke-width="2">
        <animate attributeName="d" 
                 values="M 0 40 L 5 25 L 10 40 L 15 55 L 20 40 L 25 25 L 30 40 L 35 55 L 40 40 L 45 25 L 50 40 L 55 55 L 60 40 L 65 25 L 70 40 L 75 55 L 80 40 L 85 25 L 90 40 L 95 55 L 100 40 L 105 25 L 110 40 L 115 55 L 120 40 L 125 25 L 130 40 L 135 55 L 140 40 L 145 25 L 150 40 L 155 55 L 160 40 L 165 25 L 170 40 L 175 55 L 180 40 L 185 25 L 190 40 L 195 55 L 200 40 L 205 25 L 210 40 L 215 55 L 220 40 L 225 25 L 230 40 L 235 55 L 240 40 L 245 25 L 250 40 L 255 55 L 260 40 L 265 25 L 270 40 L 275 55 L 280 40 L 285 25 L 290 40 L 295 55 L 300 40;
                        M 0 40 L 5 55 L 10 40 L 15 25 L 20 40 L 25 55 L 30 40 L 35 25 L 40 40 L 45 55 L 50 40 L 55 25 L 60 40 L 65 55 L 70 40 L 75 25 L 80 40 L 85 55 L 90 40 L 95 25 L 100 40 L 105 55 L 110 40 L 115 25 L 120 40 L 125 55 L 130 40 L 135 25 L 140 40 L 145 55 L 150 40 L 155 25 L 160 40 L 165 55 L 170 40 L 175 25 L 180 40 L 185 55 L 190 40 L 195 25 L 200 40 L 205 55 L 210 40 L 215 25 L 220 40 L 225 55 L 230 40 L 235 25 L 240 40 L 245 55 L 250 40 L 255 25 L 260 40 L 265 55 L 270 40 L 275 25 L 280 40 L 285 55 L 290 40 L 295 25 L 300 40"
                 dur="2s" repeatCount="indefinite"/>
      </path>
      
      <!-- Amplitude markers -->
      <line x1="0" y1="25" x2="0" y2="55" stroke="#666" stroke-width="1" stroke-dasharray="2,2"/>
      <text x="-15" y="30" font-family="Arial, sans-serif" font-size="10" fill="#666">Ac</text>
      <text x="-20" y="60" font-family="Arial, sans-serif" font-size="10" fill="#666">-Ac</text>
      
      <!-- Time axis -->
      <text x="310" y="45" font-family="Arial, sans-serif" font-size="12" fill="#333">t</text>
      <polygon points="300,40 295,37 295,43" fill="#333"/>
    </g>
  </g>
  
  <!-- AM Signal Section -->
  <g transform="translate(50, 200)">
    <text x="0" y="0" font-family="Arial, sans-serif" font-size="14" font-weight="bold" fill="#9b59b6">
      AM Signal: s(t) = Ac[1 + μ cos(ωmt)] cos(ωct)
    </text>
    
    <!-- AM envelope and modulated signal -->
    <g transform="translate(0, 20)">
      <line x1="0" y1="60" x2="650" y2="60" stroke="#333" stroke-width="1"/>
      
      <!-- Upper envelope -->
      <path d="M 0 60 Q 81.25 35 162.5 60 T 325 60 T 487.5 60 T 650 60" 
            fill="none" stroke="#9b59b6" stroke-width="2" stroke-dasharray="3,3"/>
      
      <!-- Lower envelope -->
      <path d="M 0 60 Q 81.25 85 162.5 60 T 325 60 T 487.5 60 T 650 60" 
            fill="none" stroke="#9b59b6" stroke-width="2" stroke-dasharray="3,3"/>
      
      <!-- Modulated carrier (simplified representation) -->
      <g stroke="#9b59b6" stroke-width="1.5" fill="none">
        <!-- First quarter cycle -->
        <path d="M 0 60 C 10 45 20 30 40 42 C 60 35 70 45 81.25 35"/>
        <path d="M 81.25 35 C 90 40 100 50 120 48 C 140 55 150 50 162.5 60"/>
        
        <!-- Second quarter -->
        <path d="M 162.5 60 C 170 70 180 80 200 72 C 220 75 230 65 243.75 85"/>
        <path d="M 243.75 85 C 250 80 260 70 280 72 C 300 65 310 70 325 60"/>
        
        <!-- Third quarter -->
        <path d="M 325 60 C 335 50 345 40 365 48 C 385 45 395 55 406.25 35"/>
        <path d="M 406.25 35 C 415 40 425 50 445 48 C 465 55 475 50 487.5 60"/>
        
        <!-- Fourth quarter -->
        <path d="M 487.5 60 C 495 70 505 80 525 72 C 545 75 555 65 568.75 85"/>
        <path d="M 568.75 85 C 575 80 585 70 605 72 C 625 65 635 70 650 60"/>
      </g>
      
      <!-- Amplitude markers -->
      <line x1="0" y1="35" x2="0" y2="85" stroke="#666" stroke-width="1" stroke-dasharray="2,2"/>
      <text x="-35" y="40" font-family="Arial, sans-serif" font-size="10" fill="#666">Ac(1+μ)</text>
      <text x="-35" y="90" font-family="Arial, sans-serif" font-size="10" fill="#666">-Ac(1+μ)</text>
      
      <!-- Modulation index indicator -->
      <g transform="translate(81.25, 35)">
        <line x1="0" y1="0" x2="0" y2="25" stroke="#e74c3c" stroke-width="2"/>
        <text x="5" y="12" font-family="Arial, sans-serif" font-size="10" fill="#e74c3c">μAc</text>
      </g>
      
      <!-- Time axis -->
      <text x="660" y="65" font-family="Arial, sans-serif" font-size="12" fill="#333">t</text>
      <polygon points="650,60 645,57 645,63" fill="#333"/>
    </g>
  </g>
  
  <!-- Mathematical Derivation Box -->
  <g transform="translate(50, 350)">
    <rect x="0" y="0" width="700" height="200" fill="#ecf0f1" stroke="#bdc3c7" stroke-width="2" rx="10"/>
    
    <text x="350" y="25" text-anchor="middle" font-family="Arial, sans-serif" font-size="16" font-weight="bold" fill="#2c3e50">
      Mathematical Derivation
    </text>
    
    <!-- Step by step derivation -->
    <g font-family="Arial, sans-serif" font-size="12" fill="#34495e">
      <text x="20" y="50">1. Carrier signal: c(t) = Ac cos(ωct)</text>
      <text x="20" y="70">2. Message signal: m(t) = Am cos(ωmt)</text>
      <text x="20" y="90">3. AM signal: s(t) = Ac[1 + μ·m(t)/Am]cos(ωct)    where μ = Am/Ac (modulation index)</text>
      <text x="20" y="110">4. Substituting: s(t) = Ac[1 + μ·cos(ωmt)]cos(ωct)</text>
      <text x="20" y="130">5. Expanding: s(t) = Ac·cos(ωct) + μ·Ac·cos(ωmt)·cos(ωct)</text>
      <text x="20" y="150">6. Using cos A·cos B = ½[cos(A+B) + cos(A-B)]:</text>
      <text x="20" y="170" font-weight="bold" fill="#e74c3c">
        s(t) = Ac·cos(ωct) + (μ·Ac/2)[cos(ωc+ωm)t + cos(ωc-ωm)t]
      </text>
    </g>
  </g>
  
  <!-- Frequency domain representation -->
  <g transform="translate(400, 400)">
    <text x="0" y="0" font-family="Arial, sans-serif" font-size="14" font-weight="bold" fill="#2c3e50">
      Frequency Spectrum
    </text>
    
    <g transform="translate(0, 20)">
      <!-- Frequency axis -->
      <line x1="0" y1="80" x2="300" y2="80" stroke="#333" stroke-width="2"/>
      
      <!-- Lower sideband -->
      <line x1="80" y1="80" x2="80" y2="50" stroke="#e74c3c" stroke-width="3"/>
      <text x="75" y="45" font-family="Arial, sans-serif" font-size="10" fill="#e74c3c">LSB</text>
      <text x="65" y="95" font-family="Arial, sans-serif" font-size="10" fill="#333">fc-fm</text>
      
      <!-- Carrier -->
      <line x1="150" y1="80" x2="150" y2="30" stroke="#3498db" stroke-width="4"/>
      <text x="135" y="25" font-family="Arial, sans-serif" font-size="10" fill="#3498db">Carrier</text>
      <text x="140" y="95" font-family="Arial, sans-serif" font-size="10" fill="#333">fc</text>
      
      <!-- Upper sideband -->
      <line x1="220" y1="80" x2="220" y2="50" stroke="#e74c3c" stroke-width="3"/>
      <text x="215" y="45" font-family="Arial, sans-serif" font-size="10" fill="#e74c3c">USB</text>
      <text x="205" y="95" font-family="Arial, sans-serif" font-size="10" fill="#333">fc+fm</text>
      
      <!-- Frequency labels -->
      <text x="310" y="85" font-family="Arial, sans-serif" font-size="12" fill="#333">f</text>
      <polygon points="300,80 295,77 295,83" fill="#333"/>
      
      <!-- Amplitude labels -->
      <text x="-15" y="35" font-family="Arial, sans-serif" font-size="10" fill="#333">Ac</text>
      <text x="-25" y="55" font-family="Arial, sans-serif" font-size="10" fill="#333">μAc/2</text>
    </g>
  </g>
</svg>