<svg viewBox="0 0 900 700" xmlns="http://www.w3.org/2000/svg">
  <defs>
    <style>
      .title { font: bold 16px Arial; text-anchor: middle; }
      .label { font: 12px Arial; text-anchor: middle; }
      .axis { font: 10px Arial; }
      .wave { fill: none; stroke-width: 2; }
      .modulating { stroke: #f44336; }
      .pam { stroke: #2196f3; stroke-width: 3; }
      .pwm { stroke: #4caf50; stroke-width: 3; }
      .ppm { stroke: #9c27b0; stroke-width: 3; }
      .clock { stroke: #ff9800; stroke-dasharray: 2,2; }
      .description { font: 11px Arial; }
      .section-title { font: bold 14px Arial; text-anchor: middle; }
      .comparison-box { fill: #f5f5f5; stroke: #666; stroke-width: 1; }
      .pam-box { fill: #e3f2fd; stroke: #2196f3; stroke-width: 2; }
      .pwm-box { fill: #e8f5e8; stroke: #4caf50; stroke-width: 2; }
      .ppm-box { fill: #f3e5f5; stroke: #9c27b0; stroke-width: 2; }
    </style>
  </defs>
  
  <!-- Title -->
  <text x="450" y="25" class="title">Pulse Modulation Techniques: PAM, PWM, PPM</text>
  
  <!-- Modulating Signal -->
  <g transform="translate(50, 60)">
    <text x="400" y="15" class="section-title" fill="#d32f2f">Modulating Signal (Information)</text>
    
    <!-- Time axis -->
    <line x1="30" y1="80" x2="750" y2="80" stroke="black" stroke-width="1"/>
    <text x="760" y="85" class="axis">Time</text>
    
    <!-- Modulating waveform -->
    <path class="wave modulating" d="M30,70 Q100,40 170,60 Q240,90 310,50 Q380,30 450,70 Q520,100 590,55 Q660,25 730,65">
      <animate attributeName="d" values="M30,70 Q100,40 170,60 Q240,90 310,50 Q380,30 450,70 Q520,100 590,55 Q660,25 730,65;M30,65 Q100,45 170,65 Q240,85 310,55 Q380,35 450,75 Q520,95 590,60 Q660,30 730,70;M30,70 Q100,40 170,60 Q240,90 310,50 Q380,30 450,70 Q520,100 590,55 Q660,25 730,65" dur="6s" repeatCount="indefinite"/>
    </path>
    
    <!-- Sampling time markers -->
    <g class="clock">
      <line x1="80" y1="30" x2="80" y2="90"/>
      <line x1="140" y1="30" x2="140" y2="90"/>
      <line x1="200" y1="30" x2="200" y2="90"/>
      <line x1="260" y1="30" x2="260" y2="90"/>
      <line x1="320" y1="30" x2="320" y2="90"/>
      <line x1="380" y1="30" x2="380" y2="90"/>
      <line x1="440" y1="30" x2="440" y2="90"/>
      <line x1="500" y1="30" x2="500" y2="90"/>
      <line x1="560" y1="30" x2="560" y2="90"/>
      <line x1="620" y1="30" x2="620" y2="90"/>
      <line x1="680" y1="30" x2="680" y2="90"/>
      
      <text x="350" y="25" class="axis">Sampling Instants</text>
    </g>
    
    <!-- Sample points -->
    <circle cx="80" cy="55" r="3" fill="#ff5722">
      <animate attributeName="opacity" values="1;0.3;1" dur="1s" repeatCount="indefinite"/>
    </circle>
    <circle cx="140" cy="50" r="3" fill="#ff5722">
      <animate attributeName="opacity" values="1;0.3;1" dur="1s" repeatCount="indefinite" begin="0.1s"/>
    </circle>
    <circle cx="200" cy="65" r="3" fill="#ff5722">
      <animate attributeName="opacity" values="1;0.3;1" dur="1s" repeatCount="indefinite" begin="0.2s"/>
    </circle>
    <circle cx="260" cy="80" r="3" fill="#ff5722">
      <animate attributeName="opacity" values="1;0.3;1" dur="1s" repeatCount="indefinite" begin="0.3s"/>
    </circle>
    <circle cx="320" cy="55" r="3" fill="#ff5722">
      <animate attributeName="opacity" values="1;0.3;1" dur="1s" repeatCount="indefinite" begin="0.4s"/>
    </circle>
    <circle cx="380" cy="40" r="3" fill="#ff5722">
      <animate attributeName="opacity" values="1;0.3;1" dur="1s" repeatCount="indefinite" begin="0.5s"/>
    </circle>
    <circle cx="440" cy="70" r="3" fill="#ff5722">
      <animate attributeName="opacity" values="1;0.3;1" dur="1s" repeatCount="indefinite" begin="0.6s"/>
    </circle>
    <circle cx="500" cy="90" r="3" fill="#ff5722">
      <animate attributeName="opacity" values="1;0.3;1" dur="1s" repeatCount="indefinite" begin="0.7s"/>
    </circle>
    <circle cx="560" cy="60" r="3" fill="#ff5722">
      <animate attributeName="opacity" values="1;0.3;1" dur="1s" repeatCount="indefinite" begin="0.8s"/>
    </circle>
    <circle cx="620" cy="35" r="3" fill="#ff5722">
      <animate attributeName="opacity" values="1;0.3;1" dur="1s" repeatCount="indefinite" begin="0.9s"/>
    </circle>
    <circle cx="680" cy="65" r="3" fill="#ff5722">
      <animate attributeName="opacity" values="1;0.3;1" dur="1s" repeatCount="indefinite" begin="1s"/>
    </circle>
  </g>
  
  <!-- PAM Section -->
  <g transform="translate(50, 170)">
    <text x="400" y="15" class="section-title" fill="#1976d2">PAM - Pulse Amplitude Modulation</text>
    
    <!-- Time axis -->
    <line x1="30" y1="80" x2="750" y2="80" stroke="black" stroke-width="1"/>
    <text x="760" y="85" class="axis">Time</text>
    
    <!-- PAM pulses with varying amplitude -->
    <g class="pam">
      <rect x="75" y="55" width="10" height="25" fill="#2196f3" opacity="0.8">
        <animate attributeName="height" values="25;30;25" dur="3s" repeatCount="indefinite"/>
        <animate attributeName="y" values="55;50;55" dur="3s" repeatCount="indefinite"/>
      </rect>
      <rect x="135" y="50" width="10" height="30" fill="#2196f3" opacity="0.8">
        <animate attributeName="height" values="30;35;30" dur="3s" repeatCount="indefinite"/>
        <animate attributeName="y" values="50;45;50" dur="3s" repeatCount="indefinite"/>
      </rect>
      <rect x="195" y="65" width="10" height="15" fill="#2196f3" opacity="0.8">
        <animate attributeName="height" values="15;20;15" dur="3s" repeatCount="indefinite"/>
        <animate attributeName="y" values="65;60;65" dur="3s" repeatCount="indefinite"/>
      </rect>
      <rect x="255" y="80" width="10" height="0" fill="#2196f3" opacity="0.8">
        <animate attributeName="height" values="0;5;0" dur="3s" repeatCount="indefinite"/>
        <animate attributeName="y" values="80;75;80" dur="3s" repeatCount="indefinite"/>
      </rect>
      <rect x="315" y="55" width="10" height="25" fill="#2196f3" opacity="0.8">
        <animate attributeName="height" values="25;30;25" dur="3s" repeatCount="indefinite"/>
        <animate attributeName="y" values="55;50;55" dur="3s" repeatCount="indefinite"/>
      </rect>
      <rect x="375" y="40" width="10" height="40" fill="#2196f3" opacity="0.8">
        <animate attributeName="height" values="40;45;40" dur="3s" repeatCount="indefinite"/>
        <animate attributeName="y" values="40;35;40" dur="3s" repeatCount="indefinite"/>
      </rect>
      <rect x="435" y="70" width="10" height="10" fill="#2196f3" opacity="0.8">
        <animate attributeName="height" values="10;15;10" dur="3s" repeatCount="indefinite"/>
        <animate attributeName="y" values="70;65;70" dur="3s" repeatCount="indefinite"/>
      </rect>
      <rect x="495" y="90" width="10" height="-10" fill="#2196f3" opacity="0.8">
        <animate attributeName="height" values="-10;-5;-10" dur="3s" repeatCount="indefinite"/>
        <animate attributeName="y" values="90;95;90" dur="3s" repeatCount="indefinite"/>
      </rect>
      <rect x="555" y="60" width="10" height="20" fill="#2196f3" opacity="0.8">
        <animate attributeName="height" values="20;25;20" dur="3s" repeatCount="indefinite"/>
        <animate attributeName="y" values="60;55;60" dur="3s" repeatCount="indefinite"/>
      </rect>
      <rect x="615" y="35" width="10" height="45" fill="#2196f3" opacity="0.8">
        <animate attributeName="height" values="45;50;45" dur="3s" repeatCount="indefinite"/>
        <animate attributeName="y" values="35;30;35" dur="3s" repeatCount="indefinite"/>
      </rect>
      <rect x="675" y="65" width="10" height="15" fill="#2196f3" opacity="0.8">
        <animate attributeName="height" values="15;20;15" dur="3s" repeatCount="indefinite"/>
        <animate attributeName="y" values="65;60;65" dur="3s" repeatCount="indefinite"/>
      </rect>
    </g>
    
    <text x="30" y="100" class="description">Amplitude varies with signal amplitude</text>
  </g>
  
  <!-- PWM Section -->
  <g transform="translate(50, 280)">
    <text x="400" y="15" class="section-title" fill="#2e7d32">PWM - Pulse Width Modulation</text>
    
    <!-- Time axis -->
    <line x1="30" y1="80" x2="750" y2="80" stroke="black" stroke-width="1"/>
    <text x="760" y="85" class="axis">Time</text>
    
    <!-- PWM pulses with varying width -->
    <g class="pwm">
      <rect x="75" y="60" width="10" height="20" fill="#4caf50" opacity="0.8">
        <animate attributeName="width" values="10;15;10" dur="3s" repeatCount="indefinite"/>
      </rect>
      <rect x="135" y="60" width="8" height="20" fill="#4caf50" opacity="0.8">
        <animate attributeName="width" values="8;12;8" dur="3s" repeatCount="indefinite"/>
      </rect>
      <rect x="195" y="60" width="15" height="20" fill="#4caf50" opacity="0.8">
        <animate attributeName="width" values="15;20;15" dur="3s" repeatCount="indefinite"/>
      </rect>
      <rect x="255" y="60" width="25" height="20" fill="#4caf50" opacity="0.8">
        <animate attributeName="width" values="25;30;25" dur="3s" repeatCount="indefinite"/>
      </rect>
      <rect x="315" y="60" width="10" height="20" fill="#4caf50" opacity="0.8">
        <animate attributeName="width" values="10;15;10" dur="3s" repeatCount="indefinite"/>
      </rect>
      <rect x="375" y="60" width="5" height="20" fill="#4caf50" opacity="0.8">
        <animate attributeName="width" values="5;8;5" dur="3s" repeatCount="indefinite"/>
      </rect>
      <rect x="435" y="60" width="18" height="20" fill="#4caf50" opacity="0.8">
        <animate attributeName="width" values="18;23;18" dur="3s" repeatCount="indefinite"/>
      </rect>
      <rect x="495" y="60" width="30" height="20" fill="#4caf50" opacity="0.8">
        <animate attributeName="width" values="30;35;30" dur="3s" repeatCount="indefinite"/>
      </rect>
      <rect x="555" y="60" width="12" height="20" fill="#4caf50" opacity="0.8">
        <animate attributeName="width" values="12;17;12" dur="3s" repeatCount="indefinite"/>
      </rect>
      <rect x="615" y="60" width="3" height="20" fill="#4caf50" opacity="0.8">
        <animate attributeName="width" values="3;6;3" dur="3s" repeatCount="indefinite"/>
      </rect>
      <rect x="675" y="60" width="15" height="20" fill="#4caf50" opacity="0.8">
        <animate attributeName="width" values="15;20;15" dur="3s" repeatCount="indefinite"/>
      </rect>
    </g>
    
    <text x="30" y="100" class="description">Width varies with signal amplitude</text>
  </g>
  
  <!-- PPM Section -->
  <g transform="translate(50, 390)">
    <text x="400" y="15" class="section-title" fill="#7b1fa2">PPM - Pulse Position Modulation</text>
    
    <!-- Time axis -->
    <line x1="30" y1="80" x2="750" y2="80" stroke="black" stroke-width="1"/>
    <text x="760" y="85" class="axis">Time</text>
    
    <!-- Reference time slots -->
    <g class="clock" opacity="0.3">
      <line x1="80" y1="50" x2="80" y2="90"/>
      <line x1="140" y1="50" x2="140" y2="90"/>
      <line x1="200" y1="50" x2="200" y2="90"/>
      <line x1="260" y1="50" x2="260" y2="90"/>
      <line x1="320" y1="50" x2="320" y2="90"/>
      <line x1="380" y1="50" x2="380" y2="90"/>
      <line x1="440" y1="50" x2="440" y2="90"/>
      <line x1="500" y1="50" x2="500" y2="90"/>
      <line x1="560" y1="50" x2="560" y2="90"/>
      <line x1="620" y1="50" x2="620" y2="90"/>
      <line x1="680" y1="50" x2="680" y2="90"/>
    </g>
    
    <!-- PPM pulses with varying position -->
    <g class="ppm">
      <rect x="85" y="60" width="8" height="20" fill="#9c27b0" opacity="0.8">
        <animateTransform attributeName="transform" type="translate" values="0,0; 5,0; 0,0" dur="3s" repeatCount="indefinite"/>
      </rect>
      <rect x="143" y="60" width="8" height="20" fill="#9c27b0" opacity="0.8">
        <animateTransform attributeName="transform" type="translate" values="0,0; 3,0; 0,0" dur="3s" repeatCount="indefinite"/>
      </rect>
      <rect x="210" y="60" width="8" height="20" fill="#9c27b0" opacity="0.8">
        <animateTransform attributeName="transform" type="translate" values="0,0; -5,0; 0,0" dur="3s" repeatCount="indefinite"/>
      </rect>
      <rect x="275" y="60" width="8" height="20" fill="#9c27b0" opacity="0.8">
        <animateTransform attributeName="transform" type="translate" values="0,0; -10,0; 0,0" dur="3s" repeatCount="indefinite"/>
      </rect>
      <rect x="325" y="60" width="8" height="20" fill="#9c27b0" opacity="0.8">
        <animateTransform attributeName="transform" type="translate" values="0,0; 5,0; 0,0" dur="3s" repeatCount="indefinite"/>
      </rect>
      <rect x="370" y="60" width="8" height="20" fill="#9c27b0" opacity="0.8">
        <animateTransform attributeName="transform" type="translate" values="0,0; 15,0; 0,0" dur="3s" repeatCount="indefinite"/>
      </rect>
      <rect x="450" y="60" width="8" height="20" fill="#9c27b0" opacity="0.8">
        <animateTransform attributeName="transform" type="translate" values="0,0; -8,0; 0,0" dur="3s" repeatCount="indefinite"/>
      </rect>
      <rect x="520" y="60" width="8" height="20" fill="#9c27b0" opacity="0.8">
        <animateTransform attributeName="transform" type="translate" values="0,0; -15,0; 0,0" dur="3s" repeatCount="indefinite"/>
      </rect>
      <rect x="565" y="60" width="8" height="20" fill="#9c27b0" opacity="0.8">
        <animateTransform attributeName="transform" type="translate" values="0,0; 0,0; 0,0" dur="3s" repeatCount="indefinite"/>
      </rect>
      <rect x="635" y="60" width="8" height="20" fill="#9c27b0" opacity="0.8">
        <animateTransform attributeName="transform" type="translate" values="0,0; 20,0; 0,0" dur="3s" repeatCount="indefinite"/>
      </rect>
      <rect x="680" y="60" width="8" height="20" fill="#9c27b0" opacity="0.8">
        <animateTransform attributeName="transform" type="translate" values="0,0; -5,0; 0,0" dur="3s" repeatCount="indefinite"/>
      </rect>
    </g>
    
    <text x="30" y="100" class="description">Position varies with signal amplitude</text>
  </g>
  
  <!-- Comparison Table -->
  <g transform="translate(50, 500)">
    <text x="400" y="15" class="section-title">Comparison of Pulse Modulation Techniques</text>
    
    <!-- Table Header -->
    <rect x="0" y="25" width="150" height="30" class="comparison-box"/>
    <text x="75" y="45" class="label" font-weight="bold">Parameter</text>
    
    <rect x="150" y="25" width="200" height="30" class="pam-box"/>
    <text x="250" y="45" class="label" font-weight="bold">PAM</text>
    
    <rect x="350" y="25" width="200" height="30" class="pwm-box"/>
    <text x="450" y="45" class="label" font-weight="bold">PWM</text>
    
    <rect x="550" y="25" width="200" height="30" class="ppm-box"/>
    <text x="650" y="45" class="label" font-weight="bold">PPM</text>
    
    <!-- Parameter Varied -->
    <rect x="0" y="55" width="150" height="25" class="comparison-box"/>
    <text x="75" y="72" class="description">Parameter Varied</text>
    
    <rect x="150" y="55" width="200" height="25" class="pam-box"/>
    <text x="250" y="72" class="description">Amplitude</text>
    
    <rect x="350" y="55" width="200" height="25" class="pwm-box"/>
    <text x="450" y="72" class="description">Width/Duration</text>
    
    <rect x="550" y="55" width="200" height="25" class="ppm-box"/>
    <text x="650" y="72" class="description">Position/Timing</text>
    
    <!-- Noise Immunity -->
    <rect x="0" y="80" width="150" height="25" class="comparison-box"/>
    <text x="75" y="97" class="description">Noise Immunity</text>
    
    <rect x="150" y="80" width="200" height="25" class="pam-box"/>
    <text x="250" y="97" class="description">Poor (amplitude sensitive)</text>
    
    <rect x="350" y="80" width="200" height="25" class="pwm-box"/>
    <text x="450" y="97" class="description">Better (time-based)</text>
    
    <rect x="550" y="80" width="200" height="25" class="ppm-box"/>
    <text x="650" y="97" class="description">Best (position-based)</text>
    
    <!-- Implementation -->
    <rect x="0" y="105" width="150" height="25" class="comparison-box"/>
    <text x="75" y="122" class="description">Implementation</text>
    
    <rect x="150" y="105" width="200" height="25" class="pam-box"/>
    <text x="250" y="122" class="description">Simplest</text>
    
    <rect x="350" y="105" width="200" height="25" class="pwm-box"/>
    <text x="450" y="122" class="description">Moderate complexity</text>
    
    <rect x="550" y="105" width="200" height="25" class="ppm-box"/>
    <text x="650" y="122" class="description">Most complex</text>
    
    <!-- Applications -->
    <rect x="0" y="130" width="150" height="25" class="comparison-box"/>
    <text x="75" y="147" class="description">Applications</text>
    
    <rect x="150" y="130" width="200" height="25" class="pam-box"/>
    <text x="250" y="147" class="description">Simple ADC systems</text>
    
    <rect x="350" y="130" width="200" height="25" class="pwm-box"/>
    <text x="450" y="147" class="description">Motor control, power</text>
    
    <rect x="550" y="130" width="200" height="25" class="ppm-box"/>
    <text x="650" y="147" class="description">High noise environments</text>
    
    <!-- Bandwidth -->
    <rect x="0" y="155" width="150" height="25" class="comparison-box"/>
    <text x="75" y="172" class="description">Bandwidth Req.</text>
    
    <rect x="150" y="155" width="200" height="25" class="pam-box"/>
    <text x="250" y="172" class="description">Moderate</text>
    
    <rect x="350" y="155" width="200" height="25" class="pwm-box"/>
    <text x="450" y="172" class="description">High (sharp edges)</text>
    
    <rect x="550" y="155" width="200" height="25" class="ppm-box"/>
    <text x="650" y="172" class="description">High (timing precision)</text>
  </g>
</svg>