<svg viewBox="0 0 900 600" xmlns="http://www.w3.org/2000/svg">
  <defs>
    <style>
      .title { font: bold 16px Arial; text-anchor: middle; }
      .label { font: 12px Arial; text-anchor: middle; }
      .axis { font: 10px Arial; }
      .patch { fill: #ffd54f; stroke: #f57f17; stroke-width: 2; }
      .substrate { fill: #e3f2fd; stroke: #1976d2; stroke-width: 2; }
      .ground { fill: #757575; stroke: #424242; stroke-width: 2; }
      .feed { fill: #ff5722; stroke: #d84315; stroke-width: 2; }
      .field-line { stroke: #4caf50; stroke-width: 2; fill: none; }
      .current { stroke: #f44336; stroke-width: 3; }
      .description { font: 11px Arial; }
      .section-title { font: bold 14px Arial; text-anchor: middle; }
      .dimension { stroke: #666; stroke-width: 1; fill: none; }
      .dimension-text { font: 10px Arial; fill: #666; }
      .radiation { stroke: #ff9800; stroke-width: 2; stroke-dasharray: 3,3; }
    </style>

    <!-- Gradient for 3D effect -->
    <linearGradient id="patchGrad" x1="0%" y1="0%" x2="100%" y2="100%">
      <stop offset="0%" style="stop-color:#fff176;stop-opacity:1" />
      <stop offset="100%" style="stop-color:#ffc107;stop-opacity:1" />
    </linearGradient>

    <linearGradient id="substrateGrad" x1="0%" y1="0%" x2="100%" y2="100%">
      <stop offset="0%" style="stop-color:#bbdefb;stop-opacity:0.8" />
      <stop offset="100%" style="stop-color:#2196f3;stop-opacity:0.8" />
    </linearGradient>

    <linearGradient id="groundGrad" x1="0%" y1="0%" x2="100%" y2="100%">
      <stop offset="0%" style="stop-color:#9e9e9e;stop-opacity:1" />
      <stop offset="100%" style="stop-color:#424242;stop-opacity:1" />
    </linearGradient>
  </defs>

  <!-- Title -->
  <text x="450" y="25" class="title">Microstrip Patch Antenna Structure and Operation</text>

  <!-- 3D Perspective View -->
  <g transform="translate(100, 60)">
    <text x="300" y="15" class="section-title" fill="#1976d2">3D Structure (Exploded View)</text>

    <!-- Ground Plane (bottom) -->
    <g transform="translate(0, 180)">
      <rect x="50" y="20" width="400" height="80" fill="url(#groundGrad)" rx="5"/>
      <!-- 3D effect -->
      <polygon points="50,20 70,0 470,0 450,20" fill="#9e9e9e" opacity="0.7"/>
      <polygon points="450,20 470,0 470,80 450,100" fill="#616161" opacity="0.7"/>

      <text x="250" y="65" class="label" fill="white">Ground Plane (Conductor)</text>
      <text x="470" y="50" class="axis">Copper</text>
      <text x="470" y="62" class="axis">thickness</text>
      <text x="470" y="74" class="axis">≈ 35μm</text>
    </g>

    <!-- Substrate (middle) -->
    <g transform="translate(0, 120)">
      <rect x="60" y="20" width="380" height="60" fill="url(#substrateGrad)" rx="5"/>
      <!-- 3D effect -->
      <polygon points="60,20 80,0 460,0 440,20" fill="#e3f2fd" opacity="0.8"/>
      <polygon points="440,20 460,0 460,60 440,80" fill="#1976d2" opacity="0.6"/>

      <text x="250" y="55" class="label" fill="#1976d2">Dielectric Substrate</text>
      <text x="450" y="45" class="axis">εr = 2.2-10</text>
      <text x="450" y="57" class="axis">h = 0.8-6mm</text>
      <text x="450" y="69" class="axis">tan δ &lt; 0.01</text>
    </g>

    <!-- Patch (top) -->
    <g transform="translate(0, 80)">
      <rect x="120" y="20" width="260" height="40" fill="url(#patchGrad)" rx="3"/>
      <!-- 3D effect -->
      <polygon points="120,20 140,0 400,0 380,20" fill="#fff59d" opacity="0.9"/>
      <polygon points="380,20 400,0 400,40 380,60" fill="#ffb300" opacity="0.7"/>

      <text x="250" y="45" class="label" fill="#e65100">Radiating Patch (Copper)</text>
      <text x="390" y="35" class="axis">W × L</text>
      <text x="390" y="47" class="axis">thickness</text>
      <text x="390" y="59" class="axis">≈ 35μm</text>
    </g>

    <!-- Feed Point -->
    <g transform="translate(180, 100)">
      <circle cx="0" cy="40" r="8" class="feed"/>
      <rect x="-3" y="40" width="6" height="40" class="feed"/>
      <text x="15" y="45" class="axis">Feed Point</text>
      <text x="15" y="57" class="axis">(Coaxial probe</text>
      <text x="15" y="69" class="axis">or microstrip)</text>
    </g>

    <!-- Dimensions -->
    <g class="dimension">
      <!-- Length dimension -->
      <line x1="120" y1="50" x2="380" y2="50" stroke="#666" stroke-width="1" marker-start="url(#dimArrow)" marker-end="url(#dimArrow)"/>
      <text x="250" y="45" class="dimension-text">L ≈ λ/2</text>

      <!-- Width dimension -->
      <line x1="90" y1="100" x2="90" y2="140" stroke="#666" stroke-width="1" marker-start="url(#dimArrow)" marker-end="url(#dimArrow)"/>
      <text x="75" y="125" class="dimension-text">W</text>

      <!-- Height dimension -->
      <line x1="470" y1="140" x2="470" y2="200" stroke="#666" stroke-width="1" marker-start="url(#dimArrow)" marker-end="url(#dimArrow)"/>
      <text x="485" y="175" class="dimension-text">h</text>
    </g>
  </g>

  <!-- Side View with Fields -->
  <g transform="translate(550, 60)">
    <text x="150" y="15" class="section-title" fill="#2e7d32">Side View - Electric Field Distribution</text>

    <!-- Ground plane -->
    <rect x="50" y="180" width="200" height="15" class="ground"/>
    <text x="150" y="175" class="axis">Ground Plane</text>

    <!-- Substrate -->
    <rect x="60" y="120" width="180" height="60" class="substrate" opacity="0.7"/>
    <text x="30" y="155" class="axis">εr</text>
    <text x="30" y="167" class="axis">h</text>

    <!-- Patch -->
    <rect x="100" y="105" width="100" height="15" class="patch"/>
    <text x="150" y="100" class="axis">Patch</text>

    <!-- Electric field lines -->
    <g class="field-line">
      <!-- Fringing fields at edges -->
      <path d="M100,120 Q80,100 70,80" opacity="0.8">
        <animate attributeName="opacity" values="0.8;0.4;0.8" dur="2s" repeatCount="indefinite"/>
      </path>
      <path d="M105,120 Q85,105 75,90" opacity="0.8">
        <animate attributeName="opacity" values="0.8;0.4;0.8" dur="2s" repeatCount="indefinite" begin="0.2s"/>
      </path>
      <path d="M110,120 Q90,110 80,100" opacity="0.8">
        <animate attributeName="opacity" values="0.8;0.4;0.8" dur="2s" repeatCount="indefinite" begin="0.4s"/>
      </path>

      <path d="M200,120 Q220,100 230,80" opacity="0.8">
        <animate attributeName="opacity" values="0.8;0.4;0.8" dur="2s" repeatCount="indefinite" begin="0.1s"/>
      </path>
      <path d="M195,120 Q215,105 225,90" opacity="0.8">
        <animate attributeName="opacity" values="0.8;0.4;0.8" dur="2s" repeatCount="indefinite" begin="0.3s"/>
      </path>
      <path d="M190,120 Q210,110 220,100" opacity="0.8">
        <animate attributeName="opacity" values="0.8;0.4;0.8" dur="2s" repeatCount="indefinite" begin="0.5s"/>
      </path>

      <!-- Field lines between patch and ground -->
      <line x1="120" y1="120" x2="120" y2="180" opacity="0.6"/>
      <line x1="140" y1="120" x2="140" y2="180" opacity="0.6"/>
      <line x1="160" y1="120" x2="160" y2="180" opacity="0.6"/>
      <line x1="180" y1="120" x2="180" y2="180" opacity="0.6"/>
    </g>

    <!-- Radiation arrows -->
    <g class="radiation">
      <path d="M70,70 Q50,50 30,30" marker-end="url(#radArrow)">
        <animate attributeName="opacity" values="1;0.3;1" dur="1.5s" repeatCount="indefinite"/>
      </path>
      <path d="M230,70 Q250,50 270,30" marker-end="url(#radArrow)">
        <animate attributeName="opacity" values="1;0.3;1" dur="1.5s" repeatCount="indefinite" begin="0.3s"/>
      </path>
      <path d="M150,70 Q150,40 150,10" marker-end="url(#radArrow)">
        <animate attributeName="opacity" values="1;0.3;1" dur="1.5s" repeatCount="indefinite" begin="0.6s"/>
      </path>
    </g>

    <text x="150" y="50" class="axis">Radiated waves</text>
    <text x="30" y="200" class="axis">Fringing fields cause radiation</text>
  </g>

  <!-- Current Distribution -->
  <g transform="translate(100, 320)">
    <text x="200" y="15" class="section-title" fill="#d32f2f">Current Distribution (Top View)</text>

    <!-- Patch outline -->
    <rect x="50" y="30" width="300" height="120" class="patch" opacity="0.3"/>

    <!-- Current flow lines -->
    <g class="current">
      <!-- Horizontal currents -->
      <path d="M60,60 L340,60" marker-end="url(#currentArrow)">
        <animate attributeName="opacity" values="1;0.5;1" dur="2s" repeatCount="indefinite"/>
      </path>
      <path d="M60,90 L340,90" marker-end="url(#currentArrow)">
        <animate attributeName="opacity" values="1;0.5;1" dur="2s" repeatCount="indefinite" begin="0.3s"/>
      </path>
      <path d="M60,120 L340,120" marker-end="url(#currentArrow)">
        <animate attributeName="opacity" values="1;0.5;1" dur="2s" repeatCount="indefinite" begin="0.6s"/>
      </path>

      <!-- Return currents (dashed) -->
      <path d="M340,70 L60,70" stroke-dasharray="5,5" marker-end="url(#currentArrow)">
        <animate attributeName="opacity" values="1;0.5;1" dur="2s" repeatCount="indefinite" begin="1s"/>
      </path>
      <path d="M340,100 L60,100" stroke-dasharray="5,5" marker-end="url(#currentArrow)">
        <animate attributeName="opacity" values="1;0.5;1" dur="2s" repeatCount="indefinite" begin="1.3s"/>
      </path>
      <path d="M340,130 L60,130" stroke-dasharray="5,5" marker-end="url(#currentArrow)">
        <animate attributeName="opacity" values="1;0.5;1" dur="2s" repeatCount="indefinite" begin="1.6s"/>
      </path>
    </g>

    <!-- Current nodes at edges -->
    <circle cx="50" cy="90" r="5" fill="#f44336"/>
    <circle cx="350" cy="90" r="5" fill="#f44336"/>
    <text x="30" y="95" class="axis">I = 0</text>
    <text x="360" y="95" class="axis">I = 0</text>

    <!-- Feed point -->
    <circle cx="120" cy="90" r="6" class="feed"/>
    <text x="130" y="95" class="axis">Feed</text>

    <text x="200" y="170" class="axis">Current is maximum at center, zero at radiating edges</text>
  </g>

  <!-- Characteristics and Applications -->
  <g transform="translate(100, 480)">
    <text x="350" y="15" class="section-title" fill="#1976d2">Characteristics and Applications</text>

    <!-- Characteristics -->
    <g transform="translate(0, 30)">
      <rect x="0" y="0" width="300" height="80" fill="#e8f5e8" stroke="#4caf50" stroke-width="2" rx="5"/>
      <text x="150" y="20" class="label" fill="#2e7d32">CHARACTERISTICS</text>
      <text x="10" y="35" class="description">• Low profile and lightweight</text>
      <text x="10" y="50" class="description">• Easy to fabricate (PCB process)</text>
      <text x="10" y="65" class="description">• Linear or circular polarization</text>
    </g>

    <!-- Advantages -->
    <g transform="translate(320, 30)">
      <rect x="0" y="0" width="240" height="80" fill="#e3f2fd" stroke="#2196f3" stroke-width="2" rx="5"/>
      <text x="120" y="20" class="label" fill="#1976d2">ADVANTAGES</text>
      <text x="10" y="35" class="description">• Conformal to curved surfaces</text>
      <text x="10" y="50" class="description">• Integration with circuits</text>
      <text x="10" y="65" class="description">• Mass production friendly</text>
    </g>

    <!-- Applications -->
    <g transform="translate(580, 30)">
      <rect x="0" y="0" width="220" height="80" fill="#fff3e0" stroke="#ff9800" stroke-width="2" rx="5"/>
      <text x="110" y="20" class="label" fill="#e65100">APPLICATIONS</text>
      <text x="10" y="35" class="description">• Mobile phones, WiFi</text>
      <text x="10" y="50" class="description">• Satellite communications</text>
      <text x="10" y="65" class="description">• RFID tags, GPS</text>
    </g>
  </g>

  <!-- Arrow markers -->
  <defs>
    <marker id="dimArrow" markerWidth="8" markerHeight="6" refX="8" refY="3" orient="auto" fill="#666">
      <polygon points="0 0, 8 3, 0 6"/>
    </marker>
    <marker id="radArrow" markerWidth="10" markerHeight="7" refX="9" refY="3.5" orient="auto" fill="#ff9800">
      <polygon points="0 0, 10 3.5, 0 7"/>
    </marker>
    <marker id="currentArrow" markerWidth="10" markerHeight="7" refX="9" refY="3.5" orient="auto" fill="#f44336">
      <polygon points="0 0, 10 3.5, 0 7"/>
    </marker>
  </defs>
</svg>