<svg viewBox="0 0 900 650" xmlns="http://www.w3.org/2000/svg">
  <defs>
    <style>
      .title { font: bold 16px Arial; text-anchor: middle; }
      .label { font: 12px Arial; text-anchor: middle; }
      .axis { font: 10px Arial; }
      .circuit { stroke: #333; stroke-width: 2; fill: none; }
      .component { fill: #e3f2fd; stroke: #1976d2; stroke-width: 2; }
      .diode { fill: #ffebee; stroke: #f44336; stroke-width: 2; }
      .capacitor { stroke: #4caf50; stroke-width: 3; }
      .resistor { fill: #fff3e0; stroke: #ff9800; stroke-width: 2; }
      .wave { fill: none; stroke-width: 2; }
      .am-input { stroke: #1976d2; }
      .rectified { stroke: #f44336; }
      .envelope { stroke: #4caf50; stroke-width: 3; }
      .description { font: 11px Arial; }
      .section-title { font: bold 14px Arial; text-anchor: middle; }
      .voltage { font: 10px Arial; fill: #d32f2f; }
      .current { stroke: #ff5722; stroke-width: 2; stroke-dasharray: 3,3; }
    </style>
  </defs>

  <!-- Title -->
  <text x="450" y="25" class="title">Envelope Detector Circuit and Operation</text>

  <!-- Circuit Diagram -->
  <g transform="translate(100, 60)">
    <text x="300" y="15" class="section-title" fill="#1976d2">Envelope Detector Circuit</text>

    <!-- AM Input -->
    <circle cx="30" cy="80" r="5" fill="#1976d2"/>
    <text x="15" y="75" class="axis">AM</text>
    <text x="15" y="88" class="axis">Input</text>

    <!-- Input coupling capacitor -->
    <g transform="translate(60, 80)">
      <line x1="-20" y1="0" x2="-5" y2="0" class="circuit"/>
      <line x1="-5" y1="-8" x2="-5" y2="8" class="capacitor"/>
      <line x1="5" y1="-8" x2="5" y2="8" class="capacitor"/>
      <line x1="5" y1="0" x2="20" y2="0" class="circuit"/>
      <text x="0" y="20" class="axis">C1</text>
    </g>

    <!-- Diode -->
    <g transform="translate(120, 80)">
      <polygon points="-10,0 10,8 10,-8" class="diode"/>
      <line x1="10" y1="-10" x2="10" y2="10" stroke="#f44336" stroke-width="3"/>
      <line x1="-20" y1="0" x2="-10" y2="0" class="circuit"/>
      <line x1="10" y1="0" x2="30" y2="0" class="circuit"/>
      <text x="0" y="25" class="axis">D1</text>
      <text x="0" y="37" class="axis">(Silicon)</text>

      <!-- Current flow animation -->
      <circle r="2" fill="#ff5722" opacity="0.8">
        <animateMotion dur="2s" repeatCount="indefinite">
          <mpath href="#currentPath1"/>
        </animateMotion>
        <animate attributeName="opacity" values="0.8;0.2;0.8" dur="1s" repeatCount="indefinite"/>
      </circle>
    </g>

    <!-- RC Filter -->
    <g transform="translate(200, 80)">
      <!-- Resistor -->
      <rect x="-10" y="-8" width="30" height="16" class="resistor" rx="2"/>
      <text x="5" y="5" class="axis">R</text>
      <text x="5" y="25" class="axis">Load</text>
      <line x1="-30" y1="0" x2="-10" y2="0" class="circuit"/>
      <line x1="20" y1="0" x2="40" y2="0" class="circuit"/>

      <!-- Connection to capacitor -->
      <line x1="40" y1="0" x2="40" y2="40" class="circuit"/>

      <!-- Filter capacitor -->
      <g transform="translate(40, 60)">
        <line x1="-8" y1="0" x2="8" y2="0" class="capacitor"/>
        <line x1="-8" y1="10" x2="8" y2="10" class="capacitor"/>
        <line x1="0" y1="0" x2="0" y2="-20" class="circuit"/>
        <line x1="0" y1="10" x2="0" y2="30" class="circuit"/>
        <text x="15" y="5" class="axis">C2</text>
        <text x="15" y="17" class="axis">Filter</text>

        <!-- Charge/discharge animation -->
        <rect x="-6" y="2" width="12" height="6" fill="#ffeb3b" opacity="0.6">
          <animate attributeName="opacity" values="0.6;0.2;0.6" dur="2s" repeatCount="indefinite"/>
        </rect>
      </g>
    </g>

    <!-- Output -->
    <circle cx="280" cy="80" r="5" fill="#4caf50"/>
    <text x="295" y="75" class="axis">Audio</text>
    <text x="295" y="88" class="axis">Output</text>

    <!-- Ground connections -->
    <line x1="40" y1="120" x2="280" y2="120" class="circuit"/>
    <line x1="240" y1="90" x2="240" y2="120" class="circuit"/>

    <!-- Ground symbols -->
    <g transform="translate(160, 120)">
      <line x1="0" y1="0" x2="0" y2="10" class="circuit"/>
      <line x1="-10" y1="10" x2="10" y2="10" class="circuit"/>
      <line x1="-6" y1="15" x2="6" y2="15" class="circuit"/>
      <line x1="-3" y1="20" x2="3" y2="20" class="circuit"/>
      <text x="0" y="35" class="axis">Ground</text>
    </g>

    <!-- Circuit connections -->
    <line x1="40" y1="80" x2="100" y2="80" class="circuit"/>
    <line x1="150" y1="80" x2="170" y2="80" class="circuit"/>
    <line x1="240" y1="80" x2="275" y2="80" class="circuit"/>

    <!-- Current path for animation -->
    <path id="currentPath1" d="M-15,0 L25,0" style="opacity:0"/>
  </g>

  <!-- Waveform Analysis -->
  <g transform="translate(100, 200)">
    <text x="300" y="15" class="section-title" fill="#1976d2">Signal Waveforms</text>

    <!-- Time axis -->
    <line x1="30" y1="200" x2="580" y2="200" stroke="black" stroke-width="1"/>
    <text x="590" y="205" class="axis">Time</text>

    <!-- AM Input Signal -->
    <text x="0" y="45" class="axis">AM Input</text>
    <path class="wave am-input" d="M30,50 Q35,35 40,50 Q45,65 50,50 Q55,30 60,50 Q65,70 70,50 Q75,25 80,50 Q85,75 90,50 Q95,20 100,50 Q105,80 110,50 Q115,15 120,50 Q125,85 130,50 Q135,10 140,50 Q145,90 150,50 Q155,5 160,50 Q165,95 170,50 Q175,10 180,50 Q185,90 190,50 Q195,15 200,50 Q205,85 210,50 Q215,20 220,50 Q225,80 230,50 Q235,25 240,50 Q245,75 250,50 Q255,30 260,50 Q265,70 270,50 Q275,35 280,50 Q285,65 290,50 Q295,40 300,50 Q305,60 310,50 Q315,45 320,50 Q325,55 330,50 Q335,47 340,50 Q345,53 350,50 Q355,49 360,50 Q365,51 370,50 Q375,50 380,50 Q385,50 390,50 Q395,50 400,50 Q405,50 410,50 Q415,50 420,50 Q425,50 430,50 Q435,50 440,50 Q445,50 450,50 Q455,50 460,50 Q465,50 470,50 Q475,50 480,50 Q485,50 490,50 Q495,50 500,50 Q505,50 510,50 Q515,50 520,50 Q525,50 530,50 Q535,50 540,50 Q545,50 550,50 Q555,50 560,50 Q565,50 570,50">
      <animate attributeName="d" values="M30,50 Q35,35 40,50 Q45,65 50,50 Q55,30 60,50 Q65,70 70,50 Q75,25 80,50 Q85,75 90,50 Q95,20 100,50 Q105,80 110,50 Q115,15 120,50 Q125,85 130,50 Q135,10 140,50 Q145,90 150,50 Q155,5 160,50 Q165,95 170,50 Q175,10 180,50 Q185,90 190,50 Q195,15 200,50 Q205,85 210,50 Q215,20 220,50 Q225,80 230,50 Q235,25 240,50 Q245,75 250,50 Q255,30 260,50 Q265,70 270,50 Q275,35 280,50 Q285,65 290,50 Q295,40 300,50 Q305,60 310,50 Q315,45 320,50 Q325,55 330,50 Q335,47 340,50 Q345,53 350,50 Q355,49 360,50 Q365,51 370,50 Q375,50 380,50 Q385,50 390,50 Q395,50 400,50 Q405,50 410,50 Q415,50 420,50 Q425,50 430,50 Q435,50 440,50 Q445,50 450,50 Q455,50 460,50 Q465,50 470,50 Q475,50 480,50 Q485,50 490,50 Q495,50 500,50 Q505,50 510,50 Q515,50 520,50 Q525,50 530,50 Q535,50 540,50 Q545,50 550,50 Q555,50 560,50 Q565,50 570,50;M30,55 Q35,40 40,55 Q45,70 50,55 Q55,35 60,55 Q65,75 70,55 Q75,30 80,55 Q85,80 90,55 Q95,25 100,55 Q105,85 110,55 Q115,20 120,55 Q125,90 130,55 Q135,15 140,55 Q145,95 150,55 Q155,10 160,55 Q165,100 170,55 Q175,15 180,55 Q185,95 190,55 Q195,20 200,55 Q205,90 210,55 Q215,25 220,55 Q225,85 230,55 Q235,30 240,55 Q245,80 250,55 Q255,35 260,55 Q265,75 270,55 Q275,40 280,55 Q285,70 290,55 Q295,45 300,55 Q305,65 310,55 Q315,50 320,55 Q325,60 330,55 Q335,52 340,55 Q345,58 350,55 Q355,54 360,55 Q365,56 370,55 Q375,55 380,55 Q385,55 390,55 Q395,55 400,55 Q405,55 410,55 Q415,55 420,55 Q425,55 430,55 Q435,55 440,55 Q445,55 450,55 Q455,55 460,55 Q465,55 470,55 Q475,55 480,55 Q485,55 490,55 Q495,55 500,55 Q505,55 510,55 Q515,55 520,55 Q525,55 530,55 Q535,55 540,55 Q545,55 550,55 Q555,55 560,55 Q565,55 570,55;M30,50 Q35,35 40,50 Q45,65 50,50 Q55,30 60,50 Q65,70 70,50 Q75,25 80,50 Q85,75 90,50 Q95,20 100,50 Q105,80 110,50 Q115,15 120,50 Q125,85 130,50 Q135,10 140,50 Q145,90 150,50 Q155,5 160,50 Q165,95 170,50 Q175,10 180,50 Q185,90 190,50 Q195,15 200,50 Q205,85 210,50 Q215,20 220,50 Q225,80 230,50 Q235,25 240,50 Q245,75 250,50 Q255,30 260,50 Q265,70 270,50 Q275,35 280,50 Q285,65 290,50 Q295,40 300,50 Q305,60 310,50 Q315,45 320,50 Q325,55 330,50 Q335,47 340,50 Q345,53 350,50 Q355,49 360,50 Q365,51 370,50 Q375,50 380,50 Q385,50 390,50 Q395,50 400,50 Q405,50 410,50 Q415,50 420,50 Q425,50 430,50 Q435,50 440,50 Q445,50 450,50 Q455,50 460,50 Q465,50 470,50 Q475,50 480,50 Q485,50 490,50 Q495,50 500,50 Q505,50 510,50 Q515,50 520,50 Q525,50 530,50 Q535,50 540,50 Q545,50 550,50 Q555,50 560,50 Q565,50 570,50" dur="4s" repeatCount="indefinite"/>
    </path>

    <!-- Rectified Signal -->
    <text x="0" y="95" class="axis">Rectified</text>
    <text x="0" y="107" class="axis">Signal</text>
    <path class="wave rectified" d="M30,100 Q35,85 40,100 L45,100 Q50,100 55,80 60,100 Q65,120 70,100 L75,100 Q80,100 85,125 90,100 Q95,70 100,100 L105,100 Q110,100 115,65 120,100 Q125,135 130,100 L135,100 Q140,100 145,140 150,100 Q155,55 160,100 L165,100 Q170,100 175,60 180,100 Q185,140 190,100 L195,100 Q200,100 205,135 210,100 Q215,70 220,100 L225,100 Q230,100 235,75 240,100 Q245,125 250,100 L255,100 Q260,100 265,120 270,100 Q275,85 280,100 L285,100 Q290,100 295,90 300,100 Q305,110 310,100 L315,100 Q320,100 325,105 330,100 Q335,97 340,100 L345,100 Q350,100 355,99 360,100 Q365,101 370,100 L375,100 Q380,100 385,100 390,100 Q395,100 400,100 L405,100 Q410,100 415,100 420,100 Q425,100 430,100 L435,100 Q440,100 445,100 450,100 Q455,100 460,100 L465,100 Q470,100 475,100 480,100 Q485,100 490,100 L495,100 Q500,100 505,100 510,100 Q515,100 520,100 L525,100 Q530,100 535,100 540,100 Q545,100 550,100 L555,100 Q560,100 565,100 570,100">
      <animate attributeName="d" values="M30,100 Q35,85 40,100 L45,100 Q50,100 55,80 60,100 Q65,120 70,100 L75,100 Q80,100 85,125 90,100 Q95,70 100,100 L105,100 Q110,100 115,65 120,100 Q125,135 130,100 L135,100 Q140,100 145,140 150,100 Q155,55 160,100 L165,100 Q170,100 175,60 180,100 Q185,140 190,100 L195,100 Q200,100 205,135 210,100 Q215,70 220,100 L225,100 Q230,100 235,75 240,100 Q245,125 250,100 L255,100 Q260,100 265,120 270,100 Q275,85 280,100 L285,100 Q290,100 295,90 300,100 Q305,110 310,100 L315,100 Q320,100 325,105 330,100 Q335,97 340,100 L345,100 Q350,100 355,99 360,100 Q365,101 370,100 L375,100 Q380,100 385,100 390,100 Q395,100 400,100 L405,100 Q410,100 415,100 420,100 Q425,100 430,100 L435,100 Q440,100 445,100 450,100 Q455,100 460,100 L465,100 Q470,100 475,100 480,100 Q485,100 490,100 L495,100 Q500,100 505,100 510,100 Q515,100 520,100 L525,100 Q530,100 535,100 540,100 Q545,100 550,100 L555,100 Q560,100 565,100 570,100;M30,105 Q35,90 40,105 L45,105 Q50,105 55,85 60,105 Q65,125 70,105 L75,105 Q80,105 85,130 90,105 Q95,75 100,105 L105,105 Q110,105 115,70 120,105 Q125,140 130,105 L135,105 Q140,105 145,145 150,105 Q155,60 160,105 L165,105 Q170,105 175,65 180,105 Q185,145 190,105 L195,105 Q200,105 205,140 210,105 Q215,75 220,105 L225,105 Q230,105 235,80 240,105 Q245,130 250,105 L255,105 Q260,105 265,125 270,105 Q275,90 280,105 L285,105 Q290,105 295,95 300,105 Q305,115 310,105 L315,105 Q320,105 325,110 330,105 Q335,102 340,105 L345,105 Q350,105 355,104 360,105 Q365,106 370,105 L375,105 Q380,105 385,105 390,105 Q395,105 400,105 L405,105 Q410,105 415,105 420,105 Q425,105 430,105 L435,105 Q440,105 445,105 450,105 Q455,105 460,105 L465,105 Q470,105 475,105 480,105 Q485,105 490,105 L495,105 Q500,105 505,105 510,105 Q515,105 520,105 L525,105 Q530,105 535,105 540,105 Q545,105 550,105 L555,105 Q560,105 565,105 570,105;M30,100 Q35,85 40,100 L45,100 Q50,100 55,80 60,100 Q65,120 70,100 L75,100 Q80,100 85,125 90,100 Q95,70 100,100 L105,100 Q110,100 115,65 120,100 Q125,135 130,100 L135,100 Q140,100 145,140 150,100 Q155,55 160,100 L165,100 Q170,100 175,60 180,100 Q185,140 190,100 L195,100 Q200,100 205,135 210,100 Q215,70 220,100 L225,100 Q230,100 235,75 240,100 Q245,125 250,100 L255,100 Q260,100 265,120 270,100 Q275,85 280,100 L285,100 Q290,100 295,90 300,100 Q305,110 310,100 L315,100 Q320,100 325,105 330,100 Q335,97 340,100 L345,100 Q350,100 355,99 360,100 Q365,101 370,100 L375,100 Q380,100 385,100 390,100 Q395,100 400,100 L405,100 Q410,100 415,100 420,100 Q425,100 430,100 L435,100 Q440,100 445,100 450,100 Q455,100 460,100 L465,100 Q470,100 475,100 480,100 Q485,100 490,100 L495,100 Q500,100 505,100 510,100 Q515,100 520,100 L525,100 Q530,100 535,100 540,100 Q545,100 550,100 L555,100 Q560,100 565,100 570,100" dur="4s" repeatCount="indefinite"/>
    </path>

    <!-- Envelope (Detected Output) -->
    <text x="0" y="145" class="axis">Envelope</text>
    <text x="0" y="157" class="axis">Output</text>
    <path class="wave envelope" d="M30,155 Q70,135 110,165 Q150,195 190,145 Q230,125 270,175 Q310,190 350,155 Q390,150 430,150 Q470,150 510,150 Q550,150 570,150">
      <animate attributeName="d" values="M30,155 Q70,135 110,165 Q150,195 190,145 Q230,125 270,175 Q310,190 350,155 Q390,150 430,150 Q470,150 510,150 Q550,150 570,150;M30,160 Q70,140 110,170 Q150,200 190,150 Q230,130 270,180 Q310,195 350,160 Q390,155 430,155 Q470,155 510,155 Q550,155 570,155;M30,155 Q70,135 110,165 Q150,195 190,145 Q230,125 270,175 Q310,190 350,155 Q390,150 430,150 Q470,150 510,150 Q550,150 570,150" dur="4s" repeatCount="indefinite"/>
    </path>

    <!-- Voltage levels -->
    <text x="585" y="55" class="voltage">+Vmax</text>
    <text x="585" y="105" class="voltage">0V</text>
    <text x="585" y="155" class="voltage">Audio</text>
    <text x="585" y="167" class="voltage">Signal</text>
  </g>

  <!-- Circuit Operation Explanation -->
  <g transform="translate(50, 430)">
    <text x="400" y="15" class="section-title" fill="#1976d2">Circuit Operation and Design Considerations</text>

    <!-- Operation Steps -->
    <g transform="translate(0, 30)">
      <rect x="0" y="0" width="400" height="120" fill="#e8f5e8" stroke="#4caf50" stroke-width="2" rx="5"/>
      <text x="200" y="20" class="label" fill="#2e7d32">Operation Steps</text>
      <text x="10" y="40" class="description">1. Diode conducts during positive half-cycles</text>
      <text x="10" y="55" class="description">2. Capacitor charges to peak voltage during conduction</text>
      <text x="10" y="70" class="description">3. Diode blocks during negative half-cycles</text>
      <text x="10" y="85" class="description">4. Capacitor discharges through load resistor</text>
      <text x="10" y="100" class="description">5. RC filter smooths output to recover envelope</text>
    </g>

    <!-- Design Conditions -->
    <g transform="translate(420, 30)">
      <rect x="0" y="0" width="400" height="120" fill="#fff3e0" stroke="#ff9800" stroke-width="2" rx="5"/>
      <text x="200" y="20" class="label" fill="#e65100">Design Conditions</text>
      <text x="10" y="40" class="description">Time Constant: RC &gt;&gt; 1/fc (carrier frequency)</text>
      <text x="10" y="55" class="description">But: RC &lt;&lt; 1/fm (modulating frequency)</text>
      <text x="10" y="70" class="description">Diode: Silicon (0.7V) or Germanium (0.3V)</text>
      <text x="10" y="85" class="description">Load: High impedance to minimize loading</text>
      <text x="10" y="100" class="description">Capacitor: Low leakage, stable value</text>
    </g>
  </g>

  <!-- Frequency Response and Distortion -->
  <g transform="translate(50, 580)">
    <rect x="0" y="0" width="800" height="60" fill="#f5f5f5" stroke="#666" stroke-width="1" rx="5"/>
    <text x="400" y="20" class="label" font-weight="bold">Performance Characteristics</text>
    <text x="20" y="40" class="description">• Diagonal Clipping: Occurs if RC too small (can't follow modulation)</text>
    <text x="450" y="40" class="description">• Negative Peak Clipping: Happens with overmodulation (m > 1)</text>
    <text x="20" y="55" class="description">• Frequency Response: Limited by RC time constant</text>
    <text x="450" y="55" class="description">• Efficiency: Simple but has 0.7V diode drop loss</text>
  </g>
</svg>