<svg viewBox="0 0 900 650" xmlns="http://www.w3.org/2000/svg">
  <defs>
    <style>
      .title { font: bold 16px Arial; text-anchor: middle; }
      .label { font: 12px Arial; text-anchor: middle; }
      .axis { font: 10px Arial; }
      .block { fill: #e3f2fd; stroke: #1976d2; stroke-width: 2; }
      .transmitter { fill: #e8f5e8; stroke: #4caf50; stroke-width: 2; }
      .receiver { fill: #fff3e0; stroke: #ff9800; stroke-width: 2; }
      .channel { fill: #f3e5f5; stroke: #9c27b0; stroke-width: 2; }
      .block-text { font: 11px Arial; text-anchor: middle; }
      .wave { fill: none; stroke-width: 2; }
      .analog { stroke: #4caf50; }
      .pam { stroke: #2196f3; }
      .quantized { stroke: #ff9800; }
      .digital { stroke: #9c27b0; stroke-width: 3; }
      .arrow { stroke: #333; stroke-width: 2; marker-end: url(#arrowhead); }
      .description { font: 11px Arial; }
      .section-title { font: bold 14px Arial; text-anchor: middle; }
    </style>
  </defs>
  
  <!-- Title -->
  <text x="450" y="25" class="title">Pulse Code Modulation (PCM) System</text>
  
  <!-- PCM Transmitter -->
  <g transform="translate(50, 60)">
    <text x="300" y="15" class="section-title" fill="#2e7d32">PCM TRANSMITTER</text>
    
    <!-- Analog Input -->
    <circle cx="30" cy="60" r="5" fill="#4caf50"/>
    <text x="15" y="55" class="axis">Analog</text>
    <text x="15" y="68" class="axis">Input</text>
    
    <!-- Anti-aliasing Filter -->
    <rect x="70" y="40" width="80" height="40" class="transmitter" rx="5"/>
    <text x="110" y="55" class="block-text">Anti-aliasing</text>
    <text x="110" y="68" class="block-text">Filter</text>
    <text x="110" y="95" class="axis">fc = fm(max)</text>
    
    <!-- Sampler -->
    <rect x="180" y="40" width="60" height="40" class="transmitter" rx="5"/>
    <text x="210" y="60" class="block-text">Sampler</text>
    <text x="210" y="95" class="axis">fs ≥ 2fm</text>
    
    <!-- Clock for sampler -->
    <rect x="180" y="5" width="60" height="25" class="block" rx="3"/>
    <text x="210" y="20" class="block-text">Clock</text>
    <path class="arrow" d="M210,30 L210,40"/>
    
    <!-- Quantizer -->
    <rect x="270" y="40" width="60" height="40" class="transmitter" rx="5"/>
    <text x="300" y="60" class="block-text">Quantizer</text>
    <text x="300" y="95" class="axis">2ⁿ levels</text>
    
    <!-- Encoder -->
    <rect x="360" y="40" width="60" height="40" class="transmitter" rx="5"/>
    <text x="390" y="60" class="block-text">Encoder</text>
    <text x="390" y="95" class="axis">n bits</text>
    
    <!-- Line Coder -->
    <rect x="450" y="40" width="60" height="40" class="transmitter" rx="5"/>
    <text x="480" y="55" class="block-text">Line</text>
    <text x="480" y="68" class="block-text">Coder</text>
    <text x="480" y="95" class="axis">NRZ/RZ</text>
    
    <!-- Connections -->
    <path class="arrow" d="M45,60 L70,60"/>
    <path class="arrow" d="M150,60 L180,60"/>
    <path class="arrow" d="M240,60 L270,60"/>
    <path class="arrow" d="M330,60 L360,60"/>
    <path class="arrow" d="M420,60 L450,60"/>
    
    <!-- Waveforms in transmitter -->
    <g transform="translate(0, 110)">
      <!-- Analog signal -->
      <text x="110" y="0" class="axis">Analog</text>
      <path class="wave analog" d="M70,10 Q90,5 110,15 Q130,25 150,10">
        <animate attributeName="d" values="M70,10 Q90,5 110,15 Q130,25 150,10;M70,15 Q90,10 110,20 Q130,20 150,15;M70,10 Q90,5 110,15 Q130,25 150,10" dur="3s" repeatCount="indefinite"/>
      </path>
      
      <!-- PAM signal -->
      <text x="210" y="0" class="axis">PAM</text>
      <rect x="185" y="8" width="3" height="7" class="wave pam" opacity="0.8">
        <animate attributeName="opacity" values="0.8;0.4;0.8" dur="1s" repeatCount="indefinite"/>
      </rect>
      <rect x="200" y="5" width="3" height="10" class="wave pam" opacity="0.8">
        <animate attributeName="opacity" values="0.8;0.4;0.8" dur="1s" repeatCount="indefinite" begin="0.25s"/>
      </rect>
      <rect x="215" y="12" width="3" height="8" class="wave pam" opacity="0.8">
        <animate attributeName="opacity" values="0.8;0.4;0.8" dur="1s" repeatCount="indefinite" begin="0.5s"/>
      </rect>
      <rect x="230" y="18" width="3" height="4" class="wave pam" opacity="0.8">
        <animate attributeName="opacity" values="0.8;0.4;0.8" dur="1s" repeatCount="indefinite" begin="0.75s"/>
      </rect>
      
      <!-- Quantized signal -->
      <text x="300" y="0" class="axis">Quantized</text>
      <rect x="275" y="10" width="3" height="5" class="wave quantized"/>
      <rect x="290" y="8" width="3" height="7" class="wave quantized"/>
      <rect x="305" y="12" width="3" height="6" class="wave quantized"/>
      <rect x="320" y="15" width="3" height="3" class="wave quantized"/>
      
      <!-- Binary output -->
      <text x="390" y="0" class="axis">Binary</text>
      <text x="365" y="12" class="axis" font-size="8">011</text>
      <text x="380" y="12" class="axis" font-size="8">101</text>
      <text x="395" y="12" class="axis" font-size="8">100</text>
      <text x="410" y="12" class="axis" font-size="8">010</text>
      
      <!-- Line coded -->
      <text x="480" y="0" class="axis">Line Code</text>
      <rect x="455" y="8" width="15" height="8" class="wave digital" opacity="0.7"/>
      <rect x="470" y="5" width="15" height="12" class="wave digital" opacity="0.7"/>
      <rect x="485" y="10" width="15" height="6" class="wave digital" opacity="0.7"/>
      <rect x="500" y="12" width="15" height="4" class="wave digital" opacity="0.7"/>
    </g>
  </g>
  
  <!-- Transmission Channel -->
  <g transform="translate(400, 180)">
    <rect x="0" y="0" width="100" height="40" class="channel" rx="5"/>
    <text x="50" y="25" class="block-text">Transmission</text>
    <text x="50" y="38" class="block-text">Channel</text>
    
    <!-- Noise addition -->
    <circle cx="80" cy="10" r="8" fill="#f44336" opacity="0.3">
      <animate attributeName="opacity" values="0.3;0.7;0.3" dur="2s" repeatCount="indefinite"/>
    </circle>
    <text x="75" y="15" class="axis" font-size="8">+n</text>
    
    <!-- Signal path -->
    <path class="arrow" d="M-20,20 L0,20"/>
    <path class="arrow" d="M100,20 L120,20"/>
  </g>
  
  <!-- PCM Receiver -->
  <g transform="translate(50, 250)">
    <text x="300" y="15" class="section-title" fill="#e65100">PCM RECEIVER</text>
    
    <!-- Line Decoder -->
    <rect x="70" y="40" width="60" height="40" class="receiver" rx="5"/>
    <text x="100" y="55" class="block-text">Line</text>
    <text x="100" y="68" class="block-text">Decoder</text>
    
    <!-- Clock Recovery -->
    <rect x="70" y="5" width="60" height="25" class="block" rx="3"/>
    <text x="100" y="20" class="block-text">Clock Recovery</text>
    <path class="arrow" d="M100,30 L100,40"/>
    
    <!-- Decoder -->
    <rect x="160" y="40" width="60" height="40" class="receiver" rx="5"/>
    <text x="190" y="60" class="block-text">Decoder</text>
    
    <!-- DAC/Reconstruction -->
    <rect x="250" y="40" width="80" height="40" class="receiver" rx="5"/>
    <text x="290" y="55" class="block-text">DAC &amp;</text>
    <text x="290" y="68" class="block-text">Reconstruction</text>
    
    <!-- Low-pass Filter -->
    <rect x="360" y="40" width="80" height="40" class="receiver" rx="5"/>
    <text x="400" y="55" class="block-text">Low-pass</text>
    <text x="400" y="68" class="block-text">Filter</text>
    
    <!-- Analog Output -->
    <circle cx="470" cy="60" r="5" fill="#ff9800"/>
    <text x="485" y="55" class="axis">Analog</text>
    <text x="485" y="68" class="axis">Output</text>
    
    <!-- Connections -->
    <path class="arrow" d="M45,60 L70,60"/>
    <path class="arrow" d="M130,60 L160,60"/>
    <path class="arrow" d="M220,60 L250,60"/>
    <path class="arrow" d="M330,60 L360,60"/>
    <path class="arrow" d="M440,60 L465,60"/>
    
    <!-- Waveforms in receiver -->
    <g transform="translate(0, 110)">
      <!-- Received digital -->
      <text x="100" y="0" class="axis">Received</text>
      <rect x="75" y="8" width="15" height="8" class="wave digital" opacity="0.6"/>
      <rect x="90" y="5" width="15" height="12" class="wave digital" opacity="0.6"/>
      <rect x="105" y="10" width="15" height="6" class="wave digital" opacity="0.6"/>
      <rect x="120" y="12" width="15" height="4" class="wave digital" opacity="0.6"/>
      
      <!-- Decoded binary -->
      <text x="190" y="0" class="axis">Decoded</text>
      <text x="165" y="12" class="axis" font-size="8">011</text>
      <text x="180" y="12" class="axis" font-size="8">101</text>
      <text x="195" y="12" class="axis" font-size="8">100</text>
      <text x="210" y="12" class="axis" font-size="8">010</text>
      
      <!-- DAC output -->
      <text x="290" y="0" class="axis">DAC</text>
      <rect x="255" y="10" width="10" height="5" class="wave quantized"/>
      <rect x="270" y="8" width="10" height="7" class="wave quantized"/>
      <rect x="285" y="12" width="10" height="6" class="wave quantized"/>
      <rect x="300" y="15" width="10" height="3" class="wave quantized"/>
      <rect x="315" y="10" width="10" height="5" class="wave quantized"/>
      
      <!-- Filtered output -->
      <text x="400" y="0" class="axis">Filtered</text>
      <path class="wave analog" d="M365,12 Q385,8 405,16 Q425,22 440,12">
        <animate attributeName="d" values="M365,12 Q385,8 405,16 Q425,22 440,12;M365,15 Q385,10 405,19 Q425,20 440,15;M365,12 Q385,8 405,16 Q425,22 440,12" dur="3s" repeatCount="indefinite"/>
      </path>
    </g>
  </g>
  
  <!-- System Characteristics -->
  <g transform="translate(50, 400)">
    <text x="350" y="15" class="section-title">PCM System Characteristics</text>
    
    <!-- Advantages -->
    <g transform="translate(0, 30)">
      <rect x="0" y="0" width="280" height="140" fill="#e8f5e8" stroke="#4caf50" stroke-width="2" rx="5"/>
      <text x="140" y="20" class="label" fill="#2e7d32">ADVANTAGES</text>
      <text x="10" y="40" class="description">• Immune to noise accumulation</text>
      <text x="10" y="55" class="description">• Signal regeneration possible</text>
      <text x="10" y="70" class="description">• Compatible with digital systems</text>
      <text x="10" y="85" class="description">• Error detection/correction possible</text>
      <text x="10" y="100" class="description">• Multiplexing capability</text>
      <text x="10" y="115" class="description">• Long-distance transmission</text>
      <text x="10" y="130" class="description">• Uniform transmission quality</text>
    </g>
    
    <!-- Disadvantages -->
    <g transform="translate(300, 30)">
      <rect x="0" y="0" width="280" height="140" fill="#ffebee" stroke="#f44336" stroke-width="2" rx="5"/>
      <text x="140" y="20" class="label" fill="#d32f2f">DISADVANTAGES</text>
      <text x="10" y="40" class="description">• Requires higher bandwidth</text>
      <text x="10" y="55" class="description">• Complex circuitry needed</text>
      <text x="10" y="70" class="description">• Quantization noise present</text>
      <text x="10" y="85" class="description">• Synchronization required</text>
      <text x="10" y="100" class="description">• Higher power consumption</text>
      <text x="10" y="115" class="description">• Expensive equipment</text>
      <text x="10" y="130" class="description">• Timing sensitivity</text>
    </g>
    
    <!-- Applications -->
    <g transform="translate(600, 30)">
      <rect x="0" y="0" width="250" height="140" fill="#f3e5f5" stroke="#9c27b0" stroke-width="2" rx="5"/>
      <text x="125" y="20" class="label" fill="#7b1fa2">APPLICATIONS</text>
      <text x="10" y="40" class="description">• Telephone systems (T1, E1)</text>
      <text x="10" y="55" class="description">• CD and DVD audio</text>
      <text x="10" y="70" class="description">• Digital television</text>
      <text x="10" y="85" class="description">• Satellite communications</text>
      <text x="10" y="100" class="description">• Mobile networks (GSM)</text>
      <text x="10" y="115" class="description">• Computer networks</text>
      <text x="10" y="130" class="description">• Digital audio broadcasting</text>
    </g>
  </g>
  
  <!-- Key Specifications -->
  <g transform="translate(50, 580)">
    <rect x="0" y="0" width="800" height="60" fill="#f5f5f5" stroke="#666" stroke-width="1" rx="5"/>
    <text x="400" y="20" class="label" font-weight="bold">KEY PCM SPECIFICATIONS</text>
    <text x="20" y="40" class="description">• Sampling Rate: fs ≥ 2fm (Nyquist criterion)</text>
    <text x="250" y="40" class="description">• Quantization Levels: 2ⁿ (n = number of bits)</text>
    <text x="500" y="40" class="description">• Bit Rate: R = n × fs bits/second</text>
    <text x="20" y="55" class="description">• Bandwidth: BW ≈ R/2 Hz (for ideal channel)</text>
    <text x="250" y="55" class="description">• SNR: 6n + 1.8 dB (for uniform quantization)</text>
    <text x="500" y="55" class="description">• Step Size: Δ = (Vmax - Vmin)/2ⁿ</text>
  </g>
  
  <!-- Arrow marker definition -->
  <defs>
    <marker id="arrowhead" markerWidth="10" markerHeight="7" refX="9" refY="3.5" orient="auto">
      <polygon points="0 0, 10 3.5, 0 7" fill="#333"/>
    </marker>
  </defs>
</svg>