<svg viewBox="0 0 900 600" xmlns="http://www.w3.org/2000/svg">
  <!-- Background -->
  <rect width="900" height="600" fill="#f8f9fa"/>
  
  <!-- Title -->
  <text x="450" y="25" text-anchor="middle" font-family="Arial, sans-serif" font-size="18" font-weight="bold" fill="#2c3e50">
    Antenna Radiation Pattern and Gain
  </text>
  
  <!-- Radiation Pattern Definition -->
  <g transform="translate(50, 60)">
    <text x="350" y="0" text-anchor="middle" font-family="Arial, sans-serif" font-size="14" font-weight="bold" fill="#e74c3c">
      Radiation Pattern: Graphical Representation of Antenna's Radiating Properties
    </text>
    
    <!-- 3D Pattern visualization -->
    <g transform="translate(0, 30)">
      <!-- Isotropic (reference) -->
      <g transform="translate(100, 50)">
        <text x="0" y="0" text-anchor="middle" font-family="Arial, sans-serif" font-size="12" font-weight="bold" fill="#95a5a6">
          Isotropic Radiator
        </text>
        
        <!-- Perfect sphere -->
        <circle cx="0" cy="50" r="40" fill="none" stroke="#95a5a6" stroke-width="2" opacity="0.7"/>
        <ellipse cx="0" cy="50" rx="40" ry="20" fill="none" stroke="#95a5a6" stroke-width="1" stroke-dasharray="2,2" opacity="0.5"/>
        <ellipse cx="0" cy="50" rx="20" ry="40" fill="none" stroke="#95a5a6" stroke-width="1" stroke-dasharray="2,2" opacity="0.5"/>
        
        <!-- Antenna at center -->
        <circle cx="0" cy="50" r="3" fill="#95a5a6"/>
        
        <text x="0" y="110" text-anchor="middle" font-family="Arial, sans-serif" font-size="10" fill="#666">
          Gain = 0 dBi (reference)
        </text>
      </g>
      
      <!-- Dipole pattern -->
      <g transform="translate(300, 50)">
        <text x="0" y="0" text-anchor="middle" font-family="Arial, sans-serif" font-size="12" font-weight="bold" fill="#3498db">
          Dipole Antenna
        </text>
        
        <!-- Toroidal pattern -->
        <g stroke="#3498db" stroke-width="3" fill="none">
          <path d="M -50 50 Q 0 30 50 50 Q 0 70 -50 50"/>
          <path d="M -35 35 Q 0 25 35 35 Q 0 75 -35 35" opacity="0.7"/>
          <path d="M -35 65 Q 0 75 35 65 Q 0 25 -35 65" opacity="0.7"/>
        </g>
        
        <!-- Dipole element -->
        <line x1="0" y1="30" x2="0" y2="70" stroke="#2980b9" stroke-width="4"/>
        <circle cx="0" cy="50" r="2" fill="#2980b9"/>
        
        <!-- Null directions -->
        <g stroke="#e74c3c" stroke-width="2" stroke-dasharray="3,3">
          <line x1="0" y1="10" x2="0" y2="25"/>
          <line x1="0" y1="75" x2="0" y2="90"/>
        </g>
        
        <text x="0" y="110" text-anchor="middle" font-family="Arial, sans-serif" font-size="10" fill="#666">
          Gain = 2.15 dBi
        </text>
      </g>
      
      <!-- Directional antenna -->
      <g transform="translate(550, 50)">
        <text x="0" y="0" text-anchor="middle" font-family="Arial, sans-serif" font-size="12" font-weight="bold" fill="#27ae60">
          Directional Antenna
        </text>
        
        <!-- Directional pattern -->
        <g stroke="#27ae60" stroke-width="3" fill="#27ae60" fill-opacity="0.2">
          <path d="M 0 50 L 60 30 Q 70 50 60 70 Z"/>
        </g>
        
        <!-- Secondary lobes -->
        <g stroke="#27ae60" stroke-width="2" fill="none" opacity="0.5">
          <path d="M 0 50 L -20 40 Q -25 50 -20 60 Z"/>
          <path d="M 0 50 L 15 25 Q 20 30 15 35 Z"/>
          <path d="M 0 50 L 15 75 Q 20 70 15 65 Z"/>
        </g>
        
        <!-- Antenna structure -->
        <g stroke="#229954" stroke-width="3">
          <line x1="-15" y1="50" x2="15" y2="50"/>
          <polygon points="-15,45 -15,55 -20,50" fill="#229954"/>
        </g>
        
        <text x="0" y="110" text-anchor="middle" font-family="Arial, sans-serif" font-size="10" fill="#666">
          Gain = 10-20 dBi
        </text>
      </g>
    </g>
  </g>
  
  <!-- Polar Plot Representation -->
  <g transform="translate(50, 250)">
    <text x="300" y="0" text-anchor="middle" font-family="Arial, sans-serif" font-size="14" font-weight="bold" fill="#9b59b6">
      Polar Plot Representation
    </text>
    
    <!-- Polar grid -->
    <g transform="translate(300, 100)">
      <!-- Concentric circles (gain levels) -->
      <g stroke="#ddd" stroke-width="1" fill="none">
        <circle cx="0" cy="0" r="20"/>
        <circle cx="0" cy="0" r="40"/>
        <circle cx="0" cy="0" r="60"/>
        <circle cx="0" cy="0" r="80"/>
      </g>
      
      <!-- Radial lines (angles) -->
      <g stroke="#ddd" stroke-width="1">
        <line x1="-80" y1="0" x2="80" y2="0"/>
        <line x1="0" y1="-80" x2="0" y2="80"/>
        <line x1="-57" y1="-57" x2="57" y2="57"/>
        <line x1="-57" y1="57" x2="57" y2="-57"/>
      </g>
      
      <!-- Angle labels -->
      <g font-family="Arial, sans-serif" font-size="10" fill="#666">
        <text x="85" y="5" text-anchor="middle">0°</text>
        <text x="5" y="-85">90°</text>
        <text x="-85" y="5" text-anchor="middle">180°</text>
        <text x="5" y="95">270°</text>
      </g>
      
      <!-- Gain level labels -->
      <g font-family="Arial, sans-serif" font-size="9" fill="#666">
        <text x="22" y="-5">-10</text>
        <text x="42" y="-5">-5</text>
        <text x="62" y="-5">0</text>
        <text x="82" y="-5">5 dB</text>
      </g>
      
      <!-- Actual radiation pattern -->
      <g>
        <!-- Main lobe -->
        <path d="M 0 0 L 75 0 Q 70 -15 60 -25 Q 40 -35 20 -30 Q 5 -25 0 -15 Q -5 -25 -20 -30 Q -40 -35 -60 -25 Q -70 -15 -75 0 Q -70 15 -60 25 Q -40 35 -20 30 Q -5 25 0 15 Q 5 25 20 30 Q 40 35 60 25 Q 70 15 75 0 Z" 
              fill="#e74c3c" fill-opacity="0.3" stroke="#e74c3c" stroke-width="2"/>
        
        <!-- Side lobes -->
        <path d="M 0 0 L -25 35 Q -30 40 -25 45 Q -20 40 -15 35 Z" 
              fill="#f39c12" fill-opacity="0.5" stroke="#f39c12" stroke-width="1"/>
        <path d="M 0 0 L -25 -35 Q -30 -40 -25 -45 Q -20 -40 -15 -35 Z" 
              fill="#f39c12" fill-opacity="0.5" stroke="#f39c12" stroke-width="1"/>
      </g>
      
      <!-- Pattern features labels -->
      <g font-family="Arial, sans-serif" font-size="9">
        <text x="55" y="-10" fill="#e74c3c" font-weight="bold">Main Lobe</text>
        <text x="-45" y="45" fill="#f39c12">Side Lobe</text>
        <text x="10" y="-70" fill="#27ae60">Null</text>
        
        <!-- Beamwidth indicator -->
        <g stroke="#9b59b6" stroke-width="2" stroke-dasharray="2,2">
          <path d="M 53 -18 A 60 60 0 0 1 53 18"/>
        </g>
        <text x="70" y="30" fill="#9b59b6" font-size="8">HPBW</text>
      </g>
    </g>
  </g>
  
  <!-- Gain Definition and Types -->
  <g transform="translate(450, 250)">
    <text x="200" y="0" text-anchor="middle" font-family="Arial, sans-serif" font-size="14" font-weight="bold" fill="#3498db">
      Antenna Gain
    </text>
    
    <!-- Gain definition -->
    <g transform="translate(0, 30)">
      <rect x="0" y="0" width="400" height="180" fill="#e8f4fd" stroke="#3498db" stroke-width="2" rx="10"/>
      
      <text x="200" y="25" text-anchor="middle" font-family="Arial, sans-serif" font-size="12" font-weight="bold" fill="#3498db">
        Gain = Directivity × Efficiency
      </text>
      
      <!-- Gain formula -->
      <g transform="translate(50, 45)" font-family="Arial, sans-serif" font-size="11" fill="#34495e">
        <text x="0" y="0" font-weight="bold" fill="#e74c3c">Directivity (D):</text>
        <text x="0" y="18">Maximum radiation intensity</text>
        <text x="0" y="33">Average radiation intensity</text>
        
        <text x="200" y="0" font-weight="bold" fill="#27ae60">Efficiency (η):</text>
        <text x="200" y="18">Radiated Power</text>
        <text x="200" y="33">Input Power</text>
        
        <text x="75" y="60" font-weight="bold" fill="#3498db">G = η × D = η × (4π/Ω_A)</text>
        <text x="75" y="80" font-size="10" fill="#666">where Ω_A = beam solid angle</text>
        
        <!-- Gain units -->
        <text x="0" y="110" font-weight="bold">Units:</text>
        <text x="60" y="110" fill="#9b59b6">• dBi (relative to isotropic)</text>
        <text x="60" y="125" fill="#f39c12">• dBd (relative to dipole)</text>
        <text x="60" y="140" fill="#666">Conversion: dBi = dBd + 2.15</text>
      </g>
    </g>
  </g>
  
  <!-- Practical Examples -->
  <g transform="translate(50, 480)">
    <rect x="0" y="0" width="800" height="100" fill="#f4f1e8" stroke="#f39c12" stroke-width="2" rx="10"/>
    
    <text x="400" y="20" text-anchor="middle" font-family="Arial, sans-serif" font-size="14" font-weight="bold" fill="#f39c12">
      Practical Antenna Gain Examples
    </text>
    
    <g transform="translate(50, 35)" font-family="Arial, sans-serif" font-size="11" fill="#34495e">
      <text x="0" y="0" font-weight="bold" fill="#95a5a6">Isotropic Radiator:</text>
      <text x="130" y="0">0 dBi (theoretical reference)</text>
      
      <text x="0" y="18" font-weight="bold" fill="#3498db">Half-wave Dipole:</text>
      <text x="130" y="18">2.15 dBi, 0 dBd</text>
      
      <text x="0" y="36" font-weight="bold" fill="#9b59b6">Yagi Antenna:</text>
      <text x="130" y="36">6-20 dBi (TV, amateur radio)</text>
      
      <text x="400" y="0" font-weight="bold" fill="#27ae60">Parabolic Dish:</text>
      <text x="500" y="0">20-50 dBi (satellite communication)</text>
      
      <text x="400" y="18" font-weight="bold" fill="#e74c3c">Horn Antenna:</text>
      <text x="500" y="18">10-25 dBi (microwave applications)</text>
      
      <text x="400" y="36" font-weight="bold" fill="#f39c12">Patch Antenna:</text>
      <text x="500" y="36">6-9 dBi (GPS, WiFi)</text>
    </g>
  </g>
  
  <!-- Animation indicator -->
  <g transform="translate(850, 150)">
    <circle cx="0" cy="0" r="8" fill="#e74c3c" opacity="0.8">
      <animate attributeName="r" values="8;12;8" dur="2s" repeatCount="indefinite"/>
      <animate attributeName="opacity" values="0.8;0.4;0.8" dur="2s" repeatCount="indefinite"/>
    </circle>
  </g>
</svg>