<svg viewBox="0 0 800 600" xmlns="http://www.w3.org/2000/svg">
  <!-- Background -->
  <rect width="800" height="600" fill="#f8f9fa"/>

  <!-- Title -->
  <text x="400" y="25" text-anchor="middle" font-family="Arial, sans-serif" font-size="18" font-weight="bold" fill="#2c3e50">
    Ratio Detector for FM Detection
  </text>

  <!-- Circuit Diagram -->
  <g transform="translate(100, 60)">
    <!-- FM Input -->
    <g transform="translate(-50, 80)">
      <text x="0" y="0" font-family="Arial, sans-serif" font-size="12" font-weight="bold" fill="#3498db">FM Input</text>

      <!-- FM waveform -->
      <g stroke="#3498db" stroke-width="2" fill="none">
        <path d="M 0 20 Q 5 15 8 20 Q 12 25 15 20 Q 20 12 25 20 Q 30 28 35 20">
          <animate attributeName="d" 
                   values="M 0 20 Q 5 15 8 20 Q 12 25 15 20 Q 20 12 25 20 Q 30 28 35 20;
                          M 0 20 Q 3 15 6 20 Q 9 25 12 20 Q 15 12 18 20 Q 21 28 24 20 Q 27 12 30 20 Q 33 28 36 20;
                          M 0 20 Q 5 15 8 20 Q 12 25 15 20 Q 20 12 25 20 Q 30 28 35 20"
                   dur="2s" repeatCount="indefinite"/>
        </path>
      </g>
    </g>

    <!-- Transformer with center tap -->
    <g transform="translate(50, 50)">
      <!-- Primary winding -->
      <g stroke="#2c3e50" stroke-width="2" fill="none">
        <path d="M 0 20 Q 5 15 10 20 Q 15 25 20 20 Q 25 15 30 20"/>
        <circle cx="5" cy="20" r="1" fill="#2c3e50"/>
        <circle cx="15" cy="20" r="1" fill="#2c3e50"/>
        <circle cx="25" cy="20" r="1" fill="#2c3e50"/>
      </g>

      <!-- Secondary winding with center tap -->
      <g transform="translate(40, 0)" stroke="#2c3e50" stroke-width="2" fill="none">
        <path d="M 0 20 Q 5 15 10 20 Q 15 25 20 20 Q 25 15 30 20"/>
        <circle cx="5" cy="20" r="1" fill="#2c3e50"/>
        <circle cx="15" cy="20" r="1" fill="#2c3e50"/>
        <circle cx="25" cy="20" r="1" fill="#2c3e50"/>

        <!-- Center tap -->
        <line x1="15" y1="20" x2="15" y2="40" stroke="#2c3e50" stroke-width="2"/>
      </g>

      <!-- Core -->
      <line x1="35" y1="10" x2="35" y2="30" stroke="#7f8c8d" stroke-width="3"/>
      <line x1="37" y1="10" x2="37" y2="30" stroke="#7f8c8d" stroke-width="3"/>

      <text x="50" y="0" text-anchor="middle" font-family="Arial, sans-serif" font-size="10" fill="#2c3e50">Transformer</text>
    </g>

    <!-- Diodes in opposite configuration -->
    <g transform="translate(180, 50)">
      <!-- Diode D1 (top) -->
      <g transform="translate(0, 0)">
        <polygon points="0,20 12,26 0,32" fill="#e74c3c" stroke="#c0392b" stroke-width="1"/>
        <line x1="12" y1="20" x2="12" y2="32" stroke="#c0392b" stroke-width="2"/>
        <text x="6" y="15" text-anchor="middle" font-family="Arial, sans-serif" font-size="9" fill="#e74c3c">D1</text>
      </g>

      <!-- Diode D2 (bottom) - opposite polarity -->
      <g transform="translate(0, 60)">
        <polygon points="12,20 0,26 12,32" fill="#e74c3c" stroke="#c0392b" stroke-width="1"/>
        <line x1="0" y1="20" x2="0" y2="32" stroke="#c0392b" stroke-width="2"/>
        <text x="6" y="15" text-anchor="middle" font-family="Arial, sans-serif" font-size="9" fill="#e74c3c">D2</text>
      </g>
    </g>

    <!-- Load resistors -->
    <g transform="translate(220, 50)">
      <!-- R1 -->
      <g stroke="#34495e" stroke-width="2" fill="none">
        <path d="M 0 26 L 8 26 L 12 20 L 20 32 L 28 20 L 36 32 L 44 20 L 48 26 L 56 26"/>
      </g>
      <text x="28" y="15" text-anchor="middle" font-family="Arial, sans-serif" font-size="9" fill="#34495e">R1</text>

      <!-- R2 -->
      <g transform="translate(0, 60)" stroke="#34495e" stroke-width="2" fill="none">
        <path d="M 0 26 L 8 26 L 12 20 L 20 32 L 28 20 L 36 32 L 44 20 L 48 26 L 56 26"/>
      </g>
      <text x="28" y="55" text-anchor="middle" font-family="Arial, sans-serif" font-size="9" fill="#34495e">R2</text>
    </g>

    <!-- Large stabilizing capacitor -->
    <g transform="translate(300, 80)">
      <g stroke="#f39c12" stroke-width="3">
        <line x1="0" y1="0" x2="0" y2="40"/>
        <line x1="8" y1="0" x2="8" y2="40"/>
        <line x1="0" y1="20" x2="-15" y2="20"/>
        <line x1="8" y1="20" x2="23" y2="20"/>
      </g>
      <text x="4" y="-8" text-anchor="middle" font-family="Arial, sans-serif" font-size="10" fill="#f39c12">C (10μF)</text>
      <text x="4" y="55" text-anchor="middle" font-family="Arial, sans-serif" font-size="9" fill="#666">Stabilizing</text>
    </g>

    <!-- Output coupling -->
    <g transform="translate(350, 90)">
      <!-- Coupling capacitor -->
      <g stroke="#27ae60" stroke-width="2">
        <line x1="0" y1="0" x2="0" y2="20"/>
        <line x1="6" y1="0" x2="6" y2="20"/>
        <line x1="0" y1="10" x2="-10" y2="10"/>
        <line x1="6" y1="10" x2="16" y2="10"/>
      </g>

      <!-- Load resistor -->
      <g transform="translate(30, 5)" stroke="#27ae60" stroke-width="2" fill="none">
        <path d="M 0 5 L 5 5 L 8 0 L 14 10 L 20 0 L 26 10 L 32 0 L 35 5 L 40 5"/>
      </g>

      <text x="50" y="0" font-family="Arial, sans-serif" font-size="12" font-weight="bold" fill="#27ae60">Audio Output</text>
    </g>

    <!-- Connection wires -->
    <g stroke="#2c3e50" stroke-width="2">
      <!-- Primary input -->
      <line x1="20" y1="70" x2="50" y2="70"/>

      <!-- Secondary to diodes -->
      <line x1="120" y1="60" x2="180" y2="72"/>
      <line x1="120" y1="80" x2="180" y2="112"/>

      <!-- Center tap to ground -->
      <line x1="105" y1="90" x2="105" y2="130"/>
      <line x1="285" y1="100" x2="285" y2="130"/>
      <line x1="95" y1="130" x2="295" y2="130"/>

      <!-- Ground symbol -->
      <g transform="translate(190, 130)">
        <line x1="0" y1="0" x2="0" y2="8"/>
        <line x1="-8" y1="8" x2="8" y2="8"/>
        <line x1="-5" y1="12" x2="5" y2="12"/>
        <line x1="-2" y1="16" x2="2" y2="16"/>
      </g>

      <!-- Diode outputs to resistors -->
      <line x1="192" y1="76" x2="220" y2="76"/>
      <line x1="192" y1="116" x2="220" y2="116"/>

      <!-- Resistor outputs -->
      <line x1="276" y1="76" x2="285" y2="76"/>
      <line x1="276" y1="116" x2="285" y2="116"/>
      <line x1="285" y1="76" x2="285" y2="100"/>

      <!-- Output connection -->
      <line x1="285" y1="88" x2="340" y2="100"/>
      <line x1="366" y1="100" x2="380" y2="100"/>
    </g>
  </g>

  <!-- Phase relationship illustration -->
  <g transform="translate(100, 300)">
    <text x="200" y="0" text-anchor="middle" font-family="Arial, sans-serif" font-size="14" font-weight="bold" fill="#2c3e50">
      Phase Relationships and Operation
    </text>

    <!-- Transformer secondary voltages -->
    <g transform="translate(0, 30)">
      <text x="0" y="0" font-family="Arial, sans-serif" font-size="12" font-weight="bold" fill="#3498db">Secondary Voltages</text>

      <!-- V1 (top) -->
      <g transform="translate(0, 20)">
        <text x="0" y="0" font-family="Arial, sans-serif" font-size="10" fill="#e74c3c">V1:</text>
        <path d="M 20 0 Q 30 -10 40 0 T 60 0 T 80 0" stroke="#e74c3c" stroke-width="2" fill="none">
          <animate attributeName="d" 
                   values="M 20 0 Q 30 -10 40 0 T 60 0 T 80 0;
                          M 20 0 Q 30 -8 40 0 T 60 0 T 80 0;
                          M 20 0 Q 30 -12 40 0 T 60 0 T 80 0;
                          M 20 0 Q 30 -10 40 0 T 60 0 T 80 0"
                   dur="2s" repeatCount="indefinite"/>
        </path>
      </g>

      <!-- V2 (bottom) -->
      <g transform="translate(0, 50)">
        <text x="0" y="0" font-family="Arial, sans-serif" font-size="10" fill="#9b59b6">V2:</text>
        <path d="M 20 0 Q 30 10 40 0 T 60 0 T 80 0" stroke="#9b59b6" stroke-width="2" fill="none">
          <animate attributeName="d" 
                   values="M 20 0 Q 30 10 40 0 T 60 0 T 80 0;
                          M 20 0 Q 30 8 40 0 T 60 0 T 80 0;
                          M 20 0 Q 30 12 40 0 T 60 0 T 80 0;
                          M 20 0 Q 30 10 40 0 T 60 0 T 80 0"
                   dur="2s" repeatCount="indefinite"/>
        </path>
      </g>

      <text x="90" y="35" font-family="Arial, sans-serif" font-size="9" fill="#666">180° out of phase</text>
    </g>

    <!-- Voltage ratio concept -->
    <g transform="translate(250, 30)">
      <text x="0" y="0" font-family="Arial, sans-serif" font-size="12" font-weight="bold" fill="#27ae60">Voltage Ratio</text>

      <g transform="translate(0, 20)" font-family="Arial, sans-serif" font-size="11" fill="#34495e">
        <text x="0" y="0">When frequency deviates:</text>
        <text x="0" y="18" fill="#e74c3c">• Higher f → V1 > V2</text>
        <text x="0" y="33" fill="#9b59b6">• Lower f → V1 &lt; V2</text>
        <text x="0" y="48" fill="#27ae60">• Center f → V1 = V2</text>
      </g>
    </g>
  </g>

  <!-- Advantages over discriminator -->
  <g transform="translate(100, 450)">
    <rect x="0" y="0" width="600" height="120" fill="#ecf0f1" stroke="#bdc3c7" stroke-width="2" rx="10"/>

    <text x="300" y="25" text-anchor="middle" font-family="Arial, sans-serif" font-size="16" font-weight="bold" fill="#2c3e50">
      Ratio Detector Advantages
    </text>

    <!-- Key advantages -->
    <g transform="translate(50, 40)" font-family="Arial, sans-serif" font-size="11" fill="#34495e">
      <text x="0" y="0" font-weight="bold" fill="#27ae60">✓ AM Rejection:</text>
      <text x="120" y="0">Large capacitor suppresses amplitude variations</text>

      <text x="0" y="20" font-weight="bold" fill="#27ae60">✓ Stable Operation:</text>
      <text x="120" y="20">Less sensitive to supply voltage changes</text>

      <text x="0" y="40" font-weight="bold" fill="#27ae60">✓ No Tuning Required:</text>
      <text x="120" y="40">Self-balancing circuit eliminates adjustment</text>

      <text x="0" y="60" font-weight="bold" fill="#27ae60">✓ Linear Response:</text>
      <text x="120" y="60">Output proportional to frequency deviation</text>
    </g>
  </g>

  <!-- Animation indicators -->
  <g transform="translate(750, 150)">
    <circle cx="0" cy="0" r="5" fill="#3498db" opacity="0.8">
      <animate attributeName="opacity" values="0.3;1;0.3" dur="2s" repeatCount="indefinite"/>
    </circle>
    <text x="10" y="5" font-family="Arial, sans-serif" font-size="8" fill="#3498db">Phase Animation</text>
  </g>
</svg>