<svg viewBox="0 0 900 650" xmlns="http://www.w3.org/2000/svg">
  <defs>
    <style>
      .title { font: bold 16px Arial; text-anchor: middle; fill: #2c3e50; }
      .subtitle { font: bold 14px Arial; text-anchor: middle; fill: #34495e; }
      .label { font: 11px Arial; fill: #2c3e50; }
      .small-label { font: 9px Arial; fill: #666; }
      .axis { stroke: #333; stroke-width: 1; }
      .grid { stroke: #ddd; stroke-width: 0.5; }
      .input-signal { stroke: #3498db; stroke-width: 2; fill: none; }
      .quantized-signal { stroke: #e74c3c; stroke-width: 2; fill: none; }
      .quantization-level { stroke: #27ae60; stroke-width: 1; stroke-dasharray: 3,3; }
      .characteristic { stroke: #9b59b6; stroke-width: 2; fill: none; }
      .table-header { fill: #34495e; font: bold 10px Arial; }
      .table-cell { fill: #2c3e50; font: 10px Arial; }
      .equation { font: 10px monospace; fill: #8b0000; }
      .highlight { fill: #f39c12; }
    </style>
  </defs>

  <!-- Title -->
  <text x="450" y="25" class="title">Quantization in Digital Communication Systems</text>

  <!-- Definition Section -->
  <g transform="translate(50, 50)">
    <text x="0" y="20" class="subtitle" style="text-anchor: start;">Definition of Quantization</text>
    <text x="0" y="40" class="label">Quantization is the process of mapping a large set of input values (continuous) to a smaller set of discrete output values.</text>
    <text x="0" y="60" class="equation">Input: Continuous amplitude values → Output: Discrete amplitude levels</text>
  </g>

  <!-- Uniform Quantization Section -->
  <g transform="translate(50, 120)">
    <text x="200" y="20" class="subtitle">Uniform (Linear) Quantization</text>
    
    <!-- Input/Output characteristic -->
    <g transform="translate(0, 40)">
      <text x="150" y="15" class="label">Input-Output Characteristic</text>
      
      <!-- Axes -->
      <line x1="50" y1="150" x2="250" y2="150" class="axis"/>
      <line x1="50" y1="50" x2="50" y2="150" class="axis"/>
      
      <!-- Grid lines for quantization levels -->
      <line x1="50" y1="130" x2="250" y2="130" class="quantization-level"/>
      <line x1="50" y1="110" x2="250" y2="110" class="quantization-level"/>
      <line x1="50" y1="90" x2="250" y2="90" class="quantization-level"/>
      <line x1="50" y1="70" x2="250" y2="70" class="quantization-level"/>
      
      <!-- Staircase characteristic -->
      <path d="M50,150 L75,150 L75,130 L100,130 L100,110 L125,110 L125,90 L150,90 L150,70 L175,70 L175,90 L200,90 L200,110 L225,110 L225,130 L250,130" class="characteristic"/>
      
      <!-- Step size indicators -->
      <path d="M260,70 L260,90" stroke="#f39c12" stroke-width="2"/>
      <text x="265" y="85" class="small-label">Δ</text>
      
      <!-- Labels -->
      <text x="255" y="155" class="label">Input</text>
      <text x="30" y="50" class="label">Output</text>
      <text x="150" y="170" class="label">Equal step size throughout</text>
    </g>
    
    <!-- Waveform example -->
    <g transform="translate(320, 40)">
      <text x="100" y="15" class="label">Signal Quantization</text>
      
      <!-- Time axis -->
      <line x1="0" y1="100" x2="200" y2="100" class="axis"/>
      <line x1="0" y1="20" x2="0" y2="120" class="axis"/>
      
      <!-- Quantization levels -->
      <line x1="0" y1="30" x2="200" y2="30" class="quantization-level"/>
      <line x1="0" y1="45" x2="200" y2="45" class="quantization-level"/>
      <line x1="0" y1="60" x2="200" y2="60" class="quantization-level"/>
      <line x1="0" y1="75" x2="200" y2="75" class="quantization-level"/>
      <line x1="0" y1="90" x2="200" y2="90" class="quantization-level"/>
      
      <!-- Original signal -->
      <path d="M0,100 Q50,40 100,100 Q150,60 200,80" class="input-signal">
        <animate attributeName="d" 
          values="M0,100 Q50,40 100,100 Q150,60 200,80;
                  M0,100 Q50,60 100,80 Q150,40 200,100;
                  M0,100 Q50,40 100,100 Q150,60 200,80"
          dur="3s" repeatCount="indefinite"/>
      </path>
      
      <!-- Quantized signal -->
      <path d="M0,100 L25,100 L25,75 L50,75 L50,45 L75,45 L75,60 L100,60 L100,90 L125,90 L125,75 L150,75 L150,60 L175,60 L175,75 L200,75" class="quantized-signal"/>
      
      <!-- Labels -->
      <text x="210" y="105" class="label">t</text>
      <text x="-15" y="25" class="small-label">+3Δ</text>
      <text x="-15" y="40" class="small-label">+2Δ</text>
      <text x="-15" y="55" class="small-label">+Δ</text>
      <text x="-15" y="70" class="small-label">0</text>
      <text x="-15" y="85" class="small-label">-Δ</text>
      <text x="-15" y="100" class="small-label">-2Δ</text>
      
      <!-- Legend -->
      <line x1="20" y1="135" x2="40" y2="135" class="input-signal"/>
      <text x="45" y="139" class="small-label">Original</text>
      <line x1="90" y1="135" x2="110" y2="135" class="quantized-signal"/>
      <text x="115" y="139" class="small-label">Quantized</text>
    </g>
  </g>

  <!-- Non-uniform Quantization Section -->
  <g transform="translate(50, 320)">
    <text x="200" y="20" class="subtitle">Non-uniform (Companding) Quantization</text>
    
    <!-- Companding characteristic -->
    <g transform="translate(0, 40)">
      <text x="150" y="15" class="label">Companding Characteristic</text>
      
      <!-- Axes -->
      <line x1="50" y1="150" x2="250" y2="150" class="axis"/>
      <line x1="50" y1="50" x2="50" y2="150" class="axis"/>
      
      <!-- Non-uniform quantization levels -->
      <line x1="50" y1="140" x2="250" y2="140" class="quantization-level"/>
      <line x1="50" y1="125" x2="250" y2="125" class="quantization-level"/>
      <line x1="50" y1="105" x2="250" y2="105" class="quantization-level"/>
      <line x1="50" y1="80" x2="250" y2="80" class="quantization-level"/>
      <line x1="50" y1="50" x2="250" y2="50" class="quantization-level"/>
      
      <!-- Logarithmic characteristic curve -->
      <path d="M50,150 Q80,140 100,125 Q120,105 140,80 Q160,80 180,105 Q200,125 220,140 Q240,145 250,150" class="characteristic"/>
      
      <!-- Step size indicators -->
      <path d="M260,125 L260,140" stroke="#f39c12" stroke-width="1"/>
      <text x="265" y="135" class="small-label">δ₁</text>
      <path d="M270,80 L270,105" stroke="#f39c12" stroke-width="2"/>
      <text x="275" y="95" class="small-label">δ₂</text>
      <text x="280" y="110" class="small-label">δ₂ > δ₁</text>
      
      <!-- Labels -->
      <text x="255" y="155" class="label">Input</text>
      <text x="30" y="50" class="label">Output</text>
      <text x="120" y="170" class="label">Smaller steps for small signals</text>
      <text x="120" y="185" class="label">Larger steps for large signals</text>
    </g>
    
    <!-- μ-law and A-law comparison -->
    <g transform="translate(320, 40)">
      <text x="100" y="15" class="label">Companding Laws</text>
      
      <!-- μ-law curve -->
      <g transform="translate(0, 30)">
        <line x1="0" y1="50" x2="100" y2="50" class="axis"/>
        <line x1="0" y1="10" x2="0" y2="50" class="axis"/>
        <path d="M0,50 Q25,35 50,25 Q75,15 100,10" stroke="#e74c3c" stroke-width="2" fill="none"/>
        <text x="50" y="70" class="small-label">μ-law (USA/Japan)</text>
        <text x="0" y="85" class="equation">y = ln(1+μ|x|)/ln(1+μ) × sgn(x)</text>
      </g>
      
      <!-- A-law curve -->
      <g transform="translate(120, 30)">
        <line x1="0" y1="50" x2="100" y2="50" class="axis"/>
        <line x1="0" y1="10" x2="0" y2="50" class="axis"/>
        <path d="M0,50 L20,40 Q40,30 60,20 Q80,15 100,10" stroke="#27ae60" stroke-width="2" fill="none"/>
        <text x="50" y="70" class="small-label">A-law (Europe)</text>
        <text x="0" y="85" class="equation">y = A|x|/(1+ln A) for |x| ≤ 1/A</text>
      </g>
    </g>
  </g>

  <!-- Comparison Table -->
  <g transform="translate(50, 520)">
    <text x="400" y="20" class="subtitle">Comparison: Uniform vs Non-uniform Quantization</text>
    
    <!-- Table -->
    <rect x="0" y="40" width="800" height="25" fill="#ecf0f1" stroke="#bdc3c7"/>
    <rect x="0" y="65" width="800" height="20" fill="#ffffff" stroke="#bdc3c7"/>
    <rect x="0" y="85" width="800" height="20" fill="#f8f9fa" stroke="#bdc3c7"/>
    <rect x="0" y="105" width="800" height="20" fill="#ffffff" stroke="#bdc3c7"/>
    
    <!-- Headers -->
    <text x="100" y="55" class="table-header">Parameter</text>
    <text x="300" y="55" class="table-header">Uniform Quantization</text>
    <text x="550" y="55" class="table-header">Non-uniform Quantization</text>
    
    <!-- Vertical lines -->
    <line x1="200" y1="40" x2="200" y2="125" stroke="#bdc3c7"/>
    <line x1="450" y1="40" x2="450" y2="125" stroke="#bdc3c7"/>
    
    <!-- Row 1: Step Size -->
    <text x="20" y="78" class="table-cell">Step Size</text>
    <text x="220" y="78" class="table-cell">Constant (Δ = Range/2ⁿ)</text>
    <text x="470" y="78" class="table-cell">Variable (smaller for weak signals)</text>
    
    <!-- Row 2: SNR -->
    <text x="20" y="98" class="table-cell">SNR Performance</text>
    <text x="220" y="98" class="table-cell">Poor for small signals</text>
    <text x="470" y="98" class="table-cell">Better for small signals</text>
    
    <!-- Row 3: Implementation -->
    <text x="20" y="118" class="table-cell">Implementation</text>
    <text x="220" y="118" class="table-cell">Simple, direct</text>
    <text x="470" y="118" class="table-cell">Complex (companding required)</text>
  </g>

  <!-- Applications and Benefits -->
  <g transform="translate(50, 580)">
    <text x="300" y="15" class="subtitle">Applications and Key Benefits</text>
    
    <!-- Benefits boxes -->
    <g transform="translate(0, 30)">
      <rect x="0" y="0" width="180" height="50" fill="#e8f5e8" stroke="#27ae60" rx="4"/>
      <text x="90" y="15" class="label" text-anchor="middle">Uniform Quantization</text>
      <text x="10" y="30" class="small-label">• Simple hardware</text>
      <text x="10" y="42" class="small-label">• Linear processing</text>
    </g>
    
    <g transform="translate(200, 30)">
      <rect x="0" y="0" width="180" height="50" fill="#e8f4fd" stroke="#3498db" rx="4"/>
      <text x="90" y="15" class="label" text-anchor="middle">Non-uniform Quantization</text>
      <text x="10" y="30" class="small-label">• Better SNR for speech</text>
      <text x="10" y="42" class="small-label">• Perceptual optimization</text>
    </g>
    
    <g transform="translate(400, 30)">
      <rect x="0" y="0" width="180" height="50" fill="#fdf2e8" stroke="#f39c12" rx="4"/>
      <text x="90" y="15" class="label" text-anchor="middle">Applications</text>
      <text x="10" y="30" class="small-label">• Digital telephony</text>
      <text x="10" y="42" class="small-label">• Audio compression</text>
    </g>
  </g>
</svg>