<svg viewBox="0 0 800 600" xmlns="http://www.w3.org/2000/svg">
  <defs>
    <style>
      .title { font: bold 16px Arial; text-anchor: middle; }
      .label { font: 12px Arial; text-anchor: middle; }
      .axis { font: 10px Arial; }
      .wave { fill: none; stroke-width: 2; }
      .carrier { stroke: #2563eb; }
      .modulating { stroke: #dc2626; }
      .modulated { stroke: #059669; stroke-width: 3; }
      .spectrum { fill: #2563eb; stroke: #1d4ed8; }
      .equation { font: 14px serif; }
    </style>
    
    <!-- Animation for modulated wave -->
    <animate id="waveAnim" dur="4s" repeatCount="indefinite" />
  </defs>
  
  <!-- Title -->
  <text x="400" y="25" class="title">Amplitude Modulation - Waveform and Frequency Spectrum</text>
  
  <!-- Waveform Section -->
  <g transform="translate(50, 50)">
    <text x="250" y="15" class="label">Time Domain Waveforms</text>
    
    <!-- Carrier Wave -->
    <text x="0" y="35" class="axis">Carrier:</text>
    <path class="wave carrier" d="M30,30 Q40,20 50,30 Q60,40 70,30 Q80,20 90,30 Q100,40 110,30 Q120,20 130,30 Q140,40 150,30 Q160,20 170,30 Q180,40 190,30 Q200,20 210,30 Q220,40 230,30 Q240,20 250,30 Q260,40 270,30 Q280,20 290,30 Q300,40 310,30 Q320,20 330,30 Q340,40 350,30 Q360,20 370,30 Q380,40 390,30 Q400,20 410,30 Q420,40 430,30 Q440,20 450,30 Q460,40 470,30"/>
    
    <!-- Modulating Signal -->
    <text x="0" y="85" class="axis">Modulating:</text>
    <path class="wave modulating" d="M30,80 Q130,60 230,80 Q330,100 430,80 Q470,70 470,70"/>
    
    <!-- AM Signal -->
    <text x="0" y="135" class="axis">AM Signal:</text>
    <path class="wave modulated" d="M30,130 Q35,120 40,130 Q45,140 50,130 Q55,118 60,130 Q65,142 70,130 Q75,115 80,130 Q85,145 90,130 Q95,112 100,130 Q105,148 110,130 Q115,110 120,130 Q125,150 130,130 Q135,108 140,130 Q145,152 150,130 Q155,106 160,130 Q165,154 170,130 Q175,104 180,130 Q185,156 190,130 Q195,102 200,130 Q205,158 210,130 Q215,100 220,130 Q225,160 230,130 Q235,100 240,130 Q245,160 250,130 Q255,102 260,130 Q265,158 270,130 Q275,104 280,130 Q285,156 290,130 Q295,106 300,130 Q305,154 310,130 Q315,108 320,130 Q325,152 330,130 Q335,110 340,130 Q345,150 350,130 Q355,112 360,130 Q365,148 370,130 Q375,115 380,130 Q385,145 390,130 Q395,118 400,130 Q405,142 410,130 Q415,120 420,130 Q425,140 430,130 Q435,125 440,130 Q445,135 450,130 Q455,128 460,130 Q465,132 470,130">
      <animateTransform
        attributeName="transform"
        type="translate"
        values="0,0; 5,0; 0,0"
        dur="2s"
        repeatCount="indefinite"/>
    </path>
    
    <!-- Envelope lines -->
    <path class="wave modulating" stroke-dasharray="3,3" stroke-opacity="0.7" d="M30,110 Q130,90 230,110 Q330,130 430,110 Q470,100 470,100"/>
    <path class="wave modulating" stroke-dasharray="3,3" stroke-opacity="0.7" d="M30,150 Q130,170 230,150 Q330,130 430,150 Q470,160 470,160"/>
  </g>
  
  <!-- Frequency Spectrum Section -->
  <g transform="translate(50, 250)">
    <text x="250" y="15" class="label">Frequency Spectrum (DSBFC AM)</text>
    
    <!-- Frequency axis -->
    <line x1="30" y1="150" x2="470" y2="150" stroke="black" stroke-width="1"/>
    <line x1="30" y1="30" x2="30" y2="155" stroke="black" stroke-width="1"/>
    
    <!-- Frequency labels -->
    <text x="150" y="170" class="axis">fc-fm</text>
    <text x="250" y="170" class="axis">fc</text>
    <text x="350" y="170" class="axis">fc+fm</text>
    <text x="15" y="25" class="axis">Amplitude</text>
    
    <!-- Spectrum components -->
    <!-- Lower sideband -->
    <rect x="145" y="100" width="10" height="50" class="spectrum" opacity="0.8">
      <animate attributeName="height" values="50;60;50" dur="3s" repeatCount="indefinite"/>
      <animate attributeName="y" values="100;95;100" dur="3s" repeatCount="indefinite"/>
    </rect>
    <text x="150" y="95" class="axis">mAc/2</text>
    
    <!-- Carrier -->
    <rect x="245" y="50" width="10" height="100" class="spectrum">
      <animate attributeName="height" values="100;110;100" dur="2s" repeatCount="indefinite"/>
      <animate attributeName="y" values="50;45;50" dur="2s" repeatCount="indefinite"/>
    </rect>
    <text x="250" y="45" class="axis">Ac</text>
    
    <!-- Upper sideband -->
    <rect x="345" y="100" width="10" height="50" class="spectrum" opacity="0.8">
      <animate attributeName="height" values="50;60;50" dur="3s" repeatCount="indefinite"/>
      <animate attributeName="y" values="100;95;100" dur="3s" repeatCount="indefinite"/>
    </rect>
    <text x="350" y="95" class="axis">mAc/2</text>
    
    <!-- Bandwidth indicator -->
    <path d="M145,180 L355,180" stroke="red" stroke-width="2" marker-end="url(#arrowhead)"/>
    <path d="M355,180 L145,180" stroke="red" stroke-width="2" marker-end="url(#arrowhead)"/>
    <text x="250" y="195" class="axis" fill="red">Bandwidth = 2fm</text>
  </g>
  
  <!-- Equations Section -->
  <g transform="translate(50, 450)">
    <text x="200" y="15" class="label">Mathematical Equations</text>
    <text x="0" y="40" class="equation">Carrier: vc(t) = Ac sin(ωct)</text>
    <text x="0" y="60" class="equation">Modulating: vm(t) = Am sin(ωmt)</text>
    <text x="0" y="80" class="equation">AM Signal: vAM(t) = Ac[1 + m sin(ωmt)] sin(ωct)</text>
    <text x="0" y="100" class="equation">Where: m = Am/Ac (modulation index)</text>
    <text x="0" y="120" class="equation">Bandwidth: BW = 2fm</text>
  </g>
  
  <!-- Arrow marker definition -->
  <defs>
    <marker id="arrowhead" markerWidth="10" markerHeight="7" refX="9" refY="3.5" orient="auto">
      <polygon points="0 0, 10 3.5, 0 7" fill="red"/>
    </marker>
  </defs>
</svg>