<svg viewBox="0 0 800 550" xmlns="http://www.w3.org/2000/svg">
  <!-- Background -->
  <rect width="800" height="550" fill="#f8f9fa"/>

  <!-- Title -->
  <text x="400" y="25" text-anchor="middle" font-family="Arial, sans-serif" font-size="18" font-weight="bold" fill="#2c3e50">
    Adaptive Delta Modulation (ADM)
  </text>

  <!-- Regular DM vs ADM Comparison -->
  <g transform="translate(50, 60)">
    <!-- Regular DM -->
    <g transform="translate(0, 0)">
      <text x="150" y="0" text-anchor="middle" font-family="Arial, sans-serif" font-size="14" font-weight="bold" fill="#e74c3c">
        Regular Delta Modulation
      </text>

      <!-- Original signal -->
      <g transform="translate(0, 20)">
        <path d="M 0 40 L 20 30 L 40 10 L 60 5 L 80 15 L 100 35 L 120 50 L 140 55 L 160 50 L 180 40 L 200 30 L 220 35 L 240 45 L 260 50 L 280 45 L 300 40" 
              stroke="#666" stroke-width="2" fill="none" stroke-dasharray="2,2"/>

        <!-- DM approximation with fixed step -->
        <path d="M 0 40 L 20 35 L 40 30 L 60 25 L 80 20 L 100 25 L 120 30 L 140 35 L 160 40 L 180 35 L 200 30 L 220 35 L 240 40 L 260 45 L 280 40 L 300 35" 
              stroke="#e74c3c" stroke-width="3" fill="none"/>

        <!-- Fixed step size indicator -->
        <g stroke="#e74c3c" stroke-width="1">
          <line x1="40" y1="30" x2="40" y2="25"/>
          <line x1="60" y1="25" x2="60" y2="20"/>
          <text x="50" y="18" text-anchor="middle" font-family="Arial, sans-serif" font-size="8" fill="#e74c3c">Δ</text>
        </g>

        <!-- Slope overload region -->
        <ellipse cx="50" cy="20" rx="25" ry="15" fill="none" stroke="#f39c12" stroke-width="2" stroke-dasharray="3,3"/>
        <text x="50" y="5" text-anchor="middle" font-family="Arial, sans-serif" font-size="9" fill="#f39c12">Slope Overload</text>
      </g>

      <text x="150" y="100" text-anchor="middle" font-family="Arial, sans-serif" font-size="10" fill="#666">
        Fixed step size Δ causes distortion
      </text>
    </g>

    <!-- Adaptive DM -->
    <g transform="translate(400, 0)">
      <text x="150" y="0" text-anchor="middle" font-family="Arial, sans-serif" font-size="14" font-weight="bold" fill="#27ae60">
        Adaptive Delta Modulation
      </text>

      <!-- Original signal -->
      <g transform="translate(0, 20)">
        <path d="M 0 40 L 20 30 L 40 10 L 60 5 L 80 15 L 100 35 L 120 50 L 140 55 L 160 50 L 180 40 L 200 30 L 220 35 L 240 45 L 260 50 L 280 45 L 300 40" 
              stroke="#666" stroke-width="2" fill="none" stroke-dasharray="2,2"/>

        <!-- ADM approximation with adaptive step -->
        <path d="M 0 40 L 20 35 L 40 25 L 60 15 L 80 10 L 100 20 L 120 35 L 140 50 L 160 55 L 180 50 L 200 40 L 220 35 L 240 40 L 260 48 L 280 50 L 300 45" 
              stroke="#27ae60" stroke-width="3" fill="none"/>

        <!-- Variable step size indicators -->
        <g stroke="#27ae60" stroke-width="1">
          <line x1="40" y1="25" x2="40" y2="15"/>
          <line x1="60" y1="15" x2="60" y2="10"/>
          <text x="50" y="8" text-anchor="middle" font-family="Arial, sans-serif" font-size="8" fill="#27ae60">2Δ</text>

          <line x1="120" y1="35" x2="120" y2="50"/>
          <line x1="140" y1="50" x2="140" y2="55"/>
          <text x="130" y="65" text-anchor="middle" font-family="Arial, sans-serif" font-size="8" fill="#27ae60">3Δ</text>

          <line x1="200" y1="40" x2="200" y2="35"/>
          <text x="200" y="30" text-anchor="middle" font-family="Arial, sans-serif" font-size="8" fill="#27ae60">Δ</text>
        </g>

        <!-- Better tracking -->
        <ellipse cx="50" cy="20" rx="25" ry="15" fill="none" stroke="#27ae60" stroke-width="2" stroke-dasharray="3,3"/>
        <text x="50" y="5" text-anchor="middle" font-family="Arial, sans-serif" font-size="9" fill="#27ae60">Better Tracking</text>
      </g>

      <text x="150" y="100" text-anchor="middle" font-family="Arial, sans-serif" font-size="10" fill="#666">
        Variable step size adapts to signal slope
      </text>
    </g>
  </g>

  <!-- Step Size Control Logic -->
  <g transform="translate(50, 200)">
    <text x="350" y="0" text-anchor="middle" font-family="Arial, sans-serif" font-size="14" font-weight="bold" fill="#9b59b6">
      Step Size Adaptation Algorithm
    </text>

    <!-- Shift register for pattern detection -->
    <g transform="translate(100, 30)">
      <text x="200" y="0" text-anchor="middle" font-family="Arial, sans-serif" font-size="12" font-weight="bold" fill="#3498db">
        Pattern Detection (Shift Register)
      </text>

      <!-- Shift register boxes -->
      <g transform="translate(0, 20)">
        <rect x="0" y="0" width="40" height="30" fill="#3498db" stroke="#2980b9" stroke-width="2" rx="3"/>
        <text x="20" y="20" text-anchor="middle" font-family="Arial, sans-serif" font-size="12" font-weight="bold" fill="white">1</text>

        <rect x="50" y="0" width="40" height="30" fill="#3498db" stroke="#2980b9" stroke-width="2" rx="3"/>
        <text x="70" y="20" text-anchor="middle" font-family="Arial, sans-serif" font-size="12" font-weight="bold" fill="white">1</text>

        <rect x="100" y="0" width="40" height="30" fill="#3498db" stroke="#2980b9" stroke-width="2" rx="3"/>
        <text x="120" y="20" text-anchor="middle" font-family="Arial, sans-serif" font-size="12" font-weight="bold" fill="white">1</text>

        <rect x="150" y="0" width="40" height="30" fill="#3498db" stroke="#2980b9" stroke-width="2" rx="3"/>
        <text x="170" y="20" text-anchor="middle" font-family="Arial, sans-serif" font-size="12" font-weight="bold" fill="white">1</text>

        <rect x="200" y="0" width="40" height="30" fill="#e74c3c" stroke="#c0392b" stroke-width="2" rx="3"/>
        <text x="220" y="20" text-anchor="middle" font-family="Arial, sans-serif" font-size="12" font-weight="bold" fill="white">0</text>

        <rect x="250" y="0" width="40" height="30" fill="#3498db" stroke="#2980b9" stroke-width="2" rx="3"/>
        <text x="270" y="20" text-anchor="middle" font-family="Arial, sans-serif" font-size="12" font-weight="bold" fill="white">1</text>

        <rect x="300" y="0" width="40" height="30" fill="#3498db" stroke="#2980b9" stroke-width="2" rx="3"/>
        <text x="320" y="20" text-anchor="middle" font-family="Arial, sans-serif" font-size="12" font-weight="bold" fill="white">1</text>

        <rect x="350" y="0" width="40" height="30" fill="#3498db" stroke="#2980b9" stroke-width="2" rx="3"/>
        <text x="370" y="20" text-anchor="middle" font-family="Arial, sans-serif" font-size="12" font-weight="bold" fill="white">1</text>

        <!-- Arrows showing shift direction -->
        <g fill="#2c3e50">
          <polygon points="43,15 47,12 47,18"/>
          <polygon points="93,15 97,12 97,18"/>
          <polygon points="143,15 147,12 147,18"/>
          <polygon points="193,15 197,12 197,18"/>
          <polygon points="243,15 247,12 247,18"/>
          <polygon points="293,15 297,12 297,18"/>
          <polygon points="343,15 347,12 347,18"/>
        </g>

        <!-- Pattern indicators -->
        <g transform="translate(0, 40)">
          <rect x="0" y="0" width="140" height="20" fill="#f39c12" opacity="0.7" rx="3"/>
          <text x="70" y="13" text-anchor="middle" font-family="Arial, sans-serif" font-size="9" font-weight="bold" fill="white">
            Same Pattern → Increase Δ
          </text>

          <rect x="200" y="0" width="190" height="20" fill="#27ae60" opacity="0.7" rx="3"/>
          <text x="295" y="13" text-anchor="middle" font-family="Arial, sans-serif" font-size="9" font-weight="bold" fill="white">
            Alternating → Decrease Δ
          </text>
        </g>
      </g>
    </g>

    <!-- Step size control equation -->
    <g transform="translate(100, 120)">
      <rect x="0" y="0" width="500" height="60" fill="#ecf0f1" stroke="#bdc3c7" stroke-width="2" rx="10"/>

      <text x="250" y="20" text-anchor="middle" font-family="Arial, sans-serif" font-size="12" font-weight="bold" fill="#2c3e50">
        Step Size Control Algorithm
      </text>

      <g transform="translate(50, 30)" font-family="Arial, sans-serif" font-size="11" fill="#34495e">
        <text x="0" y="0">If same bits repeat (111... or 000...):</text>
        <text x="250" y="0" fill="#f39c12" font-weight="bold">Δ(n+1) = α × Δ(n), where α > 1</text>

        <text x="0" y="18">If alternating pattern (101010...):</text>
        <text x="250" y="18" fill="#27ae60" font-weight="bold">Δ(n+1) = β × Δ(n), where β &lt; 1</text>
      </g>
    </g>
  </g>

  <!-- Performance comparison -->
  <g transform="translate(50, 420)">
    <rect x="0" y="0" width="700" height="100" fill="#e8f6f3" stroke="#27ae60" stroke-width="2" rx="10"/>

    <text x="350" y="20" text-anchor="middle" font-family="Arial, sans-serif" font-size="14" font-weight="bold" fill="#27ae60">
      ADM Performance Advantages
    </text>

    <!-- Advantages grid -->
    <g transform="translate(50, 35)" font-family="Arial, sans-serif" font-size="11" fill="#34495e">
      <text x="0" y="0" font-weight="bold" fill="#27ae60">✓ Reduced Slope Overload:</text>
      <text x="180" y="0">Larger steps for rapidly changing signals</text>

      <text x="0" y="18" font-weight="bold" fill="#27ae60">✓ Lower Granular Noise:</text>
      <text x="180" y="18">Smaller steps for slowly varying signals</text>

      <text x="0" y="36" font-weight="bold" fill="#27ae60">✓ Better SNR:</text>
      <text x="180" y="36">3-4 dB improvement over regular DM</text>

      <text x="350" y="0" font-weight="bold" fill="#27ae60">✓ Faster Convergence:</text>
      <text x="480" y="0">Quick adaptation to signal changes</text>

      <text x="350" y="18" font-weight="bold" fill="#27ae60">✓ Wider Dynamic Range:</text>
      <text x="480" y="18">Handles various signal amplitudes</text>

      <text x="350" y="36" font-weight="bold" fill="#27ae60">✓ Same Bit Rate:</text>
      <text x="480" y="36">Still 1 bit per sample like regular DM</text>
    </g>
  </g>

  <!-- Animation showing step adaptation -->
  <g transform="translate(700, 300)">
    <circle cx="0" cy="0" r="8" fill="#9b59b6" opacity="0.8">
      <animate attributeName="r" values="8;12;8" dur="2s" repeatCount="indefinite"/>
      <animate attributeName="opacity" values="0.8;0.4;0.8" dur="2s" repeatCount="indefinite"/>
    </circle>
    <text x="15" y="5" font-family="Arial, sans-serif" font-size="8" fill="#9b59b6">Adaptive</text>
  </g>
</svg>