<svg viewBox="0 0 900 650" xmlns="http://www.w3.org/2000/svg">
  <defs>
    <style>
      .title { font: bold 16px Arial; text-anchor: middle; }
      .label { font: 12px Arial; text-anchor: middle; }
      .axis { font: 10px Arial; }
      .block { fill: #e3f2fd; stroke: #1976d2; stroke-width: 2; }
      .quantizer { fill: #ffebee; stroke: #f44336; stroke-width: 2; }
      .predictor { fill: #e8f5e8; stroke: #4caf50; stroke-width: 2; }
      .summer { fill: #fff3e0; stroke: #ff9800; stroke-width: 2; }
      .block-text { font: 11px Arial; text-anchor: middle; }
      .wave { fill: none; stroke-width: 2; }
      .input { stroke: #1976d2; }
      .predicted { stroke: #4caf50; stroke-dasharray: 3,3; }
      .error { stroke: #f44336; }
      .quantized { stroke: #9c27b0; stroke-width: 3; }
      .arrow { stroke: #333; stroke-width: 2; marker-end: url(#arrowhead); }
      .description { font: 11px Arial; }
      .section-title { font: bold 14px Arial; text-anchor: middle; }
      .equation { font: 12px serif; }
    </style>
  </defs>

  <!-- Title -->
  <text x="450" y="25" class="title">Differential Pulse Code Modulation (DPCM) System</text>

  <!-- DPCM Modulator Block Diagram -->
  <g transform="translate(50, 60)">
    <text x="400" y="15" class="section-title" fill="#1976d2">DPCM Modulator Block Diagram</text>

    <!-- Input -->
    <circle cx="30" cy="80" r="5" fill="#1976d2"/>
    <text x="15" y="75" class="axis">x(n)</text>
    <text x="15" y="90" class="axis">Input</text>

    <!-- Subtractor (Summer) -->
    <circle cx="100" cy="80" r="25" class="summer"/>
    <text x="85" y="85" class="block-text">+</text>
    <text x="115" y="95" class="block-text">-</text>
    <text x="100" y="120" class="axis">Σ</text>
    <text x="100" y="135" class="axis">Subtractor</text>

    <!-- Quantizer -->
    <rect x="170" y="60" width="80" height="40" class="quantizer" rx="5"/>
    <text x="210" y="75" class="block-text">Quantizer</text>
    <text x="210" y="88" class="block-text">Q[·]</text>
    <text x="210" y="115" class="axis">n-bit output</text>

    <!-- Encoder -->
    <rect x="290" y="60" width="60" height="40" class="block" rx="5"/>
    <text x="320" y="80" class="block-text">Encoder</text>
    <text x="320" y="115" class="axis">Binary</text>

    <!-- Output -->
    <circle cx="380" cy="80" r="5" fill="#9c27b0"/>
    <text x="395" y="75" class="axis">DPCM</text>
    <text x="395" y="88" class="axis">Output</text>

    <!-- Local Decoder -->
    <rect x="290" y="140" width="60" height="30" class="block" rx="5"/>
    <text x="320" y="160" class="block-text">Local Decoder</text>

    <!-- Adder for reconstruction -->
    <circle cx="200" cy="155" r="20" class="summer"/>
    <text x="190" y="160" class="block-text">+</text>
    <text x="210" y="165" class="block-text">+</text>
    <text x="200" y="185" class="axis">Σ</text>

    <!-- Predictor -->
    <rect x="60" y="140" width="100" height="30" class="predictor" rx="5"/>
    <text x="110" y="160" class="block-text">Predictor P[·]</text>
    <text x="110" y="185" class="axis">Previous samples</text>

    <!-- Connections -->
    <path class="arrow" d="M45,80 L75,80"/>
    <path class="arrow" d="M125,80 L170,80"/>
    <path class="arrow" d="M250,80 L290,80"/>
    <path class="arrow" d="M350,80 L375,80"/>

    <!-- Feedback path -->
    <path class="arrow" d="M210,100 L210,140"/>
    <path class="arrow" d="M290,155 L220,155"/>
    <path class="arrow" d="M180,155 L160,155"/>
    <path class="arrow" d="M110,140 L110,105"/>

    <!-- Error signal label -->
    <text x="135" y="70" class="axis">e(n) = x(n) - x̂(n)</text>
    <text x="245" y="125" class="axis">eq(n)</text>
    <text x="135" y="145" class="axis">x̃(n)</text>
    <text x="70" y="125" class="axis">x̂(n)</text>

    <!-- Equations -->
    <g transform="translate(450, 80)">
      <rect x="0" y="0" width="300" height="120" fill="#f5f5f5" stroke="#666" stroke-width="1" rx="5"/>
      <text x="150" y="20" class="label" font-weight="bold">DPCM Equations</text>
      <text x="10" y="40" class="equation">Error: e(n) = x(n) - x̂(n)</text>
      <text x="10" y="60" class="equation">Quantized Error: eq(n) = Q[e(n)]</text>
      <text x="10" y="80" class="equation">Prediction: x̂(n) = Σ aᵢ·x(n-i)</text>
      <text x="10" y="100" class="equation">Reconstruction: x̃(n) = x̂(n) + eq(n)</text>
    </g>
  </g>

  <!-- Signal Waveforms -->
  <g transform="translate(50, 250)">
    <text x="400" y="15" class="section-title" fill="#1976d2">DPCM Signal Analysis</text>

    <!-- Time axis -->
    <line x1="30" y1="200" x2="750" y2="200" stroke="black" stroke-width="1"/>
    <text x="760" y="205" class="axis">Sample Number (n)</text>

    <!-- Sample markers -->
    <g stroke="#ccc" stroke-dasharray="1,1">
      <line x1="80" y1="30" x2="80" y2="200"/>
      <line x1="150" y1="30" x2="150" y2="200"/>
      <line x1="220" y1="30" x2="220" y2="200"/>
      <line x1="290" y1="30" x2="290" y2="200"/>
      <line x1="360" y1="30" x2="360" y2="200"/>
      <line x1="430" y1="30" x2="430" y2="200"/>
      <line x1="500" y1="30" x2="500" y2="200"/>
      <line x1="570" y1="30" x2="570" y2="200"/>
      <line x1="640" y1="30" x2="640" y2="200"/>
      <line x1="710" y1="30" x2="710" y2="200"/>

      <!-- Sample numbers -->
      <text x="80" y="220" class="axis">1</text>
      <text x="150" y="220" class="axis">2</text>
      <text x="220" y="220" class="axis">3</text>
      <text x="290" y="220" class="axis">4</text>
      <text x="360" y="220" class="axis">5</text>
      <text x="430" y="220" class="axis">6</text>
      <text x="500" y="220" class="axis">7</text>
      <text x="570" y="220" class="axis">8</text>
      <text x="640" y="220" class="axis">9</text>
      <text x="710" y="220" class="axis">10</text>
    </g>

    <!-- Original Signal x(n) -->
    <text x="0" y="50" class="axis">x(n)</text>
    <path class="wave input" d="M30,60 L80,50 L150,70 L220,85 L290,75 L360,45 L430,65 L500,90 L570,70 L640,40 L710,60 L750,55">
      <animate attributeName="d" values="M30,60 L80,50 L150,70 L220,85 L290,75 L360,45 L430,65 L500,90 L570,70 L640,40 L710,60 L750,55;M30,65 L80,55 L150,75 L220,80 L290,70 L360,50 L430,70 L500,85 L570,75 L640,45 L710,65 L750,60;M30,60 L80,50 L150,70 L220,85 L290,75 L360,45 L430,65 L500,90 L570,70 L640,40 L710,60 L750,55" dur="4s" repeatCount="indefinite"/>
    </path>

    <!-- Sample points -->
    <circle cx="80" cy="50" r="3" fill="#1976d2">
      <animate attributeName="opacity" values="1;0.5;1" dur="1s" repeatCount="indefinite"/>
    </circle>
    <circle cx="150" cy="70" r="3" fill="#1976d2">
      <animate attributeName="opacity" values="1;0.5;1" dur="1s" repeatCount="indefinite" begin="0.1s"/>
    </circle>
    <circle cx="220" cy="85" r="3" fill="#1976d2">
      <animate attributeName="opacity" values="1;0.5;1" dur="1s" repeatCount="indefinite" begin="0.2s"/>
    </circle>
    <circle cx="290" cy="75" r="3" fill="#1976d2">
      <animate attributeName="opacity" values="1;0.5;1" dur="1s" repeatCount="indefinite" begin="0.3s"/>
    </circle>
    <circle cx="360" cy="45" r="3" fill="#1976d2">
      <animate attributeName="opacity" values="1;0.5;1" dur="1s" repeatCount="indefinite" begin="0.4s"/>
    </circle>
    <circle cx="430" cy="65" r="3" fill="#1976d2">
      <animate attributeName="opacity" values="1;0.5;1" dur="1s" repeatCount="indefinite" begin="0.5s"/>
    </circle>
    <circle cx="500" cy="90" r="3" fill="#1976d2">
      <animate attributeName="opacity" values="1;0.5;1" dur="1s" repeatCount="indefinite" begin="0.6s"/>
    </circle>
    <circle cx="570" cy="70" r="3" fill="#1976d2">
      <animate attributeName="opacity" values="1;0.5;1" dur="1s" repeatCount="indefinite" begin="0.7s"/>
    </circle>
    <circle cx="640" cy="40" r="3" fill="#1976d2">
      <animate attributeName="opacity" values="1;0.5;1" dur="1s" repeatCount="indefinite" begin="0.8s"/>
    </circle>
    <circle cx="710" cy="60" r="3" fill="#1976d2">
      <animate attributeName="opacity" values="1;0.5;1" dur="1s" repeatCount="indefinite" begin="0.9s"/>
    </circle>

    <!-- Predicted Signal x̂(n) -->
    <text x="0" y="110" class="axis">x̂(n)</text>
    <text x="0" y="122" class="axis">Predicted</text>
    <path class="wave predicted" d="M30,120 L80,115 L150,55 L220,75 L290,82 L360,78 L430,50 L500,68 L570,88 L640,72 L710,45 L750,58">
      <animate attributeName="d" values="M30,120 L80,115 L150,55 L220,75 L290,82 L360,78 L430,50 L500,68 L570,88 L640,72 L710,45 L750,58;M30,125 L80,120 L150,60 L220,80 L290,77 L360,73 L430,55 L500,73 L570,83 L640,77 L710,50 L750,63;M30,120 L80,115 L150,55 L220,75 L290,82 L360,78 L430,50 L500,68 L570,88 L640,72 L710,45 L750,58" dur="4s" repeatCount="indefinite"/>
    </path>

    <!-- Predicted sample points -->
    <circle cx="150" cy="55" r="2" fill="#4caf50"/>
    <circle cx="220" cy="75" r="2" fill="#4caf50"/>
    <circle cx="290" cy="82" r="2" fill="#4caf50"/>
    <circle cx="360" cy="78" r="2" fill="#4caf50"/>
    <circle cx="430" cy="50" r="2" fill="#4caf50"/>
    <circle cx="500" cy="68" r="2" fill="#4caf50"/>
    <circle cx="570" cy="88" r="2" fill="#4caf50"/>
    <circle cx="640" cy="72" r="2" fill="#4caf50"/>
    <circle cx="710" cy="45" r="2" fill="#4caf50"/>

    <!-- Error Signal e(n) -->
    <text x="0" y="150" class="axis">e(n)</text>
    <text x="0" y="162" class="axis">Error</text>
    <g class="wave error">
      <!-- Error bars showing difference -->
      <line x1="150" y1="70" x2="150" y2="55" stroke="#f44336" stroke-width="3"/>
      <line x1="220" y1="85" x2="220" y2="75" stroke="#f44336" stroke-width="3"/>
      <line x1="290" y1="75" x2="290" y2="82" stroke="#f44336" stroke-width="3"/>
      <line x1="360" y1="45" x2="360" y2="78" stroke="#f44336" stroke-width="3"/>
      <line x1="430" y1="65" x2="430" y2="50" stroke="#f44336" stroke-width="3"/>
      <line x1="500" y1="90" x2="500" y2="68" stroke="#f44336" stroke-width="3"/>
      <line x1="570" y1="70" x2="570" y2="88" stroke="#f44336" stroke-width="3"/>
      <line x1="640" y1="40" x2="640" y2="72" stroke="#f44336" stroke-width="3"/>
      <line x1="710" y1="60" x2="710" y2="45" stroke="#f44336" stroke-width="3"/>

      <!-- Error values -->
      <text x="160" y="65" class="axis" font-size="8">+15</text>
      <text x="230" y="82" class="axis" font-size="8">+10</text>
      <text x="300" y="80" class="axis" font-size="8">-7</text>
      <text x="370" y="65" class="axis" font-size="8">-33</text>
      <text x="440" y="60" class="axis" font-size="8">+15</text>
      <text x="510" y="82" class="axis" font-size="8">+22</text>
      <text x="580" y="82" class="axis" font-size="8">-18</text>
      <text x="650" y="60" class="axis" font-size="8">-32</text>
      <text x="720" y="55" class="axis" font-size="8">+15</text>
    </g>

    <!-- Quantized Error -->
    <text x="0" y="185" class="axis">eq(n)</text>
    <text x="0" y="197" class="axis">Quantized</text>
    <g class="wave quantized">
      <rect x="145" y="175" width="10" height="8" fill="#9c27b0" opacity="0.8"/>
      <rect x="215" y="175" width="10" height="5" fill="#9c27b0" opacity="0.8"/>
      <rect x="285" y="180" width="10" height="-5" fill="#9c27b0" opacity="0.8"/>
      <rect x="355" y="190" width="10" height="-15" fill="#9c27b0" opacity="0.8"/>
      <rect x="425" y="175" width="10" height="8" fill="#9c27b0" opacity="0.8"/>
      <rect x="495" y="175" width="10" height="10" fill="#9c27b0" opacity="0.8"/>
      <rect x="565" y="185" width="10" height="-10" fill="#9c27b0" opacity="0.8"/>
      <rect x="635" y="190" width="10" height="-15" fill="#9c27b0" opacity="0.8"/>
      <rect x="705" y="175" width="10" height="8" fill="#9c27b0" opacity="0.8"/>

      <!-- Quantized values -->
      <text x="150" y="170" class="axis" font-size="8">+16</text>
      <text x="220" y="170" class="axis" font-size="8">+8</text>
      <text x="290" y="192" class="axis" font-size="8">-8</text>
      <text x="360" y="202" class="axis" font-size="8">-32</text>
      <text x="430" y="170" class="axis" font-size="8">+16</text>
      <text x="500" y="168" class="axis" font-size="8">+24</text>
      <text x="570" y="197" class="axis" font-size="8">-16</text>
      <text x="640" y="202" class="axis" font-size="8">-32</text>
      <text x="710" y="170" class="axis" font-size="8">+16</text>
    </g>
  </g>

  <!-- DPCM Advantages and Applications -->
  <g transform="translate(50, 500)">
    <text x="400" y="15" class="section-title" fill="#1976d2">DPCM Characteristics and Applications</text>

    <!-- Advantages -->
    <g transform="translate(0, 30)">
      <rect x="0" y="0" width="280" height="100" fill="#e8f5e8" stroke="#4caf50" stroke-width="2" rx="5"/>
      <text x="140" y="20" class="label" fill="#2e7d32">ADVANTAGES</text>
      <text x="10" y="40" class="description">• Reduced bit rate (30-50% vs PCM)</text>
      <text x="10" y="55" class="description">• Lower quantization noise</text>
      <text x="10" y="70" class="description">• Exploits signal correlation</text>
      <text x="10" y="85" class="description">• Higher complexity vs PCM</text>
    </g>
  </g>

  <!-- Arrow marker definition -->
  <defs>
    <marker id="arrowhead" markerWidth="10" markerHeight="7" refX="9" refY="3.5" orient="auto">
      <polygon points="0 0, 10 3.5, 0 7" fill="#333"/>
    </marker>
  </defs>
</svg>