<svg viewBox="0 0 800 500" xmlns="http://www.w3.org/2000/svg">
  <!-- Background -->
  <rect width="800" height="500" fill="#f8f9fa"/>
  
  <!-- Title -->
  <text x="400" y="25" text-anchor="middle" font-family="Arial, sans-serif" font-size="18" font-weight="bold" fill="#2c3e50">
    DPCM (Differential Pulse Code Modulation)
  </text>
  
  <!-- DPCM Encoder Block Diagram -->
  <g transform="translate(100, 60)">
    <text x="250" y="0" text-anchor="middle" font-family="Arial, sans-serif" font-size="14" font-weight="bold" fill="#27ae60">
      DPCM Encoder
    </text>
    
    <!-- Input signal -->
    <g transform="translate(-50, 40)">
      <path d="M 0 0 Q 10 -15 20 0 T 40 0" stroke="#e74c3c" stroke-width="3" fill="none"/>
      <text x="20" y="-25" text-anchor="middle" font-family="Arial, sans-serif" font-size="12" font-weight="bold" fill="#e74c3c">
        x(n)
      </text>
    </g>
    
    <!-- Difference calculator (subtractor) -->
    <g transform="translate(50, 20)">
      <circle cx="0" cy="20" r="20" fill="#9b59b6" stroke="#8e44ad" stroke-width="2"/>
      <text x="0" y="26" text-anchor="middle" font-family="Arial, sans-serif" font-size="14" font-weight="bold" fill="white">-</text>
      
      <!-- Input arrows -->
      <polygon points="-25,15 -15,15 -18,12 -18,18" fill="#e74c3c"/>
      <polygon points="-5,45 -5,35 -8,38 -2,38" fill="#3498db"/>
      
      <text x="0" y="-10" text-anchor="middle" font-family="Arial, sans-serif" font-size="10" fill="#9b59b6">Difference</text>
    </g>
    
    <!-- Quantizer -->
    <g transform="translate(120, 20)">
      <rect x="0" y="0" width="60" height="40" fill="#f39c12" stroke="#e67e22" stroke-width="2" rx="5"/>
      <text x="30" y="16" text-anchor="middle" font-family="Arial, sans-serif" font-size="10" font-weight="bold" fill="white">Quantizer</text>
      <text x="30" y="28" text-anchor="middle" font-family="Arial, sans-serif" font-size="10" font-weight="bold" fill="white">4-6 bits</text>
      
      <!-- Arrow from difference -->
      <polygon points="5,20 15,20 12,17 12,23" fill="#9b59b6"/>
    </g>
    
    <!-- Digital output -->
    <g transform="translate(210, 30)">
      <text x="0" y="0" font-family="Arial, sans-serif" font-size="12" font-weight="bold" fill="#f39c12">e_q(n)</text>
      <g font-family="monospace" font-size="10" fill="#f39c12">
        <text x="0" y="15">0110 1010 0011...</text>
      </g>
      
      <!-- Arrow from quantizer -->
      <polygon points="-15,10 -5,10 -8,7 -8,13" fill="#f39c12"/>
    </g>
    
    <!-- Adder for reconstruction -->
    <g transform="translate(120, 80)">
      <circle cx="0" cy="20" r="20" fill="#27ae60" stroke="#229954" stroke-width="2"/>
      <text x="0" y="26" text-anchor="middle" font-family="Arial, sans-serif" font-size="14" font-weight="bold" fill="white">+</text>
      
      <!-- Arrow from quantizer down -->
      <polygon points="30,5 30,15 27,12 33,12" fill="#f39c12"/>
    </g>
    
    <!-- Predictor -->
    <g transform="translate(200, 80)">
      <rect x="0" y="0" width="60" height="40" fill="#3498db" stroke="#2980b9" stroke-width="2" rx="5"/>
      <text x="30" y="20" text-anchor="middle" font-family="Arial, sans-serif" font-size="11" font-weight="bold" fill="white">Predictor</text>
      
      <!-- Arrow from adder -->
      <polygon points="-15,20 -5,20 -8,17 -8,23" fill="#27ae60"/>
    </g>
    
    <!-- Feedback line -->
    <g stroke="#3498db" stroke-width="3" fill="none">
      <path d="M 230 80 L 230 60 L 20 60 L 20 65"/>
      <polygon points="20,65 20,75 17,72 23,72" fill="#3498db"/>
    </g>
    
    <text x="125" y="55" text-anchor="middle" font-family="Arial, sans-serif" font-size="10" fill="#3498db">
      Predicted Value x̂(n)
    </text>
  </g>
  
  <!-- Signal flow visualization -->
  <g transform="translate(50, 200)">
    <text x="350" y="0" text-anchor="middle" font-family="Arial, sans-serif" font-size="14" font-weight="bold" fill="#2c3e50">
      DPCM Signal Processing
    </text>
    
    <!-- Original signal -->
    <g transform="translate(0, 30)">
      <text x="0" y="0" font-family="Arial, sans-serif" font-size="12" font-weight="bold" fill="#e74c3c">Original: x(n)</text>
      
      <!-- Sample values -->
      <g transform="translate(0, 20)">
        <path d="M 0 40 Q 25 20 50 30 Q 75 35 100 25 Q 125 20 150 30 Q 175 40 200 35 Q 225 30 250 40 Q 275 50 300 45" 
              stroke="#e74c3c" stroke-width="3" fill="none"/>
        
        <!-- Sample points -->
        <g fill="#e74c3c">
          <circle cx="25" cy="35" r="3"/>
          <circle cx="50" cy="30" r="3"/>
          <circle cx="75" cy="28" r="3"/>
          <circle cx="100" cy="25" r="3"/>
          <circle cx="125" cy="22" r="3"/>
          <circle cx="150" cy="30" r="3"/>
          <circle cx="175" cy="38" r="3"/>
          <circle cx="200" cy="35" r="3"/>
          <circle cx="225" cy="32" r="3"/>
          <circle cx="250" cy="40" r="3"/>
          <circle cx="275" cy="48" r="3"/>
          <circle cx="300" cy="45" r="3"/>
        </g>
        
        <!-- Sample values -->
        <g font-family="Arial, sans-serif" font-size="8" fill="#e74c3c">
          <text x="25" y="15" text-anchor="middle">8</text>
          <text x="50" y="15" text-anchor="middle">6</text>
          <text x="75" y="15" text-anchor="middle">5</text>
          <text x="100" y="15" text-anchor="middle">4</text>
          <text x="125" y="15" text-anchor="middle">3</text>
          <text x="150" y="15" text-anchor="middle">6</text>
          <text x="175" y="15" text-anchor="middle">9</text>
          <text x="200" y="15" text-anchor="middle">8</text>
          <text x="225" y="15" text-anchor="middle">7</text>
          <text x="250" y="15" text-anchor="middle">10</text>
          <text x="275" y="15" text-anchor="middle">12</text>
          <text x="300" y="15" text-anchor="middle">11</text>
        </g>
      </g>
    </g>
    
    <!-- Predicted signal -->
    <g transform="translate(350, 30)">
      <text x="0" y="0" font-family="Arial, sans-serif" font-size="12" font-weight="bold" fill="#3498db">Predicted: x̂(n)</text>
      
      <!-- Predicted values -->
      <g transform="translate(0, 20)">
        <path d="M 0 40 L 25 40 L 50 32 L 75 29 L 100 26 L 125 24 L 150 28 L 175 36 L 200 37 L 225 35 L 250 38 L 275 46 L 300 47" 
              stroke="#3498db" stroke-width="2" stroke-dasharray="4,4" fill="none"/>
        
        <!-- Predicted points -->
        <g fill="#3498db">
          <circle cx="25" cy="40" r="2"/>
          <circle cx="50" cy="32" r="2"/>
          <circle cx="75" cy="29" r="2"/>
          <circle cx="100" cy="26" r="2"/>
          <circle cx="125" cy="24" r="2"/>
          <circle cx="150" cy="28" r="2"/>
          <circle cx="175" cy="36" r="2"/>
          <circle cx="200" cy="37" r="2"/>
          <circle cx="225" cy="35" r="2"/>
          <circle cx="250" cy="38" r="2"/>
          <circle cx="275" cy="46" r="2"/>
          <circle cx="300" cy="47" r="2"/>
        </g>
        
        <!-- Predicted values -->
        <g font-family="Arial, sans-serif" font-size="8" fill="#3498db">
          <text x="25" y="55" text-anchor="middle">0</text>
          <text x="50" y="55" text-anchor="middle">8</text>
          <text x="75" y="55" text-anchor="middle">6</text>
          <text x="100" y="55" text-anchor="middle">5</text>
          <text x="125" y="55" text-anchor="middle">4</text>
          <text x="150" y="55" text-anchor="middle">3</text>
          <text x="175" y="55" text-anchor="middle">6</text>
          <text x="200" y="55" text-anchor="middle">9</text>
          <text x="225" y="55" text-anchor="middle">8</text>
          <text x="250" y="55" text-anchor="middle">7</text>
          <text x="275" y="55" text-anchor="middle">10</text>
          <text x="300" y="55" text-anchor="middle">12</text>
        </g>
      </g>
    </g>
    
    <!-- Difference (error) signal -->
    <g transform="translate(175, 120)">
      <text x="0" y="0" font-family="Arial, sans-serif" font-size="12" font-weight="bold" fill="#9b59b6">Difference: e(n) = x(n) - x̂(n)</text>
      
      <!-- Error bars -->
      <g transform="translate(0, 20)">
        <g stroke="#9b59b6" stroke-width="2">
          <line x1="25" y1="20" x2="25" y2="10"/>  <!-- +8 -->
          <line x1="50" y1="20" x2="50" y2="30"/>  <!-- -2 -->
          <line x1="75" y1="20" x2="75" y2="30"/>  <!-- -1 -->
          <line x1="100" y1="20" x2="100" y2="30"/> <!-- -1 -->
          <line x1="125" y1="20" x2="125" y2="30"/> <!-- -1 -->
          <line x1="150" y1="20" x2="150" y2="10"/> <!-- +3 -->
          <line x1="175" y1="20" x2="175" y2="10"/> <!-- +3 -->
          <line x1="200" y1="20" x2="200" y2="30"/> <!-- -1 -->
          <line x1="225" y1="20" x2="225" y2="30"/> <!-- -1 -->
          <line x1="250" y1="20" x2="250" y2="10"/> <!-- +3 -->
          <line x1="275" y1="20" x2="275" y2="10"/> <!-- +2 -->
          <line x1="300" y1="20" x2="300" y2="30"/> <!-- -1 -->
        </g>
        
        <!-- Reference line -->
        <line x1="0" y1="20" x2="320" y2="20" stroke="#666" stroke-width="1"/>
        
        <!-- Error values -->
        <g font-family="Arial, sans-serif" font-size="8" fill="#9b59b6">
          <text x="25" y="8" text-anchor="middle">+8</text>
          <text x="50" y="42" text-anchor="middle">-2</text>
          <text x="75" y="42" text-anchor="middle">-1</text>
          <text x="100" y="42" text-anchor="middle">-1</text>
          <text x="125" y="42" text-anchor="middle">-1</text>
          <text x="150" y="8" text-anchor="middle">+3</text>
          <text x="175" y="8" text-anchor="middle">+3</text>
          <text x="200" y="42" text-anchor="middle">-1</text>
          <text x="225" y="42" text-anchor="middle">-1</text>
          <text x="250" y="8" text-anchor="middle">+3</text>
          <text x="275" y="8" text-anchor="middle">+2</text>
          <text x="300" y="42" text-anchor="middle">-1</text>
        </g>
      </g>
    </g>
  </g>
  
  <!-- Advantages -->
  <g transform="translate(50, 400)">
    <rect x="0" y="0" width="700" height="80" fill="#e8f6f3" stroke="#27ae60" stroke-width="2" rx="10"/>
    
    <text x="350" y="20" text-anchor="middle" font-family="Arial, sans-serif" font-size="14" font-weight="bold" fill="#27ae60">
      DPCM Advantages over PCM
    </text>
    
    <g transform="translate(50, 35)" font-family="Arial, sans-serif" font-size="11" fill="#34495e">
      <text x="0" y="0" font-weight="bold" fill="#27ae60">✓ Bandwidth Efficiency:</text>
      <text x="150" y="0">25-50% bit rate reduction compared to PCM</text>
      
      <text x="0" y="18" font-weight="bold" fill="#27ae60">✓ Exploits Correlation:</text>
      <text x="150" y="18">Uses redundancy in consecutive samples</text>
      
      <text x="350" y="0" font-weight="bold" fill="#27ae60">✓ Better SNR:</text>
      <text x="450" y="0">Higher quality than DM at same bit rate</text>
      
      <text x="350" y="18" font-weight="bold" fill="#27ae60">✓ Applications:</text>
      <text x="450" y="18">Speech coding, image compression</text>
    </g>
  </g>
</svg>