<svg viewBox="0 0 900 500" xmlns="http://www.w3.org/2000/svg">
  <defs>
    <style>
      .title { font: bold 16px Arial; text-anchor: middle; }
      .block { fill: #e0f2fe; stroke: #0277bd; stroke-width: 2; }
      .oscillator { fill: #f3e5f5; stroke: #7b1fa2; stroke-width: 2; }
      .signal { fill: #e8f5e8; stroke: #2e7d32; stroke-width: 2; }
      .block-text { font: 12px Arial; text-anchor: middle; }
      .freq-text { font: 10px Arial; text-anchor: middle; fill: #d32f2f; }
      .arrow { stroke: #333; stroke-width: 2; marker-end: url(#arrowhead); }
      .signal-path { stroke: #1976d2; stroke-width: 3; fill: none; }
      .description { font: 11px Arial; }
    </style>
    
    <!-- Pulsing animation for signal flow -->
    <circle id="pulse" r="3" fill="#ff5722" opacity="0.8">
      <animateMotion dur="4s" repeatCount="indefinite">
        <mpath href="#signalPath"/>
      </animateMotion>
      <animate attributeName="opacity" values="0.8;0.3;0.8" dur="1s" repeatCount="indefinite"/>
    </circle>
  </defs>
  
  <!-- Title -->
  <text x="450" y="25" class="title">FM Radio Receiver Block Diagram</text>
  
  <!-- Signal path for animation -->
  <path id="signalPath" d="M80,80 L150,80 L220,80 L220,120 L290,120 L360,120 L430,120 L500,120 L570,120 L640,120 L710,120 L780,120" style="opacity:0"/>
  
  <!-- Antenna -->
  <g transform="translate(20, 60)">
    <rect x="20" y="20" width="60" height="40" class="signal" rx="5"/>
    <text x="50" y="30" class="block-text">Antenna</text>
    <text x="50" y="45" class="block-text">(88-108 MHz)</text>
    
    <!-- Antenna symbol -->
    <line x1="45" y1="5" x2="45" y2="20" stroke="#333" stroke-width="2"/>
    <line x1="35" y1="10" x2="55" y2="10" stroke="#333" stroke-width="2"/>
    <path d="M25,5 Q35,0 45,5 Q55,0 65,5" stroke="#ff5722" stroke-width="1" fill="none" opacity="0.7">
      <animate attributeName="opacity" values="0.7;0.3;0.7" dur="2s" repeatCount="indefinite"/>
    </path>
  </g>
  
  <!-- RF Amplifier -->
  <g transform="translate(120, 60)">
    <rect x="20" y="20" width="80" height="40" class="block" rx="5"/>
    <text x="60" y="35" class="block-text">RF Amplifier</text>
    <text x="60" y="48" class="block-text">&amp; Tuner</text>
    <text x="60" y="75" class="freq-text">88-108 MHz</text>
    
    <!-- Amplifier symbol -->
    <polygon points="30,10 50,10 45,5 35,5" fill="#4caf50" opacity="0.6"/>
  </g>
  
  <!-- Mixer -->
  <g transform="translate(240, 100)">
    <circle cx="40" cy="40" r="30" class="block"/>
    <text x="40" y="35" class="block-text">Mixer</text>
    <text x="40" y="48" class="block-text">(X)</text>
    <text x="40" y="95" class="freq-text">Converts to 10.7 MHz</text>
  </g>
  
  <!-- Local Oscillator -->
  <g transform="translate(240, 60)">
    <rect x="20" y="0" width="80" height="30" class="oscillator" rx="5"/>
    <text x="60" y="12" class="block-text">Local Oscillator</text>
    <text x="60" y="22" class="block-text">(98.7-118.7 MHz)</text>
    
    <!-- Oscillator wave -->
    <path d="M25,-10 Q35,-15 45,-10 Q55,-5 65,-10" stroke="#7b1fa2" stroke-width="2" fill="none">
      <animateTransform attributeName="transform" type="translate" values="0,0; 5,0; 0,0" dur="1s" repeatCount="indefinite"/>
    </path>
  </g>
  
  <!-- IF Amplifier -->
  <g transform="translate(330, 100)">
    <rect x="20" y="20" width="80" height="40" class="block" rx="5"/>
    <text x="60" y="35" class="block-text">IF Amplifier</text>
    <text x="60" y="48" class="block-text">(10.7 MHz)</text>
    <text x="60" y="75" class="freq-text">Fixed frequency</text>
  </g>
  
  <!-- Limiter -->
  <g transform="translate(440, 100)">
    <rect x="20" y="20" width="60" height="40" class="block" rx="5"/>
    <text x="50" y="38" class="block-text">Limiter</text>
    <text x="50" y="75" class="freq-text">Removes AM noise</text>
    
    <!-- Limiting symbol -->
    <rect x="30" y="10" width="40" height="5" fill="#f44336" opacity="0.6"/>
    <rect x="30" y="65" width="40" height="5" fill="#f44336" opacity="0.6"/>
  </g>
  
  <!-- FM Discriminator -->
  <g transform="translate(530, 100)">
    <rect x="20" y="20" width="80" height="40" class="block" rx="5"/>
    <text x="60" y="30" class="block-text">FM</text>
    <text x="60" y="42" class="block-text">Discriminator</text>
    <text x="60" y="54" class="block-text">(Demodulator)</text>
    <text x="60" y="75" class="freq-text">Freq → Voltage</text>
  </g>
  
  <!-- Audio Amplifier -->
  <g transform="translate(640, 100)">
    <rect x="20" y="20" width="80" height="40" class="block" rx="5"/>
    <text x="60" y="35" class="block-text">Audio</text>
    <text x="60" y="48" class="block-text">Amplifier</text>
    <text x="60" y="75" class="freq-text">20 Hz - 20 kHz</text>
  </g>
  
  <!-- Speaker -->
  <g transform="translate(750, 100)">
    <rect x="20" y="20" width="60" height="40" class="signal" rx="5"/>
    <text x="50" y="38" class="block-text">Speaker</text>
    
    <!-- Speaker symbol -->
    <polygon points="30,10 40,10 50,5 50,15" fill="#4caf50"/>
    <path d="M55,8 Q60,5 65,8 Q60,15 55,12" stroke="#ff5722" stroke-width="2" fill="none">
      <animate attributeName="opacity" values="1;0.3;1" dur="1.5s" repeatCount="indefinite"/>
    </path>
  </g>
  
  <!-- Arrows for signal flow -->
  <path class="arrow" d="M100,80 L140,80"/>
  <path class="arrow" d="M220,80 L255,115"/>
  <path class="arrow" d="M310,140 L350,140"/>
  <path class="arrow" d="M430,140 L460,140"/>
  <path class="arrow" d="M520,140 L550,140"/>
  <path class="arrow" d="M630,140 L660,140"/>
  <path class="arrow" d="M740,140 L770,140"/>
  
  <!-- Local oscillator to mixer -->
  <path class="arrow" d="M280,95 L280,115"/>
  
  <!-- Signal flow animation -->
  <use href="#pulse"/>
  
  <!-- Frequency conversion indicators -->
  <g transform="translate(50, 200)">
    <text x="0" y="15" class="description" font-weight="bold">Signal Processing Steps:</text>
    <text x="0" y="35" class="description">1. RF signals (88-108 MHz) received by antenna</text>
    <text x="0" y="50" class="description">2. RF amplifier selects and amplifies desired station</text>
    <text x="0" y="65" class="description">3. Mixer converts RF to fixed IF frequency (10.7 MHz)</text>
    <text x="0" y="80" class="description">4. IF amplifier provides most of the gain and selectivity</text>
    <text x="0" y="95" class="description">5. Limiter removes amplitude variations (noise)</text>
    <text x="0" y="110" class="description">6. Discriminator converts frequency variations to audio</text>
    <text x="0" y="125" class="description">7. Audio amplifier boosts signal for speaker</text>
  </g>
  
  <!-- Key advantages -->
  <g transform="translate(50, 350)">
    <text x="0" y="15" class="description" font-weight="bold">FM Radio Advantages:</text>
    <text x="0" y="35" class="description">• Superior noise immunity (limiter removes AM noise)</text>
    <text x="0" y="50" class="description">• High-fidelity audio reproduction</text>
    <text x="0" y="65" class="description">• Fixed IF frequency improves selectivity</text>
    <text x="0" y="80" class="description">• Superheterodyne design enables precise tuning</text>
  </g>
  
  <!-- Frequency bands -->
  <g transform="translate(500, 350)">
    <text x="0" y="15" class="description" font-weight="bold">Frequency Information:</text>
    <text x="0" y="35" class="description">• FM Band: 88-108 MHz</text>
    <text x="0" y="50" class="description">• IF Frequency: 10.7 MHz</text>
    <text x="0" y="65" class="description">• Audio Range: 20 Hz - 20 kHz</text>
    <text x="0" y="80" class="description">• Local Osc: RF + 10.7 MHz</text>
  </g>
  
  <!-- Arrow marker definition -->
  <defs>
    <marker id="arrowhead" markerWidth="10" markerHeight="7" refX="9" refY="3.5" orient="auto">
      <polygon points="0 0, 10 3.5, 0 7" fill="#333"/>
    </marker>
  </defs>
</svg>