<svg viewBox="0 0 800 500" xmlns="http://www.w3.org/2000/svg">
  <!-- Background -->
  <rect width="800" height="500" fill="#f8f9fa"/>
  
  <!-- Title -->
  <text x="400" y="25" text-anchor="middle" font-family="Arial, sans-serif" font-size="18" font-weight="bold" fill="#2c3e50">
    Signal Representations - Time vs Frequency Domain
  </text>
  
  <!-- Sine Wave Section -->
  <g transform="translate(50, 60)">
    <text x="150" y="0" text-anchor="middle" font-family="Arial, sans-serif" font-size="14" font-weight="bold" fill="#3498db">
      Sine Wave Signal
    </text>
    
    <!-- Time domain -->
    <g transform="translate(0, 20)">
      <text x="0" y="0" font-family="Arial, sans-serif" font-size="12" font-weight="bold" fill="#2c3e50">Time Domain</text>
      
      <!-- Axes -->
      <line x1="0" y1="60" x2="200" y2="60" stroke="#333" stroke-width="2"/>
      <line x1="0" y1="20" x2="0" y2="100" stroke="#333" stroke-width="2"/>
      
      <!-- Sine wave with animation -->
      <path d="M 0 60" stroke="#3498db" stroke-width="3" fill="none">
        <animate attributeName="d" 
                 values="M 0 60 Q 25 35 50 60 T 100 60 T 150 60 T 200 60;
                        M 0 60 Q 25 85 50 60 T 100 60 T 150 60 T 200 60;
                        M 0 60 Q 25 35 50 60 T 100 60 T 150 60 T 200 60"
                 dur="2s" repeatCount="indefinite"/>
      </path>
      
      <!-- Labels -->
      <text x="210" y="65" font-family="Arial, sans-serif" font-size="11" fill="#333">t</text>
      <text x="-10" y="15" font-family="Arial, sans-serif" font-size="11" fill="#333">A</text>
      
      <!-- Period indicator -->
      <g stroke="#e74c3c" stroke-width="1" stroke-dasharray="2,2">
        <line x1="50" y1="110" x2="150" y2="110"/>
        <line x1="50" y1="105" x2="50" y2="115"/>
        <line x1="150" y1="105" x2="150" y2="115"/>
      </g>
      <text x="100" y="125" text-anchor="middle" font-family="Arial, sans-serif" font-size="10" fill="#e74c3c">T = 1/f</text>
    </g>
    
    <!-- Frequency domain -->
    <g transform="translate(250, 20)">
      <text x="0" y="0" font-family="Arial, sans-serif" font-size="12" font-weight="bold" fill="#2c3e50">Frequency Domain</text>
      
      <!-- Axes -->
      <line x1="0" y1="80" x2="150" y2="80" stroke="#333" stroke-width="2"/>
      <line x1="0" y1="20" x2="0" y2="100" stroke="#333" stroke-width="2"/>
      
      <!-- Single spike at fundamental frequency -->
      <line x1="75" y1="80" x2="75" y2="30" stroke="#3498db" stroke-width="4"/>
      <circle cx="75" cy="30" r="3" fill="#3498db">
        <animate attributeName="r" values="3;5;3" dur="1s" repeatCount="indefinite"/>
      </circle>
      
      <!-- Labels -->
      <text x="160" y="85" font-family="Arial, sans-serif" font-size="11" fill="#333">f</text>
      <text x="-10" y="15" font-family="Arial, sans-serif" font-size="11" fill="#333">|X(f)|</text>
      <text x="70" y="95" font-family="Arial, sans-serif" font-size="10" fill="#3498db">f₀</text>
    </g>
  </g>
  
  <!-- Square Wave Section -->
  <g transform="translate(50, 250)">
    <text x="150" y="0" text-anchor="middle" font-family="Arial, sans-serif" font-size="14" font-weight="bold" fill="#e74c3c">
      Square Wave Signal
    </text>
    
    <!-- Time domain -->
    <g transform="translate(0, 20)">
      <text x="0" y="0" font-family="Arial, sans-serif" font-size="12" font-weight="bold" fill="#2c3e50">Time Domain</text>
      
      <!-- Axes -->
      <line x1="0" y1="60" x2="200" y2="60" stroke="#333" stroke-width="2"/>
      <line x1="0" y1="20" x2="0" y2="100" stroke="#333" stroke-width="2"/>
      
      <!-- Square wave -->
      <path d="M 0 60 L 0 35 L 25 35 L 25 85 L 50 85 L 50 35 L 75 35 L 75 85 L 100 85 L 100 35 L 125 35 L 125 85 L 150 85 L 150 35 L 175 35 L 175 85 L 200 85" 
            stroke="#e74c3c" stroke-width="3" fill="none"/>
      
      <!-- Labels -->
      <text x="210" y="65" font-family="Arial, sans-serif" font-size="11" fill="#333">t</text>
      <text x="-10" y="15" font-family="Arial, sans-serif" font-size="11" fill="#333">A</text>
      
      <!-- Period indicator -->
      <g stroke="#9b59b6" stroke-width="1" stroke-dasharray="2,2">
        <line x1="25" y1="110" x2="75" y2="110"/>
        <line x1="25" y1="105" x2="25" y2="115"/>
        <line x1="75" y1="105" x2="75" y2="115"/>
      </g>
      <text x="50" y="125" text-anchor="middle" font-family="Arial, sans-serif" font-size="10" fill="#9b59b6">T = 1/f₀</text>
    </g>
    
    <!-- Frequency domain -->
    <g transform="translate(250, 20)">
      <text x="0" y="0" font-family="Arial, sans-serif" font-size="12" font-weight="bold" fill="#2c3e50">Frequency Domain</text>
      
      <!-- Axes -->
      <line x1="0" y1="80" x2="200" y2="80" stroke="#333" stroke-width="2"/>
      <line x1="0" y1="20" x2="0" y2="100" stroke="#333" stroke-width="2"/>
      
      <!-- Harmonic components with decreasing amplitude -->
      <!-- Fundamental -->
      <line x1="40" y1="80" x2="40" y2="30" stroke="#e74c3c" stroke-width="4"/>
      
      <!-- 3rd harmonic -->
      <line x1="80" y1="80" x2="80" y2="53" stroke="#e74c3c" stroke-width="3"/>
      
      <!-- 5th harmonic -->
      <line x1="120" y1="80" x2="120" y2="64" stroke="#e74c3c" stroke-width="2"/>
      
      <!-- 7th harmonic -->
      <line x1="160" y1="80" x2="160" y2="71" stroke="#e74c3c" stroke-width="2"/>
      
      <!-- Animation for harmonics -->
      <g>
        <circle cx="40" cy="30" r="2" fill="#e74c3c">
          <animate attributeName="r" values="2;4;2" dur="1.5s" repeatCount="indefinite"/>
        </circle>
        <circle cx="80" cy="53" r="2" fill="#e74c3c">
          <animate attributeName="r" values="2;3;2" dur="1.5s" begin="0.2s" repeatCount="indefinite"/>
        </circle>
        <circle cx="120" cy="64" r="1" fill="#e74c3c">
          <animate attributeName="r" values="1;2;1" dur="1.5s" begin="0.4s" repeatCount="indefinite"/>
        </circle>
        <circle cx="160" cy="71" r="1" fill="#e74c3c">
          <animate attributeName="r" values="1;1.5;1" dur="1.5s" begin="0.6s" repeatCount="indefinite"/>
        </circle>
      </g>
      
      <!-- Labels -->
      <text x="210" y="85" font-family="Arial, sans-serif" font-size="11" fill="#333">f</text>
      <text x="-10" y="15" font-family="Arial, sans-serif" font-size="11" fill="#333">|X(f)|</text>
      
      <!-- Frequency labels -->
      <text x="35" y="95" font-family="Arial, sans-serif" font-size="9" fill="#e74c3c">f₀</text>
      <text x="75" y="95" font-family="Arial, sans-serif" font-size="9" fill="#e74c3c">3f₀</text>
      <text x="115" y="95" font-family="Arial, sans-serif" font-size="9" fill="#e74c3c">5f₀</text>
      <text x="155" y="95" font-family="Arial, sans-serif" font-size="9" fill="#e74c3c">7f₀</text>
      
      <!-- Amplitude relationship -->
      <text x="100" y="110" text-anchor="middle" font-family="Arial, sans-serif" font-size="9" fill="#666">
        Amplitude ∝ 1/n (odd harmonics only)
      </text>
    </g>
  </g>
  
  <!-- Transform relationship -->
  <g transform="translate(500, 150)">
    <rect x="0" y="0" width="250" height="120" fill="#ecf0f1" stroke="#bdc3c7" stroke-width="2" rx="10"/>
    
    <text x="125" y="20" text-anchor="middle" font-family="Arial, sans-serif" font-size="14" font-weight="bold" fill="#2c3e50">
      Fourier Transform
    </text>
    
    <!-- Transform arrows -->
    <g transform="translate(125, 40)">
      <line x1="-60" y1="10" x2="60" y2="10" stroke="#2c3e50" stroke-width="2" marker-end="url(#arrowhead)"/>
      <line x1="60" y1="30" x2="-60" y2="30" stroke="#2c3e50" stroke-width="2" marker-start="url(#arrowhead)"/>
      
      <text x="0" y="5" text-anchor="middle" font-family="Arial, sans-serif" font-size="10" fill="#2c3e50">FT</text>
      <text x="0" y="45" text-anchor="middle" font-family="Arial, sans-serif" font-size="10" fill="#2c3e50">IFT</text>
    </g>
    
    <text x="40" y="70" font-family="Arial, sans-serif" font-size="11" fill="#34495e">Time Domain</text>
    <text x="40" y="85" font-family="Arial, sans-serif" font-size="10" fill="#666">x(t)</text>
    
    <text x="160" y="70" font-family="Arial, sans-serif" font-size="11" fill="#34495e">Frequency Domain</text>
    <text x="160" y="85" font-family="Arial, sans-serif" font-size="10" fill="#666">X(f)</text>
    
    <!-- Key insight -->
    <text x="125" y="105" text-anchor="middle" font-family="Arial, sans-serif" font-size="10" font-style="italic" fill="#7f8c8d">
      Different views of same signal
    </text>
  </g>
  
  <!-- Arrow definition -->
  <defs>
    <marker id="arrowhead" markerWidth="10" markerHeight="7" refX="10" refY="3.5" orient="auto">
      <polygon points="0 0, 10 3.5, 0 7" fill="#2c3e50"/>
    </marker>
  </defs>
</svg>