<svg viewBox="0 0 900 700" xmlns="http://www.w3.org/2000/svg">
  <defs>
    <style>
      .title { font: bold 16px Arial; text-anchor: middle; }
      .label { font: 12px Arial; text-anchor: middle; }
      .axis { font: 10px Arial; }
      .block { fill: #e3f2fd; stroke: #1976d2; stroke-width: 2; }
      .quantizer { fill: #ffebee; stroke: #d32f2f; stroke-width: 2; }
      .integrator { fill: #e8f5e8; stroke: #388e3c; stroke-width: 2; }
      .block-text { font: 11px Arial; text-anchor: middle; }
      .wave { fill: none; stroke-width: 2; }
      .input { stroke: #2e7d32; }
      .output { stroke: #1976d2; }
      .approx { stroke: #ff6f00; stroke-dasharray: 3,3; }
      .digital { stroke: #9c27b0; stroke-width: 3; }
      .arrow { stroke: #333; stroke-width: 2; marker-end: url(#arrowhead); }
      .description { font: 11px Arial; }
      .error { stroke: #f44336; stroke-width: 2; }
    </style>
  </defs>
  
  <!-- Title -->
  <text x="450" y="25" class="title">Delta Modulation (DM) System</text>
  
  <!-- Block Diagram -->
  <g transform="translate(50, 50)">
    <text x="300" y="15" class="label">Delta Modulator Block Diagram</text>
    
    <!-- Input -->
    <circle cx="30" cy="80" r="5" fill="#4caf50"/>
    <text x="15" y="75" class="axis">x(n)</text>
    <text x="15" y="90" class="axis">Input</text>
    
    <!-- Summer (subtractor) -->
    <circle cx="100" cy="80" r="25" class="block"/>
    <text x="85" y="85" class="block-text">+</text>
    <text x="115" y="95" class="block-text">-</text>
    <text x="100" y="120" class="axis">Σ</text>
    
    <!-- 1-bit Quantizer -->
    <rect x="170" y="60" width="60" height="40" class="quantizer" rx="5"/>
    <text x="200" y="75" class="block-text">1-bit</text>
    <text x="200" y="88" class="block-text">Quantizer</text>
    <text x="200" y="115" class="axis">Q[·]</text>
    
    <!-- Output -->
    <circle cx="280" cy="80" r="5" fill="#1976d2"/>
    <text x="295" y="75" class="axis">d(n)</text>
    <text x="295" y="90" class="axis">Output</text>
    
    <!-- Delay -->
    <rect x="170" y="140" width="60" height="30" class="block" rx="5"/>
    <text x="200" y="160" class="block-text">z⁻¹ Delay</text>
    
    <!-- Integrator -->
    <rect x="60" y="140" width="60" height="30" class="block" rx="5"/>
    <text x="90" y="160" class="block-text">∫ Integrator</text>
    
    <!-- Connections -->
    <path class="arrow" d="M45,80 L75,80"/>
    <path class="arrow" d="M125,80 L170,80"/>
    <path class="arrow" d="M230,80 L275,80"/>
    
    <!-- Feedback path -->
    <path class="arrow" d="M200,100 L200,140"/>
    <path class="arrow" d="M170,155 L120,155"/>
    <path class="arrow" d="M90,140 L90,105"/>
    
    <!-- Feedback labels -->
    <text x="140" y="180" class="axis">y(n-1)</text>
    <text x="50" y="125" class="axis">y(n)</text>
    <text x="240" y="125" class="axis">d(n)</text>
  </g>
  
  <!-- Waveform Analysis -->
  <g transform="translate(400, 50)">
    <text x="200" y="15" class="label">Delta Modulation Waveforms</text>
    
    <!-- Time axis -->
    <line x1="30" y1="200" x2="380" y2="200" stroke="black" stroke-width="1"/>
    <text x="390" y="205" class="axis">Time</text>
    
    <!-- Input Signal -->
    <text x="0" y="40" class="axis">Input</text>
    <text x="0" y="52" class="axis">x(n)</text>
    <path class="wave input" d="M30,70 Q70,45 110,60 Q150,85 190,55 Q230,35 270,65 Q310,90 350,60 Q370,50 380,55">
      <animate attributeName="d" values="M30,70 Q70,45 110,60 Q150,85 190,55 Q230,35 270,65 Q310,90 350,60 Q370,50 380,55;M30,65 Q70,50 110,65 Q150,80 190,60 Q230,40 270,70 Q310,85 350,65 Q370,55 380,60;M30,70 Q70,45 110,60 Q150,85 190,55 Q230,35 270,65 Q310,90 350,60 Q370,50 380,55" dur="6s" repeatCount="indefinite"/>
    </path>
    
    <!-- Clock Pulses -->
    <text x="0" y="90" class="axis">Clock</text>
    <g class="wave digital">
      <rect x="50" y="85" width="3" height="15" fill="#9c27b0"/>
      <rect x="70" y="85" width="3" height="15" fill="#9c27b0"/>
      <rect x="90" y="85" width="3" height="15" fill="#9c27b0"/>
      <rect x="110" y="85" width="3" height="15" fill="#9c27b0"/>
      <rect x="130" y="85" width="3" height="15" fill="#9c27b0"/>
      <rect x="150" y="85" width="3" height="15" fill="#9c27b0"/>
      <rect x="170" y="85" width="3" height="15" fill="#9c27b0"/>
      <rect x="190" y="85" width="3" height="15" fill="#9c27b0"/>
      <rect x="210" y="85" width="3" height="15" fill="#9c27b0"/>
      <rect x="230" y="85" width="3" height="15" fill="#9c27b0"/>
      <rect x="250" y="85" width="3" height="15" fill="#9c27b0"/>
      <rect x="270" y="85" width="3" height="15" fill="#9c27b0"/>
      <rect x="290" y="85" width="3" height="15" fill="#9c27b0"/>
      <rect x="310" y="85" width="3" height="15" fill="#9c27b0"/>
      <rect x="330" y="85" width="3" height="15" fill="#9c27b0"/>
      <rect x="350" y="85" width="3" height="15" fill="#9c27b0"/>
      <rect x="370" y="85" width="3" height="15" fill="#9c27b0"/>
    </g>
    
    <!-- DM Output (Binary) -->
    <text x="0" y="115" class="axis">DM</text>
    <text x="0" y="127" class="axis">Output</text>
    <g class="wave digital">
      <rect x="50" y="115" width="20" height="10" fill="#1976d2" opacity="0.8"/>
      <rect x="70" y="115" width="20" height="10" fill="#1976d2" opacity="0.8"/>
      <rect x="110" y="115" width="20" height="10" fill="#1976d2" opacity="0.8"/>
      <rect x="130" y="125" width="20" height="10" fill="#f44336" opacity="0.8"/>
      <rect x="150" y="125" width="20" height="10" fill="#f44336" opacity="0.8"/>
      <rect x="170" y="125" width="20" height="10" fill="#f44336" opacity="0.8"/>
      <rect x="210" y="115" width="20" height="10" fill="#1976d2" opacity="0.8"/>
      <rect x="230" y="115" width="20" height="10" fill="#1976d2" opacity="0.8"/>
      <rect x="250" y="115" width="20" height="10" fill="#1976d2" opacity="0.8"/>
      <rect x="290" y="125" width="20" height="10" fill="#f44336" opacity="0.8"/>
      <rect x="310" y="125" width="20" height="10" fill="#f44336" opacity="0.8"/>
      <rect x="350" y="115" width="20" height="10" fill="#1976d2" opacity="0.8"/>
      
      <!-- Binary labels -->
      <text x="60" y="138" class="axis">1</text>
      <text x="80" y="138" class="axis">1</text>
      <text x="120" y="138" class="axis">1</text>
      <text x="140" y="148" class="axis">0</text>
      <text x="160" y="148" class="axis">0</text>
      <text x="180" y="148" class="axis">0</text>
      <text x="220" y="138" class="axis">1</text>
      <text x="240" y="138" class="axis">1</text>
      <text x="260" y="138" class="axis">1</text>
      <text x="300" y="148" class="axis">0</text>
      <text x="320" y="148" class="axis">0</text>
      <text x="360" y="138" class="axis">1</text>
    </g>
    
    <!-- Step Approximation -->
    <text x="0" y="165" class="axis">Step</text>
    <text x="0" y="177" class="axis">Approx</text>
    <path class="wave approx" d="M30,175 L50,175 L50,170 L70,170 L70,165 L90,165 L90,160 L110,160 L110,165 L130,165 L130,170 L150,170 L150,175 L170,175 L170,180 L190,180 L190,175 L210,175 L210,170 L230,170 L230,165 L250,165 L250,160 L270,160 L270,165 L290,165 L290,170 L310,170 L310,175 L330,175 L330,170 L350,170 L350,165 L370,165 L370,160 L380,160">
      <animate attributeName="d" values="M30,175 L50,175 L50,170 L70,170 L70,165 L90,165 L90,160 L110,160 L110,165 L130,165 L130,170 L150,170 L150,175 L170,175 L170,180 L190,180 L190,175 L210,175 L210,170 L230,170 L230,165 L250,165 L250,160 L270,160 L270,165 L290,165 L290,170 L310,170 L310,175 L330,175 L330,170 L350,170 L350,165 L370,165 L370,160 L380,160;M30,170 L50,170 L50,165 L70,165 L70,160 L90,160 L90,165 L110,165 L110,170 L130,170 L130,175 L150,175 L150,180 L170,180 L170,175 L190,175 L190,170 L210,170 L210,165 L230,165 L230,160 L250,160 L250,165 L270,165 L270,170 L290,170 L290,175 L310,175 L310,170 L330,170 L330,165 L350,165 L350,160 L370,160 L370,165 L380,165;M30,175 L50,175 L50,170 L70,170 L70,165 L90,165 L90,160 L110,160 L110,165 L130,165 L130,170 L150,170 L150,175 L170,175 L170,180 L190,180 L190,175 L210,175 L210,170 L230,170 L230,165 L250,165 L250,160 L270,160 L270,165 L290,165 L290,170 L310,170 L310,175 L330,175 L330,170 L350,170 L350,165 L370,165 L370,160 L380,160" dur="6s" repeatCount="indefinite"/>
    </path>
    
    <!-- Sampling points -->
    <circle cx="52" cy="65" r="2" fill="#ff5722">
      <animate attributeName="opacity" values="1;0.3;1" dur="1s" repeatCount="indefinite"/>
    </circle>
    <circle cx="72" cy="52" r="2" fill="#ff5722">
      <animate attributeName="opacity" values="1;0.3;1" dur="1s" repeatCount="indefinite" begin="0.3s"/>
    </circle>
    <circle cx="92" cy="58" r="2" fill="#ff5722">
      <animate attributeName="opacity" values="1;0.3;1" dur="1s" repeatCount="indefinite" begin="0.6s"/>
    </circle>
    <circle cx="112" cy="63" r="2" fill="#ff5722">
      <animate attributeName="opacity" values="1;0.3;1" dur="1s" repeatCount="indefinite" begin="0.9s"/>
    </circle>
  </g>
  
  <!-- Noise Types -->
  <g transform="translate(50, 300)">
    <text x="350" y="15" class="label">Delta Modulation Noise Types</text>
    
    <!-- Slope Overload -->
    <g transform="translate(0, 30)">
      <rect x="0" y="0" width="320" height="120" fill="#ffebee" stroke="#f44336" stroke-width="2" rx="5"/>
      <text x="160" y="20" class="label" fill="#d32f2f">SLOPE OVERLOAD NOISE</text>
      
      <!-- Fast changing signal -->
      <text x="10" y="40" class="axis">Fast changing signal:</text>
      <path class="wave error" d="M20,50 L40,40 L60,60 L80,35 L100,65 L120,30"/>
      <text x="10" y="80" class="axis">DM approximation:</text>
      <path class="wave approx" d="M20,85 L30,85 L30,80 L40,80 L40,75 L50,75 L50,80 L60,80 L60,75 L70,75 L70,70 L80,70 L80,75 L90,75 L90,80 L100,80 L100,75 L110,75 L110,70 L120,70"/>
      
      <text x="140" y="50" class="description">• Occurs when signal slope > step size capability</text>
      <text x="140" y="65" class="description">• Step size too small for rapid changes</text>
      <text x="140" y="80" class="description">• Solution: Increase step size or fs</text>
      <text x="140" y="95" class="description">• Condition: |dx/dt| > Δ·fs</text>
    </g>
    
    <!-- Granular Noise -->
    <g transform="translate(350, 30)">
      <rect x="0" y="0" width="320" height="120" fill="#e8f5e8" stroke="#4caf50" stroke-width="2" rx="5"/>
      <text x="160" y="20" class="label" fill="#2e7d32">GRANULAR NOISE</text>
      
      <!-- Slowly changing signal -->
      <text x="10" y="40" class="axis">Slowly changing signal:</text>
      <path class="wave input" d="M20,55 L120,60"/>
      <text x="10" y="80" class="axis">DM approximation:</text>
      <path class="wave approx" d="M20,85 L30,85 L30,80 L40,80 L40,85 L50,85 L50,80 L60,80 L60,85 L70,85 L70,80 L80,80 L80,85 L90,85 L90,80 L100,80 L100,85 L110,85 L110,80 L120,80"/>
      
      <text x="140" y="50" class="description">• Occurs with slowly varying signals</text>
      <text x="140" y="65" class="description">• Continuous hunting around signal level</text>
      <text x="140" y="80" class="description">• Solution: Decrease step size</text>
      <text x="140" y="95" class="description">• Step size too large for slow changes</text>
    </g>
  </g>
  
  <!-- Characteristics Table -->
  <g transform="translate(50, 470)">
    <text x="350" y="15" class="label">Delta Modulation Characteristics</text>
    
    <g transform="translate(0, 30)">
      <rect x="0" y="0" width="800" height="150" fill="#f5f5f5" stroke="#666" stroke-width="1" rx="5"/>
      
      <text x="20" y="25" class="description" font-weight="bold">Advantages:</text>
      <text x="20" y="45" class="description">• Simplest DPCM system (1 bit per sample)</text>
      <text x="20" y="60" class="description">• Low bit rate transmission</text>
      <text x="20" y="75" class="description">• Simple hardware implementation</text>
      <text x="20" y="90" class="description">• Robust against channel errors</text>
      <text x="20" y="105" class="description">• Suitable for speech coding</text>
      
      <text x="280" y="25" class="description" font-weight="bold">Disadvantages:</text>
      <text x="280" y="45" class="description">• Fixed step size limitation</text>
      <text x="280" y="60" class="description">• Slope overload for fast signals</text>
      <text x="280" y="75" class="description">• Granular noise for slow signals</text>
      <text x="280" y="90" class="description">• Limited dynamic range</text>
      <text x="280" y="105" class="description">• High sampling frequency required</text>
      
      <text x="540" y="25" class="description" font-weight="bold">Applications:</text>
      <text x="540" y="45" class="description">• Digital telephony</text>
      <text x="540" y="60" class="description">• Speech transmission</text>
      <text x="540" y="75" class="description">• Satellite communications</text>
      <text x="540" y="90" class="description">• Mobile communications</text>
      <text x="540" y="105" class="description">• Telemetry systems</text>
      
      <text x="20" y="130" class="description" font-weight="bold">Key Equation: Output = ±Δ (step size)</text>
      <text x="300" y="130" class="description" font-weight="bold">Bit Rate: R = fs (1 bit per sample)</text>
      <text x="600" y="130" class="description" font-weight="bold">SNR ∝ fs³/fm² (for sinusoidal input)</text>
    </g>
  </g>
  
  <!-- Arrow marker definition -->
  <defs>
    <marker id="arrowhead" markerWidth="10" markerHeight="7" refX="9" refY="3.5" orient="auto">
      <polygon points="0 0, 10 3.5, 0 7" fill="#333"/>
    </marker>
  </defs>
</svg>