<svg viewBox="0 0 900 700" xmlns="http://www.w3.org/2000/svg">
  <defs>
    <style>
      .title { font: bold 16px Arial; text-anchor: middle; }
      .label { font: 12px Arial; text-anchor: middle; }
      .axis { font: 10px Arial; }
      .wave { fill: none; stroke-width: 2; }
      .analog { stroke: #f44336; }
      .natural { stroke: #2196f3; stroke-width: 3; }
      .flattop { stroke: #4caf50; stroke-width: 3; }
      .ideal { stroke: #9c27b0; stroke-width: 3; }
      .uniform { stroke: #ff9800; stroke-width: 3; }
      .clock { stroke: #666; stroke-dasharray: 2,2; }
      .description { font: 11px Arial; }
      .section-title { font: bold 14px Arial; text-anchor: middle; }
      .comparison-box { fill: #f5f5f5; stroke: #666; stroke-width: 1; }
      .natural-box { fill: #e3f2fd; stroke: #2196f3; stroke-width: 2; }
      .flattop-box { fill: #e8f5e8; stroke: #4caf50; stroke-width: 2; }
      .ideal-box { fill: #f3e5f5; stroke: #9c27b0; stroke-width: 2; }
      .nyquist-box { fill: #ffebee; stroke: #f44336; stroke-width: 2; }
    </style>
  </defs>

  <!-- Title -->
  <text x="450" y="25" class="title">Types of Sampling in Communication Systems</text>

  <!-- Original Analog Signal -->
  <g transform="translate(50, 60)">
    <text x="400" y="15" class="section-title" fill="#d32f2f">Original Analog Signal</text>

    <!-- Time axis -->
    <line x1="30" y1="70" x2="750" y2="70" stroke="black" stroke-width="1"/>
    <text x="760" y="75" class="axis">Time</text>

    <!-- Original continuous signal -->
    <path class="wave analog" d="M30,60 Q100,30 170,55 Q240,85 310,45 Q380,25 450,65 Q520,95 590,50 Q660,20 730,60">
      <animate attributeName="d" values="M30,60 Q100,30 170,55 Q240,85 310,45 Q380,25 450,65 Q520,95 590,50 Q660,20 730,60;M30,65 Q100,35 170,60 Q240,80 310,50 Q380,30 450,70 Q520,90 590,55 Q660,25 730,65;M30,60 Q100,30 170,55 Q240,85 310,45 Q380,25 450,65 Q520,95 590,50 Q660,20 730,60" dur="6s" repeatCount="indefinite"/>
    </path>

    <!-- Sampling time markers -->
    <g class="clock">
      <line x1="80" y1="20" x2="80" y2="90"/>
      <line x1="140" y1="20" x2="140" y2="90"/>
      <line x1="200" y1="20" x2="200" y2="90"/>
      <line x1="260" y1="20" x2="260" y2="90"/>
      <line x1="320" y1="20" x2="320" y2="90"/>
      <line x1="380" y1="20" x2="380" y2="90"/>
      <line x1="440" y1="20" x2="440" y2="90"/>
      <line x1="500" y1="20" x2="500" y2="90"/>
      <line x1="560" y1="20" x2="560" y2="90"/>
      <line x1="620" y1="20" x2="620" y2="90"/>
      <line x1="680" y1="20" x2="680" y2="90"/>

      <text x="380" y="15" class="axis">Sampling Instants (Ts = 1/fs)</text>
    </g>

    <!-- Sample points -->
    <circle cx="80" cy="45" r="3" fill="#ff5722">
      <animate attributeName="opacity" values="1;0.3;1" dur="1s" repeatCount="indefinite"/>
    </circle>
    <circle cx="140" cy="50" r="3" fill="#ff5722">
      <animate attributeName="opacity" values="1;0.3;1" dur="1s" repeatCount="indefinite" begin="0.1s"/>
    </circle>
    <circle cx="200" cy="60" r="3" fill="#ff5722">
      <animate attributeName="opacity" values="1;0.3;1" dur="1s" repeatCount="indefinite" begin="0.2s"/>
    </circle>
    <circle cx="260" cy="75" r="3" fill="#ff5722">
      <animate attributeName="opacity" values="1;0.3;1" dur="1s" repeatCount="indefinite" begin="0.3s"/>
    </circle>
    <circle cx="320" cy="50" r="3" fill="#ff5722">
      <animate attributeName="opacity" values="1;0.3;1" dur="1s" repeatCount="indefinite" begin="0.4s"/>
    </circle>
    <circle cx="380" cy="35" r="3" fill="#ff5722">
      <animate attributeName="opacity" values="1;0.3;1" dur="1s" repeatCount="indefinite" begin="0.5s"/>
    </circle>
    <circle cx="440" cy="65" r="3" fill="#ff5722">
      <animate attributeName="opacity" values="1;0.3;1" dur="1s" repeatCount="indefinite" begin="0.6s"/>
    </circle>
    <circle cx="500" cy="85" r="3" fill="#ff5722">
      <animate attributeName="opacity" values="1;0.3;1" dur="1s" repeatCount="indefinite" begin="0.7s"/>
    </circle>
    <circle cx="560" cy="55" r="3" fill="#ff5722">
      <animate attributeName="opacity" values="1;0.3;1" dur="1s" repeatCount="indefinite" begin="0.8s"/>
    </circle>
    <circle cx="620" cy="30" r="3" fill="#ff5722">
      <animate attributeName="opacity" values="1;0.3;1" dur="1s" repeatCount="indefinite" begin="0.9s"/>
    </circle>
    <circle cx="680" cy="60" r="3" fill="#ff5722">
      <animate attributeName="opacity" values="1;0.3;1" dur="1s" repeatCount="indefinite" begin="1s"/>
    </circle>
  </g>

  <!-- Natural Sampling -->
  <g transform="translate(50, 150)">
    <text x="400" y="15" class="section-title" fill="#1976d2">Natural Sampling (Chopped Signal)</text>

    <!-- Time axis -->
    <line x1="30" y1="70" x2="750" y2="70" stroke="black" stroke-width="1"/>
    <text x="760" y="75" class="axis">Time</text>

    <!-- Natural sampling - signal multiplied by rectangular pulses -->
    <g class="natural">
      <!-- Sample 1 -->
      <path d="M75,45 Q80,42 85,47" opacity="0.8">
        <animate attributeName="opacity" values="0.8;0.4;0.8" dur="2s" repeatCount="indefinite"/>
      </path>
      <!-- Sample 2 -->
      <path d="M135,50 Q140,48 145,52" opacity="0.8">
        <animate attributeName="opacity" values="0.8;0.4;0.8" dur="2s" repeatCount="indefinite" begin="0.2s"/>
      </path>
      <!-- Sample 3 -->
      <path d="M195,60 Q200,57 205,63" opacity="0.8">
        <animate attributeName="opacity" values="0.8;0.4;0.8" dur="2s" repeatCount="indefinite" begin="0.4s"/>
      </path>
      <!-- Sample 4 -->
      <path d="M255,75 Q260,72 265,78" opacity="0.8">
        <animate attributeName="opacity" values="0.8;0.4;0.8" dur="2s" repeatCount="indefinite" begin="0.6s"/>
      </path>
      <!-- Sample 5 -->
      <path d="M315,50 Q320,47 325,53" opacity="0.8">
        <animate attributeName="opacity" values="0.8;0.4;0.8" dur="2s" repeatCount="indefinite" begin="0.8s"/>
      </path>
      <!-- Sample 6 -->
      <path d="M375,35 Q380,32 385,38" opacity="0.8">
        <animate attributeName="opacity" values="0.8;0.4;0.8" dur="2s" repeatCount="indefinite" begin="1s"/>
      </path>
      <!-- Sample 7 -->
      <path d="M435,65 Q440,62 445,68" opacity="0.8">
        <animate attributeName="opacity" values="0.8;0.4;0.8" dur="2s" repeatCount="indefinite" begin="1.2s"/>
      </path>
      <!-- Sample 8 -->
      <path d="M495,85 Q500,82 505,88" opacity="0.8">
        <animate attributeName="opacity" values="0.8;0.4;0.8" dur="2s" repeatCount="indefinite" begin="1.4s"/>
      </path>
      <!-- Sample 9 -->
      <path d="M555,55 Q560,52 565,58" opacity="0.8">
        <animate attributeName="opacity" values="0.8;0.4;0.8" dur="2s" repeatCount="indefinite" begin="1.6s"/>
      </path>
      <!-- Sample 10 -->
      <path d="M615,30 Q620,27 625,33" opacity="0.8">
        <animate attributeName="opacity" values="0.8;0.4;0.8" dur="2s" repeatCount="indefinite" begin="1.8s"/>
      </path>
      <!-- Sample 11 -->
      <path d="M675,60 Q680,57 685,63" opacity="0.8">
        <animate attributeName="opacity" values="0.8;0.4;0.8" dur="2s" repeatCount="indefinite" begin="2s"/>
      </path>
    </g>

    <text x="30" y="95" class="description">Signal retains original shape during pulse duration</text>
  </g>

  <!-- Flat-top Sampling -->
  <g transform="translate(50, 240)">
    <text x="400" y="15" class="section-title" fill="#2e7d32">Flat-top Sampling (Sample and Hold)</text>

    <!-- Time axis -->
    <line x1="30" y1="70" x2="750" y2="70" stroke="black" stroke-width="1"/>
    <text x="760" y="75" class="axis">Time</text>

    <!-- Flat-top sampling - staircase output -->
    <g class="flattop">
      <rect x="75" y="45" width="50" height="0" fill="#4caf50" opacity="0.7">
        <animate attributeName="height" values="0;25;25;0" dur="4s" repeatCount="indefinite"/>
        <animate attributeName="y" values="45;20;20;45" dur="4s" repeatCount="indefinite"/>
      </rect>
      <rect x="135" y="50" width="50" height="0" fill="#4caf50" opacity="0.7">
        <animate attributeName="height" values="0;20;20;0" dur="4s" repeatCount="indefinite" begin="0.5s"/>
        <animate attributeName="y" values="50;30;30;50" dur="4s" repeatCount="indefinite" begin="0.5s"/>
      </rect>
      <rect x="195" y="60" width="50" height="0" fill="#4caf50" opacity="0.7">
        <animate attributeName="height" values="0;10;10;0" dur="4s" repeatCount="indefinite" begin="1s"/>
        <animate attributeName="y" values="60;50;50;60" dur="4s" repeatCount="indefinite" begin="1s"/>
      </rect>
      <rect x="255" y="75" width="50" height="0" fill="#4caf50" opacity="0.7">
        <animate attributeName="height" values="0;-5;-5;0" dur="4s" repeatCount="indefinite" begin="1.5s"/>
        <animate attributeName="y" values="75;80;80;75" dur="4s" repeatCount="indefinite" begin="1.5s"/>
      </rect>
      <rect x="315" y="50" width="50" height="0" fill="#4caf50" opacity="0.7">
        <animate attributeName="height" values="0;20;20;0" dur="4s" repeatCount="indefinite" begin="2s"/>
        <animate attributeName="y" values="50;30;30;50" dur="4s" repeatCount="indefinite" begin="2s"/>
      </rect>
      <rect x="375" y="35" width="50" height="0" fill="#4caf50" opacity="0.7">
        <animate attributeName="height" values="0;35;35;0" dur="4s" repeatCount="indefinite" begin="2.5s"/>
        <animate attributeName="y" values="35;0;0;35" dur="4s" repeatCount="indefinite" begin="2.5s"/>
      </rect>
      <rect x="435" y="65" width="50" height="0" fill="#4caf50" opacity="0.7">
        <animate attributeName="height" values="0;5;5;0" dur="4s" repeatCount="indefinite" begin="3s"/>
        <animate attributeName="y" values="65;60;60;65" dur="4s" repeatCount="indefinite" begin="3s"/>
      </rect>
      <rect x="495" y="85" width="50" height="0" fill="#4caf50" opacity="0.7">
        <animate attributeName="height" values="0;-15;-15;0" dur="4s" repeatCount="indefinite" begin="3.5s"/>
        <animate attributeName="y" values="85;100;100;85" dur="4s" repeatCount="indefinite" begin="3.5s"/>
      </rect>
    </g>

    <text x="30" y="95" class="description">Sample value held constant during sampling interval</text>
  </g>

  <!-- Ideal Sampling -->
  <g transform="translate(50, 330)">
    <text x="400" y="15" class="section-title" fill="#7b1fa2">Ideal Sampling (Impulse Train)</text>

    <!-- Time axis -->
    <line x1="30" y1="70" x2="750" y2="70" stroke="black" stroke-width="1"/>
    <text x="760" y="75" class="axis">Time</text>

    <!-- Ideal sampling - impulses with varying heights -->
    <g class="ideal">
      <line x1="80" y1="70" x2="80" y2="45" stroke="#9c27b0" stroke-width="4" opacity="0.8">
        <animate attributeName="opacity" values="0.8;0.3;0.8" dur="1s" repeatCount="indefinite"/>
      </line>
      <line x1="140" y1="70" x2="140" y2="50" stroke="#9c27b0" stroke-width="4" opacity="0.8">
        <animate attributeName="opacity" values="0.8;0.3;0.8" dur="1s" repeatCount="indefinite" begin="0.1s"/>
      </line>
      <line x1="200" y1="70" x2="200" y2="60" stroke="#9c27b0" stroke-width="4" opacity="0.8">
        <animate attributeName="opacity" values="0.8;0.3;0.8" dur="1s" repeatCount="indefinite" begin="0.2s"/>
      </line>
      <line x1="260" y1="70" x2="260" y2="75" stroke="#9c27b0" stroke-width="4" opacity="0.8">
        <animate attributeName="opacity" values="0.8;0.3;0.8" dur="1s" repeatCount="indefinite" begin="0.3s"/>
      </line>
      <line x1="320" y1="70" x2="320" y2="50" stroke="#9c27b0" stroke-width="4" opacity="0.8">
        <animate attributeName="opacity" values="0.8;0.3;0.8" dur="1s" repeatCount="indefinite" begin="0.4s"/>
      </line>
      <line x1="380" y1="70" x2="380" y2="35" stroke="#9c27b0" stroke-width="4" opacity="0.8">
        <animate attributeName="opacity" values="0.8;0.3;0.8" dur="1s" repeatCount="indefinite" begin="0.5s"/>
      </line>
      <line x1="440" y1="70" x2="440" y2="65" stroke="#9c27b0" stroke-width="4" opacity="0.8">
        <animate attributeName="opacity" values="0.8;0.3;0.8" dur="1s" repeatCount="indefinite" begin="0.6s"/>
      </line>
      <line x1="500" y1="70" x2="500" y2="85" stroke="#9c27b0" stroke-width="4" opacity="0.8">
        <animate attributeName="opacity" values="0.8;0.3;0.8" dur="1s" repeatCount="indefinite" begin="0.7s"/>
      </line>
      <line x1="560" y1="70" x2="560" y2="55" stroke="#9c27b0" stroke-width="4" opacity="0.8">
        <animate attributeName="opacity" values="0.8;0.3;0.8" dur="1s" repeatCount="indefinite" begin="0.8s"/>
      </line>
      <line x1="620" y1="70" x2="620" y2="30" stroke="#9c27b0" stroke-width="4" opacity="0.8">
        <animate attributeName="opacity" values="0.8;0.3;0.8" dur="1s" repeatCount="indefinite" begin="0.9s"/>
      </line>
      <line x1="680" y1="70" x2="680" y2="60" stroke="#9c27b0" stroke-width="4" opacity="0.8">
        <animate attributeName="opacity" values="0.8;0.3;0.8" dur="1s" repeatCount="indefinite" begin="1s"/>
      </line>
    </g>

    <text x="30" y="95" class="description">Instantaneous samples as impulses (theoretical concept)</text>
  </g>

  <!-- Nyquist Sampling Theorem -->
  <g transform="translate(50, 420)">
    <text x="400" y="15" class="section-title" fill="#d32f2f">Nyquist Sampling Theorem</text>

    <rect x="0" y="30" width="800" height="80" class="nyquist-box" rx="5"/>
    <text x="400" y="50" class="label" font-weight="bold" font-size="14">fs ≥ 2fm (Nyquist Rate)</text>
    <text x="50" y="70" class="description">• Sampling frequency must be at least twice the highest frequency component</text>
    <text x="50" y="85" class="description">• Ensures perfect reconstruction of the original signal from samples</text>
    <text x="50" y="100" class="description">• If fs &lt; 2fm, aliasing occurs (frequency folding)</text>

    <text x="450" y="70" class="description">• Nyquist frequency: fN = fs/2 (highest frequency that can be sampled)</text>
    <text x="450" y="85" class="description">• Anti-aliasing filters used to limit signal bandwidth before sampling</text>
    <text x="450" y="100" class="description">• Example: For voice (4 kHz), minimum fs = 8 kHz</text>
  </g>

  <!-- Comparison Table -->
  <g transform="translate(50, 530)">
    <text x="400" y="15" class="section-title">Comparison of Sampling Types</text>

    <!-- Table Header -->
    <rect x="0" y="25" width="150" height="30" class="comparison-box"/>
    <text x="75" y="45" class="label" font-weight="bold">Parameter</text>

    <rect x="150" y="25" width="200" height="30" class="natural-box"/>
    <text x="250" y="45" class="label" font-weight="bold">Natural Sampling</text>

    <rect x="350" y="25" width="200" height="30" class="flattop-box"/>
    <text x="450" y="45" class="label" font-weight="bold">Flat-top Sampling</text>

    <rect x="550" y="25" width="200" height="30" class="ideal-box"/>
    <text x="650" y="45" class="label" font-weight="bold">Ideal Sampling</text>

    <!-- Signal Shape -->
    <rect x="0" y="55" width="150" height="25" class="comparison-box"/>
    <text x="75" y="72" class="description">Signal Shape</text>

    <rect x="150" y="55" width="200" height="25" class="natural-box"/>
    <text x="250" y="72" class="description">Retains original during pulse</text>

    <rect x="350" y="55" width="200" height="25" class="flattop-box"/>
    <text x="450" y="72" class="description">Constant amplitude</text>

    <rect x="550" y="55" width="200" height="25" class="ideal-box"/>
    <text x="650" y="72" class="description">Impulses (zero width)</text>

    <!-- Implementation -->
    <rect x="0" y="80" width="150" height="25" class="comparison-box"/>
    <text x="75" y="97" class="description">Implementation</text>

    <rect x="150" y="80" width="200" height="25" class="natural-box"/>
    <text x="250" y="97" class="description">Analog switches</text>

    <rect x="350" y="80" width="200" height="25" class="flattop-box"/>
    <text x="450" y="97" class="description">Sample &amp; hold circuits</text>

    <rect x="550" y="80" width="200" height="25" class="ideal-box"/>
    <text x="650" y="97" class="description">Theoretical only</text>

    <!-- Reconstruction -->
    <rect x="0" y="105" width="150" height="25" class="comparison-box"/>
    <text x="75" y="122" class="description">Reconstruction</text>

    <rect x="150" y="105" width="200" height="25" class="natural-box"/>
    <text x="250" y="122" class="description">Simple LPF</text>

    <rect x="350" y="105" width="200" height="25" class="flattop-box"/>
    <text x="450" y="122" class="description">Requires compensation</text>

    <rect x="550" y="105" width="200" height="25" class="ideal-box"/>
    <text x="650" y="122" class="description">Perfect with LPF</text>

    <!-- Applications -->
    <rect x="0" y="130" width="150" height="25" class="comparison-box"/>
    <text x="75" y="147" class="description">Applications</text>

    <rect x="150" y="130" width="200" height="25" class="natural-box"/>
    <text x="250" y="147" class="description">PAM systems</text>

    <rect x="350" y="130" width="200" height="25" class="flattop-box"/>
    <text x="450" y="147" class="description">ADC, PCM systems</text>

    <rect x="550" y="130" width="200" height="25" class="ideal-box"/>
    <text x="650" y="147" class="description">Mathematical analysis</text>
  </g>
</svg>