<svg viewBox="0 0 900 600" xmlns="http://www.w3.org/2000/svg">
  <defs>
    <style>
      .title { font: bold 16px Arial; text-anchor: middle; }
      .label { font: 12px Arial; text-anchor: middle; }
      .axis { font: 10px Arial; }
      .frame { fill: #e3f2fd; stroke: #1976d2; stroke-width: 2; }
      .sync { fill: #ffebee; stroke: #f44336; stroke-width: 2; }
      .channel1 { fill: #e8f5e8; stroke: #4caf50; stroke-width: 2; }
      .channel2 { fill: #fff3e0; stroke: #ff9800; stroke-width: 2; }
      .channel3 { fill: #f3e5f5; stroke: #9c27b0; stroke-width: 2; }
      .channel4 { fill: #fce4ec; stroke: #e91e63; stroke-width: 2; }
      .block-text { font: 11px Arial; text-anchor: middle; }
      .description { font: 11px Arial; }
      .section-title { font: bold 14px Arial; text-anchor: middle; }
      .arrow { stroke: #333; stroke-width: 2; marker-end: url(#arrowhead); }
      .time-marker { stroke: #666; stroke-dasharray: 2,2; }
      .data-flow { stroke: #1976d2; stroke-width: 3; fill: none; }
    </style>
  </defs>
  
  <!-- Title -->
  <text x="450" y="25" class="title">Time Division Multiplexing (TDM) Frame Structure</text>
  
  <!-- Input Channels -->
  <g transform="translate(50, 60)">
    <text x="150" y="15" class="section-title" fill="#1976d2">Input Channels</text>
    
    <!-- Channel 1 -->
    <g transform="translate(0, 30)">
      <rect x="0" y="0" width="100" height="30" class="channel1" rx="5"/>
      <text x="50" y="20" class="block-text">Channel 1</text>
      <text x="120" y="20" class="description">Voice/Data Stream 1</text>
      
      <!-- Sample waveform -->
      <path d="M250,5 Q270,0 290,15 Q310,25 330,10" stroke="#4caf50" stroke-width="2" fill="none">
        <animate attributeName="d" values="M250,5 Q270,0 290,15 Q310,25 330,10;M250,10 Q270,5 290,20 Q310,20 330,15;M250,5 Q270,0 290,15 Q310,25 330,10" dur="2s" repeatCount="indefinite"/>
      </path>
    </g>
    
    <!-- Channel 2 -->
    <g transform="translate(0, 70)">
      <rect x="0" y="0" width="100" height="30" class="channel2" rx="5"/>
      <text x="50" y="20" class="block-text">Channel 2</text>
      <text x="120" y="20" class="description">Voice/Data Stream 2</text>
      
      <!-- Sample waveform -->
      <path d="M250,15 Q270,25 290,5 Q310,0 330,20" stroke="#ff9800" stroke-width="2" fill="none">
        <animate attributeName="d" values="M250,15 Q270,25 290,5 Q310,0 330,20;M250,20 Q270,20 290,10 Q310,5 330,25;M250,15 Q270,25 290,5 Q310,0 330,20" dur="2s" repeatCount="indefinite"/>
      </path>
    </g>
    
    <!-- Channel 3 -->
    <g transform="translate(0, 110)">
      <rect x="0" y="0" width="100" height="30" class="channel3" rx="5"/>
      <text x="50" y="20" class="block-text">Channel 3</text>
      <text x="120" y="20" class="description">Voice/Data Stream 3</text>
      
      <!-- Sample waveform -->
      <path d="M250,10 Q270,5 290,20 Q310,15 330,5" stroke="#9c27b0" stroke-width="2" fill="none">
        <animate attributeName="d" values="M250,10 Q270,5 290,20 Q310,15 330,5;M250,15 Q270,10 290,25 Q310,20 330,10;M250,10 Q270,5 290,20 Q310,15 330,5" dur="2s" repeatCount="indefinite"/>
      </path>
    </g>
    
    <!-- Channel 4 -->
    <g transform="translate(0, 150)">
      <rect x="0" y="0" width="100" height="30" class="channel4" rx="5"/>
      <text x="50" y="20" class="block-text">Channel 4</text>
      <text x="120" y="20" class="description">Voice/Data Stream 4</text>
      
      <!-- Sample waveform -->
      <path d="M250,20 Q270,10 290,0 Q310,25 330,15" stroke="#e91e63" stroke-width="2" fill="none">
        <animate attributeName="d" values="M250,20 Q270,10 290,0 Q310,25 330,15;M250,25 Q270,15 290,5 Q310,30 330,20;M250,20 Q270,10 290,0 Q310,25 330,15" dur="2s" repeatCount="indefinite"/>
      </path>
    </g>
    
    <!-- Arrows to multiplexer -->
    <path class="arrow" d="M350,45 L400,130"/>
    <path class="arrow" d="M350,85 L400,130"/>
    <path class="arrow" d="M350,125 L400,130"/>
    <path class="arrow" d="M350,165 L400,130"/>
  </g>
  
  <!-- Multiplexer -->
  <g transform="translate(420, 120)">
    <circle cx="30" cy="30" r="25" class="frame"/>
    <text x="30" y="25" class="block-text">TDM</text>
    <text x="30" y="38" class="block-text">MUX</text>
    <text x="30" y="65" class="axis">Multiplexer</text>
  </g>
  
  <!-- TDM Frame Structure -->
  <g transform="translate(50, 250)">
    <text x="400" y="15" class="section-title" fill="#1976d2">TDM Frame Structure</text>
    
    <!-- Frame boundary -->
    <rect x="0" y="30" width="720" height="80" class="frame" rx="5" opacity="0.3"/>
    <text x="360" y="20" class="label">One Complete Frame</text>
    
    <!-- Frame Sync -->
    <rect x="20" y="40" width="60" height="60" class="sync" rx="3"/>
    <text x="50" y="65" class="block-text">Frame</text>
    <text x="50" y="78" class="block-text">Sync</text>
    <text x="50" y="95" class="block-text">(FS)</text>
    <text x="50" y="125" class="axis">Sync Pattern</text>
    <text x="50" y="137" class="axis">e.g., 11111110</text>
    
    <!-- Time Slot 1 -->
    <rect x="100" y="40" width="120" height="60" class="channel1" rx="3"/>
    <text x="160" y="65" class="block-text">Channel 1</text>
    <text x="160" y="78" class="block-text">Time Slot</text>
    <text x="160" y="95" class="block-text">(8 bits)</text>
    <text x="160" y="125" class="axis">PCM Sample</text>
    <text x="160" y="137" class="axis">from Channel 1</text>
    
    <!-- Time Slot 2 -->
    <rect x="240" y="40" width="120" height="60" class="channel2" rx="3"/>
    <text x="300" y="65" class="block-text">Channel 2</text>
    <text x="300" y="78" class="block-text">Time Slot</text>
    <text x="300" y="95" class="block-text">(8 bits)</text>
    <text x="300" y="125" class="axis">PCM Sample</text>
    <text x="300" y="137" class="axis">from Channel 2</text>
    
    <!-- Time Slot 3 -->
    <rect x="380" y="40" width="120" height="60" class="channel3" rx="3"/>
    <text x="440" y="65" class="block-text">Channel 3</text>
    <text x="440" y="78" class="block-text">Time Slot</text>
    <text x="440" y="95" class="block-text">(8 bits)</text>
    <text x="440" y="125" class="axis">PCM Sample</text>
    <text x="440" y="137" class="axis">from Channel 3</text>
    
    <!-- Time Slot 4 -->
    <rect x="520" y="40" width="120" height="60" class="channel4" rx="3"/>
    <text x="580" y="65" class="block-text">Channel 4</text>
    <text x="580" y="78" class="block-text">Time Slot</text>
    <text x="580" y="95" class="block-text">(8 bits)</text>
    <text x="580" y="125" class="axis">PCM Sample</text>
    <text x="580" y="137" class="axis">from Channel 4</text>
    
    <!-- Next Frame Sync -->
    <rect x="660" y="40" width="40" height="60" class="sync" rx="3"/>
    <text x="680" y="65" class="block-text">FS</text>
    <text x="680" y="78" class="block-text">Next</text>
    <text x="680" y="95" class="block-text">Frame</text>
    
    <!-- Time markers -->
    <g class="time-marker">
      <line x1="20" y1="20" x2="20" y2="150"/>
      <line x1="80" y1="20" x2="80" y2="150"/>
      <line x1="100" y1="20" x2="100" y2="150"/>
      <line x1="220" y1="20" x2="220" y2="150"/>
      <line x1="240" y1="20" x2="240" y2="150"/>
      <line x1="360" y1="20" x2="360" y2="150"/>
      <line x1="380" y1="20" x2="380" y2="150"/>
      <line x1="500" y1="20" x2="500" y2="150"/>
      <line x1="520" y1="20" x2="520" y2="150"/>
      <line x1="640" y1="20" x2="640" y2="150"/>
      <line x1="660" y1="20" x2="660" y2="150"/>
      <line x1="700" y1="20" x2="700" y2="150"/>
    </g>
    
    <!-- Animation showing data flow -->
    <circle r="4" fill="#ff5722" opacity="0.8">
      <animateMotion dur="4s" repeatCount="indefinite">
        <mpath href="#framePath"/>
      </animateMotion>
      <animate attributeName="opacity" values="0.8;0.3;0.8" dur="1s" repeatCount="indefinite"/>
    </circle>
    
    <!-- Path for animation -->
    <path id="framePath" d="M50,30 L160,30 L300,30 L440,30 L580,30 L680,30" style="opacity:0"/>
  </g>
  
  <!-- Timing Diagram -->
  <g transform="translate(50, 400)">
    <text x="400" y="15" class="section-title" fill="#1976d2">TDM Timing and Synchronization</text>
    
    <!-- Time axis -->
    <line x1="30" y1="120" x2="750" y2="120" stroke="black" stroke-width="1"/>
    <text x="760" y="125" class="axis">Time</text>
    
    <!-- Frame periods -->
    <text x="0" y="40" class="axis">Frame 1</text>
    <rect x="30" y="30" width="200" height="15" fill="#e3f2fd" stroke="#1976d2" opacity="0.7"/>
    
    <text x="0" y="70" class="axis">Frame 2</text>
    <rect x="250" y="60" width="200" height="15" fill="#e3f2fd" stroke="#1976d2" opacity="0.7"/>
    
    <text x="0" y="100" class="axis">Frame 3</text>
    <rect x="470" y="90" width="200" height="15" fill="#e3f2fd" stroke="#1976d2" opacity="0.7"/>
    
    <!-- Individual time slots within frames -->
    <g opacity="0.8">
      <!-- Frame 1 slots -->
      <rect x="30" y="30" width="25" height="15" class="sync"/>
      <rect x="55" y="30" width="40" height="15" class="channel1"/>
      <rect x="95" y="30" width="40" height="15" class="channel2"/>
      <rect x="135" y="30" width="40" height="15" class="channel3"/>
      <rect x="175" y="30" width="40" height="15" class="channel4"/>
      <rect x="215" y="30" width="15" height="15" class="sync"/>
      
      <!-- Frame 2 slots -->
      <rect x="250" y="60" width="25" height="15" class="sync"/>
      <rect x="275" y="60" width="40" height="15" class="channel1"/>
      <rect x="315" y="60" width="40" height="15" class="channel2"/>
      <rect x="355" y="60" width="40" height="15" class="channel3"/>
      <rect x="395" y="60" width="40" height="15" class="channel4"/>
      <rect x="435" y="60" width="15" height="15" class="sync"/>
      
      <!-- Frame 3 slots -->
      <rect x="470" y="90" width="25" height="15" class="sync"/>
      <rect x="495" y="90" width="40" height="15" class="channel1"/>
      <rect x="535" y="90" width="40" height="15" class="channel2"/>
      <rect x="575" y="90" width="40" height="15" class="channel3"/>
      <rect x="615" y="90" width="40" height="15" class="channel4"/>
      <rect x="655" y="90" width="15" height="15" class="sync"/>
    </g>
    
    <!-- Labels for time slots -->
    <text x="42" y="25" class="axis">FS</text>
    <text x="75" y="25" class="axis">Ch1</text>
    <text x="115" y="25" class="axis">Ch2</text>
    <text x="155" y="25" class="axis">Ch3</text>
    <text x="195" y="25" class="axis">Ch4</text>
    
    <!-- Frame period indicator -->
    <path d="M30,140 L230,140" stroke="#1976d2" stroke-width="2" marker-end="url(#arrowhead)"/>
    <path d="M230,140 L30,140" stroke="#1976d2" stroke-width="2" marker-end="url(#arrowhead)"/>
    <text x="130" y="155" class="axis">Frame Period = Tf</text>
    
    <!-- Bit rate calculation -->
    <text x="30" y="175" class="description" font-weight="bold">Bit Rate Calculation:</text>
    <text x="30" y="190" class="description">• Frame rate = fs (sampling frequency)</text>
    <text x="30" y="205" class="description">• Bits per frame = (Number of channels × bits per sample) + sync bits</text>
    <text x="30" y="220" class="description">• Total bit rate = Frame rate × Bits per frame</text>
    
    <text x="450" y="175" class="description" font-weight="bold">For 4-channel, 8-bit PCM:</text>
    <text x="450" y="190" class="description">• Frame rate = 8 kHz (voice sampling)</text>
    <text x="450" y="205" class="description">• Bits per frame = 4 × 8 + 8 = 40 bits</text>
    <text x="450" y="220" class="description">• Bit rate = 8 kHz × 40 = 320 kbps</text>
  </g>
  
  <!-- Key Features -->
  <g transform="translate(50, 530)">
    <rect x="0" y="0" width="800" height="60" fill="#f5f5f5" stroke="#666" stroke-width="1" rx="5"/>
    <text x="400" y="20" class="label" font-weight="bold">TDM Frame Key Features</text>
    <text x="20" y="40" class="description">• Frame Sync: Unique bit pattern for frame alignment and timing recovery</text>
    <text x="420" y="40" class="description">• Time Slots: Fixed duration allocated to each channel</text>
    <text x="20" y="55" class="description">• Synchronous Operation: All channels sampled at same rate</text>
    <text x="420" y="55" class="description">• Multiplexing Gain: Multiple channels share transmission medium</text>
  </g>
  
  <!-- Arrow marker definition -->
  <defs>
    <marker id="arrowhead" markerWidth="10" markerHeight="7" refX="9" refY="3.5" orient="auto">
      <polygon points="0 0, 10 3.5, 0 7" fill="#333"/>
    </marker>
  </defs>
</svg>