<svg viewBox="0 0 900 650" xmlns="http://www.w3.org/2000/svg">
  <defs>
    <style>
      .title { font: bold 16px Arial; text-anchor: middle; fill: #2c3e50; }
      .subtitle { font: bold 14px Arial; text-anchor: middle; fill: #34495e; }
      .label { font: 11px Arial; fill: #2c3e50; }
      .axis { stroke: #333; stroke-width: 1; }
      .grid { stroke: #ddd; stroke-width: 0.5; }
      .sawtooth-time { stroke: #3498db; stroke-width: 2; fill: none; }
      .sawtooth-freq { fill: #3498db; stroke: #2980b9; stroke-width: 1; }
      .pulse-time { stroke: #e74c3c; stroke-width: 2; fill: none; }
      .pulse-freq { fill: #e74c3c; stroke: #c0392b; stroke-width: 1; }
      .sinc-curve { stroke: #e74c3c; stroke-width: 2; fill: none; }
      .freq-label { font: 10px Arial; text-anchor: middle; fill: #666; }
      .equation { font: 11px monospace; fill: #8b0000; }
      .harmonic-line { stroke: #27ae60; stroke-width: 1; }
    </style>
  </defs>

  <!-- Title -->
  <text x="450" y="25" class="title">Signal Analysis: Time Domain vs Frequency Domain</text>

  <!-- Sawtooth Signal Section -->
  <g transform="translate(50, 60)">
    <text x="350" y="20" class="subtitle">Sawtooth Signal</text>
    
    <!-- Time Domain -->
    <g transform="translate(0, 40)">
      <text x="150" y="15" class="label">Time Domain</text>
      
      <!-- Axes -->
      <line x1="0" y1="100" x2="300" y2="100" class="axis"/>
      <line x1="0" y1="50" x2="0" y2="150" class="axis"/>
      
      <!-- Grid lines -->
      <line x1="75" y1="50" x2="75" y2="150" class="grid"/>
      <line x1="150" y1="50" x2="150" y2="150" class="grid"/>
      <line x1="225" y1="50" x2="225" y2="150" class="grid"/>
      
      <!-- Sawtooth waveform -->
      <path d="M0,100 L75,60 L75,100 L150,60 L150,100 L225,60 L225,100 L300,60" class="sawtooth-time">
        <animate attributeName="d" 
          values="M0,100 L75,60 L75,100 L150,60 L150,100 L225,60 L225,100 L300,60;
                  M0,100 L75,70 L75,100 L150,70 L150,100 L225,70 L225,100 L300,70;
                  M0,100 L75,60 L75,100 L150,60 L150,100 L225,60 L225,100 L300,60"
          dur="3s" repeatCount="indefinite"/>
      </path>
      
      <!-- Time period markers -->
      <path d="M0,170 L75,170" stroke="#666" stroke-width="1" marker-end="url(#arrow)"/>
      <path d="M75,170 L0,170" stroke="#666" stroke-width="1" marker-end="url(#arrow)"/>
      <text x="37.5" y="185" class="freq-label">T</text>
      
      <path d="M75,170 L150,170" stroke="#666" stroke-width="1" marker-end="url(#arrow)"/>
      <path d="M150,170 L75,170" stroke="#666" stroke-width="1" marker-end="url(#arrow)"/>
      <text x="112.5" y="185" class="freq-label">T</text>
      
      <!-- Labels -->
      <text x="310" y="105" class="label">t</text>
      <text x="-15" y="55" class="label">A</text>
      <text x="-15" y="105" class="label">0</text>
      <text x="-15" y="155" class="label">-A</text>
      
      <!-- Equation -->
      <text x="150" y="210" class="equation" text-anchor="middle">x(t) = (A/T)t for 0 ≤ t ≤ T</text>
    </g>
    
    <!-- Frequency Domain -->
    <g transform="translate(400, 40)">
      <text x="150" y="15" class="label">Frequency Domain</text>
      
      <!-- Axes -->
      <line x1="0" y1="100" x2="300" y2="100" class="axis"/>
      <line x1="0" y1="50" x2="0" y2="150" class="axis"/>
      
      <!-- Fundamental and harmonic frequency markers -->
      <line x1="30" y1="100" x2="30" y2="150" class="grid"/>
      <line x1="60" y1="100" x2="60" y2="150" class="grid"/>
      <line x1="90" y1="100" x2="90" y2="150" class="grid"/>
      <line x1="120" y1="100" x2="120" y2="150" class="grid"/>
      <line x1="150" y1="100" x2="150" y2="150" class="grid"/>
      
      <!-- Frequency spectrum (decreasing harmonics) -->
      <rect x="28" y="60" width="4" height="40" class="sawtooth-freq">
        <animate attributeName="height" values="40;45;40" dur="2s" repeatCount="indefinite"/>
        <animate attributeName="y" values="60;55;60" dur="2s" repeatCount="indefinite"/>
      </rect>
      
      <rect x="58" y="80" width="4" height="20" class="sawtooth-freq">
        <animate attributeName="height" values="20;25;20" dur="2s" repeatCount="indefinite"/>
        <animate attributeName="y" values="80;75;80" dur="2s" repeatCount="indefinite"/>
      </rect>
      
      <rect x="88" y="87" width="4" height="13" class="sawtooth-freq">
        <animate attributeName="height" values="13;18;13" dur="2s" repeatCount="indefinite"/>
        <animate attributeName="y" values="87;82;87" dur="2s" repeatCount="indefinite"/>
      </rect>
      
      <rect x="118" y="90" width="4" height="10" class="sawtooth-freq">
        <animate attributeName="height" values="10;15;10" dur="2s" repeatCount="indefinite"/>
        <animate attributeName="y" values="90;85;90" dur="2s" repeatCount="indefinite"/>
      </rect>
      
      <rect x="148" y="92" width="4" height="8" class="sawtooth-freq">
        <animate attributeName="height" values="8;13;8" dur="2s" repeatCount="indefinite"/>
        <animate attributeName="y" values="92;87;92" dur="2s" repeatCount="indefinite"/>
      </rect>
      
      <rect x="178" y="94" width="4" height="6" class="sawtooth-freq"/>
      <rect x="208" y="95" width="4" height="5" class="sawtooth-freq"/>
      <rect x="238" y="96" width="4" height="4" class="sawtooth-freq"/>
      
      <!-- Frequency labels -->
      <text x="30" y="165" class="freq-label">f₀</text>
      <text x="60" y="165" class="freq-label">2f₀</text>
      <text x="90" y="165" class="freq-label">3f₀</text>
      <text x="120" y="165" class="freq-label">4f₀</text>
      <text x="150" y="165" class="freq-label">5f₀</text>
      
      <!-- Envelope curve showing 1/n decay -->
      <path d="M30,60 Q60,70 90,80 Q120,85 150,90 Q180,93 210,95 Q240,96 270,97" stroke="#27ae60" stroke-width="1" stroke-dasharray="3,3" fill="none"/>
      
      <!-- Labels -->
      <text x="310" y="105" class="label">f</text>
      <text x="-15" y="55" class="label">|X(f)|</text>
      
      <!-- Equation -->
      <text x="150" y="190" class="equation" text-anchor="middle">X(nf₀) = A/(2πn) for n = 1,2,3...</text>
      <text x="150" y="210" class="equation" text-anchor="middle">Amplitude ∝ 1/n (decreasing harmonics)</text>
    </g>
  </g>

  <!-- Pulse Signal Section -->
  <g transform="translate(50, 320)">
    <text x="350" y="20" class="subtitle">Pulse Signal</text>
    
    <!-- Time Domain -->
    <g transform="translate(0, 40)">
      <text x="150" y="15" class="label">Time Domain</text>
      
      <!-- Axes -->
      <line x1="0" y1="100" x2="300" y2="100" class="axis"/>
      <line x1="0" y1="50" x2="0" y2="150" class="axis"/>
      
      <!-- Grid lines for period -->
      <line x1="60" y1="50" x2="60" y2="150" class="grid"/>
      <line x1="120" y1="50" x2="120" y2="150" class="grid"/>
      <line x1="180" y1="50" x2="180" y2="150" class="grid"/>
      <line x1="240" y1="50" x2="240" y2="150" class="grid"/>
      
      <!-- Pulse waveform -->
      <path d="M0,100 L0,100 L20,100 L20,60 L40,60 L40,100 L60,100 L80,100 L80,60 L100,60 L100,100 L120,100 L140,100 L140,60 L160,60 L160,100 L180,100 L200,100 L200,60 L220,60 L220,100 L240,100 L260,100 L260,60 L280,60 L280,100 L300,100" class="pulse-time">
        <animate attributeName="d" 
          values="M0,100 L0,100 L20,100 L20,60 L40,60 L40,100 L60,100 L80,100 L80,60 L100,60 L100,100 L120,100 L140,100 L140,60 L160,60 L160,100 L180,100 L200,100 L200,60 L220,60 L220,100 L240,100 L260,100 L260,60 L280,60 L280,100 L300,100;
                  M0,100 L0,100 L20,100 L20,70 L40,70 L40,100 L60,100 L80,100 L80,70 L100,70 L100,100 L120,100 L140,100 L140,70 L160,70 L160,100 L180,100 L200,100 L200,70 L220,70 L220,100 L240,100 L260,100 L260,70 L280,70 L280,100 L300,100;
                  M0,100 L0,100 L20,100 L20,60 L40,60 L40,100 L60,100 L80,100 L80,60 L100,60 L100,100 L120,100 L140,100 L140,60 L160,60 L160,100 L180,100 L200,100 L200,60 L220,60 L220,100 L240,100 L260,100 L260,60 L280,60 L280,100 L300,100"
          dur="2s" repeatCount="indefinite"/>
      </path>
      
      <!-- Pulse width and period markers -->
      <path d="M20,170 L40,170" stroke="#666" stroke-width="1" marker-end="url(#arrow)"/>
      <path d="M40,170 L20,170" stroke="#666" stroke-width="1" marker-end="url(#arrow)"/>
      <text x="30" y="185" class="freq-label">τ</text>
      
      <path d="M20,190 L80,190" stroke="#666" stroke-width="1" marker-end="url(#arrow)"/>
      <path d="M80,190 L20,190" stroke="#666" stroke-width="1" marker-end="url(#arrow)"/>
      <text x="50" y="205" class="freq-label">T</text>
      
      <!-- Labels -->
      <text x="310" y="105" class="label">t</text>
      <text x="-15" y="65" class="label">A</text>
      <text x="-15" y="105" class="label">0</text>
      
      <!-- Duty cycle -->
      <text x="150" y="230" class="equation" text-anchor="middle">Duty Cycle = τ/T</text>
    </g>
    
    <!-- Frequency Domain -->
    <g transform="translate(400, 40)">
      <text x="150" y="15" class="label">Frequency Domain (Sinc Function)</text>
      
      <!-- Axes -->
      <line x1="0" y1="100" x2="300" y2="100" class="axis"/>
      <line x1="0" y1="50" x2="0" y2="150" class="axis"/>
      
      <!-- Frequency markers -->
      <line x1="75" y1="100" x2="75" y2="150" class="grid"/>
      <line x1="150" y1="100" x2="150" y2="150" class="grid"/>
      <line x1="225" y1="100" x2="225" y2="150" class="grid"/>
      
      <!-- Sinc function main lobe and side lobes -->
      <path d="M0,70 Q37.5,60 75,100 Q112.5,120 150,100 Q187.5,90 225,100 Q262.5,105 300,100" class="sinc-curve">
        <animate attributeName="d" 
          values="M0,70 Q37.5,60 75,100 Q112.5,120 150,100 Q187.5,90 225,100 Q262.5,105 300,100;
                  M0,65 Q37.5,55 75,100 Q112.5,125 150,100 Q187.5,85 225,100 Q262.5,107 300,100;
                  M0,70 Q37.5,60 75,100 Q112.5,120 150,100 Q187.5,90 225,100 Q262.5,105 300,100"
          dur="3s" repeatCount="indefinite"/>
      </path>
      
      <!-- Discrete spectrum lines for periodic pulse train -->
      <rect x="0" y="70" width="2" height="30" class="pulse-freq"/>
      <rect x="15" y="72" width="2" height="28" class="pulse-freq"/>
      <rect x="30" y="75" width="2" height="25" class="pulse-freq"/>
      <rect x="45" y="78" width="2" height="22" class="pulse-freq"/>
      <rect x="60" y="82" width="2" height="18" class="pulse-freq"/>
      <rect x="75" y="100" width="2" height="0" class="pulse-freq"/>
      <rect x="90" y="88" width="2" height="12" class="pulse-freq"/>
      <rect x="105" y="85" width="2" height="15" class="pulse-freq"/>
      <rect x="120" y="90" width="2" height="10" class="pulse-freq"/>
      <rect x="135" y="92" width="2" height="8" class="pulse-freq"/>
      <rect x="150" y="100" width="2" height="0" class="pulse-freq"/>
      <rect x="165" y="93" width="2" height="7" class="pulse-freq"/>
      <rect x="180" y="91" width="2" height="9" class="pulse-freq"/>
      <rect x="195" y="94" width="2" height="6" class="pulse-freq"/>
      <rect x="210" y="95" width="2" height="5" class="pulse-freq"/>
      <rect x="225" y="100" width="2" height="0" class="pulse-freq"/>
      
      <!-- Frequency labels -->
      <text x="75" y="165" class="freq-label">1/τ</text>
      <text x="150" y="165" class="freq-label">2/τ</text>
      <text x="225" y="165" class="freq-label">3/τ</text>
      <text x="15" y="165" class="freq-label">1/T</text>
      
      <!-- Nulls indication -->
      <circle cx="75" cy="100" r="3" fill="#e74c3c"/>
      <circle cx="150" cy="100" r="3" fill="#e74c3c"/>
      <circle cx="225" cy="100" r="3" fill="#e74c3c"/>
      <text x="75" y="180" class="freq-label">Nulls at n/τ</text>
      
      <!-- Labels -->
      <text x="310" y="105" class="label">f</text>
      <text x="-15" y="55" class="label">|X(f)|</text>
      
      <!-- Equation -->
      <text x="150" y="190" class="equation" text-anchor="middle">X(f) = Aτ · sinc(πfτ)</text>
      <text x="150" y="210" class="equation" text-anchor="middle">sinc(x) = sin(x)/x</text>
      <text x="150" y="230" class="equation" text-anchor="middle">Main lobe width = 2/τ</text>
    </g>
  </g>

  <!-- Key Differences Summary -->
  <g transform="translate(50, 580)">
    <text x="400" y="15" class="subtitle">Key Spectral Characteristics</text>
    
    <g transform="translate(0, 30)">
      <rect x="0" y="0" width="800" height="40" fill="#f8f9fa" stroke="#dee2e6" stroke-width="1"/>
      
      <!-- Sawtooth -->
      <circle cx="50" cy="20" r="8" fill="#3498db"/>
      <text x="70" y="15" class="label">Sawtooth: Harmonic spectrum with 1/n amplitude decay</text>
      <text x="70" y="30" class="freq-label">• Rich in harmonics • Sharp transitions → High frequency content</text>
      
      <!-- Pulse -->
      <circle cx="450" cy="20" r="8" fill="#e74c3c"/>
      <text x="470" y="15" class="label">Pulse: Sinc spectrum with nulls at multiples of 1/τ</text>
      <text x="470" y="30" class="freq-label">• Bandwidth inversely proportional to pulse width • Main lobe = 2/τ</text>
    </g>
  </g>

  <!-- Arrow marker definition -->
  <defs>
    <marker id="arrow" markerWidth="6" markerHeight="4" refX="5" refY="2" orient="auto">
      <polygon points="0 0, 6 2, 0 4" fill="#666"/>
    </marker>
  </defs>
</svg>
      