<svg viewBox="0 0 800 600" xmlns="http://www.w3.org/2000/svg">
  <defs>
    <style>
      .title { font: bold 16px Arial; text-anchor: middle; fill: #2c3e50; }
      .subtitle { font: bold 14px Arial; text-anchor: middle; fill: #34495e; }
      .label { font: 12px Arial; fill: #2c3e50; }
      .equation { font: 12px monospace; fill: #8b0000; }
      .grid { stroke: #ddd; stroke-width: 0.5; }
      .axis { stroke: #333; stroke-width: 2; }
      .carrier { stroke: #e74c3c; stroke-width: 1.5; fill: none; }
      .message { stroke: #3498db; stroke-width: 2; fill: none; }
      .modulated { stroke: #27ae60; stroke-width: 2; fill: none; }
      .spectrum { fill: #9b59b6; stroke: #8e44ad; stroke-width: 1; }
      .freq-label { font: 10px Arial; text-anchor: middle; fill: #666; }
    </style>
    
    <!-- Animation for signal flow -->
    <animate id="signalFlow" attributeName="opacity" values="0.3;1;0.3" dur="2s" repeatCount="indefinite"/>
  </defs>

  <!-- Title -->
  <text x="400" y="25" class="title">Amplitude Modulation - Waveforms and Frequency Spectrum</text>

  <!-- Waveform Section -->
  <text x="200" y="55" class="subtitle">Time Domain Waveforms</text>
  
  <!-- Message Signal -->
  <g transform="translate(50, 80)">
    <text x="0" y="15" class="label">Message Signal: m(t) = A_m cos(ω_m t)</text>
    <line x1="0" y1="30" x2="300" y2="30" class="axis"/>
    <line x1="0" y1="10" x2="0" y2="50" class="axis"/>
    
    <!-- Message sine wave -->
    <path d="M0,30 Q37.5,10 75,30 T150,30 T225,30 T300,30" class="message">
      <animate attributeName="d" 
        values="M0,30 Q37.5,10 75,30 T150,30 T225,30 T300,30;
                M0,30 Q37.5,50 75,30 T150,30 T225,30 T300,30;
                M0,30 Q37.5,10 75,30 T150,30 T225,30 T300,30"
        dur="3s" repeatCount="indefinite"/>
    </path>
    
    <text x="310" y="35" class="label">t</text>
    <text x="-15" y="15" class="label">A_m</text>
    <text x="-20" y="50" class="label">-A_m</text>
  </g>

  <!-- Carrier Signal -->
  <g transform="translate(450, 80)">
    <text x="0" y="15" class="label">Carrier Signal: c(t) = A_c cos(ω_c t)</text>
    <line x1="0" y1="30" x2="300" y2="30" class="axis"/>
    <line x1="0" y1="10" x2="0" y2="50" class="axis"/>
    
    <!-- High frequency carrier -->
    <path d="M0,30 C5,10 10,50 15,30 C20,10 25,50 30,30 C35,10 40,50 45,30 C50,10 55,50 60,30 C65,10 70,50 75,30 C80,10 85,50 90,30 C95,10 100,50 105,30 C110,10 115,50 120,30 C125,10 130,50 135,30 C140,10 145,50 150,30 C155,10 160,50 165,30 C170,10 175,50 180,30 C185,10 190,50 195,30 C200,10 205,50 210,30 C215,10 220,50 225,30 C230,10 235,50 240,30 C245,10 250,50 255,30 C260,10 265,50 270,30 C275,10 280,50 285,30 C290,10 295,50 300,30" class="carrier">
      <animateTransform attributeName="transform" type="translate" 
        values="0,0; -15,0; 0,0" dur="1s" repeatCount="indefinite"/>
    </path>
    
    <text x="310" y="35" class="label">t</text>
    <text x="-15" y="15" class="label">A_c</text>
  </g>

  <!-- AM Modulated Signal -->
  <g transform="translate(50, 180)">
    <text x="0" y="15" class="label">AM Signal: s(t) = A_c[1 + μ cos(ω_m t)]cos(ω_c t)</text>
    <line x1="0" y1="60" x2="600" y2="60" class="axis"/>
    <line x1="0" y1="20" x2="0" y2="100" class="axis"/>
    
    <!-- Envelope (upper) -->
    <path d="M0,60 Q75,30 150,60 T300,60 T450,60 T600,60" stroke="#3498db" stroke-width="1" stroke-dasharray="3,3" fill="none"/>
    
    <!-- Envelope (lower) -->
    <path d="M0,60 Q75,90 150,60 T300,60 T450,60 T600,60" stroke="#3498db" stroke-width="1" stroke-dasharray="3,3" fill="none"/>
    
    <!-- AM carrier with envelope -->
    <path class="modulated" fill="none">
      <animate attributeName="d" 
        values="M0,60 C15,45 30,75 45,60 C60,45 75,75 90,60 C105,30 120,90 135,60 C150,30 165,90 180,60 C195,45 210,75 225,60 C240,45 255,75 270,60 C285,45 300,75 315,60 C330,45 345,75 360,60 C375,30 390,90 405,60 C420,30 435,90 450,60 C465,45 480,75 495,60 C510,45 525,75 540,60 C555,45 570,75 585,60 C600,45 615,75 630,60;
                M0,60 C15,75 30,45 45,60 C60,75 75,45 90,60 C105,90 120,30 135,60 C150,90 165,30 180,60 C195,75 210,45 225,60 C240,75 255,45 270,60 C285,75 300,45 315,60 C330,75 345,45 360,60 C375,90 390,30 405,60 C420,90 435,30 450,60 C465,75 480,45 495,60 C510,75 525,45 540,60 C555,75 570,45 585,60 C600,75 615,45 630,60;
                M0,60 C15,45 30,75 45,60 C60,45 75,75 90,60 C105,30 120,90 135,60 C150,30 165,90 180,60 C195,45 210,75 225,60 C240,45 255,75 270,60 C285,45 300,75 315,60 C330,45 345,75 360,60 C375,30 390,90 405,60 C420,30 435,90 450,60 C465,45 480,75 495,60 C510,45 525,75 540,60 C555,45 570,45 585,60 C600,45 615,75 630,60"
        dur="4s" repeatCount="indefinite"/>
    </path>
    
    <text x="610" y="65" class="label">t</text>
    <text x="-25" y="35" class="label">A_c(1+μ)</text>
    <text x="-25" y="95" class="label">A_c(1-μ)</text>
    
    <!-- Modulation index indicator -->
    <text x="200" y="15" class="equation">μ = A_m/A_c (Modulation Index)</text>
  </g>

  <!-- Frequency Spectrum Section -->
  <g transform="translate(50, 320)">
    <text x="300" y="15" class="subtitle">DSBFC AM Frequency Spectrum</text>
    
    <!-- Frequency axis -->
    <line x1="0" y1="150" x2="600" y2="150" class="axis"/>
    <line x1="0" y1="50" x2="0" y2="160" class="axis"/>
    
    <!-- LSB -->
    <rect x="200" y="100" width="20" height="50" class="spectrum">
      <animate attributeName="height" values="50;60;50" dur="2s" repeatCount="indefinite"/>
      <animate attributeName="y" values="100;95;100" dur="2s" repeatCount="indefinite"/>
    </rect>
    <text x="210" y="170" class="freq-label">f_c - f_m</text>
    <text x="210" y="185" class="freq-label">LSB</text>
    
    <!-- Carrier -->
    <rect x="290" y="50" width="20" height="100" class="spectrum">
      <animate attributeName="height" values="100;110;100" dur="2s" repeatCount="indefinite"/>
      <animate attributeName="y" values="50;45;50" dur="2s" repeatCount="indefinite"/>
    </rect>
    <text x="300" y="170" class="freq-label">f_c</text>
    <text x="295" y="185" class="freq-label">Carrier</text>
    
    <!-- USB -->
    <rect x="380" y="100" width="20" height="50" class="spectrum">
      <animate attributeName="height" values="50;60;50" dur="2s" repeatCount="indefinite"/>
      <animate attributeName="y" values="100;95;100" dur="2s" repeatCount="indefinite"/>
    </rect>
    <text x="390" y="170" class="freq-label">f_c + f_m</text>
    <text x="390" y="185" class="freq-label">USB</text>
    
    <!-- Frequency labels -->
    <text x="610" y="155" class="label">f</text>
    <text x="-15" y="50" class="label">Amplitude</text>
    
    <!-- Bandwidth indication -->
    <path d="M200,40 L400,40" stroke="#e74c3c" stroke-width="2" marker-end="url(#arrow)"/>
    <path d="M400,40 L200,40" stroke="#e74c3c" stroke-width="2" marker-end="url(#arrow)"/>
    <text x="300" y="35" class="label" text-anchor="middle">Bandwidth = 2f_m</text>
  </g>

  <!-- Mathematical Equations -->
  <g transform="translate(50, 500)">
    <text x="0" y="20" class="equation">s(t) = A_c cos(ω_c t) + (μA_c/2)cos[(ω_c + ω_m)t] + (μA_c/2)cos[(ω_c - ω_m)t]</text>
    <text x="0" y="40" class="equation">     ← Carrier →      ← Upper Sideband →        ← Lower Sideband →</text>
    <text x="0" y="65" class="label">Power Distribution: P_carrier = A_c²/2, P_sideband = μ²A_c²/8 each</text>
  </g>

  <!-- Arrow marker definition -->
  <defs>
    <marker id="arrow" markerWidth="10" markerHeight="7" refX="9" refY="3.5" orient="auto">
      <polygon points="0 0, 10 3.5, 0 7" fill="#e74c3c"/>
    </marker>
  </defs>
</svg>