<svg viewBox="0 0 800 500" xmlns="http://www.w3.org/2000/svg">
  <!-- Background -->
  <rect width="800" height="500" fill="#f8f9fa"/>
  
  <!-- Title -->
  <text x="400" y="25" text-anchor="middle" font-family="Arial, sans-serif" font-size="18" font-weight="bold" fill="#2c3e50">
    Envelope Detector Circuit Operation
  </text>
  
  <!-- Circuit Diagram -->
  <g transform="translate(50, 50)">
    <!-- Input AM signal -->
    <g transform="translate(0, 100)">
      <text x="0" y="-10" font-family="Arial, sans-serif" font-size="12" fill="#e74c3c" font-weight="bold">AM Input</text>
      
      <!-- AM waveform with animated envelope -->
      <g>
        <!-- Carrier with animation -->
        <path id="carrier" d="M 0 0" stroke="#3498db" stroke-width="1.5" fill="none">
          <animate attributeName="d" 
                   values="M 0 0 L 5 -8 L 10 0 L 15 8 L 20 0 L 25 -12 L 30 0 L 35 12 L 40 0 L 45 -15 L 50 0 L 55 15 L 60 0 L 65 -18 L 70 0 L 75 18 L 80 0 L 85 -15 L 90 0 L 95 15 L 100 0 L 105 -12 L 110 0 L 115 12 L 120 0 L 125 -8 L 130 0 L 135 8 L 140 0;
                          M 0 0 L 5 8 L 10 0 L 15 -8 L 20 0 L 25 12 L 30 0 L 35 -12 L 40 0 L 45 15 L 50 0 L 55 -15 L 60 0 L 65 18 L 70 0 L 75 -18 L 80 0 L 85 15 L 90 0 L 95 -15 L 100 0 L 105 12 L 110 0 L 115 -12 L 120 0 L 125 8 L 130 0 L 135 -8 L 140 0"
                   dur="2s" repeatCount="indefinite"/>
        </path>
        
        <!-- Envelope -->
        <path d="M 0 0 Q 17.5 -9 35 0 Q 52.5 -13.5 70 0 Q 87.5 -13.5 105 0 Q 122.5 -9 140 0" 
              stroke="#e74c3c" stroke-width="2" fill="none" stroke-dasharray="4,4"/>
        <path d="M 0 0 Q 17.5 9 35 0 Q 52.5 13.5 70 0 Q 87.5 13.5 105 0 Q 122.5 9 140 0" 
              stroke="#e74c3c" stroke-width="2" fill="none" stroke-dasharray="4,4"/>
      </g>
    </g>
    
    <!-- Diode -->
    <g transform="translate(180, 100)">
      <!-- Diode symbol -->
      <g stroke="#2c3e50" stroke-width="2" fill="#2c3e50">
        <polygon points="0,0 12,6 0,12"/>
        <line x1="12" y1="0" x2="12" y2="12"/>
      </g>
      <text x="6" y="-8" text-anchor="middle" font-family="Arial, sans-serif" font-size="10" fill="#2c3e50">D</text>
    </g>
    
    <!-- RC Circuit -->
    <g transform="translate(220, 100)">
      <!-- Resistor -->
      <g stroke="#2c3e50" stroke-width="2" fill="none">
        <path d="M 0 6 L 8 6 L 12 0 L 20 12 L 28 0 L 36 12 L 44 0 L 48 6 L 56 6"/>
      </g>
      <text x="28" y="-8" text-anchor="middle" font-family="Arial, sans-serif" font-size="10" fill="#2c3e50">R</text>
      
      <!-- Capacitor -->
      <g transform="translate(80, 0)" stroke="#2c3e50" stroke-width="2">
        <line x1="0" y1="0" x2="0" y2="12"/>
        <line x1="6" y1="0" x2="6" y2="12"/>
        <line x1="0" y1="6" x2="-10" y2="6"/>
        <line x1="6" y1="6" x2="16" y2="6"/>
      </g>
      <text x="83" y="-8" text-anchor="middle" font-family="Arial, sans-serif" font-size="10" fill="#2c3e50">C</text>
    </g>
    
    <!-- Output -->
    <g transform="translate(350, 60)">
      <text x="0" y="0" font-family="Arial, sans-serif" font-size="12" fill="#27ae60" font-weight="bold">Envelope Output</text>
      
      <!-- Extracted envelope -->
      <path d="M 0 40 Q 17.5 31 35 40 Q 52.5 26.5 70 40 Q 87.5 26.5 105 40 Q 122.5 31 140 40" 
            stroke="#27ae60" stroke-width="3" fill="none"/>
      
      <!-- Small ripple -->
      <g stroke="#f39c12" stroke-width="1" fill="none">
        <path d="M 5 36 L 7 35 L 9 36 L 11 35 L 13 36"/>
        <path d="M 25 32 L 27 31 L 29 32 L 31 31 L 33 32"/>
        <path d="M 45 33 L 47 32 L 49 33 L 51 32 L 53 33"/>
      </g>
    </g>
    
    <!-- Connection lines -->
    <g stroke="#2c3e50" stroke-width="2">
      <!-- Input to diode -->
      <line x1="140" y1="100" x2="180" y2="100"/>
      
      <!-- Diode to RC -->
      <line x1="192" y1="106" x2="220" y2="106"/>
      
      <!-- RC output -->
      <line x1="276" y1="106" x2="300" y2="106"/>
      <line x1="300" y1="106" x2="300" y2="100"/>
      <line x1="300" y1="100" x2="350" y2="100"/>
      
      <!-- Ground connections -->
      <line x1="220" y1="130" x2="320" y2="130"/>
      <line x1="276" y1="112" x2="276" y2="130"/>
      <line x1="306" y1="112" x2="306" y2="130"/>
      
      <!-- Ground symbol -->
      <g transform="translate(270, 130)">
        <line x1="0" y1="0" x2="0" y2="8"/>
        <line x1="-8" y1="8" x2="8" y2="8"/>
        <line x1="-5" y1="12" x2="5" y2="12"/>
        <line x1="-2" y1="16" x2="2" y2="16"/>
      </g>
    </g>
  </g>
  
  <!-- Signal processing visualization -->
  <g transform="translate(50, 250)">
    <!-- Step 1: Rectification -->
    <g>
      <text x="0" y="0" font-family="Arial, sans-serif" font-size="11" font-weight="bold" fill="#3498db">1. Rectification</text>
      
      <!-- Input AM -->
      <g transform="translate(0, 10)">
        <path d="M 0 20 Q 12.5 5 25 20 T 50 20 T 75 20 T 100 20" stroke="#3498db" stroke-width="1" fill="none"/>
        <path d="M 0 20 Q 12.5 35 25 20 T 50 20 T 75 20 T 100 20" stroke="#3498db" stroke-width="1" fill="none"/>
        
        <!-- Carrier -->
        <g stroke="#3498db" stroke-width="1" fill="none" opacity="0.7">
          <path d="M 0 20 L 2 15 L 4 20 L 6 25 L 8 20 L 10 12 L 12 20 L 14 28 L 16 20 L 18 10 L 20 20 L 22 30 L 24 20 L 26 12 L 28 20 L 30 28 L 32 20 L 34 15 L 36 20 L 38 25 L 40 20"/>
        </g>
      </g>
      
      <text x="50" y="60" text-anchor="middle" font-family="Arial, sans-serif" font-size="8" fill="#666">↓</text>
      
      <!-- Rectified output -->
      <g transform="translate(0, 70)">
        <path d="M 0 20 Q 12.5 5 25 20 T 50 20 T 75 20 T 100 20" stroke="#e74c3c" stroke-width="2" fill="none"/>
        <!-- Only positive half -->
        <g stroke="#e74c3c" stroke-width="1" fill="none">
          <path d="M 0 20 L 2 15 L 4 20 L 6 20 L 8 20 L 10 12 L 12 20 L 14 20 L 16 20 L 18 10 L 20 20 L 22 20 L 24 20 L 26 12 L 28 20 L 30 20 L 32 20 L 34 15 L 36 20 L 38 20 L 40 20"/>
        </g>
      </g>
    </g>
    
    <!-- Step 2: Filtering -->
    <g transform="translate(150, 0)">
      <text x="0" y="0" font-family="Arial, sans-serif" font-size="11" font-weight="bold" fill="#f39c12">2. RC Filtering</text>
      
      <!-- Capacitor charging/discharging -->
      <g transform="translate(0, 10)">
        <!-- Charge curve -->
        <path d="M 0 35 Q 5 30 10 28 Q 15 26 20 25 Q 25 24 30 25 Q 35 26 40 28 Q 45 30 50 35" 
              stroke="#f39c12" stroke-width="2" fill="none"/>
        
        <!-- Discharge curve -->
        <path d="M 10 28 L 12 29 L 14 30 L 16 31 L 18 32 L 20 33" stroke="#e67e22" stroke-width="1" stroke-dasharray="2,2" fill="none"/>
        <path d="M 30 25 L 32 26 L 34 27 L 36 28 L 38 29 L 40 30" stroke="#e67e22" stroke-width="1" stroke-dasharray="2,2" fill="none"/>
        
        <!-- Time constant indicator -->
        <g stroke="#666" stroke-width="1" stroke-dasharray="1,1">
          <line x1="10" y1="40" x2="20" y2="40"/>
          <text x="15" y="48" text-anchor="middle" font-family="Arial, sans-serif" font-size="8" fill="#666">RC</text>
        </g>
      </g>
      
      <text x="25" y="60" text-anchor="middle" font-family="Arial, sans-serif" font-size="8" fill="#666">↓</text>
      
      <!-- Smooth envelope -->
      <g transform="translate(0, 70)">
        <path d="M 0 20 Q 12.5 5 25 20 T 50 20" stroke="#27ae60" stroke-width="3" fill="none"/>
        <!-- Minimal ripple -->
        <g stroke="#f39c12" stroke-width="1" fill="none">
          <path d="M 5 16 L 6 15.5 L 7 16 L 8 15.5 L 9 16"/>
          <path d="M 15 7 L 16 6.5 L 17 7 L 18 6.5 L 19 7"/>
        </g>
      </g>
    </g>
    
    <!-- Time constant relationship -->
    <g transform="translate(300, 30)">
      <rect x="0" y="0" width="180" height="80" fill="#ecf0f1" stroke="#bdc3c7" stroke-width="1" rx="5"/>
      
      <text x="90" y="15" text-anchor="middle" font-family="Arial, sans-serif" font-size="10" font-weight="bold" fill="#2c3e50">
        Critical Condition
      </text>
      
      <text x="90" y="35" text-anchor="middle" font-family="Arial, sans-serif" font-size="12" font-weight="bold" fill="#e74c3c">
        1/ωm &lt; RC &lt; 1/ωc
      </text>
      
      <g font-family="Arial, sans-serif" font-size="9" fill="#34495e">
        <text x="10" y="55">ωm = message frequency</text>
        <text x="10" y="68">ωc = carrier frequency</text>
      </g>
    </g>
  </g>
  
  <!-- Animation indicators -->
  <g transform="translate(600, 100)">
    <circle cx="0" cy="0" r="8" fill="#e74c3c" opacity="0.8">
      <animate attributeName="opacity" values="0.3;1;0.3" dur="1s" repeatCount="indefinite"/>
    </circle>
    <text x="15" y="5" font-family="Arial, sans-serif" font-size="10" fill="#e74c3c">Signal Flow</text>
  </g>
</svg>