<svg viewBox="0 0 1000 700" xmlns="http://www.w3.org/2000/svg">
  <!-- Background -->
  <rect width="1000" height="700" fill="#f8f9fa"/>
  
  <!-- Title -->
  <text x="500" y="25" text-anchor="middle" font-family="Arial, sans-serif" font-size="18" font-weight="bold" fill="#2c3e50">
    Ground Wave vs Space Wave Propagation
  </text>
  
  <!-- Ground Wave Propagation -->
  <g transform="translate(50, 60)">
    <text x="400" y="0" text-anchor="middle" font-family="Arial, sans-serif" font-size="16" font-weight="bold" fill="#e74c3c">
      Ground Wave Propagation (Below 2 MHz)
    </text>
    
    <!-- Earth's surface -->
    <g transform="translate(0, 50)">
      <!-- Earth curvature -->
      <path d="M 0 150 Q 400 130 800 150 L 800 200 L 0 200 Z" fill="#8b4513" stroke="#7f4513" stroke-width="2"/>
      
      <!-- Surface waves following curvature -->
      <g stroke="#e74c3c" stroke-width="3" fill="none">
        <!-- Primary wave path -->
        <path d="M 100 145 Q 200 135 300 140 Q 500 138 700 145">
          <animate attributeName="d" 
                   values="M 100 145 Q 200 135 300 140 Q 500 138 700 145;
                          M 100 145 Q 200 132 300 137 Q 500 135 700 142;
                          M 100 145 Q 200 135 300 140 Q 500 138 700 145"
                   dur="3s" repeatCount="indefinite"/>
        </path>
        
        <!-- Wave animation -->
        <g opacity="0.7">
          <path d="M 150 140 Q 175 135 200 140 T 250 140">
            <animateTransform attributeName="transform" 
                              type="translate" 
                              values="0,0; 550,5; 0,0" 
                              dur="4s" repeatCount="indefinite"/>
          </path>
        </g>
      </g>
      
      <!-- Transmitting antenna -->
      <g transform="translate(100, 120)">
        <line x1="0" y1="0" x2="0" y2="25" stroke="#2c3e50" stroke-width="4"/>
        <circle cx="0" cy="0" r="5" fill="#e74c3c"/>
        <text x="0" y="-15" text-anchor="middle" font-family="Arial, sans-serif" font-size="10" fill="#e74c3c">TX</text>
        
        <!-- Transmission waves -->
        <g stroke="#e74c3c" stroke-width="1.5" fill="none" opacity="0.6">
          <circle cx="0" cy="0" r="15">
            <animate attributeName="r" values="15;40;60" dur="2s" repeatCount="indefinite"/>
            <animate attributeName="opacity" values="0.6;0.2;0" dur="2s" repeatCount="indefinite"/>
          </circle>
          <circle cx="0" cy="0" r="25">
            <animate attributeName="r" values="25;50;70" dur="2s" begin="0.5s" repeatCount="indefinite"/>
            <animate attributeName="opacity" values="0.6;0.2;0" dur="2s" begin="0.5s" repeatCount="indefinite"/>
          </circle>
        </g>
      </g>
      
      <!-- Receiving antenna -->
      <g transform="translate(700, 120)">
        <line x1="0" y1="0" x2="0" y2="25" stroke="#2c3e50" stroke-width="4"/>
        <circle cx="0" cy="0" r="5" fill="#27ae60"/>
        <text x="0" y="-15" text-anchor="middle" font-family="Arial, sans-serif" font-size="10" fill="#27ae60">RX</text>
      </g>
      
      <!-- Distance markers -->
      <g stroke="#666" stroke-width="1" stroke-dasharray="2,2">
        <line x1="100" y1="180" x2="700" y2="180"/>
        <line x1="100" y1="175" x2="100" y2="185"/>
        <line x1="700" y1="175" x2="700" y2="185"/>
      </g>
      <text x="400" y="195" text-anchor="middle" font-family="Arial, sans-serif" font-size="10" fill="#666">
        100-300 km range
      </text>
      
      <!-- Ground characteristics -->
      <g transform="translate(0, 220)">
        <text x="200" y="0" text-anchor="middle" font-family="Arial, sans-serif" font-size="12" font-weight="bold" fill="#8b4513">
          Ground Characteristics Matter
        </text>
        
        <!-- Sea water (good conductor) -->
        <g transform="translate(50, 20)">
          <rect x="0" y="0" width="100" height="20" fill="#4a90e2" opacity="0.7"/>
          <text x="50" y="13" text-anchor="middle" font-family="Arial, sans-serif" font-size="9" fill="white">Sea Water</text>
          <text x="50" y="35" text-anchor="middle" font-family="Arial, sans-serif" font-size="9" fill="#27ae60">Better Propagation</text>
        </g>
        
        <!-- Dry ground (poor conductor) -->
        <g transform="translate(200, 20)">
          <rect x="0" y="0" width="100" height="20" fill="#d2b48c" opacity="0.7"/>
          <text x="50" y="13" text-anchor="middle" font-family="Arial, sans-serif" font-size="9" fill="black">Dry Ground</text>
          <text x="50" y="35" text-anchor="middle" font-family="Arial, sans-serif" font-size="9" fill="#e74c3c">Higher Attenuation</text>
        </g>
      </g>
    </g>
  </g>
  
  <!-- Space Wave Propagation -->
  <g transform="translate(50, 350)">
    <text x="400" y="0" text-anchor="middle" font-family="Arial, sans-serif" font-size="16" font-weight="bold" fill="#3498db">
      Space Wave Propagation (Above 30 MHz)
    </text>
    
    <!-- Earth's surface -->
    <g transform="translate(0, 50)">
      <!-- Earth curvature -->
      <path d="M 0 150 Q 400 130 800 150 L 800 200 L 0 200 Z" fill="#8b4513" stroke="#7f4513" stroke-width="2"/>
      
      <!-- Atmosphere layers -->
      <path d="M 0 100 Q 400 80 800 100" fill="none" stroke="#87ceeb" stroke-width="2" stroke-dasharray="3,3" opacity="0.7"/>
      <text x="400" y="95" text-anchor="middle" font-family="Arial, sans-serif" font-size="9" fill="#87ceeb">Troposphere</text>
      
      <!-- High antenna towers -->
      <g transform="translate(150, 90)">
        <!-- Tower structure -->
        <line x1="0" y1="0" x2="0" y2="60" stroke="#7f8c8d" stroke-width="3"/>
        <g stroke="#7f8c8d" stroke-width="2">
          <line x1="-5" y1="50" x2="5" y2="50"/>
          <line x1="-8" y1="40" x2="8" y2="40"/>
          <line x1="-10" y1="30" x2="10" y2="30"/>
          <line x1="-12" y1="20" x2="12" y2="20"/>
          <line x1="-15" y1="10" x2="15" y2="10"/>
        </g>
        
        <!-- Antenna array -->
        <g stroke="#3498db" stroke-width="3" fill="#3498db">
          <rect x="-8" y="-5" width="16" height="3"/>
          <rect x="-8" y="-10" width="16" height="3"/>
        </g>
        
        <text x="0" y="-20" text-anchor="middle" font-family="Arial, sans-serif" font-size="10" fill="#3498db">TX</text>
        <text x="0" y="75" text-anchor="middle" font-family="Arial, sans-serif" font-size="8" fill="#666">High Tower</text>
      </g>
      
      <!-- Receiving tower -->
      <g transform="translate(650, 110)">
        <line x1="0" y1="0" x2="0" y2="40" stroke="#7f8c8d" stroke-width="3"/>
        <rect x="-6" y="-3" width="12" height="2" fill="#27ae60"/>
        <text x="0" y="-15" text-anchor="middle" font-family="Arial, sans-serif" font-size="10" fill="#27ae60">RX</text>
      </g>
      
      <!-- Direct wave path -->
      <g stroke="#3498db" stroke-width="3" fill="none">
        <path d="M 150 85 L 650 107">
          <animate attributeName="stroke-dasharray" values="0,1000; 1000,0; 0,1000" dur="3s" repeatCount="indefinite"/>
        </path>
      </g>
      <text x="400" y="90" text-anchor="middle" font-family="Arial, sans-serif" font-size="10" fill="#3498db">Direct Wave</text>
      
      <!-- Ground reflected wave -->
      <g stroke="#9b59b6" stroke-width="2" fill="none">
        <path d="M 150 85 Q 400 120 650 107"/>
      </g>
      <text x="400" y="125" text-anchor="middle" font-family="Arial, sans-serif" font-size="10" fill="#9b59b6">Ground Reflected Wave</text>
      
      <!-- Radio horizon -->
      <g stroke="#f39c12" stroke-width="2" stroke-dasharray="5,5">
        <path d="M 150 85 Q 350 70 550 85"/>
      </g>
      <text x="350" y="65" text-anchor="middle" font-family="Arial, sans-serif" font-size="9" fill="#f39c12">Radio Horizon</text>
      
      <!-- Line of sight limit -->
      <g stroke="#e74c3c" stroke-width="1" stroke-dasharray="2,2">
        <line x1="550" y1="85" x2="750" y2="130"/>
      </g>
      <text x="650" y="105" font-family="Arial, sans-serif" font-size="8" fill="#e74c3c">LOS Limit</text>
      
      <!-- Obstacles -->
      <g transform="translate(450, 140)">
        <!-- Building -->
        <rect x="0" y="0" width="30" height="20" fill="#95a5a6"/>
        <rect x="5" y="5" width="8" height="8" fill="#f1c40f"/>
        <rect x="17" y="5" width="8" height="8" fill="#f1c40f"/>
        <text x="15" y="35" text-anchor="middle" font-family="Arial, sans-serif" font-size="8" fill="#666">Obstacle</text>
        
        <!-- Shadow zone -->
        <path d="M 30 10 L 80 30 L 80 20 L 30 0 Z" fill="#34495e" opacity="0.3"/>
        <text x="55" y="40" text-anchor="middle" font-family="Arial, sans-serif" font-size="8" fill="#34495e">Shadow Zone</text>
      </g>
    </g>
  </g>
  
  <!-- Comparison Table -->
  <g transform="translate(50, 580)">
    <rect x="0" y="0" width="900" height="100" fill="#ecf0f1" stroke="#bdc3c7" stroke-width="2" rx="10"/>
    
    <text x="450" y="20" text-anchor="middle" font-family="Arial, sans-serif" font-size="14" font-weight="bold" fill="#2c3e50">
      Propagation Characteristics Comparison
    </text>
    
    <!-- Headers -->
    <g font-family="Arial, sans-serif" font-size="11" font-weight="bold">
      <text x="20" y="40" fill="#2c3e50">Parameter</text>
      <text x="200" y="40" fill="#e74c3c">Ground Wave</text>
      <text x="500" y="40" fill="#3498db">Space Wave</text>
    </g>
    
    <!-- Content -->
    <g font-family="Arial, sans-serif" font-size="10" fill="#34495e">
      <text x="20" y="55" font-weight="bold">Frequency Range</text>
      <text x="200" y="55">Below 2 MHz (LF, MF)</text>
      <text x="500" y="55">Above 30 MHz (VHF, UHF, SHF)</text>
      
      <text x="20" y="70" font-weight="bold">Propagation Path</text>
      <text x="200" y="70">Follows earth's curvature</text>
      <text x="500" y="70">Line-of-sight + ground reflection</text>
      
      <text x="20" y="85" font-weight="bold">Range</text>
      <text x="200" y="85">100-300 km (ground dependent)</text>
      <text x="500" y="85">Limited by antenna height: d = √(2Rh)</text>
      
      <text x="700" y="55" font-weight="bold">Applications</text>
      <text x="700" y="70">AM radio, navigation</text>
      <text x="700" y="85">TV, FM, microwave links</text>
    </g>
  </g>
</svg>