<svg viewBox="0 0 1000 700" xmlns="http://www.w3.org/2000/svg">
  <!-- Background -->
  <rect width="1000" height="700" fill="#f8f9fa"/>
  
  <!-- Title -->
  <text x="500" y="25" text-anchor="middle" font-family="Arial, sans-serif" font-size="18" font-weight="bold" fill="#2c3e50">
    Sampling Types: Ideal vs Natural vs Flat-top
  </text>
  
  <!-- Original Signal -->
  <g transform="translate(50, 60)">
    <text x="400" y="0" text-anchor="middle" font-family="Arial, sans-serif" font-size="14" font-weight="bold" fill="#e74c3c">
      Original Continuous Signal m(t)
    </text>
    
    <!-- Time axis -->
    <line x1="0" y1="60" x2="800" y2="60" stroke="#333" stroke-width="2"/>
    <text x="810" y="65" font-family="Arial, sans-serif" font-size="12" fill="#333">t</text>
    
    <!-- Amplitude axis -->
    <line x1="0" y1="20" x2="0" y2="100" stroke="#333" stroke-width="2"/>
    <text x="-15" y="15" font-family="Arial, sans-serif" font-size="12" fill="#333">A</text>
    
    <!-- Continuous sine wave -->
    <path d="M 0 60 Q 50 30 100 60 T 200 60 T 300 60 T 400 60 T 500 60 T 600 60 T 700 60 T 800 60" 
          stroke="#e74c3c" stroke-width="3" fill="none">
      <animate attributeName="d" 
               values="M 0 60 Q 50 30 100 60 T 200 60 T 300 60 T 400 60 T 500 60 T 600 60 T 700 60 T 800 60;
                      M 0 60 Q 50 90 100 60 T 200 60 T 300 60 T 400 60 T 500 60 T 600 60 T 700 60 T 800 60;
                      M 0 60 Q 50 30 100 60 T 200 60 T 300 60 T 400 60 T 500 60 T 600 60 T 700 60 T 800 60"
               dur="4s" repeatCount="indefinite"/>
    </path>
    
    <!-- Sample time markers -->
    <g stroke="#666" stroke-width="1" stroke-dasharray="2,2">
      <line x1="80" y1="105" x2="80" y2="15"/>
      <line x1="160" y1="105" x2="160" y2="15"/>
      <line x1="240" y1="105" x2="240" y2="15"/>
      <line x1="320" y1="105" x2="320" y2="15"/>
      <line x1="400" y1="105" x2="400" y2="15"/>
      <line x1="480" y1="105" x2="480" y2="15"/>
      <line x1="560" y1="105" x2="560" y2="15"/>
      <line x1="640" y1="105" x2="640" y2="15"/>
      <line x1="720" y1="105" x2="720" y2="15"/>
    </g>
    
    <!-- Time labels -->
    <g font-family="Arial, sans-serif" font-size="9" fill="#666">
      <text x="80" y="118" text-anchor="middle">Ts</text>
      <text x="160" y="118" text-anchor="middle">2Ts</text>
      <text x="240" y="118" text-anchor="middle">3Ts</text>
      <text x="320" y="118" text-anchor="middle">4Ts</text>
      <text x="400" y="118" text-anchor="middle">5Ts</text>
      <text x="480" y="118" text-anchor="middle">6Ts</text>
      <text x="560" y="118" text-anchor="middle">7Ts</text>
      <text x="640" y="118" text-anchor="middle">8Ts</text>
      <text x="720" y="118" text-anchor="middle">9Ts</text>
    </g>
  </g>
  
  <!-- Ideal Sampling -->
  <g transform="translate(50, 200)">
    <text x="400" y="0" text-anchor="middle" font-family="Arial, sans-serif" font-size="14" font-weight="bold" fill="#3498db">
      1. Ideal Sampling (Mathematical Concept)
    </text>
    
    <!-- Time axis -->
    <line x1="0" y1="60" x2="800" y2="60" stroke="#333" stroke-width="2"/>
    
    <!-- Ideal impulses (infinite height, zero width) -->
    <g stroke="#3498db" stroke-width="3">
      <line x1="80" y1="60" x2="80" y2="38">
        <animate attributeName="y2" values="38;25;38" dur="4s" repeatCount="indefinite"/>
      </line>
      <line x1="160" y1="60" x2="160" y2="82">
        <animate attributeName="y2" values="82;95;82" dur="4s" repeatCount="indefinite"/>
      </line>
      <line x1="240" y1="60" x2="240" y2="82">
        <animate attributeName="y2" values="82;95;82" dur="4s" repeatCount="indefinite"/>
      </line>
      <line x1="320" y1="60" x2="320" y2="38">
        <animate attributeName="y2" values="38;25;38" dur="4s" repeatCount="indefinite"/>
      </line>
      <line x1="400" y1="60" x2="400" y2="60"/>
      <line x1="480" y1="60" x2="480" y2="38">
        <animate attributeName="y2" values="38;25;38" dur="4s" repeatCount="indefinite"/>
      </line>
      <line x1="560" y1="60" x2="560" y2="82">
        <animate attributeName="y2" values="82;95;82" dur="4s" repeatCount="indefinite"/>
      </line>
      <line x1="640" y1="60" x2="640" y2="82">
        <animate attributeName="y2" values="82;95;82" dur="4s" repeatCount="indefinite"/>
      </line>
      <line x1="720" y1="60" x2="720" y2="38">
        <animate attributeName="y2" values="38;25;38" dur="4s" repeatCount="indefinite"/>
      </line>
    </g>
    
    <!-- Arrow heads for impulses -->
    <g fill="#3498db">
      <polygon points="80,38 77,43 83,43">
        <animate attributeName="points" values="80,38 77,43 83,43;80,25 77,30 83,30;80,38 77,43 83,43" dur="4s" repeatCount="indefinite"/>
      </polygon>
      <polygon points="160,82 157,77 163,77">
        <animate attributeName="points" values="160,82 157,77 163,77;160,95 157,90 163,90;160,82 157,77 163,77" dur="4s" repeatCount="indefinite"/>
      </polygon>
    </g>
    
    <text x="400" y="110" text-anchor="middle" font-family="Arial, sans-serif" font-size="11" fill="#3498db">
      s(t) = m(t) × Σδ(t - nTs) - Zero width, infinite height impulses
    </text>
  </g>
  
  <!-- Natural Sampling -->
  <g transform="translate(50, 340)">
    <text x="400" y="0" text-anchor="middle" font-family="Arial, sans-serif" font-size="14" font-weight="bold" fill="#9b59b6">
      2. Natural Sampling (Practical with Analog Switch)
    </text>
    
    <!-- Time axis -->
    <line x1="0" y1="60" x2="800" y2="60" stroke="#333" stroke-width="2"/>
    
    <!-- Original signal (faded) -->
    <path d="M 0 60 Q 50 30 100 60 T 200 60 T 300 60 T 400 60 T 500 60 T 600 60 T 700 60 T 800 60" 
          stroke="#e74c3c" stroke-width="1" fill="none" opacity="0.3">
      <animate attributeName="d" 
               values="M 0 60 Q 50 30 100 60 T 200 60 T 300 60 T 400 60 T 500 60 T 600 60 T 700 60 T 800 60;
                      M 0 60 Q 50 90 100 60 T 200 60 T 300 60 T 400 60 T 500 60 T 600 60 T 700 60 T 800 60;
                      M 0 60 Q 50 30 100 60 T 200 60 T 300 60 T 400 60 T 500 60 T 600 60 T 700 60 T 800 60"
               dur="4s" repeatCount="indefinite"/>
    </path>
    
    <!-- Sampling pulses (finite width) -->
    <g fill="#9b59b6" stroke="#9b59b6" stroke-width="2">
      <!-- Pulse 1 -->
      <rect x="75" y="38" width="10" height="0">
        <animate attributeName="height" values="0;22;0" dur="4s" repeatCount="indefinite"/>
        <animate attributeName="y" values="60;38;60" dur="4s" repeatCount="indefinite"/>
      </rect>
      
      <!-- Pulse 2 -->
      <rect x="155" y="60" width="10" height="0">
        <animate attributeName="height" values="0;22;0" dur="4s" repeatCount="indefinite"/>
        <animate attributeName="y" values="60;82;60" dur="4s" begin="1s" repeatCount="indefinite"/>
      </rect>
      
      <!-- Pulse 3 -->
      <rect x="235" y="60" width="10" height="0">
        <animate attributeName="height" values="0;22;0" dur="4s" repeatCount="indefinite"/>
        <animate attributeName="y" values="60;82;60" dur="4s" begin="2s" repeatCount="indefinite"/>
      </rect>
      
      <!-- Pulse 4 -->
      <rect x="315" y="38" width="10" height="0">
        <animate attributeName="height" values="0;22;0" dur="4s" repeatCount="indefinite"/>
        <animate attributeName="y" values="60;38;60" dur="4s" begin="3s" repeatCount="indefinite"/>
      </rect>
      
      <!-- Additional pulses -->
      <rect x="395" y="58" width="10" height="4"/>
      <rect x="475" y="38" width="10" height="22"/>
      <rect x="555" y="82" width="10" height="22"/>
      <rect x="635" y="82" width="10" height="22"/>
      <rect x="715" y="38" width="10" height="22"/>
    </g>
    
    <!-- Sampling clock -->
    <g transform="translate(0, -30)" stroke="#f39c12" stroke-width="2" fill="none">
      <path d="M 70 15 L 70 25 L 90 25 L 90 15 L 150 15 L 150 25 L 170 25 L 170 15 L 230 15 L 230 25 L 250 25 L 250 15 L 310 15 L 310 25 L 330 25 L 330 15"/>
    </g>
    <text x="200" y="-10" text-anchor="middle" font-family="Arial, sans-serif" font-size="9" fill="#f39c12">Sampling Clock</text>
    
    <text x="400" y="110" text-anchor="middle" font-family="Arial, sans-serif" font-size="11" fill="#9b59b6">
      s(t) = m(t) × p(t) - Signal modulates pulse train amplitude
    </text>
  </g>
  
  <!-- Flat-top Sampling -->
  <g transform="translate(50, 480)">
    <text x="400" y="0" text-anchor="middle" font-family="Arial, sans-serif" font-size="14" font-weight="bold" fill="#27ae60">
      3. Flat-top Sampling (Sample-and-Hold)
    </text>
    
    <!-- Time axis -->
    <line x1="0" y1="60" x2="800" y2="60" stroke="#333" stroke-width="2"/>
    
    <!-- Original signal (faded) -->
    <path d="M 0 60 Q 50 30 100 60 T 200 60 T 300 60 T 400 60 T 500 60 T 600 60 T 700 60 T 800 60" 
          stroke="#e74c3c" stroke-width="1" fill="none" opacity="0.3">
      <animate attributeName="d" 
               values="M 0 60 Q 50 30 100 60 T 200 60 T 300 60 T 400 60 T 500 60 T 600 60 T 700 60 T 800 60;
                      M 0 60 Q 50 90 100 60 T 200 60 T 300 60 T 400 60 T 500 60 T 600 60 T 700 60 T 800 60;
                      M 0 60 Q 50 30 100 60 T 200 60 T 300 60 T 400 60 T 500 60 T 600 60 T 700 60 T 800 60"
               dur="4s" repeatCount="indefinite"/>
    </path>
    
    <!-- Sample and hold levels -->
    <g fill="#27ae60" stroke="#27ae60" stroke-width="3">
      <!-- Step 1 -->
      <rect x="0" y="38" width="80" height="3">
        <animate attributeName="y" values="38;95;95;38;60;38" dur="4s" repeatCount="indefinite"/>
        <animate attributeName="height" values="3;3;3;3;3;3" dur="4s" repeatCount="indefinite"/>
      </rect>
      
      <!-- Step 2 -->
      <rect x="80" y="82" width="80" height="3">
        <animate attributeName="y" values="82;38;82;60;38;82" dur="4s" repeatCount="indefinite"/>
      </rect>
      
      <!-- Step 3 -->
      <rect x="160" y="82" width="80" height="3">
        <animate attributeName="y" values="82;82;38;82;60;82" dur="4s" repeatCount="indefinite"/>
      </rect>
      
      <!-- Step 4 -->
      <rect x="240" y="38" width="80" height="3">
        <animate attributeName="y" values="38;38;38;60;38;38" dur="4s" repeatCount="indefinite"/>
      </rect>
      
      <!-- Step 5 -->
      <rect x="320" y="60" width="80" height="3"/>
      
      <!-- Step 6 -->
      <rect x="400" y="38" width="80" height="3"/>
      
      <!-- Step 7 -->
      <rect x="480" y="82" width="80" height="3"/>
      
      <!-- Step 8 -->
      <rect x="560" y="82" width="80" height="3"/>
      
      <!-- Step 9 -->
      <rect x="640" y="38" width="80" height="3"/>
    </g>
    
    <!-- Sample points -->
    <g fill="#e74c3c">
      <circle cx="80" cy="38" r="2">
        <animate attributeName="cy" values="38;95;95;38;60;38" dur="4s" repeatCount="indefinite"/>
      </circle>
      <circle cx="160" cy="82" r="2">
        <animate attributeName="cy" values="82;38;82;60;38;82" dur="4s" repeatCount="indefinite"/>
      </circle>
      <circle cx="240" cy="82" r="2">
        <animate attributeName="cy" values="82;82;38;82;60;82" dur="4s" repeatCount="indefinite"/>
      </circle>
      <circle cx="320" cy="38" r="2">
        <animate attributeName="cy" values="38;38;38;60;38;38" dur="4s" repeatCount="indefinite"/>
      </circle>
      <circle cx="400" cy="60" r="2"/>
      <circle cx="480" cy="38" r="2"/>
      <circle cx="560" cy="82" r="2"/>
      <circle cx="640" cy="82" r="2"/>
      <circle cx="720" cy="38" r="2"/>
    </g>
    
    <text x="400" y="110" text-anchor="middle" font-family="Arial, sans-serif" font-size="11" fill="#27ae60">
      s(t) = Σm(nTs)[u(t-nTs) - u(t-(n+1)Ts)] - Holds sampled value until next sample
    </text>
  </g>
  
  <!-- Comparison Table -->
  <g transform="translate(50, 610)">
    <rect x="0" y="0" width="900" height="70" fill="#ecf0f1" stroke="#bdc3c7" stroke-width="2" rx="10"/>
    
    <!-- Headers -->
    <g font-family="Arial, sans-serif" font-size="11" font-weight="bold">
      <text x="20" y="20" fill="#2c3e50">Sampling Type</text>
      <text x="150" y="20" fill="#2c3e50">Implementation</text>
      <text x="350" y="20" fill="#2c3e50">Characteristics</text>
      <text x="650" y="20" fill="#2c3e50">Applications</text>
    </g>
    
    <!-- Content -->
    <g font-family="Arial, sans-serif" font-size="10" fill="#34495e">
      <text x="20" y="35" font-weight="bold" fill="#3498db">Ideal</text>
      <text x="150" y="35">Mathematical model</text>
      <text x="350" y="35">Zero width impulses, perfect reconstruction</text>
      <text x="650" y="35">Theoretical analysis</text>
      
      <text x="20" y="50" font-weight="bold" fill="#9b59b6">Natural</text>
      <text x="150" y="50">Analog switch/multiplier</text>
      <text x="350" y="50">Finite pulse width, good approximation</text>
      <text x="650" y="50">High-speed sampling systems</text>
      
      <text x="20" y="65" font-weight="bold" fill="#27ae60">Flat-top</text>
      <text x="150" y="65">Sample-and-hold circuit</text>
      <text x="350" y="65">Constant level, aperture effect</text>
      <text x="650" y="65">ADC systems, digital processing</text>
    </g>
  </g>
</svg>