<svg viewBox="0 0 800 600" xmlns="http://www.w3.org/2000/svg">
  <defs>
    <style>
      .title { font: bold 16px Arial; text-anchor: middle; }
      .label { font: 12px Arial; text-anchor: middle; }
      .axis { font: 10px Arial; }
      .circuit { stroke: #333; stroke-width: 2; fill: none; }
      .component { fill: #e3f2fd; stroke: #1976d2; stroke-width: 2; }
      .switch { stroke: #f44336; stroke-width: 3; }
      .wave { fill: none; stroke-width: 2; }
      .analog { stroke: #2e7d32; }
      .clock { stroke: #ff6f00; }
      .sampled { stroke: #7b1fa2; stroke-width: 3; }
      .description { font: 11px Arial; }
      .voltage { font: 10px Arial; fill: #d32f2f; }
    </style>
  </defs>

  <!-- Title -->
  <text x="400" y="25" class="title">Sample and Hold Circuit with Waveforms</text>

  <!-- Circuit Diagram -->
  <g transform="translate(50, 50)">
    <text x="200" y="15" class="label">Sample and Hold Circuit</text>

    <!-- Input terminal -->
    <circle cx="30" cy="80" r="3" fill="#333"/>
    <text x="15" y="75" class="axis">Vin</text>

    <!-- Switch (MOSFET) -->
    <g transform="translate(80, 60)">
      <rect x="-5" y="15" width="10" height="30" class="component"/>
      <circle cx="0" cy="30" r="8" fill="none" stroke="#333" stroke-width="1"/>
      <line x1="0" y1="5" x2="0" y2="15" class="switch"/>
      <line x1="0" y1="45" x2="0" y2="55" class="switch"/>
      <text x="15" y="35" class="axis">S</text>

      <!-- Switch control animation -->
      <animateTransform
        attributeName="transform"
        type="rotate"
        values="0 0 30; 45 0 30; 0 0 30"
        dur="2s"
        repeatCount="indefinite"/>
    </g>

    <!-- Clock input -->
    <line x1="80" y1="40" x2="80" y2="5" class="circuit"/>
    <text x="85" y="15" class="axis">Clock</text>

    <!-- Capacitor -->
    <g transform="translate(150, 80)">
      <line x1="-20" y1="0" x2="-5" y2="0" class="circuit"/>
      <line x1="-5" y1="-10" x2="-5" y2="10" stroke="#333" stroke-width="3"/>
      <line x1="5" y1="-10" x2="5" y2="10" stroke="#333" stroke-width="3"/>
      <line x1="5" y1="0" x2="20" y2="0" class="circuit"/>
      <text x="0" y="25" class="axis">C</text>

      <!-- Charge/discharge animation -->
      <rect x="-3" y="-8" width="1" height="16" fill="#ffeb3b" opacity="0.7">
        <animate attributeName="opacity" values="0.7;0.2;0.7" dur="2s" repeatCount="indefinite"/>
      </rect>
      <rect x="2" y="-8" width="1" height="16" fill="#ffeb3b" opacity="0.7">
        <animate attributeName="opacity" values="0.2;0.7;0.2" dur="2s" repeatCount="indefinite"/>
      </rect>
    </g>

    <!-- Buffer/Op-amp -->
    <g transform="translate(220, 80)">
      <polygon points="0,-15 30,0 0,15" class="component"/>
      <text x="15" y="5" class="axis">+</text>
      <text x="35" y="5" class="axis">Vout</text>
    </g>

    <!-- Output terminal -->
    <circle cx="270" cy="80" r="3" fill="#333"/>

    <!-- Load resistor -->
    <g transform="translate(290, 80)">
      <rect x="0" y="-5" width="30" height="10" class="component"/>
      <text x="15" y="20" class="axis">RL</text>
    </g>

    <!-- Ground connections -->
    <line x1="160" y1="100" x2="160" y2="120" class="circuit"/>
    <line x1="305" y1="95" x2="305" y2="120" class="circuit"/>
    <line x1="150" y1="120" x2="315" y2="120" class="circuit"/>
    <text x="230" y="135" class="axis">Ground</text>

    <!-- Circuit connections -->
    <line x1="30" y1="80" x2="75" y2="80" class="circuit"/>
    <line x1="85" y1="80" x2="130" y2="80" class="circuit"/>
    <line x1="170" y1="80" x2="220" y2="80" class="circuit"/>
    <line x1="250" y1="80" x2="290" y2="80" class="circuit"/>
  </g>

  <!-- Waveform Section -->
  <g transform="translate(450, 50)">
    <text x="150" y="15" class="label">Signal Waveforms</text>

    <!-- Time axis -->
    <line x1="30" y1="200" x2="280" y2="200" stroke="black" stroke-width="1"/>
    <text x="290" y="205" class="axis">Time</text>

    <!-- Analog Input Signal -->
    <text x="0" y="40" class="axis">Analog Input</text>
    <path class="wave analog" d="M30,70 Q60,30 90,50 Q120,80 150,40 Q180,20 210,60 Q240,90 270,50">
      <animate attributeName="d" values="M30,70 Q60,30 90,50 Q120,80 150,40 Q180,20 210,60 Q240,90 270,50;M30,60 Q60,40 90,60 Q120,70 150,50 Q180,30 210,70 Q240,80 270,60;M30,70 Q60,30 90,50 Q120,80 150,40 Q180,20 210,60 Q240,90 270,50" dur="4s" repeatCount="indefinite"/>
    </path>

    <!-- Clock Pulses -->
    <text x="0" y="110" class="axis">Clock</text>
    <g>
      <rect x="50" y="100" width="15" height="20" class="wave clock" opacity="0.8">
        <animate attributeName="opacity" values="0.8;0.3;0.8" dur="1s" repeatCount="indefinite"/>
      </rect>
      <rect x="90" y="100" width="15" height="20" class="wave clock" opacity="0.8">
        <animate attributeName="opacity" values="0.8;0.3;0.8" dur="1s" repeatCount="indefinite" begin="0.5s"/>
      </rect>
      <rect x="130" y="100" width="15" height="20" class="wave clock" opacity="0.8">
        <animate attributeName="opacity" values="0.8;0.3;0.8" dur="1s" repeatCount="indefinite" begin="1s"/>
      </rect>
      <rect x="170" y="100" width="15" height="20" class="wave clock" opacity="0.8">
        <animate attributeName="opacity" values="0.8;0.3;0.8" dur="1s" repeatCount="indefinite" begin="1.5s"/>
      </rect>
      <rect x="210" y="100" width="15" height="20" class="wave clock" opacity="0.8">
        <animate attributeName="opacity" values="0.8;0.3;0.8" dur="1s" repeatCount="indefinite" begin="2s"/>
      </rect>
      <rect x="250" y="100" width="15" height="20" class="wave clock" opacity="0.8">
        <animate attributeName="opacity" values="0.8;0.3;0.8" dur="1s" repeatCount="indefinite" begin="2.5s"/>
      </rect>
    </g>

    <!-- Sample Points -->
    <circle cx="57" cy="55" r="3" fill="#ff5722">
      <animate attributeName="opacity" values="1;0.3;1" dur="1s" repeatCount="indefinite"/>
    </circle>
    <circle cx="97" cy="45" r="3" fill="#ff5722">
      <animate attributeName="opacity" values="1;0.3;1" dur="1s" repeatCount="indefinite" begin="0.5s"/>
    </circle>
    <circle cx="137" cy="65" r="3" fill="#ff5722">
      <animate attributeName="opacity" values="1;0.3;1" dur="1s" repeatCount="indefinite" begin="1s"/>
    </circle>
    <circle cx="177" cy="35" r="3" fill="#ff5722">
      <animate attributeName="opacity" values="1;0.3;1" dur="1s" repeatCount="indefinite" begin="1.5s"/>
    </circle>
    <circle cx="217" cy="75" r="3" fill="#ff5722">
      <animate attributeName="opacity" values="1;0.3;1" dur="1s" repeatCount="indefinite" begin="2s"/>
    </circle>
    <circle cx="257" cy="55" r="3" fill="#ff5722">
      <animate attributeName="opacity" values="1;0.3;1" dur="1s" repeatCount="indefinite" begin="2.5s"/>
    </circle>

    <!-- Sampled and Hold Output -->
    <text x="0" y="160" class="axis">S&amp;H Output</text>
    <g class="wave sampled">
      <rect x="50" y="145" width="40" height="0" fill="#7b1fa2" opacity="0.7">
        <animate attributeName="height" values="0;10;10;0" dur="2s" repeatCount="indefinite"/>
        <animate attributeName="y" values="145;140;140;145" dur="2s" repeatCount="indefinite"/>
      </rect>
      <rect x="90" y="135" width="40" height="0" fill="#7b1fa2" opacity="0.7">
        <animate attributeName="height" values="0;20;20;0" dur="2s" repeatCount="indefinite" begin="0.5s"/>
        <animate attributeName="y" values="135;125;125;135" dur="2s" repeatCount="indefinite" begin="0.5s"/>
      </rect>
      <rect x="130" y="155" width="40" height="0" fill="#7b1fa2" opacity="0.7">
        <animate attributeName="height" values="0;-10;-10;0" dur="2s" repeatCount="indefinite" begin="1s"/>
        <animate attributeName="y" values="155;165;165;155" dur="2s" repeatCount="indefinite" begin="1s"/>
      </rect>
      <rect x="170" y="125" width="40" height="0" fill="#7b1fa2" opacity="0.7">
        <animate attributeName="height" values="0;30;30;0" dur="2s" repeatCount="indefinite" begin="1.5s"/>
        <animate attributeName="y" values="125;110;110;125" dur="2s" repeatCount="indefinite" begin="1.5s"/>
      </rect>
      <rect x="210" y="175" width="40" height="0" fill="#7b1fa2" opacity="0.7">
        <animate attributeName="height" values="0;-30;-30;0" dur="2s" repeatCount="indefinite" begin="2s"/>
        <animate attributeName="y" values="175;190;190;175" dur="2s" repeatCount="indefinite" begin="2s"/>
      </rect>
      <rect x="250" y="145" width="30" height="0" fill="#7b1fa2" opacity="0.7">
        <animate attributeName="height" values="0;10;10;0" dur="2s" repeatCount="indefinite" begin="2.5s"/>
        <animate attributeName="y" values="145;140;140;145" dur="2s" repeatCount="indefinite" begin="2.5s"/>
      </rect>
    </g>

    <!-- Vertical time markers -->
    <line x1="57" y1="30" x2="57" y2="200" stroke="#ccc" stroke-dasharray="2,2"/>
    <line x1="97" y1="30" x2="97" y2="200" stroke="#ccc" stroke-dasharray="2,2"/>
    <line x1="137" y1="30" x2="137" y2="200" stroke="#ccc" stroke-dasharray="2,2"/>
    <line x1="177" y1="30" x2="177" y2="200" stroke="#ccc" stroke-dasharray="2,2"/>
    <line x1="217" y1="30" x2="217" y2="200" stroke="#ccc" stroke-dasharray="2,2"/>
    <line x1="257" y1="30" x2="257" y2="200" stroke="#ccc" stroke-dasharray="2,2"/>
  </g>

  <!-- Operation Phases -->
  <g transform="translate(50, 300)">
    <text x="300" y="15" class="label">Sample and Hold Operation</text>

    <!-- Sample Phase -->
    <g transform="translate(0, 30)">
      <rect x="0" y="0" width="200" height="80" fill="#e8f5e8" stroke="#4caf50" stroke-width="2" rx="5"/>
      <text x="100" y="20" class="label" fill="#2e7d32">SAMPLE PHASE</text>
      <text x="10" y="40" class="description">• Switch S is CLOSED (Clock HIGH)</text>
      <text x="10" y="55" class="description">• Capacitor charges to input voltage</text>
      <text x="10" y="70" class="description">• Output follows input signal</text>
    </g>

    <!-- Hold Phase -->
    <g transform="translate(220, 30)">
      <rect x="0" y="0" width="200" height="80" fill="#fff3e0" stroke="#ff9800" stroke-width="2" rx="5"/>
      <text x="100" y="20" class="label" fill="#f57c00">HOLD PHASE</text>
      <text x="10" y="40" class="description">• Switch S is OPEN (Clock LOW)</text>
      <text x="10" y="55" class="description">• Capacitor maintains voltage</text>
      <text x="10" y="70" class="description">• Output holds sampled value</text>
    </g>

    <!-- Key Parameters -->
    <g transform="translate(450, 30)">
      <rect x="0" y="0" width="200" height="80" fill="#f3e5f5" stroke="#9c27b0" stroke-width="2" rx="5"/>
      <text x="100" y="20" class="label" fill="#7b1fa2">KEY PARAMETERS</text>
      <text x="10" y="40" class="description">• Acquisition time: Time to charge C</text>
      <text x="10" y="55" class="description">• Aperture time: Switch transition time</text>
      <text x="10" y="70" class="description">• Droop rate: Voltage decay during hold</text>
    </g>
  </g>

  <!-- Circuit Analysis -->
  <g transform="translate(50, 420)">
    <text x="300" y="15" class="label">Circuit Analysis and Applications</text>

    <text x="0" y="40" class="description" font-weight="bold">Working Principle:</text>
    <text x="0" y="55" class="description">1. During sampling: Switch closes, capacitor charges to input voltage</text>
    <text x="0" y="70" class="description">2. During hold: Switch opens, capacitor maintains voltage through buffer</text>
    <text x="0" y="85" class="description">3. Buffer prevents capacitor discharge into load</text>

    <text x="0" y="110" class="description" font-weight="bold">Applications:</text>
    <text x="0" y="125" class="description">• Analog-to-Digital Converters (ADC front-end)</text>
    <text x="0" y="140" class="description">• Data acquisition systems</text>
    <text x="0" y="155" class="description">• Peak detection circuits</text>
    <text x="0" y="170" class="description">• Multiplexed signal processing</text>

    <text x="400" y="40" class="description" font-weight="bold">Design Considerations:</text>
    <text x="400" y="55" class="description">• Capacitor value: Balance between speed and droop</text>
    <text x="400" y="70" class="description">• Switch resistance: Affects charging time</text>
    <text x="400" y="85" class="description">• Buffer input impedance: Should be very high</text>
    <text x="400" y="100" class="description">• Clock timing: Must allow complete charging</text>
  </g>
</svg>