<svg viewBox="0 0 800 500" xmlns="http://www.w3.org/2000/svg">
  <defs>
    <style>
      .title { font: bold 16px Arial; text-anchor: middle; fill: #2c3e50; }
      .subtitle { font: bold 14px Arial; text-anchor: middle; fill: #34495e; }
      .component-label { font: 12px Arial; text-anchor: middle; fill: #2c3e50; }
      .signal-label { font: 11px Arial; fill: #2c3e50; }
      .circuit-line { stroke: #2c3e50; stroke-width: 2; fill: none; }
      .signal-path { stroke: #e74c3c; stroke-width: 2; fill: none; }
      .am-signal { stroke: #3498db; stroke-width: 2; fill: none; }
      .envelope { stroke: #e74c3c; stroke-width: 2; stroke-dasharray: 3,3; fill: none; }
      .detected-signal { stroke: #27ae60; stroke-width: 2; fill: none; }
      .axis { stroke: #333; stroke-width: 1; }
      .diode { fill: #e74c3c; stroke: #c0392b; stroke-width: 1; }
      .resistor { fill: none; stroke: #34495e; stroke-width: 2; }
      .capacitor { fill: none; stroke: #34495e; stroke-width: 2; }
      .equation { font: 11px monospace; fill: #8b0000; }
      .condition { font: 10px Arial; fill: #666; }
    </style>

    <marker id="arrow" markerWidth="8" markerHeight="6" refX="7" refY="3" orient="auto">
      <polygon points="0 0, 8 3, 0 6" fill="#e74c3c"/>
    </marker>
  </defs>

  <!-- Title -->
  <text x="400" y="25" class="title">Envelope Detector - Circuit and Waveform Analysis</text>

  <!-- Circuit Diagram Section -->
  <g transform="translate(50, 50)">
    <text x="300" y="20" class="subtitle">Envelope Detector Circuit</text>

    <!-- Input terminals -->
    <circle cx="50" cy="80" r="3" fill="#2c3e50"/>
    <circle cx="50" cy="120" r="3" fill="#2c3e50"/>
    <text x="20" y="85" class="signal-label">AM Input</text>
    <text x="30" y="125" class="signal-label">+</text>
    <text x="30" y="105" class="signal-label">-</text>

    <!-- Input waveform representation -->
    <g transform="translate(60, 60)">
      <path d="M0,20 Q5,10 10,20 Q15,30 20,20 Q25,10 30,20 Q35,30 40,20" class="am-signal">
        <animate attributeName="d" 
          values="M0,20 Q5,10 10,20 Q15,30 20,20 Q25,10 30,20 Q35,30 40,20;
                  M0,20 Q5,5 10,20 Q15,35 20,20 Q25,5 30,20 Q35,35 40,20;
                  M0,20 Q5,10 10,20 Q15,30 20,20 Q25,10 30,20 Q35,30 40,20"
          dur="1.5s" repeatCount="indefinite"/>
      </path>
    </g>

    <!-- Connection lines -->
    <line x1="50" y1="80" x2="150" y2="80" class="circuit-line"/>
    <line x1="50" y1="120" x2="150" y2="120" class="circuit-line"/>
    <line x1="150" y1="120" x2="350" y2="120" class="circuit-line"/>

    <!-- Diode -->
    <g transform="translate(150, 70)">
      <polygon points="0,0 0,20 15,10" class="diode"/>
      <line x1="15" y1="0" x2="15" y2="20" stroke="#c0392b" stroke-width="2"/>
      <text x="7.5" y="35" class="component-label">D</text>
      <text x="7.5" y="50" class="equation">Diode</text>
    </g>

    <!-- Connection after diode -->
    <line x1="165" y1="80" x2="220" y2="80" class="circuit-line"/>
    <line x1="220" y1="80" x2="220" y2="120" class="circuit-line"/>

    <!-- Capacitor -->
    <g transform="translate(220, 70)">
      <line x1="0" y1="0" x2="0" y2="20" class="capacitor"/>
      <line x1="5" y1="0" x2="5" y2="20" class="capacitor"/>
      <text x="2.5" y="35" class="component-label">C</text>
    </g>

    <!-- Resistor -->
    <g transform="translate(250, 70)">
      <rect x="0" y="5" width="30" height="10" class="resistor"/>
      <path d="M5,10 L10,5 L15,15 L20,5 L25,15" stroke="#34495e" stroke-width="1" fill="none"/>
      <text x="15" y="35" class="component-label">R</text>
    </g>

    <!-- Connection to resistor and output -->
    <line x1="225" y1="80" x2="250" y2="80" class="circuit-line"/>
    <line x1="280" y1="80" x2="320" y2="80" class="circuit-line"/>
    <line x1="320" y1="80" x2="320" y2="120" class="circuit-line"/>

    <!-- Output terminals -->
    <circle cx="350" cy="80" r="3" fill="#2c3e50"/>
    <circle cx="350" cy="120" r="3" fill="#2c3e50"/>
    <text x="370" y="85" class="signal-label">Output</text>
    <text x="360" y="125" class="signal-label">+</text>
    <text x="360" y="105" class="signal-label">-</text>

    <!-- Ground symbol -->
    <g transform="translate(220, 120)">
      <line x1="0" y1="0" x2="0" y2="10" class="circuit-line"/>
      <line x1="-10" y1="10" x2="10" y2="10" class="circuit-line"/>
      <line x1="-7" y1="13" x2="7" y2="13" class="circuit-line"/>
      <line x1="-4" y1="16" x2="4" y2="16" class="circuit-line"/>
    </g>

    <!-- Component values and conditions -->
    <text x="180" y="160" class="equation">Design Conditions:</text>
    <text x="180" y="175" class="equation">RC >> 1/fc (filters carrier)</text>
    <text x="180" y="190" class="equation">RC &lt;&lt; 1/fm (follows envelope)</text>
  </g>

  <!-- Waveform Analysis Section -->
  <g transform="translate(50, 250)">
    <text x="350" y="20" class="subtitle">Waveform Analysis and Operation</text>

    <!-- AM Input Signal -->
    <g transform="translate(0, 40)">
      <text x="0" y="15" class="signal-label">AM Input Signal</text>
      <line x1="0" y1="50" x2="300" y2="50" class="axis"/>
      <line x1="0" y1="20" x2="0" y2="80" class="axis"/>

      <!-- AM signal with envelope -->
      <path d="M0,50 C10,35 20,65 30,50 C40,30 50,70 60,50 C70,35 80,65 90,50 C100,40 110,60 120,50 C130,45 140,55 150,50 C160,40 170,60 180,50 C190,35 200,65 210,50 C220,30 230,70 240,50 C250,35 260,65 270,50 C280,40 290,60 300,50" class="am-signal">
        <animate attributeName="d" 
          values="M0,50 C10,35 20,65 30,50 C40,30 50,70 60,50 C70,35 80,65 90,50 C100,40 110,60 120,50 C130,45 140,55 150,50 C160,40 170,60 180,50 C190,35 200,65 210,50 C220,30 230,70 240,50 C250,35 260,65 270,50 C280,40 290,60 300,50;
                  M0,50 C10,65 20,35 30,50 C40,70 50,30 60,50 C70,65 80,35 90,50 C100,60 110,40 120,50 C130,55 140,45 150,50 C160,60 170,40 180,50 C190,65 200,35 210,50 C220,70 230,30 240,50 C250,65 260,35 270,50 C280,60 290,40 300,50;
                  M0,50 C10,35 20,65 30,50 C40,30 50,70 60,50 C70,35 80,65 90,50 C100,40 110,60 120,50 C130,45 140,55 150,50 C160,40 170,60 180,50 C190,35 200,65 210,50 C220,30 230,70 240,50 C250,35 260,65 270,50 C280,40 290,60 300,50"
          dur="3s" repeatCount="indefinite"/>
      </path>

      <!-- Envelope lines -->
      <path d="M0,50 Q75,30 150,50 Q225,30 300,50" class="envelope"/>
      <path d="M0,50 Q75,70 150,50 Q225,70 300,50" class="envelope"/>

      <text x="310" y="55" class="signal-label">t</text>
      <text x="-15" y="25" class="signal-label">A</text>
    </g>

    <!-- After Diode (Rectified) -->
    <g transform="translate(350, 40)">
      <text x="0" y="15" class="signal-label">After Diode (Half-wave Rectified)</text>
      <line x1="0" y1="50" x2="300" y2="50" class="axis"/>
      <line x1="0" y1="20" x2="0" y2="80" class="axis"/>

      <!-- Half-wave rectified signal -->
      <path d="M0,50 C10,35 20,50 30,50 C40,30 50,50 60,50 C70,35 80,50 90,50 C100,40 110,50 120,50 C130,45 140,50 150,50 C160,40 170,50 180,50 C190,35 200,50 210,50 C220,30 230,50 240,50 C250,35 260,50 270,50 C280,40 290,50 300,50" stroke="#f39c12" stroke-width="2" fill="none">
        <animate attributeName="d" 
          values="M0,50 C10,35 20,50 30,50 C40,30 50,50 60,50 C70,35 80,50 90,50 C100,40 110,50 120,50 C130,45 140,50 150,50 C160,40 170,50 180,50 C190,35 200,50 210,50 C220,30 230,50 240,50 C250,35 260,50 270,50 C280,40 290,50 300,50;
                  M0,50 C10,50 20,35 30,50 C40,50 50,30 60,50 C70,50 80,35 90,50 C100,50 110,40 120,50 C130,50 140,45 150,50 C160,50 170,40 180,50 C190,50 200,35 210,50 C220,50 230,30 240,50 C250,50 260,35 270,50 C280,50 290,40 300,50;
                  M0,50 C10,35 20,50 30,50 C40,30 50,50 60,50 C70,35 80,50 90,50 C100,40 110,50 120,50 C130,45 140,50 150,50 C160,40 170,50 180,50 C190,35 200,50 210,50 C220,30 230,50 240,50 C250,35 260,50 270,50 C280,40 290,50 300,50"
          dur="3s" repeatCount="indefinite"/>
      </path>

      <text x="310" y="55" class="signal-label">t</text>
    </g>

    <!-- Output Signal (Detected) -->
    <g transform="translate(0, 120)">
      <text x="0" y="15" class="signal-label">Output Signal (Envelope Detected)</text>
      <line x1="0" y1="50" x2="300" y2="50" class="axis"/>
      <line x1="0" y1="20" x2="0" y2="80" class="axis"/>

      <!-- Detected envelope -->
      <path d="M0,50 Q75,30 150,50 Q225,30 300,50" class="detected-signal">
        <animate attributeName="d" 
          values="M0,50 Q75,30 150,50 Q225,30 300,50;
                  M0,50 Q75,70 150,50 Q225,70 300,50;
                  M0,50 Q75,30 150,50 Q225,30 300,50"
          dur="3s" repeatCount="indefinite"/>
      </path>

      <!-- Small ripple on detected signal -->
      <path d="M0,50 C20,48 40,52 60,50 C80,48 100,52 120,50 C140,48 160,52 180,50 C200,48 220,52 240,50 C260,48 280,52 300,50" stroke="#f39c12" stroke-width="1" fill="none" opacity="0.5">
        <animate attributeName="d" 
          values="M0,50 C20,48 40,52 60,50 C80,48 100,52 120,50 C140,48 160,52 180,50 C200,48 220,52 240,50 C260,48 280,52 300,50;
                  M0,50 C20,52 40,48 60,50 C80,52 100,48 120,50 C140,52 160,48 180,50 C200,52 220,48 240,50 C260,52 280,48 300,50;
                  M0,50 C20,48 40,52 60,50 C80,48 100,52 120,50 C140,48 160,52 180,50 C200,48 220,52 240,50 C260,48 280,52 300,50"
          dur="0.5s" repeatCount="indefinite"/>
      </path>

      <text x="310" y="55" class="signal-label">t</text>
      <text x="320" y="35" class="condition">Small ripple</text>
      <text x="320" y="48" class="condition">(carrier freq.)</text>
    </g>

    <!-- Capacitor charge/discharge illustration -->
    <g transform="translate(350, 120)">
      <text x="100" y="15" class="signal-label">Capacitor Operation</text>
      <line x1="0" y1="50" x2="200" y2="50" class="axis"/>
      <line x1="0" y1="20" x2="0" y2="80" class="axis"/>

      <!-- Charging periods -->
      <rect x="20" y="30" width="15" height="20" fill="#3498db" opacity="0.3"/>
      <rect x="60" y="25" width="15" height="25" fill="#3498db" opacity="0.3"/>
      <rect x="100" y="35" width="15" height="15" fill="#3498db" opacity="0.3"/>
      <rect x="140" y="30" width="15" height="20" fill="#3498db" opacity="0.3"/>

      <!-- Discharge periods -->
      <rect x="35" y="40" width="25" height="10" fill="#e74c3c" opacity="0.3"/>
      <rect x="75" y="35" width="25" height="15" fill="#e74c3c" opacity="0.3"/>
      <rect x="115" y="40" width="25" height="10" fill="#e74c3c" opacity="0.3"/>
      <rect x="155" y="35" width="25" height="15" fill="#e74c3c" opacity="0.3"/>

      <text x="27" y="70" class="condition" style="font-size: 8px;">Charge</text>
      <text x="47" y="70" class="condition" style="font-size: 8px;">Discharge</text>

      <text x="210" y="55" class="signal-label">t</text>
    </g>
  </g>

  <!-- Key Points -->
  <g transform="translate(50, 450)">
    <text x="300" y="15" class="subtitle">Key Design Principles</text>

    <g transform="translate(0, 30)">
      <circle cx="5" cy="5" r="3" fill="#27ae60"/>
      <text x="15" y="9" class="condition">Diode conducts only during positive half-cycles</text>
    </g>

    <g transform="translate(250, 30)">
      <circle cx="5" cy="5" r="3" fill="#27ae60"/>
      <text x="15" y="9" class="condition">Capacitor charges to peak, discharges through R</text>
    </g>

    <g transform="translate(500, 30)">
      <circle cx="5" cy="5" r="3" fill="#27ae60"/>
      <text x="15" y="9" class="condition">RC time constant determines tracking ability</text>
    </g>
  </g>
</svg>