<svg viewBox="0 0 900 700" xmlns="http://www.w3.org/2000/svg">
  <defs>
    <style>
      .title { font: bold 16px Arial; text-anchor: middle; fill: #2c3e50; }
      .subtitle { font: bold 14px Arial; text-anchor: middle; fill: #34495e; }
      .block { fill: #ecf0f1; stroke: #34495e; stroke-width: 2; rx: 8; }
      .block-text { font: bold 11px Arial; text-anchor: middle; fill: #2c3e50; }
      .signal-path { stroke: #e74c3c; stroke-width: 2; fill: none; marker-end: url(#arrow); }
      .input-signal { stroke: #3498db; stroke-width: 2; fill: none; }
      .reconstructed { stroke: #27ae60; stroke-width: 2; fill: none; }
      .digital-bits { stroke: #e74c3c; stroke-width: 2; fill: none; }
      .axis { stroke: #333; stroke-width: 1; }
      .grid { stroke: #ddd; stroke-width: 0.5; }
      .label { font: 11px Arial; fill: #2c3e50; }
      .noise-label { font: 11px Arial; fill: #e74c3c; }
      .equation { font: 10px monospace; fill: #8b0000; }
      .step { stroke: #9b59b6; stroke-width: 2; stroke-dasharray: 3,3; }
    </style>

    <marker id="arrow" markerWidth="8" markerHeight="6" refX="7" refY="3" orient="auto">
      <polygon points="0 0, 8 3, 0 6" fill="#e74c3c"/>
    </marker>
  </defs>

  <!-- Title -->
  <text x="450" y="25" class="title">Delta Modulation - Principle and Noise Analysis</text>

  <!-- Block Diagram Section -->
  <g transform="translate(50, 50)">
    <text x="300" y="20" class="subtitle">Delta Modulation Transmitter</text>

    <!-- Input -->
    <text x="0" y="75" class="block-text">x(t)</text>

    <!-- Subtractor -->
    <circle cx="80" cy="70" r="20" class="block"/>
    <text x="80" y="75" class="block-text">-</text>
    <line x1="70" y1="60" x2="90" y2="80" stroke="#34495e" stroke-width="2"/>
    <line x1="70" y1="80" x2="90" y2="60" stroke="#34495e" stroke-width="2"/>

    <!-- Quantizer -->
    <rect x="140" y="50" width="60" height="40" class="block"/>
    <text x="170" y="72" class="block-text">1-bit</text>
    <text x="170" y="85" class="block-text">Quantizer</text>

    <!-- Digital Output -->
    <text x="250" y="75" class="block-text">d(n)</text>

    <!-- Integrator (Accumulator) -->
    <rect x="140" y="120" width="60" height="40" class="block"/>
    <text x="170" y="142" class="block-text">Integrator</text>
    <text x="170" y="155" class="block-text">∫</text>

    <!-- Feedback path -->
    <path d="M170,120 L170,100 L80,100 L80,90" class="signal-path"/>
    <text x="125" y="115" class="label">x̂(t)</text>

    <!-- Signal connections -->
    <path d="M20,70 L60,70" class="signal-path"/>
    <path d="M100,70 L140,70" class="signal-path"/>
    <path d="M200,70 L230,70" class="signal-path"/>
    <path d="M170,90 L170,120" class="signal-path"/>

    <!-- Step size indicator -->
    <text x="280" y="70" class="equation">Step size: δ</text>
    <text x="280" y="85" class="equation">Output: +δ or -δ</text>
  </g>

  <!-- Waveform Analysis Section -->
  <g transform="translate(50, 200)">
    <text x="400" y="20" class="subtitle">Signal Waveforms and Quantization</text>

    <!-- Input signal plot -->
    <g transform="translate(0, 40)">
      <text x="0" y="15" class="label">Input Signal x(t)</text>
      <line x1="0" y1="60" x2="300" y2="60" class="axis"/>
      <line x1="0" y1="20" x2="0" y2="100" class="axis"/>

      <!-- Smooth input signal -->
      <path d="M0,60 Q50,30 100,45 Q150,40 200,70 Q250,85 300,50" class="input-signal">
        <animate attributeName="d" 
          values="M0,60 Q50,30 100,45 Q150,40 200,70 Q250,85 300,50;
                  M0,60 Q50,35 100,50 Q150,45 200,75 Q250,80 300,55;
                  M0,60 Q50,30 100,45 Q150,40 200,70 Q250,85 300,50"
          dur="4s" repeatCount="indefinite"/>
      </path>

      <text x="310" y="65" class="label">t</text>
      <text x="-15" y="25" class="label">A</text>
    </g>

    <!-- Reconstructed signal plot -->
    <g transform="translate(400, 40)">
      <text x="0" y="15" class="label">Reconstructed Signal x̂(t)</text>
      <line x1="0" y1="60" x2="300" y2="60" class="axis"/>
      <line x1="0" y1="20" x2="0" y2="100" class="axis"/>

      <!-- Step approximation -->
      <path d="M0,60 L20,60 L20,50 L40,50 L40,55 L60,55 L60,45 L80,45 L80,40 L100,40 L100,45 L120,45 L120,50 L140,50 L140,55 L160,55 L160,65 L180,65 L180,70 L200,70 L200,75 L220,75 L220,80 L240,80 L240,75 L260,75 L260,70 L280,70 L280,65 L300,65" class="reconstructed">
        <animate attributeName="d" 
          values="M0,60 L20,60 L20,50 L40,50 L40,55 L60,55 L60,45 L80,45 L80,40 L100,40 L100,45 L120,45 L120,50 L140,50 L140,55 L160,55 L160,65 L180,65 L180,70 L200,70 L200,75 L220,75 L220,80 L240,80 L240,75 L260,75 L260,70 L280,70 L280,65 L300,65;
                  M0,60 L20,60 L20,55 L40,55 L40,50 L60,50 L60,45 L80,45 L80,50 L100,50 L100,55 L120,55 L120,60 L140,60 L140,65 L160,65 L160,70 L180,70 L180,75 L200,75 L200,70 L220,70 L220,75 L240,75 L240,70 L260,70 L260,65 L280,65 L280,60 L300,60;
                  M0,60 L20,60 L20,50 L40,50 L40,55 L60,55 L60,45 L80,45 L80,40 L100,40 L100,45 L120,45 L120,50 L140,50 L140,55 L160,55 L160,65 L180,65 L180,70 L200,70 L200,75 L220,75 L220,80 L240,80 L240,75 L260,75 L260,70 L280,70 L280,65 L300,65"
          dur="4s" repeatCount="indefinite"/>
      </path>

      <!-- Step size indicator -->
      <line x1="320" y1="50" x2="320" y2="70" class="step"/>
      <text x="325" y="65" class="label">δ</text>

      <text x="310" y="65" class="label">t</text>
    </g>

    <!-- Digital output -->
    <g transform="translate(0, 140)">
      <text x="0" y="15" class="label">Digital Output d(n)</text>
      <line x1="0" y1="40" x2="300" y2="40" class="axis"/>
      <line x1="0" y1="20" x2="0" y2="60" class="axis"/>

      <!-- Digital pulses -->
      <rect x="20" y="20" width="8" height="20" fill="#e74c3c"/>
      <rect x="40" y="20" width="8" height="20" fill="#e74c3c"/>
      <rect x="60" y="45" width="8" height="15" fill="#27ae60"/>
      <rect x="80" y="45" width="8" height="15" fill="#27ae60"/>
      <rect x="100" y="20" width="8" height="20" fill="#e74c3c"/>
      <rect x="120" y="20" width="8" height="20" fill="#e74c3c"/>
      <rect x="140" y="20" width="8" height="20" fill="#e74c3c"/>
      <rect x="160" y="45" width="8" height="15" fill="#27ae60"/>
      <rect x="180" y="45" width="8" height="15" fill="#27ae60"/>
      <rect x="200" y="45" width="8" height="15" fill="#27ae60"/>
      <rect x="220" y="45" width="8" height="15" fill="#27ae60"/>
      <rect x="240" y="20" width="8" height="20" fill="#e74c3c"/>
      <rect x="260" y="20" width="8" height="20" fill="#e74c3c"/>
      <rect x="280" y="20" width="8" height="20" fill="#e74c3c"/>

      <text x="-15" y="25" class="label">+1</text>
      <text x="-15" y="55" class="label">-1</text>
      <text x="310" y="45" class="label">n</text>
    </g>
  </g>

  <!-- Noise Analysis Section -->
  <g transform="translate(50, 420)">
    <text x="400" y="20" class="subtitle">Delta Modulation Noise Analysis</text>

    <!-- Slope Overload Noise -->
    <g transform="translate(0, 40)">
      <text x="150" y="15" class="noise-label">Slope Overload Noise</text>
      <line x1="0" y1="60" x2="300" y2="60" class="axis"/>
      <line x1="0" y1="20" x2="0" y2="100" class="axis"/>

      <!-- Fast changing input -->
      <path d="M0,80 Q75,20 150,80 Q225,20 300,80" stroke="#3498db" stroke-width="3" fill="none"/>

      <!-- Reconstructed can't follow -->
      <path d="M0,80 L25,70 L50,60 L75,50 L100,40 L125,50 L150,60 L175,70 L200,60 L225,50 L250,60 L275,70 L300,80" class="reconstructed"/>

      <!-- Error indication -->
      <path d="M75,20 L75,50" stroke="#e74c3c" stroke-width="2" stroke-dasharray="3,3"/>
      <text x="80" y="35" class="noise-label">Error</text>

      <text x="0" y="120" class="equation">Condition: |dx/dt| > δ·fs</text>
      <text x="0" y="135" class="equation">Solution: Increase δ or fs</text>
    </g>

    <!-- Granular Noise -->
    <g transform="translate(400, 40)">
      <text x="150" y="15" class="noise-label">Granular Noise</text>
      <line x1="0" y1="60" x2="300" y2="60" class="axis"/>
      <line x1="0" y1="20" x2="0" y2="100" class="axis"/>

      <!-- Slowly changing input -->
      <path d="M0,60 L300,65" stroke="#3498db" stroke-width="3" fill="none"/>

      <!-- Reconstructed oscillates -->
      <path d="M0,60 L25,65 L50,60 L75,65 L100,60 L125,65 L150,60 L175,65 L200,60 L225,65 L250,60 L275,65 L300,60" class="reconstructed"/>

      <!-- Oscillation indication -->
      <path d="M150,60 L150,65" stroke="#e74c3c" stroke-width="2" stroke-dasharray="3,3"/>
      <text x="155" y="67" class="noise-label">Hunting</text>

      <text x="0" y="120" class="equation">Condition: |dx/dt| &lt;&lt; δ·fs</text>
      <text x="0" y="135" class="equation">Solution: Decrease δ</text>
    </g>
  </g>

  <!-- Performance Analysis -->
  <g transform="translate(50, 600)">
    <text x="400" y="20" class="subtitle">Performance Characteristics</text>

    <!-- Performance table -->
    <g transform="translate(0, 40)">
      <rect x="0" y="0" width="800" height="80" fill="#f8f9fa" stroke="#dee2e6" stroke-width="1"/>

      <!-- Headers -->
      <text x="100" y="20" class="block-text">Parameter</text>
      <text x="300" y="20" class="block-text">Delta Modulation</text>
      <text x="500" y="20" class="block-text">PCM Comparison</text>
      <text x="700" y="20" class="block-text">Advantage</text>

      <!-- Row 1 -->
      <line x1="0" y1="25" x2="800" y2="25" stroke="#dee2e6"/>
      <text x="20" y="40" class="label">Bit Rate</text>
      <text x="220" y="40" class="label">1 bit per sample</text>
      <text x="420" y="40" class="label">8-16 bits per sample</text>
      <text x="620" y="40" class="label">Lower bandwidth</text>

      <!-- Row 2 -->
      <line x1="0" y1="45" x2="800" y2="45" stroke="#dee2e6"/>
      <text x="20" y="60" class="label">Implementation</text>
      <text x="220" y="60" class="label">Very simple</text>
      <text x="420" y="60" class="label">Complex ADC needed</text>
      <text x="620" y="60" class="label">Cost effective</text>

      <!-- Row 3 -->
      <line x1="0" y1="65" x2="800" y2="65" stroke="#dee2e6"/>
      <text x="20" y="80" class="label">Signal Quality</text>
      <text x="220" y="80" class="label">Moderate (noise limited)</text>
      <text x="420" y="80" class="label">Excellent</text>
      <text x="620" y="80" class="label">Sufficient for voice</text>
    </g>
  </g>
</svg>