<svg viewBox="0 0 900 600" xmlns="http://www.w3.org/2000/svg">
  <defs>
    <style>
      .title { font: bold 16px Arial; text-anchor: middle; fill: #2c3e50; }
      .subtitle { font: bold 14px Arial; text-anchor: middle; fill: #34495e; }
      .label { font: 11px Arial; fill: #2c3e50; }
      .parameter-label { font: 12px Arial; fill: #2c3e50; }
      .definition { font: 10px Arial; fill: #666; }
      .equation { font: 11px monospace; fill: #8b0000; }
      .antenna-element { stroke: #e74c3c; stroke-width: 3; }
      .radiation-pattern { stroke: #3498db; stroke-width: 2; fill: none; }
      .main-lobe { fill: #3498db; opacity: 0.3; }
      .side-lobe { fill: #f39c12; opacity: 0.3; }
      .axis { stroke: #333; stroke-width: 1; }
      .grid-circle { stroke: #ddd; stroke-width: 0.5; fill: none; }
      .angle-line { stroke: #666; stroke-width: 1; stroke-dasharray: 2,2; }
      .directivity-arrow { stroke: #e74c3c; stroke-width: 2; marker-end: url(#arrow); }
    </style>

    <marker id="arrow" markerWidth="8" markerHeight="6" refX="7" refY="3" orient="auto">
      <polygon points="0 0, 8 3, 0 6" fill="#e74c3c"/>
    </marker>
  </defs>

  <!-- Title -->
  <text x="450" y="25" class="title">Antenna Parameters: Radiation Pattern, Directivity and Gain</text>

  <!-- Radiation Pattern Section -->
  <g transform="translate(50, 60)">
    <text x="200" y="20" class="subtitle">Radiation Pattern</text>

    <!-- Definition box -->
    <rect x="0" y="40" width="400" height="60" fill="#ecf0f1" stroke="#bdc3c7" stroke-width="1" rx="4"/>
    <text x="200" y="60" class="parameter-label" text-anchor="middle">Radiation Pattern</text>
    <text x="200" y="80" class="definition" text-anchor="middle">Graphical representation of radiation properties (field strength or power)</text>
    <text x="200" y="95" class="definition" text-anchor="middle">as a function of space coordinates (θ, φ)</text>

    <!-- Polar coordinate system -->
    <g transform="translate(200, 200)">
      <!-- Grid circles -->
      <circle cx="0" cy="0" r="30" class="grid-circle"/>
      <circle cx="0" cy="0" r="60" class="grid-circle"/>
      <circle cx="0" cy="0" r="90" class="grid-circle"/>
      <circle cx="0" cy="0" r="120" class="grid-circle"/>

      <!-- Angle lines -->
      <line x1="-120" y1="0" x2="120" y2="0" class="angle-line"/>
      <line x1="0" y1="-120" x2="0" y2="120" class="angle-line"/>
      <line x1="-85" y1="-85" x2="85" y2="85" class="angle-line"/>
      <line x1="-85" y1="85" x2="85" y2="-85" class="angle-line"/>

      <!-- Dipole antenna -->
      <line x1="0" y1="-10" x2="0" y2="10" class="antenna-element"/>
      <circle cx="0" cy="0" r="2" fill="#e74c3c"/>

      <!-- Figure-8 radiation pattern -->
      <path d="M0,0 Q30,0 60,30 Q90,60 60,90 Q30,120 0,90 Q-30,120 -60,90 Q-90,60 -60,30 Q-30,0 0,0" class="radiation-pattern">
        <animate attributeName="d" 
          values="M0,0 Q30,0 60,30 Q90,60 60,90 Q30,120 0,90 Q-30,120 -60,90 Q-90,60 -60,30 Q-30,0 0,0;
                  M0,0 Q35,0 70,35 Q95,65 70,95 Q35,125 0,95 Q-35,125 -70,95 Q-95,65 -70,35 Q-35,0 0,0;
                  M0,0 Q30,0 60,30 Q90,60 60,90 Q30,120 0,90 Q-30,120 -60,90 Q-90,60 -60,30 Q-30,0 0,0"
          dur="3s" repeatCount="indefinite"/>
      </path>

      <!-- Main lobes -->
      <path d="M0,0 Q30,0 60,30 Q30,60 0,30 Q-30,60 -60,30 Q-30,0 0,0" class="main-lobe"/>

      <!-- Pattern labels -->
      <text x="0" y="-140" class="label" text-anchor="middle">0°</text>
      <text x="130" y="5" class="label">90°</text>
      <text x="0" y="145" class="label" text-anchor="middle">180°</text>
      <text x="-135" y="5" class="label">270°</text>

      <!-- Maximum radiation direction -->
      <path d="M0,0 L80,0" class="directivity-arrow"/>
      <text x="90" y="-5" class="definition">Maximum Radiation</text>

      <!-- Angle notation -->
      <text x="75" y="75" class="definition">θ</text>
      <text x="-75" y="-75" class="definition">θ</text>
    </g>

    <!-- Pattern characteristics -->
    <text x="200" y="380" class="definition" text-anchor="middle">• Dipole shows figure-8 pattern • Maximum radiation perpendicular to antenna axis</text>
    <text x="200" y="395" class="definition" text-anchor="middle">• Nulls along antenna axis • Omnidirectional in H-plane</text>
  </g>

  <!-- Directivity Section -->
  <g transform="translate(500, 60)">
    <text x="175" y="20" class="subtitle">Directivity</text>

    <!-- Definition box -->
    <rect x="0" y="40" width="350" height="60" fill="#e8f5e8" stroke="#27ae60" stroke-width="1" rx="4"/>
    <text x="175" y="60" class="parameter-label" text-anchor="middle">Directivity (D)</text>
    <text x="175" y="80" class="definition" text-anchor="middle">Ratio of maximum radiation intensity to average radiation intensity</text>
    <text x="175" y="95" class="equation" text-anchor="middle">D = U_max / U_avg = 4π × U_max / P_rad</text>

    <!-- Directivity illustration -->
    <g transform="translate(175, 180)">
      <!-- Isotropic radiator (reference) -->
      <circle cx="-120" cy="0" r="40" stroke="#ddd" stroke-width="2" fill="none" stroke-dasharray="5,5"/>
      <circle cx="-120" cy="0" r="2" fill="#95a5a6"/>
      <text x="-120" y="55" class="definition" text-anchor="middle">Isotropic</text>
      <text x="-120" y="70" class="definition" text-anchor="middle">D = 1 (0 dB)</text>

      <!-- Directional antenna -->
      <ellipse cx="50" cy="0" rx="80" ry="25" stroke="#e74c3c" stroke-width="2" fill="none"/>
      <circle cx="50" cy="0" r="2" fill="#e74c3c"/>
      <text x="50" y="40" class="definition" text-anchor="middle">Directional</text>
      <text x="50" y="55" class="definition" text-anchor="middle">D > 1</text>

      <!-- Comparison arrow -->
      <path d="M-70,0 L10,0" stroke="#34495e" stroke-width="2" marker-end="url(#arrow)"/>
      <text x="-30" y="-10" class="definition" text-anchor="middle">Higher D</text>

      <!-- Maximum intensity indication -->
      <path d="M50,0 L130,0" class="directivity-arrow"/>
      <text x="140" y="5" class="definition">U_max</text>
    </g>

    <!-- Directivity values -->
    <g transform="translate(0, 280)">
      <text x="0" y="20" class="label">Common Directivity Values:</text>
      <text x="0" y="40" class="definition">• Isotropic radiator: D = 1 (0 dB)</text>
      <text x="0" y="55" class="definition">• Half-wave dipole: D = 1.64 (2.15 dB)</text>
      <text x="0" y="70" class="definition">• Parabolic dish: D = (πD/λ)² × η</text>
      <text x="0" y="85" class="definition">• Higher directivity → More focused beam</text>
    </g>
  </g>

  <!-- Gain Section -->
  <g transform="translate(50, 380)">
    <text x="400" y="20" class="subtitle">Antenna Gain</text>

    <!-- Definition and relationship -->
    <rect x="0" y="40" width="800" height="80" fill="#fdf2e8" stroke="#f39c12" stroke-width="1" rx="4"/>

    <g transform="translate(50, 60)">
      <text x="150" y="20" class="parameter-label">Gain (G)</text>
      <text x="150" y="40" class="definition">Product of directivity and antenna efficiency</text>
      <text x="150" y="60" class="equation">G = D × η = Directivity × Efficiency</text>
    </g>

    <g transform="translate(400, 60)">
      <text x="150" y="20" class="parameter-label">Efficiency (η)</text>
      <text x="150" y="40" class="definition">Ratio of radiated power to input power</text>
      <text x="150" y="60" class="equation">η = P_radiated / P_input</text>
    </g>

    <!-- Gain vs Directivity comparison -->
    <g transform="translate(0, 140)">
      <text x="400" y="15" class="subtitle">Gain vs Directivity Comparison</text>

      <!-- Table structure -->
      <rect x="50" y="30" width="700" height="100" fill="#f8f9fa" stroke="#dee2e6" stroke-width="1"/>

      <!-- Headers -->
      <text x="100" y="50" class="parameter-label">Parameter</text>
      <text x="300" y="50" class="parameter-label">Directivity (D)</text>
      <text x="550" y="50" class="parameter-label">Gain (G)</text>

      <!-- Separator lines -->
      <line x1="50" y1="55" x2="750" y2="55" stroke="#dee2e6"/>
      <line x1="250" y1="30" x2="250" y2="130" stroke="#dee2e6"/>
      <line x1="500" y1="30" x2="500" y2="130" stroke="#dee2e6"/>

      <!-- Content -->
      <text x="70" y="75" class="definition">Definition</text>
      <text x="270" y="75" class="definition">Pattern shaping ability</text>
      <text x="520" y="75" class="definition">Practical antenna performance</text>

      <text x="70" y="95" class="definition">Includes</text>
      <text x="270" y="95" class="definition">Only radiation pattern</text>
      <text x="520" y="95" class="definition">Pattern + losses</text>

      <text x="70" y="115" class="definition">Relationship</text>
      <text x="270" y="115" class="equation">D = theoretical maximum</text>
      <text x="520" y="115" class="equation">G = D × η ≤ D</text>
    </g>
  </g>

  <!-- Practical Examples -->
  <g transform="translate(50, 560)">
    <text x="400" y="15" class="subtitle">Practical Antenna Examples</text>

    <!-- Examples in boxes -->
    <g transform="translate(0, 25)">
      <rect x="0" y="0" width="200" height="60" fill="#e8f4fd" stroke="#3498db" rx="4"/>
      <text x="100" y="20" class="label" text-anchor="middle">Dipole Antenna</text>
      <text x="100" y="35" class="definition" text-anchor="middle">D = 30-50 dB</text>
      <text x="100" y="50" class="definition" text-anchor="middle">G = 25-45 dB</text>
    </g>

    <g transform="translate(660, 25)">
      <rect x="0" y="0" width="200" height="60" fill="#fdeaea" stroke="#e74c3c" rx="4"/>
      <text x="100" y="20" class="label" text-anchor="middle">Horn Antenna</text>
      <text x="100" y="35" class="definition" text-anchor="middle">D = 15-25 dB</text>
      <text x="100" y="50" class="definition" text-anchor="middle">G = 10-20 dB</text>
    </g>
  </g>
</svg>