<svg viewBox="0 0 900 550" xmlns="http://www.w3.org/2000/svg">
  <defs>
    <style>
      .title { font: bold 16px Arial; text-anchor: middle; fill: #2c3e50; }
      .subtitle { font: bold 14px Arial; text-anchor: middle; fill: #34495e; }
      .label { font: 11px Arial; fill: #2c3e50; }
      .freq-label { font: 10px Arial; fill: #666; }
      .tower { fill: #e74c3c; stroke: #c0392b; stroke-width: 2; }
      .antenna { stroke: #f39c12; stroke-width: 3; }
      .ground { fill: #8b4513; stroke: #654321; stroke-width: 2; }
      .earth { fill: #27ae60; stroke: #229954; stroke-width: 2; }
      .atmosphere { fill: #87ceeb; stroke: #5dade2; stroke-width: 1; opacity: 0.3; }
      .ionosphere { fill: #9b59b6; stroke: #8e44ad; stroke-width: 1; opacity: 0.4; }
      .wave-direct { stroke: #3498db; stroke-width: 2; fill: none; }
      .wave-ground { stroke: #e74c3c; stroke-width: 2; fill: none; }
      .wave-sky { stroke: #f39c12; stroke-width: 2; fill: none; }
      .wave-space { stroke: #27ae60; stroke-width: 2; fill: none; }
      .building { fill: #95a5a6; stroke: #7f8c8d; stroke-width: 1; }
      .equation { font: 10px monospace; fill: #8b0000; }
    </style>
    
    <marker id="arrow" markerWidth="8" markerHeight="6" refX="7" refY="3" orient="auto">
      <polygon points="0 0, 8 3, 0 6" fill="#2c3e50"/>
    </marker>
  </defs>

  <!-- Title -->
  <text x="450" y="25" class="title">Radio Wave Propagation Types</text>

  <!-- Ground Wave Propagation -->
  <g transform="translate(50, 50)">
    <text x="200" y="20" class="subtitle">Ground Wave Propagation</text>
    
    <!-- Earth surface -->
    <ellipse cx="200" cy="150" rx="200" ry="50" class="earth"/>
    <rect x="0" y="150" width="400" height="50" class="ground"/>
    
    <!-- Transmitter tower -->
    <g transform="translate(50, 100)">
      <rect x="0" y="0" width="8" height="50" class="tower"/>
      <line x1="4" y1="0" x2="4" y2="-15" class="antenna"/>
      <text x="12" y="25" class="label">TX</text>
    </g>
    
    <!-- Receiver tower -->
    <g transform="translate(350, 110)">
      <rect x="0" y="0" width="8" height="40" class="tower"/>
      <line x1="4" y1="0" x2="4" y2="-15" class="antenna"/>
      <text x="12" y="20" class="label">RX</text>
    </g>
    
    <!-- Ground wave path -->
    <path d="M54,100 Q150,120 200,130 Q250,140 354,110" class="wave-ground" stroke-dasharray="5,5">
      <animate attributeName="stroke-dashoffset" values="0;-20" dur="2s" repeatCount="indefinite"/>
    </path>
    
    <!-- Wave following earth curvature -->
    <path d="M54,100 C100,110 150,125 200,135 C250,145 300,135 354,110" class="wave-ground" opacity="0.5"/>
    
    <!-- Labels and characteristics -->
    <text x="200" y="250" class="freq-label" text-anchor="middle">Frequency: LF, MF (30 kHz - 3 MHz)</text>
    <text x="200" y="265" class="freq-label" text-anchor="middle">Range: Up to 2000 km</text>
    <text x="200" y="280" class="freq-label" text-anchor="middle">Follows Earth's curvature (Diffraction)</text>
    <text x="200" y="295" class="freq-label" text-anchor="middle">Vertically polarized for better conductivity</text>
  </g>

  <!-- Space Wave Propagation -->
  <g transform="translate(450, 50)">
    <text x="200" y="20" class="subtitle">Space Wave Propagation</text>
    
    <!-- Earth surface -->
    <rect x="0" y="150" width="400" height="50" class="ground"/>
    
    <!-- Transmitter tower (tall) -->
    <g transform="translate(50, 80)">
      <rect x="0" y="0" width="8" height="70" class="tower"/>
      <line x1="4" y1="0" x2="4" y2="-15" class="antenna"/>
      <text x="12" y="35" class="label">TX</text>
      <text x="12" y="90" class="freq-label">h₁</text>
    </g>
    
    <!-- Receiver tower -->
    <g transform="translate(350, 120)">
      <rect x="0" y="0" width="8" height="30" class="tower"/>
      <line x1="4" y1="0" x2="4" y2="-15" class="antenna"/>
      <text x="12" y="15" class="label">RX</text>
      <text x="12" y="50" class="freq-label">h₂</text>
    </g>
    
    <!-- Buildings/obstacles -->
    <rect x="120" y="130" width="15" height="20" class="building"/>
    <rect x="180" y="135" width="12" height="15" class="building"/>
    <rect x="250" y="125" width="20" height="25" class="building"/>
    
    <!-- Direct wave -->
    <path d="M54,80 L354,120" class="wave-direct" marker-end="url(#arrow)">
      <animate attributeName="stroke-dasharray" values="0,300;10,290;0,300" dur="2s" repeatCount="indefinite"/>
    </path>
    
    <!-- Ground reflected wave -->
    <path d="M54,80 Q200,200 354,120" class="wave-ground" stroke-dasharray="3,3">
      <animate attributeName="stroke-dashoffset" values="0;-20" dur="2s" repeatCount="indefinite"/>
    </path>
    
    <!-- Line of sight indication -->
    <text x="170" y="70" class="freq-label">Direct Wave</text>
    <text x="150" y="220" class="freq-label">Ground Reflected</text>
    
    <!-- Range formula -->
    <text x="200" y="250" class="equation" text-anchor="middle">Range = 4.12(√h₁ + √h₂) km</text>
    <text x="200" y="265" class="freq-label" text-anchor="middle">Frequency: VHF, UHF (30 MHz - 3 GHz)</text>
    <text x="200" y="280" class="freq-label" text-anchor="middle">Line-of-sight propagation</text>
    <text x="200" y="295" class="freq-label" text-anchor="middle">Limited by horizon and obstacles</text>
  </g>

  <!-- Sky Wave Propagation -->
  <g transform="translate(50, 350)">
    <text x="350" y="20" class="subtitle">Sky Wave Propagation</text>
    
    <!-- Earth surface -->
    <rect x="0" y="120" width="700" height="30" class="ground"/>
    
    <!-- Atmosphere layers -->
    <ellipse cx="350" cy="120" rx="350" ry="40" class="atmosphere"/>
    <ellipse cx="350" cy="120" rx="350" ry="80" class="ionosphere"/>
    <text x="650" y="50" class="label">Ionosphere</text>
    <text x="650" y="65" class="freq-label">(50-400 km altitude)</text>
    
    <!-- Transmitter -->
    <g transform="translate(100, 100)">
      <rect x="0" y="0" width="8" height="20" class="tower"/>
      <line x1="4" y1="0" x2="4" y2="-10" class="antenna"/>
      <text x="12" y="10" class="label">TX</text>
    </g>
    
    <!-- Receiver -->
    <g transform="translate(600, 100)">
      <rect x="0" y="0" width="8" height="20" class="tower"/>
      <line x1="4" y1="0" x2="4" y2="-10" class="antenna"/>
      <text x="12" y="10" class="label">RX</text>
    </g>
    
    <!-- Sky wave paths -->
    <path d="M104,100 Q250,30 400,50 Q550,30 604,100" class="wave-sky">
      <animate attributeName="stroke-dasharray" values="0,500;15,485;0,500" dur="3s" repeatCount="indefinite"/>
    </path>
    
    <!-- Multiple hops -->
    <path d="M104,100 Q200,40 300,80 Q400,40 500,80 Q550,60 604,100" class="wave-sky" stroke-dasharray="5,5" opacity="0.7">
      <animate attributeName="stroke-dashoffset" values="0;-25" dur="3s" repeatCount="indefinite"/>
    </path>
    
    <!-- Reflection points -->
    <circle cx="250" cy="50" r="3" fill="#f39c12"/>
    <circle cx="450" cy="50" r="3" fill="#f39c12"/>
    <text x="200" y="35" class="freq-label">Ionospheric</text>
    <text x="200" y="25" class="freq-label">Reflection</text>
    
    <!-- Skip zone -->
    <text x="350" y="160" class="freq-label" text-anchor="middle">Skip Zone (No Reception)</text>
    <path d="M200,150 L500,150" stroke="#e74c3c" stroke-width="2" stroke-dasharray="10,5"/>
    
    <!-- Characteristics -->
    <text x="350" y="180" class="freq-label" text-anchor="middle">Frequency: HF (3-30 MHz) - Suitable for ionospheric reflection</text>
    <text x="350" y="195" class="freq-label" text-anchor="middle">Range: 500-4000 km per hop - Long distance communication</text>
  </g>

  <!-- Summary Table -->
  <g transform="translate(450, 380)">
    <text x="200" y="15" class="subtitle">Comparison Summary</text>
    
    <!-- Table structure -->
    <rect x="0" y="25" width="400" height="120" fill="#f8f9fa" stroke="#dee2e6" stroke-width="1"/>
    
    <!-- Headers -->
    <text x="20" y="45" class="label">Propagation Type</text>
    <text x="120" y="45" class="label">Frequency Range</text>
    <text x="220" y="45" class="label">Typical Range</text>
    <text x="320" y="45" class="label">Mechanism</text>
    
    <!-- Horizontal lines -->
    <line x1="0" y1="50" x2="400" y2="50" stroke="#dee2e6"/>
    <line x1="0" y1="70" x2="400" y2="70" stroke="#dee2e6"/>
    <line x1="0" y1="90" x2="400" y2="90" stroke="#dee2e6"/>
    <line x1="0" y1="110" x2="400" y2="110" stroke="#dee2e6"/>
    
    <!-- Vertical lines -->
    <line x1="100" y1="25" x2="100" y2="145" stroke="#dee2e6"/>
    <line x1="200" y1="25" x2="200" y2="145" stroke="#dee2e6"/>
    <line x1="300" y1="25" x2="300" y2="145" stroke="#dee2e6"/>
    
    <!-- Data rows -->
    <text x="10" y="65" class="freq-label">Ground Wave</text>
    <text x="110" y="65" class="freq-label">LF-MF</text>
    <text x="210" y="65" class="freq-label">0-2000 km</text>
    <text x="310" y="65" class="freq-label">Diffraction</text>
    
    <text x="10" y="85" class="freq-label">Space Wave</text>
    <text x="110" y="85" class="freq-label">VHF-UHF</text>
    <text x="210" y="85" class="freq-label">0-100 km</text>
    <text x="310" y="85" class="freq-label">Line of sight</text>
    
    <text x="10" y="105" class="freq-label">Sky Wave</text>
    <text x="110" y="105" class="freq-label">HF</text>
    <text x="210" y="105" class="freq-label">500-4000 km</text>
    <text x="310" y="105" class="freq-label">Ionospheric</text>
    
    <text x="10" y="125" class="freq-label">Satellite</text>
    <text x="110" y="125" class="freq-label">SHF+</text>
    <text x="210" y="125" class="freq-label">Global</text>
    <text x="310" y="125" class="freq-label">Space relay</text>
  </g>
</svg>