<svg viewBox="0 0 900 650" xmlns="http://www.w3.org/2000/svg">
  <defs>
    <style>
      .title { font: bold 16px Arial; text-anchor: middle; fill: #2c3e50; }
      .subtitle { font: bold 14px Arial; text-anchor: middle; fill: #34495e; }
      .block { fill: #ecf0f1; stroke: #34495e; stroke-width: 2; rx: 8; }
      .block-tx { fill: #e8f5e8; stroke: #27ae60; stroke-width: 2; rx: 8; }
      .block-rx { fill: #e8f4fd; stroke: #3498db; stroke-width: 2; rx: 8; }
      .block-text { font: bold 10px Arial; text-anchor: middle; fill: #2c3e50; }
      .signal-path { stroke: #e74c3c; stroke-width: 2; fill: none; marker-end: url(#arrow); }
      .signal-analog { stroke: #3498db; stroke-width: 2; fill: none; }
      .signal-digital { stroke: #e74c3c; stroke-width: 2; fill: none; }
      .waveform { stroke-width: 1.5; fill: none; }
      .axis { stroke: #333; stroke-width: 1; }
      .label { font: 10px Arial; fill: #2c3e50; }
      .spec { font: 9px Arial; fill: #666; text-anchor: middle; }
      .equation { font: 9px monospace; fill: #8b0000; }
    </style>
    
    <marker id="arrow" markerWidth="8" markerHeight="6" refX="7" refY="3" orient="auto">
      <polygon points="0 0, 8 3, 0 6" fill="#e74c3c"/>
    </marker>
  </defs>

  <!-- Title -->
  <text x="450" y="25" class="title">PCM (Pulse Code Modulation) - Complete System</text>

  <!-- PCM Transmitter Section -->
  <g transform="translate(50, 50)">
    <text x="400" y="20" class="subtitle">PCM Transmitter</text>
    
    <!-- Analog Input -->
    <g transform="translate(0, 40)">
      <text x="40" y="15" class="label">Analog</text>
      <text x="40" y="28" class="label">Input</text>
      
      <!-- Sine wave representation -->
      <path d="M10,50 Q25,35 40,50 T70,50" class="signal-analog">
        <animate attributeName="d" 
          values="M10,50 Q25,35 40,50 T70,50;
                  M10,50 Q25,65 40,50 T70,50;
                  M10,50 Q25,35 40,50 T70,50"
          dur="2s" repeatCount="indefinite"/>
      </path>
    </g>
    
    <!-- Anti-aliasing Filter -->
    <rect x="100" y="30" width="80" height="40" class="block-tx"/>
    <text x="140" y="47" class="block-text">Anti-aliasing</text>
    <text x="140" y="58" class="block-text">Filter</text>
    <text x="140" y="80" class="spec">fc = fs/2</text>
    
    <!-- Sample & Hold -->
    <rect x="200" y="30" width="80" height="40" class="block-tx"/>
    <text x="240" y="47" class="block-text">Sample &amp;</text>
    <text x="240" y="58" class="block-text">Hold</text>
    <text x="240" y="80" class="spec">fs ≥ 2fm</text>
    
    <!-- Quantizer -->
    <rect x="300" y="30" width="80" height="40" class="block-tx"/>
    <text x="340" y="47" class="block-text">Quantizer</text>
    <text x="340" y="80" class="spec">2^n levels</text>
    
    <!-- Encoder -->
    <rect x="400" y="30" width="80" height="40" class="block-tx"/>
    <text x="440" y="47" class="block-text">Encoder</text>
    <text x="440" y="80" class="spec">n-bit binary</text>
    
    <!-- Parallel to Serial -->
    <rect x="500" y="30" width="80" height="40" class="block-tx"/>
    <text x="540" y="44" class="block-text">Parallel</text>
    <text x="540" y="54" class="block-text">to</text>
    <text x="540" y="64" class="block-text">Serial</text>
    
    <!-- Line Coder -->
    <rect x="600" y="30" width="80" height="40" class="block-tx"/>
    <text x="640" y="47" class="block-text">Line Coder</text>
    <text x="640" y="80" class="spec">NRZ/RZ/etc</text>
    
    <!-- PCM Output -->
    <g transform="translate(700, 40)">
      <text x="40" y="15" class="label">PCM</text>
      <text x="40" y="28" class="label">Output</text>
      
      <!-- Digital signal representation -->
      <path d="M10,50 L15,50 L15,35 L25,35 L25,50 L35,50 L35,35 L45,35 L45,50 L55,50 L55,35 L65,35 L65,50 L75,50" class="signal-digital">
        <animate attributeName="d" 
          values="M10,50 L15,50 L15,35 L25,35 L25,50 L35,50 L35,35 L45,35 L45,50 L55,50 L55,35 L65,35 L65,50 L75,50;
                  M10,50 L15,50 L15,35 L25,35 L25,50 L35,50 L35,50 L45,50 L45,35 L55,35 L55,50 L65,50 L65,35 L75,35;
                  M10,50 L15,50 L15,35 L25,35 L25,50 L35,50 L35,35 L45,35 L45,50 L55,50 L55,35 L65,35 L65,50 L75,50"
          dur="1s" repeatCount="indefinite"/>
      </path>
    </g>
    
    <!-- Signal flow arrows -->
    <path d="M80,50 L95,50" class="signal-path"/>
    <path d="M180,50 L195,50" class="signal-path"/>
    <path d="M280,50 L295,50" class="signal-path"/>
    <path d="M380,50 L395,50" class="signal-path"/>
    <path d="M480,50 L495,50" class="signal-path"/>
    <path d="M580,50 L595,50" class="signal-path"/>
    <path d="M680,50 L695,50" class="signal-path"/>
  </g>

  <!-- Signal Processing Visualization -->
  <g transform="translate(50, 150)">
    <text x="400" y="20" class="subtitle">Signal Processing Steps</text>
    
    <!-- Original analog signal -->
    <g transform="translate(0, 40)">
      <text x="80" y="15" class="label">1. Analog Signal</text>
      <line x1="0" y1="40" x2="150" y2="40" class="axis"/>
      <path d="M0,40 Q25,20 50,40 Q75,60 100,40 Q125,20 150,40" class="signal-analog"/>
    </g>
    
    <!-- After sampling -->
    <g transform="translate(180, 40)">
      <text x="80" y="15" class="label">2. Sampled Signal</text>
      <line x1="0" y1="40" x2="150" y2="40" class="axis"/>
      <circle cx="0" cy="40" r="2" fill="#3498db"/>
      <circle cx="25" cy="20" r="2" fill="#3498db"/>
      <circle cx="50" cy="40" r="2" fill="#3498db"/>
      <circle cx="75" cy="60" r="2" fill="#3498db"/>
      <circle cx="100" cy="40" r="2" fill="#3498db"/>
      <circle cx="125" cy="20" r="2" fill="#3498db"/>
      <circle cx="150" cy="40" r="2" fill="#3498db"/>
      
      <!-- Vertical lines for samples -->
      <line x1="0" y1="40" x2="0" y2="65" stroke="#ddd" stroke-dasharray="2,2"/>
      <line x1="25" y1="20" x2="25" y2="65" stroke="#ddd" stroke-dasharray="2,2"/>
      <line x1="50" y1="40" x2="50" y2="65" stroke="#ddd" stroke-dasharray="2,2"/>
      <line x1="75" y1="60" x2="75" y2="65" stroke="#ddd" stroke-dasharray="2,2"/>
      <line x1="100" y1="40" x2="100" y2="65" stroke="#ddd" stroke-dasharray="2,2"/>
      <line x1="125" y1="20" x2="125" y2="65" stroke="#ddd" stroke-dasharray="2,2"/>
      <line x1="150" y1="40" x2="150" y2="65" stroke="#ddd" stroke-dasharray="2,2"/>
    </g>
    
    <!-- After quantization -->
    <g transform="translate(360, 40)">
      <text x="80" y="15" class="label">3. Quantized Signal</text>
      <line x1="0" y1="65" x2="150" y2="65" class="axis"/>
      
      <!-- Quantization levels -->
      <line x1="0" y1="15" x2="150" y2="15" stroke="#ddd" stroke-width="0.5"/>
      <line x1="0" y1="25" x2="150" y2="25" stroke="#ddd" stroke-width="0.5"/>
      <line x1="0" y1="35" x2="150" y2="35" stroke="#ddd" stroke-width="0.5"/>
      <line x1="0" y1="45" x2="150" y2="45" stroke="#ddd" stroke-width="0.5"/>
      <line x1="0" y1="55" x2="150" y2="55" stroke="#ddd" stroke-width="0.5"/>
      
      <!-- Quantized samples -->
      <circle cx="0" cy="45" r="2" fill="#27ae60"/>
      <circle cx="25" cy="25" r="2" fill="#27ae60"/>
      <circle cx="50" cy="45" r="2" fill="#27ae60"/>
      <circle cx="75" cy="55" r="2" fill="#27ae60"/>
      <circle cx="100" cy="45" r="2" fill="#27ae60"/>
      <circle cx="125" cy="25" r="2" fill="#27ae60"/>
      <circle cx="150" cy="45" r="2" fill="#27ae60"/>
      
      <!-- Level labels -->
      <text x="-10" y="20" class="label" style="font-size: 8px;">111</text>
      <text x="-10" y="30" class="label" style="font-size: 8px;">110</text>
      <text x="-10" y="40" class="label" style="font-size: 8px;">101</text>
      <text x="-10" y="50" class="label" style="font-size: 8px;">100</text>
      <text x="-10" y="60" class="label" style="font-size: 8px;">011</text>
    </g>
    
    <!-- Digital codes -->
    <g transform="translate(540, 40)">
      <text x="80" y="15" class="label">4. Binary Codes</text>
      <text x="0" y="35" class="equation">101</text>
      <text x="25" y="35" class="equation">110</text>
      <text x="50" y="35" class="equation">101</text>
      <text x="75" y="35" class="equation">011</text>
      <text x="100" y="35" class="equation">101</text>
      <text x="125" y="35" class="equation">110</text>
      <text x="150" y="35" class="equation">101</text>
    </g>
  </g>

  <!-- Channel Section -->
  <g transform="translate(450, 280)">
    <rect x="0" y="0" width="100" height="30" fill="#f39c12" stroke="#e67e22" stroke-width="2" rx="4"/>
    <text x="50" y="20" class="block-text" style="fill: white;">CHANNEL</text>
    <text x="50" y="45" class="spec">+ Noise, Distortion</text>
  </g>

  <!-- PCM Receiver Section -->
  <g transform="translate(50, 350)">
    <text x="400" y="20" class="subtitle">PCM Receiver</text>
    
    <!-- PCM Input -->
    <g transform="translate(0, 40)">
      <text x="40" y="15" class="label">PCM</text>
      <text x="40" y="28" class="label">Input</text>
      
      <!-- Noisy digital signal -->
      <path d="M10,50 L15,50 L15,38 L25,38 L25,52 L35,52 L35,37 L45,37 L45,51 L55,51 L55,36 L65,36 L65,49 L75,49" class="signal-digital" stroke="#f39c12"/>
    </g>
    
    <!-- Regenerative Repeater -->
    <rect x="100" y="30" width="80" height="40" class="block-rx"/>
    <text x="140" y="44" class="block-text">Regenerative</text>
    <text x="140" y="55" class="block-text">Repeater</text>
    <text x="140" y="80" class="spec">Noise removal</text>
    
    <!-- Line Decoder -->
    <rect x="200" y="30" width="80" height="40" class="block-rx"/>
    <text x="240" y="47" class="block-text">Line Decoder</text>
    <text x="240" y="80" class="spec">Clock recovery</text>
    
    <!-- Serial to Parallel -->
    <rect x="300" y="30" width="80" height="40" class="block-rx"/>
    <text x="340" y="44" class="block-text">Serial</text>
    <text x="340" y="54" class="block-text">to</text>
    <text x="340" y="64" class="block-text">Parallel</text>
    
    <!-- Decoder -->
    <rect x="400" y="30" width="80" height="40" class="block-rx"/>
    <text x="440" y="47" class="block-text">Decoder</text>
    <text x="440" y="80" class="spec">Binary to analog</text>
    
    <!-- Reconstruction Filter -->
    <rect x="500" y="30" width="80" height="40" class="block-rx"/>
    <text x="540" y="44" class="block-text">Reconstruction</text>
    <text x="540" y="55" class="block-text">Filter (LPF)</text>
    <text x="540" y="80" class="spec">Smoothing</text>
    
    <!-- Analog Output -->
    <g transform="translate(600, 40)">
      <text x="40" y="15" class="label">Analog</text>
      <text x="40" y="28" class="label">Output</text>
      
      <!-- Reconstructed sine wave -->
      <path d="M10,50 Q25,35 40,50 T70,50" class="signal-analog" stroke="#27ae60">
        <animate attributeName="d" 
          values="M10,50 Q25,35 40,50 T70,50;
                  M10,50 Q25,65 40,50 T70,50;
                  M10,50 Q25,35 40,50 T70,50"
          dur="2s" repeatCount="indefinite"/>
      </path>
    </g>
    
    <!-- Signal flow arrows -->
    <path d="M80,50 L95,50" class="signal-path"/>
    <path d="M180,50 L195,50" class="signal-path"/>
    <path d="M280,50 L295,50" class="signal-path"/>
    <path d="M380,50 L395,50" class="signal-path"/>
    <path d="M480,50 L495,50" class="signal-path"/>
    <path d="M580,50 L595,50" class="signal-path"/>
  </g>

  <!-- Performance Analysis -->
  <g transform="translate(50, 480)">
    <text x="400" y="20" class="subtitle">PCM System Performance</text>
    
    <!-- Quantization Analysis -->
    <g transform="translate(0, 40)">
      <rect x="0" y="0" width="280" height="120" fill="#f8f9fa" stroke="#dee2e6" stroke-width="1" rx="4"/>
      <text x="140" y="20" class="block-text">Quantization Parameters</text>
      
      <text x="10" y="40" class="equation">Number of levels: L = 2^n</text>
      <text x="10" y="55" class="equation">Step size: Δ = (Vmax - Vmin)/L</text>
      <text x="10" y="70" class="equation">Quantization error: ±Δ/2</text>
      <text x="10" y="85" class="equation">SNR = 6n + 1.8 dB (uniform)</text>
      <text x="10" y="100" class="equation">Dynamic range: 6n dB</text>
    </g>
    
    <!-- Bit Rate Analysis -->
    <g transform="translate(300, 40)">
      <rect x="0" y="0" width="280" height="120" fill="#f8f9fa" stroke="#dee2e6" stroke-width="1" rx="4"/>
      <text x="140" y="20" class="block-text">Bit Rate Requirements</text>
      
      <text x="10" y="40" class="equation">Bit rate: Rb = n × fs</text>
      <text x="10" y="55" class="equation">Bandwidth: BW = Rb/2 (NRZ)</text>
      <text x="10" y="70" class="equation">For speech (8 kHz, 8-bit):</text>
      <text x="10" y="85" class="equation">Rb = 64 kbps</text>
      <text x="10" y="100" class="equation">BW = 32 kHz</text>
    </g>
  </g>

  <!-- Advantages and Applications -->
  <g transform="translate(50, 620)">
    <text x="300" y="15" class="subtitle">Key Features and Applications</text>
    
    <!-- Advantages -->
    <g transform="translate(0, 30)">
      <text x="0" y="0" class="block-text">Advantages:</text>
      <circle cx="10" cy="15" r="2" fill="#27ae60"/>
      <text x="20" y="19" class="label">Excellent noise immunity</text>
      
      <circle cx="10" cy="30" r="2" fill="#27ae60"/>
      <text x="20" y="34" class="label">Regeneration possible</text>
      
      <circle cx="200" cy="15" r="2" fill="#27ae60"/>
      <text x="210" y="19" class="label">Uniform signal quality</text>
      
      <circle cx="200" cy="30" r="2" fill="#27ae60"/>
      <text x="210" y="34" class="label">Digital processing benefits</text>
    </g>
    
    <!-- Applications -->
    <g transform="translate(400, 30)">
      <text x="0" y="0" class="block-text">Applications:</text>
      <circle cx="10" cy="15" r="2" fill="#3498db"/>
      <text x="20" y="19" class="label">Digital telephony</text>
      
      <circle cx="10" cy="30" r="2" fill="#3498db"/>
      <text x="20" y="34" class="label">CD audio (44.1 kHz, 16-bit)</text>
      
      <circle cx="200" cy="15" r="2" fill="#3498db"/>
      <text x="210" y="19" class="label">Digital TV and radio</text>
      
      <circle cx="200" cy="30" r="2" fill="#3498db"/>
      <text x="210" y="34" class="label">Computer audio</text>
    </g>
  </g>
</svg>