<svg viewBox="0 0 900 500" xmlns="http://www.w3.org/2000/svg">
  <defs>
    <style>
      .title { font: bold 16px Arial; text-anchor: middle; fill: #2c3e50; }
      .block { fill: #ecf0f1; stroke: #34495e; stroke-width: 2; rx: 8; }
      .block-text { font: bold 12px Arial; text-anchor: middle; fill: #2c3e50; }
      .signal-path { stroke: #e74c3c; stroke-width: 3; fill: none; marker-end: url(#arrow); }
      .freq-label { font: 11px Arial; fill: #8b0000; text-anchor: middle; }
      .description { font: 10px Arial; fill: #666; text-anchor: middle; }
      .antenna { stroke: #f39c12; stroke-width: 3; fill: none; }
      .wave { stroke: #3498db; stroke-width: 2; fill: none; opacity: 0.7; }
    </style>
    
    <!-- Arrow marker -->
    <marker id="arrow" markerWidth="10" markerHeight="7" refX="9" refY="3.5" orient="auto">
      <polygon points="0 0, 10 3.5, 0 7" fill="#e74c3c"/>
    </marker>
    
    <!-- Signal animation -->
    <animate id="signalFlow" attributeName="stroke-dashoffset" values="20;0" dur="2s" repeatCount="indefinite"/>
  </defs>

  <!-- Title -->
  <text x="450" y="25" class="title">FM Radio Receiver - Superheterodyne Architecture</text>

  <!-- Antenna -->
  <g transform="translate(50, 80)">
    <line x1="0" y1="40" x2="0" y2="0" class="antenna"/>
    <line x1="-15" y1="15" x2="15" y2="15" class="antenna"/>
    <line x1="-10" y1="25" x2="10" y2="25" class="antenna"/>
    <line x1="-5" y1="35" x2="5" y2="35" class="antenna"/>
    
    <!-- Radio waves -->
    <path d="M-30,20 Q-20,10 -10,20 T10,20 T30,20" class="wave">
      <animate attributeName="d" 
        values="M-30,20 Q-20,10 -10,20 T10,20 T30,20;
                M-30,20 Q-20,30 -10,20 T10,20 T30,20;
                M-30,20 Q-20,10 -10,20 T10,20 T30,20"
        dur="1.5s" repeatCount="indefinite"/>
    </path>
    
    <text x="0" y="60" class="block-text">Antenna</text>
    <text x="0" y="75" class="freq-label">88-108 MHz</text>
  </g>

  <!-- RF Amplifier -->
  <rect x="120" y="60" width="80" height="50" class="block"/>
  <text x="160" y="82" class="block-text">RF</text>
  <text x="160" y="96" class="block-text">Amplifier</text>
  <text x="160" y="125" class="freq-label">88-108 MHz</text>
  <text x="160" y="140" class="description">Amplifies &amp; Selects</text>

  <!-- Mixer -->
  <circle cx="280" cy="85" r="25" class="block"/>
  <text x="280" y="82" class="block-text">Mixer</text>
  <text x="280" y="96" class="block-text">×</text>
  <text x="280" y="125" class="freq-label">fRF × fLO</text>

  <!-- Local Oscillator -->
  <rect x="240" y="150" width="80" height="40" class="block"/>
  <text x="280" y="168" class="block-text">Local</text>
  <text x="280" y="182" class="block-text">Oscillator</text>
  <text x="280" y="205" class="freq-label">98.7-118.7 MHz</text>
  <text x="280" y="220" class="description">fLO = fRF + 10.7</text>

  <!-- IF Amplifier -->
  <rect x="360" y="60" width="80" height="50" class="block"/>
  <text x="400" y="82" class="block-text">IF</text>
  <text x="400" y="96" class="block-text">Amplifier</text>
  <text x="400" y="125" class="freq-label">10.7 MHz</text>
  <text x="400" y="140" class="description">Main Gain &amp; Selectivity</text>

  <!-- Limiter -->
  <rect x="480" y="60" width="80" height="50" class="block"/>
  <text x="520" y="82" class="block-text">Limiter</text>
  <text x="520" y="125" class="freq-label">10.7 MHz</text>
  <text x="520" y="140" class="description">Removes AM Noise</text>

  <!-- FM Detector -->
  <rect x="600" y="60" width="80" height="50" class="block"/>
  <text x="640" y="82" class="block-text">FM</text>
  <text x="640" y="96" class="block-text">Detector</text>
  <text x="640" y="125" class="freq-label">Audio</text>
  <text x="640" y="140" class="description">Ratio/PLL Detector</text>

  <!-- Audio Amplifier -->
  <rect x="720" y="60" width="80" height="50" class="block"/>
  <text x="760" y="82" class="block-text">Audio</text>
  <text x="760" y="96" class="block-text">Amplifier</text>
  <text x="760" y="125" class="freq-label">20Hz-20kHz</text>

  <!-- Speaker -->
  <g transform="translate(830, 85)">
    <polygon points="0,0 15,0 25,-15 25,15 15,0" class="block"/>
    <path d="M30,-10 Q35,-15 40,-10 M30,-5 Q35,-7 40,-5 M30,0 Q35,0 40,0 M30,5 Q35,7 40,5 M30,10 Q35,15 40,10" 
          stroke="#34495e" stroke-width="1" fill="none"/>
    <text x="20" y="35" class="block-text">Speaker</text>
  </g>

  <!-- Signal flow arrows -->
  <path d="M70,85 L115,85" class="signal-path">
    <animate attributeName="stroke-dasharray" values="0,100;10,90;0,100" dur="2s" repeatCount="indefinite"/>
  </path>
  
  <path d="M200,85 L255,85" class="signal-path">
    <animate attributeName="stroke-dasharray" values="0,100;10,90;0,100" dur="2s" repeatCount="indefinite"/>
  </path>
  
  <path d="M305,85 L355,85" class="signal-path">
    <animate attributeName="stroke-dasharray" values="0,100;10,90;0,100" dur="2s" repeatCount="indefinite"/>
  </path>
  
  <path d="M440,85 L475,85" class="signal-path">
    <animate attributeName="stroke-dasharray" values="0,100;10,90;0,100" dur="2s" repeatCount="indefinite"/>
  </path>
  
  <path d="M560,85 L595,85" class="signal-path">
    <animate attributeName="stroke-dasharray" values="0,100;10,90;0,100" dur="2s" repeatCount="indefinite"/>
  </path>
  
  <path d="M680,85 L715,85" class="signal-path">
    <animate attributeName="stroke-dasharray" values="0,100;10,90;0,100" dur="2s" repeatCount="indefinite"/>
  </path>
  
  <path d="M800,85 L825,85" class="signal-path">
    <animate attributeName="stroke-dasharray" values="0,100;10,90;0,100" dur="2s" repeatCount="indefinite"/>
  </path>

  <!-- Local oscillator connection -->
  <path d="M280,150 L280,110" class="signal-path"/>

  <!-- Frequency conversion illustration -->
  <g transform="translate(50, 250)">
    <text x="400" y="20" class="title" style="font-size: 14px;">Frequency Conversion Process</text>
    
    <!-- Input spectrum -->
    <g transform="translate(50, 40)">
      <text x="60" y="15" class="freq-label">RF Input</text>
      <line x1="0" y1="60" x2="120" y2="60" stroke="#333" stroke-width="1"/>
      <rect x="40" y="40" width="8" height="20" fill="#3498db"/>
      <rect x="55" y="35" width="8" height="25" fill="#e74c3c"/>
      <rect x="70" y="45" width="8" height="15" fill="#3498db"/>
      <text x="59" y="75" class="freq-label" style="font-size: 9px;">88-108 MHz</text>
    </g>
    
    <!-- After mixing -->
    <g transform="translate(200, 40)">
      <text x="60" y="15" class="freq-label">After Mixing</text>
      <line x1="0" y1="60" x2="120" y2="60" stroke="#333" stroke-width="1"/>
      <rect x="50" y="35" width="8" height="25" fill="#27ae60"/>
      <text x="54" y="75" class="freq-label" style="font-size: 9px;">10.7 MHz</text>
      <text x="54" y="85" class="freq-label" style="font-size: 8px;">IF</text>
    </g>
    
    <!-- After detection -->
    <g transform="translate(350, 40)">
      <text x="60" y="15" class="freq-label">Audio Output</text>
      <line x1="0" y1="60" x2="120" y2="60" stroke="#333" stroke-width="1"/>
      <path d="M20,60 Q30,45 40,60 T60,60 T80,60 T100,60" stroke="#f39c12" stroke-width="2" fill="none"/>
      <text x="60" y="75" class="freq-label" style="font-size: 9px;">20Hz-20kHz</text>
    </g>
    
    <!-- Arrows between stages -->
    <path d="M170,50 L195,50" stroke="#e74c3c" stroke-width="2" marker-end="url(#arrow)"/>
    <path d="M320,50 L345,50" stroke="#e74c3c" stroke-width="2" marker-end="url(#arrow)"/>
  </g>

  <!-- Key advantages -->
  <g transform="translate(50, 380)">
    <text x="0" y="20" class="title" style="font-size: 14px;">Key Features of FM Reception</text>
    
    <g transform="translate(0, 40)">
      <circle cx="5" cy="5" r="3" fill="#27ae60"/>
      <text x="15" y="9" class="description" style="text-anchor: start;">Fixed IF (10.7 MHz) allows optimized filtering and amplification</text>
    </g>
    
    <g transform="translate(0, 60)">
      <circle cx="5" cy="5" r="3" fill="#27ae60"/>
      <text x="15" y="9" class="description" style="text-anchor: start;">Limiter removes amplitude noise before detection</text>
    </g>
    
    <g transform="translate(0, 80)">
      <circle cx="5" cy="5" r="3" fill="#27ae60"/>
      <text x="15" y="9" class="description" style="text-anchor: start;">Superior noise immunity compared to AM receivers</text>
    </g>
    
    <g transform="translate(400, 40)">
      <circle cx="5" cy="5" r="3" fill="#e74c3c"/>
      <text x="15" y="9" class="description" style="text-anchor: start;">Image frequency rejection: f_image = f_RF + 2×f_IF</text>
    </g>
    
    <g transform="translate(400, 60)">
      <circle cx="5" cy="5" r="3" fill="#e74c3c"/>
      <text x="15" y="9" class="description" style="text-anchor: start;">Tracking requirement: Local oscillator follows RF tuning</text>
    </g>
    
    <g transform="translate(400, 80)">
      <circle cx="5" cy="5" r="3" fill="#e74c3c"/>
      <text x="15" y="9" class="description" style="text-anchor: start;">Capture effect: Stronger signal suppresses weaker ones</text>
    </g>
  </g>
</svg>