<svg viewBox="0 0 800 600" xmlns="http://www.w3.org/2000/svg">
  <!-- Background -->
  <rect width="800" height="600" fill="#f8f9fa"/>
  
  <!-- Title -->
  <text x="400" y="25" text-anchor="middle" font-family="Arial, sans-serif" font-size="18" font-weight="bold" fill="#2c3e50">
    Delta Modulation - Visual Operation
  </text>
  
  <!-- Block Diagram -->
  <g transform="translate(100, 60)">
    <!-- Input signal -->
    <g transform="translate(-50, 40)">
      <path d="M 0 0 Q 10 -15 20 0 T 40 0" stroke="#e74c3c" stroke-width="3" fill="none"/>
      <text x="20" y="-25" text-anchor="middle" font-family="Arial, sans-serif" font-size="12" font-weight="bold" fill="#e74c3c">
        x(t)
      </text>
    </g>
    
    <!-- Comparator -->
    <g transform="translate(50, 20)">
      <circle cx="0" cy="20" r="20" fill="#9b59b6" stroke="#8e44ad" stroke-width="2"/>
      <text x="0" y="26" text-anchor="middle" font-family="Arial, sans-serif" font-size="14" font-weight="bold" fill="white">±</text>
      
      <!-- Input arrows -->
      <polygon points="-25,15 -15,15 -18,12 -18,18" fill="#e74c3c"/>
      <polygon points="-5,45 -5,35 -8,38 -2,38" fill="#3498db"/>
    </g>
    
    <!-- 1-bit Quantizer -->
    <g transform="translate(120, 20)">
      <rect x="0" y="0" width="50" height="40" fill="#27ae60" stroke="#229954" stroke-width="2" rx="5"/>
      <text x="25" y="16" text-anchor="middle" font-family="Arial, sans-serif" font-size="10" font-weight="bold" fill="white">1-bit</text>
      <text x="25" y="28" text-anchor="middle" font-family="Arial, sans-serif" font-size="10" font-weight="bold" fill="white">Quant</text>
      
      <!-- Arrow from comparator -->
      <polygon points="5,20 15,20 12,17 12,23" fill="#9b59b6"/>
    </g>
    
    <!-- Digital output -->
    <g transform="translate(200, 30)">
      <text x="0" y="0" font-family="Arial, sans-serif" font-size="12" font-weight="bold" fill="#27ae60">y(n)</text>
      <g font-family="monospace" font-size="10" fill="#27ae60">
        <text x="0" y="15">1 0 1 1 0 0 1...</text>
      </g>
      
      <!-- Arrow from quantizer -->
      <polygon points="-15,10 -5,10 -8,7 -8,13" fill="#27ae60"/>
    </g>
    
    <!-- Integrator -->
    <g transform="translate(120, 80)">
      <rect x="0" y="0" width="50" height="30" fill="#f39c12" stroke="#e67e22" stroke-width="2" rx="5"/>
      <text x="25" y="20" text-anchor="middle" font-family="Arial, sans-serif" font-size="11" font-weight="bold" fill="white">∫</text>
      
      <!-- Arrow from quantizer down -->
      <polygon points="25,5 25,15 22,12 28,12" fill="#27ae60"/>
    </g>
    
    <!-- Delay -->
    <g transform="translate(200, 80)">
      <rect x="0" y="0" width="40" height="30" fill="#34495e" stroke="#2c3e50" stroke-width="2" rx="5"/>
      <text x="20" y="20" text-anchor="middle" font-family="Arial, sans-serif" font-size="10" font-weight="bold" fill="white">z⁻¹</text>
      
      <!-- Arrow from integrator -->
      <polygon points="-15,15 -5,15 -8,12 -8,18" fill="#f39c12"/>
    </g>
    
    <!-- Feedback line -->
    <g stroke="#3498db" stroke-width="3" fill="none">
      <path d="M 220 80 L 220 60 L 20 60 L 20 65"/>
      <polygon points="20,65 20,75 17,72 23,72" fill="#3498db"/>
    </g>
    
    <text x="120" y="55" text-anchor="middle" font-family="Arial, sans-serif" font-size="10" fill="#3498db">
      Predicted Value
    </text>
  </g>
  
  <!-- Step-by-step visual operation -->
  <g transform="translate(50, 200)">
    <text x="350" y="0" text-anchor="middle" font-family="Arial, sans-serif" font-size="16" font-weight="bold" fill="#2c3e50">
      Step Approximation Process
    </text>
    
    <!-- Original signal -->
    <g transform="translate(0, 30)">
      <text x="0" y="0" font-family="Arial, sans-serif" font-size="12" font-weight="bold" fill="#e74c3c">Original Signal</text>
      
      <!-- Smooth curve -->
      <path d="M 0 40 Q 50 20 100 30 Q 150 35 200 25 Q 250 20 300 30 Q 350 40 400 35 Q 450 30 500 40 Q 550 50 600 45" 
            stroke="#e74c3c" stroke-width="3" fill="none"/>
      
      <!-- Sample points -->
      <g fill="#e74c3c">
        <circle cx="25" cy="35" r="2"/>
        <circle cx="50" cy="30" r="2"/>
        <circle cx="75" cy="28" r="2"/>
        <circle cx="100" cy="30" r="2"/>
        <circle cx="125" cy="32" r="2"/>
        <circle cx="150" cy="35" r="2"/>
        <circle cx="175" cy="30" r="2"/>
        <circle cx="200" cy="25" r="2"/>
        <circle cx="225" cy="22" r="2"/>
        <circle cx="250" cy="20" r="2"/>
      </g>
    </g>
    
    <!-- DM approximation with animation -->
    <g transform="translate(0, 120)">
      <text x="0" y="0" font-family="Arial, sans-serif" font-size="12" font-weight="bold" fill="#9b59b6">DM Approximation</text>
      
      <!-- Step response -->
      <g stroke="#9b59b6" stroke-width="3" fill="none">
        <path d="M 0 40 L 25 35 L 50 30 L 75 35 L 100 30 L 125 25 L 150 30 L 175 25 L 200 20 L 225 25 L 250 20">
          <animate attributeName="d" 
                   values="M 0 40 L 25 35 L 50 30 L 75 35 L 100 30 L 125 25 L 150 30 L 175 25 L 200 20 L 225 25 L 250 20;
                          M 0 40 L 25 40 L 50 35 L 75 30 L 100 35 L 125 30 L 150 25 L 175 30 L 200 25 L 225 20 L 250 25;
                          M 0 40 L 25 35 L 50 30 L 75 35 L 100 30 L 125 25 L 150 30 L 175 25 L 200 20 L 225 25 L 250 20"
                   dur="3s" repeatCount="indefinite"/>
        </path>
      </g>
      
      <!-- Step indicators -->
      <g fill="#9b59b6">
        <rect x="22" y="35" width="6" height="3"/>
        <rect x="47" y="30" width="6" height="3"/>
        <rect x="72" y="35" width="6" height="3"/>
        <rect x="97" y="30" width="6" height="3"/>
        <rect x="122" y="25" width="6" height="3"/>
        <rect x="147" y="30" width="6" height="3"/>
        <rect x="172" y="25" width="6" height="3"/>
        <rect x="197" y="20" width="6" height="3"/>
        <rect x="222" y="25" width="6" height="3"/>
        <rect x="247" y="20" width="6" height="3"/>
      </g>
      
      <!-- Error visualization -->
      <g stroke="#f39c12" stroke-width="1" stroke-dasharray="2,2">
        <line x1="25" y1="35" x2="25" y2="35"/>
        <line x1="50" y1="30" x2="50" y2="30"/>
        <line x1="75" y1="35" x2="75" y2="28"/>
        <line x1="100" y1="30" x2="100" y2="30"/>
        <line x1="125" y1="25" x2="125" y2="32"/>
      </g>
    </g>
    
    <!-- Digital output stream -->
    <g transform="translate(0, 200)">
      <text x="0" y="0" font-family="Arial, sans-serif" font-size="12" font-weight="bold" fill="#27ae60">Digital Output</text>
      
      <!-- Binary sequence with animation -->
      <g font-family="monospace" font-size="14" font-weight="bold">
        <text x="25" y="25" fill="#27ae60">1</text>
        <text x="50" y="25" fill="#27ae60">1</text>
        <text x="75" y="25" fill="#e74c3c">0</text>
        <text x="100" y="25" fill="#27ae60">1</text>
        <text x="125" y="25" fill="#27ae60">1</text>
        <text x="150" y="25" fill="#e74c3c">0</text>
        <text x="175" y="25" fill="#27ae60">1</text>
        <text x="200" y="25" fill="#27ae60">1</text>
        <text x="225" y="25" fill="#e74c3c">0</text>
        <text x="250" y="25" fill="#27ae60">1</text>
        
        <!-- Highlight current bit -->
        <rect x="22" y="10" width="16" height="20" fill="#f1c40f" opacity="0.5">
          <animateTransform attributeName="transform" 
                            type="translate" 
                            values="0,0; 25,0; 50,0; 75,0; 100,0; 125,0; 150,0; 175,0; 200,0; 225,0; 0,0" 
                            dur="5s" repeatCount="indefinite"/>
        </rect>
      </g>
      
      <!-- Bit interpretation -->
      <g transform="translate(0, 45)" font-family="Arial, sans-serif" font-size="9" fill="#666">
        <text x="25" y="0" text-anchor="middle">+Δ</text>
        <text x="50" y="0" text-anchor="middle">+Δ</text>
        <text x="75" y="0" text-anchor="middle">-Δ</text>
        <text x="100" y="0" text-anchor="middle">+Δ</text>
        <text x="125" y="0" text-anchor="middle">+Δ</text>
        <text x="150" y="0" text-anchor="middle">-Δ</text>
        <text x="175" y="0" text-anchor="middle">+Δ</text>
        <text x="200" y="0" text-anchor="middle">+Δ</text>
        <text x="225" y="0" text-anchor="middle">-Δ</text>
        <text x="250" y="0" text-anchor="middle">+Δ</text>
      </g>
    </g>
  </g>
  
  <!-- Slope overload and granular noise illustration -->
  <g transform="translate(450, 350)">
    <text x="0" y="0" font-family="Arial, sans-serif" font-size="14" font-weight="bold" fill="#2c3e50">
      DM Distortion Types
    </text>
    
    <!-- Slope overload -->
    <g transform="translate(0, 30)">
      <text x="0" y="0" font-family="Arial, sans-serif" font-size="11" font-weight="bold" fill="#e74c3c">Slope Overload</text>
      
      <!-- Fast changing signal -->
      <path d="M 0 30 L 20 10 L 40 5" stroke="#e74c3c" stroke-width="2" fill="none"/>
      
      <!-- DM can't follow -->
      <path d="M 0 30 L 10 25 L 20 20 L 30 15 L 40 10" stroke="#9b59b6" stroke-width="2" fill="none"/>
      
      <!-- Error indication -->
      <g stroke="#f39c12" stroke-width="1" stroke-dasharray="2,2">
        <line x1="20" y1="10" x2="20" y2="20"/>
        <line x1="40" y1="5" x2="40" y2="10"/>
      </g>
    </g>
    
    <!-- Granular noise -->
    <g transform="translate(0, 80)">
      <text x="0" y="0" font-family="Arial, sans-serif" font-size="11" font-weight="bold" fill="#f39c12">Granular Noise</text>
      
      <!-- Slowly changing signal -->
      <line x1="0" y1="30" x2="60" y2="32" stroke="#e74c3c" stroke-width="2"/>
      
      <!-- DM oscillates -->
      <path d="M 0 30 L 10 25 L 20 30 L 30 25 L 40 30 L 50 27 L 60 32" stroke="#9b59b6" stroke-width="2" fill="none"/>
      
      <!-- Noise indication -->
      <g stroke="#f39c12" stroke-width="1">
        <circle cx="10" cy="25" r="2" fill="none"/>
        <circle cx="20" cy="30" r="2" fill="none"/>
        <circle cx="30" cy="25" r="2" fill="none"/>
        <circle cx="40" cy="30" r="2" fill="none"/>
      </g>
    </g>
  </g>
  
  <!-- Performance indicators -->
  <g transform="translate(50, 500)">
    <rect x="0" y="0" width="700" height="80" fill="#ecf0f1" stroke="#bdc3c7" stroke-width="1" rx="5"/>
    
    <!-- Advantages -->
    <g transform="translate(20, 20)">
      <text x="0" y="0" font-family="Arial, sans-serif" font-size="12" font-weight="bold" fill="#27ae60">✓</text>
      <text x="15" y="0" font-family="Arial, sans-serif" font-size="11" fill="#27ae60">Simple implementation</text>
      
      <text x="150" y="0" font-family="Arial, sans-serif" font-size="12" font-weight="bold" fill="#27ae60">✓</text>
      <text x="165" y="0" font-family="Arial, sans-serif" font-size="11" fill="#27ae60">1-bit transmission</text>
      
      <text x="280" y="0" font-family="Arial, sans-serif" font-size="12" font-weight="bold" fill="#27ae60">✓</text>
      <text x="295" y="0" font-family="Arial, sans-serif" font-size="11" fill="#27ae60">Low bandwidth</text>
    </g>
    
    <!-- Disadvantages -->
    <g transform="translate(20, 45)">
      <text x="0" y="0" font-family="Arial, sans-serif" font-size="12" font-weight="bold" fill="#e74c3c">✗</text>
      <text x="15" y="0" font-family="Arial, sans-serif" font-size="11" fill="#e74c3c">Slope overload distortion</text>
      
      <text x="180" y="0" font-family="Arial, sans-serif" font-size="12" font-weight="bold" fill="#e74c3c">✗</text>
      <text x="195" y="0" font-family="Arial, sans-serif" font-size="11" fill="#e74c3c">Granular noise</text>
      
      <text x="320" y="0" font-family="Arial, sans-serif" font-size="12" font-weight="bold" fill="#e74c3c">✗</text>
      <text x="335" y="0" font-family="Arial, sans-serif" font-size="11" fill="#e74c3c">High sampling rate</text>
    </g>
  </g>
</svg>