<svg viewBox="0 0 900 700" xmlns="http://www.w3.org/2000/svg">
  <defs>
    <style>
      .title { font: bold 16px Arial; text-anchor: middle; fill: #2c3e50; }
      .subtitle { font: bold 14px Arial; text-anchor: middle; fill: #34495e; }
      .label { font: 11px Arial; fill: #2c3e50; }
      .axis { stroke: #333; stroke-width: 1; }
      .message-signal { stroke: #3498db; stroke-width: 2; fill: none; }
      .pulse-pam { fill: #e74c3c; stroke: #c0392b; stroke-width: 1; }
      .pulse-pwm { fill: #27ae60; stroke: #229954; stroke-width: 1; }
      .pulse-ppm { fill: #f39c12; stroke: #e67e22; stroke-width: 1; }
      .sample-point { fill: #e74c3c; }
      .pulse-edge { stroke: #2c3e50; stroke-width: 2; }
      .time-marker { stroke: #666; stroke-width: 1; stroke-dasharray: 2,2; }
      .comparison-header { font: bold 11px Arial; fill: #2c3e50; }
      .comparison-cell { font: 10px Arial; fill: #666; }
      .advantage { fill: #27ae60; }
      .disadvantage { fill: #e74c3c; }
    </style>
  </defs>

  <!-- Title -->
  <text x="450" y="25" class="title">Pulse Analog Modulation: PAM, PWM, and PPM Comparison</text>

  <!-- Message Signal -->
  <g transform="translate(50, 60)">
    <text x="400" y="20" class="subtitle">Modulating Signal and Pulse Modulation Types</text>
    
    <!-- Message signal -->
    <g transform="translate(0, 40)">
      <text x="0" y="15" class="label">Message Signal m(t)</text>
      <line x1="0" y1="50" x2="300" y2="50" class="axis"/>
      <line x1="0" y1="20" x2="0" y2="80" class="axis"/>
      
      <!-- Smooth analog signal -->
      <path d="M0,50 Q50,25 100,45 Q150,35 200,55 Q250,70 300,40" class="message-signal">
        <animate attributeName="d" 
          values="M0,50 Q50,25 100,45 Q150,35 200,55 Q250,70 300,40;
                  M0,50 Q50,30 100,50 Q150,40 200,60 Q250,65 300,45;
                  M0,50 Q50,25 100,45 Q150,35 200,55 Q250,70 300,40"
          dur="4s" repeatCount="indefinite"/>
      </path>
      
      <!-- Sample points -->
      <circle cx="40" cy="35" r="2" class="sample-point"/>
      <circle cx="80" cy="40" r="2" class="sample-point"/>
      <circle cx="120" cy="42" r="2" class="sample-point"/>
      <circle cx="160" cy="38" r="2" class="sample-point"/>
      <circle cx="200" cy="55" r="2" class="sample-point"/>
      <circle cx="240" cy="65" r="2" class="sample-point"/>
      
      <!-- Time markers -->
      <line x1="40" y1="20" x2="40" y2="90" class="time-marker"/>
      <line x1="80" y1="20" x2="80" y2="90" class="time-marker"/>
      <line x1="120" y1="20" x2="120" y2="90" class="time-marker"/>
      <line x1="160" y1="20" x2="160" y2="90" class="time-marker"/>
      <line x1="200" y1="20" x2="200" y2="90" class="time-marker"/>
      <line x1="240" y1="20" x2="240" y2="90" class="time-marker"/>
      
      <text x="310" y="55" class="label">t</text>
      <text x="-15" y="25" class="label">A</text>
      <text x="-15" y="55" class="label">0</text>
      <text x="-15" y="85" class="label">-A</text>
    </g>
  </g>

  <!-- PAM Section -->
  <g transform="translate(50, 180)">
    <text x="250" y="20" class="subtitle">PAM - Pulse Amplitude Modulation</text>
    
    <g transform="translate(0, 40)">
      <text x="0" y="15" class="label">Amplitude varies with message signal</text>
      <line x1="0" y1="80" x2="300" y2="80" class="axis"/>
      <line x1="0" y1="40" x2="0" y2="120" class="axis"/>
      
      <!-- PAM pulses with varying amplitude -->
      <rect x="35" y="55" width="10" height="25" class="pulse-pam">
        <animate attributeName="height" values="25;30;25" dur="4s" repeatCount="indefinite"/>
        <animate attributeName="y" values="55;50;55" dur="4s" repeatCount="indefinite"/>
      </rect>
      
      <rect x="75" y="60" width="10" height="20" class="pulse-pam">
        <animate attributeName="height" values="20;25;20" dur="4s" repeatCount="indefinite"/>
        <animate attributeName="y" values="60;55;60" dur="4s" repeatCount="indefinite"/>
      </rect>
      
      <rect x="115" y="62" width="10" height="18" class="pulse-pam">
        <animate attributeName="height" values="18;23;18" dur="4s" repeatCount="indefinite"/>
        <animate attributeName="y" values="62;57;62" dur="4s" repeatCount="indefinite"/>
      </rect>
      
      <rect x="155" y="58" width="10" height="22" class="pulse-pam">
        <animate attributeName="height" values="22;27;22" dur="4s" repeatCount="indefinite"/>
        <animate attributeName="y" values="58;53;58" dur="4s" repeatCount="indefinite"/>
      </rect>
      
      <rect x="195" y="65" width="10" height="15" class="pulse-pam">
        <animate attributeName="height" values="15;20;15" dur="4s" repeatCount="indefinite"/>
        <animate attributeName="y" values="65;60;65" dur="4s" repeatCount="indefinite"/>
      </rect>
      
      <rect x="235" y="70" width="10" height="10" class="pulse-pam">
        <animate attributeName="height" values="10;15;10" dur="4s" repeatCount="indefinite"/>
        <animate attributeName="y" values="70;65;70" dur="4s" repeatCount="indefinite"/>
      </rect>
      
      <!-- Fixed pulse width indicators -->
      <path d="M35,130 L45,130" stroke="#666" stroke-width="1"/>
      <path d="M75,130 L85,130" stroke="#666" stroke-width="1"/>
      <text x="60" y="145" class="label" style="font-size: 9px;">Fixed Width</text>
      
      <text x="310" y="85" class="label">t</text>
      <text x="150" y="15" class="label" style="fill: #e74c3c;">Variable Amplitude</text>
    </g>
  </g>

  <!-- PWM Section -->
  <g transform="translate(400, 180)">
    <text x="200" y="20" class="subtitle">PWM - Pulse Width Modulation</text>
    
    <g transform="translate(0, 40)">
      <text x="0" y="15" class="label">Width varies with message signal</text>
      <line x1="0" y1="80" x2="250" y2="80" class="axis"/>
      <line x1="0" y1="40" x2="0" y2="120" class="axis"/>
      
      <!-- PWM pulses with varying width -->
      <rect x="30" y="60" width="25" height="20" class="pulse-pwm">
        <animate attributeName="width" values="25;30;25" dur="4s" repeatCount="indefinite"/>
      </rect>
      
      <rect x="70" y="60" width="20" height="20" class="pulse-pwm">
        <animate attributeName="width" values="20;25;20" dur="4s" repeatCount="indefinite"/>
      </rect>
      
      <rect x="110" y="60" width="18" height="20" class="pulse-pwm">
        <animate attributeName="width" values="18;23;18" dur="4s" repeatCount="indefinite"/>
      </rect>
      
      <rect x="150" y="60" width="22" height="20" class="pulse-pwm">
        <animate attributeName="width" values="22;27;22" dur="4s" repeatCount="indefinite"/>
      </rect>
      
      <rect x="190" y="60" width="15" height="20" class="pulse-pwm">
        <animate attributeName="width" values="15;20;15" dur="4s" repeatCount="indefinite"/>
      </rect>
      
      <!-- Fixed amplitude indicator -->
      <path d="M270,60 L270,80" stroke="#666" stroke-width="1"/>
      <text x="275" y="75" class="label" style="font-size: 9px;">Fixed</text>
      <text x="275" y="65" class="label" style="font-size: 9px;">Amplitude</text>
      
      <text x="260" y="85" class="label">t</text>
      <text x="125" y="15" class="label" style="fill: #27ae60;">Variable Width</text>
    </g>
  </g>

  <!-- PPM Section -->
  <g transform="translate(700, 180)">
    <text x="150" y="20" class="subtitle">PPM - Pulse Position Modulation</text>
    
    <g transform="translate(0, 40)">
      <text x="0" y="15" class="label">Position varies with message signal</text>
      <line x1="0" y1="80" x2="200" y2="80" class="axis"/>
      <line x1="0" y1="40" x2="0" y2="120" class="axis"/>
      
      <!-- Reference time markers -->
      <line x1="30" y1="40" x2="30" y2="120" class="time-marker"/>
      <line x1="60" y1="40" x2="60" y2="120" class="time-marker"/>
      <line x1="90" y1="40" x2="90" y2="120" class="time-marker"/>
      <line x1="120" y1="40" x2="120" y2="120" class="time-marker"/>
      <line x1="150" y1="40" x2="150" y2="120" class="time-marker"/>
      
      <!-- PPM pulses with varying position -->
      <rect x="25" y="60" width="10" height="20" class="pulse-ppm">
        <animate attributeName="x" values="25;22;25" dur="4s" repeatCount="indefinite"/>
      </rect>
      
      <rect x="58" y="60" width="10" height="20" class="pulse-ppm">
        <animate attributeName="x" values="58;55;58" dur="4s" repeatCount="indefinite"/>
      </rect>
      
      <rect x="92" y="60" width="10" height="20" class="pulse-ppm">
        <animate attributeName="x" values="92;89;92" dur="4s" repeatCount="indefinite"/>
      </rect>
      
      <rect x="118" y="60" width="10" height="20" class="pulse-ppm">
        <animate attributeName="x" values="118;121;118" dur="4s" repeatCount="indefinite"/>
      </rect>
      
      <rect x="152" y="60" width="10" height="20" class="pulse-ppm">
        <animate attributeName="x" values="152;155;152" dur="4s" repeatCount="indefinite"/>
      </rect>
      
      <!-- Position variation arrows -->
      <path d="M35,100 L25,100" stroke="#f39c12" stroke-width="1" marker-end="url(#arrow-small)"/>
      <path d="M25,100 L35,100" stroke="#f39c12" stroke-width="1" marker-end="url(#arrow-small)"/>
      <text x="30" y="115" class="label" style="font-size: 8px;">Position</text>
      <text x="30" y="125" class="label" style="font-size: 8px;">Shift</text>
      
      <text x="210" y="85" class="label">t</text>
      <text x="100" y="15" class="label" style="fill: #f39c12;">Variable Position</text>
    </g>
  </g>

  <!-- Comparison Table -->
  <g transform="translate(50, 380)">
    <text x="400" y="20" class="subtitle">Detailed Comparison of PAM, PWM, and PPM</text>
    
    <!-- Table structure -->
    <rect x="0" y="40" width="800" height="220" fill="#f8f9fa" stroke="#dee2e6" stroke-width="1"/>
    
    <!-- Headers -->
    <rect x="0" y="40" width="800" height="25" fill="#ecf0f1" stroke="#bdc3c7"/>
    <text x="100" y="57" class="comparison-header">Parameter</text>
    <text x="250" y="57" class="comparison-header">PAM</text>
    <text x="400" y="57" class="comparison-header">PWM</text>
    <text x="550" y="57" class="comparison-header">PPM</text>
    
    <!-- Vertical separators -->
    <line x1="180" y1="40" x2="180" y2="260" stroke="#bdc3c7"/>
    <line x1="330" y1="40" x2="330" y2="260" stroke="#bdc3c7"/>
    <line x1="480" y1="40" x2="480" y2="260" stroke="#bdc3c7"/>
    
    <!-- Row separators -->
    <line x1="0" y1="85" x2="800" y2="85" stroke="#dee2e6"/>
    <line x1="0" y1="110" x2="800" y2="110" stroke="#dee2e6"/>
    <line x1="0" y1="135" x2="800" y2="135" stroke="#dee2e6"/>
    <line x1="0" y1="160" x2="800" y2="160" stroke="#dee2e6"/>
    <line x1="0" y1="185" x2="800" y2="185" stroke="#dee2e6"/>
    <line x1="0" y1="210" x2="800" y2="210" stroke="#dee2e6"/>
    <line x1="0" y1="235" x2="800" y2="235" stroke="#dee2e6"/>
    
    <!-- Table content -->
    <text x="20" y="80" class="comparison-cell">Parameter Varied</text>
    <text x="200" y="80" class="comparison-cell">Amplitude</text>
    <text x="350" y="80" class="comparison-cell">Width/Duration</text>
    <text x="500" y="80" class="comparison-cell">Position/Timing</text>
    
    <text x="20" y="105" class="comparison-cell">Noise Immunity</text>
    <text x="200" y="105" class="comparison-cell disadvantage">Poor</text>
    <text x="350" y="105" class="comparison-cell advantage">Good</text>
    <text x="500" y="105" class="comparison-cell advantage">Excellent</text>
    
    <text x="20" y="130" class="comparison-cell">Bandwidth</text>
    <text x="200" y="130" class="comparison-cell advantage">Lower</text>
    <text x="350" y="130" class="comparison-cell">Higher</text>
    <text x="500" y="130" class="comparison-cell disadvantage">Highest</text>
    
    <text x="20" y="155" class="comparison-cell">Power Efficiency</text>
    <text x="200" y="155" class="comparison-cell disadvantage">Low</text>
    <text x="350" y="155" class="comparison-cell">Medium</text>
    <text x="500" y="155" class="comparison-cell advantage">High</text>
    
    <text x="20" y="180" class="comparison-cell">Demodulation</text>
    <text x="200" y="180" class="comparison-cell advantage">Simple</text>
    <text x="350" y="180" class="comparison-cell">Moderate</text>
    <text x="500" y="180" class="comparison-cell disadvantage">Complex</text>
    
    <text x="20" y="205" class="comparison-cell">Implementation</text>
    <text x="200" y="205" class="comparison-cell advantage">Simple</text>
    <text x="350" y="205" class="comparison-cell">Moderate</text>
    <text x="500" y="205" class="comparison-cell disadvantage">Complex</text>
    
    <text x="20" y="230" class="comparison-cell">Applications</text>
    <text x="200" y="230" class="comparison-cell">TDM, Basic systems</text>
    <text x="350" y="230" class="comparison-cell">Motor control, Power</text>
    <text x="500" y="230" class="comparison-cell">Telemetry, Radar</text>
    
    <text x="20" y="255" class="comparison-cell">Sync Requirement</text>
    <text x="200" y="255" class="comparison-cell advantage">Low</text>
    <text x="350" y="255" class="comparison-cell">Medium</text>
    <text x="500" y="255" class="comparison-cell disadvantage">High</text>
  </g>

  <!-- Key Advantages -->
  <g transform="translate(50, 650)">
    <text x="400" y="15" class="subtitle">Key Points Summary</text>
    
    <g transform="translate(0, 25)">
      <circle cx="10" cy="10" r="5" fill="#e74c3c"/>
      <text x="25" y="14" class="label">PAM: Simplest to implement but susceptible to noise affecting amplitude</text>
      
      <circle cx="300" cy="10" r="5" fill="#27ae60"/>
      <text x="315" y="14" class="label">PWM: Good noise immunity, widely used in power control applications</text>
      
      <circle cx="650" cy="10" r="5" fill="#f39c12"/>
      <text x="665" y="14" class="label">PPM: Best noise immunity but requires precise timing and synchronization</text>
    </g>
  </g>

  <!-- Arrow markers -->
  <defs>
    <marker id="arrow-small" markerWidth="6" markerHeight="4" refX="5" refY="2" orient="auto">
      <polygon points="0 0, 6 2, 0 4" fill="#f39c12"/>
    </marker>
  </defs>
</svg>