<svg viewBox="0 0 800 600" xmlns="http://www.w3.org/2000/svg">
  <defs>
    <style>
      .title { font: bold 16px Arial; text-anchor: middle; fill: #2c3e50; }
      .subtitle { font: bold 14px Arial; text-anchor: middle; fill: #34495e; }
      .label { font: 11px Arial; fill: #2c3e50; }
      .axis { stroke: #333; stroke-width: 1; }
      .grid { stroke: #ddd; stroke-width: 0.5; }
      .original-signal { stroke: #3498db; stroke-width: 2; fill: none; }
      .sampled-signal { stroke: #e74c3c; stroke-width: 2; fill: none; }
      .reconstructed { stroke: #27ae60; stroke-width: 2; fill: none; }
      .aliased { stroke: #f39c12; stroke-width: 2; fill: none; }
      .sample-point { fill: #e74c3c; }
      .spectrum { fill: #9b59b6; stroke: #8e44ad; stroke-width: 1; }
      .equation { font: 12px monospace; fill: #8b0000; }
      .condition { font: 10px Arial; fill: #666; }
      .freq-label { font: 9px Arial; text-anchor: middle; fill: #666; }
    </style>
  </defs>

  <!-- Title -->
  <text x="400" y="25" class="title">Nyquist Sampling Theorem - Criteria and Consequences</text>

  <!-- Nyquist Criteria Section -->
  <g transform="translate(50, 50)">
    <text x="350" y="20" class="subtitle">Nyquist Sampling Criteria</text>

    <!-- Main equation box -->
    <rect x="200" y="40" width="300" height="60" fill="#ecf0f1" stroke="#34495e" stroke-width="2" rx="8"/>
    <text x="350" y="65" class="equation" text-anchor="middle">f_s ≥ 2 × f_max</text>
    <text x="350" y="85" class="label" text-anchor="middle">Sampling Rate ≥ 2 × Highest Frequency</text>

    <!-- Parameter definitions -->
    <g transform="translate(0, 120)">
      <text x="100" y="20" class="label">Where:</text>
      <text x="100" y="40" class="equation">f_s = Sampling frequency (Hz)</text>
      <text x="100" y="60" class="equation">f_max = Highest frequency in signal (Hz)</text>
      <text x="100" y="80" class="equation">f_Nyquist = 2 × f_max (Nyquist rate)</text>
      <text x="100" y="100" class="equation">T_s = 1/f_s = Sampling interval</text>
    </g>

    <!-- Consequences -->
    <g transform="translate(400, 120)">
      <text x="100" y="20" class="label">Consequences:</text>
      <text x="100" y="40" class="condition">If f_s ≥ 2f_max: Perfect reconstruction possible</text>
      <text x="100" y="60" class="condition">If f_s &lt; 2f_max: Aliasing occurs</text>
      <text x="100" y="80" class="condition">Aliasing = High frequencies appear as low frequencies</text>
      <text x="100" y="100" class="condition">Aliasing distortion cannot be removed after sampling</text>
    </g>
  </g>

  <!-- Proper Sampling Example -->
  <g transform="translate(50, 280)">
    <text x="200" y="20" class="subtitle">Proper Sampling (f_s > 2f_max)</text>

    <!-- Original signal -->
    <g transform="translate(0, 40)">
      <text x="0" y="15" class="label">Original Signal</text>
      <line x1="0" y1="40" x2="300" y2="40" class="axis"/>
      <line x1="0" y1="10" x2="0" y2="70" class="axis"/>

      <!-- High frequency sine wave -->
      <path d="M0,40 Q15,20 30,40 Q45,60 60,40 Q75,20 90,40 Q105,60 120,40 Q135,20 150,40 Q165,60 180,40 Q195,20 210,40 Q225,60 240,40 Q255,20 270,40 Q285,60 300,40" class="original-signal">
        <animate attributeName="d" 
          values="M0,40 Q15,20 30,40 Q45,60 60,40 Q75,20 90,40 Q105,60 120,40 Q135,20 150,40 Q165,60 180,40 Q195,20 210,40 Q225,60 240,40 Q255,20 270,40 Q285,60 300,40;
                  M0,40 Q15,60 30,40 Q45,20 60,40 Q75,60 90,40 Q105,20 120,40 Q135,60 150,40 Q165,20 180,40 Q195,60 210,40 Q225,20 240,40 Q255,60 270,40 Q285,20 300,40;
                  M0,40 Q15,20 30,40 Q45,60 60,40 Q75,20 90,40 Q105,60 120,40 Q135,20 150,40 Q165,60 180,40 Q195,20 210,40 Q225,60 240,40 Q255,20 270,40 Q285,60 300,40"
          dur="2s" repeatCount="indefinite"/>
      </path>

      <!-- Sample points -->
      <circle cx="0" cy="40" r="3" class="sample-point"/>
      <circle cx="20" cy="28" r="3" class="sample-point"/>
      <circle cx="40" cy="52" r="3" class="sample-point"/>
      <circle cx="60" cy="40" r="3" class="sample-point"/>
      <circle cx="80" cy="28" r="3" class="sample-point"/>
      <circle cx="100" cy="52" r="3" class="sample-point"/>
      <circle cx="120" cy="40" r="3" class="sample-point"/>
      <circle cx="140" cy="28" r="3" class="sample-point"/>
      <circle cx="160" cy="52" r="3" class="sample-point"/>
      <circle cx="180" cy="40" r="3" class="sample-point"/>
      <circle cx="200" cy="28" r="3" class="sample-point"/>
      <circle cx="220" cy="52" r="3" class="sample-point"/>
      <circle cx="240" cy="40" r="3" class="sample-point"/>
      <circle cx="260" cy="28" r="3" class="sample-point"/>
      <circle cx="280" cy="52" r="3" class="sample-point"/>
      <circle cx="300" cy="40" r="3" class="sample-point"/>

      <!-- Sampling interval indicators -->
      <path d="M0,80 L20,80" stroke="#666" stroke-width="1" marker-end="url(#arrow)"/>
      <path d="M20,80 L0,80" stroke="#666" stroke-width="1" marker-end="url(#arrow)"/>
      <text x="10" y="95" class="freq-label">T_s</text>

      <text x="310" y="45" class="label">t</text>
      <text x="150" y="0" class="condition">f = f_max, f_s = 3f_max</text>
    </g>

    <!-- Reconstructed signal -->
    <g transform="translate(400, 40)">
      <text x="0" y="15" class="label">Reconstructed Signal</text>
      <line x1="0" y1="40" x2="300" y2="40" class="axis"/>
      <line x1="0" y1="10" x2="0" y2="70" class="axis"/>

      <!-- Perfect reconstruction -->
      <path d="M0,40 Q15,20 30,40 Q45,60 60,40 Q75,20 90,40 Q105,60 120,40 Q135,20 150,40 Q165,60 180,40 Q195,20 210,40 Q225,60 240,40 Q255,20 270,40 Q285,60 300,40" class="reconstructed">
        <animate attributeName="d" 
          values="M0,40 Q15,20 30,40 Q45,60 60,40 Q75,20 90,40 Q105,60 120,40 Q135,20 150,40 Q165,60 180,40 Q195,20 210,40 Q225,60 240,40 Q255,20 270,40 Q285,60 300,40;
                  M0,40 Q15,60 30,40 Q45,20 60,40 Q75,60 90,40 Q105,20 120,40 Q135,60 150,40 Q165,20 180,40 Q195,60 210,40 Q225,20 240,40 Q255,60 270,40 Q285,20 300,40;
                  M0,40 Q15,20 30,40 Q45,60 60,40 Q75,20 90,40 Q105,60 120,40 Q135,20 150,40 Q165,60 180,40 Q195,20 210,40 Q225,60 240,40 Q255,20 270,40 Q285,60 300,40"
          dur="2s" repeatCount="indefinite"/>
      </path>

      <text x="310" y="45" class="label">t</text>
      <text x="120" y="0" class="condition">Perfect Reconstruction</text>
    </g>
  </g>

  <!-- Aliasing Example -->
  <g transform="translate(50, 420)">
    <text x="200" y="20" class="subtitle">Aliasing (f_s &lt; 2f_max)</text>

    <!-- Original high frequency signal -->
    <g transform="translate(0, 40)">
      <text x="0" y="15" class="label">High Frequency Signal</text>
      <line x1="0" y1="40" x2="300" y2="40" class="axis"/>
      <line x1="0" y1="10" x2="0" y2="70" class="axis"/>

      <!-- Very high frequency signal -->
      <path d="M0,40 C5,20 10,60 15,40 C20,20 25,60 30,40 C35,20 40,60 45,40 C50,20 55,60 60,40 C65,20 70,60 75,40 C80,20 85,60 90,40 C95,20 100,60 105,40 C110,20 115,60 120,40 C125,20 130,60 135,40 C140,20 145,60 150,40 C155,20 160,60 165,40 C170,20 175,60 180,40 C185,20 190,60 195,40 C200,20 205,60 210,40 C215,20 220,60 225,40 C230,20 235,60 240,40 C245,20 250,60 255,40 C260,20 265,60 270,40 C275,20 280,60 285,40 C290,20 295,60 300,40" class="original-signal">
        <animate attributeName="d" 
          values="M0,40 C5,20 10,60 15,40 C20,20 25,60 30,40 C35,20 40,60 45,40 C50,20 55,60 60,40 C65,20 70,60 75,40 C80,20 85,60 90,40 C95,20 100,60 105,40 C110,20 115,60 120,40 C125,20 130,60 135,40 C140,20 145,60 150,40 C155,20 160,60 165,40 C170,20 175,60 180,40 C185,20 190,60 195,40 C200,20 205,60 210,40 C215,20 220,60 225,40 C230,20 235,60 240,40 C245,20 250,60 255,40 C260,20 265,60 270,40 C275,20 280,60 285,40 C290,20 295,60 300,40;
                  M0,40 C5,60 10,20 15,40 C20,60 25,20 30,40 C35,60 40,20 45,40 C50,60 55,20 60,40 C65,60 70,20 75,40 C80,60 85,20 90,40 C95,60 100,20 105,40 C110,60 115,20 120,40 C125,60 130,20 135,40 C140,60 145,20 150,40 C155,60 160,20 165,40 C170,60 175,20 180,40 C185,60 190,20 195,40 C200,60 205,20 210,40 C215,60 220,20 225,40 C230,60 235,20 240,40 C245,60 250,20 255,40 C260,60 265,20 270,40 C275,60 280,20 285,40 C290,60 295,20 300,40;
                  M0,40 C5,20 10,60 15,40 C20,20 25,60 30,40 C35,20 40,60 45,40 C50,20 55,60 60,40 C65,20 70,60 75,40 C80,20 85,60 90,40 C95,20 100,60 105,40 C110,20 115,60 120,40 C125,20 130,60 135,40 C140,20 145,60 150,40 C155,20 160,60 165,40 C170,20 175,60 180,40 C185,20 190,60 195,40 C200,20 205,60 210,40 C215,20 220,60 225,40 C230,20 235,60 240,40 C245,20 250,60 255,40 C260,20 265,60 270,40 C275,20 280,60 285,40 C290,20 295,60 300,40"
          dur="1s" repeatCount="indefinite"/>
      </path>

      <!-- Sparse sample points (undersampling) -->
      <circle cx="0" cy="40" r="3" class="sample-point"/>
      <circle cx="60" cy="40" r="3" class="sample-point"/>
      <circle cx="120" cy="40" r="3" class="sample-point"/>
      <circle cx="180" cy="40" r="3" class="sample-point"/>
      <circle cx="240" cy="40" r="3" class="sample-point"/>
      <circle cx="300" cy="40" r="3" class="sample-point"/>

      <!-- Large sampling interval -->
      <path d="M0,80 L60,80" stroke="#666" stroke-width="1" marker-end="url(#arrow)"/>
      <path d="M60,80 L0,80" stroke="#666" stroke-width="1" marker-end="url(#arrow)"/>
      <text x="30" y="95" class="freq-label">T_s (large)</text>

      <text x="310" y="45" class="label">t</text>
      <text x="130" y="0" class="condition">f = 5f_max, f_s = 1.2f_max</text>
    </g>

    <!-- Aliased reconstruction -->
    <g transform="translate(400, 40)">
      <text x="0" y="15" class="label">Aliased Reconstruction</text>
      <line x1="0" y1="40" x2="300" y2="40" class="axis"/>
      <line x1="0" y1="10" x2="0" y2="70" class="axis"/>

      <!-- Low frequency aliased signal -->
      <path d="M0,40 Q75,40 150,40 Q225,40 300,40" class="aliased" stroke-dasharray="5,5">
        <animate attributeName="d" 
          values="M0,40 Q75,40 150,40 Q225,40 300,40;
                  M0,40 Q75,20 150,40 Q225,60 300,40;
                  M0,40 Q75,40 150,40 Q225,40 300,40"
          dur="4s" repeatCount="indefinite"/>
      </path>

      <text x="310" y="45" class="label">t</text>
      <text x="100" y="0" class="condition">Appears as Low Frequency!</text>
      <text x="120" y="75" class="condition">f_alias = |f_s - f_original|</text>
    </g>
  </g>

  <!-- Frequency Domain Illustration -->
  <g transform="translate(50, 540)">
    <text x="350" y="15" class="subtitle">Prevention: Anti-aliasing Filter</text>

    <!-- Before filtering -->
    <g transform="translate(0, 25)">
      <text x="100" y="15" class="label">Before Anti-aliasing Filter</text>
      <line x1="0" y1="40" x2="200" y2="40" class="axis"/>
      <line x1="0" y1="20" x2="0" y2="45" class="axis"/>

      <!-- Signal spectrum with high frequencies -->
      <rect x="20" y="25" width="8" height="15" class="spectrum"/>
      <rect x="40" y="20" width="8" height="20" class="spectrum"/>
      <rect x="60" y="15" width="8" height="25" class="spectrum"/>
      <rect x="80" y="30" width="8" height="10" class="spectrum"/>
      <rect x="100" y="35" width="8" height="5" class="spectrum"/>
      <rect x="120" y="32" width="8" height="8" class="spectrum"/>
      <rect x="140" y="28" width="8" height="12" class="spectrum"/>
      <rect x="160" y="25" width="8" height="15" class="spectrum"/>

      <!-- Nyquist frequency line -->
      <line x1="100" y1="15" x2="100" y2="50" stroke="#e74c3c" stroke-width="2" stroke-dasharray="3,3"/>
      <text x="102" y="12" class="freq-label" style="fill: #e74c3c;">f_s/2</text>

      <text x="210" y="45" class="label">f</text>
      <text x="50" y="60" class="condition">Components above f_s/2 cause aliasing</text>
    </g>

    <!-- After filtering -->
    <g transform="translate(300, 25)">
      <text x="100" y="15" class="label">After Anti-aliasing Filter</text>
      <line x1="0" y1="40" x2="200" y2="40" class="axis"/>
      <line x1="0" y1="20" x2="0" y2="45" class="axis"/>

      <!-- Filtered spectrum -->
      <rect x="20" y="25" width="8" height="15" class="spectrum"/>
      <rect x="40" y="20" width="8" height="20" class="spectrum"/>
      <rect x="60" y="15" width="8" height="25" class="spectrum"/>
      <rect x="80" y="30" width="8" height="10" class="spectrum"/>

      <!-- No components beyond Nyquist -->
      <line x1="100" y1="15" x2="100" y2="50" stroke="#27ae60" stroke-width="2" stroke-dasharray="3,3"/>
      <text x="102" y="12" class="freq-label" style="fill: #27ae60;">f_s/2</text>

      <text x="210" y="45" class="label">f</text>
      <text x="50" y="60" class="condition">No aliasing - safe sampling</text>
    </g>

    <!-- Arrow between them -->
    <g transform="translate(250, 35)">
      <path d="M0,5 L30,5" stroke="#34495e" stroke-width="2" marker-end="url(#arrow)"/>
      <text x="15" y="0" class="label" text-anchor="middle" style="font-size: 9px;">LPF</text>
    </g>
  </g>

  <!-- Arrow marker definition -->
  <defs>
    <marker id="arrow" markerWidth="8" markerHeight="6" refX="7" refY="3" orient="auto">
      <polygon points="0 0, 8 3, 0 6" fill="#666"/>
    </marker>
  </defs>
</svg>