<svg viewBox="0 0 1000 800" xmlns="http://www.w3.org/2000/svg">
  <!-- Background -->
  <rect width="1000" height="800" fill="#f8f9fa"/>
  
  <!-- Title -->
  <text x="500" y="30" text-anchor="middle" font-family="Arial, sans-serif" font-size="20" font-weight="bold" fill="#2c3e50">
    Digital Modulation Comparison - PCM vs DM vs DPCM
  </text>
  
  <!-- PCM Section -->
  <g transform="translate(50, 70)">
    <rect x="0" y="0" width="280" height="200" fill="#e8f4fd" stroke="#3498db" stroke-width="2" rx="10"/>
    
    <text x="140" y="25" text-anchor="middle" font-family="Arial, sans-serif" font-size="16" font-weight="bold" fill="#3498db">
      Pulse Code Modulation (PCM)
    </text>
    
    <!-- PCM Block Diagram -->
    <g transform="translate(20, 40)">
      <rect x="0" y="0" width="50" height="30" fill="#3498db" stroke="#2980b9" stroke-width="1" rx="3"/>
      <text x="25" y="18" text-anchor="middle" font-family="Arial, sans-serif" font-size="9" font-weight="bold" fill="white">Sampler</text>
      
      <rect x="70" y="0" width="50" height="30" fill="#3498db" stroke="#2980b9" stroke-width="1" rx="3"/>
      <text x="95" y="18" text-anchor="middle" font-family="Arial, sans-serif" font-size="9" font-weight="bold" fill="white">Quantizer</text>
      
      <rect x="140" y="0" width="50" height="30" fill="#3498db" stroke="#2980b9" stroke-width="1" rx="3"/>
      <text x="165" y="18" text-anchor="middle" font-family="Arial, sans-serif" font-size="9" font-weight="bold" fill="white">Encoder</text>
      
      <!-- Arrows -->
      <polygon points="55,15 62,12 62,18" fill="#2980b9"/>
      <polygon points="125,15 132,12 132,18" fill="#2980b9"/>
      <polygon points="195,15 202,12 202,18" fill="#2980b9"/>
      
      <text x="210" y="18" font-family="Arial, sans-serif" font-size="9" fill="#2980b9">Digital Output</text>
    </g>
    
    <!-- PCM Waveform -->
    <g transform="translate(20, 80)">
      <text x="0" y="0" font-family="Arial, sans-serif" font-size="10" font-weight="bold" fill="#3498db">Sample Values:</text>
      
      <!-- Quantization levels -->
      <g stroke="#ccc" stroke-width="1">
        <line x1="0" y1="10" x2="200" y2="10"/>
        <line x1="0" y1="20" x2="200" y2="20"/>
        <line x1="0" y1="30" x2="200" y2="30"/>
        <line x1="0" y1="40" x2="200" y2="40"/>
        <line x1="0" y1="50" x2="200" y2="50"/>
        <line x1="0" y1="60" x2="200" y2="60"/>
        <line x1="0" y1="70" x2="200" y2="70"/>
        <line x1="0" y1="80" x2="200" y2="80"/>
      </g>
      
      <!-- Digital codes -->
      <g font-family="monospace" font-size="8" fill="#3498db">
        <text x="20" y="95">101</text>
        <text x="40" y="95">110</text>
        <text x="60" y="95">111</text>
        <text x="80" y="95">110</text>
        <text x="100" y="95">100</text>
        <text x="120" y="95">010</text>
        <text x="140" y="95">001</text>
        <text x="160" y="95">010</text>
      </g>
      
      <!-- Sample points -->
      <g fill="#3498db">
        <circle cx="20" cy="30" r="2"/>
        <circle cx="40" cy="20" r="2"/>
        <circle cx="60" cy="10" r="2"/>
        <circle cx="80" cy="20" r="2"/>
        <circle cx="100" cy="40" r="2"/>
        <circle cx="120" cy="60" r="2"/>
        <circle cx="140" cy="70" r="2"/>
        <circle cx="160" cy="60" r="2"/>
      </g>
    </g>
    
    <!-- PCM Characteristics -->
    <g transform="translate(20, 180)">
      <text x="0" y="0" font-family="Arial, sans-serif" font-size="10" font-weight="bold" fill="#3498db">Key Features:</text>
      <text x="0" y="15" font-family="Arial, sans-serif" font-size="9" fill="#333">• 8-16 bits per sample</text>
      <text x="140" y="15" font-family="Arial, sans-serif" font-size="9" fill="#333">• High quality</text>
      <text x="0" y="28" font-family="Arial, sans-serif" font-size="9" fill="#333">• Large bandwidth</text>
      <text x="140" y="28" font-family="Arial, sans-serif" font-size="9" fill="#333">• Complex hardware</text>
    </g>
  </g>
  
  <!-- DM Section -->
  <g transform="translate(360, 70)">
    <rect x="0" y="0" width="280" height="200" fill="#f4e8fd" stroke="#9b59b6" stroke-width="2" rx="10"/>
    
    <text x="140" y="25" text-anchor="middle" font-family="Arial, sans-serif" font-size="16" font-weight="bold" fill="#9b59b6">
      Delta Modulation (DM)
    </text>
    
    <!-- DM Block Diagram -->
    <g transform="translate(20, 40)">
      <circle cx="30" cy="15" r="15" fill="#9b59b6" stroke="#8e44ad" stroke-width="1"/>
      <text x="30" y="18" text-anchor="middle" font-family="Arial, sans-serif" font-size="8" font-weight="bold" fill="white">COMP</text>
      
      <rect x="60" y="0" width="40" height="30" fill="#9b59b6" stroke="#8e44ad" stroke-width="1" rx="3"/>
      <text x="80" y="12" text-anchor="middle" font-family="Arial, sans-serif" font-size="8" font-weight="bold" fill="white">1-bit</text>
      <text x="80" y="22" text-anchor="middle" font-family="Arial, sans-serif" font-size="8" font-weight="bold" fill="white">Quant</text>
      
      <rect x="120" y="0" width="40" height="30" fill="#9b59b6" stroke="#8e44ad" stroke-width="1" rx="3"/>
      <text x="140" y="18" text-anchor="middle" font-family="Arial, sans-serif" font-size="9" font-weight="bold" fill="white">Integrator</text>
      
      <rect x="180" y="0" width="40" height="30" fill="#9b59b6" stroke="#8e44ad" stroke-width="1" rx="3"/>
      <text x="200" y="18" text-anchor="middle" font-family="Arial, sans-serif" font-size="9" font-weight="bold" fill="white">Delay</text>
      
      <!-- Feedback line -->
      <path d="M 200 35 L 200 50 L 30 50 L 30 30" stroke="#8e44ad" stroke-width="2" fill="none" marker-end="url(#arrowhead-purple)"/>
      
      <!-- Forward arrows -->
      <polygon points="48,15 55,12 55,18" fill="#8e44ad"/>
      <polygon points="105,15 112,12 112,18" fill="#8e44ad"/>
      <polygon points="165,15 172,12 172,18" fill="#8e44ad"/>
      
      <text x="230" y="18" font-family="Arial, sans-serif" font-size="9" fill="#9b59b6">1 or 0</text>
    </g>
    
    <!-- DM Waveform -->
    <g transform="translate(20, 80)">
      <text x="0" y="0" font-family="Arial, sans-serif" font-size="10" font-weight="bold" fill="#9b59b6">Step Response:</text>
      
      <!-- Original signal -->
      <path d="M 0 40 Q 25 20 50 40 T 100 40 T 150 40 T 200 40" 
            fill="none" stroke="#e74c3c" stroke-width="2" stroke-dasharray="3,3"/>
      
      <!-- DM approximation -->
      <path d="M 0 40 L 10 35 L 20 30 L 30 25 L 40 30 L 50 35 L 60 40 L 70 45 L 80 50 L 90 45 L 100 40 L 110 35 L 120 30 L 130 35 L 140 40 L 150 45 L 160 50 L 170 45 L 180 40 L 190 35 L 200 40" 
            fill="none" stroke="#9b59b6" stroke-width="2"/>
      
      <!-- Digital output -->
      <g font-family="monospace" font-size="8" fill="#9b59b6">
        <text x="5" y="75">1</text>
        <text x="15" y="75">1</text>
        <text x="25" y="75">1</text>
        <text x="35" y="75">0</text>
        <text x="45" y="75">0</text>
        <text x="55" y="75">0</text>
        <text x="65" y="75">0</text>
        <text x="75" y="75">0</text>
        <text x="85" y="75">1</text>
        <text x="95" y="75">1</text>
        <text x="105" y="75">1</text>
        <text x="115" y="75">1</text>
        <text x="125" y="75">0</text>
        <text x="135" y="75">0</text>
        <text x="145" y="75">0</text>
      </g>
    </g>
    
    <!-- DM Characteristics -->
    <g transform="translate(20, 180)">
      <text x="0" y="0" font-family="Arial, sans-serif" font-size="10" font-weight="bold" fill="#9b59b6">Key Features:</text>
      <text x="0" y="15" font-family="Arial, sans-serif" font-size="9" fill="#333">• 1 bit per sample</text>
      <text x="140" y="15" font-family="Arial, sans-serif" font-size="9" fill="#333">• Simple hardware</text>
      <text x="0" y="28" font-family="Arial, sans-serif" font-size="9" fill="#333">• Slope overload</text>
      <text x="140" y="28" font-family="Arial, sans-serif" font-size="9" fill="#333">• Low bandwidth</text>
    </g>
  </g>
  
  <!-- DPCM Section -->
  <g transform="translate(670, 70)">
    <rect x="0" y="0" width="280" height="200" fill="#e8f8f5" stroke="#27ae60" stroke-width="2" rx="10"/>
    
    <text x="140" y="25" text-anchor="middle" font-family="Arial, sans-serif" font-size="16" font-weight="bold" fill="#27ae60">
      Differential PCM (DPCM)
    </text>
    
    <!-- DPCM Block Diagram -->
    <g transform="translate(20, 40)">
      <circle cx="30" cy="15" r="15" fill="#27ae60" stroke="#229954" stroke-width="1"/>
      <text x="30" y="18" text-anchor="middle" font-family="Arial, sans-serif" font-size="8" font-weight="bold" fill="white">DIFF</text>
      
      <rect x="60" y="0" width="40" height="30" fill="#27ae60" stroke="#229954" stroke-width="1" rx="3"/>
      <text x="80" y="12" text-anchor="middle" font-family="Arial, sans-serif" font-size="8" font-weight="bold" fill="white">4-6 bit</text>
      <text x="80" y="22" text-anchor="middle" font-family="Arial, sans-serif" font-size="8" font-weight="bold" fill="white">Quant</text>
      
      <rect x="120" y="0" width="50" height="30" fill="#27ae60" stroke="#229954" stroke-width="1" rx="3"/>
      <text x="145" y="18" text-anchor="middle" font-family="Arial, sans-serif" font-size="9" font-weight="bold" fill="white">Predictor</text>
      
      <!-- Feedback line -->
      <path d="M 145 35 L 145 50 L 30 50 L 30 30" stroke="#229954" stroke-width="2" fill="none" marker-end="url(#arrowhead-green)"/>
      
      <!-- Forward arrows -->
      <polygon points="48,15 55,12 55,18" fill="#229954"/>
      <polygon points="105,15 112,12 112,18" fill="#229954"/>
      
      <text x="180" y="18" font-family="Arial, sans-serif" font-size="9" fill="#27ae60">4-6 bits</text>
    </g>
    
    <!-- DPCM Waveform -->
    <g transform="translate(20, 80)">
      <text x="0" y="0" font-family="Arial, sans-serif" font-size="10" font-weight="bold" fill="#27ae60">Prediction Error:</text>
      
      <!-- Error signal -->
      <g stroke="#27ae60" stroke-width="2" fill="none">
        <path d="M 0 40 L 20 35 L 40 45 L 60 38 L 80 42 L 100 39 L 120 41 L 140 37 L 160 43 L 180 40 L 200 38"/>
      </g>
      
      <!-- Quantized error -->
      <g fill="#27ae60">
        <rect x="18" y="33" width="4" height="4"/>
        <rect x="38" y="43" width="4" height="4"/>
        <rect x="58" y="36" width="4" height="4"/>
        <rect x="78" y="40" width="4" height="4"/>
        <rect x="98" y="37" width="4" height="4"/>
        <rect x="118" y="39" width="4" height="4"/>
        <rect x="138" y="35" width="4" height="4"/>
        <rect x="158" y="41" width="4" height="4"/>
        <rect x="178" y="38" width="4" height="4"/>
      </g>
      
      <!-- Digital codes -->
      <g font-family="monospace" font-size="8" fill="#27ae60">
        <text x="15" y="75">0101</text>
        <text x="35" y="75">1010</text>
        <text x="55" y="75">0011</text>
        <text x="75" y="75">1001</text>
        <text x="95" y="75">0110</text>
        <text x="115" y="75">1000</text>
        <text x="135" y="75">0010</text>
        <text x="155" y="75">1100</text>
      </g>
    </g>
    
    <!-- DPCM Characteristics -->
    <g transform="translate(20, 180)">
      <text x="0" y="0" font-family="Arial, sans-serif" font-size="10" font-weight="bold" fill="#27ae60">Key Features:</text>
      <text x="0" y="15" font-family="Arial, sans-serif" font-size="9" fill="#333">• 4-6 bits per sample</text>
      <text x="140" y="15" font-family="Arial, sans-serif" font-size="9" fill="#333">• Medium quality</text>
      <text x="0" y="28" font-family="Arial, sans-serif" font-size="9" fill="#333">• Prediction error</text>
      <text x="140" y="28" font-family="Arial, sans-serif" font-size="9" fill="#333">• Moderate complexity</text>
    </g>
  </g>
  
  <!-- Detailed Comparison Table -->
  <g transform="translate(50, 300)">
    <rect x="0" y="0" width="900" height="450" fill="#ecf0f1" stroke="#bdc3c7" stroke-width="2" rx="10"/>
    
    <text x="450" y="25" text-anchor="middle" font-family="Arial, sans-serif" font-size="16" font-weight="bold" fill="#2c3e50">
      Comprehensive Comparison Table
    </text>
    
    <!-- Table headers -->
    <g transform="translate(20, 40)">
      <rect x="0" y="0" width="860" height="30" fill="#34495e"/>
      
      <g font-family="Arial, sans-serif" font-size="12" font-weight="bold" fill="white">
        <text x="10" y="20">Parameter</text>
        <text x="200" y="20">PCM</text>
        <text x="400" y="20">Delta Modulation</text>
        <text x="650" y="20">DPCM</text>
      </g>
    </g>
    
    <!-- Table rows -->
    <g transform="translate(20, 70)" font-family="Arial, sans-serif" font-size="11">
      <!-- Row 1: Bits per sample -->
      <rect x="0" y="0" width="860" height="25" fill="#ffffff" stroke="#bdc3c7" stroke-width="1"/>
      <text x="10" y="16" font-weight="bold" fill="#2c3e50">Bits per Sample</text>
      <text x="200" y="16" fill="#3498db" font-weight="bold">8-16 bits</text>
      <text x="400" y="16" fill="#9b59b6" font-weight="bold">1 bit</text>
      <text x="650" y="16" fill="#27ae60" font-weight="bold">4-6 bits</text>
      
      <!-- Row 2: Bandwidth -->
      <rect x="0" y="25" width="860" height="25" fill="#f8f9fa" stroke="#bdc3c7" stroke-width="1"/>
      <text x="10" y="41" font-weight="bold" fill="#2c3e50">Bandwidth Required</text>
      <text x="200" y="41" fill="#3498db">Highest (8-16 × fs)</text>
      <text x="400" y="41" fill="#9b59b6">Lowest (1 × fs)</text>
      <text x="650" y="41" fill="#27ae60">Medium (4-6 × fs)</text>
      
      <!-- Row 3: SNR -->
      <rect x="0" y="50" width="860" height="25" fill="#ffffff" stroke="#bdc3c7" stroke-width="1"/>
      <text x="10" y="66" font-weight="bold" fill="#2c3e50">Signal-to-Noise Ratio</text>
      <text x="200" y="66" fill="#3498db">Highest (40-60 dB)</text>
      <text x="400" y="66" fill="#9b59b6">Lowest (20-30 dB)</text>
      <text x="650" y="66" fill="#27ae60">Medium (30-40 dB)</text>
      
      <!-- Row 4: Circuit Complexity -->
      <rect x="0" y="75" width="860" height="25" fill="#f8f9fa" stroke="#bdc3c7" stroke-width="1"/>
      <text x="10" y="91" font-weight="bold" fill="#2c3e50">Circuit Complexity</text>
      <text x="200" y="91" fill="#3498db">High</text>
      <text x="400" y="91" fill="#9b59b6">Very Simple</text>
      <text x="650" y="91" fill="#27ae60">Medium</text>
      
      <!-- Row 5: Sampling Rate -->
      <rect x="0" y="100" width="860" height="25" fill="#ffffff" stroke="#bdc3c7" stroke-width="1"/>
      <text x="10" y="116" font-weight="bold" fill="#2c3e50">Sampling Rate</text>
      <text x="200" y="116" fill="#3498db">Nyquist rate (2fm)</text>
      <text x="400" y="116" fill="#9b59b6">Much higher than Nyquist</text>
      <text x="650" y="116" fill="#27ae60">Nyquist rate (2fm)</text>
      
      <!-- Row 6: Error Types -->
      <rect x="0" y="125" width="860" height="25" fill="#f8f9fa" stroke="#bdc3c7" stroke-width="1"/>
      <text x="10" y="141" font-weight="bold" fill="#2c3e50">Primary Error Types</text>
      <text x="200" y="141" fill="#3498db">Quantization noise</text>
      <text x="400" y="141" fill="#9b59b6">Slope overload, granular</text>
      <text x="650" y="141" fill="#27ae60">Prediction error</text>
      
      <!-- Row 7: Data Rate -->
      <rect x="0" y="150" width="860" height="25" fill="#ffffff" stroke="#bdc3c7" stroke-width="1"/>
      <text x="10" y="166" font-weight="bold" fill="#2c3e50">Data Rate (for 4kHz voice)</text>
      <text x="200" y="166" fill="#3498db">64-128 kbps</text>
      <text x="400" y="166" fill="#9b59b6">8-32 kbps</text>
      <text x="650" y="166" fill="#27ae60">32-48 kbps</text>
      
      <!-- Row 8: Applications -->
      <rect x="0" y="175" width="860" height="25" fill="#f8f9fa" stroke="#bdc3c7" stroke-width="1"/>
      <text x="10" y="191" font-weight="bold" fill="#2c3e50">Typical Applications</text>
      <text x="200" y="191" fill="#3498db">CD audio, telephony</text>
      <text x="400" y="191" fill="#9b59b6">Low-quality voice</text>
      <text x="650" y="191" fill="#27ae60">Speech coding, video</text>
      
      <!-- Row 9: Advantages -->
      <rect x="0" y="200" width="860" height="40" fill="#ffffff" stroke="#bdc3c7" stroke-width="1"/>
      <text x="10" y="216" font-weight="bold" fill="#2c3e50">Key Advantages</text>
      <text x="200" y="212" fill="#3498db">• High fidelity</text>
      <text x="200" y="225" fill="#3498db">• Robust to noise</text>
      <text x="200" y="238" fill="#3498db">• Standard compatibility</text>
      <text x="400" y="212" fill="#9b59b6">• Simple implementation</text>
      <text x="400" y="225" fill="#9b59b6">• Low bit rate</text>
      <text x="400" y="238" fill="#9b59b6">• Single bit transmission</text>
      <text x="650" y="212" fill="#27ae60">• Bandwidth efficient</text>
      <text x="650" y="225" fill="#27ae60">• Good quality</text>
      <text x="650" y="238" fill="#27ae60">• Exploits correlation</text>
      
      <!-- Row 10: Disadvantages -->
      <rect x="0" y="240" width="860" height="40" fill="#f8f9fa" stroke="#bdc3c7" stroke-width="1"/>
      <text x="10" y="256" font-weight="bold" fill="#2c3e50">Key Disadvantages</text>
      <text x="200" y="252" fill="#3498db">• High bandwidth</text>
      <text x="200" y="265" fill="#3498db">• Complex hardware</text>
      <text x="200" y="278" fill="#3498db">• High power</text>
      <text x="400" y="252" fill="#9b59b6">• Poor SNR</text>
      <text x="400" y="265" fill="#9b59b6">• Slope overload</text>
      <text x="400" y="278" fill="#9b59b6">• High sampling rate</text>
      <text x="650" y="252" fill="#27ae60">• Prediction complexity</text>
      <text x="650" y="265" fill="#27ae60">• Error propagation</text>
      <text x="650" y="278" fill="#27ae60">• Medium SNR</text>
    </g>
    
    <!-- Performance Comparison Charts -->
    <g transform="translate(50, 320)">
      <text x="350" y="0" text-anchor="middle" font-family="Arial, sans-serif" font-size="14" font-weight="bold" fill="#2c3e50">
        Performance Metrics Comparison
      </text>
      
      <!-- Quality vs Bandwidth chart -->
      <g transform="translate(0, 20)">
        <text x="100" y="0" text-anchor="middle" font-family="Arial, sans-serif" font-size="12" font-weight="bold" fill="#2c3e50">
          Quality vs Bandwidth
        </text>
        
        <!-- Axes -->
        <line x1="20" y1="80" x2="20" y2="20" stroke="#333" stroke-width="2" marker-end="url(#arrowhead-black)"/>
        <line x1="20" y1="80" x2="180" y2="80" stroke="#333" stroke-width="2" marker-end="url(#arrowhead-black)"/>
        
        <text x="10" y="25" font-family="Arial, sans-serif" font-size="10" fill="#333">Quality</text>
        <text x="120" y="95" font-family="Arial, sans-serif" font-size="10" fill="#333">Bandwidth</text>
        
        <!-- Data points -->
        <circle cx="40" cy="60" r="5" fill="#9b59b6"/>
        <text x="45" y="55" font-family="Arial, sans-serif" font-size="9" fill="#9b59b6">DM</text>
        
        <circle cx="100" cy="40" r="5" fill="#27ae60"/>
        <text x="105" y="35" font-family="Arial, sans-serif" font-size="9" fill="#27ae60">DPCM</text>
        
        <circle cx="160" cy="25" r="5" fill="#3498db"/>
        <text x="165" y="20" font-family="Arial, sans-serif" font-size="9" fill="#3498db">PCM</text>
      </g>
      
      <!-- Complexity vs Cost chart -->
      <g transform="translate(250, 20)">
        <text x="100" y="0" text-anchor="middle" font-family="Arial, sans-serif" font-size="12" font-weight="bold" fill="#2c3e50">
          Complexity vs Implementation Cost
        </text>
        
        <!-- Axes -->
        <line x1="20" y1="80" x2="20" y2="20" stroke="#333" stroke-width="2" marker-end="url(#arrowhead-black)"/>
        <line x1="20" y1="80" x2="180" y2="80" stroke="#333" stroke-width="2" marker-end="url(#arrowhead-black)"/>
        
        <text x="5" y="25" font-family="Arial, sans-serif" font-size="10" fill="#333">Cost</text>
        <text x="100" y="95" font-family="Arial, sans-serif" font-size="10" fill="#333">Complexity</text>
        
        <!-- Data points -->
        <circle cx="40" cy="70" r="5" fill="#9b59b6"/>
        <text x="45" y="65" font-family="Arial, sans-serif" font-size="9" fill="#9b59b6">DM</text>
        
        <circle cx="100" cy="50" r="5" fill="#27ae60"/>
        <text x="105" y="45" font-family="Arial, sans-serif" font-size="9" fill="#27ae60">DPCM</text>
        
        <circle cx="160" cy="30" r="5" fill="#3498db"/>
        <text x="165" y="25" font-family="Arial, sans-serif" font-size="9" fill="#3498db">PCM</text>
      </g>
      
      <!-- Application recommendations -->
      <g transform="translate(500, 20)">
        <text x="100" y="0" text-anchor="middle" font-family="Arial, sans-serif" font-size="12" font-weight="bold" fill="#2c3e50">
          Application Recommendations
        </text>
        
        <g font-family="Arial, sans-serif" font-size="10" fill="#34495e">
          <text x="0" y="20" font-weight="bold" fill="#3498db">PCM - Use when:</text>
          <text x="10" y="35">• Highest quality required</text>
          <text x="10" y="48">• Bandwidth is available</text>
          <text x="10" y="61">• Standard compatibility needed</text>
          
          <text x="0" y="80" font-weight="bold" fill="#9b59b6">DM - Use when:</text>
          <text x="10" y="95">• Simple implementation</text>
          <text x="10" y="108">• Low bandwidth critical</text>
          <text x="10" y="121">• Basic voice quality acceptable</text>
        </g>
      </g>
    </g>
  </g>
  
  <!-- Arrow definitions -->
  <defs>
    <marker id="arrowhead-purple" markerWidth="8" markerHeight="6" refX="8" refY="3" orient="auto">
      <polygon points="0 0, 8 3, 0 6" fill="#8e44ad"/>
    </marker>
    <marker id="arrowhead-green" markerWidth="8" markerHeight="6" refX="8" refY="3" orient="auto">
      <polygon points="0 0, 8 3, 0 6" fill="#229954"/>
    </marker>
    <marker id="arrowhead-black" markerWidth="8" markerHeight="6" refX="8" refY="3" orient="auto">
      <polygon points="0 0, 8 3, 0 6" fill="#333"/>
    </marker>
  </defs>
</svg>