<svg viewBox="0 0 900 650" xmlns="http://www.w3.org/2000/svg">
  <!-- Background -->
  <rect width="900" height="650" fill="#f8f9fa"/>
  
  <!-- Title -->
  <text x="450" y="25" text-anchor="middle" font-family="Arial, sans-serif" font-size="18" font-weight="bold" fill="#2c3e50">
    Sampling Theorem and Aliasing Effect
  </text>
  
  <!-- Original Signal -->
  <g transform="translate(50, 60)">
    <text x="0" y="0" font-family="Arial, sans-serif" font-size="14" font-weight="bold" fill="#e74c3c">
      Original Signal: f = 5 Hz
    </text>
    
    <!-- Time axis -->
    <line x1="0" y1="60" x2="350" y2="60" stroke="#333" stroke-width="2"/>
    <text x="360" y="65" font-family="Arial, sans-serif" font-size="12" fill="#333">t (s)</text>
    
    <!-- Amplitude axis -->
    <line x1="0" y1="20" x2="0" y2="100" stroke="#333" stroke-width="2"/>
    <text x="-15" y="15" font-family="Arial, sans-serif" font-size="12" fill="#333">A</text>
    
    <!-- 5 Hz sine wave -->
    <path d="M 0 60 Q 17.5 35 35 60 T 70 60 T 105 60 T 140 60 T 175 60 T 210 60 T 245 60 T 280 60 T 315 60 T 350 60" 
          stroke="#e74c3c" stroke-width="3" fill="none">
      <animate attributeName="d" 
               values="M 0 60 Q 17.5 35 35 60 T 70 60 T 105 60 T 140 60 T 175 60 T 210 60 T 245 60 T 280 60 T 315 60 T 350 60;
                      M 0 60 Q 17.5 85 35 60 T 70 60 T 105 60 T 140 60 T 175 60 T 210 60 T 245 60 T 280 60 T 315 60 T 350 60;
                      M 0 60 Q 17.5 35 35 60 T 70 60 T 105 60 T 140 60 T 175 60 T 210 60 T 245 60 T 280 60 T 315 60 T 350 60"
               dur="3s" repeatCount="indefinite"/>
    </path>
    
    <!-- Time markers -->
    <g stroke="#666" stroke-width="1" font-family="Arial, sans-serif" font-size="9" fill="#666">
      <line x1="70" y1="105" x2="70" y2="110"/>
      <text x="70" y="120" text-anchor="middle">0.2</text>
      <line x1="140" y1="105" x2="140" y2="110"/>
      <text x="140" y="120" text-anchor="middle">0.4</text>
      <line x1="210" y1="105" x2="210" y2="110"/>
      <text x="210" y="120" text-anchor="middle">0.6</text>
      <line x1="280" y1="105" x2="280" y2="110"/>
      <text x="280" y="120" text-anchor="middle">0.8</text>
    </g>
  </g>
  
  <!-- Proper Sampling (fs = 15 Hz > 2fm) -->
  <g transform="translate(500, 60)">
    <text x="0" y="0" font-family="Arial, sans-serif" font-size="14" font-weight="bold" fill="#27ae60">
      Proper Sampling: fs = 15 Hz > 2fm
    </text>
    
    <!-- Time axis -->
    <line x1="0" y1="60" x2="350" y2="60" stroke="#333" stroke-width="2"/>
    <text x="360" y="65" font-family="Arial, sans-serif" font-size="12" fill="#333">t (s)</text>
    
    <!-- Same signal -->
    <path d="M 0 60 Q 17.5 35 35 60 T 70 60 T 105 60 T 140 60 T 175 60 T 210 60 T 245 60 T 280 60 T 315 60 T 350 60" 
          stroke="#e74c3c" stroke-width="2" fill="none" opacity="0.5">
      <animate attributeName="d" 
               values="M 0 60 Q 17.5 35 35 60 T 70 60 T 105 60 T 140 60 T 175 60 T 210 60 T 245 60 T 280 60 T 315 60 T 350 60;
                      M 0 60 Q 17.5 85 35 60 T 70 60 T 105 60 T 140 60 T 175 60 T 210 60 T 245 60 T 280 60 T 315 60 T 350 60;
                      M 0 60 Q 17.5 35 35 60 T 70 60 T 105 60 T 140 60 T 175 60 T 210 60 T 245 60 T 280 60 T 315 60 T 350 60"
               dur="3s" repeatCount="indefinite"/>
    </path>
    
    <!-- Sample points (every 1/15 s ≈ 23.3 pixels) -->
    <g fill="#27ae60">
      <circle cx="0" cy="60" r="3"/>
      <circle cx="23" cy="48" r="3"/>
      <circle cx="47" cy="42" r="3"/>
      <circle cx="70" cy="60" r="3"/>
      <circle cx="93" cy="78" r="3"/>
      <circle cx="117" cy="82" r="3"/>
      <circle cx="140" cy="60" r="3"/>
      <circle cx="163" cy="38" r="3"/>
      <circle cx="187" cy="34" r="3"/>
      <circle cx="210" cy="60" r="3"/>
      <circle cx="233" cy="86" r="3"/>
      <circle cx="257" cy="90" r="3"/>
      <circle cx="280" cy="60" r="3"/>
      <circle cx="303" cy="30" r="3"/>
      <circle cx="327" cy="26" r="3"/>
      <circle cx="350" cy="60" r="3"/>
    </g>
    
    <!-- Reconstructed signal -->
    <path d="M 0 60 L 23 48 L 47 42 L 70 60 L 93 78 L 117 82 L 140 60 L 163 38 L 187 34 L 210 60 L 233 86 L 257 90 L 280 60 L 303 30 L 327 26 L 350 60" 
          stroke="#27ae60" stroke-width="2" fill="none" stroke-dasharray="4,4"/>
    
    <text x="175" y="125" text-anchor="middle" font-family="Arial, sans-serif" font-size="10" fill="#27ae60">
      Perfect reconstruction possible
    </text>
  </g>
  
  <!-- Undersampling (fs = 8 Hz < 2fm) -->
  <g transform="translate(50, 230)">
    <text x="0" y="0" font-family="Arial, sans-serif" font-size="14" font-weight="bold" fill="#e74c3c">
      Undersampling: fs = 8 Hz &lt; 2fm (Aliasing!)
    </text>
    
    <!-- Time axis -->
    <line x1="0" y1="60" x2="350" y2="60" stroke="#333" stroke-width="2"/>
    <text x="360" y="65" font-family="Arial, sans-serif" font-size="12" fill="#333">t (s)</text>
    
    <!-- Original signal (faded) -->
    <path d="M 0 60 Q 17.5 35 35 60 T 70 60 T 105 60 T 140 60 T 175 60 T 210 60 T 245 60 T 280 60 T 315 60 T 350 60" 
          stroke="#e74c3c" stroke-width="2" fill="none" opacity="0.3">
      <animate attributeName="d" 
               values="M 0 60 Q 17.5 35 35 60 T 70 60 T 105 60 T 140 60 T 175 60 T 210 60 T 245 60 T 280 60 T 315 60 T 350 60;
                      M 0 60 Q 17.5 85 35 60 T 70 60 T 105 60 T 140 60 T 175 60 T 210 60 T 245 60 T 280 60 T 315 60 T 350 60;
                      M 0 60 Q 17.5 35 35 60 T 70 60 T 105 60 T 140 60 T 175 60 T 210 60 T 245 60 T 280 60 T 315 60 T 350 60"
               dur="3s" repeatCount="indefinite"/>
    </path>
    
    <!-- Sample points (every 1/8 s = 43.75 pixels) -->
    <g fill="#e74c3c">
      <circle cx="0" cy="60" r="3"/>
      <circle cx="44" cy="40" r="3"/>
      <circle cx="88" cy="80" r="3"/>
      <circle cx="132" cy="40" r="3"/>
      <circle cx="176" cy="80" r="3"/>
      <circle cx="220" cy="40" r="3"/>
      <circle cx="264" cy="80" r="3"/>
      <circle cx="308" cy="40" r="3"/>
    </g>
    
    <!-- Apparent low frequency signal (aliased) -->
    <path d="M 0 60 Q 22 50 44 40 Q 66 50 88 80 Q 110 70 132 40 Q 154 50 176 80 Q 198 70 220 40 Q 242 50 264 80 Q 286 70 308 40 Q 329 50 350 60" 
          stroke="#f39c12" stroke-width="3" fill="none"/>
    
    <text x="175" y="125" text-anchor="middle" font-family="Arial, sans-serif" font-size="10" fill="#f39c12">
      Appears as 3 Hz signal (aliased frequency)
    </text>
  </g>
  
  <!-- Frequency Domain View -->
  <g transform="translate(500, 230)">
    <text x="0" y="0" font-family="Arial, sans-serif" font-size="14" font-weight="bold" fill="#9b59b6">
      Frequency Domain - Aliasing
    </text>
    
    <!-- Frequency axis -->
    <line x1="0" y1="100" x2="350" y2="100" stroke="#333" stroke-width="2"/>
    <text x="360" y="105" font-family="Arial, sans-serif" font-size="12" fill="#333">f (Hz)</text>
    
    <!-- Original signal spectrum -->
    <line x1="50" y1="100" x2="50" y2="70" stroke="#e74c3c" stroke-width="4"/>
    <text x="50" y="60" text-anchor="middle" font-family="Arial, sans-serif" font-size="10" fill="#e74c3c">5 Hz</text>
    
    <!-- Sampling frequency markers -->
    <g stroke="#27ae60" stroke-width="2" stroke-dasharray="2,2">
      <line x1="80" y1="50" x2="80" y2="110"/>
      <text x="80" y="45" text-anchor="middle" font-family="Arial, sans-serif" font-size="9" fill="#27ae60">fs/2=4</text>
      
      <line x1="160" y1="50" x2="160" y2="110"/>
      <text x="160" y="45" text-anchor="middle" font-family="Arial, sans-serif" font-size="9" fill="#27ae60">fs=8</text>
      
      <line x1="240" y1="50" x2="240" y2="110"/>
      <text x="240" y="45" text-anchor="middle" font-family="Arial, sans-serif" font-size="9" fill="#27ae60">3fs/2=12</text>
    </g>
    
    <!-- Aliased frequency -->
    <line x1="30" y1="100" x2="30" y2="75" stroke="#f39c12" stroke-width="4"/>
    <text x="30" y="65" text-anchor="middle" font-family="Arial, sans-serif" font-size="10" fill="#f39c12">3 Hz</text>
    <text x="30" y="120" text-anchor="middle" font-family="Arial, sans-serif" font-size="8" fill="#f39c12">falias = |fs - f|</text>
    
    <!-- Folding illustration -->
    <path d="M 50 80 Q 80 60 110 80" stroke="#e74c3c" stroke-width="2" fill="none" stroke-dasharray="3,3"/>
    <text x="80" y="55" text-anchor="middle" font-family="Arial, sans-serif" font-size="8" fill="#e74c3c">Folds to 3 Hz</text>
  </g>
  
  <!-- Nyquist Theorem Statement -->
  <g transform="translate(50, 400)">
    <rect x="0" y="0" width="800" height="120" fill="#e8f6f3" stroke="#27ae60" stroke-width="2" rx="10"/>
    
    <text x="400" y="25" text-anchor="middle" font-family="Arial, sans-serif" font-size="16" font-weight="bold" fill="#27ae60">
      Nyquist-Shannon Sampling Theorem
    </text>
    
    <text x="400" y="50" text-anchor="middle" font-family="Arial, sans-serif" font-size="14" fill="#2c3e50">
      fs ≥ 2fmax (Nyquist Rate)
    </text>
    
    <g transform="translate(50, 70)" font-family="Arial, sans-serif" font-size="12" fill="#34495e">
      <text x="0" y="0" font-weight="bold">Conditions for Perfect Reconstruction:</text>
      <text x="350" y="0" fill="#27ae60">• Sampling frequency ≥ 2 × highest frequency</text>
      <text x="0" y="20" fill="#3498db">• Signal must be band-limited</text>
      <text x="350" y="20" fill="#9b59b6">• Ideal reconstruction filter required</text>
      <text x="0" y="40" fill="#e74c3c">• Anti-aliasing filter prevents frequency overlap</text>
    </g>
  </g>
  
  <!-- Practical Example -->
  <g transform="translate(50, 540)">
    <rect x="0" y="0" width="800" height="80" fill="#fef9e7" stroke="#f39c12" stroke-width="2" rx="10"/>
    
    <text x="400" y="20" text-anchor="middle" font-family="Arial, sans-serif" font-size="14" font-weight="bold" fill="#f39c12">
      Practical Examples
    </text>
    
    <g transform="translate(50, 35)" font-family="Arial, sans-serif" font-size="11" fill="#34495e">
      <text x="0" y="0" font-weight="bold" fill="#3498db">Audio CD:</text>
      <text x="80" y="0">fmax = 20 kHz → fs = 44.1 kHz (> 40 kHz)</text>
      
      <text x="350" y="0" font-weight="bold" fill="#e74c3c">Telephone:</text>
      <text x="430" y="0">fmax = 3.4 kHz → fs = 8 kHz</text>
      
      <text x="0" y="20" font-weight="bold" fill="#9b59b6">Video:</text>
      <text x="50" y="20">fmax = 6 MHz → fs = 13.5 MHz (for digital TV)</text>
      
      <text x="350" y="20" font-weight="bold" fill="#27ae60">Oversampling:</text>
      <text x="450" y="20">fs >> 2fmax for easier filtering</text>
    </g>
  </g>
  
  <!-- Animation indicator -->
  <g transform="translate(850, 150)">
    <circle cx="0" cy="0" r="6" fill="#e74c3c" opacity="0.8">
      <animate attributeName="opacity" values="0.3;1;0.3" dur="3s" repeatCount="indefinite"/>
    </circle>
  </g>
</svg>