<svg viewBox="0 0 800 600" xmlns="http://www.w3.org/2000/svg">
  <defs>
    <!-- Gradients for radiation pattern -->
    <radialGradient id="mainLobeGrad" cx="50%" cy="50%" r="50%">
      <stop offset="0%" style="stop-color:#e74c3c;stop-opacity:0.8" />
      <stop offset="70%" style="stop-color:#c0392b;stop-opacity:0.6" />
      <stop offset="100%" style="stop-color:#c0392b;stop-opacity:0.2" />
    </radialGradient>
    <radialGradient id="sideLobeGrad" cx="50%" cy="50%" r="50%">
      <stop offset="0%" style="stop-color:#f39c12;stop-opacity:0.6" />
      <stop offset="100%" style="stop-color:#e67e22;stop-opacity:0.2" />
    </radialGradient>

    <!-- Pulse animation for radiation -->
    <animate id="radiationPulse" attributeName="r" values="2;8;2" dur="2s" repeatCount="indefinite"/>
  </defs>

  <!-- Background -->
  <rect width="800" height="600" fill="#f8f9fa"/>

  <!-- Title -->
  <text x="400" y="30" text-anchor="middle" class="title" fill="#2c3e50" font-family="Arial, sans-serif" font-size="18" font-weight="bold">
    Antenna Parameters and Radiation Pattern
  </text>

  <!-- Main radiation pattern diagram -->
  <g transform="translate(200,150)">
    <!-- Polar grid -->
    <g stroke="#ecf0f1" stroke-width="1" fill="none">
      <!-- Concentric circles for field strength -->
      <circle cx="200" cy="150" r="30" stroke-dasharray="2,2"/>
      <circle cx="200" cy="150" r="60" stroke-dasharray="2,2"/>
      <circle cx="200" cy="150" r="90" stroke-dasharray="2,2"/>
      <circle cx="200" cy="150" r="120" stroke-dasharray="2,2"/>
      <circle cx="200" cy="150" r="150"/>

      <!-- Radial lines for angles -->
      <line x1="200" y1="0" x2="200" y2="300"/>
      <line x1="50" y1="150" x2="350" y2="150"/>
      <line x1="94" y1="44" x2="306" y2="256"/>
      <line x1="306" y1="44" x2="94" y2="256"/>
    </g>

    <!-- Angle markings -->
    <g fill="#7f8c8d" font-family="Arial, sans-serif" font-size="10">
      <text x="205" y="15" text-anchor="middle">0°</text>
      <text x="320" y="85" text-anchor="middle">45°</text>
      <text x="360" y="155" text-anchor="middle">90°</text>
      <text x="320" y="225" text-anchor="middle">135°</text>
      <text x="205" y="295" text-anchor="middle">180°</text>
      <text x="80" y="225" text-anchor="middle">225°</text>
      <text x="40" y="155" text-anchor="middle">270°</text>
      <text x="80" y="85" text-anchor="middle">315°</text>
    </g>

    <!-- Field strength scale -->
    <g fill="#95a5a6" font-family="Arial, sans-serif" font-size="8">
      <text x="170" y="125">0.2</text>
      <text x="140" y="100">0.4</text>
      <text x="110" y="75">0.6</text>
      <text x="80" y="50">0.8</text>
      <text x="50" y="25">1.0</text>
    </g>

    <!-- Antenna symbol at center -->
    <g transform="translate(200,150)">
      <rect x="-3" y="-15" width="6" height="30" fill="#34495e"/>
      <circle cx="0" cy="0" r="3" fill="#e74c3c"/>
      <text x="0" y="-25" text-anchor="middle" fill="#2c3e50" font-family="Arial, sans-serif" font-size="10" font-weight="bold">Antenna</text>
    </g>

    <!-- Main lobe (directional pattern) -->
    <path d="M 200,150 Q 200,30 250,40 Q 280,50 300,80 Q 320,120 300,150 Q 280,180 250,190 Q 230,195 200,150" 
          fill="url(#mainLobeGrad)" stroke="#c0392b" stroke-width="2">
      <animate attributeName="fill-opacity" values="0.6;1;0.6" dur="3s" repeatCount="indefinite"/>
    </path>

    <!-- Side lobes -->
    <path d="M 200,150 Q 160,100 140,120 Q 130,140 140,160 Q 160,180 200,150" 
          fill="url(#sideLobeGrad)" stroke="#e67e22" stroke-width="1">
      <animate attributeName="fill-opacity" values="0.3;0.6;0.3" dur="3s" repeatCount="indefinite" begin="0.5s"/>
    </path>

    <path d="M 200,150 Q 160,200 140,180 Q 130,160 140,140 Q 160,120 200,150" 
          fill="url(#sideLobeGrad)" stroke="#e67e22" stroke-width="1">
      <animate attributeName="fill-opacity" values="0.3;0.6;0.3" dur="3s" repeatCount="indefinite" begin="1s"/>
    </path>

    <!-- Back lobe -->
    <path d="M 200,150 Q 150,130 140,150 Q 150,170 200,150" 
          fill="url(#sideLobeGrad)" stroke="#e67e22" stroke-width="1" opacity="0.4">
      <animate attributeName="fill-opacity" values="0.2;0.4;0.2" dur="3s" repeatCount="indefinite" begin="1.5s"/>
    </path>

    <!-- Pattern labels -->
    <text x="280" y="80" fill="#c0392b" font-family="Arial, sans-serif" font-size="10" font-weight="bold">Main Lobe</text>
    <text x="120" y="110" fill="#e67e22" font-family="Arial, sans-serif" font-size="9">Side Lobe</text>
    <text x="120" y="190" fill="#e67e22" font-family="Arial, sans-serif" font-size="9">Side Lobe</text>
    <text x="110" y="155" fill="#e67e22" font-family="Arial, sans-serif" font-size="9">Back Lobe</text>

    <!-- Directivity indicators -->
    <g stroke="#8e44ad" stroke-width="2" fill="none">
      <!-- Main beam direction -->
      <path d="M 200,150 L 270,65" marker-end="url(#purpleArrow)"/>
      <text x="280" y="60" fill="#8e44ad" font-family="Arial, sans-serif" font-size="9" font-weight="bold">Maximum Radiation</text>

      <!-- Beam width indicator -->
      <path d="M 220,80 A 50,50 0 0,1 280,120" stroke-dasharray="3,3"/>
      <text x="250" y="100" fill="#8e44ad" font-family="Arial, sans-serif" font-size="8">θ3dB</text>
    </g>
  </g>

  <!-- Arrow marker definition -->
  <defs>
    <marker id="purpleArrow" markerWidth="8" markerHeight="6" refX="7" refY="3" orient="auto">
      <polygon points="0 0, 8 3, 0 6" fill="#8e44ad"/>
    </marker>
  </defs>

  <!-- Definitions and Parameters Box -->
  <rect x="50" y="350" width="700" height="220" fill="white" stroke="#34495e" stroke-width="2" rx="10"/>
  <text x="400" y="375" text-anchor="middle" fill="#2c3e50" font-family="Arial, sans-serif" font-size="14" font-weight="bold">
    Antenna Parameters Definitions
  </text>

  <!-- Four-column layout for definitions -->

  <!-- Column 1: Antenna -->
  <g transform="translate(70,390)">
    <rect x="0" y="0" width="150" height="60" fill="#e8f4f8" stroke="#3498db" stroke-width="1" rx="3"/>
    <text x="75" y="18" text-anchor="middle" fill="#3498db" font-family="Arial, sans-serif" font-size="11" font-weight="bold">ANTENNA</text>
    <text x="10" y="35" fill="#2c3e50" font-family="Arial, sans-serif" font-size="9">Device that converts</text>
    <text x="10" y="47" fill="#2c3e50" font-family="Arial, sans-serif" font-size="9">electrical signals into EM</text>
    <text x="10" y="59" fill="#2c3e50" font-family="Arial, sans-serif" font-size="9">waves and vice versa</text>
  </g>

  <!-- Column 2: Radiation Pattern -->
  <g transform="translate(240,390)">
    <rect x="0" y="0" width="150" height="60" fill="#ffebee" stroke="#e74c3c" stroke-width="1" rx="3"/>
    <text x="75" y="18" text-anchor="middle" fill="#e74c3c" font-family="Arial, sans-serif" font-size="11" font-weight="bold">RADIATION PATTERN</text>
    <text x="10" y="35" fill="#2c3e50" font-family="Arial, sans-serif" font-size="9">Graphical representation</text>
    <text x="10" y="47" fill="#2c3e50" font-family="Arial, sans-serif" font-size="9">of radiation properties as</text>
    <text x="10" y="59" fill="#2c3e50" font-family="Arial, sans-serif" font-size="9">function of space coordinates</text>
  </g>

  <!-- Column 3: Directivity -->
  <g transform="translate(410,390)">
    <rect x="0" y="0" width="150" height="60" fill="#fff3e0" stroke="#f39c12" stroke-width="1" rx="3"/>
    <text x="75" y="18" text-anchor="middle" fill="#f39c12" font-family="Arial, sans-serif" font-size="11" font-weight="bold">DIRECTIVITY</text>
    <text x="10" y="35" fill="#2c3e50" font-family="Arial, sans-serif" font-size="9">Ratio of radiation intensity</text>
    <text x="10" y="47" fill="#2c3e50" font-family="Arial, sans-serif" font-size="9">in given direction to</text>
    <text x="10" y="59" fill="#2c3e50" font-family="Arial, sans-serif" font-size="9">average radiation intensity</text>
  </g>

  <!-- Column 4: Polarization -->
  <g transform="translate(580,390)">
    <rect x="0" y="0" width="150" height="60" fill="#f3e5f5" stroke="#9b59b6" stroke-width="1" rx="3"/>
    <text x="75" y="18" text-anchor="middle" fill="#9b59b6" font-family="Arial, sans-serif" font-size="11" font-weight="bold">POLARIZATION</text>
    <text x="10" y="35" fill="#2c3e50" font-family="Arial, sans-serif" font-size="9">Orientation of electric</text>
    <text x="10" y="47" fill="#2c3e50" font-family="Arial, sans-serif" font-size="9">field vector of EM wave</text>
    <text x="10" y="59" fill="#2c3e50" font-family="Arial, sans-serif" font-size="9">radiated by antenna</text>
  </g>

  <!-- Mathematical expressions and key parameters -->
  <g transform="translate(70,470)">
    <text x="0" y="0" fill="#2c3e50" font-family="Arial, sans-serif" font-size="12" font-weight="bold">Key Parameters:</text>

    <text x="0" y="20" fill="#3498db" font-family="Arial, sans-serif" font-size="10" font-weight="bold">• Gain (G):</text>
    <text x="80" y="20" fill="#2c3e50" font-family="Arial, sans-serif" font-size="10">G = Directivity × Efficiency = D × η</text>

    <text x="0" y="35" fill="#e74c3c" font-family="Arial, sans-serif" font-size="10" font-weight="bold">• Beamwidth (θ3dB):</text>
    <text x="100" y="35" fill="#2c3e50" font-family="Arial, sans-serif" font-size="10">Angular width where power drops to half (-3dB)</text>

    <text x="0" y="50" fill="#f39c12" font-family="Arial, sans-serif" font-size="10" font-weight="bold">• Directivity (D):</text>
    <text x="90" y="50" fill="#2c3e50" font-family="Arial, sans-serif" font-size="10">D = U(θ,φ) / U₀ where U₀ = Prad / 4π</text>

    <text x="0" y="65" fill="#27ae60" font-family="Arial, sans-serif" font-size="10" font-weight="bold">• Radiation Resistance:</text>
    <text x="130" y="65" fill="#2c3e50" font-family="Arial, sans-serif" font-size="10">Rr = Prad / I²</text>

    <text x="0" y="80" fill="#9b59b6" font-family="Arial, sans-serif" font-size="10" font-weight="bold">• Effective Area:</text>
    <text x="95" y="80" fill="#2c3e50" font-family="Arial, sans-serif" font-size="10">Aeff = λ² × G / 4π</text>
  </g>

  <!-- Polarization types illustration -->
  <g transform="translate(450,480)">
    <rect x="0" y="0" width="280" height="80" fill="#f8f9fa" stroke="#95a5a6" stroke-width="1" rx="5"/>
    <text x="140" y="18" text-anchor="middle" fill="#2c3e50" font-family="Arial, sans-serif" font-size="11" font-weight="bold">
      Polarization Types
    </text>

    <!-- Linear Polarization -->
    <g transform="translate(20,25)">
      <text x="30" y="12" text-anchor="middle" fill="#e74c3c" font-family="Arial, sans-serif" font-size="9" font-weight="bold">Linear</text>
      <line x1="10" y1="20" x2="50" y2="20" stroke="#2c3e50" stroke-width="1"/>
      <g stroke="#e74c3c" stroke-width="2">
        <line x1="15" y1="15" x2="15" y2="25"/>
        <line x1="25" y1="15" x2="25" y2="25"/>
        <line x1="35" y1="15" x2="35" y2="25"/>
        <line x1="45" y1="15" x2="45" y2="25"/>
      </g>
      <text x="30" y="40" text-anchor="middle" fill="#7f8c8d" font-family="Arial, sans-serif" font-size="8">Vertical/Horizontal</text>
    </g>

    <!-- Circular Polarization -->
    <g transform="translate(100,25)">
      <text x="30" y="12" text-anchor="middle" fill="#f39c12" font-family="Arial, sans-serif" font-size="9" font-weight="bold">Circular</text>
      <line x1="10" y1="20" x2="50" y2="20" stroke="#2c3e50" stroke-width="1"/>
      <g stroke="#f39c12" stroke-width="2" fill="none">
        <circle cx="20" cy="20" r="3"/>
        <circle cx="30" cy="20" r="3"/>
        <circle cx="40" cy="20" r="3"/>
      </g>
      <text x="30" y="40" text-anchor="middle" fill="#7f8c8d" font-family="Arial, sans-serif" font-size="8">Left/Right Hand</text>
    </g>

    <!-- Elliptical Polarization -->
    <g transform="translate(180,25)">
      <text x="30" y="12" text-anchor="middle" fill="#27ae60" font-family="Arial, sans-serif" font-size="9" font-weight="bold">Elliptical</text>
      <line x1="10" y1="20" x2="50" y2="20" stroke="#2c3e50" stroke-width="1"/>
      <g stroke="#27ae60" stroke-width="2" fill="none">
        <ellipse cx="20" cy="20" rx="4" ry="2"/>
        <ellipse cx="30" cy="20" rx="4" ry="2"/>
        <ellipse cx="40" cy="20" rx="4" ry="2"/>
      </g>
      <text x="30" y="40" text-anchor="middle" fill="#7f8c8d" font-family="Arial, sans-serif" font-size="8">General case</text>
    </g>
  </g>

  <!-- 3D visualization indicator -->
  <g transform="translate(580,150)">
    <rect x="0" y="0" width="160" height="80" fill="#ecf0f1" stroke="#95a5a6" stroke-width="1" rx="5"/>
    <text x="80" y="18" text-anchor="middle" fill="#2c3e50" font-family="Arial, sans-serif" font-size="11" font-weight="bold">
      3D Pattern View
    </text>
    <text x="80" y="35" text-anchor="middle" fill="#7f8c8d" font-family="Arial, sans-serif" font-size="9">
      E-plane (Elevation)
    </text>
    <text x="80" y="48" text-anchor="middle" fill="#7f8c8d" font-family="Arial, sans-serif" font-size="9">
      H-plane (Azimuth)
    </text>
    <text x="80" y="61" text-anchor="middle" fill="#8e44ad" font-family="Arial, sans-serif" font-size="9" font-weight="bold">
      Pattern = f(θ, φ)
    </text>
  </g>
</svg>