<svg viewBox="0 0 900 750" xmlns="http://www.w3.org/2000/svg">
  <defs>
    <!-- Gradients for different modulation types -->
    <linearGradient id="amGrad" x1="0%" y1="0%" x2="0%" y2="100%">
      <stop offset="0%" style="stop-color:#e74c3c;stop-opacity:1" />
      <stop offset="100%" style="stop-color:#c0392b;stop-opacity:1" />
    </linearGradient>
    <linearGradient id="fmGrad" x1="0%" y1="0%" x2="0%" y2="100%">
      <stop offset="0%" style="stop-color:#3498db;stop-opacity:1" />
      <stop offset="100%" style="stop-color:#2980b9;stop-opacity:1" />
    </linearGradient>

    <!-- Signal animations -->
    <animate id="signalFlow" attributeName="stroke-dashoffset" values="0;-20;0" dur="3s" repeatCount="indefinite"/>
  </defs>

  <!-- Background -->
  <rect width="900" height="750" fill="#f8f9fa"/>

  <!-- Title -->
  <text x="450" y="30" text-anchor="middle" class="title" fill="#2c3e50" font-family="Arial, sans-serif" font-size="20" font-weight="bold">
    AM vs FM Modulation Comparison
  </text>

  <!-- Modulating Signal (Common Reference) -->
  <g transform="translate(50,70)">
    <rect x="0" y="0" width="800" height="80" fill="white" stroke="#34495e" stroke-width="2" rx="5"/>
    <text x="10" y="20" fill="#8e44ad" font-family="Arial, sans-serif" font-size="12" font-weight="bold">Modulating Signal m(t)</text>

    <!-- Modulating signal waveform -->
    <path d="M 80,55 Q 150,25 220,40 Q 290,55 360,30 Q 430,15 500,25 Q 570,40 640,20 Q 710,10 780,15" 
          stroke="#8e44ad" stroke-width="3" fill="none">
      <animate attributeName="stroke-opacity" values="0.5;1;0.5" dur="4s" repeatCount="indefinite"/>
    </path>

    <!-- Axes -->
    <line x1="80" y1="60" x2="780" y2="60" stroke="#7f8c8d" stroke-width="1"/>
    <line x1="80" y1="60" x2="80" y2="20" stroke="#7f8c8d" stroke-width="1"/>
    <text x="790" y="65" fill="#7f8c8d" font-family="Arial, sans-serif" font-size="10">t</text>
    <text x="70" y="17" fill="#7f8c8d" font-family="Arial, sans-serif" font-size="10">A</text>
  </g>

  <!-- AM Section -->
  <g transform="translate(50,170)">
    <rect x="0" y="0" width="400" height="250" fill="url(#amGrad)" stroke="#c0392b" stroke-width="3" rx="10" opacity="0.1"/>
    <text x="200" y="25" text-anchor="middle" fill="#c0392b" font-family="Arial, sans-serif" font-size="16" font-weight="bold">
      AMPLITUDE MODULATION (AM)
    </text>

    <!-- AM Waveform -->
    <g transform="translate(20,40)">
      <rect x="0" y="0" width="360" height="100" fill="white" stroke="#c0392b" stroke-width="1" rx="3"/>
      <text x="10" y="15" fill="#c0392b" font-family="Arial, sans-serif" font-size="10" font-weight="bold">AM Signal</text>

      <!-- AM envelope and carrier -->
      <g transform="translate(20,20)">
        <!-- Upper envelope -->
        <path d="M 20,45 Q 60,25 100,35 Q 140,45 180,25 Q 220,15 260,20 Q 300,30 320,15" 
              stroke="#e74c3c" stroke-width="2" fill="none" stroke-dasharray="3,3"/>
        <!-- Lower envelope -->
        <path d="M 20,45 Q 60,65 100,55 Q 140,45 180,65 Q 220,75 260,70 Q 300,60 320,75" 
              stroke="#e74c3c" stroke-width="2" fill="none" stroke-dasharray="3,3"/>
        <!-- Carrier with varying amplitude -->
        <path d="M 20,45 Q 30,35 40,45 Q 50,55 60,45 Q 70,35 80,45 Q 90,55 100,45 Q 110,35 120,45 Q 130,55 140,45 Q 150,35 160,45 Q 170,55 180,45 Q 190,35 200,45 Q 210,55 220,45 Q 230,35 240,45 Q 250,55 260,45 Q 270,35 280,45 Q 290,55 300,45 Q 310,35 320,45" 
              stroke="#c0392b" stroke-width="2" fill="none">
          <animate attributeName="stroke-opacity" values="0.5;1;0.5" dur="2s" repeatCount="indefinite"/>
        </path>

        <!-- Axes -->
        <line x1="20" y1="60" x2="320" y2="60" stroke="#7f8c8d" stroke-width="1"/>
        <line x1="20" y1="60" x2="20" y2="10" stroke="#7f8c8d" stroke-width="1"/>
      </g>

      <text x="180" y="95" text-anchor="middle" fill="#c0392b" font-family="Arial, sans-serif" font-size="9">
        Amplitude varies with modulating signal
      </text>
    </g>

    <!-- AM Characteristics -->
    <g transform="translate(20,160)">
      <text x="0" y="0" fill="#c0392b" font-family="Arial, sans-serif" font-size="12" font-weight="bold">Key Characteristics:</text>
      <text x="0" y="18" fill="#2c3e50" font-family="Arial, sans-serif" font-size="10">• Amplitude varies with message</text>
      <text x="0" y="32" fill="#2c3e50" font-family="Arial, sans-serif" font-size="10">• Frequency remains constant</text>
      <text x="0" y="46" fill="#2c3e50" font-family="Arial, sans-serif" font-size="10">• Bandwidth = 2 × fm</text>
      <text x="0" y="60" fill="#2c3e50" font-family="Arial, sans-serif" font-size="10">• Poor noise immunity</text>
      <text x="0" y="74" fill="#2c3e50" font-family="Arial, sans-serif" font-size="10">• Simple circuitry</text>
    </g>
  </g>

  <!-- FM Section -->
  <g transform="translate(470,170)">
    <rect x="0" y="0" width="400" height="250" fill="url(#fmGrad)" stroke="#2980b9" stroke-width="3" rx="10" opacity="0.1"/>
    <text x="200" y="25" text-anchor="middle" fill="#2980b9" font-family="Arial, sans-serif" font-size="16" font-weight="bold">
      FREQUENCY MODULATION (FM)
    </text>

    <!-- FM Waveform -->
    <g transform="translate(20,40)">
      <rect x="0" y="0" width="360" height="100" fill="white" stroke="#2980b9" stroke-width="1" rx="3"/>
      <text x="10" y="15" fill="#2980b9" font-family="Arial, sans-serif" font-size="10" font-weight="bold">FM Signal</text>

      <!-- FM signal with varying frequency -->
      <g transform="translate(20,20)">
        <!-- Constant amplitude line -->
        <line x1="20" y1="25" x2="320" y2="25" stroke="#3498db" stroke-width="1" stroke-dasharray="3,3"/>
        <line x1="20" y1="65" x2="320" y2="65" stroke="#3498db" stroke-width="1" stroke-dasharray="3,3"/>

        <!-- FM signal with frequency variation -->
        <path d="M 20,45 Q 25,35 30,45 Q 35,55 40,45 Q 42,35 44,45 Q 46,55 48,45 Q 52,35 56,45 Q 60,55 64,45 Q 66,35 68,45 Q 70,55 72,45 Q 76,35 80,45 Q 85,55 90,45 Q 95,35 100,45 Q 102,55 104,45 Q 106,35 108,45 Q 110,55 112,45 Q 116,35 120,45 Q 125,55 130,45 Q 135,35 140,45 Q 142,55 144,45 Q 146,35 148,45 Q 150,55 152,45 Q 156,35 160,45 Q 165,55 170,45 Q 175,35 180,45 Q 182,55 184,45 Q 186,35 188,45 Q 190,55 192,45 Q 196,35 200,45 Q 205,55 210,45 Q 215,35 220,45 Q 222,55 224,45 Q 226,35 228,45 Q 230,55 232,45 Q 236,35 240,45 Q 245,55 250,45 Q 255,35 260,45 Q 262,55 264,45 Q 266,35 268,45 Q 270,55 272,45 Q 276,35 280,45 Q 285,55 290,45 Q 295,35 300,45 Q 302,55 304,45 Q 306,35 308,45 Q 310,55 312,45 Q 314,35 316,45 Q 318,55 320,45" 
              stroke="#2980b9" stroke-width="2" fill="none">
          <animate attributeName="stroke-opacity" values="0.5;1;0.5" dur="2s" repeatCount="indefinite"/>
        </path>

        <!-- Axes -->
        <line x1="20" y1="70" x2="320" y2="70" stroke="#7f8c8d" stroke-width="1"/>
        <line x1="20" y1="70" x2="20" y2="20" stroke="#7f8c8d" stroke-width="1"/>
      </g>

      <text x="180" y="95" text-anchor="middle" fill="#2980b9" font-family="Arial, sans-serif" font-size="9">
        Frequency varies with modulating signal
      </text>
    </g>

    <!-- FM Characteristics -->
    <g transform="translate(20,160)">
      <text x="0" y="0" fill="#2980b9" font-family="Arial, sans-serif" font-size="12" font-weight="bold">Key Characteristics:</text>
      <text x="0" y="18" fill="#2c3e50" font-family="Arial, sans-serif" font-size="10">• Frequency varies with message</text>
      <text x="0" y="32" fill="#2c3e50" font-family="Arial, sans-serif" font-size="10">• Amplitude remains constant</text>
      <text x="0" y="46" fill="#2c3e50" font-family="Arial, sans-serif" font-size="10">• Bandwidth = 2(Δf + fm)</text>
      <text x="0" y="60" fill="#2c3e50" font-family="Arial, sans-serif" font-size="10">• Excellent noise immunity</text>
      <text x="0" y="74" fill="#2c3e50" font-family="Arial, sans-serif" font-size="10">• Complex circuitry</text>
    </g>
  </g>

  <!-- Detailed Comparison Table -->
  <rect x="50" y="440" width="800" height="280" fill="white" stroke="#34495e" stroke-width="2" rx="10"/>
  <text x="450" y="465" text-anchor="middle" fill="#2c3e50" font-family="Arial, sans-serif" font-size="16" font-weight="bold">
    Detailed Comparison Table
  </text>

  <!-- Table headers -->
  <rect x="70" y="480" width="150" height="30" fill="#34495e"/>
  <rect x="220" y="480" width="200" height="30" fill="#e74c3c" opacity="0.8"/>
  <rect x="420" y="480" width="200" height="30" fill="#3498db" opacity="0.8"/>
  <rect x="620" y="480" width="210" height="30" fill="#27ae60" opacity="0.8"/>

  <text x="145" y="500" text-anchor="middle" fill="white" font-family="Arial, sans-serif" font-size="11" font-weight="bold">Parameter</text>
  <text x="320" y="500" text-anchor="middle" fill="white" font-family="Arial, sans-serif" font-size="11" font-weight="bold">AM</text>
  <text x="520" y="500" text-anchor="middle" fill="white" font-family="Arial, sans-serif" font-size="11" font-weight="bold">FM</text>
  <text x="725" y="500" text-anchor="middle" fill="white" font-family="Arial, sans-serif" font-size="11" font-weight="bold">Comments</text>

  <!-- Table rows -->
  <!-- Modulation Parameter -->
  <rect x="70" y="510" width="150" height="25" fill="#f8f9fa" stroke="#e0e0e0"/>
  <rect x="220" y="510" width="200" height="25" fill="#ffebee" stroke="#e0e0e0"/>
  <rect x="420" y="510" width="200" height="25" fill="#e3f2fd" stroke="#e0e0e0"/>
  <rect x="620" y="510" width="210" height="25" fill="#e8f5e8" stroke="#e0e0e0"/>

  <text x="145" y="527" text-anchor="middle" fill="#2c3e50" font-family="Arial, sans-serif" font-size="10" font-weight="bold">Modulation Parameter</text>
  <text x="320" y="527" text-anchor="middle" fill="#c0392b" font-family="Arial, sans-serif" font-size="10">Amplitude varies</text>
  <text x="520" y="527" text-anchor="middle" fill="#2980b9" font-family="Arial, sans-serif" font-size="10">Frequency varies</text>
  <text x="725" y="527" text-anchor="middle" fill="#27ae60" font-family="Arial, sans-serif" font-size="10">Fundamental difference</text>

  <!-- Bandwidth -->
  <rect x="70" y="535" width="150" height="25" fill="#f8f9fa" stroke="#e0e0e0"/>
  <rect x="220" y="535" width="200" height="25" fill="#ffebee" stroke="#e0e0e0"/>
  <rect x="420" y="535" width="200" height="25" fill="#e3f2fd" stroke="#e0e0e0"/>
  <rect x="620" y="535" width="210" height="25" fill="#e8f5e8" stroke="#e0e0e0"/>

  <text x="145" y="552" text-anchor="middle" fill="#2c3e50" font-family="Arial, sans-serif" font-size="10" font-weight="bold">Bandwidth</text>
  <text x="320" y="552" text-anchor="middle" fill="#c0392b" font-family="Arial, sans-serif" font-size="10">2 × fm (Narrow)</text>
  <text x="520" y="552" text-anchor="middle" fill="#2980b9" font-family="Arial, sans-serif" font-size="10">2(Δf + fm) (Wide)</text>
  <text x="725" y="552" text-anchor="middle" fill="#27ae60" font-family="Arial, sans-serif" font-size="10">FM needs more spectrum</text>

  <!-- Noise Immunity -->
  <rect x="70" y="560" width="150" height="25" fill="#f8f9fa" stroke="#e0e0e0"/>
  <rect x="220" y="560" width="200" height="25" fill="#ffebee" stroke="#e0e0e0"/>
  <rect x="420" y="560" width="200" height="25" fill="#e3f2fd" stroke="#e0e0e0"/>
  <rect x="620" y="560" width="210" height="25" fill="#e8f5e8" stroke="#e0e0e0"/>

  <text x="145" y="577" text-anchor="middle" fill="#2c3e50" font-family="Arial, sans-serif" font-size="10" font-weight="bold">Noise Immunity</text>
  <text x="320" y="577" text-anchor="middle" fill="#c0392b" font-family="Arial, sans-serif" font-size="10">Poor</text>
  <text x="520" y="577" text-anchor="middle" fill="#2980b9" font-family="Arial, sans-serif" font-size="10">Excellent</text>
  <text x="725" y="577" text-anchor="middle" fill="#27ae60" font-family="Arial, sans-serif" font-size="10">Constant amplitude in FM</text>

  <!-- Power Efficiency -->
  <rect x="70" y="585" width="150" height="25" fill="#f8f9fa" stroke="#e0e0e0"/>
  <rect x="220" y="585" width="200" height="25" fill="#ffebee" stroke="#e0e0e0"/>
  <rect x="420" y="585" width="200" height="25" fill="#e3f2fd" stroke="#e0e0e0"/>
  <rect x="620" y="585" width="210" height="25" fill="#e8f5e8" stroke="#e0e0e0"/>

  <text x="145" y="602" text-anchor="middle" fill="#2c3e50" font-family="Arial, sans-serif" font-size="10" font-weight="bold">Power Efficiency</text>
  <text x="320" y="602" text-anchor="middle" fill="#c0392b" font-family="Arial, sans-serif" font-size="10">Low (33% max)</text>
  <text x="520" y="602" text-anchor="middle" fill="#2980b9" font-family="Arial, sans-serif" font-size="10">High (100%)</text>
  <text x="725" y="602" text-anchor="middle" fill="#27ae60" font-family="Arial, sans-serif" font-size="10">AM wastes power in carrier</text>

  <!-- Circuit Complexity -->
  <rect x="70" y="610" width="150" height="25" fill="#f8f9fa" stroke="#e0e0e0"/>
  <rect x="220" y="610" width="200" height="25" fill="#ffebee" stroke="#e0e0e0"/>
  <rect x="420" y="610" width="200" height="25" fill="#e3f2fd" stroke="#e0e0e0"/>
  <rect x="620" y="610" width="210" height="25" fill="#e8f5e8" stroke="#e0e0e0"/>

  <text x="145" y="627" text-anchor="middle" fill="#2c3e50" font-family="Arial, sans-serif" font-size="10" font-weight="bold">Circuit Complexity</text>
  <text x="320" y="627" text-anchor="middle" fill="#c0392b" font-family="Arial, sans-serif" font-size="10">Simple</text>
  <text x="520" y="627" text-anchor="middle" fill="#2980b9" font-family="Arial, sans-serif" font-size="10">Complex</text>
  <text x="725" y="627" text-anchor="middle" fill="#27ae60" font-family="Arial, sans-serif" font-size="10">FM needs limiters, discriminators</text>

  <!-- Applications -->
  <rect x="70" y="635" width="150" height="25" fill="#f8f9fa" stroke="#e0e0e0"/>
  <rect x="220" y="635" width="200" height="25" fill="#ffebee" stroke="#e0e0e0"/>
  <rect x="420" y="635" width="200" height="25" fill="#e3f2fd" stroke="#e0e0e0"/>
  <rect x="620" y="635" width="210" height="25" fill="#e8f5e8" stroke="#e0e0e0"/>

  <text x="145" y="652" text-anchor="middle" fill="#2c3e50" font-family="Arial, sans-serif" font-size="10" font-weight="bold">Primary Applications</text>
  <text x="320" y="652" text-anchor="middle" fill="#c0392b" font-family="Arial, sans-serif" font-size="10">MW Radio, Aviation</text>
  <text x="520" y="652" text-anchor="middle" fill="#2980b9" font-family="Arial, sans-serif" font-size="10">VHF Radio, TV Audio</text>
  <text x="725" y="652" text-anchor="middle" fill="#27ae60" font-family="Arial, sans-serif" font-size="10">Based on quality requirements</text>

  <!-- Frequency Range -->
  <rect x="70" y="660" width="150" height="25" fill="#f8f9fa" stroke="#e0e0e0"/>
  <rect x="220" y="660" width="200" height="25" fill="#ffebee" stroke="#e0e0e0"/>
  <rect x="420" y="660" width="200" height="25" fill="#e3f2fd" stroke="#e0e0e0"/>
  <rect x="620" y="660" width="210" height="25" fill="#e8f5e8" stroke="#e0e0e0"/>

  <text x="145" y="677" text-anchor="middle" fill="#2c3e50" font-family="Arial, sans-serif" font-size="10" font-weight="bold">Typical Frequency</text>
  <text x="320" y="677" text-anchor="middle" fill="#c0392b" font-family="Arial, sans-serif" font-size="10">535-1605 kHz</text>
  <text x="520" y="677" text-anchor="middle" fill="#2980b9" font-family="Arial, sans-serif" font-size="10">88-108 MHz</text>
  <text x="725" y="677" text-anchor="middle" fill="#27ae60" font-family="Arial, sans-serif" font-size="10">Different bands for each</text>

  <!-- Mathematical expressions -->
  <rect x="70" y="695" width="760" height="20" fill="#ecf0f1" stroke="#bdc3c7" stroke-width="1"/>
  <text x="450" y="708" text-anchor="middle" fill="#2c3e50" font-family="Arial, sans-serif" font-size="10" font-weight="bold">
    Mathematical Forms: AM: s(t) = Ac[1 + m cos(ωmt)]cos(ωct) | FM: s(t) = Ac cos(ωct + mf sin(ωmt))
  </text>
</svg>