<svg viewBox="0 0 800 700" xmlns="http://www.w3.org/2000/svg">
  <defs>
    <!-- Gradients for different signal types -->
    <linearGradient id="analogGrad" x1="0%" y1="0%" x2="0%" y2="100%">
      <stop offset="0%" style="stop-color:#3498db;stop-opacity:1" />
      <stop offset="100%" style="stop-color:#2980b9;stop-opacity:1" />
    </linearGradient>
    <linearGradient id="pamGrad" x1="0%" y1="0%" x2="0%" y2="100%">
      <stop offset="0%" style="stop-color:#e74c3c;stop-opacity:1" />
      <stop offset="100%" style="stop-color:#c0392b;stop-opacity:1" />
    </linearGradient>
    <linearGradient id="pwmGrad" x1="0%" y1="0%" x2="0%" y2="100%">
      <stop offset="0%" style="stop-color:#f39c12;stop-opacity:1" />
      <stop offset="100%" style="stop-color:#e67e22;stop-opacity:1" />
    </linearGradient>
    <linearGradient id="ppmGrad" x1="0%" y1="0%" x2="0%" y2="100%">
      <stop offset="0%" style="stop-color:#27ae60;stop-opacity:1" />
      <stop offset="100%" style="stop-color:#229954;stop-opacity:1" />
    </linearGradient>

    <!-- Animation for signal flow -->
    <animate id="signalSweep" attributeName="x" values="-10;750;-10" dur="4s" repeatCount="indefinite"/>
  </defs>

  <!-- Background -->
  <rect width="800" height="700" fill="#f8f9fa"/>

  <!-- Title -->
  <text x="400" y="30" text-anchor="middle" class="title" fill="#2c3e50" font-family="Arial, sans-serif" font-size="18" font-weight="bold">
    Pulse Modulation Techniques - PAM, PWM, PPM
  </text>

  <!-- Modulating Signal (Reference) -->
  <g transform="translate(50,60)">
    <rect x="0" y="0" width="700" height="100" fill="white" stroke="#34495e" stroke-width="2" rx="5"/>
    <text x="10" y="20" fill="#3498db" font-family="Arial, sans-serif" font-size="12" font-weight="bold">Modulating Signal m(t)</text>

    <!-- Analog signal path -->
    <path d="M 50,75 Q 100,45 150,60 Q 200,75 250,50 Q 300,25 350,40 Q 400,55 450,35 Q 500,15 550,30 Q 600,45 650,25" 
          stroke="url(#analogGrad)" stroke-width="3" fill="none"/>

    <!-- Signal markers -->
    <g stroke="#2980b9" stroke-width="1" fill="#3498db">
      <circle cx="100" cy="52" r="3"/>
      <circle cx="200" cy="70" r="3"/>
      <circle cx="300" cy="32" r="3"/>
      <circle cx="400" cy="48" r="3"/>
      <circle cx="500" cy="22" r="3"/>
      <circle cx="600" cy="38" r="3"/>
    </g>

    <!-- Axes -->
    <line x1="50" y1="85" x2="650" y2="85" stroke="#7f8c8d" stroke-width="1"/>
    <line x1="50" y1="85" x2="50" y2="15" stroke="#7f8c8d" stroke-width="1"/>
    <text x="675" y="90" fill="#7f8c8d" font-family="Arial, sans-serif" font-size="10">t</text>
    <text x="40" y="12" fill="#7f8c8d" font-family="Arial, sans-serif" font-size="10">A</text>

    <!-- Amplitude labels -->
    <text x="110" y="45" fill="#c0392b" font-family="Arial, sans-serif" font-size="8">A1</text>
    <text x="210" y="58" fill="#c0392b" font-family="Arial, sans-serif" font-size="8">A2</text>
    <text x="310" y="25" fill="#c0392b" font-family="Arial, sans-serif" font-size="8">A3</text>
    <text x="410" y="36" fill="#c0392b" font-family="Arial, sans-serif" font-size="8">A4</text>
    <text x="510" y="15" fill="#c0392b" font-family="Arial, sans-serif" font-size="8">A5</text>
    <text x="610" y="26" fill="#c0392b" font-family="Arial, sans-serif" font-size="8">A6</text>
  </g>

  <!-- PWM (Pulse Width Modulation) -->
  <g transform="translate(50,300)">
    <rect x="0" y="0" width="700" height="100" fill="white" stroke="#34495e" stroke-width="2" rx="5"/>
    <text x="10" y="20" fill="#f39c12" font-family="Arial, sans-serif" font-size="12" font-weight="bold">PWM - Pulse Width Modulation</text>

    <!-- PWM pulses with varying widths -->
    <g fill="url(#pwmGrad)" stroke="#e67e22" stroke-width="2">
      <!-- Pulse 1 - medium width -->
      <rect x="95" y="45" width="15" height="40">
        <animate attributeName="fill-opacity" values="0.3;1;0.3" dur="3s" repeatCount="indefinite"/>
      </rect>
      <!-- Pulse 2 - narrow width -->
      <rect x="195" y="45" width="8" height="40">
        <animate attributeName="fill-opacity" values="0.3;1;0.3" dur="3s" repeatCount="indefinite" begin="0.5s"/>
      </rect>
      <!-- Pulse 3 - very wide width -->
      <rect x="295" y="45" width="25" height="40">
        <animate attributeName="fill-opacity" values="0.3;1;0.3" dur="3s" repeatCount="indefinite" begin="1s"/>
      </rect>
      <!-- Pulse 4 - wide width -->
      <rect x="395" y="45" width="20" height="40">
        <animate attributeName="fill-opacity" values="0.3;1;0.3" dur="3s" repeatCount="indefinite" begin="1.5s"/>
      </rect>
      <!-- Pulse 5 - very narrow width -->
      <rect x="495" y="45" width="5" height="40">
        <animate attributeName="fill-opacity" values="0.3;1;0.3" dur="3s" repeatCount="indefinite" begin="2s"/>
      </rect>
      <!-- Pulse 6 - medium-wide width -->
      <rect x="595" y="45" width="18" height="40">
        <animate attributeName="fill-opacity" values="0.3;1;0.3" dur="3s" repeatCount="indefinite" begin="2.5s"/>
      </rect>
    </g>

    <!-- Axes -->
    <line x1="50" y1="85" x2="650" y2="85" stroke="#7f8c8d" stroke-width="1"/>
    <line x1="50" y1="85" x2="50" y2="15" stroke="#7f8c8d" stroke-width="1"/>
    <text x="675" y="90" fill="#7f8c8d" font-family="Arial, sans-serif" font-size="10">t</text>
    <text x="40" y="12" fill="#7f8c8d" font-family="Arial, sans-serif" font-size="10">A</text>

    <!-- Width labels -->
    <text x="102" y="38" fill="#e67e22" font-family="Arial, sans-serif" font-size="8">W1</text>
    <text x="199" y="38" fill="#e67e22" font-family="Arial, sans-serif" font-size="8">W2</text>
    <text x="307" y="38" fill="#e67e22" font-family="Arial, sans-serif" font-size="8">W3</text>
    <text x="405" y="38" fill="#e67e22" font-family="Arial, sans-serif" font-size="8">W4</text>
    <text x="497" y="38" fill="#e67e22" font-family="Arial, sans-serif" font-size="8">W5</text>
    <text x="604" y="38" fill="#e67e22" font-family="Arial, sans-serif" font-size="8">W6</text>

    <!-- Constant amplitude line -->
    <line x1="50" y1="45" x2="650" y2="45" stroke="#d35400" stroke-width="1" stroke-dasharray="3,3"/>
    <text x="660" y="48" fill="#d35400" font-family="Arial, sans-serif" font-size="8">Constant Amplitude</text>
  </g>

  <!-- PPM (Pulse Position Modulation) -->
  <g transform="translate(50,420)">
    <rect x="0" y="0" width="700" height="100" fill="white" stroke="#34495e" stroke-width="2" rx="5"/>
    <text x="10" y="20" fill="#27ae60" font-family="Arial, sans-serif" font-size="12" font-weight="bold">PPM - Pulse Position Modulation</text>

    <!-- Reference positions (dotted lines) -->
    <g stroke="#95a5a6" stroke-width="1" stroke-dasharray="2,2">
      <line x1="100" y1="15" x2="100" y2="85"/>
      <line x1="200" y1="15" x2="200" y2="85"/>
      <line x1="300" y1="15" x2="300" y2="85"/>
      <line x1="400" y1="15" x2="400" y2="85"/>
      <line x1="500" y1="15" x2="500" y2="85"/>
      <line x1="600" y1="15" x2="600" y2="85"/>
    </g>
    <text x="350" y="12" text-anchor="middle" fill="#95a5a6" font-family="Arial, sans-serif" font-size="8">Reference Positions</text>

    <!-- PPM pulses with varying positions -->
    <g fill="url(#ppmGrad)" stroke="#229954" stroke-width="2">
      <!-- Pulse 1 - slightly delayed -->
      <rect x="105" y="45" width="8" height="40">
        <animate attributeName="fill-opacity" values="0.3;1;0.3" dur="3s" repeatCount="indefinite"/>
      </rect>
      <!-- Pulse 2 - more delayed -->
      <rect x="210" y="45" width="8" height="40">
        <animate attributeName="fill-opacity" values="0.3;1;0.3" dur="3s" repeatCount="indefinite" begin="0.5s"/>
      </rect>
      <!-- Pulse 3 - advanced -->
      <rect x="290" y="45" width="8" height="40">
        <animate attributeName="fill-opacity" values="0.3;1;0.3" dur="3s" repeatCount="indefinite" begin="1s"/>
      </rect>
      <!-- Pulse 4 - slightly advanced -->
      <rect x="395" y="45" width="8" height="40">
        <animate attributeName="fill-opacity" values="0.3;1;0.3" dur="3s" repeatCount="indefinite" begin="1.5s"/>
      </rect>
      <!-- Pulse 5 - greatly advanced -->
      <rect x="485" y="45" width="8" height="40">
        <animate attributeName="fill-opacity" values="0.3;1;0.3" dur="3s" repeatCount="indefinite" begin="2s"/>
      </rect>
      <!-- Pulse 6 - slightly delayed -->
      <rect x="608" y="45" width="8" height="40">
        <animate attributeName="fill-opacity" values="0.3;1;0.3" dur="3s" repeatCount="indefinite" begin="2.5s"/>
      </rect>
    </g>

    <!-- Axes -->
    <line x1="50" y1="85" x2="650" y2="85" stroke="#7f8c8d" stroke-width="1"/>
    <line x1="50" y1="85" x2="50" y2="15" stroke="#7f8c8d" stroke-width="1"/>
    <text x="675" y="90" fill="#7f8c8d" font-family="Arial, sans-serif" font-size="10">t</text>
    <text x="40" y="12" fill="#7f8c8d" font-family="Arial, sans-serif" font-size="10">A</text>

    <!-- Position deviation arrows -->
    <g stroke="#16a085" stroke-width="2" fill="none">
      <path d="M 100,95 L 109,95" marker-end="url(#greenArrow)"/>
      <path d="M 200,95 L 218,95" marker-end="url(#greenArrow)"/>
      <path d="M 300,95 L 298,95" marker-end="url(#greenArrow)"/>
      <path d="M 400,95 L 403,95" marker-end="url(#greenArrow)"/>
      <path d="M 500,95 L 493,95" marker-end="url(#greenArrow)"/>
      <path d="M 600,95 L 616,95" marker-end="url(#greenArrow)"/>
    </g>

    <!-- Position labels -->
    <text x="104" y="105" fill="#16a085" font-family="Arial, sans-serif" font-size="8">+Δt1</text>
    <text x="209" y="105" fill="#16a085" font-family="Arial, sans-serif" font-size="8">+Δt2</text>
    <text x="294" y="105" fill="#16a085" font-family="Arial, sans-serif" font-size="8">-Δt3</text>
    <text x="399" y="105" fill="#16a085" font-family="Arial, sans-serif" font-size="8">+Δt4</text>
    <text x="489" y="105" fill="#16a085" font-family="Arial, sans-serif" font-size="8">-Δt5</text>
    <text x="612" y="105" fill="#16a085" font-family="Arial, sans-serif" font-size="8">+Δt6</text>

    <!-- Constant amplitude and width line -->
    <line x1="50" y1="45" x2="650" y2="45" stroke="#1e8449" stroke-width="1" stroke-dasharray="3,3"/>
    <text x="660" y="48" fill="#1e8449" font-family="Arial, sans-serif" font-size="8">Constant Amplitude &amp; Width</text>
  </g>

  <!-- Arrow marker definitions -->
  <defs>
    <marker id="greenArrow" markerWidth="10" markerHeight="7" refX="9" refY="3.5" orient="auto">
      <polygon points="0 0, 10 3.5, 0 7" fill="#16a085"/>
    </marker>
  </defs>

  <!-- Comparison Table -->
  <rect x="50" y="540" width="700" height="140" fill="white" stroke="#34495e" stroke-width="2" rx="10"/>
  <text x="400" y="565" text-anchor="middle" fill="#2c3e50" font-family="Arial, sans-serif" font-size="14" font-weight="bold">
    Pulse Modulation Comparison
  </text>

  <!-- Table headers -->
  <rect x="70" y="580" width="120" height="25" fill="#34495e"/>
  <rect x="190" y="580" width="150" height="25" fill="#34495e"/>
  <rect x="340" y="580" width="120" height="25" fill="#34495e"/>
  <rect x="460" y="580" width="120" height="25" fill="#34495e"/>
  <rect x="580" y="580" width="150" height="25" fill="#34495e"/>

  <text x="130" y="597" text-anchor="middle" fill="white" font-family="Arial, sans-serif" font-size="10" font-weight="bold">Type</text>
  <text x="265" y="597" text-anchor="middle" fill="white" font-family="Arial, sans-serif" font-size="10" font-weight="bold">Parameter Varied</text>
  <text x="520" y="597" text-anchor="middle" fill="white" font-family="Arial, sans-serif" font-size="10" font-weight="bold">Bandwidth</text>
  <text x="400" y="597" text-anchor="middle" fill="white" font-family="Arial, sans-serif" font-size="10" font-weight="bold">Immunity</text>
  <text x="655" y="597" text-anchor="middle" fill="white" font-family="Arial, sans-serif" font-size="10" font-weight="bold">Applications</text>

  <!-- PAM row -->
  <rect x="70" y="605" width="120" height="25" fill="#ffebee" stroke="#e0e0e0"/>
  <rect x="190" y="605" width="150" height="25" fill="#ffebee" stroke="#e0e0e0"/>
  <rect x="340" y="605" width="120" height="25" fill="#ffebee" stroke="#e0e0e0"/>
  <rect x="460" y="605" width="120" height="25" fill="#ffebee" stroke="#e0e0e0"/>
  <rect x="580" y="605" width="150" height="25" fill="#ffebee" stroke="#e0e0e0"/>

  <text x="130" y="620" text-anchor="middle" fill="#e74c3c" font-family="Arial, sans-serif" font-size="10" font-weight="bold">PAM</text>
  <text x="265" y="620" text-anchor="middle" fill="#2c3e50" font-family="Arial, sans-serif" font-size="9">Pulse Amplitude</text>
  <text x="400" y="620" text-anchor="middle" fill="#2c3e50" font-family="Arial, sans-serif" font-size="9">Poor</text>
  <text x="520" y="620" text-anchor="middle" fill="#2c3e50" font-family="Arial, sans-serif" font-size="9">Narrow</text>
  <text x="655" y="620" text-anchor="middle" fill="#2c3e50" font-family="Arial, sans-serif" font-size="9">Simple systems</text>

  <!-- PWM row -->
  <rect x="70" y="630" width="120" height="25" fill="#fff3e0" stroke="#e0e0e0"/>
  <rect x="190" y="630" width="150" height="25" fill="#fff3e0" stroke="#e0e0e0"/>
  <rect x="340" y="630" width="120" height="25" fill="#fff3e0" stroke="#e0e0e0"/>
  <rect x="460" y="630" width="120" height="25" fill="#fff3e0" stroke="#e0e0e0"/>
  <rect x="580" y="630" width="150" height="25" fill="#fff3e0" stroke="#e0e0e0"/>

  <text x="130" y="645" text-anchor="middle" fill="#f39c12" font-family="Arial, sans-serif" font-size="10" font-weight="bold">PWM</text>
  <text x="265" y="645" text-anchor="middle" fill="#2c3e50" font-family="Arial, sans-serif" font-size="9">Pulse Width</text>
  <text x="400" y="645" text-anchor="middle" fill="#2c3e50" font-family="Arial, sans-serif" font-size="9">Good</text>
  <text x="520" y="645" text-anchor="middle" fill="#2c3e50" font-family="Arial, sans-serif" font-size="9">Medium</text>
  <text x="655" y="645" text-anchor="middle" fill="#2c3e50" font-family="Arial, sans-serif" font-size="9">Motor control, inverters</text>

  <!-- PPM row -->
  <rect x="70" y="655" width="120" height="25" fill="#e8f5e8" stroke="#e0e0e0"/>
  <rect x="190" y="655" width="150" height="25" fill="#e8f5e8" stroke="#e0e0e0"/>
  <rect x="340" y="655" width="120" height="25" fill="#e8f5e8" stroke="#e0e0e0"/>
  <rect x="460" y="655" width="120" height="25" fill="#e8f5e8" stroke="#e0e0e0"/>
  <rect x="580" y="655" width="150" height="25" fill="#e8f5e8" stroke="#e0e0e0"/>

  <text x="130" y="670" text-anchor="middle" fill="#27ae60" font-family="Arial, sans-serif" font-size="10" font-weight="bold">PPM</text>
  <text x="265" y="670" text-anchor="middle" fill="#2c3e50" font-family="Arial, sans-serif" font-size="9">Pulse Position</text>
  <text x="400" y="670" text-anchor="middle" fill="#2c3e50" font-family="Arial, sans-serif" font-size="9">Excellent</text>
  <text x="520" y="670" text-anchor="middle" fill="#2c3e50" font-family="Arial, sans-serif" font-size="9">Wide</text>
  <text x="655" y="670" text-anchor="middle" fill="#2c3e50" font-family="Arial, sans-serif" font-size="9">Digital systems, telecomm</text>
  
  <!-- PAM Signal Details -->
  <g transform="translate(50, 480)">
    <text x="40" y="12" fill="#7f8c8d" font-family="Arial, sans-serif" font-size="10">PAM Details</text>

    <!-- Sampling instants -->
    <g stroke="#8e44ad" stroke-width="1" stroke-dasharray="2,2">
      <line x1="100" y1="15" x2="100" y2="85"/>
      <line x1="200" y1="15" x2="200" y2="85"/>
      <line x1="300" y1="15" x2="300" y2="85"/>
      <line x1="400" y1="15" x2="400" y2="85"/>
      <line x1="500" y1="15" x2="500" y2="85"/>
      <line x1="600" y1="15" x2="600" y2="85"/>
    </g>
    <text x="350" y="12" text-anchor="middle" fill="#8e44ad" font-family="Arial, sans-serif" font-size="9">Sampling Instants</text>
  </g>

  <!-- PAM (Pulse Amplitude Modulation) -->
  <g transform="translate(50,180)">
    <rect x="0" y="0" width="700" height="100" fill="white" stroke="#34495e" stroke-width="2" rx="5"/>
    <text x="10" y="20" fill="#e74c3c" font-family="Arial, sans-serif" font-size="12" font-weight="bold">PAM - Pulse Amplitude Modulation</text>

    <!-- PAM pulses with varying amplitudes -->
    <g fill="url(#pamGrad)" stroke="#c0392b" stroke-width="2">
      <!-- Pulse 1 - medium amplitude -->
      <rect x="95" y="52" width="10" height="33">
        <animate attributeName="fill-opacity" values="0.3;1;0.3" dur="3s" repeatCount="indefinite"/>
      </rect>
      <!-- Pulse 2 - low amplitude -->
      <rect x="195" y="65" width="10" height="20">
        <animate attributeName="fill-opacity" values="0.3;1;0.3" dur="3s" repeatCount="indefinite" begin="0.5s"/>
      </rect>
      <!-- Pulse 3 - high amplitude -->
      <rect x="295" y="32" width="10" height="53">
        <animate attributeName="fill-opacity" values="0.3;1;0.3" dur="3s" repeatCount="indefinite" begin="1s"/>
      </rect>
      <!-- Pulse 4 - medium-high amplitude -->
      <rect x="395" y="43" width="10" height="42">
        <animate attributeName="fill-opacity" values="0.3;1;0.3" dur="3s" repeatCount="indefinite" begin="1.5s"/>
      </rect>
      <!-- Pulse 5 - very high amplitude -->
      <rect x="495" y="22" width="10" height="63">
        <animate attributeName="fill-opacity" values="0.3;1;0.3" dur="3s" repeatCount="indefinite" begin="2s"/>
      </rect>
      <!-- Pulse 6 - high amplitude -->
      <rect x="595" y="33" width="10" height="52">
        <animate attributeName="fill-opacity" values="0.3;1;0.3" dur="3s" repeatCount="indefinite" begin="2.5s"/>
      </rect>
    </g>

    <!-- Axes -->
    <line x1="50" y1="85" x2="650" y2="85" stroke="#7f8c8d" stroke-width="1"/>
    <line x1="50" y1="85" x2="50" y2="15" stroke="#7f8c8d" stroke-width="1"/>
    <text x="675" y="90" fill="#7f8c8d" font-family="Arial, sans-serif" font-size="10">t</text>
  </g>
</svg>