<svg viewBox="0 0 800 650" xmlns="http://www.w3.org/2000/svg">
  <defs>
    <!-- Gradients -->
    <linearGradient id="signalGrad" x1="0%" y1="0%" x2="0%" y2="100%">
      <stop offset="0%" style="stop-color:#3498db;stop-opacity:1" />
      <stop offset="100%" style="stop-color:#2980b9;stop-opacity:1" />
    </linearGradient>
    <linearGradient id="sampledGrad" x1="0%" y1="0%" x2="0%" y2="100%">
      <stop offset="0%" style="stop-color:#e74c3c;stop-opacity:1" />
      <stop offset="100%" style="stop-color:#c0392b;stop-opacity:1" />
    </linearGradient>
    <linearGradient id="reconstructedGrad" x1="0%" y1="0%" x2="0%" y2="100%">
      <stop offset="0%" style="stop-color:#27ae60;stop-opacity:1" />
      <stop offset="100%" style="stop-color:#229954;stop-opacity:1" />
    </linearGradient>

    <!-- Signal sweep animation -->
    <animate id="signalSweep" attributeName="x" values="-20;750;-20" dur="6s" repeatCount="indefinite"/>
  </defs>

  <!-- Background -->
  <rect width="800" height="650" fill="#f8f9fa"/>

  <!-- Title -->
  <text x="400" y="30" text-anchor="middle" class="title" fill="#2c3e50" font-family="Arial, sans-serif" font-size="18" font-weight="bold">
    Sampling Theorem Demonstration
  </text>

  <!-- Sampling Theorem Statement Box -->
  <rect x="50" y="50" width="700" height="60" fill="#e8f4f8" stroke="#3498db" stroke-width="2" rx="5"/>
  <text x="400" y="70" text-anchor="middle" fill="#2c3e50" font-family="Arial, sans-serif" font-size="12" font-weight="bold">
    Sampling Theorem (Nyquist-Shannon Theorem)
  </text>
  <text x="400" y="85" text-anchor="middle" fill="#34495e" font-family="Arial, sans-serif" font-size="11">
    "A band-limited continuous signal can be perfectly reconstructed from its samples"
  </text>
  <text x="400" y="100" text-anchor="middle" fill="#e74c3c" font-family="Arial, sans-serif" font-size="11" font-weight="bold">
    if fs ≥ 2fm (Sampling frequency ≥ 2 × Maximum signal frequency)
  </text>

  <!-- Original Continuous Signal -->
  <g transform="translate(50,130)">
    <rect x="0" y="0" width="700" height="120" fill="white" stroke="#34495e" stroke-width="2" rx="5"/>
    <text x="10" y="20" fill="#3498db" font-family="Arial, sans-serif" font-size="12" font-weight="bold">Original Continuous Signal x(t)</text>

    <!-- Continuous signal waveform -->
    <path d="M 50,80 Q 100,40 150,60 Q 200,80 250,50 Q 300,20 350,40 Q 400,60 450,30 Q 500,10 550,25 Q 600,45 650,35" 
          stroke="url(#signalGrad)" stroke-width="3" fill="none">
      <animate attributeName="stroke-opacity" values="0.3;1;0.3" dur="3s" repeatCount="indefinite"/>
    </path>

    <!-- Axes -->
    <line x1="50" y1="90" x2="650" y2="90" stroke="#7f8c8d" stroke-width="1"/>
    <line x1="50" y1="90" x2="50" y2="20" stroke="#7f8c8d" stroke-width="1"/>
    <text x="675" y="95" fill="#7f8c8d" font-family="Arial, sans-serif" font-size="10">t</text>
    <text x="40" y="17" fill="#7f8c8d" font-family="Arial, sans-serif" font-size="10">A</text>

    <!-- Signal characteristics -->
    <text x="350" y="110" text-anchor="middle" fill="#2980b9" font-family="Arial, sans-serif" font-size="10">
      Maximum Frequency: fm = 5 kHz
    </text>
  </g>

  <!-- Proper Sampling (fs ≥ 2fm) -->
  <g transform="translate(50,270)">
    <rect x="0" y="0" width="700" height="120" fill="white" stroke="#34495e" stroke-width="2" rx="5"/>
    <text x="10" y="20" fill="#e74c3c" font-family="Arial, sans-serif" font-size="12" font-weight="bold">Proper Sampling: fs = 12 kHz (≥ 2fm = 10 kHz)</text>

    <!-- Sampled signal points -->
    <g fill="url(#sampledGrad)" stroke="#c0392b" stroke-width="2">
      <circle cx="90" cy="70" r="4">
        <animate attributeName="fill-opacity" values="0.3;1;0.3" dur="2s" repeatCount="indefinite"/>
      </circle>
      <circle cx="140" cy="50" r="4">
        <animate attributeName="fill-opacity" values="0.3;1;0.3" dur="2s" repeatCount="indefinite" begin="0.2s"/>
      </circle>
      <circle cx="190" cy="75" r="4">
        <animate attributeName="fill-opacity" values="0.3;1;0.3" dur="2s" repeatCount="indefinite" begin="0.4s"/>
      </circle>
      <circle cx="240" cy="55" r="4">
        <animate attributeName="fill-opacity" values="0.3;1;0.3" dur="2s" repeatCount="indefinite" begin="0.6s"/>
      </circle>
      <circle cx="290" cy="35" r="4">
        <animate attributeName="fill-opacity" values="0.3;1;0.3" dur="2s" repeatCount="indefinite" begin="0.8s"/>
      </circle>
      <circle cx="340" cy="45" r="4">
        <animate attributeName="fill-opacity" values="0.3;1;0.3" dur="2s" repeatCount="indefinite" begin="1s"/>
      </circle>
      <circle cx="390" cy="65" r="4">
        <animate attributeName="fill-opacity" values="0.3;1;0.3" dur="2s" repeatCount="indefinite" begin="1.2s"/>
      </circle>
      <circle cx="440" cy="35" r="4">
        <animate attributeName="fill-opacity" values="0.3;1;0.3" dur="2s" repeatCount="indefinite" begin="1.4s"/>
      </circle>
      <circle cx="490" cy="25" r="4">
        <animate attributeName="fill-opacity" values="0.3;1;0.3" dur="2s" repeatCount="indefinite" begin="1.6s"/>
      </circle>
      <circle cx="540" cy="30" r="4">
        <animate attributeName="fill-opacity" values="0.3;1;0.3" dur="2s" repeatCount="indefinite" begin="1.8s"/>
      </circle>
      <circle cx="590" cy="50" r="4">
        <animate attributeName="fill-opacity" values="0.3;1;0.3" dur="2s" repeatCount="indefinite" begin="2s"/>
      </circle>
      <circle cx="640" cy="40" r="4">
        <animate attributeName="fill-opacity" values="0.3;1;0.3" dur="2s" repeatCount="indefinite" begin="2.2s"/>
      </circle>
    </g>

    <!-- Sampling instants (vertical lines) -->
    <g stroke="#e74c3c" stroke-width="1" stroke-dasharray="2,2" opacity="0.7">
      <line x1="90" y1="20" x2="90" y2="90"/>
      <line x1="140" y1="20" x2="140" y2="90"/>
      <line x1="190" y1="20" x2="190" y2="90"/>
      <line x1="240" y1="20" x2="240" y2="90"/>
      <line x1="290" y1="20" x2="290" y2="90"/>
      <line x1="340" y1="20" x2="340" y2="90"/>
      <line x1="390" y1="20" x2="390" y2="90"/>
      <line x1="440" y1="20" x2="440" y2="90"/>
      <line x1="490" y1="20" x2="490" y2="90"/>
      <line x1="540" y1="20" x2="540" y2="90"/>
      <line x1="590" y1="20" x2="590" y2="90"/>
      <line x1="640" y1="20" x2="640" y2="90"/>
    </g>

    <!-- Axes -->
    <line x1="50" y1="90" x2="650" y2="90" stroke="#7f8c8d" stroke-width="1"/>
    <line x1="50" y1="90" x2="50" y2="20" stroke="#7f8c8d" stroke-width="1"/>
    <text x="675" y="95" fill="#7f8c8d" font-family="Arial, sans-serif" font-size="10">t</text>
    <text x="40" y="17" fill="#7f8c8d" font-family="Arial, sans-serif" font-size="10">A</text>

    <!-- Sampling info -->
    <text x="350" y="110" text-anchor="middle" fill="#c0392b" font-family="Arial, sans-serif" font-size="10">
      Sampling Period: Ts = 1/fs = 83.3 μs | Nyquist Rate: 2fm = 10 kHz ✓
    </text>
  </g>

  <!-- Reconstructed Signal -->
  <g transform="translate(50,410)">
    <rect x="0" y="0" width="700" height="120" fill="white" stroke="#34495e" stroke-width="2" rx="5"/>
    <text x="10" y="20" fill="#27ae60" font-family="Arial, sans-serif" font-size="12" font-weight="bold">Reconstructed Signal (Perfect Recovery)</text>

    <!-- Reconstructed signal waveform -->
    <path d="M 90,70 Q 115,60 140,50 Q 165,62 190,75 Q 215,65 240,55 Q 265,45 290,35 Q 315,40 340,45 Q 365,55 390,65 Q 415,50 440,35 Q 465,30 490,25 Q 515,27 540,30 Q 565,40 590,50 Q 615,45 640,40" 
          stroke="url(#reconstructedGrad)" stroke-width="3" fill="none">
      <animate attributeName="stroke-opacity" values="0.3;1;0.3" dur="3s" repeatCount="indefinite" begin="1s"/>
    </path>

    <!-- Sample points for reference -->
    <g fill="#229954" stroke="none" opacity="0.6">
      <circle cx="90" cy="70" r="2"/>
      <circle cx="140" cy="50" r="2"/>
      <circle cx="190" cy="75" r="2"/>
      <circle cx="240" cy="55" r="2"/>
      <circle cx="290" cy="35" r="2"/>
      <circle cx="340" cy="45" r="2"/>
      <circle cx="390" cy="65" r="2"/>
      <circle cx="440" cy="35" r="2"/>
      <circle cx="490" cy="25" r="2"/>
      <circle cx="540" cy="30" r="2"/>
      <circle cx="590" cy="50" r="2"/>
      <circle cx="640" cy="40" r="2"/>
    </g>

    <!-- Axes -->
    <line x1="50" y1="90" x2="650" y2="90" stroke="#7f8c8d" stroke-width="1"/>
    <line x1="50" y1="90" x2="50" y2="20" stroke="#7f8c8d" stroke-width="1"/>
    <text x="675" y="95" fill="#7f8c8d" font-family="Arial, sans-serif" font-size="10">t</text>
    <text x="40" y="17" fill="#7f8c8d" font-family="Arial, sans-serif" font-size="10">A</text>

    <!-- Perfect reconstruction indication -->
    <text x="350" y="110" text-anchor="middle" fill="#229954" font-family="Arial, sans-serif" font-size="10" font-weight="bold">
      Perfect Reconstruction: Original = Reconstructed (No Information Loss)
    </text>
  </g>

  <!-- Key Concepts Box -->
  <rect x="50" y="550" width="340" height="80" fill="#fff3cd" stroke="#f39c12" stroke-width="2" rx="5"/>
  <text x="220" y="570" text-anchor="middle" fill="#e67e22" font-family="Arial, sans-serif" font-size="12" font-weight="bold">
    Key Concepts
  </text>
  <text x="60" y="590" fill="#d35400" font-family="Arial, sans-serif" font-size="10">
    • Nyquist Rate: fs,min = 2fm
  </text>
  <text x="60" y="605" fill="#d35400" font-family="Arial, sans-serif" font-size="10">
    • Nyquist Interval: Ts,max = 1/(2fm)
  </text>
  <text x="60" y="620" fill="#d35400" font-family="Arial, sans-serif" font-size="10">
    • Band-limited signal: Contains no frequency > fm
  </text>

  <!-- Under-sampling Example -->
  <rect x="410" y="550" width="340" height="80" fill="#f8d7da" stroke="#e74c3c" stroke-width="2" rx="5"/>
  <text x="580" y="570" text-anchor="middle" fill="#c0392b" font-family="Arial, sans-serif" font-size="12" font-weight="bold">
    Under-sampling (fs &lt; 2fm)
  </text>
  <text x="420" y="590" fill="#a71e34" font-family="Arial, sans-serif" font-size="10">
    • Aliasing occurs: High frequencies fold back
  </text>
  <text x="420" y="605" fill="#a71e34" font-family="Arial, sans-serif" font-size="10">
    • Information is lost permanently
  </text>
  <text x="420" y="620" fill="#a71e34" font-family="Arial, sans-serif" font-size="10">
    • Perfect reconstruction impossible
  </text>

  <!-- Mathematical expressions -->
  <g transform="translate(200,240)" fill="#8e44ad" font-family="Arial, sans-serif">
    <text x="0" y="0" font-size="12" font-weight="bold">Mathematical Conditions:</text>
    <text x="0" y="20" font-size="11">fs ≥ 2fm → Perfect reconstruction possible</text>
    <text x="0" y="35" font-size="11">fs &lt; 2fm → Aliasing, information loss</text>
    <text x="0" y="50" font-size="11">fs = 2fm → Critical sampling (Nyquist rate)</text>
  </g>

  <!-- Frequency domain illustration -->
  <g transform="translate(450,240)">
    <rect x="0" y="0" width="200" height="80" fill="#f4f4f4" stroke="#95a5a6" stroke-width="1" rx="3"/>
    <text x="100" y="15" text-anchor="middle" fill="#2c3e50" font-family="Arial, sans-serif" font-size="10" font-weight="bold">
      Frequency Domain View
    </text>

    <!-- Signal spectrum -->
    <g transform="translate(20,25)">
      <line x1="0" y1="40" x2="160" y2="40" stroke="#7f8c8d" stroke-width="1"/>
      <line x1="0" y1="40" x2="0" y2="10" stroke="#7f8c8d" stroke-width="1"/>
      <text x="165" y="45" fill="#7f8c8d" font-family="Arial, sans-serif" font-size="8">f</text>
      <text x="-5" y="8" fill="#7f8c8d" font-family="Arial, sans-serif" font-size="8">|X(f)|</text>

      <!-- Original signal spectrum -->
      <path d="M 20,35 Q 40,15 80,15 Q 120,35 140,40" stroke="#3498db" stroke-width="2" fill="none"/>
      <line x1="80" y1="40" x2="80" y2="45" stroke="#e74c3c" stroke-width="2"/>
      <text x="80" y="55" text-anchor="middle" fill="#e74c3c" font-family="Arial, sans-serif" font-size="8">fm</text>

      <!-- Sampling frequency markers -->
      <line x1="40" y1="40" x2="40" y2="45" stroke="#27ae60" stroke-width="1"/>
      <line x1="120" y1="40" x2="120" y2="45" stroke="#27ae60" stroke-width="1"/>
      <text x="80" y="70" text-anchor="middle" fill="#27ae60" font-family="Arial, sans-serif" font-size="8">fs ≥ 2fm</text>
    </g>
  </g>

  <!-- Signal sweep indicator -->
  <rect x="-10" y="140" width="8" height="380" fill="#f39c12" opacity="0.7" rx="4">
    <animateTransform attributeName="transform" type="translate" values="0 0; 750 0; 0 0" dur="6s" repeatCount="indefinite"/>
  </rect>
</svg>