<?xml version="1.0" encoding="UTF-8"?>
<svg width="800" height="600" xmlns="http://www.w3.org/2000/svg">
  <title>cryptography challenges</title>
  <!-- Background -->
  <rect width="800" height="600" fill="#f5f5f5"/>
  
  <!-- Title -->
  <text x="400" y="40" font-family="Arial" font-size="24" font-weight="bold" text-anchor="middle" fill="#333">Challenges in Cryptography</text>
  <text x="400" y="70" font-family="Arial" font-size="16" font-style="italic" text-anchor="middle" fill="#666">Current and emerging threats to cryptographic security</text>
  
  <!-- Quantum Computing Challenge -->
  <rect x="50" y="100" width="340" height="220" rx="10" fill="#e6f7ff" stroke="#0099cc" stroke-width="2"/>
  <text x="220" y="130" font-family="Arial" font-size="20" font-weight="bold" text-anchor="middle" fill="#0066cc">Quantum Computing</text>
  
  <!-- Quantum Computer Icon -->
  <rect x="80" y="150" width="80" height="80" fill="#ffffff" stroke="#0099cc" stroke-width="1"/>
  <circle cx="120" cy="170" r="10" fill="#0099cc"/>
  <circle cx="120" cy="190" r="10" fill="#0099cc"/>
  <circle cx="120" cy="210" r="10" fill="#0099cc"/>
  <line x1="120" y1="170" x2="150" y2="170" stroke="#0099cc" stroke-width="2"/>
  <line x1="120" y1="190" x2="150" y2="190" stroke="#0099cc" stroke-width="2"/>
  <line x1="120" y1="210" x2="150" y2="210" stroke="#0099cc" stroke-width="2"/>
  
  <!-- Quantum Threat Description -->
  <text x="180" y="160" font-family="Arial" font-size="16" fill="#333">Threat to RSA, ECC and</text>
  <text x="180" y="180" font-family="Arial" font-size="16" fill="#333">other public key systems</text>
  
  <!-- Shor's Algorithm -->
  <rect x="80" y="240" width="280" height="60" rx="5" fill="#ccebff" stroke="#0099cc" stroke-width="1"/>
  <text x="220" y="260" font-family="Arial" font-size="16" font-weight="bold" text-anchor="middle" fill="#0066cc">Shor's Algorithm</text>
  <text x="220" y="280" font-family="Arial" font-size="14" text-anchor="middle" fill="#333">Can factor large numbers efficiently</text>
  
  <!-- Key Management Challenge -->
  <rect x="410" y="100" width="340" height="220" rx="10" fill="#fff2e6" stroke="#ff9933" stroke-width="2"/>
  <text x="580" y="130" font-family="Arial" font-size="20" font-weight="bold" text-anchor="middle" fill="#cc6600">Key Management</text>
  
  <!-- Key Icon -->
  <path d="M 460 190 C 460 180, 470 170, 480 170 L 500 170 L 500 190 L 490 190 L 490 200 L 480 200 L 480 190 L 460 190" fill="#ff9933" stroke="#cc6600" stroke-width="1"/>
  
  <!-- Key Management Issues -->
  <text x="520" y="160" font-family="Arial" font-size="16" fill="#333">• Secure key distribution</text>
  <text x="520" y="185" font-family="Arial" font-size="16" fill="#333">• Key storage protection</text>
  <text x="520" y="210" font-family="Arial" font-size="16" fill="#333">• Key revocation handling</text>
  <text x="520" y="235" font-family="Arial" font-size="16" fill="#333">• Key rotation policies</text>
  
  <!-- Implementation Flaws -->
  <rect x="50" y="340" width="340" height="220" rx="10" fill="#e6ffe6" stroke="#00cc66" stroke-width="2"/>
  <text x="220" y="370" font-family="Arial" font-size="20" font-weight="bold" text-anchor="middle" fill="#009933">Implementation Flaws</text>
  
  <!-- Bug Icon -->
  <circle cx="100" cy="410" r="20" fill="#ffffff" stroke="#00cc66" stroke-width="1"/>
  <path d="M 90 405 Q 100 395, 110 405" stroke="#00cc66" stroke-width="1" fill="none"/>
  <path d="M 95 412 L 105 412" stroke="#00cc66" stroke-width="1"/>
  <circle cx="95" cy="405" r="3" fill="#00cc66"/>
  <circle cx="105" cy="405" r="3" fill="#00cc66"/>
  
  <!-- Implementation Issues -->
  <text x="130" y="400" font-family="Arial" font-size="16" fill="#333">• Side-channel attacks</text>
  <text x="130" y="425" font-family="Arial" font-size="16" fill="#333">• Weak random number</text>
  <text x="140" y="445" font-family="Arial" font-size="16" fill="#333">  generators</text>
  <text x="130" y="470" font-family="Arial" font-size="16" fill="#333">• Software bugs in crypto</text>
  <text x="140" y="490" font-family="Arial" font-size="16" fill="#333">  libraries</text>
  <text x="130" y="515" font-family="Arial" font-size="16" fill="#333">• Protocol vulnerabilities</text>
  
  <!-- Regulatory &amp; Compliance -->
  <rect x="410" y="340" width="340" height="220" rx="10" fill="#f9e6ff" stroke="#cc66ff" stroke-width="2"/>
  <text x="580" y="370" font-family="Arial" font-size="20" font-weight="bold" text-anchor="middle" fill="#9933cc">Regulatory &amp; Compliance</text>
  
  <!-- Document Icon -->
  <rect x="440" y="400" width="30" height="40" fill="#ffffff" stroke="#cc66ff" stroke-width="1"/>
  <line x1="445" y1="410" x2="465" y2="410" stroke="#cc66ff" stroke-width="1"/>
  <line x1="445" y1="420" x2="465" y2="420" stroke="#cc66ff" stroke-width="1"/>
  <line x1="445" y1="430" x2="465" y2="430" stroke="#cc66ff" stroke-width="1"/>
  
  <!-- Regulatory Issues -->
  <text x="480" y="400" font-family="Arial" font-size="16" fill="#333">• Export restrictions</text>
  <text x="480" y="425" font-family="Arial" font-size="16" fill="#333">• Backdoor requirements</text>
  <text x="480" y="450" font-family="Arial" font-size="16" fill="#333">• GDPR compliance</text>
  <text x="480" y="475" font-family="Arial" font-size="16" fill="#333">• Industry standards</text>
  <text x="480" y="500" font-family="Arial" font-size="16" fill="#333">• Balancing security</text>
  <text x="490" y="520" font-family="Arial" font-size="16" fill="#333">  and privacy laws</text>
  
  <!-- Solutions Section -->
  <rect x="100" y="570" width="600" height="70" rx="10" fill="#ffe6e6" stroke="#ff6666" stroke-width="2"/>
  <text x="400" y="595" font-family="Arial" font-size="18" font-weight="bold" text-anchor="middle" fill="#cc0000">Emerging Solutions</text>
  
  <!-- Solutions -->
  <text x="150" y="625" font-family="Arial" font-size="16" fill="#333">• Post-Quantum Cryptography</text>
  <text x="350" y="625" font-family="Arial" font-size="16" fill="#333">• Quantum Key Distribution</text>
  <text x="550" y="625" font-family="Arial" font-size="16" fill="#333">• Homomorphic Encryption</text>
</svg>
