<?xml version="1.0" encoding="UTF-8"?>
<svg width="800" height="700" viewBox="0 0 800 700" xmlns="http://www.w3.org/2000/svg">
  <title>cryptanalysis techniques</title>
  <defs>
    <linearGradient id="gradient" x1="0%" y1="0%" x2="100%" y2="100%">
      <stop offset="0%" style="stop-color:#ef4444;stop-opacity:1" />
      <stop offset="100%" style="stop-color:#dc2626;stop-opacity:1" />
    </linearGradient>
    <filter id="shadow" x="-50%" y="-50%" width="200%" height="200%">
      <feDropShadow dx="2" dy="2" stdDeviation="3" flood-color="#00000040"/>
    </filter>
  </defs>
  
  <!-- Background -->
  <rect width="800" height="700" fill="#f8fafc"/>
  
  <!-- Header -->
  <rect x="50" y="20" width="700" height="60" fill="url(#gradient)" rx="10" filter="url(#shadow)"/>
  <text x="400" y="55" text-anchor="middle" fill="white" font-size="24" font-weight="bold">Cryptanalysis Techniques</text>
  
  <!-- Frequency Analysis Section -->
  <rect x="50" y="100" width="350" height="280" fill="white" stroke="#e2e8f0" stroke-width="2" rx="8" filter="url(#shadow)"/>
  <text x="60" y="125" fill="#374151" font-size="18" font-weight="bold">Frequency Analysis</text>
  
  <!-- English Letter Frequency Chart -->
  <text x="60" y="150" fill="#374151" font-size="14">English Letter Frequencies:</text>
  
  <!-- Frequency bars -->
  <g transform="translate(70, 160)">
    <!-- High frequency letters -->
    <rect x="0" y="0" width="12" height="80" fill="#dc2626"/>
    <text x="6" y="95" text-anchor="middle" fill="#374151" font-size="12">E</text>
    <text x="6" y="105" text-anchor="middle" fill="#374151" font-size="12">12.7%</text>
    
    <rect x="15" y="10" width="12" height="70" fill="#ef4444"/>
    <text x="21" y="95" text-anchor="middle" fill="#374151" font-size="12">T</text>
    <text x="21" y="105" text-anchor="middle" fill="#374151" font-size="12">9.1%</text>
    
    <rect x="30" y="15" width="12" height="65" fill="#f87171"/>
    <text x="36" y="95" text-anchor="middle" fill="#374151" font-size="12">A</text>
    <text x="36" y="105" text-anchor="middle" fill="#374151" font-size="12">8.2%</text>
    
    <rect x="45" y="20" width="12" height="60" fill="#fca5a5"/>
    <text x="51" y="95" text-anchor="middle" fill="#374151" font-size="12">O</text>
    <text x="51" y="105" text-anchor="middle" fill="#374151" font-size="12">7.5%</text>
    
    <rect x="60" y="25" width="12" height="55" fill="#fecaca"/>
    <text x="66" y="95" text-anchor="middle" fill="#374151" font-size="12">I</text>
    <text x="66" y="105" text-anchor="middle" fill="#374151" font-size="12">7.0%</text>
    
    <!-- Medium frequency letters -->
    <rect x="80" y="35" width="12" height="45" fill="#93c5fd"/>
    <text x="86" y="95" text-anchor="middle" fill="#374151" font-size="12">N</text>
    <text x="86" y="105" text-anchor="middle" fill="#374151" font-size="12">6.7%</text>
    
    <rect x="95" y="40" width="12" height="40" fill="#bfdbfe"/>
    <text x="101" y="95" text-anchor="middle" fill="#374151" font-size="12">S</text>
    <text x="101" y="105" text-anchor="middle" fill="#374151" font-size="12">6.3%</text>
    
    <!-- Low frequency letters -->
    <rect x="115" y="60" width="12" height="20" fill="#d1d5db"/>
    <text x="121" y="95" text-anchor="middle" fill="#374151" font-size="12">H</text>
    <text x="121" y="105" text-anchor="middle" fill="#374151" font-size="12">6.1%</text>
    
    <rect x="130" y="65" width="12" height="15" fill="#e5e7eb"/>
    <text x="136" y="95" text-anchor="middle" fill="#374151" font-size="12">R</text>
    <text x="136" y="105" text-anchor="middle" fill="#374151" font-size="12">6.0%</text>
    
    <rect x="150" y="70" width="12" height="10" fill="#f3f4f6"/>
    <text x="156" y="95" text-anchor="middle" fill="#374151" font-size="12">...</text>
  </g>
  
  <!-- Analysis Steps -->
  <text x="60" y="290" fill="#374151" font-size="14" font-weight="bold">Analysis Steps:</text>
  <text x="60" y="310" fill="#374151" font-size="12">1. Count letter frequencies in ciphertext</text>
  <text x="60" y="325" fill="#374151" font-size="12">2. Match with English frequency patterns</text>
  <text x="60" y="340" fill="#374151" font-size="12">3. Identify most likely substitutions</text>
  <text x="60" y="355" fill="#374151" font-size="12">4. Test hypotheses and refine</text>
  
  <!-- Pattern Analysis Section -->
  <rect x="420" y="100" width="330" height="280" fill="white" stroke="#e2e8f0" stroke-width="2" rx="8" filter="url(#shadow)"/>
  <text x="430" y="125" fill="#374151" font-size="18" font-weight="bold">Pattern Analysis</text>
  
  <!-- Common Patterns -->
  <text x="430" y="150" fill="#374151" font-size="14" font-weight="bold">Common English Patterns:</text>
  
  <rect x="440" y="160" width="300" height="180" fill="#f8fafc" stroke="#cbd5e1" stroke-width="1" rx="4"/>
  
  <text x="450" y="180" fill="#374151" font-size="12" font-weight="bold">Digrams (2-letter):</text>
  <text x="450" y="195" fill="#374151" font-size="12">TH, HE, IN, ER, AN, RE, ED, ND, ON, EN</text>
  
  <text x="450" y="220" fill="#374151" font-size="12" font-weight="bold">Trigrams (3-letter):</text>
  <text x="450" y="235" fill="#374151" font-size="12">THE, AND, ING, HER, HAT, HIS, THA, ERE</text>
  
  <text x="450" y="260" fill="#374151" font-size="12" font-weight="bold">Common Words:</text>
  <text x="450" y="275" fill="#374151" font-size="12">THE, OF, AND, TO, A, IN, THAT, HAVE</text>
  
  <text x="450" y="300" fill="#374151" font-size="12" font-weight="bold">Word Patterns:</text>
  <text x="450" y="315" fill="#374151" font-size="12">I (single letter), A (single letter)</text>
  <text x="450" y="330" fill="#374151" font-size="12">Apostrophe patterns: DON'T, CAN'T, IT'S</text>
  
  <!-- Cryptanalysis Types Section -->
  <rect x="50" y="400" width="700" height="280" fill="white" stroke="#e2e8f0" stroke-width="2" rx="8" filter="url(#shadow)"/>
  <text x="60" y="425" fill="#374151" font-size="18" font-weight="bold">Types of Cryptanalysis Attacks</text>
  
  <!-- Attack Types Grid -->
  <g transform="translate(70, 450)">
    <!-- Ciphertext-Only Attack -->
    <rect x="0" y="0" width="150" height="100" fill="#fef3c7" stroke="#f59e0b" stroke-width="2" rx="6"/>
    <text x="75" y="20" text-anchor="middle" fill="#92400e" font-size="14" font-weight="bold">Ciphertext-Only</text>
    <text x="10" y="40" fill="#92400e" font-size="12">• Only ciphertext available</text>
    <text x="10" y="55" fill="#92400e" font-size="12">• Hardest attack</text>
    <text x="10" y="70" fill="#92400e" font-size="12">• Uses frequency analysis</text>
    <text x="10" y="85" fill="#92400e" font-size="12">• Pattern recognition</text>
    
    <!-- Known-Plaintext Attack -->
    <rect x="170" y="0" width="150" height="100" fill="#fed7d7" stroke="#f56565" stroke-width="2" rx="6"/>
    <text x="245" y="20" text-anchor="middle" fill="#c53030" font-size="14" font-weight="bold">Known-Plaintext</text>
    <text x="180" y="40" fill="#c53030" font-size="12">• Some plaintext-ciphertext</text>
    <text x="180" y="55" fill="#c53030" font-size="12">  pairs known</text>
    <text x="180" y="70" fill="#c53030" font-size="12">• Deduce encryption key</text>
    <text x="180" y="85" fill="#c53030" font-size="12">• More effective</text>
    
    <!-- Chosen-Plaintext Attack -->
    <rect x="340" y="0" width="150" height="100" fill="#e6fffa" stroke="#38b2ac" stroke-width="2" rx="6"/>
    <text x="415" y="20" text-anchor="middle" fill="#285e61" font-size="14" font-weight="bold">Chosen-Plaintext</text>
    <text x="350" y="40" fill="#285e61" font-size="12">• Can choose plaintext</text>
    <text x="350" y="55" fill="#285e61" font-size="12">• Observe ciphertext</text>
    <text x="350" y="70" fill="#285e61" font-size="12">• Very powerful</text>
    <text x="350" y="85" fill="#285e61" font-size="12">• Often theoretical</text>
    
    <!-- Chosen-Ciphertext Attack -->
    <rect x="510" y="0" width="150" height="100" fill="#f0e6ff" stroke="#9f7aea" stroke-width="2" rx="6"/>
    <text x="585" y="15" text-anchor="middle" fill="#553c9a" font-size="14" font-weight="bold">Chosen-Ciphertext</text>
    <text x="520" y="35" fill="#553c9a" font-size="12">• Can choose ciphertext</text>
    <text x="520" y="50" fill="#553c9a" font-size="12">• Observe decryption</text>
    <text x="520" y="65" fill="#553c9a" font-size="12">• Against public key</text>
    <text x="520" y="80" fill="#553c9a" font-size="12">• RSA vulnerable</text>
  </g>
  
  <!-- Analysis Tools -->
  <text x="60" y="580" fill="#374151" font-size="16" font-weight="bold">Cryptanalysis Tools &amp; Techniques:</text>
  
  <g transform="translate(80, 590)">
    <text x="0" y="20" fill="#374151" font-size="13">• Index of Coincidence (IC) - measures randomness</text>
    <text x="0" y="40" fill="#374151" font-size="13">• Kasiski Examination - finds repeating patterns</text>
    <text x="0" y="60" fill="#374151" font-size="13">• Chi-squared test - statistical analysis</text>
    <text x="350" y="20" fill="#374151" font-size="13">• Dictionary attacks - common words</text>
    <text x="350" y="40" fill="#374151" font-size="13">• Brute force - try all possible keys</text>
    <text x="350" y="60" fill="#374151" font-size="13">• Side-channel analysis - timing, power</text>
  </g>
</svg>
