<svg viewBox="0 0 1000 700" xmlns="http://www.w3.org/2000/svg">
  <defs>
    <linearGradient id="secureGradient" x1="0%" y1="0%" x2="100%" y2="100%">
      <stop offset="0%" style="stop-color:#4CAF50;stop-opacity:1" />
      <stop offset="100%" style="stop-color:#2E7D32;stop-opacity:1" />
    </linearGradient>
    <linearGradient id="clientGradient" x1="0%" y1="0%" x2="100%" y2="100%">
      <stop offset="0%" style="stop-color:#2196F3;stop-opacity:1" />
      <stop offset="100%" style="stop-color:#1565C0;stop-opacity:1" />
    </linearGradient>
    <linearGradient id="serverGradient" x1="0%" y1="0%" x2="100%" y2="100%">
      <stop offset="0%" style="stop-color:#FF9800;stop-opacity:1" />
      <stop offset="100%" style="stop-color:#F57C00;stop-opacity:1" />
    </linearGradient>
    <pattern id="encryptedPattern" patternUnits="userSpaceOnUse" width="4" height="4">
      <rect width="4" height="4" fill="#E8F5E8"/>
      <path d="M0,0 L4,4 M0,4 L4,0" stroke="#4CAF50" stroke-width="0.5"/>
    </pattern>
  </defs>
  
  <!-- Title -->
  <text x="500" y="30" text-anchor="middle" font-size="24" font-weight="bold" fill="#333">HTTPS/SSL/TLS Architecture</text>
  
  <!-- Client Side -->
  <rect x="50" y="80" width="200" height="500" fill="url(#clientGradient)" stroke="#1565C0" stroke-width="2" rx="10"/>
  <text x="150" y="110" text-anchor="middle" font-size="16" font-weight="bold" fill="white">Client (Browser)</text>
  
  <!-- Client Components -->
  <rect x="70" y="130" width="160" height="40" fill="rgba(255,255,255,0.2)" stroke="white" rx="5"/>
  <text x="150" y="155" text-anchor="middle" font-size="12" fill="white">User Agent</text>
  
  <rect x="70" y="180" width="160" height="40" fill="rgba(255,255,255,0.2)" stroke="white" rx="5"/>
  <text x="150" y="205" text-anchor="middle" font-size="12" fill="white">SSL/TLS Client</text>
  
  <rect x="70" y="230" width="160" height="60" fill="rgba(255,255,255,0.2)" stroke="white" rx="5"/>
  <text x="150" y="250" text-anchor="middle" font-size="11" fill="white">Certificate Store</text>
  <text x="150" y="265" text-anchor="middle" font-size="10" fill="white">Trusted CAs</text>
  <text x="150" y="280" text-anchor="middle" font-size="10" fill="white">Root Certificates</text>
  
  <rect x="70" y="300" width="160" height="60" fill="rgba(255,255,255,0.2)" stroke="white" rx="5"/>
  <text x="150" y="320" text-anchor="middle" font-size="11" fill="white">Cryptographic</text>
  <text x="150" y="335" text-anchor="middle" font-size="11" fill="white">Engine</text>
  <text x="150" y="350" text-anchor="middle" font-size="10" fill="white">RSA, AES, SHA</text>
  
  <!-- Server Side -->
  <rect x="750" y="80" width="200" height="500" fill="url(#serverGradient)" stroke="#F57C00" stroke-width="2" rx="10"/>
  <text x="850" y="110" text-anchor="middle" font-size="16" font-weight="bold" fill="white">Web Server</text>
  
  <!-- Server Components -->
  <rect x="770" y="130" width="160" height="40" fill="rgba(255,255,255,0.2)" stroke="white" rx="5"/>
  <text x="850" y="155" text-anchor="middle" font-size="12" fill="white">Web Application</text>
  
  <rect x="770" y="180" width="160" height="40" fill="rgba(255,255,255,0.2)" stroke="white" rx="5"/>
  <text x="850" y="205" text-anchor="middle" font-size="12" fill="white">SSL/TLS Server</text>
  
  <rect x="770" y="230" width="160" height="60" fill="rgba(255,255,255,0.2)" stroke="white" rx="5"/>
  <text x="850" y="250" text-anchor="middle" font-size="11" fill="white">Server Certificate</text>
  <text x="850" y="265" text-anchor="middle" font-size="10" fill="white">Public Key</text>
  <text x="850" y="280" text-anchor="middle" font-size="10" fill="white">Private Key</text>
  
  <rect x="770" y="300" width="160" height="60" fill="rgba(255,255,255,0.2)" stroke="white" rx="5"/>
  <text x="850" y="320" text-anchor="middle" font-size="11" fill="white">Cryptographic</text>
  <text x="850" y="335" text-anchor="middle" font-size="11" fill="white">Engine</text>
  <text x="850" y="350" text-anchor="middle" font-size="10" fill="white">RSA, AES, SHA</text>
  
  <!-- SSL/TLS Handshake Process -->
  <rect x="300" y="80" width="400" height="500" fill="url(#secureGradient)" stroke="#2E7D32" stroke-width="2" rx="10"/>
  <text x="500" y="110" text-anchor="middle" font-size="16" font-weight="bold" fill="white">SSL/TLS Handshake Process</text>
  
  <!-- Handshake Steps -->
  <g transform="translate(320, 140)">
    <!-- Step 1 -->
    <rect x="0" y="0" width="360" height="45" fill="rgba(255,255,255,0.15)" stroke="white" rx="5"/>
    <text x="10" y="20" font-size="11" font-weight="bold" fill="white">1. Client Hello</text>
    <text x="10" y="35" font-size="9" fill="white">• TLS version, cipher suites, random number</text>
    
    <!-- Step 2 -->
    <rect x="0" y="50" width="360" height="45" fill="rgba(255,255,255,0.15)" stroke="white" rx="5"/>
    <text x="10" y="70" font-size="11" font-weight="bold" fill="white">2. Server Hello</text>
    <text x="10" y="85" font-size="9" fill="white">• TLS version, chosen cipher suite, random number</text>
    
    <!-- Step 3 -->
    <rect x="0" y="100" width="360" height="45" fill="rgba(255,255,255,0.15)" stroke="white" rx="5"/>
    <text x="10" y="120" font-size="11" font-weight="bold" fill="white">3. Certificate</text>
    <text x="10" y="135" font-size="9" fill="white">• Server sends digital certificate with public key</text>
    
    <!-- Step 4 -->
    <rect x="0" y="150" width="360" height="45" fill="rgba(255,255,255,0.15)" stroke="white" rx="5"/>
    <text x="10" y="170" font-size="11" font-weight="bold" fill="white">4. Server Hello Done</text>
    <text x="10" y="185" font-size="9" fill="white">• Server indicates handshake completion</text>
    
    <!-- Step 5 -->
    <rect x="0" y="200" width="360" height="45" fill="rgba(255,255,255,0.15)" stroke="white" rx="5"/>
    <text x="10" y="220" font-size="11" font-weight="bold" fill="white">5. Client Key Exchange</text>
    <text x="10" y="235" font-size="9" fill="white">• Pre-master secret encrypted with server's public key</text>
    
    <!-- Step 6 -->
    <rect x="0" y="250" width="360" height="45" fill="rgba(255,255,255,0.15)" stroke="white" rx="5"/>
    <text x="10" y="270" font-size="11" font-weight="bold" fill="white">6. Change Cipher Spec</text>
    <text x="10" y="285" font-size="9" fill="white">• Client signals to start using negotiated cipher</text>
    
    <!-- Step 7 -->
    <rect x="0" y="300" width="360" height="45" fill="rgba(255,255,255,0.15)" stroke="white" rx="5"/>
    <text x="10" y="320" font-size="11" font-weight="bold" fill="white">7. Finished</text>
    <text x="10" y="335" font-size="9" fill="white">• Both sides send encrypted handshake summary</text>
    
    <!-- Step 8 -->
    <rect x="0" y="350" width="360" height="45" fill="rgba(255,255,255,0.15)" stroke="white" rx="5"/>
    <text x="10" y="370" font-size="11" font-weight="bold" fill="white">8. Secure Communication</text>
    <text x="10" y="385" font-size="9" fill="white">• Encrypted data exchange using session keys</text>
  </g>
  
  <!-- Connection Arrows -->
  <path d="M250 200 L300 200" stroke="white" stroke-width="2" fill="none" marker-end="url(#arrowhead)"/>
  <path d="M700 200 L750 200" stroke="white" stroke-width="2" fill="none" marker-end="url(#arrowhead)"/>
  
  <!-- Encryption Indicators -->
  <rect x="320" y="600" width="360" height="60" fill="url(#encryptedPattern)" stroke="#4CAF50" stroke-width="2" rx="10"/>
  <text x="500" y="625" text-anchor="middle" font-size="14" font-weight="bold" fill="#2E7D32">Encrypted Data Transfer</text>
  <text x="500" y="645" text-anchor="middle" font-size="12" fill="#2E7D32">AES-256, ChaCha20-Poly1305</text>
  
  <!-- Arrow marker definition -->
  <defs>
    <marker id="arrowhead" markerWidth="10" markerHeight="7" refX="9" refY="3.5" orient="auto">
      <polygon points="0 0, 10 3.5, 0 7" fill="white"/>
    </marker>
  </defs>
  
  <!-- Security Features -->
  <text x="50" y="630" font-size="12" font-weight="bold" fill="#333">Security Features:</text>
  <text x="50" y="650" font-size="11" fill="#333">• Authentication</text>
  <text x="50" y="665" font-size="11" fill="#333">• Encryption</text>
  <text x="50" y="680" font-size="11" fill="#333">• Integrity</text>
  
  <text x="750" y="630" font-size="12" font-weight="bold" fill="#333">Key Features:</text>
  <text x="750" y="650" font-size="11" fill="#333">• Perfect Forward Secrecy</text>
  <text x="750" y="665" font-size="11" fill="#333">• Certificate Validation</text>
  <text x="750" y="680" font-size="11" fill="#333">• Session Management</text>
</svg>
