<?xml version="1.0" encoding="UTF-8" standalone="no"?>
<svg xmlns="http://www.w3.org/2000/svg" width="800" height="600" viewBox="0 0 800 600">
  <style>
    .title {
      font-family: Arial, sans-serif;
      font-size: 24px;
      font-weight: bold;
      fill: #333;
    }
    .subtitle {
      font-family: Arial, sans-serif;
      font-size: 16px;
      fill: #666;
    }
    .component {
      font-family: Arial, sans-serif;
      font-size: 16px;
      font-weight: bold;
      fill: white;
    }
    .description {
      font-family: Arial, sans-serif;
      font-size: 12px;
      fill: #333;
    }
    .zone-label {
      font-family: Arial, sans-serif;
      font-size: 14px;
      font-weight: bold;
      fill: #555;
    }
    .note {
      font-family: Arial, sans-serif;
      font-size: 12px;
      font-style: italic;
      fill: #777;
    }
    .arrow {
      stroke: #555;
      stroke-width: 1.5;
      fill: none;
      marker-end: url(#arrowhead);
    }
    .data-flow {
      stroke: #2980B9;
      stroke-width: 2;
      fill: none;
      marker-end: url(#data-arrowhead);
    }
    .attack-arrow {
      stroke: #E74C3C;
      stroke-width: 2;
      stroke-dasharray: 5, 3;
      fill: none;
      marker-end: url(#attack-arrowhead);
    }
  </style>

  <defs>
    <marker id="arrowhead" markerWidth="10" markerHeight="7" refX="9" refY="3.5" orient="auto">
      <polygon points="0 0, 10 3.5, 0 7" fill="#555" />
    </marker>
    <marker id="data-arrowhead" markerWidth="10" markerHeight="7" refX="9" refY="3.5" orient="auto">
      <polygon points="0 0, 10 3.5, 0 7" fill="#2980B9" />
    </marker>
    <marker id="attack-arrowhead" markerWidth="10" markerHeight="7" refX="9" refY="3.5" orient="auto">
      <polygon points="0 0, 10 3.5, 0 7" fill="#E74C3C" />
    </marker>
    <filter id="shadow" x="-10%" y="-10%" width="120%" height="120%">
      <feDropShadow dx="3" dy="3" stdDeviation="3" flood-opacity="0.3" />
    </filter>
  </defs>

  <!-- Title -->
  <text x="400" y="40" class="title" text-anchor="middle">Network Security Components</text>
  <text x="400" y="65" class="subtitle" text-anchor="middle">A layered defense approach to protect organizational networks</text>

  <!-- External Zone (Internet) -->
  <rect x="50" y="100" width="700" height="470" rx="10" ry="10" fill="#F8F9F9" stroke="#DDD" stroke-width="1" />
  <text x="110" y="125" class="zone-label" text-anchor="middle">INTERNET (External Zone)</text>

  <!-- Perimeter Network (DMZ) -->
  <rect x="120" y="140" width="560" height="400" rx="10" ry="10" fill="#EBF5FB" stroke="#AED6F1" stroke-width="1" />
  <text x="220" y="165" class="zone-label" text-anchor="middle">DMZ (Demilitarized Zone)</text>

  <!-- Internal Network -->
  <rect x="220" y="190" width="360" height="320" rx="10" ry="10" fill="#D6EAF8" stroke="#85C1E9" stroke-width="1" />
  <text x="320" y="215" class="zone-label" text-anchor="middle">INTERNAL NETWORK</text>

  <!-- Secure Zones -->
  <rect x="280" y="240" width="240" height="240" rx="10" ry="10" fill="#D4E6F1" stroke="#5DADE2" stroke-width="1" />
  <text x="400" y="265" class="zone-label" text-anchor="middle">SECURE ZONES</text>

  <!-- Components -->
  <!-- Internet -->
  <circle cx="80" cy="180" r="20" fill="#95A5A6" filter="url(#shadow)" />
  <text x="80" y="185" class="component" text-anchor="middle" font-size="10">WWW</text>
  
  <!-- Router -->
  <rect x="140" y="200" width="60" height="40" rx="5" ry="5" fill="#3498DB" filter="url(#shadow)" />
  <text x="170" y="225" class="component" text-anchor="middle" font-size="12">Router</text>
  
  <!-- Firewall -->
  <polygon points="220,180 220,240 250,260 280,240 280,180 250,160" fill="#E74C3C" filter="url(#shadow)" />
  <text x="250" y="220" class="component" text-anchor="middle" font-size="14">Firewall</text>
  
  <!-- IDS/IPS -->
  <rect x="320" y="170" width="80" height="40" rx="5" ry="5" fill="#9B59B6" filter="url(#shadow)" />
  <text x="360" y="195" class="component" text-anchor="middle" font-size="12">IDS/IPS</text>
  
  <!-- Web Server in DMZ -->
  <rect x="140" y="280" width="60" height="60" rx="5" ry="5" fill="#16A085" filter="url(#shadow)" />
  <text x="170" y="315" class="component" text-anchor="middle" font-size="10">Web</text>
  <text x="170" y="330" class="component" text-anchor="middle" font-size="10">Server</text>
  
  <!-- Email Server in DMZ -->
  <rect x="140" y="360" width="60" height="60" rx="5" ry="5" fill="#16A085" filter="url(#shadow)" />
  <text x="170" y="395" class="component" text-anchor="middle" font-size="10">Email</text>
  <text x="170" y="410" class="component" text-anchor="middle" font-size="10">Server</text>

  <!-- Internal Firewall -->
  <polygon points="310,300 310,340 330,350 350,340 350,300 330,290" fill="#E74C3C" filter="url(#shadow)" />
  <text x="330" y="325" class="component" text-anchor="middle" font-size="12">FW</text>
  
  <!-- VPN Concentrator -->
  <rect x="390" y="290" width="60" height="40" rx="5" ry="5" fill="#27AE60" filter="url(#shadow)" />
  <text x="420" y="310" class="component" text-anchor="middle" font-size="10">VPN</text>
  <text x="420" y="322" class="component" text-anchor="middle" font-size="8">Gateway</text>
  
  <!-- WAF -->
  <rect x="320" y="370" width="60" height="40" rx="5" ry="5" fill="#F39C12" filter="url(#shadow)" />
  <text x="350" y="395" class="component" text-anchor="middle" font-size="12">WAF</text>
  
  <!-- Database Server -->
  <rect x="390" y="360" width="60" height="60" rx="5" ry="5" fill="#2C3E50" filter="url(#shadow)" />
  <text x="420" y="395" class="component" text-anchor="middle" font-size="10">Database</text>
  <text x="420" y="410" class="component" text-anchor="middle" font-size="10">Server</text>
  
  <!-- SIEM -->
  <rect x="480" y="300" width="60" height="40" rx="5" ry="5" fill="#8E44AD" filter="url(#shadow)" />
  <text x="510" y="325" class="component" text-anchor="middle" font-size="12">SIEM</text>
  
  <!-- DLP -->
  <rect x="480" y="370" width="60" height="40" rx="5" ry="5" fill="#D35400" filter="url(#shadow)" />
  <text x="510" y="395" class="component" text-anchor="middle" font-size="12">DLP</text>

  <!-- Users -->
  <circle cx="600" cy="320" r="20" fill="#3498DB" filter="url(#shadow)" />
  <text x="600" y="325" class="component" text-anchor="middle" font-size="10">Users</text>

  <!-- Connections - Data Flow -->
  <path d="M 100 180 L 140 200" class="data-flow" />
  <path d="M 200 220 L 220 220" class="data-flow" />
  <path d="M 280 220 L 320 190" class="data-flow" />
  <path d="M 170 280 L 170 220" class="data-flow" />
  <path d="M 170 360 L 170 340" class="data-flow" />
  <path d="M 400 210 L 400 290" class="data-flow" />
  <path d="M 350 320 L 390 310" class="data-flow" />
  <path d="M 450 310 L 480 320" class="data-flow" />
  <path d="M 350 320 L 350 370" class="data-flow" />
  <path d="M 380 390 L 390 390" class="data-flow" />
  <path d="M 450 390 L 480 390" class="data-flow" />
  <path d="M 540 320 L 580 320" class="data-flow" />

  <!-- Attack Vectors -->
  <path d="M 60 150 L 140 180" class="attack-arrow" />
  <path d="M 60 200 L 120 280" class="attack-arrow" />
  <path d="M 100 250 L 170 250" class="attack-arrow" />
  
  <!-- Legend -->
  <rect x="600" y="380" width="140" height="130" rx="5" ry="5" fill="#FFF" stroke="#DDD" stroke-width="1" />
  <text x="670" y="400" class="description" text-anchor="middle" font-weight="bold">Legend</text>
  
  <line x1="610" y1="415" x2="630" y2="415" class="data-flow" />
  <text x="670" y="420" class="description" text-anchor="start">Data Flow</text>
  
  <line x1="610" y1="440" x2="630" y2="440" class="attack-arrow" />
  <text x="670" y="445" class="description" text-anchor="start">Attack Vector</text>
  
  <rect x="610" y="455" width="15" height="15" rx="2" ry="2" fill="#E74C3C" />
  <text x="670" y="468" class="description" text-anchor="start">Security Control</text>
  
  <rect x="610" y="480" width="15" height="15" rx="2" ry="2" fill="#16A085" />
  <text x="670" y="493" class="description" text-anchor="start">Server/Service</text>

  <!-- Footer -->
  <text x="400" y="560" class="note" text-anchor="middle">
    Effective network security requires multiple layers of defense (defense-in-depth)
  </text>
  <text x="400" y="580" class="note" text-anchor="middle">
    with complementary controls across perimeter, network, and endpoint security.
  </text>
</svg>
