<svg viewBox="0 0 800 400" xmlns="http://www.w3.org/2000/svg">
  <defs>
    <style>
      .box { fill: #e3f2fd; stroke: #1976d2; stroke-width: 2; }
      .text { font-family: Arial, sans-serif; font-size: 14px; fill: #333; }
      .arrow { stroke: #1976d2; stroke-width: 2; fill: none; marker-end: url(#arrowhead); }
      .decision { fill: #fff3e0; stroke: #f57c00; stroke-width: 2; }
      .success { fill: #e8f5e8; stroke: #4caf50; stroke-width: 2; }
      .failure { fill: #ffebee; stroke: #f44336; stroke-width: 2; }
    </style>
    <marker id="arrowhead" markerWidth="10" markerHeight="7" refX="9" refY="3.5" orient="auto">
      <polygon points="0 0, 10 3.5, 0 7" fill="#1976d2"/>
    </marker>
  </defs>
  
  <!-- Title -->
  <text x="400" y="30" text-anchor="middle" font-size="18" font-weight="bold" fill="#1976d2">Password Verification Process</text>
  
  <!-- User Input -->
  <rect x="50" y="60" width="120" height="50" class="box"/>
  <text x="110" y="80" text-anchor="middle" class="text">User Input</text>
  <text x="110" y="95" text-anchor="middle" class="text">Username &amp;</text>
  <text x="110" y="105" text-anchor="middle" class="text">Password</text>
  
  <!-- Hash Function -->
  <rect x="220" y="60" width="120" height="50" class="box"/>
  <text x="280" y="80" text-anchor="middle" class="text">Hash Function</text>
  <text x="280" y="95" text-anchor="middle" class="text">Generate Hash</text>
  
  <!-- Compare Hashes -->
  <polygon points="390,60 470,85 390,110 310,85" class="decision"/>
  <text x="390" y="80" text-anchor="middle" class="text">Compare</text>
  <text x="390" y="95" text-anchor="middle" class="text">Hashes</text>
  
  <!-- Stored Hash -->
  <rect x="330" y="140" width="120" height="50" class="box"/>
  <text x="390" y="160" text-anchor="middle" class="text">Stored Hash</text>
  <text x="390" y="175" text-anchor="middle" class="text">Database</text>
  
  <!-- Access Granted -->
  <rect x="550" y="40" width="120" height="50" class="success"/>
  <text x="610" y="60" text-anchor="middle" class="text">Access</text>
  <text x="610" y="75" text-anchor="middle" class="text">Granted</text>
  
  <!-- Access Denied -->
  <rect x="550" y="120" width="120" height="50" class="failure"/>
  <text x="610" y="140" text-anchor="middle" class="text">Access</text>
  <text x="610" y="155" text-anchor="middle" class="text">Denied</text>
  
  <!-- Arrows -->
  <line x1="170" y1="85" x2="220" y2="85" class="arrow"/>
  <line x1="340" y1="85" x2="310" y2="85" class="arrow"/>
  <line x1="390" y1="140" x2="390" y2="110" class="arrow"/>
  <line x1="470" y1="75" x2="550" y2="65" class="arrow"/>
  <line x1="470" y1="95" x2="550" y2="145" class="arrow"/>
  
  <!-- Labels -->
  <text x="490" y="60" text-anchor="middle" class="text" font-size="12">Match</text>
  <text x="490" y="155" text-anchor="middle" class="text" font-size="12">No Match</text>
  
  <!-- Process Steps -->
  <text x="50" y="250" class="text" font-weight="bold">Process Steps:</text>
  <text x="50" y="270" class="text">1. User enters username and password</text>
  <text x="50" y="290" class="text">2. System applies hash function to entered password</text>
  <text x="50" y="310" class="text">3. Generated hash is compared with stored hash in database</text>
  <text x="50" y="330" class="text">4. Access granted if hashes match, denied otherwise</text>
  
  <!-- Security Note -->
  <text x="50" y="365" class="text" font-weight="bold" fill="#f57c00">Security Note: Passwords are never stored in plain text</text>
</svg>
