<?xml version="1.0" encoding="UTF-8" standalone="no"?>
<svg xmlns="http://www.w3.org/2000/svg" width="800" height="600" viewBox="0 0 900 700">
  <title>playfair cipher</title>
  <style>
    .title {
      font-family: Arial, sans-serif;
      font-size: 24px;
      font-weight: bold;
      fill: #333;
    }
    .subtitle {
      font-family: Arial, sans-serif;
      font-size: 16px;
      fill: #666;
    }
    .step-title {
      font-family: Arial, sans-serif;
      font-size: 18px;
      font-weight: bold;
      fill: #333;
    }
    .matrix-cell {
      font-family: "Courier New", monospace;
      font-size: 16px;
      font-weight: bold;
      fill: #333;
    }
    .keyword-cell {
      font-family: "Courier New", monospace;
      font-size: 16px;
      font-weight: bold;
      fill: #fff;
    }
    .plaintext {
      font-family: "Courier New", monospace;
      font-size: 14px;
      fill: #2980B9;
    }
    .ciphertext {
      font-family: "Courier New", monospace;
      font-size: 14px;
      fill: #E74C3C;
    }
    .step-number {
      font-family: Arial, sans-serif;
      font-size: 14px;
      font-weight: bold;
      fill: white;
    }
    .description {
      font-family: Arial, sans-serif;
      font-size: 12px;
      fill: #555;
    }
    .arrow {
      stroke: #555;
      stroke-width: 2;
      fill: none;
      marker-end: url(#arrowhead);
    }
  </style>

  <defs>
    <marker id="arrowhead" markerWidth="10" markerHeight="7" refX="9" refY="3.5" orient="auto">
      <polygon points="0 0, 10 3.5, 0 7" fill="#555" />
    </marker>
    <filter id="shadow" x="-10%" y="-10%" width="120%" height="120%">
      <feDropShadow dx="3" dy="3" stdDeviation="3" flood-opacity="0.3" />
    </filter>
  </defs>

  <!-- Title -->
  <text x="400" y="40" class="title" text-anchor="middle">Playfair Cipher</text>
  <text x="400" y="65" class="subtitle" text-anchor="middle">5×5 Matrix Encryption with Keyword "MONARCHY"</text>

  <!-- Step 1: Create 5x5 Matrix -->
  <text x="150" y="110" class="step-title">Step 1: Create 5×5 Matrix</text>
  
  <!-- Matrix -->
  <g transform="translate(50, 130)">
    <!-- Grid lines -->
    <rect x="0" y="0" width="200" height="200" fill="none" stroke="#333" stroke-width="2" />
    <!-- Horizontal lines -->
    <line x1="0" y1="40" x2="200" y2="40" stroke="#333" stroke-width="1" />
    <line x1="0" y1="80" x2="200" y2="80" stroke="#333" stroke-width="1" />
    <line x1="0" y1="120" x2="200" y2="120" stroke="#333" stroke-width="1" />
    <line x1="0" y1="160" x2="200" y2="160" stroke="#333" stroke-width="1" />
    <!-- Vertical lines -->
    <line x1="40" y1="0" x2="40" y2="200" stroke="#333" stroke-width="1" />
    <line x1="80" y1="0" x2="80" y2="200" stroke="#333" stroke-width="1" />
    <line x1="120" y1="0" x2="120" y2="200" stroke="#333" stroke-width="1" />
    <line x1="160" y1="0" x2="160" y2="200" stroke="#333" stroke-width="1" />
    
    <!-- Keyword cells (highlighted) -->
    <rect x="1" y="1" width="38" height="38" fill="#3498DB" />
    <rect x="41" y="1" width="38" height="38" fill="#3498DB" />
    <rect x="81" y="1" width="38" height="38" fill="#3498DB" />
    <rect x="121" y="1" width="38" height="38" fill="#3498DB" />
    <rect x="161" y="1" width="38" height="38" fill="#3498DB" />
    <rect x="1" y="41" width="38" height="38" fill="#3498DB" />
    <rect x="41" y="41" width="38" height="38" fill="#3498DB" />
    
    <!-- Matrix content -->
    <!-- Row 1 -->
    <text x="20" y="25" class="keyword-cell" text-anchor="middle">M</text>
    <text x="60" y="25" class="keyword-cell" text-anchor="middle">O</text>
    <text x="100" y="25" class="keyword-cell" text-anchor="middle">N</text>
    <text x="140" y="25" class="keyword-cell" text-anchor="middle">A</text>
    <text x="180" y="25" class="keyword-cell" text-anchor="middle">R</text>
    
    <!-- Row 2 -->
    <text x="20" y="65" class="keyword-cell" text-anchor="middle">C</text>
    <text x="60" y="65" class="keyword-cell" text-anchor="middle">H</text>
    <text x="100" y="65" class="matrix-cell" text-anchor="middle">B</text>
    <text x="140" y="65" class="matrix-cell" text-anchor="middle">D</text>
    <text x="180" y="65" class="matrix-cell" text-anchor="middle">E</text>
    
    <!-- Row 3 -->
    <text x="20" y="105" class="matrix-cell" text-anchor="middle">F</text>
    <text x="60" y="105" class="matrix-cell" text-anchor="middle">G</text>
    <text x="100" y="105" class="matrix-cell" text-anchor="middle">I/J</text>
    <text x="140" y="105" class="matrix-cell" text-anchor="middle">K</text>
    <text x="180" y="105" class="matrix-cell" text-anchor="middle">L</text>
    
    <!-- Row 4 -->
    <text x="20" y="145" class="matrix-cell" text-anchor="middle">P</text>
    <text x="60" y="145" class="matrix-cell" text-anchor="middle">Q</text>
    <text x="100" y="145" class="matrix-cell" text-anchor="middle">S</text>
    <text x="140" y="145" class="matrix-cell" text-anchor="middle">T</text>
    <text x="180" y="145" class="matrix-cell" text-anchor="middle">U</text>
    
    <!-- Row 5 -->
    <text x="20" y="185" class="matrix-cell" text-anchor="middle">V</text>
    <text x="60" y="185" class="matrix-cell" text-anchor="middle">W</text>
    <text x="100" y="185" class="matrix-cell" text-anchor="middle">X</text>
    <text x="140" y="185" class="matrix-cell" text-anchor="middle">Y</text>
    <text x="180" y="185" class="matrix-cell" text-anchor="middle">Z</text>
  </g>

  <!-- Step 2: Prepare Message -->
  <text x="450" y="110" class="step-title">Step 2: Prepare Message</text>
  <text x="450" y="135" class="description">Original: HELLO</text>
  <text x="450" y="155" class="description">Split into pairs: HE | LL | O</text>
  <text x="450" y="175" class="description">Add filler 'X': HE | LX | LO</text>

  <!-- Step 3: Encryption Rules -->
  <text x="450" y="210" class="step-title">Step 3: Encryption Rules</text>
  
  <rect x="450" y="220" width="300" height="140" rx="5" ry="5" fill="#F8F9F9" stroke="#DDD" stroke-width="1" />
  <text x="470" y="245" class="description">1. Same row: Take letters to the right</text>
  <text x="470" y="265" class="description">2. Same column: Take letters below</text>
  <text x="470" y="285" class="description">3. Rectangle: Take corners horizontally</text>
  
  <!-- Example encryption -->
  <text x="470" y="320" class="description" font-weight="bold">Example: HE → DH</text>
  <text x="470" y="340" class="description">H and E form rectangle, take corners</text>

  <!-- Step 4: Complete Encryption -->
  <text x="150" y="380" class="step-title">Step 4: Encrypt Each Pair</text>

  <!-- Encryption examples -->
  <rect x="50" y="400" width="700" height="120" rx="5" ry="5" fill="#F0F8FF" stroke="#3498DB" stroke-width="1" />
  
  <text x="80" y="430" class="description" font-weight="bold">Pair 1: HE</text>
  <text x="80" y="450" class="plaintext">H (row 2, col 2) + E (row 2, col 5)</text>
  <text x="80" y="470" class="description">Same row → move right (wrap around)</text>
  <text x="80" y="490" class="ciphertext">Result: HD</text>
  
  <text x="300" y="430" class="description" font-weight="bold">Pair 2: LX</text>
  <text x="300" y="450" class="plaintext">L (row 3, col 5) + X (row 5, col 3)</text>
  <text x="300" y="470" class="description">Rectangle → take corners</text>
  <text x="300" y="490" class="ciphertext">Result: XL</text>
  
  <text x="520" y="430" class="description" font-weight="bold">Pair 3: LO</text>
  <text x="520" y="450" class="plaintext">L (row 3, col 5) + O (row 1, col 2)</text>
  <text x="520" y="470" class="description">Rectangle → take corners</text>
  <text x="520" y="490" class="ciphertext">Result: RG</text>

  <!-- Final Result -->
  <rect x="200" y="540" width="400" height="50" rx="5" ry="5" fill="#E8F5E8" stroke="#27AE60" stroke-width="2" />
  <text x="400" y="560" class="step-title" text-anchor="middle">Final Result</text>
  <text x="400" y="580" class="ciphertext" text-anchor="middle" font-size="18">HELLO → HDXLRG</text>
</svg>
