<?xml version="1.0" encoding="UTF-8" standalone="no"?>
<svg xmlns="http://www.w3.org/2000/svg" width="800" height="600" viewBox="0 0 800 600">
  <style>
    .title {
      font-family: Arial, sans-serif;
      font-size: 24px;
      font-weight: bold;
      fill: #333;
    }
    .subtitle {
      font-family: Arial, sans-serif;
      font-size: 16px;
      fill: #666;
    }
    .component {
      font-family: Arial, sans-serif;
      font-size: 16px;
      font-weight: bold;
      fill: white;
    }
    .description {
      font-family: Arial, sans-serif;
      font-size: 12px;
      fill: #333;
    }
    .arrow {
      stroke: #555;
      stroke-width: 2;
      fill: none;
      marker-end: url(#arrowhead);
    }
    .dashed-arrow {
      stroke: #555;
      stroke-width: 2;
      stroke-dasharray: 5, 5;
      fill: none;
      marker-end: url(#arrowhead);
    }
    .process-step {
      font-family: Arial, sans-serif;
      font-size: 12px;
      fill: #333;
    }
    .number-circle {
      font-family: Arial, sans-serif;
      font-size: 14px;
      font-weight: bold;
      fill: white;
    }
  </style>

  <defs>
    <marker id="arrowhead" markerWidth="10" markerHeight="7" refX="9" refY="3.5" orient="auto">
      <polygon points="0 0, 10 3.5, 0 7" fill="#555" />
    </marker>
    <filter id="shadow" x="-10%" y="-10%" width="120%" height="120%">
      <feDropShadow dx="3" dy="3" stdDeviation="3" flood-opacity="0.3" />
    </filter>
  </defs>

  <!-- Title -->
  <text x="400" y="40" class="title" text-anchor="middle">Public Key Infrastructure (PKI)</text>
  <text x="400" y="65" class="subtitle" text-anchor="middle">Components and Certificate Lifecycle</text>

  <!-- Certificate Authority (CA) -->
  <rect x="300" y="100" width="200" height="80" rx="10" ry="10" fill="#3498DB" filter="url(#shadow)" />
  <text x="400" y="140" class="component" text-anchor="middle">Certificate Authority (CA)</text>
  <text x="400" y="160" class="description" text-anchor="middle" fill="white">Issues and manages digital certificates</text>

  <!-- Registration Authority (RA) -->
  <rect x="50" y="220" width="180" height="70" rx="10" ry="10" fill="#2980B9" filter="url(#shadow)" />
  <text x="140" y="255" class="component" text-anchor="middle">Registration Authority</text>
  <text x="140" y="275" class="description" text-anchor="middle" fill="white">Verifies user identities</text>

  <!-- Certificate Repository -->
  <rect x="570" y="220" width="180" height="70" rx="10" ry="10" fill="#2980B9" filter="url(#shadow)" />
  <text x="660" y="255" class="component" text-anchor="middle">Certificate Repository</text>
  <text x="660" y="275" class="description" text-anchor="middle" fill="white">Stores and distributes certificates</text>

  <!-- Certificate Revocation List -->
  <rect x="310" y="220" width="180" height="70" rx="10" ry="10" fill="#2980B9" filter="url(#shadow)" />
  <text x="400" y="255" class="component" text-anchor="middle">Certificate Revocation List</text>
  <text x="400" y="275" class="description" text-anchor="middle" fill="white">Lists invalid certificates</text>

  <!-- Users/Entities -->
  <rect x="50" y="420" width="180" height="70" rx="10" ry="10" fill="#16A085" filter="url(#shadow)" />
  <text x="140" y="455" class="component" text-anchor="middle">End Entity (User)</text>
  <text x="140" y="475" class="description" text-anchor="middle" fill="white">Certificate requester/holder</text>

  <!-- Relying Party -->
  <rect x="570" y="420" width="180" height="70" rx="10" ry="10" fill="#16A085" filter="url(#shadow)" />
  <text x="660" y="455" class="component" text-anchor="middle">Relying Party</text>
  <text x="660" y="475" class="description" text-anchor="middle" fill="white">Depends on certificate validity</text>

  <!-- Digital Certificate -->
  <rect x="310" y="370" width="180" height="120" rx="10" ry="10" fill="#F39C12" filter="url(#shadow)" />
  <text x="400" y="400" class="component" text-anchor="middle">Digital Certificate</text>
  
  <rect x="330" y="410" width="140" height="70" rx="5" ry="5" fill="#FFF" />
  <text x="400" y="425" class="description" text-anchor="middle">• Subject's Public Key</text>
  <text x="400" y="445" class="description" text-anchor="middle">• Subject Information</text>
  <text x="400" y="465" class="description" text-anchor="middle">• CA's Digital Signature</text>
  <text x="400" y="485" class="description" text-anchor="middle">• Validity Period</text>

  <!-- Connections -->
  <path d="M 300 140 L 180 220" class="arrow" />
  <path d="M 500 140 L 620 220" class="arrow" />
  <path d="M 400 180 L 400 220" class="arrow" />
  
  <path d="M 140 290 L 140 420" class="arrow" />
  <path d="M 660 290 L 660 420" class="arrow" />
  
  <path d="M 230 455 L 310 430" class="arrow" />
  <path d="M 490 430 L 570 455" class="arrow" />

  <!-- Certificate Lifecycle -->
  <circle cx="100" y="340" r="15" fill="#E74C3C" />
  <text x="100" y="345" class="number-circle" text-anchor="middle">1</text>
  <text x="125" y="345" class="process-step" text-anchor="start">Request</text>
  
  <circle cx="220" y="340" r="15" fill="#E74C3C" />
  <text x="220" y="345" class="number-circle" text-anchor="middle">2</text>
  <text x="245" y="345" class="process-step" text-anchor="start">Verification</text>
  
  <circle cx="340" y="340" r="15" fill="#E74C3C" />
  <text x="340" y="345" class="number-circle" text-anchor="middle">3</text>
  <text x="365" y="345" class="process-step" text-anchor="start">Issuance</text>
  
  <circle cx="460" y="340" r="15" fill="#E74C3C" />
  <text x="460" y="345" class="number-circle" text-anchor="middle">4</text>
  <text x="485" y="345" class="process-step" text-anchor="start">Distribution</text>
  
  <circle cx="580" y="340" r="15" fill="#E74C3C" />
  <text x="580" y="345" class="number-circle" text-anchor="middle">5</text>
  <text x="605" y="345" class="process-step" text-anchor="start">Validation</text>
  
  <circle cx="700" y="340" r="15" fill="#E74C3C" />
  <text x="700" y="345" class="number-circle" text-anchor="middle">6</text>
  <text x="725" y="345" class="process-step" text-anchor="start">Revocation</text>

  <!-- Trust Path -->
  <path d="M 115 340 L 205 340" class="dashed-arrow" />
  <path d="M 235 340 L 325 340" class="dashed-arrow" />
  <path d="M 355 340 L 445 340" class="dashed-arrow" />
  <path d="M 475 340 L 565 340" class="dashed-arrow" />
  <path d="M 595 340 L 685 340" class="dashed-arrow" />

  <!-- Footer -->
  <text x="400" y="570" class="description" text-anchor="middle">
    PKI provides a framework for secure communications through digital certificates, enabling encryption,
  </text>
  <text x="400" y="585" class="description" text-anchor="middle">
    digital signatures, and authentication between parties that may not have previously established trust.
  </text>
</svg>
