<?xml version="1.0" encoding="UTF-8" standalone="no"?>
<svg xmlns="http://www.w3.org/2000/svg" width="800" height="600" viewBox="0 0 800 600">
  <style>
    .title {
      font-family: Arial, sans-serif;
      font-size: 24px;
      font-weight: bold;
      fill: #333;
    }
    .subtitle {
      font-family: Arial, sans-serif;
      font-size: 16px;
      fill: #666;
    }
    .step-title {
      font-family: Arial, sans-serif;
      font-size: 18px;
      font-weight: bold;
      fill: #333;
    }
    .letter {
      font-family: "Courier New", monospace;
      font-size: 16px;
      font-weight: bold;
    }
    .plaintext {
      fill: #2980B9;
    }
    .ciphertext {
      fill: #E74C3C;
    }
    .rail-number {
      fill: #8E44AD;
      font-weight: bold;
    }
    .description {
      font-family: Arial, sans-serif;
      font-size: 12px;
      fill: #555;
    }
    .zigzag-line {
      stroke: #27AE60;
      stroke-width: 2;
      fill: none;
    }
    .rail-line {
      stroke: #DDD;
      stroke-width: 1;
      stroke-dasharray: 5, 5;
    }
  </style>

  <defs>
    <filter id="shadow" x="-10%" y="-10%" width="120%" height="120%">
      <feDropShadow dx="3" dy="3" stdDeviation="3" flood-opacity="0.3" />
    </filter>
  </defs>

  <!-- Title -->
  <text x="400" y="40" class="title" text-anchor="middle">Rail Fence Cipher</text>
  <text x="400" y="65" class="subtitle" text-anchor="middle">Zigzag Pattern Transposition with 3 Rails</text>

  <!-- Step 1: Original Message -->
  <text x="100" y="110" class="step-title">Step 1: Original Message</text>
  <rect x="80" y="120" width="640" height="40" rx="5" ry="5" fill="#F0F8FF" stroke="#3498DB" stroke-width="1" />
  <text x="400" y="145" class="letter plaintext" text-anchor="middle">W E   A R E   D I S C O V E R E D   F L E E   A T   O N C E</text>

  <!-- Step 2: Rails Setup -->
  <text x="100" y="190" class="step-title">Step 2: Arrange in Zigzag Pattern (3 Rails)</text>
  
  <!-- Rail lines -->
  <line x1="80" y1="230" x2="720" y2="230" class="rail-line" />
  <line x1="80" y1="280" x2="720" y2="280" class="rail-line" />
  <line x1="80" y1="330" x2="720" y2="330" class="rail-line" />
  
  <!-- Rail numbers -->
  <text x="50" y="235" class="rail-number">Rail 1:</text>
  <text x="50" y="285" class="rail-number">Rail 2:</text>
  <text x="50" y="335" class="rail-number">Rail 3:</text>

  <!-- Position markers -->
  <g class="position-markers">
    <!-- Positions 1-25 -->
    <text x="100" y="215" class="description">1</text>
    <text x="130" y="215" class="description">2</text>
    <text x="160" y="215" class="description">3</text>
    <text x="190" y="215" class="description">4</text>
    <text x="220" y="215" class="description">5</text>
    <text x="250" y="215" class="description">6</text>
    <text x="280" y="215" class="description">7</text>
    <text x="310" y="215" class="description">8</text>
    <text x="340" y="215" class="description">9</text>
    <text x="370" y="215" class="description">10</text>
    <text x="400" y="215" class="description">11</text>
    <text x="430" y="215" class="description">12</text>
    <text x="460" y="215" class="description">13</text>
    <text x="490" y="215" class="description">14</text>
    <text x="520" y="215" class="description">15</text>
    <text x="550" y="215" class="description">16</text>
    <text x="580" y="215" class="description">17</text>
    <text x="610" y="215" class="description">18</text>
    <text x="640" y="215" class="description">19</text>
  </g>

  <!-- Zigzag line showing pattern -->
  <path d="M 100 230 L 130 280 L 160 330 L 190 280 L 220 230 L 250 280 L 280 330 L 310 280 L 340 230 L 370 280 L 400 330 L 430 280 L 460 230 L 490 280 L 520 330 L 550 280 L 580 230 L 610 280 L 640 330" class="zigzag-line" />

  <!-- Letters on rails -->
  <!-- Rail 1 (positions 1, 5, 9, 13, 17) -->
  <text x="100" y="235" class="letter plaintext">W</text>
  <text x="220" y="235" class="letter plaintext">E</text>
  <text x="340" y="235" class="letter plaintext">C</text>
  <text x="460" y="235" class="letter plaintext">D</text>
  <text x="580" y="235" class="letter plaintext">E</text>

  <!-- Rail 2 (positions 2, 4, 6, 8, 10, 12, 14, 16, 18) -->
  <text x="130" y="285" class="letter plaintext">E</text>
  <text x="190" y="285" class="letter plaintext">R</text>
  <text x="250" y="285" class="letter plaintext">A</text>
  <text x="310" y="285" class="letter plaintext">I</text>
  <text x="370" y="285" class="letter plaintext">V</text>
  <text x="430" y="285" class="letter plaintext">R</text>
  <text x="490" y="285" class="letter plaintext">L</text>
  <text x="550" y="285" class="letter plaintext">E</text>
  <text x="610" y="285" class="letter plaintext">T</text>

  <!-- Rail 3 (positions 3, 7, 11, 15, 19) -->
  <text x="160" y="335" class="letter plaintext">A</text>
  <text x="280" y="335" class="letter plaintext">D</text>
  <text x="400" y="335" class="letter plaintext">E</text>
  <text x="520" y="335" class="letter plaintext">F</text>
  <text x="640" y="335" class="letter plaintext">O</text>

  <!-- Step 3: Read off rails -->
  <text x="100" y="380" class="step-title">Step 3: Read Off Each Rail</text>
  
  <rect x="80" y="390" width="640" height="120" rx="5" ry="5" fill="#F8F9F9" stroke="#DDD" stroke-width="1" />
  
  <text x="120" y="415" class="description">Rail 1:</text>
  <text x="180" y="415" class="letter ciphertext">W E C D E</text>
  
  <text x="120" y="440" class="description">Rail 2:</text>
  <text x="180" y="440" class="letter ciphertext">E R A I V R L E T</text>
  
  <text x="120" y="465" class="description">Rail 3:</text>
  <text x="180" y="465" class="letter ciphertext">A D E F O</text>
  
  <text x="120" y="490" class="description" font-weight="bold">Final Ciphertext:</text>
  <text x="250" y="490" class="letter ciphertext">WECDE ERAIVLET ADEFO</text>

  <!-- Different Rail Example -->
  <text x="100" y="540" class="step-title">Example with 2 Rails: "HELLO"</text>
  
  <rect x="80" y="550" width="300" height="40" rx="5" ry="5" fill="#E8F5E8" stroke="#27AE60" stroke-width="1" />
  
  <text x="120" y="570" class="description">Rail 1: H _ L _ O → HLO</text>
  <text x="120" y="585" class="description">Rail 2: _ E _ L _ → EL</text>
  
  <rect x="400" y="550" width="200" height="40" rx="5" ry="5" fill="#FFE8E8" stroke="#E74C3C" stroke-width="1" />
  
  <text x="430" y="570" class="description" font-weight="bold">Result: HLOEL</text>

  <!-- Security Note -->
  <rect x="620" y="550" width="170" height="40" rx="5" ry="5" fill="#FFF3CD" stroke="#FFC107" stroke-width="1" />
  <text x="705" y="570" class="description" text-anchor="middle" font-size="10">Simple transposition</text>
  <text x="705" y="585" class="description" text-anchor="middle" font-size="10">Easy to break</text>
</svg>
