<?xml version="1.0" encoding="UTF-8"?>
<svg width="800" height="700" viewBox="0 0 800 700" xmlns="http://www.w3.org/2000/svg">
  <defs>
    <linearGradient id="gradient" x1="0%" y1="0%" x2="100%" y2="100%">
      <stop offset="0%" style="stop-color:#7c3aed;stop-opacity:1" />
      <stop offset="100%" style="stop-color:#5b21b6;stop-opacity:1" />
    </linearGradient>
    <filter id="shadow" x="-50%" y="-50%" width="200%" height="200%">
      <feDropShadow dx="2" dy="2" stdDeviation="3" flood-color="#00000040"/>
    </filter>
    <pattern id="imagePattern" patternUnits="userSpaceOnUse" width="40" height="40">
      <rect width="40" height="40" fill="#f1f5f9"/>
      <rect x="5" y="5" width="30" height="30" fill="#3b82f6" opacity="0.3"/>
      <rect x="10" y="10" width="20" height="20" fill="#1d4ed8" opacity="0.5"/>
    </pattern>
  </defs>
  
  <!-- Background -->
  <rect width="800" height="700" fill="#f8fafc"/>
  
  <!-- Header -->
  <rect x="50" y="20" width="700" height="60" fill="url(#gradient)" rx="10" filter="url(#shadow)"/>
  <text x="400" y="55" text-anchor="middle" fill="white" font-size="24" font-weight="bold">Steganography - Hidden Data Techniques</text>
  
  <!-- Definition Section -->
  <rect x="50" y="100" width="700" height="80" fill="white" stroke="#e2e8f0" stroke-width="2" rx="8" filter="url(#shadow)"/>
  <text x="60" y="125" fill="#374151" font-size="18" font-weight="bold">Definition</text>
  <text x="60" y="150" fill="#374151" font-size="14">Steganography is the practice of hiding data within other non-suspicious files or communications</text>
  <text x="60" y="170" fill="#374151" font-size="14">Goal: Conceal the existence of the message itself (unlike cryptography which hides meaning)</text>
  
  <!-- LSB Steganography Section -->
  <rect x="50" y="200" width="350" height="220" fill="white" stroke="#e2e8f0" stroke-width="2" rx="8" filter="url(#shadow)"/>
  <text x="60" y="225" fill="#374151" font-size="18" font-weight="bold">LSB (Least Significant Bit)</text>
  
  <!-- LSB Example -->
  <text x="60" y="250" fill="#374151" font-size="14">Example: Hide letter 'A' (01000001) in RGB pixels</text>
  
  <!-- Original Pixel -->
  <g transform="translate(70, 260)">
    <text x="0" y="15" fill="#374151" font-size="12" font-weight="bold">Original Pixel:</text>
    <rect x="0" y="20" width="200" height="60" fill="#f8fafc" stroke="#cbd5e1" stroke-width="1" rx="4"/>
    <text x="10" y="35" fill="#dc2626" font-size="11">R: 11010110 (214)</text>
    <text x="10" y="50" fill="#16a34a" font-size="11">G: 10110101 (181)</text>
    <text x="10" y="65" fill="#2563eb" font-size="11">B: 01101100 (108)</text>
    
    <!-- Modified Pixel -->
    <text x="0" y="95" fill="#374151" font-size="12" font-weight="bold">After hiding 'A' (010):</text>
    <rect x="0" y="100" width="200" height="60" fill="#fef3c7" stroke="#f59e0b" stroke-width="1" rx="4"/>
    <text x="10" y="115" fill="#dc2626" font-size="11">R: 1101011<tspan fill="#f59e0b" font-weight=">bold">0</tspan> (214)</text>
    <text x="10" y="130" fill="#16a34a" font-size="11">G: 1011010<tspan fill="#f59e0b" font-weight=">bold">1</tspan> (181)</text>
    <text x="10" y="145" fill="#2563eb" font-size="11">B: 0110110<tspan fill="#f59e0b" font-weight=">bold">0</tspan> (108)</text>
  </g>
  
  <!-- Steganography Types Section -->
  <rect x="420" y="200" width="330" height="220" fill="white" stroke="#e2e8f0" stroke-width="2" rx="8" filter="url(#shadow)"/>
  <text x="430" y="225" fill="#374151" font-size="18" font-weight="bold">Types of Steganography</text>
  
  <!-- Image Steganography -->
  <g transform="translate(440, 240)">
    <rect x="0" y="0" width="130" height="80" fill="#dbeafe" stroke="#3b82f6" stroke-width="2" rx="6"/>
    <rect x="10" y="10" width="30" height="20" fill="url(#imagePattern)"/>
    <text x="50" y="20" fill="#1d4ed8" font-size="12" font-weight="bold">Image</text>
    <text x="50" y="35" fill="#1d4ed8" font-size="10">• LSB modification</text>
    <text x="50" y="50" fill="#1d4ed8" font-size="10">• Palette manipulation</text>
    <text x="50" y="65" fill="#1d4ed8" font-size="10">• DCT coefficients</text>
    
    <!-- Audio Steganography -->
    <rect x="150" y="0" width="130" height="80" fill="#dcfce7" stroke="#16a34a" stroke-width="2" rx="6"/>
    <path d="M 160 30 Q 170 20 180 30 Q 190 40 200 30 Q 210 20 220 30" stroke="#16a34a" stroke-width="2" fill="none"/>
    <text x="175" y="50" text-anchor="middle" fill="#15803d" font-size="12" font-weight="bold">Audio</text>
    <text x="160" y="65" fill="#15803d" font-size="10">• Echo hiding • Phase coding</text>
    
    <!-- Text Steganography -->
    <rect x="0" y="100" width="130" height="80" fill="#fef3c7" stroke="#f59e0b" stroke-width="2" rx="6"/>
    <text x="10" y="25" fill="#d97706" font-size="10" font-weight="bold">Text Hidden</text>
    <text x="15" y="130" text-anchor="middle" fill="#d97706" font-size="12" font-weight="bold">Text</text>
    <text x="10" y="145" fill="#d97706" font-size="10">• White space</text>
    <text x="10" y="160" fill="#d97706" font-size="10">• Invisible chars</text>
    <text x="10" y="175" fill="#d97706" font-size="10">• Word spacing</text>
    
    <!-- Video Steganography -->
    <rect x="150" y="100" width="130" height="80" fill="#fce7f3" stroke="#ec4899" stroke-width="2" rx="6"/>
    <rect x="160" y="110" width="15" height="10" fill="#ec4899" opacity="0.3"/>
    <rect x="180" y="115" width="15" height="10" fill="#ec4899" opacity="0.5"/>
    <rect x="200" y="120" width="15" height="10" fill="#ec4899" opacity="0.7"/>
    <text x="215" y="150" text-anchor="middle" fill="#be185d" font-size="12" font-weight="bold">Video</text>
    <text x="160" y="165" fill="#be185d" font-size="10">• Frame modification</text>
    <text x="160" y="175" fill="#be185d" font-size="10">• Temporal hiding</text>
  </g>
  
  <!-- Methods Comparison -->
  <rect x="50" y="440" width="700" height="200" fill="white" stroke="#e2e8f0" stroke-width="2" rx="8" filter="url(#shadow)"/>
  <text x="60" y="465" fill="#374151" font-size="18" font-weight="bold">Steganography vs Cryptography</text>
  
  <!-- Comparison Table -->
  <g transform="translate(70, 480)">
    <!-- Headers -->
    <rect x="0" y="0" width="150" height="30" fill="#f1f5f9" stroke="#cbd5e1" stroke-width="1"/>
    <rect x="150" y="0" width="250" height="30" fill="#f1f5f9" stroke="#cbd5e1" stroke-width="1"/>
    <rect x="400" y="0" width="250" height="30" fill="#f1f5f9" stroke="#cbd5e1" stroke-width="1"/>
    
    <text x="75" y="20" text-anchor="middle" fill="#374151" font-size="14" font-weight="bold">Aspect</text>
    <text x="275" y="20" text-anchor="middle" fill="#374151" font-size="14" font-weight="bold">Steganography</text>
    <text x="525" y="20" text-anchor="middle" fill="#374151" font-size="14" font-weight="bold">Cryptography</text>
    
    <!-- Row 1 -->
    <rect x="0" y="30" width="150" height="25" fill="white" stroke="#cbd5e1" stroke-width="1"/>
    <rect x="150" y="30" width="250" height="25" fill="white" stroke="#cbd5e1" stroke-width="1"/>
    <rect x="400" y="30" width="250" height="25" fill="white" stroke="#cbd5e1" stroke-width="1"/>
    
    <text x="10" y="47" fill="#374151" font-size="12">Purpose</text>
    <text x="160" y="47" fill="#374151" font-size="12">Hide existence of message</text>
    <text x="410" y="47" fill="#374151" font-size="12">Hide meaning of message</text>
    
    <!-- Row 2 -->
    <rect x="0" y="55" width="150" height="25" fill="#f8fafc" stroke="#cbd5e1" stroke-width="1"/>
    <rect x="150" y="55" width="250" height="25" fill="#f8fafc" stroke="#cbd5e1" stroke-width="1"/>
    <rect x="400" y="55" width="250" height="25" fill="#f8fafc" stroke="#cbd5e1" stroke-width="1"/>
    
    <text x="10" y="72" fill="#374151" font-size="12">Detection</text>
    <text x="160" y="72" fill="#374151" font-size="12">Harder to detect</text>
    <text x="410" y="72" fill="#374151" font-size="12">Obvious data is encrypted</text>
    
    <!-- Row 3 -->
    <rect x="0" y="80" width="150" height="25" fill="white" stroke="#cbd5e1" stroke-width="1"/>
    <rect x="150" y="80" width="250" height="25" fill="white" stroke="#cbd5e1" stroke-width="1"/>
    <rect x="400" y="80" width="250" height="25" fill="white" stroke="#cbd5e1" stroke-width="1"/>
    
    <text x="10" y="97" fill="#374151" font-size="12">Cover Medium</text>
    <text x="160" y="97" fill="#374151" font-size="12">Images, audio, video, text</text>
    <text x="410" y="97" fill="#374151" font-size="12">Any data format</text>
    
    <!-- Row 4 -->
    <rect x="0" y="105" width="150" height="25" fill="#f8fafc" stroke="#cbd5e1" stroke-width="1"/>
    <rect x="150" y="105" width="250" height="25" fill="#f8fafc" stroke="#cbd5e1" stroke-width="1"/>
    <rect x="400" y="105" width="250" height="25" fill="#f8fafc" stroke="#cbd5e1" stroke-width="1"/>
    
    <text x="10" y="122" fill="#374151" font-size="12">Robustness</text>
    <text x="160" y="122" fill="#374151" font-size="12">Fragile to modifications</text>
    <text x="410" y="122" fill="#374151" font-size="12">Robust against analysis</text>
  </g>
  
  <!-- Applications and Detection -->
  <rect x="50" y="660" width="350" height="40" fill="#fef3c7" stroke="#f59e0b" stroke-width="2" rx="8"/>
  <text x="60" y="680" fill="#92400e" font-size="14" font-weight="bold">Applications: Covert communication, Digital watermarking, Copyright protection</text>
  
  <rect x="420" y="660" width="330" height="40" fill="#fed7d7" stroke="#f56565" stroke-width="2" rx="8"/>
  <text x="430" y="680" fill="#c53030" font-size="14" font-weight="bold">Detection: Statistical analysis, Visual attacks, Chi-square tests</text>
</svg>
