<?xml version="1.0" encoding="UTF-8" standalone="no"?>
<svg xmlns="http://www.w3.org/2000/svg" width="1000" height="700" viewBox="0 0 1000 700">
  <style>
    .title {
      font-family: Arial, sans-serif;
      font-size: 28px;
      font-weight: bold;
      fill: #333;
    }
    .main-topic {
      font-family: Arial, sans-serif;
      font-size: 18px;
      font-weight: bold;
      fill: white;
    }
    .subtopic {
      font-family: Arial, sans-serif;
      font-size: 14px;
      font-weight: bold;
      fill: #333;
    }
    .concept {
      font-family: Arial, sans-serif;
      font-size: 12px;
      fill: #555;
    }
    .line {
      stroke: #666;
      stroke-width: 2;
      fill: none;
    }
    .central-line {
      stroke: #333;
      stroke-width: 3;
      fill: none;
    }
  </style>

  <defs>
    <filter id="shadow" x="-10%" y="-10%" width="120%" height="120%">
      <feDropShadow dx="3" dy="3" stdDeviation="3" flood-opacity="0.3" />
    </filter>
  </defs>

  <!-- Title -->
  <text x="500" y="40" class="title" text-anchor="middle">Unit 1: Introduction to Cyber Security &amp; Cryptography</text>
  <text x="500" y="65" class="concept" text-anchor="middle">Complete Visual Overview of All Topics Covered</text>

  <!-- Central Node -->
  <ellipse cx="500" cy="350" rx="120" ry="60" fill="#2C3E50" filter="url(#shadow)" />
  <text x="500" y="345" class="main-topic" text-anchor="middle">UNIT 1</text>
  <text x="500" y="365" class="main-topic" text-anchor="middle">Cyber Security &amp;</text>
  <text x="500" y="385" class="main-topic" text-anchor="middle">Cryptography</text>

  <!-- Branch 1: Cyber Security Basics (Top Left) -->
  <path d="M 420 320 Q 350 250 250 200" class="central-line" />
  <ellipse cx="250" cy="200" rx="80" ry="40" fill="#3498DB" filter="url(#shadow)" />
  <text x="250" y="205" class="main-topic" text-anchor="middle">Cyber Security</text>
  <text x="250" y="225" class="main-topic" text-anchor="middle">Basics</text>

  <!-- Sub-branches for Cyber Security Basics -->
  <path d="M 200 180 L 120 120" class="line" />
  <rect x="50" y="100" width="140" height="40" rx="5" ry="5" fill="#D6EAF8" />
  <text x="120" y="125" class="subtopic" text-anchor="middle">Evolution Timeline</text>

  <path d="M 300 180 L 380 120" class="line" />
  <rect x="320" y="100" width="120" height="40" rx="5" ry="5" fill="#D6EAF8" />
  <text x="380" y="125" class="subtopic" text-anchor="middle">Security Domains</text>

  <!-- Branch 2: CIA Triad (Top) -->
  <path d="M 500 290 L 500 200" class="central-line" />
  <ellipse cx="500" cy="200" rx="60" ry="30" fill="#E74C3C" filter="url(#shadow)" />
  <text x="500" y="210" class="main-topic" text-anchor="middle">CIA Triad</text>

  <!-- Sub-branches for CIA Triad -->
  <path d="M 470 180 L 420 140" class="line" />
  <rect x="380" y="120" width="80" height="30" rx="3" ry="3" fill="#FADBD8" />
  <text x="420" y="140" class="subtopic" text-anchor="middle">Confidentiality</text>

  <path d="M 500 170 L 500 140" class="line" />
  <rect x="470" y="120" width="60" height="30" rx="3" ry="3" fill="#FADBD8" />
  <text x="500" y="140" class="subtopic" text-anchor="middle">Integrity</text>

  <path d="M 530 180 L 580 140" class="line" />
  <rect x="540" y="120" width="80" height="30" rx="3" ry="3" fill="#FADBD8" />
  <text x="580" y="140" class="subtopic" text-anchor="middle">Availability</text>

  <!-- Branch 3: Key Terms (Top Right) -->
  <path d="M 580 320 Q 650 250 750 200" class="central-line" />
  <ellipse cx="750" cy="200" rx="80" ry="40" fill="#9B59B6" filter="url(#shadow)" />
  <text x="750" y="205" class="main-topic" text-anchor="middle">Key Terms &amp;</text>
  <text x="750" y="225" class="main-topic" text-anchor="middle">Definitions</text>

  <!-- Sub-branches for Key Terms -->
  <path d="M 700 180 L 620 120" class="line" />
  <rect x="560" y="100" width="120" height="40" rx="5" ry="5" fill="#E8DAEF" />
  <text x="620" y="125" class="subtopic" text-anchor="middle">Threat-Risk-Vuln</text>

  <path d="M 800 180 L 880 120" class="line" />
  <rect x="820" y="100" width="120" height="40" rx="5" ry="5" fill="#E8DAEF" />
  <text x="880" y="125" class="subtopic" text-anchor="middle">Security Policy</text>

  <!-- Branch 4: OSI Security (Left) -->
  <path d="M 380 350 L 250 350" class="central-line" />
  <ellipse cx="250" cy="350" rx="80" ry="40" fill="#27AE60" filter="url(#shadow)" />
  <text x="250" y="345" class="main-topic" text-anchor="middle">OSI Model</text>
  <text x="250" y="365" class="main-topic" text-anchor="middle">Security</text>

  <!-- Sub-branches for OSI Security -->
  <path d="M 200 330 L 120 280" class="line" />
  <rect x="50" y="260" width="140" height="40" rx="5" ry="5" fill="#D5F4E6" />
  <text x="120" y="285" class="subtopic" text-anchor="middle">Attack Classification</text>

  <path d="M 200 370 L 120 420" class="line" />
  <rect x="50" y="400" width="140" height="40" rx="5" ry="5" fill="#D5F4E6" />
  <text x="120" y="425" class="subtopic" text-anchor="middle">Security Services</text>

  <!-- Branch 5: Cryptography (Right) -->
  <path d="M 620 350 L 750 350" class="central-line" />
  <ellipse cx="750" cy="350" rx="80" ry="40" fill="#F39C12" filter="url(#shadow)" />
  <text x="750" y="355" class="main-topic" text-anchor="middle">Cryptography</text>

  <!-- Sub-branches for Cryptography -->
  <path d="M 800 330 L 880 280" class="line" />
  <rect x="820" y="260" width="120" height="40" rx="5" ry="5" fill="#FCF3CF" />
  <text x="880" y="285" class="subtopic" text-anchor="middle">Symmetric Crypto</text>

  <path d="M 800 370 L 880 420" class="line" />
  <rect x="820" y="400" width="120" height="40" rx="5" ry="5" fill="#FCF3CF" />
  <text x="880" y="425" class="subtopic" text-anchor="middle">Asymmetric Crypto</text>

  <!-- Branch 6: Classical Encryption (Bottom Left) -->
  <path d="M 420 380 Q 350 450 250 500" class="central-line" />
  <ellipse cx="250" cy="500" rx="80" ry="40" fill="#E67E22" filter="url(#shadow)" />
  <text x="250" y="495" class="main-topic" text-anchor="middle">Classical</text>
  <text x="250" y="515" class="main-topic" text-anchor="middle">Encryption</text>

  <!-- Sub-branches for Classical Encryption -->
  <path d="M 200 480 L 120 440" class="line" />
  <rect x="50" y="420" width="140" height="40" rx="5" ry="5" fill="#F6DDCC" />
  <text x="120" y="445" class="subtopic" text-anchor="middle">Caesar Cipher</text>

  <path d="M 200 520 L 120 560" class="line" />
  <rect x="50" y="540" width="140" height="40" rx="5" ry="5" fill="#F6DDCC" />
  <text x="120" y="565" class="subtopic" text-anchor="middle">Transposition</text>

  <!-- Branch 7: Authentication (Bottom) -->
  <path d="M 500 410 L 500 500" class="central-line" />
  <ellipse cx="500" cy="500" rx="80" ry="40" fill="#8E44AD" filter="url(#shadow)" />
  <text x="500" y="505" class="main-topic" text-anchor="middle">Authentication</text>

  <!-- Sub-branches for Authentication -->
  <path d="M 470 480 L 420 440" class="line" />
  <rect x="360" y="420" width="120" height="40" rx="5" ry="5" fill="#EBDEF0" />
  <text x="420" y="445" class="subtopic" text-anchor="middle">Multi-Factor Auth</text>

  <path d="M 530 480 L 580 440" class="line" />
  <rect x="520" y="420" width="120" height="40" rx="5" ry="5" fill="#EBDEF0" />
  <text x="580" y="445" class="subtopic" text-anchor="middle">Digital Signatures</text>

  <!-- Branch 8: PKI &amp; Certificates (Bottom Right) -->
  <path d="M 580 380 Q 650 450 750 500" class="central-line" />
  <ellipse cx="750" cy="500" rx="80" ry="40" fill="#16A085" filter="url(#shadow)" />
  <text x="750" y="495" class="main-topic" text-anchor="middle">PKI &amp;</text>
  <text x="750" y="515" class="main-topic" text-anchor="middle">Certificates</text>

  <!-- Sub-branches for PKI -->
  <path d="M 800 480 L 880 440" class="line" />
  <rect x="820" y="420" width="120" height="40" rx="5" ry="5" fill="#D1F2EB" />
  <text x="880" y="445" class="subtopic" text-anchor="middle">Certificate Authority</text>

  <path d="M 800 520 L 880 560" class="line" />
  <rect x="820" y="540" width="120" height="40" rx="5" ry="5" fill="#D1F2EB" />
  <text x="880" y="565" class="subtopic" text-anchor="middle">Key Lifecycle</text>

  <!-- Network Security -->
  <path d="M 470 420 L 380 580" class="central-line" />
  <ellipse cx="380" cy="580" rx="80" ry="30" fill="#34495E" filter="url(#shadow)" />
  <text x="380" y="590" class="main-topic" text-anchor="middle">Network Security</text>

  <!-- Hashing -->
  <path d="M 530 420 L 620 580" class="central-line" />
  <ellipse cx="620" cy="580" rx="60" ry="30" fill="#DC7633" filter="url(#shadow)" />
  <text x="620" y="590" class="main-topic" text-anchor="middle">Hashing</text>

  <!-- Statistics Box -->
  <rect x="50" y="600" width="900" height="80" rx="10" ry="10" fill="#F8F9F9" stroke="#DDD" stroke-width="1" filter="url(#shadow)" />
  <text x="500" y="630" class="subtopic" text-anchor="middle">Unit 1 Coverage Summary</text>
  <text x="200" y="655" class="concept" text-anchor="middle">📊 40+ Diagrams Created</text>
  <text x="400" y="655" class="concept" text-anchor="middle">🔒 8 Major Topic Areas</text>
  <text x="600" y="655" class="concept" text-anchor="middle">🎯 100% Visual Coverage</text>
  <text x="800" y="655" class="concept" text-anchor="middle">📚 Comprehensive Learning</text>

  <!-- Footer -->
  <text x="500" y="695" class="concept" text-anchor="middle">
    All fundamental concepts of Unit 1 are now visually represented with detailed diagrams
  </text>
</svg>
