<?xml version="1.0" encoding="UTF-8" standalone="no"?>
<svg xmlns="http://www.w3.org/2000/svg" width="800" height="600" viewBox="0 0 800 600">
  <style>
    .title {
      font-family: Arial, sans-serif;
      font-size: 24px;
      font-weight: bold;
      fill: #333;
    }
    .subtitle {
      font-family: Arial, sans-serif;
      font-size: 16px;
      fill: #666;
    }
    .step-title {
      font-family: Arial, sans-serif;
      font-size: 18px;
      font-weight: bold;
      fill: #333;
    }
    .letter {
      font-family: "Courier New", monospace;
      font-size: 16px;
      font-weight: bold;
    }
    .plaintext {
      fill: #2980B9;
    }
    .keyword {
      fill: #E74C3C;
    }
    .ciphertext {
      fill: #27AE60;
    }
    .shift-value {
      fill: #8E44AD;
    }
    .description {
      font-family: Arial, sans-serif;
      font-size: 12px;
      fill: #555;
    }
    .arrow {
      stroke: #555;
      stroke-width: 2;
      fill: none;
      marker-end: url(#arrowhead);
    }
    .table-header {
      font-family: Arial, sans-serif;
      font-size: 14px;
      font-weight: bold;
      fill: #333;
    }
  </style>

  <defs>
    <marker id="arrowhead" markerWidth="10" markerHeight="7" refX="9" refY="3.5" orient="auto">
      <polygon points="0 0, 10 3.5, 0 7" fill="#555" />
    </marker>
    <filter id="shadow" x="-10%" y="-10%" width="120%" height="120%">
      <feDropShadow dx="3" dy="3" stdDeviation="3" flood-opacity="0.3" />
    </filter>
  </defs>

  <!-- Title -->
  <text x="400" y="40" class="title" text-anchor="middle">Vigenère Cipher</text>
  <text x="400" y="65" class="subtitle" text-anchor="middle">Polyalphabetic Substitution with Keyword "KEY"</text>

  <!-- Step 1: Setup -->
  <text x="100" y="110" class="step-title">Step 1: Align Keyword with Plaintext</text>
  
  <!-- Alignment Table -->
  <rect x="80" y="130" width="640" height="80" rx="5" ry="5" fill="#F8F9F9" stroke="#DDD" stroke-width="1" />
  
  <!-- Table Headers -->
  <text x="120" y="155" class="table-header">Position:</text>
  <text x="120" y="175" class="table-header">Plaintext:</text>
  <text x="120" y="195" class="table-header">Keyword:</text>
  
  <!-- Position numbers -->
  <text x="220" y="155" class="description">1</text>
  <text x="260" y="155" class="description">2</text>
  <text x="300" y="155" class="description">3</text>
  <text x="340" y="155" class="description">4</text>
  <text x="380" y="155" class="description">5</text>
  <text x="420" y="155" class="description">6</text>
  <text x="460" y="155" class="description">7</text>
  <text x="500" y="155" class="description">8</text>
  <text x="540" y="155" class="description">9</text>
  <text x="580" y="155" class="description">10</text>
  <text x="620" y="155" class="description">11</text>
  
  <!-- Plaintext letters -->
  <text x="220" y="175" class="letter plaintext">A</text>
  <text x="260" y="175" class="letter plaintext">T</text>
  <text x="300" y="175" class="letter plaintext">T</text>
  <text x="340" y="175" class="letter plaintext">A</text>
  <text x="380" y="175" class="letter plaintext">C</text>
  <text x="420" y="175" class="letter plaintext">K</text>
  <text x="460" y="175" class="letter plaintext">A</text>
  <text x="500" y="175" class="letter plaintext">T</text>
  <text x="540" y="175" class="letter plaintext">D</text>
  <text x="580" y="175" class="letter plaintext">A</text>
  <text x="620" y="175" class="letter plaintext">W</text>
  
  <!-- Keyword letters (repeating) -->
  <text x="220" y="195" class="letter keyword">K</text>
  <text x="260" y="195" class="letter keyword">E</text>
  <text x="300" y="195" class="letter keyword">Y</text>
  <text x="340" y="195" class="letter keyword">K</text>
  <text x="380" y="195" class="letter keyword">E</text>
  <text x="420" y="195" class="letter keyword">Y</text>
  <text x="460" y="195" class="letter keyword">K</text>
  <text x="500" y="195" class="letter keyword">E</text>
  <text x="540" y="195" class="letter keyword">Y</text>
  <text x="580" y="195" class="letter keyword">K</text>
  <text x="620" y="195" class="letter keyword">E</text>

  <!-- Step 2: Calculate Shifts -->
  <text x="100" y="260" class="step-title">Step 2: Calculate Shift Values</text>
  
  <rect x="80" y="280" width="640" height="100" rx="5" ry="5" fill="#FFF8DC" stroke="#F39C12" stroke-width="1" />
  
  <!-- Shift calculation explanation -->
  <text x="120" y="305" class="table-header">Letter Values:</text>
  <text x="120" y="325" class="table-header">Shift Amount:</text>
  <text x="120" y="345" class="table-header">Calculation:</text>
  <text x="120" y="365" class="table-header">Result:</text>
  
  <!-- Example calculations for first few letters -->
  <text x="220" y="305" class="description">A=0</text>
  <text x="260" y="305" class="description">T=19</text>
  <text x="300" y="305" class="description">T=19</text>
  <text x="340" y="305" class="description">A=0</text>
  <text x="380" y="305" class="description">C=2</text>
  
  <text x="220" y="325" class="shift-value">K=10</text>
  <text x="260" y="325" class="shift-value">E=4</text>
  <text x="300" y="325" class="shift-value">Y=24</text>
  <text x="340" y="325" class="shift-value">K=10</text>
  <text x="380" y="325" class="shift-value">E=4</text>
  
  <text x="220" y="345" class="description">(0+10)%26</text>
  <text x="260" y="345" class="description">(19+4)%26</text>
  <text x="300" y="345" class="description">(19+24)%26</text>
  <text x="340" y="345" class="description">(0+10)%26</text>
  <text x="380" y="345" class="description">(2+4)%26</text>
  
  <text x="220" y="365" class="ciphertext">K</text>
  <text x="260" y="365" class="ciphertext">X</text>
  <text x="300" y="365" class="ciphertext">R</text>
  <text x="340" y="365" class="ciphertext">K</text>
  <text x="380" y="365" class="ciphertext">G</text>

  <!-- Step 3: Vigenère Square Reference -->
  <text x="100" y="420" class="step-title">Step 3: Using Vigenère Square (Tabula Recta)</text>
  
  <!-- Mini Vigenère Square (partial) -->
  <rect x="80" y="440" width="300" height="120" rx="5" ry="5" fill="#E8F5E8" stroke="#27AE60" stroke-width="1" />
  
  <text x="100" y="460" class="description">Row (Keyword) → Column (Plaintext) ↓</text>
  
  <!-- Sample grid showing intersection -->
  <text x="120" y="485" class="description">K row, A col → K</text>
  <text x="120" y="505" class="description">E row, T col → X</text>
  <text x="120" y="525" class="description">Y row, T col → R</text>
  <text x="120" y="545" class="description">K row, A col → K</text>

  <!-- Final Result -->
  <rect x="450" y="440" width="270" height="120" rx="5" ry="5" fill="#F0F8FF" stroke="#3498DB" stroke-width="2" />
  
  <text x="585" y="465" class="step-title" text-anchor="middle">Complete Encryption</text>
  
  <text x="470" y="490" class="description">Plaintext:</text>
  <text x="550" y="490" class="letter plaintext">ATTACKATDAWN</text>
  
  <text x="470" y="515" class="description">Keyword:</text>
  <text x="550" y="515" class="letter keyword">KEYKEYKEYKEK</text>
  
  <text x="470" y="540" class="description">Ciphertext:</text>
  <text x="550" y="540" class="letter ciphertext">KXRQGQTXOHEW</text>

  <!-- Security Note -->
  <rect x="100" y="570" width="600" height="25" rx="3" ry="3" fill="#FFF3CD" stroke="#FFC107" stroke-width="1" />
  <text x="400" y="587" class="description" text-anchor="middle">
    Vigenère cipher resists frequency analysis but vulnerable to keyword length analysis
  </text>
</svg>
