<?xml version="1.0" encoding="UTF-8"?>
<svg xmlns="http://www.w3.org/2000/svg" viewBox="0 0 1400 1100">
  <defs>
    <style>
      .title { font: bold 24px Arial; text-anchor: middle; fill: #2c3e50; }
      .subtitle { font: bold 18px Arial; text-anchor: middle; fill: #34495e; }
      .label { font: 14px Arial; text-anchor: middle; fill: #2c3e50; }
      .formula { font: 12px Arial; text-anchor: middle; fill: #e74c3c; }
      .text { font: 11px Arial; fill: #2c3e50; }
      .circuit { stroke: #2c3e50; stroke-width: 2; fill: none; }
      .component { stroke: #2c3e50; stroke-width: 2; fill: white; }
      .voltage { stroke: #e74c3c; stroke-width: 2; fill: none; }
      .current { stroke: #27ae60; stroke-width: 2; fill: none; marker-end: url(#arrowhead-green); }
      .magnetic { stroke: #9b59b6; stroke-width: 2; fill: none; }
      .spring { stroke: #f39c12; stroke-width: 2; fill: none; }
      .digital { stroke: #3498db; stroke-width: 2; fill: #e8f4fd; }
    </style>
    <marker id="arrowhead-green" markerWidth="10" markerHeight="7" refX="9" refY="3.5" orient="auto">
      <polygon points="0 0, 10 3.5, 0 7" fill="#27ae60"/>
    </marker>
    <marker id="arrowhead-red" markerWidth="10" markerHeight="7" refX="9" refY="3.5" orient="auto">
      <polygon points="0 0, 10 3.5, 0 7" fill="#e74c3c"/>
    </marker>
  </defs>

  <!-- Title -->
  <text x="700" y="35" class="title">Electrical Parameter Measurement Instruments</text>
  <text x="700" y="60" class="subtitle">Moving Coil, Moving Iron, Digital Multimeter, and Electronic Meters</text>

  <!-- Moving Coil (PMMC) Instrument -->
  <g transform="translate(50, 100)">
    <text x="200" y="20" class="subtitle">Moving Coil (PMMC) Instrument</text>

    <!-- Magnet structure -->
    <rect x="50" y="50" width="20" height="80" fill="#e74c3c" class="component"/>
    <rect x="330" y="50" width="20" height="80" fill="#3498db" class="component"/>
    <text x="60" y="45" class="label">N</text>
    <text x="340" y="45" class="label">S</text>

    <!-- Cylindrical core -->
    <circle cx="200" cy="90" r="25" fill="#f39c12" class="component"/>
    <text x="200" y="95" class="label">Core</text>

    <!-- Moving coil -->
    <circle cx="200" cy="90" r="35" class="component" stroke-width="3"/>
    <text x="200" y="135" class="label">Moving Coil</text>

    <!-- Pointer -->
    <line x1="200" y1="90" x2="280" y2="50" class="current" stroke-width="3"/>
    <text x="290" y="45" class="label">Pointer</text>

    <!-- Scale -->
    <path d="M120,40 A60,60 0 0,1 280,40" class="circuit"/>
    <text x="200" y="25" class="label">Scale</text>

    <!-- Control springs -->
    <g class="spring">
      <path d="M175,90 Q165,85 160,90 Q155,95 150,90 Q145,85 140,90"/>
      <path d="M225,90 Q235,85 240,90 Q245,95 250,90 Q255,85 260,90"/>
    </g>
    <text x="150" y="80" class="text">Spring</text>
    <text x="240" y="80" class="text">Spring</text>

    <!-- Current terminals -->
    <circle cx="120" cy="150" r="5" class="component"/>
    <circle cx="280" cy="150" r="5" class="component"/>
    <text x="110" y="170" class="label">I+</text>
    <text x="285" y="170" class="label">I-</text>
    <line x1="125" y1="150" x2="175" y2="120" class="circuit"/>
    <line x1="275" y1="150" x2="225" y2="120" class="circuit"/>

    <!-- Characteristics -->
    <text x="50" y="200" class="formula">Deflection: ¸  I (Linear scale)</text>
    <text x="50" y="215" class="formula">Torque: T = BINA</text>
    <text x="50" y="230" class="text">" High accuracy and sensitivity</text>
    <text x="50" y="245" class="text">" Linear scale, low power consumption</text>
    <text x="50" y="260" class="text">" Only for DC measurements</text>
  </g>

  <!-- Moving Iron Instrument -->
  <g transform="translate(450, 100)">
    <text x="200" y="20" class="subtitle">Moving Iron Instrument</text>

    <!-- Coil -->
    <ellipse cx="200" cy="90" rx="40" ry="60" class="component" stroke-width="3"/>
    <text x="200" y="60" class="label">Fixed Coil</text>

    <!-- Fixed iron piece -->
    <rect x="180" y="75" width="15" height="30" fill="#7f8c8d" class="component"/>
    <text x="187" y="70" class="text">Fixed Iron</text>

    <!-- Moving iron piece -->
    <rect x="205" y="85" width="15" height="20" fill="#95a5a6" class="component"/>
    <text x="212" y="80" class="text">Moving Iron</text>

    <!-- Pointer mechanism -->
    <line x1="212" y1="85" x2="280" y2="50" class="current" stroke-width="3"/>
    <text x="290" y="45" class="label">Pointer</text>

    <!-- Scale (non-linear) -->
    <path d="M120,40 A60,60 0 0,1 280,40" class="circuit"/>
    <g class="circuit">
      <line x1="130" y1="42" x2="135" y2="35"/>
      <line x1="145" y1="45" x2="150" y2="35"/>
      <line x1="170" y1="50" x2="175" y2="40"/>
      <line x1="200" y1="52" x2="205" y2="42"/>
      <line x1="230" y1="50" x2="235" y2="40"/>
      <line x1="255" y1="45" x2="260" y2="35"/>
      <line x1="270" y1="42" x2="275" y2="35"/>
    </g>
    <text x="200" y="25" class="label">Non-linear Scale</text>

    <!-- Control spring -->
    <g class="spring">
      <path d="M225,95 Q235,90 240,95 Q245,100 250,95 Q255,90 260,95"/>
    </g>

    <!-- Damping vane -->
    <rect x="185" y="125" width="30" height="8" fill="#ecf0f1" class="component"/>
    <text x="200" y="145" class="text">Air Damping</text>

    <!-- Current terminals -->
    <circle cx="120" cy="150" r="5" class="component"/>
    <circle cx="280" cy="150" r="5" class="component"/>
    <text x="110" y="170" class="label">AC/DC</text>
    <text x="285" y="170" class="label">Input</text>

    <!-- Characteristics -->
    <text x="50" y="200" class="formula">Deflection: ¸  I² (Non-linear)</text>
    <text x="50" y="215" class="formula">Torque: T  I²(dL/d¸)</text>
    <text x="50" y="230" class="text">" Works with AC and DC</text>
    <text x="50" y="245" class="text">" Robust construction</text>
    <text x="50" y="260" class="text">" Non-linear scale, lower accuracy</text>
  </g>

  <!-- Digital Multimeter Block Diagram -->
  <g transform="translate(850, 100)">
    <text x="250" y="20" class="subtitle">Digital Multimeter (DMM)</text>

    <!-- Input conditioning -->
    <rect x="20" y="50" width="80" height="40" class="digital"/>
    <text x="60" y="75" class="text">Input</text>
    <text x="60" y="85" class="text">Conditioning</text>

    <!-- A/D Converter -->
    <rect x="130" y="50" width="80" height="40" class="digital"/>
    <text x="170" y="75" class="text">A/D</text>
    <text x="170" y="85" class="text">Converter</text>

    <!-- Microprocessor -->
    <rect x="240" y="50" width="80" height="40" class="digital"/>
    <text x="280" y="75" class="text">Micro-</text>
    <text x="280" y="85" class="text">processor</text>

    <!-- Display -->
    <rect x="350" y="50" width="80" height="40" class="digital"/>
    <text x="390" y="75" class="text">LCD</text>
    <text x="390" y="85" class="text">Display</text>

    <!-- Power supply -->
    <rect x="240" y="110" width="80" height="30" class="digital"/>
    <text x="280" y="130" class="text">Power Supply</text>

    <!-- Connections -->
    <path d="M100,70 L130,70" class="circuit" marker-end="url(#arrowhead-green)"/>
    <path d="M210,70 L240,70" class="circuit" marker-end="url(#arrowhead-green)"/>
    <path d="M320,70 L350,70" class="circuit" marker-end="url(#arrowhead-green)"/>
    <line x1="280" y1="90" x2="280" y2="110" class="circuit"/>

    <!-- Input types -->
    <g transform="translate(20, 160)">
      <text x="50" y="20" class="label">Measurement Types</text>
      <text x="10" y="40" class="text">" DC Voltage: 200mV - 1000V</text>
      <text x="10" y="55" class="text">" AC Voltage: 200mV - 750V</text>
      <text x="10" y="70" class="text">" DC Current: 200¼A - 10A</text>
      <text x="10" y="85" class="text">" AC Current: 200¼A - 10A</text>
      <text x="10" y="100" class="text">" Resistance: 200© - 200M©</text>

      <text x="250" y="20" class="label">Features</text>
      <text x="210" y="40" class="text">" Auto-ranging capability</text>
      <text x="210" y="55" class="text">" High input impedance</text>
      <text x="210" y="70" class="text">" Overload protection</text>
      <text x="210" y="85" class="text">" True RMS measurement</text>
      <text x="210" y="100" class="text">" Data logging capability</text>
    </g>
  </g>

  <!-- Electronic Voltmeter (VTVM) -->
  <g transform="translate(50, 450)">
    <text x="200" y="20" class="subtitle">Electronic Voltmeter (VTVM)</text>

    <!-- Input stage -->
    <rect x="50" y="50" width="80" height="60" class="digital"/>
    <text x="90" y="75" class="text">High</text>
    <text x="90" y="90" class="text">Impedance</text>
    <text x="90" y="100" class="text">Amplifier</text>

    <!-- Range selector -->
    <rect x="160" y="50" width="80" height="60" class="digital"/>
    <text x="200" y="75" class="text">Range</text>
    <text x="200" y="90" class="text">Selector</text>

    <!-- Output meter -->
    <circle cx="320" cy="80" r="30" class="component"/>
    <line x1="320" y1="80" x2="340" y2="60" class="current"/>
    <text x="320" y="125" class="text">PMMC Meter</text>

    <!-- Power supply -->
    <rect x="160" y="130" width="80" height="30" class="digital"/>
    <text x="200" y="150" class="text">DC Supply</text>

    <!-- Connections -->
    <path d="M130,80 L160,80" class="circuit" marker-end="url(#arrowhead-green)"/>
    <path d="M240,80 L290,80" class="circuit" marker-end="url(#arrowhead-green)"/>
    <line x1="200" y1="110" x2="200" y2="130" class="circuit"/>

    <!-- Input -->
    <line x1="20" y1="80" x2="50" y2="80" class="voltage"/>
    <text x="10" y="75" class="label">V</text>
    <text x="15" y="95" class="text">Input</text>

    <!-- Advantages -->
    <text x="50" y="190" class="formula">Input Impedance: &gt; 10M©</text>
    <text x="50" y="205" class="text">" No loading effect on circuit</text>
    <text x="50" y="220" class="text">" Wide frequency response</text>
    <text x="50" y="235" class="text">" High sensitivity</text>
  </g>

  <!-- Digital Voltmeter Types -->
  <g transform="translate(450, 450)">
    <text x="200" y="20" class="subtitle">Digital Voltmeter Types</text>

    <!-- Integrating Type DVM -->
    <rect x="20" y="50" width="150" height="80" fill="#fff2e6" stroke="#e67e22"/>
    <text x="95" y="75" class="label">Integrating Type DVM</text>
    <text x="30" y="95" class="text">" Dual slope integration</text>
    <text x="30" y="107" class="text">" High noise rejection</text>
    <text x="30" y="119" class="text">" Slow but accurate</text>

    <!-- Successive Approximation DVM -->
    <rect x="200" y="50" width="150" height="80" fill="#f0f8ff" stroke="#3498db"/>
    <text x="275" y="75" class="label">Successive Approx. DVM</text>
    <text x="210" y="95" class="text">" Fast conversion</text>
    <text x="210" y="107" class="text">" Medium accuracy</text>
    <text x="210" y="119" class="text">" Binary search method</text>

    <!-- Comparison -->
    <rect x="20" y="150" width="330" height="100" fill="#f8f9fa" stroke="#dee2e6"/>
    <text x="185" y="175" class="label">Comparison</text>
    <text x="30" y="195" class="text">Integrating Type:</text>
    <text x="30" y="210" class="text">" Conversion time: 100ms - 1s</text>
    <text x="30" y="225" class="text">" Resolution: 4-6 digits</text>
    <text x="30" y="240" class="text">" Best for DC measurements</text>

    <text x="200" y="195" class="text">Successive Approximation:</text>
    <text x="200" y="210" class="text">" Conversion time: &lt; 100¼s</text>
    <text x="200" y="225" class="text">" Resolution: 3-4 digits</text>
    <text x="200" y="240" class="text">" Suitable for dynamic signals</text>
  </g>

  <!-- Clamp-on Meter and Wattmeter -->
  <g transform="translate(850, 450)">
    <text x="200" y="20" class="subtitle">Clamp-on Meter & Wattmeter</text>

    <!-- Clamp-on meter -->
    <g transform="translate(20, 50)">
      <text x="80" y="15" class="label">Clamp-on Ammeter</text>

      <!-- Clamp structure -->
      <path d="M20,30 Q10,20 20,10 L60,10 Q70,20 60,30" class="component" stroke-width="3"/>
      <path d="M20,70 Q10,80 20,90 L60,90 Q70,80 60,70" class="component" stroke-width="3"/>
      <line x1="20" y1="30" x2="20" y2="70" class="component" stroke-width="3"/>
      <line x1="60" y1="30" x2="60" y2="70" class="component" stroke-width="3"/>

      <!-- Current carrying conductor -->
      <circle cx="40" cy="50" r="8" fill="#f39c12" class="component"/>
      <text x="40" y="55" class="text">I</text>

      <!-- Secondary winding -->
      <g class="component">
        <path d="M25,40 Q20,35 25,30 Q30,25 25,20"/>
        <path d="M35,40 Q40,35 35,30 Q30,25 35,20"/>
        <path d="M45,40 Q50,35 45,30 Q40,25 45,20"/>
        <path d="M55,40 Q60,35 55,30 Q50,25 55,20"/>
      </g>

      <!-- Display -->
      <rect x="80" y="40" width="40" height="20" class="digital"/>
      <text x="100" y="55" class="text">Display</text>

      <text x="20" y="120" class="formula">I_primary = N_s × I_s / N_p</text>
      <text x="20" y="135" class="text">" Non-contact measurement</text>
      <text x="20" y="150" class="text">" Safety in high current circuits</text>
    </g>

    <!-- Electronic Wattmeter -->
    <g transform="translate(200, 50)">
      <text x="80" y="15" class="label">Electronic Wattmeter</text>

      <!-- Block diagram -->
      <rect x="20" y="30" width="60" height="30" class="digital"/>
      <text x="50" y="50" class="text">Multiplier</text>

      <rect x="100" y="30" width="60" height="30" class="digital"/>
      <text x="130" y="50" class="text">Integrator</text>

      <!-- Inputs -->
      <line x1="10" y1="35" x2="20" y2="35" class="voltage"/>
      <text x="5" y="30" class="text">V</text>
      <line x1="10" y1="55" x2="20" y2="55" class="current"/>
      <text x="5" y="60" class="text">I</text>

      <!-- Connections -->
      <path d="M80,45 L100,45" class="circuit" marker-end="url(#arrowhead-green)"/>

      <!-- Output -->
      <circle cx="180" cy="45" r="15" class="component"/>
      <text x="180" y="75" class="text">Power</text>

      <text x="20" y="90" class="formula">P = V × I × cos Æ</text>
      <text x="20" y="105" class="text">" True power measurement</text>
      <text x="20" y="120" class="text">" Wide frequency range</text>
      <text x="20" y="135" class="text">" High accuracy</text>
      <text x="20" y="150" class="text">" Digital display</text>
    </g>
  </g>

  <!-- Measurement Ranges and Extensions -->
  <g transform="translate(50, 750)">
    <text x="650" y="30" class="subtitle">Measurement Range Extensions</text>

    <!-- Voltmeter range extension -->
    <g transform="translate(50, 50)">
      <text x="150" y="20" class="label">Voltmeter Range Extension</text>

      <!-- Series resistor -->
      <line x1="50" y1="60" x2="100" y2="60" class="circuit"/>
      <rect x="100" y="55" width="30" height="10" class="component"/>
      <line x1="130" y1="60" x2="180" y2="60" class="circuit"/>

      <!-- Meter -->
      <circle cx="200" cy="60" r="20" class="component"/>
      <text x="200" y="65" class="text">V</text>

      <!-- Labels -->
      <text x="115" y="50" class="text">Rs</text>
      <text x="40" y="55" class="text">V</text>
      <text x="40" y="80" class="formula">Rs = Rm(n-1)</text>
      <text x="40" y="95" class="text">n = multiplication factor</text>
      <text x="40" y="110" class="text">Rm = meter resistance</text>
    </g>

    <!-- Ammeter range extension -->
    <g transform="translate(350, 50)">
      <text x="150" y="20" class="label">Ammeter Range Extension</text>

      <!-- Shunt resistor -->
      <line x1="50" y1="60" x2="100" y2="60" class="circuit"/>
      <line x1="100" y1="60" x2="100" y2="80" class="circuit"/>
      <rect x="95" y="80" width="10" height="20" class="component"/>
      <line x1="100" y1="100" x2="100" y2="120" class="circuit"/>
      <line x1="100" y1="120" x2="180" y2="120" class="circuit"/>
      <line x1="180" y1="120" x2="180" y2="60" class="circuit"/>

      <!-- Meter in parallel -->
      <line x1="100" y1="70" x2="140" y2="70" class="circuit"/>
      <circle cx="160" cy="70" r="15" class="component"/>
      <text x="160" y="75" class="text">A</text>
      <line x1="175" y1="70" x2="180" y2="70" class="circuit"/>

      <!-- Current arrows -->
      <path d="M60,50 L120,50" class="current"/>
      <text x="90" y="45" class="text">I</text>

      <!-- Labels -->
      <text x="105" y="90" class="text">Rsh</text>
      <text x="40" y="80" class="formula">Rsh = Rm/(n-1)</text>
      <text x="40" y="95" class="text">n = multiplication factor</text>
      <text x="40" y="110" class="text">Rm = meter resistance</text>
    </g>

    <!-- AC measurements -->
    <g transform="translate(700, 50)">
      <text x="150" y="20" class="label">AC Measurement Methods</text>

      <!-- Rectifier type -->
      <rect x="20" y="40" width="100" height="30" fill="#ffe6e6" stroke="#e74c3c"/>
      <text x="70" y="60" class="text">Rectifier Type</text>

      <!-- True RMS -->
      <rect x="150" y="40" width="100" height="30" fill="#e6f3ff" stroke="#3498db"/>
      <text x="200" y="60" class="text">True RMS Type</text>

      <!-- Peak detector -->
      <rect x="280" y="40" width="100" height="30" fill="#f0fff0" stroke="#27ae60"/>
      <text x="330" y="60" class="text">Peak Detector</text>

      <!-- Comparison -->
      <text x="20" y="90" class="text">Rectifier: Average responding</text>
      <text x="20" y="105" class="text">True RMS: Effective value</text>
      <text x="20" y="120" class="text">Peak: Maximum value</text>
    </g>

    <!-- Error sources -->
    <g transform="translate(1100, 50)">
      <text x="120" y="20" class="label">Common Error Sources</text>

      <rect x="20" y="35" width="200" height="100" fill="#fff5f5" stroke="#e74c3c"/>
      <text x="30" y="55" class="text">" Loading effects</text>
      <text x="30" y="70" class="text">" Temperature variations</text>
      <text x="30" y="85" class="text">" Frequency limitations</text>
      <text x="30" y="100" class="text">" Non-linearity</text>
      <text x="30" y="115" class="text">" Calibration drift</text>
      <text x="30" y="130" class="text">" Environmental effects</text>
    </g>
  </g>

  <!-- Key Advantages and Applications -->
  <g transform="translate(50, 950)">
    <text x="650" y="25" class="subtitle">Instrument Selection and Applications</text>

    <rect x="0" y="35" width="320" height="90" fill="#e8f6f3" stroke="#27ae60"/>
    <text x="10" y="55" class="label">PMMC (DC only)</text>
    <text x="10" y="75" class="text">" Precision laboratory measurements</text>
    <text x="10" y="90" class="text">" Panel meters and control systems</text>
    <text x="10" y="105" class="text">" Galvanometers and null detectors</text>
    <text x="10" y="120" class="text">" Current and voltage measurements</text>

    <rect x="340" y="35" width="320" height="90" fill="#fdf2e9" stroke="#e67e22"/>
    <text x="350" y="55" class="label">Moving Iron (AC/DC)</text>
    <text x="350" y="75" class="text">" Industrial switchboard meters</text>
    <text x="350" y="90" class="text">" Power system monitoring</text>
    <text x="350" y="105" class="text">" Portable test instruments</text>
    <text x="350" y="120" class="text">" Robust field applications</text>

    <rect x="680" y="35" width="320" height="90" fill="#e8f4fd" stroke="#3498db"/>
    <text x="690" y="55" class="label">Digital Multimeters</text>
    <text x="690" y="75" class="text">" Automatic test equipment</text>
    <text x="690" y="90" class="text">" Data acquisition systems</text>
    <text x="690" y="105" class="text">" Troubleshooting and maintenance</text>
    <text x="690" y="120" class="text">" Research and development</text>

    <rect x="1020" y="35" width="320" height="90" fill="#f4f6ff" stroke="#9b59b6"/>
    <text x="1030" y="55" class="label">Specialized Instruments</text>
    <text x="1030" y="75" class="text">" Power quality analyzers</text>
    <text x="1030" y="90" class="text">" Harmonic analyzers</text>
    <text x="1030" y="105" class="text">" Energy meters</text>
    <text x="1030" y="120" class="text">" Process control instruments</text>
  </g>

</svg>