<?xml version="1.0" encoding="UTF-8"?>
<svg xmlns="http://www.w3.org/2000/svg" viewBox="0 0 1400 1200">
  <defs>
    <style>
      .title { font: bold 24px Arial; text-anchor: middle; fill: #2c3e50; }
      .subtitle { font: bold 18px Arial; text-anchor: middle; fill: #34495e; }
      .label { font: 14px Arial; text-anchor: middle; fill: #2c3e50; }
      .formula { font: 12px Arial; text-anchor: middle; fill: #e74c3c; }
      .text { font: 11px Arial; fill: #2c3e50; }
      .circuit { stroke: #2c3e50; stroke-width: 2; fill: none; }
      .component { stroke: #2c3e50; stroke-width: 2; fill: white; }
      .wattmeter { stroke: #3498db; stroke-width: 2; fill: #e8f4fd; }
      .energy-meter { stroke: #27ae60; stroke-width: 2; fill: #e8f6f3; }
      .analog { stroke: #e67e22; stroke-width: 2; fill: #fdf2e9; }
      .digital { stroke: #9b59b6; stroke-width: 2; fill: #f4f6ff; }
      .multiplier { stroke: #e74c3c; stroke-width: 2; fill: #fff5f5; }
      .display { stroke: #f39c12; stroke-width: 2; fill: #fffef7; }
    </style>
    <marker id="arrow" markerWidth="10" markerHeight="7" refX="9" refY="3.5" orient="auto">
      <polygon points="0 0, 10 3.5, 0 7" fill="#2c3e50"/>
    </marker>
  </defs>

  <!-- Title -->
  <text x="700" y="30" class="title">Electronic Wattmeter and Energy Meter</text>
  <text x="700" y="55" class="subtitle">Power Measurement Instruments and Digital Energy Meters</text>

  <!-- Electronic Wattmeter -->
  <g transform="translate(50, 80)">
    <text x="650" y="20" class="subtitle">Electronic Wattmeter</text>

    <!-- Analog Electronic Wattmeter -->
    <g transform="translate(20, 40)">
      <text x="200" y="15" class="label">Analog Electronic Wattmeter</text>

      <rect x="0" y="25" width="400" height="180" class="analog"/>

      <!-- Block diagram -->
      <g transform="translate(20, 50)">
        <!-- Voltage input -->
        <rect x="10" y="10" width="60" height="30" class="component"/>
        <text x="40" y="30" class="text">Voltage</text>
        <text x="40" y="42" class="text">Attenuator</text>

        <!-- Current input via CT -->
        <rect x="10" y="60" width="60" height="30" class="component"/>
        <text x="40" y="80" class="text">Current</text>
        <text x="40" y="92" class="text">Transformer</text>

        <!-- Multiplier -->
        <circle cx="140" cy="50" r="25" class="multiplier"/>
        <text x="140" y="55" class="text">×</text>
        <text x="140" y="20" class="text">Multiplier</text>

        <!-- Low pass filter -->
        <rect x="190" y="35" width="60" height="30" class="component"/>
        <text x="220" y="50" class="text">Low Pass</text>
        <text x="220" y="62" class="text">Filter</text>

        <!-- Amplifier -->
        <path d="M270,40 L320,50 L270,60 Z" class="component"/>
        <text x="295" y="55" class="text">Amp</text>

        <!-- Display -->
        <rect x="340" y="35" width="40" height="30" class="display"/>
        <text x="360" y="55" class="text">Display</text>

        <!-- Connections -->
        <path d="M70,25 L115,25 L115,40" stroke="#2c3e50" stroke-width="2" marker-end="url(#arrow)"/>
        <path d="M70,75 L115,75 L115,60" stroke="#2c3e50" stroke-width="2" marker-end="url(#arrow)"/>
        <path d="M165,50 L190,50" stroke="#2c3e50" stroke-width="2" marker-end="url(#arrow)"/>
        <path d="M250,50 L270,50" stroke="#2c3e50" stroke-width="2" marker-end="url(#arrow)"/>
        <path d="M320,50 L340,50" stroke="#2c3e50" stroke-width="2" marker-end="url(#arrow)"/>

        <!-- Input labels -->
        <text x="40" y="5" class="text">V input</text>
        <text x="40" y="105" class="text">I input</text>
      </g>

      <text x="200" y="150" class="formula">Working Principle:</text>
      <text x="200" y="170" class="text">Voltage and current signals are multiplied electronically</text>
      <text x="200" y="185" class="text">to produce instantaneous power, then averaged</text>
      <text x="200" y="200" class="text">P = V × I × cos φ (average power)</text>
    </g>

    <!-- Digital Electronic Wattmeter -->
    <g transform="translate(440, 40)">
      <text x="200" y="15" class="label">Digital Electronic Wattmeter</text>

      <rect x="0" y="25" width="400" height="180" class="digital"/>

      <!-- Block diagram -->
      <g transform="translate(20, 50)">
        <!-- Voltage input -->
        <rect x="10" y="10" width="50" height="25" class="component"/>
        <text x="35" y="27" class="text">V Input</text>

        <!-- Current input -->
        <rect x="10" y="50" width="50" height="25" class="component"/>
        <text x="35" y="67" class="text">I Input</text>

        <!-- ADC 1 -->
        <rect x="80" y="10" width="40" height="25" class="component"/>
        <text x="100" y="27" class="text">ADC1</text>

        <!-- ADC 2 -->
        <rect x="80" y="50" width="40" height="25" class="component"/>
        <text x="100" y="67" class="text">ADC2</text>

        <!-- Microprocessor -->
        <rect x="140" y="25" width="60" height="40" class="component"/>
        <text x="170" y="45" class="text">μP</text>
        <text x="170" y="57" class="text">DSP</text>

        <!-- Memory -->
        <rect x="220" y="15" width="35" height="25" class="component"/>
        <text x="237" y="32" class="text">ROM</text>

        <!-- Display -->
        <rect x="220" y="50" width="60" height="30" class="display"/>
        <text x="250" y="70" class="text">LCD</text>

        <!-- Communication -->
        <rect x="300" y="25" width="50" height="40" class="component"/>
        <text x="325" y="45" class="text">Comm</text>
        <text x="325" y="57" class="text">Interface</text>

        <!-- Connections -->
        <path d="M60,22 L80,22" stroke="#2c3e50" stroke-width="2" marker-end="url(#arrow)"/>
        <path d="M60,62 L80,62" stroke="#2c3e50" stroke-width="2" marker-end="url(#arrow)"/>
        <path d="M120,22 L140,35" stroke="#2c3e50" stroke-width="2" marker-end="url(#arrow)"/>
        <path d="M120,62 L140,55" stroke="#2c3e50" stroke-width="2" marker-end="url(#arrow)"/>
        <path d="M200,35 L220,27" stroke="#2c3e50" stroke-width="2" marker-end="url(#arrow)"/>
        <path d="M200,55 L220,65" stroke="#2c3e50" stroke-width="2" marker-end="url(#arrow)"/>
        <path d="M200,45 L300,45" stroke="#2c3e50" stroke-width="2" marker-end="url(#arrow)"/>
      </g>

      <text x="200" y="150" class="formula">Digital Processing:</text>
      <text x="200" y="170" class="text">• Simultaneous sampling of V and I</text>
      <text x="200" y="185" class="text">• Digital multiplication and averaging</text>
      <text x="200" y="200" class="text">• Enhanced accuracy and features</text>
    </g>

    <!-- Wattmeter Features -->
    <g transform="translate(860, 40)">
      <text x="200" y="15" class="label">Electronic Wattmeter Features</text>

      <rect x="0" y="25" width="400" height="180" class="wattmeter"/>
      <text x="10" y="45" class="formula">Advantages over Conventional:</text>
      <text x="10" y="65" class="text">• Wide frequency range (DC to MHz)</text>
      <text x="10" y="80" class="text">• High accuracy (±0.1% to ±0.5%)</text>
      <text x="10" y="95" class="text">• No moving parts</text>
      <text x="10" y="110" class="text">• Linear scale</text>
      <text x="10" y="125" class="text">• Low power consumption</text>

      <text x="200" y="45" class="formula">Measurement Capabilities:</text>
      <text x="200" y="65" class="text">• Active power (W)</text>
      <text x="200" y="80" class="text">• Reactive power (VAR)</text>
      <text x="200" y="95" class="text">• Apparent power (VA)</text>
      <text x="200" y="110" class="text">• Power factor</text>
      <text x="200" y="125" class="text">• Harmonic analysis</text>

      <text x="10" y="145" class="formula">Applications:</text>
      <text x="10" y="165" class="text">• Power system monitoring</text>
      <text x="10" y="180" class="text">• Energy audit and management</text>
      <text x="200" y="165" class="text">• Laboratory measurements</text>
      <text x="200" y="180" class="text">• Industrial process control</text>
    </g>
  </g>

  <!-- Electronic Energy Meter -->
  <g transform="translate(50, 320)">
    <text x="650" y="20" class="subtitle">Electronic Energy Meter</text>

    <!-- Digital Energy Meter Block Diagram -->
    <g transform="translate(20, 40)">
      <text x="300" y="15" class="label">Digital Energy Meter Block Diagram</text>

      <rect x="0" y="25" width="600" height="200" class="energy-meter"/>

      <g transform="translate(30, 50)">
        <!-- Voltage input circuit -->
        <rect x="10" y="10" width="60" height="30" class="component"/>
        <text x="40" y="30" class="text">Voltage</text>
        <text x="40" y="42" class="text">Sensor</text>

        <!-- Current sensor -->
        <rect x="10" y="60" width="60" height="30" class="component"/>
        <text x="40" y="80" class="text">Current</text>
        <text x="40" y="92" class="text">Sensor</text>

        <!-- Signal conditioning -->
        <rect x="90" y="20" width="60" height="50" class="component"/>
        <text x="120" y="40" class="text">Signal</text>
        <text x="120" y="52" class="text">Conditioning</text>

        <!-- ADC -->
        <rect x="170" y="20" width="50" height="50" class="component"/>
        <text x="195" y="50" class="text">ADC</text>

        <!-- Microcontroller -->
        <rect x="240" y="10" width="80" height="60" class="component"/>
        <text x="280" y="35" class="text">Micro-</text>
        <text x="280" y="47" class="text">controller</text>
        <text x="280" y="59" class="text">DSP</text>

        <!-- Memory -->
        <rect x="340" y="10" width="50" height="30" class="component"/>
        <text x="365" y="30" class="text">EEPROM</text>

        <!-- RTC -->
        <rect x="340" y="50" width="50" height="30" class="component"/>
        <text x="365" y="70" class="text">RTC</text>

        <!-- Display -->
        <rect x="410" y="10" width="60" height="30" class="display"/>
        <text x="440" y="30" class="text">LCD Display</text>

        <!-- Communication -->
        <rect x="410" y="50" width="60" height="30" class="component"/>
        <text x="440" y="70" class="text">Comm Port</text>

        <!-- Pulse output -->
        <rect x="490" y="10" width="60" height="30" class="component"/>
        <text x="520" y="30" class="text">Pulse Out</text>

        <!-- Connections -->
        <path d="M70,25 L90,25" stroke="#2c3e50" stroke-width="2" marker-end="url(#arrow)"/>
        <path d="M70,75 L90,60" stroke="#2c3e50" stroke-width="2" marker-end="url(#arrow)"/>
        <path d="M150,45 L170,45" stroke="#2c3e50" stroke-width="2" marker-end="url(#arrow)"/>
        <path d="M220,45 L240,35" stroke="#2c3e50" stroke-width="2" marker-end="url(#arrow)"/>
        <path d="M320,25 L340,25" stroke="#2c3e50" stroke-width="2" marker-end="url(#arrow)"/>
        <path d="M320,55 L340,65" stroke="#2c3e50" stroke-width="2" marker-end="url(#arrow)"/>
        <path d="M320,35 L410,25" stroke="#2c3e50" stroke-width="2" marker-end="url(#arrow)"/>
        <path d="M320,45 L410,65" stroke="#2c3e50" stroke-width="2" marker-end="url(#arrow)"/>
        <path d="M390,25 L490,25" stroke="#2c3e50" stroke-width="2" marker-end="url(#arrow)"/>

        <!-- Power supply -->
        <rect x="200" y="100" width="100" height="30" class="component"/>
        <text x="250" y="120" class="text">Power Supply</text>
        <path d="M250,100 L280,70" stroke="#2c3e50" stroke-width="2" marker-end="url(#arrow)"/>
      </g>

      <text x="10" y="180" class="formula">Functions:</text>
      <text x="10" y="200" class="text">• Real-time energy calculation</text>
      <text x="10" y="215" class="text">• Tamper detection</text>
      <text x="150" y="200" class="text">• Load profiling</text>
      <text x="150" y="215" class="text">• Remote communication</text>
      <text x="300" y="200" class="text">• Time-of-use metering</text>
      <text x="300" y="215" class="text">• Power quality monitoring</text>
    </g>

    <!-- Energy Calculation -->
    <g transform="translate(640, 40)">
      <text x="200" y="15" class="label">Energy Calculation Methodology</text>

      <rect x="0" y="25" width="400" height="200" class="energy-meter"/>
      <text x="10" y="45" class="formula">Sampling and Calculation:</text>
      <text x="10" y="65" class="text">1. Simultaneous sampling of V and I</text>
      <text x="10" y="80" class="text">2. Digital multiplication: p(t) = v(t) × i(t)</text>
      <text x="10" y="95" class="text">3. Integration over time period T</text>
      <text x="10" y="110" class="formula">Energy = ∫₀ᵀ p(t) dt</text>

      <text x="10" y="130" class="formula">Digital Implementation:</text>
      <text x="10" y="150" class="formula">E = Σ(vₙ × iₙ) × Δt</text>
      <text x="10" y="170" class="text">Where: vₙ, iₙ are sampled values</text>
      <text x="10" y="185" class="text">Δt is sampling interval</text>

      <text x="200" y="65" class="formula">Accuracy Factors:</text>
      <text x="200" y="85" class="text">• Sampling rate (≥ 1kHz)</text>
      <text x="200" y="100" class="text">• ADC resolution (≥ 16 bits)</text>
      <text x="200" y="115" class="text">• Temperature compensation</text>
      <text x="200" y="130" class="text">• Calibration constants</text>

      <text x="200" y="150" class="formula">Standards Compliance:</text>
      <text x="200" y="170" class="text">• IEC 62053-21 (Class 1 accuracy)</text>
      <text x="200" y="185" class="text">• ANSI C12.20 (Class 0.2 accuracy)</text>
      <text x="200" y="200" class="text">• BIS 16444 (Indian standard)</text>
    </g>

    <!-- Smart Meter Features -->
    <g transform="translate(1060, 40)">
      <text x="150" y="15" class="label">Smart Meter Features</text>

      <rect x="0" y="25" width="300" height="200" class="digital"/>
      <text x="10" y="45" class="formula">Communication Features:</text>
      <text x="10" y="65" class="text">• GSM/GPRS connectivity</text>
      <text x="10" y="80" class="text">• Power line communication (PLC)</text>
      <text x="10" y="95" class="text">• RF mesh networking</text>
      <text x="10" y="110" class="text">• Optical port (IrDA)</text>

      <text x="150" y="45" class="formula">Advanced Features:</text>
      <text x="150" y="65" class="text">• Prepaid operation</text>
      <text x="150" y="80" class="text">• Load control</text>
      <text x="150" y="95" class="text">• Tamper detection</text>
      <text x="150" y="110" class="text">• Event logging</text>

      <text x="10" y="130" class="formula">Data Management:</text>
      <text x="10" y="150" class="text">• 35 days minimum data storage</text>
      <text x="10" y="165" class="text">• Load profile recording</text>
      <text x="10" y="180" class="text">• Billing data archive</text>

      <text x="10" y="200" class="formula">Benefits:</text>
      <text x="10" y="220" class="text">• Remote meter reading • Energy theft reduction • Improved billing accuracy</text>
    </g>
  </g>

  <!-- Comparison and Specifications -->
  <g transform="translate(50, 580)">
    <text x="650" y="20" class="subtitle">Specifications and Comparison</text>

    <!-- Wattmeter Specifications -->
    <g transform="translate(20, 40)">
      <text x="200" y="15" class="label">Electronic Wattmeter Specifications</text>

      <rect x="0" y="25" width="400" height="140" class="wattmeter"/>
      <text x="10" y="45" class="formula">Accuracy Classes:</text>
      <text x="10" y="65" class="text">• Class 0.1: ±0.1% (Laboratory standard)</text>
      <text x="10" y="80" class="text">• Class 0.2: ±0.2% (Precision measurement)</text>
      <text x="10" y="95" class="text">• Class 0.5: ±0.5% (Industrial application)</text>
      <text x="10" y="110" class="text">• Class 1.0: ±1.0% (General purpose)</text>

      <text x="200" y="45" class="formula">Operating Range:</text>
      <text x="200" y="65" class="text">• Voltage: 10V to 600V</text>
      <text x="200" y="80" class="text">• Current: 1A to 100A</text>
      <text x="200" y="95" class="text">• Frequency: DC to 1MHz</text>
      <text x="200" y="110" class="text">• Power factor: 0.1 to 1.0</text>

      <text x="10" y="130" class="formula">Environmental:</text>
      <text x="10" y="150" class="text">Operating temp: -10°C to +55°C, Humidity: 5% to 95% RH</text>
    </g>

    <!-- Energy Meter Specifications -->
    <g transform="translate(440, 40)">
      <text x="200" y="15" class="label">Electronic Energy Meter Specifications</text>

      <rect x="0" y="25" width="400" height="140" class="energy-meter"/>
      <text x="10" y="45" class="formula">Accuracy Classes (IEC 62053):</text>
      <text x="10" y="65" class="text">• Class 0.2S: ±0.2% (Revenue grade)</text>
      <text x="10" y="80" class="text">• Class 0.5S: ±0.5% (Commercial/Industrial)</text>
      <text x="10" y="95" class="text">• Class 1: ±1% (Residential)</text>
      <text x="10" y="110" class="text">• Class 2: ±2% (General purpose)</text>

      <text x="200" y="45" class="formula">Operating Parameters:</text>
      <text x="200" y="65" class="text">• Voltage: 80V to 300V</text>
      <text x="200" y="80" class="text">• Current: 1A to 100A</text>
      <text x="200" y="95" class="text">• Frequency: 45Hz to 65Hz</text>
      <text x="200" y="110" class="text">• Starting current: 0.004 Ib</text>

      <text x="10" y="130" class="formula">Communication:</text>
      <text x="10" y="150" class="text">RS-485, Ethernet, GSM/GPRS, PLC, RF mesh</text>
    </g>

    <!-- Comparison Table -->
    <g transform="translate(860, 40)">
      <text x="200" y="15" class="label">Analog vs Digital Comparison</text>

      <rect x="0" y="25" width="400" height="140" fill="#f8f9fa" stroke="#dee2e6"/>

      <!-- Table header -->
      <rect x="10" y="35" width="380" height="20" fill="#34495e"/>
      <text x="100" y="48" class="label" fill="white">Parameter</text>
      <text x="200" y="48" class="label" fill="white">Analog</text>
      <text x="300" y="48" class="label" fill="white">Digital</text>

      <!-- Accuracy -->
      <rect x="10" y="55" width="380" height="15" fill="#ecf0f1"/>
      <text x="20" y="67" class="text">Accuracy</text>
      <text x="170" y="67" class="text">±1-2%</text>
      <text x="270" y="67" class="text">±0.1-0.5%</text>

      <!-- Range -->
      <rect x="10" y="70" width="380" height="15" fill="#e8f4fd"/>
      <text x="20" y="82" class="text">Frequency Range</text>
      <text x="170" y="82" class="text">50/60 Hz</text>
      <text x="270" y="82" class="text">DC to MHz</text>

      <!-- Features -->
      <rect x="10" y="85" width="380" height="15" fill="#ecf0f1"/>
      <text x="20" y="97" class="text">Features</text>
      <text x="170" y="97" class="text">Basic</text>
      <text x="270" y="97" class="text">Advanced</text>

      <!-- Cost -->
      <rect x="10" y="100" width="380" height="15" fill="#e8f4fd"/>
      <text x="20" y="112" class="text">Cost</text>
      <text x="170" y="112" class="text">Low</text>
      <text x="270" y="112" class="text">Higher</text>

      <!-- Maintenance -->
      <rect x="10" y="115" width="380" height="15" fill="#ecf0f1"/>
      <text x="20" y="127" class="text">Maintenance</text>
      <text x="170" y="127" class="text">Regular</text>
      <text x="270" y="127" class="text">Minimal</text>

      <!-- Communication -->
      <rect x="10" y="130" width="380" height="15" fill="#e8f4fd"/>
      <text x="20" y="142" class="text">Communication</text>
      <text x="170" y="142" class="text">None</text>
      <text x="270" y="142" class="text">Multiple</text>
    </g>
  </g>

  <!-- Applications and Advantages -->
  <g transform="translate(50, 780)">
    <text x="650" y="20" class="subtitle">Applications and Industry Standards</text>

    <!-- Applications -->
    <g transform="translate(20, 40)">
      <text x="200" y="15" class="label">Applications</text>

      <rect x="0" y="25" width="400" height="120" fill="#e8f8f5" stroke="#16a085"/>
      <text x="10" y="45" class="formula">Electronic Wattmeters:</text>
      <text x="10" y="65" class="text">• Power system analysis</text>
      <text x="10" y="80" class="text">• Electric motor testing</text>
      <text x="10" y="95" class="text">• Laboratory measurements</text>
      <text x="10" y="110" class="text">• Energy audit studies</text>

      <text x="200" y="45" class="formula">Electronic Energy Meters:</text>
      <text x="200" y="65" class="text">• Utility billing systems</text>
      <text x="200" y="80" class="text">• Smart grid applications</text>
      <text x="200" y="95" class="text">• Industrial energy monitoring</text>
      <text x="200" y="110" class="text">• Residential metering</text>

      <text x="10" y="130" class="text">Both instruments support advanced power quality analysis and remote monitoring capabilities</text>
    </g>

    <!-- Standards -->
    <g transform="translate(440, 40)">
      <text x="200" y="15" class="label">Industry Standards</text>

      <rect x="0" y="25" width="400" height="120" fill="#fff5f5" stroke="#e74c3c"/>
      <text x="10" y="45" class="formula">International Standards:</text>
      <text x="10" y="65" class="text">• IEC 62053: Energy meter standards</text>
      <text x="10" y="80" class="text">• IEC 62054: Tariff and load control</text>
      <text x="10" y="95" class="text">• IEC 61000: EMC requirements</text>
      <text x="10" y="110" class="text">• IEEE C37.90: Power system devices</text>

      <text x="200" y="45" class="formula">National Standards:</text>
      <text x="200" y="65" class="text">• ANSI C12.20: Revenue metering</text>
      <text x="200" y="80" class="text">• BIS 16444: Smart meter specs</text>
      <text x="200" y="95" class="text">• CEA regulations (India)</text>
      <text x="200" y="110" class="text">• DLMS/COSEM protocols</text>

      <text x="10" y="130" class="text">Standards ensure accuracy, interoperability, and cybersecurity compliance</text>
    </g>

    <!-- Future Trends -->
    <g transform="translate(860, 40)">
      <text x="200" y="15" class="label">Future Trends</text>

      <rect x="0" y="25" width="400" height="120" fill="#f4f6ff" stroke="#9b59b6"/>
      <text x="10" y="45" class="formula">Technology Evolution:</text>
      <text x="10" y="65" class="text">• IoT integration and edge computing</text>
      <text x="10" y="80" class="text">• AI-based power quality analysis</text>
      <text x="10" y="95" class="text">• Blockchain for energy trading</text>
      <text x="10" y="110" class="text">• 5G communication capability</text>

      <text x="200" y="45" class="formula">Smart Grid Features:</text>
      <text x="200" y="65" class="text">• Bidirectional energy flow</text>
      <text x="200" y="80" class="text">• Real-time pricing</text>
      <text x="200" y="95" class="text">• Grid stability support</text>
      <text x="200" y="110" class="text">• Renewable integration</text>

      <text x="10" y="130" class="text">Focus on cybersecurity, interoperability, and sustainable energy management</text>
    </g>
  </g>

</svg>