<svg viewBox="0 0 1200 800" xmlns="http://www.w3.org/2000/svg">
  <defs>
    <style>
      .title-text { font-family: Arial, sans-serif; font-size: 20px; font-weight: bold; fill: #2c3e50; }
      .class-title { font-family: Arial, sans-serif; font-size: 12px; font-weight: bold; fill: #ffffff; }
      .exception-title { font-family: Arial, sans-serif; font-size: 11px; font-weight: bold; fill: #2c3e50; }
      .description-text { font-family: Arial, sans-serif; font-size: 10px; fill: #2c3e50; }
      .category-text { font-family: Arial, sans-serif; font-size: 9px; fill: #2c3e50; font-style: italic; }
      .inheritance-line { stroke: #34495e; stroke-width: 2; fill: none; marker-end: url(#arrowhead); }
      .throwable-color { fill: #2c3e50; }
      .error-color { fill: #e74c3c; }
      .exception-color { fill: #f39c12; }
      .runtime-color { fill: #3498db; }
      .checked-color { fill: #27ae60; }
      .exception-box { stroke: #34495e; stroke-width: 2; rx: 5; }
    </style>
    <marker id="arrowhead" markerWidth="8" markerHeight="8" refX="7" refY="3" orient="auto">
      <polygon points="0 0, 8 3, 0 6" fill="#34495e"/>
    </marker>
  </defs>
  
  <!-- Title -->
  <text x="600" y="30" text-anchor="middle" class="title-text">Java Exception Hierarchy - Complete Overview</text>
  
  <!-- Root: Throwable -->
  <rect x="500" y="60" width="200" height="50" class="throwable-color exception-box"/>
  <text x="600" y="80" text-anchor="middle" class="class-title">Throwable</text>
  <text x="600" y="95" text-anchor="middle" class="class-title" font-size="10">(Root of all exceptions)</text>
  
  <!-- Error Branch -->
  <rect x="200" y="150" width="180" height="60" class="error-color exception-box"/>
  <text x="290" y="175" text-anchor="middle" class="class-title">Error</text>
  <text x="210" y="190" class="description-text">System-level problems</text>
  <text x="210" y="205" class="description-text">Not recoverable</text>
  
  <!-- Exception Branch -->
  <rect x="600" y="150" width="180" height="60" class="exception-color exception-box"/>
  <text x="690" y="175" text-anchor="middle" class="class-title">Exception</text>
  <text x="610" y="190" class="description-text">Application-level problems</text>
  <text x="610" y="205" class="description-text">Can be handled</text>
  
  <!-- Inheritance lines from Throwable -->
  <line x1="550" y1="110" x2="290" y2="150" class="inheritance-line"/>
  <line x1="650" y1="110" x2="690" y2="150" class="inheritance-line"/>
  
  <!-- Error Subclasses -->
  <rect x="50" y="250" width="140" height="45" class="error-color exception-box"/>
  <text x="120" y="270" text-anchor="middle" class="exception-title">OutOfMemoryError</text>
  <text x="60" y="285" class="category-text">Heap exhaustion</text>
  
  <rect x="200" y="250" width="140" height="45" class="error-color exception-box"/>
  <text x="270" y="270" text-anchor="middle" class="exception-title">StackOverflowError</text>
  <text x="210" y="285" class="category-text">Stack exhaustion</text>
  
  <rect x="350" y="250" width="140" height="45" class="error-color exception-box"/>
  <text x="420" y="270" text-anchor="middle" class="exception-title">VirtualMachineError</text>
  <text x="360" y="285" class="category-text">JVM problems</text>
  
  <rect x="125" y="320" width="140" height="45" class="error-color exception-box"/>
  <text x="195" y="340" text-anchor="middle" class="exception-title">LinkageError</text>
  <text x="135" y="355" class="category-text">Class loading issues</text>
  
  <rect x="275" y="320" width="140" height="45" class="error-color exception-box"/>
  <text x="345" y="340" text-anchor="middle" class="exception-title">AssertionError</text>
  <text x="285" y="355" class="category-text">Assertion failures</text>
  
  <!-- Error inheritance lines -->
  <line x1="290" y1="210" x2="120" y2="250" class="inheritance-line"/>
  <line x1="290" y1="210" x2="270" y2="250" class="inheritance-line"/>
  <line x1="290" y1="210" x2="420" y2="250" class="inheritance-line"/>
  <line x1="290" y1="210" x2="195" y2="320" class="inheritance-line"/>
  <line x1="290" y1="210" x2="345" y2="320" class="inheritance-line"/>
  
  <!-- RuntimeException Branch -->
  <rect x="520" y="250" width="160" height="60" class="runtime-color exception-box"/>
  <text x="600" y="270" text-anchor="middle" class="class-title">RuntimeException</text>
  <text x="530" y="285" class="description-text">Unchecked exceptions</text>
  <text x="530" y="300" class="description-text">Programming errors</text>
  
  <!-- Checked Exceptions Branch -->
  <rect x="720" y="250" width="160" height="60" class="checked-color exception-box"/>
  <text x="800" y="270" text-anchor="middle" class="class-title">Checked Exceptions</text>
  <text x="730" y="285" class="description-text">Must be handled</text>
  <text x="730" y="300" class="description-text">Compile-time check</text>
  
  <!-- Exception inheritance lines -->
  <line x1="690" y1="210" x2="600" y2="250" class="inheritance-line"/>
  <line x1="690" y1="210" x2="800" y2="250" class="inheritance-line"/>
  
  <!-- Runtime Exception Subclasses -->
  <rect x="420" y="340" width="120" height="40" class="runtime-color exception-box"/>
  <text x="480" y="360" text-anchor="middle" class="exception-title">NullPointerException</text>
  <text x="430" y="375" class="category-text">Null reference access</text>
  
  <rect x="550" y="340" width="120" height="40" class="runtime-color exception-box"/>
  <text x="610" y="360" text-anchor="middle" class="exception-title">ArrayIndexOutOfBounds</text>
  <text x="560" y="375" class="category-text">Invalid array index</text>
  
  <rect x="680" y="340" width="120" height="40" class="runtime-color exception-box"/>
  <text x="740" y="360" text-anchor="middle" class="exception-title">IllegalArgumentException</text>
  <text x="690" y="375" class="category-text">Invalid method args</text>
  
  <rect x="450" y="390" width="120" height="40" class="runtime-color exception-box"/>
  <text x="510" y="410" text-anchor="middle" class="exception-title">ClassCastException</text>
  <text x="460" y="425" class="category-text">Invalid type casting</text>
  
  <rect x="580" y="390" width="120" height="40" class="runtime-color exception-box"/>
  <text x="640" y="410" text-anchor="middle" class="exception-title">NumberFormatException</text>
  <text x="590" y="425" class="category-text">String to number</text>
  
  <rect x="710" y="390" width="120" height="40" class="runtime-color exception-box"/>
  <text x="770" y="410" text-anchor="middle" class="exception-title">UnsupportedOperation</text>
  <text x="720" y="425" class="category-text">Operation not allowed</text>
  
  <!-- Runtime exception inheritance lines -->
  <line x1="600" y1="310" x2="480" y2="340" class="inheritance-line"/>
  <line x1="600" y1="310" x2="610" y2="340" class="inheritance-line"/>
  <line x1="600" y1="310" x2="740" y2="340" class="inheritance-line"/>
  <line x1="600" y1="310" x2="510" y2="390" class="inheritance-line"/>
  <line x1="600" y1="310" x2="640" y2="390" class="inheritance-line"/>
  <line x1="600" y1="310" x2="770" y2="390" class="inheritance-line"/>
  
  <!-- Checked Exception Subclasses -->
  <rect x="840" y="340" width="120" height="40" class="checked-color exception-box"/>
  <text x="900" y="360" text-anchor="middle" class="exception-title">IOException</text>
  <text x="850" y="375" class="category-text">Input/Output operations</text>
  
  <rect x="970" y="340" width="120" height="40" class="checked-color exception-box"/>
  <text x="1030" y="360" text-anchor="middle" class="exception-title">SQLException</text>
  <text x="980" y="375" class="category-text">Database operations</text>
  
  <rect x="840" y="390" width="120" height="40" class="checked-color exception-box"/>
  <text x="900" y="410" text-anchor="middle" class="exception-title">ClassNotFoundException</text>
  <text x="850" y="425" class="category-text">Class loading failure</text>
  
  <rect x="970" y="390" width="120" height="40" class="checked-color exception-box"/>
  <text x="1030" y="410" text-anchor="middle" class="exception-title">ParseException</text>
  <text x="980" y="425" class="category-text">String parsing errors</text>
  
  <rect x="905" y="440" width="120" height="40" class="checked-color exception-box"/>
  <text x="965" y="460" text-anchor="middle" class="exception-title">InterruptedException</text>
  <text x="915" y="475" class="category-text">Thread interruption</text>
  
  <!-- Checked exception inheritance lines -->
  <line x1="800" y1="310" x2="900" y2="340" class="inheritance-line"/>
  <line x1="800" y1="310" x2="1030" y2="340" class="inheritance-line"/>
  <line x1="800" y1="310" x2="900" y2="390" class="inheritance-line"/>
  <line x1="800" y1="310" x2="1030" y2="390" class="inheritance-line"/>
  <line x1="800" y1="310" x2="965" y2="440" class="inheritance-line"/>
  
  <!-- Exception Categories Explanation -->
  <rect x="50" y="520" width="1100" height="120" fill="#f8f9fa" stroke="#dee2e6" stroke-width="2" rx="10"/>
  <text x="600" y="545" text-anchor="middle" class="title-text" font-size="16">Exception Categories &amp; Handling</text>
  
  <rect x="70" y="560" width="250" height="70" fill="#fdf2f2" stroke="#e74c3c" stroke-width="2" rx="5"/>
  <text x="195" y="580" text-anchor="middle" class="exception-title" fill="#e74c3c">Errors (Unchecked)</text>
  <text x="80" y="595" class="description-text">• System-level problems</text>
  <text x="80" y="610" class="description-text">• Cannot be recovered</text>
  <text x="80" y="625" class="description-text">• Don't catch these</text>
  
  <rect x="340" y="560" width="250" height="70" fill="#e8f4f8" stroke="#3498db" stroke-width="2" rx="5"/>
  <text x="465" y="580" text-anchor="middle" class="exception-title" fill="#3498db">Runtime Exceptions (Unchecked)</text>
  <text x="350" y="595" class="description-text">• Programming errors</text>
  <text x="350" y="610" class="description-text">• Optional to handle</text>
  <text x="350" y="625" class="description-text">• Fix root cause in code</text>
  
  <rect x="610" y="560" width="250" height="70" fill="#e8f5e9" stroke="#27ae60" stroke-width="2" rx="5"/>
  <text x="735" y="580" text-anchor="middle" class="exception-title" fill="#27ae60">Checked Exceptions</text>
  <text x="620" y="595" class="description-text">• Expected error conditions</text>
  <text x="620" y="610" class="description-text">• Must handle or declare</text>
  <text x="620" y="625" class="description-text">• Compile-time enforcement</text>
  
  <rect x="880" y="560" width="250" height="70" fill="#fff3e0" stroke="#f39c12" stroke-width="2" rx="5"/>
  <text x="1005" y="580" text-anchor="middle" class="exception-title" fill="#f39c12">Best Practices</text>
  <text x="890" y="595" class="description-text">• Catch specific exceptions</text>
  <text x="890" y="610" class="description-text">• Clean up resources (finally)</text>
  <text x="890" y="625" class="description-text">• Don't ignore exceptions</text>
  
  <!-- Exception Handling Examples -->
  <rect x="50" y="660" width="1100" height="120" fill="#f8f9fa" stroke="#dee2e6" stroke-width="2" rx="10"/>
  <text x="600" y="685" text-anchor="middle" class="title-text" font-size="16">Exception Handling Code Examples</text>
  
  <rect x="70" y="700" width="340" height="70" fill="#ffffff" stroke="#bdc3c7" stroke-width="1" rx="5"/>
  <text x="240" y="715" text-anchor="middle" class="exception-title">Try-Catch-Finally</text>
  <text x="80" y="730" class="description-text" font-family="Courier New" font-size="9">try {</text>
  <text x="80" y="745" class="description-text" font-family="Courier New" font-size="9">    // risky code</text>
  <text x="80" y="760" class="description-text" font-family="Courier New" font-size="9">} catch (IOException e) { /* handle */ }</text>
  
  <rect x="430" y="700" width="340" height="70" fill="#ffffff" stroke="#bdc3c7" stroke-width="1" rx="5"/>
  <text x="600" y="715" text-anchor="middle" class="exception-title">Multiple Catch Blocks</text>
  <text x="440" y="730" class="description-text" font-family="Courier New" font-size="9">try { /* code */ }</text>
  <text x="440" y="745" class="description-text" font-family="Courier New" font-size="9">catch (FileNotFoundException e) { /* specific */ }</text>
  <text x="440" y="760" class="description-text" font-family="Courier New" font-size="9">catch (IOException e) { /* general */ }</text>
  
  <rect x="790" y="700" width="340" height="70" fill="#ffffff" stroke="#bdc3c7" stroke-width="1" rx="5"/>
  <text x="960" y="715" text-anchor="middle" class="exception-title">Try-with-Resources</text>
  <text x="800" y="730" class="description-text" font-family="Courier New" font-size="9">try (FileReader fr = new FileReader("file")) {</text>
  <text x="800" y="745" class="description-text" font-family="Courier New" font-size="9">    // use resource</text>
  <text x="800" y="760" class="description-text" font-family="Courier New" font-size="9">} // automatically closed</text>
</svg>