<svg viewBox="0 0 1000 650" xmlns="http://www.w3.org/2000/svg">
  <defs>
    <style>
      .title-text { font-family: Arial, sans-serif; font-size: 18px; font-weight: bold; fill: #2c3e50; }
      .section-title { font-family: Arial, sans-serif; font-size: 14px; font-weight: bold; fill: #2c3e50; }
      .generation-text { font-family: Arial, sans-serif; font-size: 12px; font-weight: bold; fill: #ffffff; }
      .object-text { font-family: Arial, sans-serif; font-size: 10px; fill: #2c3e50; }
      .process-text { font-family: Arial, sans-serif; font-size: 11px; fill: #2c3e50; }
      .arrow { stroke: #e74c3c; stroke-width: 3; fill: none; marker-end: url(#arrowhead); }
      .gc-arrow { stroke: #27ae60; stroke-width: 2; fill: none; marker-end: url(#greenarrow); }
      .memory-area { stroke: #34495e; stroke-width: 2; rx: 8; }
      .object-box { stroke: #7f8c8d; stroke-width: 1; rx: 3; }
      .step-box { stroke: #3498db; stroke-width: 2; rx: 5; }
    </style>
    <marker id="arrowhead" markerWidth="10" markerHeight="10" refX="8" refY="3" orient="auto">
      <polygon points="0 0, 10 3, 0 6" fill="#e74c3c"/>
    </marker>
    <marker id="greenarrow" markerWidth="8" markerHeight="8" refX="7" refY="3" orient="auto">
      <polygon points="0 0, 8 3, 0 6" fill="#27ae60"/>
    </marker>
  </defs>
  
  <!-- Title -->
  <text x="500" y="25" text-anchor="middle" class="title-text">Java Garbage Collection Process &amp; Memory Management</text>
  
  <!-- Memory Areas Section -->
  <text x="50" y="60" class="section-title">JVM Memory Areas</text>
  
  <!-- Young Generation -->
  <rect x="50" y="80" width="280" height="120" fill="#3498db" class="memory-area"/>
  <text x="190" y="105" text-anchor="middle" class="generation-text">Young Generation</text>
  
  <!-- Eden Space -->
  <rect x="70" y="115" width="80" height="40" fill="#e8f4f8" class="object-box"/>
  <text x="110" y="130" text-anchor="middle" class="object-text">Eden Space</text>
  <text x="110" y="145" text-anchor="middle" class="object-text">New Objects</text>
  
  <!-- Survivor Spaces -->
  <rect x="160" y="115" width="60" height="40" fill="#ddeeff" class="object-box"/>
  <text x="190" y="130" text-anchor="middle" class="object-text">Survivor 0</text>
  <text x="190" y="145" text-anchor="middle" class="object-text">(S0)</text>
  
  <rect x="230" y="115" width="60" height="40" fill="#ddeeff" class="object-box"/>
  <text x="260" y="130" text-anchor="middle" class="object-text">Survivor 1</text>
  <text x="260" y="145" text-anchor="middle" class="object-text">(S1)</text>
  
  <text x="190" y="185" text-anchor="middle" class="process-text">Minor GC occurs here frequently</text>
  
  <!-- Old Generation -->
  <rect x="370" y="80" width="200" height="120" fill="#e67e22" class="memory-area"/>
  <text x="470" y="105" text-anchor="middle" class="generation-text">Old Generation (Tenured)</text>
  <text x="470" y="130" text-anchor="middle" class="object-text">Long-lived objects</text>
  <text x="470" y="145" text-anchor="middle" class="object-text">Promoted from Young Gen</text>
  <text x="470" y="160" text-anchor="middle" class="object-text">Survived multiple Minor GCs</text>
  <text x="470" y="185" text-anchor="middle" class="process-text">Major GC occurs here less frequently</text>
  
  <!-- Metaspace -->
  <rect x="600" y="80" width="150" height="120" fill="#9b59b6" class="memory-area"/>
  <text x="675" y="105" text-anchor="middle" class="generation-text">Metaspace</text>
  <text x="675" y="130" text-anchor="middle" class="object-text">Class metadata</text>
  <text x="675" y="145" text-anchor="middle" class="object-text">Method information</text>
  <text x="675" y="160" text-anchor="middle" class="object-text">Constant pool</text>
  <text x="675" y="185" text-anchor="middle" class="process-text">Native memory (Java 8+)</text>
  
  <!-- Object Lifecycle -->
  <text x="50" y="240" class="section-title">Object Lifecycle &amp; Promotion</text>
  
  <!-- Step 1: Object Creation -->
  <rect x="50" y="260" width="120" height="60" fill="#e8f4f8" class="step-box"/>
  <text x="110" y="280" text-anchor="middle" class="process-text" font-weight="bold">1. Object Creation</text>
  <text x="110" y="295" text-anchor="middle" class="process-text">new Object()</text>
  <text x="110" y="310" text-anchor="middle" class="process-text">→ Eden Space</text>
  
  <!-- Step 2: Minor GC -->
  <rect x="200" y="260" width="120" height="60" fill="#f39c12" class="step-box"/>
  <text x="260" y="280" text-anchor="middle" class="process-text" font-weight="bold">2. Minor GC</text>
  <text x="260" y="295" text-anchor="middle" class="process-text">Eden full</text>
  <text x="260" y="310" text-anchor="middle" class="process-text">→ Survivor Space</text>
  
  <!-- Step 3: Aging -->
  <rect x="350" y="260" width="120" height="60" fill="#27ae60" class="step-box"/>
  <text x="410" y="280" text-anchor="middle" class="process-text" font-weight="bold">3. Aging Process</text>
  <text x="410" y="295" text-anchor="middle" class="process-text">Age counter++</text>
  <text x="410" y="310" text-anchor="middle" class="process-text">S0 ↔ S1</text>
  
  <!-- Step 4: Promotion -->
  <rect x="500" y="260" width="120" height="60" fill="#e74c3c" class="step-box"/>
  <text x="560" y="280" text-anchor="middle" class="process-text" font-weight="bold">4. Promotion</text>
  <text x="560" y="295" text-anchor="middle" class="process-text">Age ≥ Threshold</text>
  <text x="560" y="310" text-anchor="middle" class="process-text">→ Old Generation</text>
  
  <!-- Arrows showing flow -->
  <line x1="170" y1="290" x2="200" y2="290" class="arrow"/>
  <line x1="320" y1="290" x2="350" y2="290" class="arrow"/>
  <line x1="470" y1="290" x2="500" y2="290" class="arrow"/>
  
  <!-- GC Algorithms Section -->
  <text x="50" y="360" class="section-title">Garbage Collection Process Steps</text>
  
  <!-- Mark Phase -->
  <rect x="50" y="380" width="280" height="80" fill="#3498db" class="step-box"/>
  <text x="190" y="405" text-anchor="middle" class="generation-text">1. Mark Phase</text>
  <text x="60" y="425" class="process-text">• Identify all reachable objects</text>
  <text x="60" y="440" class="process-text">• Start from GC roots (stack, static variables)</text>
  <text x="60" y="455" class="process-text">• Mark all objects reachable from roots</text>
  
  <!-- Sweep Phase -->
  <rect x="360" y="380" width="280" height="80" fill="#e74c3c" class="step-box"/>
  <text x="500" y="405" text-anchor="middle" class="generation-text">2. Sweep Phase</text>
  <text x="370" y="425" class="process-text">• Remove unmarked (unreachable) objects</text>
  <text x="370" y="440" class="process-text">• Free memory occupied by garbage</text>
  <text x="370" y="455" class="process-text">• Memory becomes available for allocation</text>
  
  <!-- Compact Phase -->
  <rect x="670" y="380" width="280" height="80" fill="#27ae60" class="step-box"/>
  <text x="810" y="405" text-anchor="middle" class="generation-text">3. Compact Phase</text>
  <text x="680" y="425" class="process-text">• Defragment remaining objects</text>
  <text x="680" y="440" class="process-text">• Move objects to eliminate gaps</text>
  <text x="680" y="455" class="process-text">• Continuous free memory block</text>
  
  <!-- Memory State Visualization -->
  <text x="50" y="500" class="section-title">Memory State: Before &amp; After GC</text>
  
  <!-- Before GC -->
  <text x="150" y="530" text-anchor="middle" class="process-text" font-weight="bold">Before GC</text>
  <rect x="50" y="535" width="200" height="30" fill="#ecf0f1" stroke="#bdc3c7" stroke-width="1"/>
  
  <!-- Objects before GC -->
  <rect x="60" y="540" width="25" height="20" fill="#3498db"/>
  <rect x="90" y="540" width="25" height="20" fill="#e74c3c"/>
  <rect x="120" y="540" width="25" height="20" fill="#95a5a6"/> <!-- Garbage -->
  <rect x="150" y="540" width="25" height="20" fill="#3498db"/>
  <rect x="180" y="540" width="25" height="20" fill="#95a5a6"/> <!-- Garbage -->
  <rect x="210" y="540" width="25" height="20" fill="#e74c3c"/>
  
  <text x="72" y="555" text-anchor="middle" class="object-text" font-size="8">Obj1</text>
  <text x="102" y="555" text-anchor="middle" class="object-text" font-size="8">Obj2</text>
  <text x="132" y="555" text-anchor="middle" class="object-text" font-size="8">Garb</text>
  <text x="162" y="555" text-anchor="middle" class="object-text" font-size="8">Obj3</text>
  <text x="192" y="555" text-anchor="middle" class="object-text" font-size="8">Garb</text>
  <text x="222" y="555" text-anchor="middle" class="object-text" font-size="8">Obj4</text>
  
  <!-- Arrow -->
  <line x1="270" y1="550" x2="320" y2="550" class="gc-arrow"/>
  <text x="295" y="545" text-anchor="middle" class="process-text">GC</text>
  
  <!-- After GC -->
  <text x="450" y="530" text-anchor="middle" class="process-text" font-weight="bold">After GC (Compacted)</text>
  <rect x="350" y="535" width="200" height="30" fill="#ecf0f1" stroke="#bdc3c7" stroke-width="1"/>
  
  <!-- Objects after GC -->
  <rect x="360" y="540" width="25" height="20" fill="#3498db"/>
  <rect x="390" y="540" width="25" height="20" fill="#e74c3c"/>
  <rect x="420" y="540" width="25" height="20" fill="#3498db"/>
  <rect x="450" y="540" width="25" height="20" fill="#e74c3c"/>
  <!-- Free space -->
  <rect x="480" y="540" width="65" height="20" fill="#d5dbdb" stroke="#bdc3c7" stroke-width="1" stroke-dasharray="2,2"/>
  
  <text x="372" y="555" text-anchor="middle" class="object-text" font-size="8">Obj1</text>
  <text x="402" y="555" text-anchor="middle" class="object-text" font-size="8">Obj2</text>
  <text x="432" y="555" text-anchor="middle" class="object-text" font-size="8">Obj3</text>
  <text x="462" y="555" text-anchor="middle" class="object-text" font-size="8">Obj4</text>
  <text x="512" y="555" text-anchor="middle" class="object-text" font-size="8">Free Space</text>
  
  <!-- Types of GC -->
  <rect x="600" y="500" width="350" height="130" fill="#f8f9fa" stroke="#bdc3c7" stroke-width="2" rx="10"/>
  <text x="775" y="525" text-anchor="middle" class="section-title">Types of Garbage Collection</text>
  
  <text x="620" y="545" class="process-text" font-weight="bold">Minor GC (Young Generation):</text>
  <text x="620" y="560" class="process-text">• Fast, frequent collections</text>
  <text x="620" y="575" class="process-text">• Only young generation objects</text>
  
  <text x="620" y="595" class="process-text" font-weight="bold">Major GC (Old Generation):</text>
  <text x="620" y="610" class="process-text">• Slower, less frequent</text>
  <text x="620" y="625" class="process-text">• Can cause "stop-the-world" pauses</text>
  
  <!-- Legend -->
  <rect x="50" y="585" width="500" height="45" fill="#f8f9fa" stroke="#bdc3c7" stroke-width="1" rx="5"/>
  <text x="300" y="605" text-anchor="middle" class="process-text" font-weight="bold">Legend</text>
  
  <rect x="70" y="615" width="15" height="10" fill="#3498db"/>
  <text x="90" y="625" class="object-text">Reachable Object</text>
  
  <rect x="200" y="615" width="15" height="10" fill="#95a5a6"/>
  <text x="220" y="625" class="object-text">Garbage (Unreachable)</text>
  
  <rect x="350" y="615" width="15" height="10" fill="#d5dbdb" stroke="#bdc3c7" stroke-width="1"/>
  <text x="370" y="625" class="object-text">Free Memory</text>
  
  <line x1="450" y1="620" x2="480" y2="620" class="gc-arrow"/>
  <text x="490" y="625" class="object-text">GC Process</text>
</svg>