<svg viewBox="0 0 1000 700" xmlns="http://www.w3.org/2000/svg">
  <defs>
    <style>
      .title-text { font-family: Arial, sans-serif; font-size: 18px; font-weight: bold; fill: #2c3e50; }
      .section-title { font-family: Arial, sans-serif; font-size: 14px; font-weight: bold; fill: #2c3e50; }
      .memory-text { font-family: Arial, sans-serif; font-size: 11px; fill: #ffffff; font-weight: bold; }
      .object-text { font-family: Arial, sans-serif; font-size: 10px; fill: #2c3e50; }
      .code-text { font-family: 'Courier New', monospace; font-size: 10px; fill: #2c3e50; }
      .pointer-arrow { stroke: #e74c3c; stroke-width: 2; fill: none; marker-end: url(#redArrow); }
      .creation-arrow { stroke: #27ae60; stroke-width: 2; fill: none; marker-end: url(#greenArrow); }
      .memory-area { stroke: #34495e; stroke-width: 2; rx: 8; }
      .string-object { stroke: #3498db; stroke-width: 1; rx: 4; }
    </style>
    <marker id="redArrow" markerWidth="8" markerHeight="8" refX="7" refY="3" orient="auto">
      <polygon points="0 0, 8 3, 0 6" fill="#e74c3c"/>
    </marker>
    <marker id="greenArrow" markerWidth="8" markerHeight="8" refX="7" refY="3" orient="auto">
      <polygon points="0 0, 8 3, 0 6" fill="#27ae60"/>
    </marker>
  </defs>
  
  <!-- Title -->
  <text x="500" y="25" text-anchor="middle" class="title-text">Java String Memory Management &amp; Immutability</text>
  
  <!-- String Pool Section -->
  <rect x="50" y="50" width="900" height="200" fill="#ecf0f1" stroke="#bdc3c7" stroke-width="2" rx="10"/>
  <text x="500" y="75" text-anchor="middle" class="section-title">String Pool (Heap Memory)</text>
  
  <!-- String Objects in Pool -->
  <rect x="80" y="90" width="120" height="40" fill="#3498db" class="string-object"/>
  <text x="140" y="105" text-anchor="middle" class="memory-text">String Pool</text>
  <text x="140" y="120" text-anchor="middle" class="object-text">"Hello"</text>
  
  <rect x="220" y="90" width="120" height="40" fill="#3498db" class="string-object"/>
  <text x="280" y="105" text-anchor="middle" class="memory-text">String Pool</text>
  <text x="280" y="120" text-anchor="middle" class="object-text">"World"</text>
  
  <rect x="360" y="90" width="120" height="40" fill="#3498db" class="string-object"/>
  <text x="420" y="105" text-anchor="middle" class="memory-text">String Pool</text>
  <text x="420" y="120" text-anchor="middle" class="object-text">"Java"</text>
  
  <rect x="500" y="90" width="120" height="40" fill="#e67e22" class="string-object"/>
  <text x="560" y="105" text-anchor="middle" class="memory-text">Heap (new)</text>
  <text x="560" y="120" text-anchor="middle" class="object-text">"Hello"</text>
  
  <!-- String Variables -->
  <rect x="100" y="160" width="60" height="30" fill="#95a5a6" class="string-object"/>
  <text x="130" y="180" text-anchor="middle" class="object-text">str1</text>
  
  <rect x="200" y="160" width="60" height="30" fill="#95a5a6" class="string-object"/>
  <text x="230" y="180" text-anchor="middle" class="object-text">str2</text>
  
  <rect x="300" y="160" width="60" height="30" fill="#95a5a6" class="string-object"/>
  <text x="330" y="180" text-anchor="middle" class="object-text">str3</text>
  
  <rect x="520" y="160" width="60" height="30" fill="#95a5a6" class="string-object"/>
  <text x="550" y="180" text-anchor="middle" class="object-text">str4</text>
  
  <!-- Pointer arrows -->
  <line x1="130" y1="160" x2="140" y2="130" class="pointer-arrow"/>
  <line x1="230" y1="160" x2="140" y2="130" class="pointer-arrow"/>
  <line x1="330" y1="160" x2="420" y2="130" class="pointer-arrow"/>
  <line x1="550" y1="160" x2="560" y2="130" class="pointer-arrow"/>
  
  <!-- Code Example -->
  <rect x="650" y="90" width="280" height="140" fill="#f8f9fa" stroke="#bdc3c7" stroke-width="1" rx="5"/>
  <text x="790" y="115" text-anchor="middle" class="section-title">Code Example</text>
  <text x="670" y="135" class="code-text">String str1 = "Hello";     // Pool</text>
  <text x="670" y="150" class="code-text">String str2 = "Hello";     // Same pool object</text>
  <text x="670" y="165" class="code-text">String str3 = "Java";      // New pool object</text>
  <text x="670" y="180" class="code-text">String str4 = new String("Hello"); // Heap</text>
  <text x="670" y="195" class="code-text"></text>
  <text x="670" y="210" class="code-text">System.out.println(str1 == str2); // true</text>
  <text x="670" y="225" class="code-text">System.out.println(str1 == str4); // false</text>
  
  <!-- String Immutability Demonstration -->
  <text x="50" y="290" class="section-title">String Immutability Demonstration</text>
  
  <!-- Step 1: Initial String -->
  <rect x="50" y="310" width="180" height="100" fill="#e8f4f8" stroke="#3498db" stroke-width="2" rx="5"/>
  <text x="140" y="335" text-anchor="middle" class="section-title">Step 1: Initial</text>
  <rect x="70" y="345" width="80" height="25" fill="#3498db" class="string-object"/>
  <text x="110" y="362" text-anchor="middle" class="memory-text">"Hello"</text>
  <rect x="90" y="380" width="40" height="20" fill="#95a5a6" class="string-object"/>
  <text x="110" y="393" text-anchor="middle" class="object-text">str</text>
  <line x1="110" y1="380" x2="110" y2="370" class="pointer-arrow"/>
  <text x="160" y="393" class="code-text">str = "Hello";</text>
  
  <!-- Step 2: Concatenation -->
  <rect x="260" y="310" width="180" height="100" fill="#fff3cd" stroke="#f39c12" stroke-width="2" rx="5"/>
  <text x="350" y="335" text-anchor="middle" class="section-title">Step 2: Concatenation</text>
  <rect x="270" y="345" width="60" height="25" fill="#3498db" class="string-object"/>
  <text x="300" y="362" text-anchor="middle" class="memory-text">"Hello"</text>
  <rect x="350" y="345" width="80" height="25" fill="#e67e22" class="string-object"/>
  <text x="390" y="362" text-anchor="middle" class="memory-text">"HelloWorld"</text>
  <rect x="310" y="380" width="40" height="20" fill="#95a5a6" class="string-object"/>
  <text x="330" y="393" text-anchor="middle" class="object-text">str</text>
  <line x1="330" y1="380" x2="390" y2="370" class="creation-arrow"/>
  <text x="280" y="405" class="code-text">str = str + "World";</text>
  
  <!-- Step 3: Result -->
  <rect x="470" y="310" width="180" height="100" fill="#d4edda" stroke="#27ae60" stroke-width="2" rx="5"/>
  <text x="560" y="335" text-anchor="middle" class="section-title">Step 3: Result</text>
  <rect x="480" y="345" width="60" height="25" fill="#95a5a6" class="string-object"/>
  <text x="510" y="362" text-anchor="middle" class="object-text">"Hello"</text>
  <text x="520" y="355" class="object-text" font-size="8">Unreferenced</text>
  <rect x="560" y="345" width="80" height="25" fill="#e67e22" class="string-object"/>
  <text x="600" y="362" text-anchor="middle" class="memory-text">"HelloWorld"</text>
  <rect x="580" y="380" width="40" height="20" fill="#95a5a6" class="string-object"/>
  <text x="600" y="393" text-anchor="middle" class="object-text">str</text>
  <line x1="600" y1="380" x2="600" y2="370" class="pointer-arrow"/>
  <text x="490" y="405" class="object-text">Original "Hello" eligible for GC</text>
  
  <!-- StringBuilder vs String -->
  <text x="50" y="450" class="section-title">StringBuilder vs String Performance</text>
  
  <!-- String Concatenation -->
  <rect x="50" y="470" width="280" height="180" fill="#f8d7da" stroke="#dc3545" stroke-width="2" rx="5"/>
  <text x="190" y="495" text-anchor="middle" class="section-title">String Concatenation (Inefficient)</text>
  
  <text x="70" y="515" class="code-text">String result = "";</text>
  <text x="70" y="530" class="code-text">for(int i = 0; i &lt; 3; i++) {</text>
  <text x="70" y="545" class="code-text">    result = result + i; // Creates new objects</text>
  <text x="70" y="560" class="code-text">}</text>
  
  <!-- Memory objects created -->
  <rect x="70" y="580" width="40" height="20" fill="#e67e22" class="string-object"/>
  <text x="90" y="593" text-anchor="middle" class="object-text">""</text>
  
  <rect x="120" y="580" width="40" height="20" fill="#e67e22" class="string-object"/>
  <text x="140" y="593" text-anchor="middle" class="object-text">"0"</text>
  
  <rect x="170" y="580" width="40" height="20" fill="#e67e22" class="string-object"/>
  <text x="190" y="593" text-anchor="middle" class="object-text">"01"</text>
  
  <rect x="220" y="580" width="50" height="20" fill="#e67e22" class="string-object"/>
  <text x="245" y="593" text-anchor="middle" class="object-text">"012"</text>
  
  <text x="190" y="620" text-anchor="middle" class="object-text" font-weight="bold">4 String objects created!</text>
  <text x="190" y="635" text-anchor="middle" class="object-text">O(n²) time complexity</text>
  
  <!-- StringBuilder -->
  <rect x="370" y="470" width="280" height="180" fill="#d4edda" stroke="#28a745" stroke-width="2" rx="5"/>
  <text x="510" y="495" text-anchor="middle" class="section-title">StringBuilder (Efficient)</text>
  
  <text x="390" y="515" class="code-text">StringBuilder sb = new StringBuilder();</text>
  <text x="390" y="530" class="code-text">for(int i = 0; i &lt; 3; i++) {</text>
  <text x="390" y="545" class="code-text">    sb.append(i); // Modifies internal buffer</text>
  <text x="390" y="560" class="code-text">}</text>
  <text x="390" y="575" class="code-text">String result = sb.toString();</text>
  
  <!-- StringBuilder internal buffer -->
  <rect x="390" y="590" width="200" height="30" fill="#27ae60" class="string-object"/>
  <text x="490" y="610" text-anchor="middle" class="memory-text">StringBuilder Buffer: "012"</text>
  
  <text x="510" y="635" text-anchor="middle" class="object-text" font-weight="bold">1 StringBuilder + 1 final String</text>
  <text x="510" y="650" text-anchor="middle" class="object-text">O(n) time complexity</text>
  
  <!-- Comparison Table -->
  <rect x="700" y="470" width="250" height="180" fill="#f8f9fa" stroke="#6c757d" stroke-width="1" rx="5"/>
  <text x="825" y="495" text-anchor="middle" class="section-title">Performance Comparison</text>
  
  <text x="720" y="520" class="code-text" font-weight="bold">Operation</text>
  <text x="820" y="520" class="code-text" font-weight="bold">String</text>
  <text x="890" y="520" class="code-text" font-weight="bold">StringBuilder</text>
  
  <rect x="710" y="525" width="230" height="1" fill="#6c757d"/>
  
  <text x="720" y="540" class="code-text">Creation</text>
  <text x="820" y="540" class="code-text">Fast</text>
  <text x="890" y="540" class="code-text">Fast</text>
  
  <text x="720" y="555" class="code-text">Append</text>
  <text x="820" y="555" class="code-text">O(n)</text>
  <text x="890" y="555" class="code-text">O(1)*</text>
  
  <text x="720" y="570" class="code-text">Memory</text>
  <text x="820" y="570" class="code-text">High</text>
  <text x="890" y="570" class="code-text">Low</text>
  
  <text x="720" y="585" class="code-text">Thread Safe</text>
  <text x="820" y="585" class="code-text">Yes</text>
  <text x="890" y="585" class="code-text">No</text>
  
  <text x="720" y="600" class="code-text">Immutable</text>
  <text x="820" y="600" class="code-text">Yes</text>
  <text x="890" y="600" class="code-text">No</text>
  
  <text x="720" y="620" class="code-text">Best for</text>
  <text x="820" y="620" class="code-text">Few ops</text>
  <text x="890" y="620" class="code-text">Many ops</text>
  
  <text x="825" y="640" text-anchor="middle" class="object-text" font-size="9">* Amortized constant time</text>
</svg>