<svg width="1200" height="1000" xmlns="http://www.w3.org/2000/svg">
  <defs>
    <linearGradient id="headerGrad" x1="0%" y1="0%" x2="100%" y2="0%">
      <stop offset="0%" style="stop-color:#2563eb;stop-opacity:1" />
      <stop offset="100%" style="stop-color:#1d4ed8;stop-opacity:1" />
    </linearGradient>
    <linearGradient id="andGrad" x1="0%" y1="0%" x2="100%" y2="0%">
      <stop offset="0%" style="stop-color:#059669;stop-opacity:1" />
      <stop offset="100%" style="stop-color:#047857;stop-opacity:1" />
    </linearGradient>
    <linearGradient id="orGrad" x1="0%" y1="0%" x2="100%" y2="0%">
      <stop offset="0%" style="stop-color:#dc2626;stop-opacity:1" />
      <stop offset="100%" style="stop-color:#b91c1c;stop-opacity:1" />
    </linearGradient>
    <linearGradient id="notGrad" x1="0%" y1="0%" x2="100%" y2="0%">
      <stop offset="0%" style="stop-color:#9333ea;stop-opacity:1" />
      <stop offset="100%" style="stop-color:#7c3aed;stop-opacity:1" />
    </linearGradient>
    <linearGradient id="nandGrad" x1="0%" y1="0%" x2="100%" y2="0%">
      <stop offset="0%" style="stop-color:#ea580c;stop-opacity:1" />
      <stop offset="100%" style="stop-color:#dc2626;stop-opacity:1" />
    </linearGradient>
    <linearGradient id="norGrad" x1="0%" y1="0%" x2="100%" y2="0%">
      <stop offset="0%" style="stop-color:#0891b2;stop-opacity:1" />
      <stop offset="100%" style="stop-color:#0e7490;stop-opacity:1" />
    </linearGradient>
    <linearGradient id="xorGrad" x1="0%" y1="0%" x2="100%" y2="0%">
      <stop offset="0%" style="stop-color:#65a30d;stop-opacity:1" />
      <stop offset="100%" style="stop-color:#4d7c0f;stop-opacity:1" />
    </linearGradient>
    <linearGradient id="xnorGrad" x1="0%" y1="0%" x2="100%" y2="0%">
      <stop offset="0%" style="stop-color:#be185d;stop-opacity:1" />
      <stop offset="100%" style="stop-color:#9d174d;stop-opacity:1" />
    </linearGradient>
  </defs>

  <!-- Background -->
  <rect width="1200" height="1000" fill="#f8fafc"/>

  <!-- Title -->
  <rect x="0" y="0" width="1200" height="60" fill="url(#headerGrad)"/>
  <text x="600" y="35" text-anchor="middle" fill="white" font-family="Arial, sans-serif" font-size="24" font-weight="bold">Basic Logic Gates with Symbols and Truth Tables</text>

  <!-- AND Gate -->
  <g transform="translate(50, 80)">
    <rect x="0" y="0" width="350" height="220" fill="url(#andGrad)" rx="8"/>
    <text x="175" y="20" text-anchor="middle" fill="white" font-family="Arial, sans-serif" font-size="16" font-weight="bold">AND GATE</text>

    <!-- AND Gate Symbol -->
    <g transform="translate(20, 35)">
      <path d="M 0 20 L 40 20 Q 80 20 80 50 Q 80 80 40 80 L 0 80 Z" fill="white" stroke="#047857" stroke-width="2"/>
      <line x1="-15" y1="35" x2="0" y2="35" stroke="white" stroke-width="2"/>
      <line x1="-15" y1="65" x2="0" y2="65" stroke="white" stroke-width="2"/>
      <line x1="80" y1="50" x2="95" y2="50" stroke="white" stroke-width="2"/>
      <text x="-25" y="40" fill="white" font-family="Arial, sans-serif" font-size="12">A</text>
      <text x="-25" y="70" fill="white" font-family="Arial, sans-serif" font-size="12">B</text>
      <text x="100" y="55" fill="white" font-family="Arial, sans-serif" font-size="12">Y</text>
    </g>

    <!-- Truth Table -->
    <g transform="translate(150, 40)">
      <rect x="0" y="0" width="120" height="100" fill="white" stroke="#047857" stroke-width="1"/>
      <text x="60" y="15" text-anchor="middle" fill="#047857" font-family="Arial, sans-serif" font-size="12" font-weight="bold">Truth Table</text>
      <line x1="0" y1="20" x2="120" y2="20" stroke="#047857" stroke-width="1"/>
      <text x="20" y="35" text-anchor="middle" fill="#047857" font-family="Arial, sans-serif" font-size="11" font-weight="bold">A</text>
      <text x="50" y="35" text-anchor="middle" fill="#047857" font-family="Arial, sans-serif" font-size="11" font-weight="bold">B</text>
      <text x="90" y="35" text-anchor="middle" fill="#047857" font-family="Arial, sans-serif" font-size="11" font-weight="bold">Y=A·B</text>
      <line x1="0" y1="40" x2="120" y2="40" stroke="#047857" stroke-width="1"/>
      <text x="20" y="55" text-anchor="middle" fill="#047857" font-family="monospace" font-size="11">0</text>
      <text x="50" y="55" text-anchor="middle" fill="#047857" font-family="monospace" font-size="11">0</text>
      <text x="90" y="55" text-anchor="middle" fill="#047857" font-family="monospace" font-size="11">0</text>
      <text x="20" y="70" text-anchor="middle" fill="#047857" font-family="monospace" font-size="11">0</text>
      <text x="50" y="70" text-anchor="middle" fill="#047857" font-family="monospace" font-size="11">1</text>
      <text x="90" y="70" text-anchor="middle" fill="#047857" font-family="monospace" font-size="11">0</text>
      <text x="20" y="85" text-anchor="middle" fill="#047857" font-family="monospace" font-size="11">1</text>
      <text x="50" y="85" text-anchor="middle" fill="#047857" font-family="monospace" font-size="11">0</text>
      <text x="90" y="85" text-anchor="middle" fill="#047857" font-family="monospace" font-size="11">0</text>
      <text x="20" y="100" text-anchor="middle" fill="#047857" font-family="monospace" font-size="11">1</text>
      <text x="50" y="100" text-anchor="middle" fill="#047857" font-family="monospace" font-size="11">1</text>
      <text x="90" y="100" text-anchor="middle" fill="#047857" font-family="monospace" font-size="11">1</text>
    </g>

    <text x="175" y="175" text-anchor="middle" fill="white" font-family="Arial, sans-serif" font-size="11">Output HIGH only when ALL inputs are HIGH</text>
    <text x="175" y="195" text-anchor="middle" fill="white" font-family="Arial, sans-serif" font-size="11">Boolean Expression: Y = A · B</text>
  </g>

  <!-- OR Gate -->
  <g transform="translate(450, 80)">
    <rect x="0" y="0" width="350" height="220" fill="url(#orGrad)" rx="8"/>
    <text x="175" y="20" text-anchor="middle" fill="white" font-family="Arial, sans-serif" font-size="16" font-weight="bold">OR GATE</text>

    <!-- OR Gate Symbol -->
    <g transform="translate(20, 35)">
      <path d="M 0 20 Q 20 20 30 35 Q 50 50 30 65 Q 20 80 0 80 Q 20 50 0 20" fill="white" stroke="#b91c1c" stroke-width="2"/>
      <path d="M 30 35 Q 70 35 80 50 Q 70 65 30 65" fill="white" stroke="#b91c1c" stroke-width="2"/>
      <line x1="-15" y1="35" x2="5" y2="35" stroke="white" stroke-width="2"/>
      <line x1="-15" y1="65" x2="5" y2="65" stroke="white" stroke-width="2"/>
      <line x1="80" y1="50" x2="95" y2="50" stroke="white" stroke-width="2"/>
      <text x="-25" y="40" fill="white" font-family="Arial, sans-serif" font-size="12">A</text>
      <text x="-25" y="70" fill="white" font-family="Arial, sans-serif" font-size="12">B</text>
      <text x="100" y="55" fill="white" font-family="Arial, sans-serif" font-size="12">Y</text>
    </g>

    <!-- Truth Table -->
    <g transform="translate(150, 40)">
      <rect x="0" y="0" width="120" height="100" fill="white" stroke="#b91c1c" stroke-width="1"/>
      <text x="60" y="15" text-anchor="middle" fill="#b91c1c" font-family="Arial, sans-serif" font-size="12" font-weight="bold">Truth Table</text>
      <line x1="0" y1="20" x2="120" y2="20" stroke="#b91c1c" stroke-width="1"/>
      <text x="20" y="35" text-anchor="middle" fill="#b91c1c" font-family="Arial, sans-serif" font-size="11" font-weight="bold">A</text>
      <text x="50" y="35" text-anchor="middle" fill="#b91c1c" font-family="Arial, sans-serif" font-size="11" font-weight="bold">B</text>
      <text x="90" y="35" text-anchor="middle" fill="#b91c1c" font-family="Arial, sans-serif" font-size="11" font-weight="bold">Y=A+B</text>
      <line x1="0" y1="40" x2="120" y2="40" stroke="#b91c1c" stroke-width="1"/>
      <text x="20" y="55" text-anchor="middle" fill="#b91c1c" font-family="monospace" font-size="11">0</text>
      <text x="50" y="55" text-anchor="middle" fill="#b91c1c" font-family="monospace" font-size="11">0</text>
      <text x="90" y="55" text-anchor="middle" fill="#b91c1c" font-family="monospace" font-size="11">0</text>
      <text x="20" y="70" text-anchor="middle" fill="#b91c1c" font-family="monospace" font-size="11">0</text>
      <text x="50" y="70" text-anchor="middle" fill="#b91c1c" font-family="monospace" font-size="11">1</text>
      <text x="90" y="70" text-anchor="middle" fill="#b91c1c" font-family="monospace" font-size="11">1</text>
      <text x="20" y="85" text-anchor="middle" fill="#b91c1c" font-family="monospace" font-size="11">1</text>
      <text x="50" y="85" text-anchor="middle" fill="#b91c1c" font-family="monospace" font-size="11">0</text>
      <text x="90" y="85" text-anchor="middle" fill="#b91c1c" font-family="monospace" font-size="11">1</text>
      <text x="20" y="100" text-anchor="middle" fill="#b91c1c" font-family="monospace" font-size="11">1</text>
      <text x="50" y="100" text-anchor="middle" fill="#b91c1c" font-family="monospace" font-size="11">1</text>
      <text x="90" y="100" text-anchor="middle" fill="#b91c1c" font-family="monospace" font-size="11">1</text>
    </g>

    <text x="175" y="175" text-anchor="middle" fill="white" font-family="Arial, sans-serif" font-size="11">Output HIGH when ANY input is HIGH</text>
    <text x="175" y="195" text-anchor="middle" fill="white" font-family="Arial, sans-serif" font-size="11">Boolean Expression: Y = A + B</text>
  </g>

  <!-- NOT Gate -->
  <g transform="translate(850, 80)">
    <rect x="0" y="0" width="300" height="220" fill="url(#notGrad)" rx="8"/>
    <text x="150" y="20" text-anchor="middle" fill="white" font-family="Arial, sans-serif" font-size="16" font-weight="bold">NOT GATE (INVERTER)</text>

    <!-- NOT Gate Symbol -->
    <g transform="translate(30, 35)">
      <polygon points="0,20 0,80 60,50" fill="white" stroke="#7c3aed" stroke-width="2"/>
      <circle cx="65" cy="50" r="5" fill="white" stroke="#7c3aed" stroke-width="2"/>
      <line x1="-15" y1="50" x2="0" y2="50" stroke="white" stroke-width="2"/>
      <line x1="70" y1="50" x2="85" y2="50" stroke="white" stroke-width="2"/>
      <text x="-25" y="55" fill="white" font-family="Arial, sans-serif" font-size="12">A</text>
      <text x="90" y="55" fill="white" font-family="Arial, sans-serif" font-size="12">Y</text>
    </g>

    <!-- Truth Table -->
    <g transform="translate(150, 55)">
      <rect x="0" y="0" width="80" height="70" fill="white" stroke="#7c3aed" stroke-width="1"/>
      <text x="40" y="15" text-anchor="middle" fill="#7c3aed" font-family="Arial, sans-serif" font-size="12" font-weight="bold">Truth Table</text>
      <line x1="0" y1="20" x2="80" y2="20" stroke="#7c3aed" stroke-width="1"/>
      <text x="25" y="35" text-anchor="middle" fill="#7c3aed" font-family="Arial, sans-serif" font-size="11" font-weight="bold">A</text>
      <text x="55" y="35" text-anchor="middle" fill="#7c3aed" font-family="Arial, sans-serif" font-size="11" font-weight="bold">Y=Ā</text>
      <line x1="0" y1="40" x2="80" y2="40" stroke="#7c3aed" stroke-width="1"/>
      <text x="25" y="55" text-anchor="middle" fill="#7c3aed" font-family="monospace" font-size="11">0</text>
      <text x="55" y="55" text-anchor="middle" fill="#7c3aed" font-family="monospace" font-size="11">1</text>
      <text x="25" y="70" text-anchor="middle" fill="#7c3aed" font-family="monospace" font-size="11">1</text>
      <text x="55" y="70" text-anchor="middle" fill="#7c3aed" font-family="monospace" font-size="11">0</text>
    </g>

    <text x="150" y="175" text-anchor="middle" fill="white" font-family="Arial, sans-serif" font-size="11">Output is complement of input</text>
    <text x="150" y="195" text-anchor="middle" fill="white" font-family="Arial, sans-serif" font-size="11">Boolean Expression: Y = Ā</text>
  </g>

  <!-- NAND Gate -->
  <g transform="translate(50, 320)">
    <rect x="0" y="0" width="350" height="220" fill="url(#nandGrad)" rx="8"/>
    <text x="175" y="20" text-anchor="middle" fill="white" font-family="Arial, sans-serif" font-size="16" font-weight="bold">NAND GATE (Universal Gate)</text>

    <!-- NAND Gate Symbol -->
    <g transform="translate(20, 35)">
      <path d="M 0 20 L 40 20 Q 80 20 80 50 Q 80 80 40 80 L 0 80 Z" fill="white" stroke="#dc2626" stroke-width="2"/>
      <circle cx="85" cy="50" r="5" fill="white" stroke="#dc2626" stroke-width="2"/>
      <line x1="-15" y1="35" x2="0" y2="35" stroke="white" stroke-width="2"/>
      <line x1="-15" y1="65" x2="0" y2="65" stroke="white" stroke-width="2"/>
      <line x1="90" y1="50" x2="105" y2="50" stroke="white" stroke-width="2"/>
      <text x="-25" y="40" fill="white" font-family="Arial, sans-serif" font-size="12">A</text>
      <text x="-25" y="70" fill="white" font-family="Arial, sans-serif" font-size="12">B</text>
      <text x="110" y="55" fill="white" font-family="Arial, sans-serif" font-size="12">Y</text>
    </g>

    <!-- Truth Table -->
    <g transform="translate(150, 40)">
      <rect x="0" y="0" width="140" height="100" fill="white" stroke="#dc2626" stroke-width="1"/>
      <text x="70" y="15" text-anchor="middle" fill="#dc2626" font-family="Arial, sans-serif" font-size="12" font-weight="bold">Truth Table</text>
      <line x1="0" y1="20" x2="140" y2="20" stroke="#dc2626" stroke-width="1"/>
      <text x="25" y="35" text-anchor="middle" fill="#dc2626" font-family="Arial, sans-serif" font-size="11" font-weight="bold">A</text>
      <text x="55" y="35" text-anchor="middle" fill="#dc2626" font-family="Arial, sans-serif" font-size="11" font-weight="bold">B</text>
      <text x="100" y="35" text-anchor="middle" fill="#dc2626" font-family="Arial, sans-serif" font-size="11" font-weight="bold">Y=(A·B)′</text>
      <line x1="0" y1="40" x2="140" y2="40" stroke="#dc2626" stroke-width="1"/>
      <text x="25" y="55" text-anchor="middle" fill="#dc2626" font-family="monospace" font-size="11">0</text>
      <text x="55" y="55" text-anchor="middle" fill="#dc2626" font-family="monospace" font-size="11">0</text>
      <text x="100" y="55" text-anchor="middle" fill="#dc2626" font-family="monospace" font-size="11">1</text>
      <text x="25" y="70" text-anchor="middle" fill="#dc2626" font-family="monospace" font-size="11">0</text>
      <text x="55" y="70" text-anchor="middle" fill="#dc2626" font-family="monospace" font-size="11">1</text>
      <text x="100" y="70" text-anchor="middle" fill="#dc2626" font-family="monospace" font-size="11">1</text>
      <text x="25" y="85" text-anchor="middle" fill="#dc2626" font-family="monospace" font-size="11">1</text>
      <text x="55" y="85" text-anchor="middle" fill="#dc2626" font-family="monospace" font-size="11">0</text>
      <text x="100" y="85" text-anchor="middle" fill="#dc2626" font-family="monospace" font-size="11">1</text>
      <text x="25" y="100" text-anchor="middle" fill="#dc2626" font-family="monospace" font-size="11">1</text>
      <text x="55" y="100" text-anchor="middle" fill="#dc2626" font-family="monospace" font-size="11">1</text>
      <text x="100" y="100" text-anchor="middle" fill="#dc2626" font-family="monospace" font-size="11">0</text>
    </g>

    <text x="175" y="175" text-anchor="middle" fill="white" font-family="Arial, sans-serif" font-size="11">Output LOW only when ALL inputs are HIGH</text>
    <text x="175" y="195" text-anchor="middle" fill="white" font-family="Arial, sans-serif" font-size="11">Boolean Expression: Y = (A · B)′</text>
  </g>

  <!-- NOR Gate -->
  <g transform="translate(450, 320)">
    <rect x="0" y="0" width="350" height="220" fill="url(#norGrad)" rx="8"/>
    <text x="175" y="20" text-anchor="middle" fill="white" font-family="Arial, sans-serif" font-size="16" font-weight="bold">NOR GATE (Universal Gate)</text>

    <!-- NOR Gate Symbol -->
    <g transform="translate(20, 35)">
      <path d="M 0 20 Q 20 20 30 35 Q 50 50 30 65 Q 20 80 0 80 Q 20 50 0 20" fill="white" stroke="#0e7490" stroke-width="2"/>
      <path d="M 30 35 Q 70 35 80 50 Q 70 65 30 65" fill="white" stroke="#0e7490" stroke-width="2"/>
      <circle cx="85" cy="50" r="5" fill="white" stroke="#0e7490" stroke-width="2"/>
      <line x1="-15" y1="35" x2="5" y2="35" stroke="white" stroke-width="2"/>
      <line x1="-15" y1="65" x2="5" y2="65" stroke="white" stroke-width="2"/>
      <line x1="90" y1="50" x2="105" y2="50" stroke="white" stroke-width="2"/>
      <text x="-25" y="40" fill="white" font-family="Arial, sans-serif" font-size="12">A</text>
      <text x="-25" y="70" fill="white" font-family="Arial, sans-serif" font-size="12">B</text>
      <text x="110" y="55" fill="white" font-family="Arial, sans-serif" font-size="12">Y</text>
    </g>

    <!-- Truth Table -->
    <g transform="translate(150, 40)">
      <rect x="0" y="0" width="140" height="100" fill="white" stroke="#0e7490" stroke-width="1"/>
      <text x="70" y="15" text-anchor="middle" fill="#0e7490" font-family="Arial, sans-serif" font-size="12" font-weight="bold">Truth Table</text>
      <line x1="0" y1="20" x2="140" y2="20" stroke="#0e7490" stroke-width="1"/>
      <text x="25" y="35" text-anchor="middle" fill="#0e7490" font-family="Arial, sans-serif" font-size="11" font-weight="bold">A</text>
      <text x="55" y="35" text-anchor="middle" fill="#0e7490" font-family="Arial, sans-serif" font-size="11" font-weight="bold">B</text>
      <text x="100" y="35" text-anchor="middle" fill="#0e7490" font-family="Arial, sans-serif" font-size="11" font-weight="bold">Y=(A+B)′</text>
      <line x1="0" y1="40" x2="140" y2="40" stroke="#0e7490" stroke-width="1"/>
      <text x="25" y="55" text-anchor="middle" fill="#0e7490" font-family="monospace" font-size="11">0</text>
      <text x="55" y="55" text-anchor="middle" fill="#0e7490" font-family="monospace" font-size="11">0</text>
      <text x="100" y="55" text-anchor="middle" fill="#0e7490" font-family="monospace" font-size="11">1</text>
      <text x="25" y="70" text-anchor="middle" fill="#0e7490" font-family="monospace" font-size="11">0</text>
      <text x="55" y="70" text-anchor="middle" fill="#0e7490" font-family="monospace" font-size="11">1</text>
      <text x="100" y="70" text-anchor="middle" fill="#0e7490" font-family="monospace" font-size="11">0</text>
      <text x="25" y="85" text-anchor="middle" fill="#0e7490" font-family="monospace" font-size="11">1</text>
      <text x="55" y="85" text-anchor="middle" fill="#0e7490" font-family="monospace" font-size="11">0</text>
      <text x="100" y="85" text-anchor="middle" fill="#0e7490" font-family="monospace" font-size="11">0</text>
      <text x="25" y="100" text-anchor="middle" fill="#0e7490" font-family="monospace" font-size="11">1</text>
      <text x="55" y="100" text-anchor="middle" fill="#0e7490" font-family="monospace" font-size="11">1</text>
      <text x="100" y="100" text-anchor="middle" fill="#0e7490" font-family="monospace" font-size="11">0</text>
    </g>

    <text x="175" y="175" text-anchor="middle" fill="white" font-family="Arial, sans-serif" font-size="11">Output HIGH only when ALL inputs are LOW</text>
    <text x="175" y="195" text-anchor="middle" fill="white" font-family="Arial, sans-serif" font-size="11">Boolean Expression: Y = (A + B)′</text>
  </g>

  <!-- XOR Gate -->
  <g transform="translate(50, 560)">
    <rect x="0" y="0" width="350" height="220" fill="url(#xorGrad)" rx="8"/>
    <text x="175" y="20" text-anchor="middle" fill="white" font-family="Arial, sans-serif" font-size="16" font-weight="bold">XOR GATE (Exclusive OR)</text>

    <!-- XOR Gate Symbol -->
    <g transform="translate(20, 35)">
      <path d="M -10 20 Q 10 20 20 35 Q 40 50 20 65 Q 10 80 -10 80 Q 10 50 -10 20" fill="none" stroke="white" stroke-width="2"/>
      <path d="M 0 20 Q 20 20 30 35 Q 50 50 30 65 Q 20 80 0 80 Q 20 50 0 20" fill="white" stroke="#4d7c0f" stroke-width="2"/>
      <path d="M 30 35 Q 70 35 80 50 Q 70 65 30 65" fill="white" stroke="#4d7c0f" stroke-width="2"/>
      <line x1="-15" y1="35" x2="5" y2="35" stroke="white" stroke-width="2"/>
      <line x1="-15" y1="65" x2="5" y2="65" stroke="white" stroke-width="2"/>
      <line x1="80" y1="50" x2="95" y2="50" stroke="white" stroke-width="2"/>
      <text x="-25" y="40" fill="white" font-family="Arial, sans-serif" font-size="12">A</text>
      <text x="-25" y="70" fill="white" font-family="Arial, sans-serif" font-size="12">B</text>
      <text x="100" y="55" fill="white" font-family="Arial, sans-serif" font-size="12">Y</text>
    </g>

    <!-- Truth Table -->
    <g transform="translate(150, 40)">
      <rect x="0" y="0" width="140" height="100" fill="white" stroke="#4d7c0f" stroke-width="1"/>
      <text x="70" y="15" text-anchor="middle" fill="#4d7c0f" font-family="Arial, sans-serif" font-size="12" font-weight="bold">Truth Table</text>
      <line x1="0" y1="20" x2="140" y2="20" stroke="#4d7c0f" stroke-width="1"/>
      <text x="25" y="35" text-anchor="middle" fill="#4d7c0f" font-family="Arial, sans-serif" font-size="11" font-weight="bold">A</text>
      <text x="55" y="35" text-anchor="middle" fill="#4d7c0f" font-family="Arial, sans-serif" font-size="11" font-weight="bold">B</text>
      <text x="100" y="35" text-anchor="middle" fill="#4d7c0f" font-family="Arial, sans-serif" font-size="11" font-weight="bold">Y=A⊕B</text>
      <line x1="0" y1="40" x2="140" y2="40" stroke="#4d7c0f" stroke-width="1"/>
      <text x="25" y="55" text-anchor="middle" fill="#4d7c0f" font-family="monospace" font-size="11">0</text>
      <text x="55" y="55" text-anchor="middle" fill="#4d7c0f" font-family="monospace" font-size="11">0</text>
      <text x="100" y="55" text-anchor="middle" fill="#4d7c0f" font-family="monospace" font-size="11">0</text>
      <text x="25" y="70" text-anchor="middle" fill="#4d7c0f" font-family="monospace" font-size="11">0</text>
      <text x="55" y="70" text-anchor="middle" fill="#4d7c0f" font-family="monospace" font-size="11">1</text>
      <text x="100" y="70" text-anchor="middle" fill="#4d7c0f" font-family="monospace" font-size="11">1</text>
      <text x="25" y="85" text-anchor="middle" fill="#4d7c0f" font-family="monospace" font-size="11">1</text>
      <text x="55" y="85" text-anchor="middle" fill="#4d7c0f" font-family="monospace" font-size="11">0</text>
      <text x="100" y="85" text-anchor="middle" fill="#4d7c0f" font-family="monospace" font-size="11">1</text>
      <text x="25" y="100" text-anchor="middle" fill="#4d7c0f" font-family="monospace" font-size="11">1</text>
      <text x="55" y="100" text-anchor="middle" fill="#4d7c0f" font-family="monospace" font-size="11">1</text>
      <text x="100" y="100" text-anchor="middle" fill="#4d7c0f" font-family="monospace" font-size="11">0</text>
    </g>

    <text x="175" y="175" text-anchor="middle" fill="white" font-family="Arial, sans-serif" font-size="11">Output HIGH when inputs are DIFFERENT</text>
    <text x="175" y="195" text-anchor="middle" fill="white" font-family="Arial, sans-serif" font-size="11">Boolean Expression: Y = A ⊕ B = A·B̄ + Ā·B</text>
  </g>

  <!-- XNOR Gate -->
  <g transform="translate(450, 560)">
    <rect x="0" y="0" width="350" height="220" fill="url(#xnorGrad)" rx="8"/>
    <text x="175" y="20" text-anchor="middle" fill="white" font-family="Arial, sans-serif" font-size="16" font-weight="bold">XNOR GATE (Exclusive NOR)</text>

    <!-- XNOR Gate Symbol -->
    <g transform="translate(20, 35)">
      <path d="M -10 20 Q 10 20 20 35 Q 40 50 20 65 Q 10 80 -10 80 Q 10 50 -10 20" fill="none" stroke="white" stroke-width="2"/>
      <path d="M 0 20 Q 20 20 30 35 Q 50 50 30 65 Q 20 80 0 80 Q 20 50 0 20" fill="white" stroke="#9d174d" stroke-width="2"/>
      <path d="M 30 35 Q 70 35 80 50 Q 70 65 30 65" fill="white" stroke="#9d174d" stroke-width="2"/>
      <circle cx="85" cy="50" r="5" fill="white" stroke="#9d174d" stroke-width="2"/>
      <line x1="-15" y1="35" x2="5" y2="35" stroke="white" stroke-width="2"/>
      <line x1="-15" y1="65" x2="5" y2="65" stroke="white" stroke-width="2"/>
      <line x1="90" y1="50" x2="105" y2="50" stroke="white" stroke-width="2"/>
      <text x="-25" y="40" fill="white" font-family="Arial, sans-serif" font-size="12">A</text>
      <text x="-25" y="70" fill="white" font-family="Arial, sans-serif" font-size="12">B</text>
      <text x="110" y="55" fill="white" font-family="Arial, sans-serif" font-size="12">Y</text>
    </g>

    <!-- Truth Table -->
    <g transform="translate(150, 40)">
      <rect x="0" y="0" width="140" height="100" fill="white" stroke="#9d174d" stroke-width="1"/>
      <text x="70" y="15" text-anchor="middle" fill="#9d174d" font-family="Arial, sans-serif" font-size="12" font-weight="bold">Truth Table</text>
      <line x1="0" y1="20" x2="140" y2="20" stroke="#9d174d" stroke-width="1"/>
      <text x="25" y="35" text-anchor="middle" fill="#9d174d" font-family="Arial, sans-serif" font-size="11" font-weight="bold">A</text>
      <text x="55" y="35" text-anchor="middle" fill="#9d174d" font-family="Arial, sans-serif" font-size="11" font-weight="bold">B</text>
      <text x="100" y="35" text-anchor="middle" fill="#9d174d" font-family="Arial, sans-serif" font-size="11" font-weight="bold">Y=(A⊕B)′</text>
      <line x1="0" y1="40" x2="140" y2="40" stroke="#9d174d" stroke-width="1"/>
      <text x="25" y="55" text-anchor="middle" fill="#9d174d" font-family="monospace" font-size="11">0</text>
      <text x="55" y="55" text-anchor="middle" fill="#9d174d" font-family="monospace" font-size="11">0</text>
      <text x="100" y="55" text-anchor="middle" fill="#9d174d" font-family="monospace" font-size="11">1</text>
      <text x="25" y="70" text-anchor="middle" fill="#9d174d" font-family="monospace" font-size="11">0</text>
      <text x="55" y="70" text-anchor="middle" fill="#9d174d" font-family="monospace" font-size="11">1</text>
      <text x="100" y="70" text-anchor="middle" fill="#9d174d" font-family="monospace" font-size="11">0</text>
      <text x="25" y="85" text-anchor="middle" fill="#9d174d" font-family="monospace" font-size="11">1</text>
      <text x="55" y="85" text-anchor="middle" fill="#9d174d" font-family="monospace" font-size="11">0</text>
      <text x="100" y="85" text-anchor="middle" fill="#9d174d" font-family="monospace" font-size="11">0</text>
      <text x="25" y="100" text-anchor="middle" fill="#9d174d" font-family="monospace" font-size="11">1</text>
      <text x="55" y="100" text-anchor="middle" fill="#9d174d" font-family="monospace" font-size="11">1</text>
      <text x="100" y="100" text-anchor="middle" fill="#9d174d" font-family="monospace" font-size="11">1</text>
    </g>

    <text x="175" y="175" text-anchor="middle" fill="white" font-family="Arial, sans-serif" font-size="11">Output HIGH when inputs are SAME</text>
    <text x="175" y="195" text-anchor="middle" fill="white" font-family="Arial, sans-serif" font-size="11">Boolean Expression: Y = (A ⊕ B)′ = A·B + Ā·B̄</text>
  </g>

  <!-- Summary Section -->
  <g transform="translate(850, 320)">
    <rect x="0" y="0" width="300" height="460" fill="#374151" rx="8"/>
    <text x="150" y="25" text-anchor="middle" fill="white" font-family="Arial, sans-serif" font-size="16" font-weight="bold">GATE SUMMARY</text>

    <text x="15" y="55" fill="white" font-family="Arial, sans-serif" font-size="12" font-weight="bold">Basic Gates:</text>
    <text x="15" y="75" fill="white" font-family="Arial, sans-serif" font-size="11">• AND, OR, NOT</text>
    <text x="15" y="90" fill="white" font-family="Arial, sans-serif" font-size="11">• Building blocks of digital logic</text>

    <text x="15" y="120" fill="white" font-family="Arial, sans-serif" font-size="12" font-weight="bold">Universal Gates:</text>
    <text x="15" y="140" fill="white" font-family="Arial, sans-serif" font-size="11">• NAND and NOR</text>
    <text x="15" y="155" fill="white" font-family="Arial, sans-serif" font-size="11">• Can implement any logic function</text>

    <text x="15" y="185" fill="white" font-family="Arial, sans-serif" font-size="12" font-weight="bold">Special Gates:</text>
    <text x="15" y="205" fill="white" font-family="Arial, sans-serif" font-size="11">• XOR: Different inputs</text>
    <text x="15" y="220" fill="white" font-family="Arial, sans-serif" font-size="11">• XNOR: Same inputs</text>

    <text x="15" y="250" fill="white" font-family="Arial, sans-serif" font-size="12" font-weight="bold">Gate Relationships:</text>
    <text x="15" y="270" fill="white" font-family="Arial, sans-serif" font-size="10">NAND = (AND)′</text>
    <text x="15" y="285" fill="white" font-family="Arial, sans-serif" font-size="10">NOR = (OR)′</text>
    <text x="15" y="300" fill="white" font-family="Arial, sans-serif" font-size="10">XNOR = (XOR)′</text>

    <text x="15" y="330" fill="white" font-family="Arial, sans-serif" font-size="12" font-weight="bold">IC Numbers:</text>
    <text x="15" y="350" fill="white" font-family="Arial, sans-serif" font-size="10">7408 - Quad 2-input AND</text>
    <text x="15" y="365" fill="white" font-family="Arial, sans-serif" font-size="10">7432 - Quad 2-input OR</text>
    <text x="15" y="380" fill="white" font-family="Arial, sans-serif" font-size="10">7404 - Hex Inverter</text>
    <text x="15" y="395" fill="white" font-family="Arial, sans-serif" font-size="10">7400 - Quad 2-input NAND</text>
    <text x="15" y="410" fill="white" font-family="Arial, sans-serif" font-size="10">7402 - Quad 2-input NOR</text>
    <text x="15" y="425" fill="white" font-family="Arial, sans-serif" font-size="10">7486 - Quad 2-input XOR</text>
  </g>
</svg>