<svg width="1200" height="1100" xmlns="http://www.w3.org/2000/svg">
  <defs>
    <linearGradient id="headerGrad" x1="0%" y1="0%" x2="100%" y2="0%">
      <stop offset="0%" style="stop-color:#2563eb;stop-opacity:1" />
      <stop offset="100%" style="stop-color:#1d4ed8;stop-opacity:1" />
    </linearGradient>
    <linearGradient id="nandGrad" x1="0%" y1="0%" x2="100%" y2="0%">
      <stop offset="0%" style="stop-color:#dc2626;stop-opacity:1" />
      <stop offset="100%" style="stop-color:#b91c1c;stop-opacity:1" />
    </linearGradient>
    <linearGradient id="norGrad" x1="0%" y1="0%" x2="100%" y2="0%">
      <stop offset="0%" style="stop-color:#0891b2;stop-opacity:1" />
      <stop offset="100%" style="stop-color:#0e7490;stop-opacity:1" />
    </linearGradient>
    <linearGradient id="implementGrad" x1="0%" y1="0%" x2="100%" y2="0%">
      <stop offset="0%" style="stop-color:#9333ea;stop-opacity:1" />
      <stop offset="100%" style="stop-color:#7c3aed;stop-opacity:1" />
    </linearGradient>
  </defs>

  <!-- Background -->
  <rect width="1200" height="1100" fill="#f8fafc"/>

  <!-- Title -->
  <rect x="0" y="0" width="1200" height="60" fill="url(#headerGrad)"/>
  <text x="600" y="35" text-anchor="middle" fill="white" font-family="Arial, sans-serif" font-size="24" font-weight="bold">Universal Gates: NAND &amp; NOR Implementations</text>

  <!-- NAND as Universal Gate -->
  <g transform="translate(50, 80)">
    <rect x="0" y="0" width="550" height="480" fill="url(#nandGrad)" rx="10"/>
    <text x="275" y="25" text-anchor="middle" fill="white" font-family="Arial, sans-serif" font-size="18" font-weight="bold">NAND AS UNIVERSAL GATE</text>

    <!-- NOT using NAND -->
    <g transform="translate(20, 40)">
      <text x="0" y="15" fill="white" font-family="Arial, sans-serif" font-size="14" font-weight="bold">NOT Gate using NAND:</text>

      <!-- NAND gate -->
      <g transform="translate(0, 25)">
        <path d="M 20 20 L 60 20 Q 100 20 100 50 Q 100 80 60 80 L 20 80 Z" fill="white" stroke="#b91c1c" stroke-width="2"/>
        <circle cx="105" cy="50" r="5" fill="white" stroke="#b91c1c" stroke-width="2"/>
        <line x1="0" y1="35" x2="20" y2="35" stroke="white" stroke-width="2"/>
        <line x1="0" y1="65" x2="20" y2="65" stroke="white" stroke-width="2"/>
        <line x1="110" y1="50" x2="130" y2="50" stroke="white" stroke-width="2"/>
        <text x="-10" y="40" fill="white" font-family="Arial, sans-serif" font-size="12">A</text>
        <text x="-10" y="70" fill="white" font-family="Arial, sans-serif" font-size="12">A</text>
        <text x="135" y="55" fill="white" font-family="Arial, sans-serif" font-size="12">Ā</text>
      </g>

      <text x="200" y="75" fill="white" font-family="Arial, sans-serif" font-size="12">Connect both inputs together</text>
      <text x="200" y="90" fill="white" font-family="monospace" font-size="11">Y = (A·A)′ = Ā</text>
    </g>

    <!-- AND using NAND -->
    <g transform="translate(20, 140)">
      <text x="0" y="15" fill="white" font-family="Arial, sans-serif" font-size="14" font-weight="bold">AND Gate using NAND:</text>

      <!-- First NAND -->
      <g transform="translate(0, 25)">
        <path d="M 20 20 L 60 20 Q 100 20 100 50 Q 100 80 60 80 L 20 80 Z" fill="white" stroke="#b91c1c" stroke-width="2"/>
        <circle cx="105" cy="50" r="5" fill="white" stroke="#b91c1c" stroke-width="2"/>
        <line x1="0" y1="35" x2="20" y2="35" stroke="white" stroke-width="2"/>
        <line x1="0" y1="65" x2="20" y2="65" stroke="white" stroke-width="2"/>
        <line x1="110" y1="50" x2="140" y2="50" stroke="white" stroke-width="2"/>
        <text x="-10" y="40" fill="white" font-family="Arial, sans-serif" font-size="12">A</text>
        <text x="-10" y="70" fill="white" font-family="Arial, sans-serif" font-size="12">B</text>
      </g>

      <!-- Second NAND (NOT) -->
      <g transform="translate(140, 25)">
        <path d="M 20 20 L 60 20 Q 100 20 100 50 Q 100 80 60 80 L 20 80 Z" fill="white" stroke="#b91c1c" stroke-width="2"/>
        <circle cx="105" cy="50" r="5" fill="white" stroke="#b91c1c" stroke-width="2"/>
        <line x1="0" y1="35" x2="20" y2="35" stroke="white" stroke-width="2"/>
        <line x1="0" y1="65" x2="20" y2="65" stroke="white" stroke-width="2"/>
        <line x1="110" y1="50" x2="130" y2="50" stroke="white" stroke-width="2"/>
        <text x="135" y="55" fill="white" font-family="Arial, sans-serif" font-size="12">A·B</text>
      </g>

      <!-- Connection line -->
      <line x1="140" y1="75" x2="160" y2="75" stroke="white" stroke-width="2"/>
      <line x1="160" y1="75" x2="160" y2="60" stroke="white" stroke-width="2"/>
      <line x1="160" y1="60" x2="160" y2="90" stroke="white" stroke-width="2"/>

      <text x="300" y="60" fill="white" font-family="monospace" font-size="11">Y = ((A·B)′)′ = A·B</text>
    </g>

    <!-- OR using NAND -->
    <g transform="translate(20, 250)">
      <text x="0" y="15" fill="white" font-family="Arial, sans-serif" font-size="14" font-weight="bold">OR Gate using NAND:</text>

      <!-- First NAND (NOT A) -->
      <g transform="translate(0, 25)">
        <path d="M 20 20 L 60 20 Q 100 20 100 50 Q 100 80 60 80 L 20 80 Z" fill="white" stroke="#b91c1c" stroke-width="2"/>
        <circle cx="105" cy="50" r="5" fill="white" stroke="#b91c1c" stroke-width="2"/>
        <line x1="0" y1="35" x2="20" y2="35" stroke="white" stroke-width="2"/>
        <line x1="0" y1="65" x2="20" y2="65" stroke="white" stroke-width="2"/>
        <line x1="110" y1="50" x2="140" y2="50" stroke="white" stroke-width="2"/>
        <text x="-10" y="40" fill="white" font-family="Arial, sans-serif" font-size="12">A</text>
        <text x="-10" y="70" fill="white" font-family="Arial, sans-serif" font-size="12">A</text>
      </g>

      <!-- Second NAND (NOT B) -->
      <g transform="translate(0, 95)">
        <path d="M 20 20 L 60 20 Q 100 20 100 50 Q 100 80 60 80 L 20 80 Z" fill="white" stroke="#b91c1c" stroke-width="2"/>
        <circle cx="105" cy="50" r="5" fill="white" stroke="#b91c1c" stroke-width="2"/>
        <line x1="0" y1="35" x2="20" y2="35" stroke="white" stroke-width="2"/>
        <line x1="0" y1="65" x2="20" y2="65" stroke="white" stroke-width="2"/>
        <line x1="110" y1="50" x2="140" y2="50" stroke="white" stroke-width="2"/>
        <text x="-10" y="40" fill="white" font-family="Arial, sans-serif" font-size="12">B</text>
        <text x="-10" y="70" fill="white" font-family="Arial, sans-serif" font-size="12">B</text>
      </g>

      <!-- Third NAND (Final OR) -->
      <g transform="translate(160, 60)">
        <path d="M 20 20 L 60 20 Q 100 20 100 50 Q 100 80 60 80 L 20 80 Z" fill="white" stroke="#b91c1c" stroke-width="2"/>
        <circle cx="105" cy="50" r="5" fill="white" stroke="#b91c1c" stroke-width="2"/>
        <line x1="0" y1="35" x2="20" y2="35" stroke="white" stroke-width="2"/>
        <line x1="0" y1="65" x2="20" y2="65" stroke="white" stroke-width="2"/>
        <line x1="110" y1="50" x2="130" y2="50" stroke="white" stroke-width="2"/>
        <text x="135" y="55" fill="white" font-family="Arial, sans-serif" font-size="12">A+B</text>
      </g>

      <!-- Connection lines -->
      <line x1="140" y1="75" x2="180" y2="75" stroke="white" stroke-width="2"/>
      <line x1="180" y1="75" x2="180" y2="95" stroke="white" stroke-width="2"/>
      <line x1="140" y1="145" x2="180" y2="145" stroke="white" stroke-width="2"/>
      <line x1="180" y1="145" x2="180" y2="125" stroke="white" stroke-width="2"/>

      <text x="300" y="110" fill="white" font-family="monospace" font-size="11">Y = (Ā·B̄)′ = A+B</text>
      <text x="300" y="125" fill="white" font-family="Arial, sans-serif" font-size="10">Using De Morgan's Law</text>
    </g>

    <text x="20" y="460" fill="white" font-family="Arial, sans-serif" font-size="12" font-weight="bold">NAND Gate Count: NOT=1, AND=2, OR=3</text>
  </g>

  <!-- NOR as Universal Gate -->
  <g transform="translate(620, 80)">
    <rect x="0" y="0" width="550" height="480" fill="url(#norGrad)" rx="10"/>
    <text x="275" y="25" text-anchor="middle" fill="white" font-family="Arial, sans-serif" font-size="18" font-weight="bold">NOR AS UNIVERSAL GATE</text>

    <!-- NOT using NOR -->
    <g transform="translate(20, 40)">
      <text x="0" y="15" fill="white" font-family="Arial, sans-serif" font-size="14" font-weight="bold">NOT Gate using NOR:</text>

      <!-- NOR gate -->
      <g transform="translate(0, 25)">
        <path d="M 20 20 Q 40 20 50 35 Q 70 50 50 65 Q 40 80 20 80 Q 40 50 20 20" fill="white" stroke="#0e7490" stroke-width="2"/>
        <path d="M 50 35 Q 90 35 100 50 Q 90 65 50 65" fill="white" stroke="#0e7490" stroke-width="2"/>
        <circle cx="105" cy="50" r="5" fill="white" stroke="#0e7490" stroke-width="2"/>
        <line x1="0" y1="35" x2="25" y2="35" stroke="white" stroke-width="2"/>
        <line x1="0" y1="65" x2="25" y2="65" stroke="white" stroke-width="2"/>
        <line x1="110" y1="50" x2="130" y2="50" stroke="white" stroke-width="2"/>
        <text x="-10" y="40" fill="white" font-family="Arial, sans-serif" font-size="12">A</text>
        <text x="-10" y="70" fill="white" font-family="Arial, sans-serif" font-size="12">A</text>
        <text x="135" y="55" fill="white" font-family="Arial, sans-serif" font-size="12">Ā</text>
      </g>

      <text x="200" y="75" fill="white" font-family="Arial, sans-serif" font-size="12">Connect both inputs together</text>
      <text x="200" y="90" fill="white" font-family="monospace" font-size="11">Y = (A+A)′ = Ā</text>
    </g>

    <!-- OR using NOR -->
    <g transform="translate(20, 140)">
      <text x="0" y="15" fill="white" font-family="Arial, sans-serif" font-size="14" font-weight="bold">OR Gate using NOR:</text>

      <!-- First NOR -->
      <g transform="translate(0, 25)">
        <path d="M 20 20 Q 40 20 50 35 Q 70 50 50 65 Q 40 80 20 80 Q 40 50 20 20" fill="white" stroke="#0e7490" stroke-width="2"/>
        <path d="M 50 35 Q 90 35 100 50 Q 90 65 50 65" fill="white" stroke="#0e7490" stroke-width="2"/>
        <circle cx="105" cy="50" r="5" fill="white" stroke="#0e7490" stroke-width="2"/>
        <line x1="0" y1="35" x2="25" y2="35" stroke="white" stroke-width="2"/>
        <line x1="0" y1="65" x2="25" y2="65" stroke="white" stroke-width="2"/>
        <line x1="110" y1="50" x2="140" y2="50" stroke="white" stroke-width="2"/>
        <text x="-10" y="40" fill="white" font-family="Arial, sans-serif" font-size="12">A</text>
        <text x="-10" y="70" fill="white" font-family="Arial, sans-serif" font-size="12">B</text>
      </g>

      <!-- Second NOR (NOT) -->
      <g transform="translate(140, 25)">
        <path d="M 20 20 Q 40 20 50 35 Q 70 50 50 65 Q 40 80 20 80 Q 40 50 20 20" fill="white" stroke="#0e7490" stroke-width="2"/>
        <path d="M 50 35 Q 90 35 100 50 Q 90 65 50 65" fill="white" stroke="#0e7490" stroke-width="2"/>
        <circle cx="105" cy="50" r="5" fill="white" stroke="#0e7490" stroke-width="2"/>
        <line x1="0" y1="35" x2="25" y2="35" stroke="white" stroke-width="2"/>
        <line x1="0" y1="65" x2="25" y2="65" stroke="white" stroke-width="2"/>
        <line x1="110" y1="50" x2="130" y2="50" stroke="white" stroke-width="2"/>
        <text x="135" y="55" fill="white" font-family="Arial, sans-serif" font-size="12">A+B</text>
      </g>

      <!-- Connection line -->
      <line x1="140" y1="75" x2="165" y2="75" stroke="white" stroke-width="2"/>
      <line x1="165" y1="75" x2="165" y2="60" stroke="white" stroke-width="2"/>
      <line x1="165" y1="60" x2="165" y2="90" stroke="white" stroke-width="2"/>

      <text x="300" y="60" fill="white" font-family="monospace" font-size="11">Y = ((A+B)′)′ = A+B</text>
    </g>

    <!-- AND using NOR -->
    <g transform="translate(20, 250)">
      <text x="0" y="15" fill="white" font-family="Arial, sans-serif" font-size="14" font-weight="bold">AND Gate using NOR:</text>

      <!-- First NOR (NOT A) -->
      <g transform="translate(0, 25)">
        <path d="M 20 20 Q 40 20 50 35 Q 70 50 50 65 Q 40 80 20 80 Q 40 50 20 20" fill="white" stroke="#0e7490" stroke-width="2"/>
        <path d="M 50 35 Q 90 35 100 50 Q 90 65 50 65" fill="white" stroke="#0e7490" stroke-width="2"/>
        <circle cx="105" cy="50" r="5" fill="white" stroke="#0e7490" stroke-width="2"/>
        <line x1="0" y1="35" x2="25" y2="35" stroke="white" stroke-width="2"/>
        <line x1="0" y1="65" x2="25" y2="65" stroke="white" stroke-width="2"/>
        <line x1="110" y1="50" x2="140" y2="50" stroke="white" stroke-width="2"/>
        <text x="-10" y="40" fill="white" font-family="Arial, sans-serif" font-size="12">A</text>
        <text x="-10" y="70" fill="white" font-family="Arial, sans-serif" font-size="12">A</text>
      </g>

      <!-- Second NOR (NOT B) -->
      <g transform="translate(0, 95)">
        <path d="M 20 20 Q 40 20 50 35 Q 70 50 50 65 Q 40 80 20 80 Q 40 50 20 20" fill="white" stroke="#0e7490" stroke-width="2"/>
        <path d="M 50 35 Q 90 35 100 50 Q 90 65 50 65" fill="white" stroke="#0e7490" stroke-width="2"/>
        <circle cx="105" cy="50" r="5" fill="white" stroke="#0e7490" stroke-width="2"/>
        <line x1="0" y1="35" x2="25" y2="35" stroke="white" stroke-width="2"/>
        <line x1="0" y1="65" x2="25" y2="65" stroke="white" stroke-width="2"/>
        <line x1="110" y1="50" x2="140" y2="50" stroke="white" stroke-width="2"/>
        <text x="-10" y="40" fill="white" font-family="Arial, sans-serif" font-size="12">B</text>
        <text x="-10" y="70" fill="white" font-family="Arial, sans-serif" font-size="12">B</text>
      </g>

      <!-- Third NOR (Final AND) -->
      <g transform="translate(160, 60)">
        <path d="M 20 20 Q 40 20 50 35 Q 70 50 50 65 Q 40 80 20 80 Q 40 50 20 20" fill="white" stroke="#0e7490" stroke-width="2"/>
        <path d="M 50 35 Q 90 35 100 50 Q 90 65 50 65" fill="white" stroke="#0e7490" stroke-width="2"/>
        <circle cx="105" cy="50" r="5" fill="white" stroke="#0e7490" stroke-width="2"/>
        <line x1="0" y1="35" x2="25" y2="35" stroke="white" stroke-width="2"/>
        <line x1="0" y1="65" x2="25" y2="65" stroke="white" stroke-width="2"/>
        <line x1="110" y1="50" x2="130" y2="50" stroke="white" stroke-width="2"/>
        <text x="135" y="55" fill="white" font-family="Arial, sans-serif" font-size="12">A·B</text>
      </g>

      <!-- Connection lines -->
      <line x1="140" y1="75" x2="185" y2="75" stroke="white" stroke-width="2"/>
      <line x1="185" y1="75" x2="185" y2="95" stroke="white" stroke-width="2"/>
      <line x1="140" y1="145" x2="185" y2="145" stroke="white" stroke-width="2"/>
      <line x1="185" y1="145" x2="185" y2="125" stroke="white" stroke-width="2"/>

      <text x="300" y="110" fill="white" font-family="monospace" font-size="11">Y = (Ā+B̄)′ = A·B</text>
      <text x="300" y="125" fill="white" font-family="Arial, sans-serif" font-size="10">Using De Morgan's Law</text>
    </g>

    <text x="20" y="460" fill="white" font-family="Arial, sans-serif" font-size="12" font-weight="bold">NOR Gate Count: NOT=1, OR=2, AND=3</text>
  </g>

  <!-- Universal Gate Comparison -->
  <g transform="translate(50, 580)">
    <rect x="0" y="0" width="1100" height="480" fill="url(#implementGrad)" rx="10"/>
    <text x="550" y="25" text-anchor="middle" fill="white" font-family="Arial, sans-serif" font-size="18" font-weight="bold">UNIVERSAL GATE IMPLEMENTATION COMPARISON</text>

    <!-- Implementation Table -->
    <g transform="translate(50, 50)">
      <text x="0" y="20" fill="white" font-family="Arial, sans-serif" font-size="16" font-weight="bold">Gate Implementation Count:</text>

      <!-- Table Header -->
      <g transform="translate(0, 40)">
        <rect x="0" y="0" width="600" height="30" fill="white" stroke="#7c3aed" stroke-width="2"/>
        <text x="100" y="20" text-anchor="middle" fill="#7c3aed" font-family="Arial, sans-serif" font-size="14" font-weight="bold">Gate Type</text>
        <text x="250" y="20" text-anchor="middle" fill="#7c3aed" font-family="Arial, sans-serif" font-size="14" font-weight="bold">NAND Gates</text>
        <text x="400" y="20" text-anchor="middle" fill="#7c3aed" font-family="Arial, sans-serif" font-size="14" font-weight="bold">NOR Gates</text>
        <text x="500" y="20" text-anchor="middle" fill="#7c3aed" font-family="Arial, sans-serif" font-size="14" font-weight="bold">Best Choice</text>
      </g>

      <!-- Table Rows -->
      <g transform="translate(0, 70)">
        <rect x="0" y="0" width="600" height="25" fill="rgba(255,255,255,0.1)" stroke="#7c3aed" stroke-width="1"/>
        <text x="100" y="17" text-anchor="middle" fill="white" font-family="Arial, sans-serif" font-size="12">NOT</text>
        <text x="250" y="17" text-anchor="middle" fill="white" font-family="Arial, sans-serif" font-size="12">1</text>
        <text x="400" y="17" text-anchor="middle" fill="white" font-family="Arial, sans-serif" font-size="12">1</text>
        <text x="500" y="17" text-anchor="middle" fill="white" font-family="Arial, sans-serif" font-size="12">Either</text>
      </g>

      <g transform="translate(0, 95)">
        <rect x="0" y="0" width="600" height="25" fill="rgba(255,255,255,0.05)" stroke="#7c3aed" stroke-width="1"/>
        <text x="100" y="17" text-anchor="middle" fill="white" font-family="Arial, sans-serif" font-size="12">AND</text>
        <text x="250" y="17" text-anchor="middle" fill="white" font-family="Arial, sans-serif" font-size="12">2</text>
        <text x="400" y="17" text-anchor="middle" fill="white" font-family="Arial, sans-serif" font-size="12">3</text>
        <text x="500" y="17" text-anchor="middle" fill="white" font-family="Arial, sans-serif" font-size="12">NAND</text>
      </g>

      <g transform="translate(0, 120)">
        <rect x="0" y="0" width="600" height="25" fill="rgba(255,255,255,0.1)" stroke="#7c3aed" stroke-width="1"/>
        <text x="100" y="17" text-anchor="middle" fill="white" font-family="Arial, sans-serif" font-size="12">OR</text>
        <text x="250" y="17" text-anchor="middle" fill="white" font-family="Arial, sans-serif" font-size="12">3</text>
        <text x="400" y="17" text-anchor="middle" fill="white" font-family="Arial, sans-serif" font-size="12">2</text>
        <text x="500" y="17" text-anchor="middle" fill="white" font-family="Arial, sans-serif" font-size="12">NOR</text>
      </g>

      <g transform="translate(0, 145)">
        <rect x="0" y="0" width="600" height="25" fill="rgba(255,255,255,0.05)" stroke="#7c3aed" stroke-width="1"/>
        <text x="100" y="17" text-anchor="middle" fill="white" font-family="Arial, sans-serif" font-size="12">NAND</text>
        <text x="250" y="17" text-anchor="middle" fill="white" font-family="Arial, sans-serif" font-size="12">1</text>
        <text x="400" y="17" text-anchor="middle" fill="white" font-family="Arial, sans-serif" font-size="12">4</text>
        <text x="500" y="17" text-anchor="middle" fill="white" font-family="Arial, sans-serif" font-size="12">NAND</text>
      </g>

      <g transform="translate(0, 170)">
        <rect x="0" y="0" width="600" height="25" fill="rgba(255,255,255,0.1)" stroke="#7c3aed" stroke-width="1"/>
        <text x="100" y="17" text-anchor="middle" fill="white" font-family="Arial, sans-serif" font-size="12">NOR</text>
        <text x="250" y="17" text-anchor="middle" fill="white" font-family="Arial, sans-serif" font-size="12">4</text>
        <text x="400" y="17" text-anchor="middle" fill="white" font-family="Arial, sans-serif" font-size="12">1</text>
        <text x="500" y="17" text-anchor="middle" fill="white" font-family="Arial, sans-serif" font-size="12">NOR</text>
      </g>
    </g>

    <!-- Advantages and Applications -->
    <g transform="translate(50, 280)">
      <text x="0" y="20" fill="white" font-family="Arial, sans-serif" font-size="16" font-weight="bold">Why Universal Gates?</text>

      <!-- Left Column -->
      <g transform="translate(0, 40)">
        <text x="0" y="20" fill="white" font-family="Arial, sans-serif" font-size="14" font-weight="bold">Advantages:</text>
        <text x="0" y="40" fill="white" font-family="Arial, sans-serif" font-size="12">• Simplifies IC manufacturing</text>
        <text x="0" y="55" fill="white" font-family="Arial, sans-serif" font-size="12">• Reduces inventory requirements</text>
        <text x="0" y="70" fill="white" font-family="Arial, sans-serif" font-size="12">• Cost-effective design</text>
        <text x="0" y="85" fill="white" font-family="Arial, sans-serif" font-size="12">• Uniform propagation delays</text>
        <text x="0" y="100" fill="white" font-family="Arial, sans-serif" font-size="12">• Easier troubleshooting</text>

        <text x="0" y="130" fill="white" font-family="Arial, sans-serif" font-size="14" font-weight="bold">NAND Advantages:</text>
        <text x="0" y="150" fill="white" font-family="Arial, sans-serif" font-size="12">• Faster switching (TTL)</text>
        <text x="0" y="165" fill="white" font-family="Arial, sans-serif" font-size="12">• Lower power consumption</text>
        <text x="0" y="180" fill="white" font-family="Arial, sans-serif" font-size="12">• More widely available</text>
      </g>

      <!-- Right Column -->
      <g transform="translate(400, 40)">
        <text x="0" y="20" fill="white" font-family="Arial, sans-serif" font-size="14" font-weight="bold">Applications:</text>
        <text x="0" y="40" fill="white" font-family="Arial, sans-serif" font-size="12">• FPGA design</text>
        <text x="0" y="55" fill="white" font-family="Arial, sans-serif" font-size="12">• Custom IC design</text>
        <text x="0" y="70" fill="white" font-family="Arial, sans-serif" font-size="12">• Educational purposes</text>
        <text x="0" y="85" fill="white" font-family="Arial, sans-serif" font-size="12">• Prototyping</text>
        <text x="0" y="100" fill="white" font-family="Arial, sans-serif" font-size="12">• Fault-tolerant systems</text>

        <text x="0" y="130" fill="white" font-family="Arial, sans-serif" font-size="14" font-weight="bold">NOR Advantages:</text>
        <text x="0" y="150" fill="white" font-family="Arial, sans-serif" font-size="12">• Better for CMOS</text>
        <text x="0" y="165" fill="white" font-family="Arial, sans-serif" font-size="12">• Equal rise/fall times</text>
        <text x="0" y="180" fill="white" font-family="Arial, sans-serif" font-size="12">• Symmetric characteristics</text>
      </g>

      <!-- Center - IC Information -->
      <g transform="translate(650, 40)">
        <text x="0" y="20" fill="white" font-family="Arial, sans-serif" font-size="14" font-weight="bold">Common ICs:</text>
        <text x="0" y="40" fill="white" font-family="Arial, sans-serif" font-size="12" font-weight="bold">NAND Gates:</text>
        <text x="0" y="55" fill="white" font-family="monospace" font-size="11">7400 - Quad 2-input</text>
        <text x="0" y="70" fill="white" font-family="monospace" font-size="11">7410 - Triple 3-input</text>
        <text x="0" y="85" fill="white" font-family="monospace" font-size="11">7420 - Dual 4-input</text>

        <text x="0" y="110" fill="white" font-family="Arial, sans-serif" font-size="12" font-weight="bold">NOR Gates:</text>
        <text x="0" y="125" fill="white" font-family="monospace" font-size="11">7402 - Quad 2-input</text>
        <text x="0" y="140" fill="white" font-family="monospace" font-size="11">7427 - Triple 3-input</text>
        <text x="0" y="155" fill="white" font-family="monospace" font-size="11">7425 - Dual 4-input</text>

        <text x="0" y="180" fill="white" font-family="Arial, sans-serif" font-size="11">All these can implement any logic!</text>
      </g>
    </g>
  </g>
</svg>