<?xml version="1.0" encoding="UTF-8"?>
<svg width="500" height="300" xmlns="http://www.w3.org/2000/svg">
  <defs>
    <style>
      .component-label { font-family: Arial, sans-serif; font-size: 12px; fill: #000; text-anchor: middle; }
      .pin-label { font-family: Arial, sans-serif; font-size: 10px; fill: #000; }
      .title { font-family: Arial, sans-serif; font-size: 16px; font-weight: bold; fill: #000; text-anchor: middle; }
      .wire { stroke: #000; stroke-width: 2; fill: none; }
      .component { fill: #f0f0f0; stroke: #000; stroke-width: 2; }
      .crystal { fill: #e6f3ff; stroke: #0066cc; stroke-width: 2; }
      .capacitor { fill: #fff; stroke: #000; stroke-width: 2; }
    </style>
  </defs>
  
  <!-- Title -->
  <text x="250" y="25" class="title">8051 Clock Circuit</text>
  
  <!-- 8051 Microcontroller (partial) -->
  <rect x="50" y="80" width="120" height="140" class="component" rx="5"/>
  <text x="110" y="100" class="component-label">8051</text>
  <text x="110" y="115" class="component-label">Microcontroller</text>
  
  <!-- XTAL1 Pin -->
  <rect x="170" y="130" width="15" height="8" class="component"/>
  <text x="190" y="137" class="pin-label">XTAL1</text>
  <text x="195" y="150" class="pin-label">(Pin 19)</text>
  
  <!-- XTAL2 Pin -->
  <rect x="170" y="160" width="15" height="8" class="component"/>
  <text x="190" y="167" class="pin-label">XTAL2</text>
  <text x="195" y="180" class="pin-label">(Pin 18)</text>
  
  <!-- Crystal Oscillator -->
  <rect x="250" y="125" width="80" height="50" class="crystal" rx="10"/>
  <text x="290" y="145" class="component-label">Crystal</text>
  <text x="290" y="160" class="component-label">Oscillator</text>
  
  <!-- Capacitor C1 -->
  <rect x="230" y="110" width="20" height="5" class="capacitor"/>
  <rect x="230" y="118" width="20" height="5" class="capacitor"/>
  <text x="220" y="108" class="pin-label">C1</text>
  <text x="215" y="98" class="pin-label">30pF</text>
  
  <!-- Capacitor C2 -->
  <rect x="230" y="185" width="20" height="5" class="capacitor"/>
  <rect x="230" y="193" width="20" height="5" class="capacitor"/>
  <text x="220" y="208" class="pin-label">C2</text>
  <text x="215" y="218" class="pin-label">30pF</text>
  
  <!-- Ground symbol -->
  <line x1="240" y1="200" x2="240" y2="230" class="wire"/>
  <line x1="225" y1="230" x2="255" y2="230" class="wire"/>
  <line x1="230" y1="235" x2="250" y2="235" class="wire"/>
  <line x1="235" y1="240" x2="245" y2="240" class="wire"/>
  <text x="260" y="235" class="pin-label">GND</text>
  
  <!-- Connections -->
  <!-- XTAL1 to Crystal and C1 -->
  <line x1="185" y1="134" x2="240" y2="134" class="wire"/>
  <line x1="240" y1="134" x2="240" y2="118" class="wire"/>
  <line x1="240" y1="134" x2="250" y2="134" class="wire"/>
  
  <!-- XTAL2 to Crystal and C2 -->
  <line x1="185" y1="164" x2="240" y2="164" class="wire"/>
  <line x1="240" y1="164" x2="240" y2="185" class="wire"/>
  <line x1="240" y1="164" x2="250" y2="164" class="wire"/>
  
  <!-- C1 to Ground -->
  <line x1="240" y1="123" x2="240" y2="110" class="wire"/>
  
  <!-- C2 to Ground -->
  <line x1="240" y1="198" x2="240" y2="200" class="wire"/>
  
  <!-- Frequency Labels -->
  <text x="350" y="110" class="component-label">Typical Frequencies:</text>
  <text x="350" y="130" class="pin-label">• 11.0592 MHz</text>
  <text x="350" y="145" class="pin-label">• 12 MHz</text>
  <text x="350" y="160" class="pin-label">• 16 MHz</text>
  <text x="350" y="175" class="pin-label">• 20 MHz</text>
  
  <!-- Circuit Description -->
  <text x="50" y="260" class="pin-label">The crystal oscillator provides the basic timing for the 8051 microcontroller.</text>
  <text x="50" y="275" class="pin-label">Machine cycle = 12 × Crystal frequency period</text>
  
  <!-- Component Values Box -->
  <rect x="350" y="190" width="120" height="80" class="component" rx="5"/>
  <text x="410" y="210" class="component-label">Component Values</text>
  <text x="360" y="230" class="pin-label">C1 = 30pF (typical)</text>
  <text x="360" y="245" class="pin-label">C2 = 30pF (typical)</text>
  <text x="360" y="260" class="pin-label">Crystal: 11.0592 MHz</text>
</svg>
