<svg xmlns="http://www.w3.org/2000/svg" viewBox="0 0 600 400" width="600" height="400">
  <defs>
    <style>
      .component-text { font-family: Arial, sans-serif; font-size: 12px; fill: #1f2937; font-weight: bold; }
      .label-text { font-family: Arial, sans-serif; font-size: 10px; fill: #374151; }
      .title-text { font-family: Arial, sans-serif; font-size: 16px; fill: #111827; font-weight: bold; }
      .wire { stroke: #374151; stroke-width: 2; fill: none; }
      .component { fill: #f3f4f6; stroke: #374151; stroke-width: 2; }
      .resistor { fill: #fef3c7; stroke: #f59e0b; stroke-width: 2; }
      .capacitor { fill: #dbeafe; stroke: #3b82f6; stroke-width: 2; }
      .switch { fill: #fee2e2; stroke: #ef4444; stroke-width: 2; }
      .ground { stroke: #374151; stroke-width: 3; }
      .vcc { stroke: #dc2626; stroke-width: 3; fill: #dc2626; }
    </style>
  </defs>
  
  <!-- Title -->
  <text x="300" y="30" text-anchor="middle" class="title-text">8051 Reset Circuit</text>
  
  <!-- 8051 Microcontroller (partial) -->
  <rect x="50" y="180" width="120" height="80" rx="5" ry="5" class="component"/>
  <text x="110" y="215" text-anchor="middle" class="component-text">8051</text>
  <text x="110" y="230" text-anchor="middle" class="label-text">Microcontroller</text>
  
  <!-- RST pin -->
  <rect x="170" y="210" width="15" height="8" class="component"/>
  <text x="195" y="218" class="label-text">RST (Pin 9)</text>
  
  <!-- VCC supply -->
  <g>
    <text x="250" y="70" class="label-text">+5V (VCC)</text>
    <line x1="250" y1="80" x2="250" y2="100" class="vcc"/>
    <circle cx="250" cy="100" r="3" class="vcc"/>
  </g>
  
  <!-- Pull-up Resistor R1 -->
  <g>
    <line x1="250" y1="100" x2="250" y2="120" class="wire"/>
    <rect x="240" y="120" width="20" height="40" class="resistor"/>
    <path d="M245 125 L250 130 L255 135 L245 140 L255 145 L245 150 L255 155" stroke="#f59e0b" stroke-width="2" fill="none"/>
    <text x="270" y="140" class="label-text">R1</text>
    <text x="270" y="155" class="label-text">10kΩ</text>
    <line x1="250" y1="160" x2="250" y2="180" class="wire"/>
  </g>
  
  <!-- Reset Switch -->
  <g>
    <line x1="250" y1="180" x2="300" y2="180" class="wire"/>
    <circle cx="300" cy="180" r="5" class="switch"/>
    <circle cx="350" cy="160" r="5" class="switch"/>
    <line x1="305" y1="180" x2="345" y2="165" stroke="#ef4444" stroke-width="3"/>
    <text x="325" y="145" text-anchor="middle" class="label-text">Reset Switch</text>
    <text x="325" y="135" text-anchor="middle" class="label-text">(Normally Open)</text>
    <line x1="350" y1="160" x2="350" y2="200" class="wire"/>
  </g>
  
  <!-- Capacitor C1 -->
  <g>
    <line x1="300" y1="180" x2="300" y2="200" class="wire"/>
    <line x1="295" y1="200" x2="305" y2="200" stroke="#3b82f6" stroke-width="3"/>
    <line x1="295" y1="205" x2="305" y2="205" stroke="#3b82f6" stroke-width="3"/>
    <text x="320" y="203" class="label-text">C1 = 10μF</text>
    <line x1="300" y1="205" x2="300" y2="220" class="wire"/>
  </g>
  
  <!-- Ground connections -->
  <g class="ground">
    <line x1="300" y1="220" x2="300" y2="240"/>
    <line x1="290" y1="240" x2="310" y2="240"/>
    <line x1="292" y1="243" x2="308" y2="243"/>
    <line x1="294" y1="246" x2="306" y2="246"/>
    <text x="315" y="240" class="label-text">GND</text>
  </g>
  
  <g class="ground">
    <line x1="350" y1="200" x2="350" y2="240"/>
    <line x1="340" y1="240" x2="360" y2="240"/>
    <line x1="342" y1="243" x2="358" y2="243"/>
    <line x1="344" y1="246" x2="356" y2="246"/>
  </g>
  
  <!-- Connection from reset circuit to microcontroller -->
  <line x1="185" y1="214" x2="250" y2="214" class="wire"/>
  <line x1="250" y1="214" x2="250" y2="180" class="wire"/>
  
  <!-- Timing diagram area -->
  <rect x="400" y="120" width="180" height="120" fill="none" stroke="#6b7280" stroke-width="1" stroke-dasharray="5,5"/>
  <text x="490" y="110" text-anchor="middle" class="component-text">Reset Timing</text>
  
  <!-- VCC line -->
  <line x1="420" y1="140" x2="570" y2="140" stroke="#dc2626" stroke-width="2"/>
  <text x="410" y="145" class="label-text">VCC</text>
  
  <!-- RST signal -->
  <g stroke="#2563eb" stroke-width="2" fill="none">
    <path d="M420 200 L460 200 L460 160 L520 160 L520 200 L570 200"/>
    <text x="410" y="205" class="label-text">RST</text>
    <text x="490" y="175" text-anchor="middle" class="label-text" fill="#2563eb">High (Reset)</text>
  </g>
  
  <!-- Ground line -->
  <line x1="420" y1="220" x2="570" y2="220" stroke="#374151" stroke-width="2"/>
  <text x="410" y="225" class="label-text">GND</text>
  
  <!-- Time markers -->
  <text x="440" y="255" text-anchor="middle" class="label-text">Power ON</text>
  <text x="490" y="255" text-anchor="middle" class="label-text">Reset Period</text>
  <text x="545" y="255" text-anchor="middle" class="label-text">Normal Operation</text>
  
  <!-- Notes -->
  <g class="label-text">
    <text x="50" y="320">Reset Circuit Operation:</text>
    <text x="50" y="340">• RST pin must be HIGH for at least 2 machine cycles to reset</text>
    <text x="50" y="355">• R1 (10kΩ) provides pull-up to maintain HIGH state</text>
    <text x="50" y="370">• C1 (10μF) provides power-on reset delay</text>
    <text x="350" y="340">• Manual reset via switch grounds RST pin</text>
  </g>
</svg>
