<svg xmlns="http://www.w3.org/2000/svg" viewBox="0 0 600 400" width="600" height="400">
  <defs>
    <style>
      .component-text { font-family: Arial, sans-serif; font-size: 12px; fill: #1f2937; font-weight: bold; }
      .label-text { font-family: Arial, sans-serif; font-size: 10px; fill: #374151; }
      .title-text { font-family: Arial, sans-serif; font-size: 16px; fill: #111827; font-weight: bold; }
      .wire { stroke: #374151; stroke-width: 2; fill: none; }
      .component { fill: #f3f4f6; stroke: #374151; stroke-width: 2; }
      .crystal { fill: #fef3c7; stroke: #f59e0b; stroke-width: 2; }
      .capacitor { fill: #dbeafe; stroke: #3b82f6; stroke-width: 2; }
      .ground { stroke: #374151; stroke-width: 3; }
    </style>
  </defs>
  
  <!-- Title -->
  <text x="300" y="30" text-anchor="middle" class="title-text">8051 Clock Circuit</text>
  
  <!-- 8051 Microcontroller (partial) -->
  <rect x="50" y="150" width="120" height="100" rx="5" ry="5" class="component"/>
  <text x="110" y="195" text-anchor="middle" class="component-text">8051</text>
  <text x="110" y="210" text-anchor="middle" class="label-text">Microcontroller</text>
  
  <!-- XTAL1 and XTAL2 pins -->
  <rect x="170" y="170" width="15" height="8" class="component"/>
  <text x="185" y="178" class="label-text">XTAL1</text>
  <text x="200" y="165" class="label-text">Pin 19</text>
  
  <rect x="170" y="200" width="15" height="8" class="component"/>
  <text x="185" y="208" class="label-text">XTAL2</text>
  <text x="200" y="195" class="label-text">Pin 18</text>
  
  <!-- Crystal Oscillator -->
  <ellipse cx="280" cy="190" rx="40" ry="25" class="crystal"/>
  <text x="280" y="190" text-anchor="middle" class="component-text">12 MHz</text>
  <text x="280" y="205" text-anchor="middle" class="label-text">Crystal</text>
  
  <!-- Crystal connections -->
  <line x1="240" y1="180" x2="260" y2="180" class="wire"/>
  <line x1="240" y1="200" x2="260" y2="200" class="wire"/>
  <line x1="300" y1="180" x2="320" y2="180" class="wire"/>
  <line x1="300" y1="200" x2="320" y2="200" class="wire"/>
  
  <!-- Capacitors -->
  <!-- C1 (30pF) -->
  <g>
    <line x1="320" y1="180" x2="320" y2="160" class="wire"/>
    <line x1="315" y1="160" x2="325" y2="160" stroke="#3b82f6" stroke-width="3"/>
    <line x1="315" y1="155" x2="325" y2="155" stroke="#3b82f6" stroke-width="3"/>
    <text x="340" y="158" class="label-text">C1 = 30pF</text>
    <line x1="320" y1="155" x2="320" y2="140" class="wire"/>
  </g>
  
  <!-- C2 (30pF) -->
  <g>
    <line x1="320" y1="200" x2="320" y2="220" class="wire"/>
    <line x1="315" y1="220" x2="325" y2="220" stroke="#3b82f6" stroke-width="3"/>
    <line x1="315" y1="225" x2="325" y2="225" stroke="#3b82f6" stroke-width="3"/>
    <text x="340" y="223" class="label-text">C2 = 30pF</text>
    <line x1="320" y1="225" x2="320" y2="240" class="wire"/>
  </g>
  
  <!-- Ground connections -->
  <g class="ground">
    <line x1="320" y1="140" x2="320" y2="130"/>
    <line x1="315" y1="130" x2="325" y2="130"/>
    <line x1="317" y1="127" x2="323" y2="127"/>
    <line x1="318" y1="124" x2="322" y2="124"/>
  </g>
  
  <g class="ground">
    <line x1="320" y1="240" x2="320" y2="250"/>
    <line x1="315" y1="250" x2="325" y2="250"/>
    <line x1="317" y1="253" x2="323" y2="253"/>
    <line x1="318" y1="256" x2="322" y2="256"/>
  </g>
  
  <!-- Connecting wires from crystal to microcontroller -->
  <line x1="185" y1="174" x2="240" y2="174" class="wire"/>
  <line x1="240" y1="174" x2="240" y2="180" class="wire"/>
  
  <line x1="185" y1="204" x2="240" y2="204" class="wire"/>
  <line x1="240" y1="204" x2="240" y2="200" class="wire"/>
  
  <!-- Clock signal representation -->
  <g stroke="#dc2626" stroke-width="2" fill="none">
    <path d="M450 160 L460 160 L460 140 L470 140 L470 160 L480 160 L480 140 L490 140 L490 160 L500 160"/>
    <text x="475" y="130" text-anchor="middle" class="label-text" fill="#dc2626">Clock Signal</text>
    <text x="475" y="180" text-anchor="middle" class="label-text">12 MHz / 12 = 1 MHz</text>
    <text x="475" y="195" text-anchor="middle" class="label-text">Machine Cycle</text>
  </g>
  
  <!-- Internal clock divider representation -->
  <rect x="400" y="200" width="80" height="40" rx="5" ry="5" class="component"/>
  <text x="440" y="220" text-anchor="middle" class="component-text">÷ 12</text>
  <text x="440" y="235" text-anchor="middle" class="label-text">Internal Divider</text>
  
  <!-- Arrow from crystal to divider -->
  <path d="M330 190 L390 190 L390 220" stroke="#059669" stroke-width="2" fill="none" marker-end="url(#arrowhead)"/>
  
  <!-- Arrow marker -->
  <defs>
    <marker id="arrowhead" markerWidth="10" markerHeight="7" refX="9" refY="3.5" orient="auto">
      <polygon points="0 0, 10 3.5, 0 7" fill="#059669"/>
    </marker>
  </defs>
  
  <!-- Notes -->
  <g class="label-text">
    <text x="50" y="320">Notes:</text>
    <text x="50" y="340">• Crystal frequency: 12 MHz (typical)</text>
    <text x="50" y="355">• Capacitors: 30pF each (typical values)</text>
    <text x="50" y="370">• Machine cycle = Crystal frequency ÷ 12</text>
  </g>
</svg>
