<svg xmlns="http://www.w3.org/2000/svg" viewBox="0 0 800 600" width="800" height="600">
  <defs>
    <style>
      .component-text { font-family: Arial, sans-serif; font-size: 11px; fill: #1f2937; font-weight: bold; text-anchor: middle; }
      .label-text { font-family: Arial, sans-serif; font-size: 9px; fill: #374151; }
      .title-text { font-family: Arial, sans-serif; font-size: 16px; fill: #111827; font-weight: bold; }
      .bus-text { font-family: Arial, sans-serif; font-size: 8px; fill: #059669; font-weight: bold; }
      .wire { stroke: #374151; stroke-width: 1.5; fill: none; }
      .bus { stroke: #059669; stroke-width: 2; fill: none; }
      .processor { fill: #dbeafe; stroke: #3b82f6; stroke-width: 2; }
      .memory { fill: #f0fdf4; stroke: #22c55e; stroke-width: 2; }
      .decoder { fill: #fef3c7; stroke: #f59e0b; stroke-width: 2; }
      .control { fill: #fee2e2; stroke: #ef4444; stroke-width: 2; }
    </style>
  </defs>
  
  <!-- Title -->
  <text x="400" y="30" text-anchor="middle" class="title-text">8085 Memory Interfacing</text>
  
  <!-- 8085 Microprocessor -->
  <rect x="50" y="80" width="120" height="160" rx="5" class="processor"/>
  <text x="110" y="110" class="component-text">8085</text>
  <text x="110" y="125" class="component-text">Microprocessor</text>
  
  <!-- Address and Data pins -->
  <g class="label-text">
    <text x="180" y="95">A8-A15</text>
    <text x="180" y="110">AD0-AD7</text>
    <text x="180" y="125">ALE</text>
    <text x="180" y="140">RD</text>
    <text x="180" y="155">WR</text>
    <text x="180" y="170">IO/M</text>
    <text x="180" y="185">S0, S1</text>
  </g>
  
  <!-- Address Latch (74LS373) -->
  <rect x="250" y="100" width="80" height="60" rx="5" class="decoder"/>
  <text x="290" y="125" class="component-text">74LS373</text>
  <text x="290" y="140" class="component-text">Address</text>
  <text x="290" y="155" class="component-text">Latch</text>
  
  <!-- Address Decoder (74LS138) -->
  <rect x="400" y="180" width="80" height="80" rx="5" class="decoder"/>
  <text x="440" y="205" class="component-text">74LS138</text>
  <text x="440" y="220" class="component-text">Address</text>
  <text x="440" y="235" class="component-text">Decoder</text>
  <text x="440" y="250" class="component-text">(3-to-8)</text>
  
  <!-- ROM Memory -->
  <rect x="550" y="120" width="100" height="80" rx="5" class="memory"/>
  <text x="600" y="145" class="component-text">ROM</text>
  <text x="600" y="160" class="component-text">(2764)</text>
  <text x="600" y="175" class="component-text">8KB</text>
  <text x="600" y="190" class="component-text">0000H-1FFFH</text>
  
  <!-- RAM Memory -->
  <rect x="550" y="250" width="100" height="80" rx="5" class="memory"/>
  <text x="600" y="275" class="component-text">RAM</text>
  <text x="600" y="290" class="component-text">(6264)</text>
  <text x="600" y="305" class="component-text">8KB</text>
  <text x="600" y="320" class="component-text">2000H-3FFFH</text>
  
  <!-- Control Logic -->
  <rect x="400" y="300" width="80" height="60" rx="5" class="control"/>
  <text x="440" y="325" class="component-text">Control</text>
  <text x="440" y="340" class="component-text">Logic</text>
  <text x="440" y="355" class="component-text">&amp; Gates</text>
  
  <!-- Bus connections -->
  
  <!-- Address Bus A8-A15 -->
  <g class="bus">
    <line x1="170" y1="90" x2="200" y2="90"/>
    <line x1="200" y1="90" x2="200" y2="70"/>
    <line x1="200" y1="70" x2="700" y2="70"/>
    <line x1="550" y1="70" x2="550" y2="120"/>
    <line x1="650" y1="70" x2="650" y2="120"/>
    <line x1="550" y1="250" x2="550" y2="240"/>
    <line x1="550" y1="240" x2="700" y2="240"/>
    <line x1="700" y1="240" x2="700" y2="70"/>
    <line x1="650" y1="250" x2="650" y2="240"/>
    <text x="350" y="65" class="bus-text">A8-A15 (8-bit)</text>
  </g>
  
  <!-- Address Bus A0-A7 from latch -->
  <g class="bus">
    <line x1="330" y1="130" x2="380" y2="130"/>
    <line x1="380" y1="130" x2="380" y2="50"/>
    <line x1="380" y1="50" x2="720" y2="50"/>
    <line x1="570" y1="50" x2="570" y2="120"/>
    <line x1="670" y1="50" x2="670" y2="120"/>
    <line x1="570" y1="250" x2="570" y2="220"/>
    <line x1="570" y1="220" x2="720" y2="220"/>
    <line x1="720" y1="220" x2="720" y2="50"/>
    <line x1="670" y1="250" x2="670" y2="220"/>
    <text x="450" y="45" class="bus-text">A0-A7 (8-bit)</text>
  </g>
  
  <!-- Data Bus -->
  <g class="bus">
    <line x1="170" y1="105" x2="220" y2="105"/>
    <line x1="220" y1="105" x2="220" y2="400"/>
    <line x1="220" y1="400" x2="750" y2="400"/>
    <line x1="590" y1="120" x2="590" y2="400"/>
    <line x1="590" y1="250" x2="590" y2="400"/>
    <text x="350" y="395" class="bus-text">Data Bus D0-D7 (8-bit)</text>
  </g>
  
  <!-- Multiplexed AD0-AD7 to latch -->
  <line x1="170" y1="105" x2="250" y2="105" class="wire"/>
  <line x1="250" y1="120" x2="220" y2="120" class="wire"/>
  <line x1="220" y1="120" x2="170" y2="120" class="wire"/>
  
  <!-- ALE connection -->
  <line x1="170" y1="120" x2="240" y2="120" class="wire"/>
  <line x1="240" y1="120" x2="240" y2="145" class="wire"/>
  <line x1="240" y1="145" x2="250" y2="145" class="wire"/>
  <text x="195" y="135" class="label-text">ALE</text>
  
  <!-- Higher order address bits to decoder -->
  <line x1="350" y1="190" x2="400" y2="190" class="wire"/>
  <line x1="350" y1="190" x2="350" y2="130" class="wire"/>
  <text x="355" y="160" class="label-text">A13-A15</text>
  
  <!-- Chip select signals -->
  <line x1="480" y1="200" x2="530" y2="200" class="wire"/>
  <line x1="530" y1="200" x2="530" y2="160" class="wire"/>
  <line x1="530" y1="160" x2="550" y2="160" class="wire"/>
  <text x="500" y="195" class="label-text">CS ROM</text>
  
  <line x1="480" y1="220" x2="520" y2="220" class="wire"/>
  <line x1="520" y1="220" x2="520" y2="270" class="wire"/>
  <line x1="520" y1="270" x2="550" y2="270" class="wire"/>
  <text x="500" y="225" class="label-text">CS RAM</text>
  
  <!-- Control signals -->
  <line x1="170" y1="135" x2="360" y2="135" class="wire"/>
  <line x1="360" y1="135" x2="360" y2="310" class="wire"/>
  <line x1="360" y1="310" x2="400" y2="310" class="wire"/>
  <text x="280" y="150" class="label-text">RD</text>
  
  <line x1="170" y1="150" x2="370" y2="150" class="wire"/>
  <line x1="370" y1="150" x2="370" y2="330" class="wire"/>
  <line x1="370" y1="330" x2="400" y2="330" class="wire"/>
  <text x="280" y="165" class="label-text">WR</text>
  
  <!-- Control signals to memory -->
  <line x1="480" y1="315" x2="510" y2="315" class="wire"/>
  <line x1="510" y1="315" x2="510" y2="180" class="wire"/>
  <line x1="510" y1="180" x2="550" y2="180" class="wire"/>
  <text x="490" y="200" class="label-text">OE/RD</text>
  
  <line x1="480" y1="340" x2="500" y2="340" class="wire"/>
  <line x1="500" y1="340" x2="500" y2="290" class="wire"/>
  <line x1="500" y1="290" x2="550" y2="290" class="wire"/>
  <text x="490" y="305" class="label-text">WE/WR</text>
  
  <!-- Memory Map -->
  <rect x="50" y="420" width="300" height="150" rx="5" fill="none" stroke="#6b7280" stroke-width="1" stroke-dasharray="5,5"/>
  <text x="200" y="440" text-anchor="middle" class="component-text">Memory Map</text>
  
  <g class="label-text">
    <text x="70" y="460">0000H - 1FFFH : ROM (8KB)</text>
    <text x="70" y="480">2000H - 3FFFH : RAM (8KB)</text>
    <text x="70" y="500">4000H - 7FFFH : Available</text>
    <text x="70" y="520">8000H - FFFFH : Available</text>
    
    <text x="70" y="550">Decoder Truth Table:</text>
    <text x="70" y="565">A15 A14 A13 | Output</text>
    <text x="70" y="575">0   0   0   | Y0 (ROM)</text>
    <text x="70" y="585">0   0   1   | Y1 (RAM)</text>
    <text x="70" y="595">0   1   x   | Y2-Y3</text>
    <text x="70" y="605">1   x   x   | Y4-Y7</text>
  </g>
  
  <!-- Timing Diagram Area -->
  <rect x="400" y="420" width="350" height="150" rx="5" fill="none" stroke="#6b7280" stroke-width="1" stroke-dasharray="5,5"/>
  <text x="575" y="440" text-anchor="middle" class="component-text">Interface Signals</text>
  
  <g class="label-text">
    <text x="420" y="460">Key Interface Signals:</text>
    <text x="420" y="480">• ALE: Address Latch Enable</text>
    <text x="420" y="495">• RD: Read strobe (active low)</text>
    <text x="420" y="510">• WR: Write strobe (active low)</text>
    <text x="420" y="525">• IO/M: I/O or Memory select</text>
    <text x="420" y="540">• CS: Chip Select (active low)</text>
    <text x="420" y="555">• OE: Output Enable (active low)</text>
    <text x="420" y="570">• WE: Write Enable (active low)</text>
  </g>
</svg>
