<svg xmlns="http://www.w3.org/2000/svg" viewBox="0 0 900 700" width="900" height="700">
  <defs>
    <style>
      .block-text { font-family: Arial, sans-serif; font-size: 11px; fill: #1f2937; font-weight: bold; text-anchor: middle; }
      .label-text { font-family: Arial, sans-serif; font-size: 10px; fill: #374151; }
      .title-text { font-family: Arial, sans-serif; font-size: 16px; fill: #111827; font-weight: bold; }
      .bus-text { font-family: Arial, sans-serif; font-size: 9px; fill: #059669; font-weight: bold; }
      .wire { stroke: #374151; stroke-width: 1.5; fill: none; }
      .bus { stroke: #059669; stroke-width: 3; fill: none; }
      .alu { fill: #fef3c7; stroke: #f59e0b; stroke-width: 2; }
      .register { fill: #dbeafe; stroke: #3b82f6; stroke-width: 2; }
      .control { fill: #fee2e2; stroke: #ef4444; stroke-width: 2; }
      .memory { fill: #f0fdf4; stroke: #22c55e; stroke-width: 2; }
      .io { fill: #fdf4ff; stroke: #a855f7; stroke-width: 2; }
    </style>
  </defs>
  
  <!-- Title -->
  <text x="450" y="30" text-anchor="middle" class="title-text">8085 Microprocessor Architecture</text>
  
  <!-- ALU -->
  <rect x="350" y="100" width="100" height="60" rx="5" class="alu"/>
  <text x="400" y="125" class="block-text">Arithmetic &amp;</text>
  <text x="400" y="140" class="block-text">Logic Unit</text>
  <text x="400" y="155" class="block-text">(ALU)</text>
  
  <!-- Accumulator -->
  <rect x="250" y="100" width="80" height="30" rx="3" class="register"/>
  <text x="290" y="120" class="block-text">Accumulator (A)</text>
  
  <!-- Temporary Register -->
  <rect x="470" y="100" width="80" height="30" rx="3" class="register"/>
  <text x="510" y="120" class="block-text">Temp Register</text>
  
  <!-- Flag Register -->
  <rect x="250" y="140" width="80" height="30" rx="3" class="register"/>
  <text x="290" y="160" class="block-text">Flag Register</text>
  
  <!-- Register Array -->
  <g>
    <rect x="120" y="200" width="200" height="120" rx="5" class="register"/>
    <text x="220" y="220" class="block-text">Register Array</text>
    
    <!-- Individual registers -->
    <rect x="130" y="230" width="35" height="20" rx="2" fill="#bfdbfe" stroke="#2563eb" stroke-width="1"/>
    <text x="147.5" y="243" class="label-text">B</text>
    <rect x="175" y="230" width="35" height="20" rx="2" fill="#bfdbfe" stroke="#2563eb" stroke-width="1"/>
    <text x="192.5" y="243" class="label-text">C</text>
    <rect x="220" y="230" width="35" height="20" rx="2" fill="#bfdbfe" stroke="#2563eb" stroke-width="1"/>
    <text x="237.5" y="243" class="label-text">D</text>
    <rect x="265" y="230" width="35" height="20" rx="2" fill="#bfdbfe" stroke="#2563eb" stroke-width="1"/>
    <text x="282.5" y="243" class="label-text">E</text>
    
    <rect x="130" y="260" width="35" height="20" rx="2" fill="#bfdbfe" stroke="#2563eb" stroke-width="1"/>
    <text x="147.5" y="273" class="label-text">H</text>
    <rect x="175" y="260" width="35" height="20" rx="2" fill="#bfdbfe" stroke="#2563eb" stroke-width="1"/>
    <text x="192.5" y="273" class="label-text">L</text>
    <rect x="220" y="260" width="80" height="20" rx="2" fill="#bfdbfe" stroke="#2563eb" stroke-width="1"/>
    <text x="260" y="273" class="label-text">SP (Stack Pointer)</text>
    
    <rect x="130" y="290" width="170" height="20" rx="2" fill="#bfdbfe" stroke="#2563eb" stroke-width="1"/>
    <text x="215" y="303" class="label-text">PC (Program Counter) - 16 bit</text>
  </g>
  
  <!-- Address Buffer -->
  <rect x="350" y="200" width="100" height="40" rx="5" class="memory"/>
  <text x="400" y="220" class="block-text">Address Buffer</text>
  <text x="400" y="235" class="block-text">&amp; Latch</text>
  
  <!-- Data Buffer -->
  <rect x="470" y="200" width="100" height="40" rx="5" class="memory"/>
  <text x="520" y="220" class="block-text">Data Buffer</text>
  <text x="520" y="235" class="block-text">&amp; Latch</text>
  
  <!-- Control Unit -->
  <rect x="350" y="280" width="220" height="80" rx="5" class="control"/>
  <text x="460" y="305" class="block-text">Instruction Decode &amp; Control Unit</text>
  <rect x="360" y="315" width="60" height="25" rx="3" fill="#fecaca" stroke="#dc2626" stroke-width="1"/>
  <text x="390" y="330" class="label-text">IR</text>
  <rect x="430" y="315" width="60" height="25" rx="3" fill="#fecaca" stroke="#dc2626" stroke-width="1"/>
  <text x="460" y="330" class="label-text">Decoder</text>
  <rect x="500" y="315" width="60" height="25" rx="3" fill="#fecaca" stroke="#dc2626" stroke-width="1"/>
  <text x="530" y="330" class="label-text">Timing</text>
  
  <!-- Interrupt Control -->
  <rect x="600" y="200" width="100" height="60" rx="5" class="control"/>
  <text x="650" y="220" class="block-text">Interrupt</text>
  <text x="650" y="235" class="block-text">Control</text>
  <text x="650" y="250" class="block-text">Logic</text>
  
  <!-- Serial I/O Control -->
  <rect x="600" y="280" width="100" height="60" rx="5" class="io"/>
  <text x="650" y="300" class="block-text">Serial I/O</text>
  <text x="650" y="315" class="block-text">Control</text>
  <text x="650" y="330" class="block-text">(SID/SOD)</text>
  
  <!-- Address Bus -->
  <g>
    <line x1="400" y1="240" x2="400" y2="380" class="bus"/>
    <line x1="100" y1="380" x2="800" y2="380" class="bus"/>
    <text x="450" y="375" class="bus-text">Address Bus (16-bit)</text>
    <text x="750" y="395" class="bus-text">A0-A15</text>
  </g>
  
  <!-- Data Bus -->
  <g>
    <line x1="520" y1="240" x2="520" y2="420" class="bus"/>
    <line x1="100" y1="420" x2="800" y2="420" class="bus"/>
    <text x="570" y="415" class="bus-text">Data Bus (8-bit)</text>
    <text x="750" y="435" class="bus-text">D0-D7</text>
  </g>
  
  <!-- Control Bus -->
  <g>
    <line x1="460" y1="360" x2="460" y2="460" class="bus"/>
    <line x1="100" y1="460" x2="800" y2="460" class="bus"/>
    <text x="510" y="455" class="bus-text">Control Bus</text>
    <text x="650" y="475" class="bus-text">RD, WR, ALE, IO/M, S0, S1</text>
  </g>
  
  <!-- External connections -->
  <g>
    <rect x="50" y="500" width="80" height="40" rx="5" class="memory"/>
    <text x="90" y="520" class="block-text">Memory</text>
    <text x="90" y="535" class="block-text">(RAM/ROM)</text>
    
    <rect x="150" y="500" width="80" height="40" rx="5" class="io"/>
    <text x="190" y="520" class="block-text">I/O Devices</text>
    
    <rect x="250" y="500" width="80" height="40" rx="5" class="control"/>
    <text x="290" y="520" class="block-text">Clock &amp;</text>
    <text x="290" y="535" class="block-text">Reset Circuit</text>
  </g>
  
  <!-- Connection lines -->
  <line x1="90" y1="500" x2="90" y2="380" class="wire"/>
  <line x1="90" y1="420" x2="90" y2="460" class="wire"/>
  <line x1="190" y1="500" x2="190" y2="420" class="wire"/>
  <line x1="190" y1="460" x2="190" y2="500" class="wire"/>
  
  <!-- Internal connections -->
  <line x1="330" y1="115" x2="350" y2="115" class="wire"/>
  <line x1="450" y1="115" x2="470" y2="115" class="wire"/>
  <line x1="290" y1="140" x2="290" y2="180" class="wire"/>
  <line x1="290" y1="180" x2="400" y2="180" class="wire"/>
  <line x1="400" y1="160" x2="400" y2="200" class="wire"/>
  
  <!-- Data flow arrows -->
  <defs>
    <marker id="arrowhead-small" markerWidth="8" markerHeight="6" refX="7" refY="3" orient="auto">
      <polygon points="0 0, 8 3, 0 6" fill="#374151"/>
    </marker>
  </defs>
  
  <path d="M320 220 L350 220" stroke="#374151" stroke-width="1.5" fill="none" marker-end="url(#arrowhead-small)"/>
  <path d="M450 220 L470 220" stroke="#374151" stroke-width="1.5" fill="none" marker-end="url(#arrowhead-small)"/>
  
  <!-- Legend -->
  <g class="label-text">
    <text x="50" y="600">Legend:</text>
    <rect x="50" y="610" width="15" height="10" class="alu"/>
    <text x="75" y="619">ALU Components</text>
    <rect x="180" y="610" width="15" height="10" class="register"/>
    <text x="205" y="619">Registers</text>
    <rect x="290" y="610" width="15" height="10" class="control"/>
    <text x="315" y="619">Control Logic</text>
    <rect x="50" y="630" width="15" height="10" class="memory"/>
    <text x="75" y="639">Memory Interface</text>
    <rect x="180" y="630" width="15" height="10" class="io"/>
    <text x="205" y="639">I/O Interface</text>
  </g>
  
  <!-- Key Features -->
  <g class="label-text">
    <text x="550" y="600">Key Features:</text>
    <text x="550" y="620">• 8-bit microprocessor</text>
    <text x="550" y="635">• 16-bit address bus (64KB memory)</text>
    <text x="550" y="650">• Single +5V power supply</text>
    <text x="550" y="665">• Built-in clock generator</text>
    <text x="700" y="620">• 5 interrupts (1 NMI + 4 maskable)</text>
    <text x="700" y="635">• 80 instructions</text>
    <text x="700" y="650">• 246 opcodes</text>
    <text x="700" y="665">• 40-pin DIP package</text>
  </g>
</svg>
