<svg xmlns="http://www.w3.org/2000/svg" viewBox="0 0 700 500" width="700" height="500">
  <defs>
    <style>
      .component-text { font-family: Arial, sans-serif; font-size: 11px; fill: #1f2937; font-weight: bold; text-anchor: middle; }
      .label-text { font-family: Arial, sans-serif; font-size: 9px; fill: #374151; }
      .title-text { font-family: Arial, sans-serif; font-size: 16px; fill: #111827; font-weight: bold; }
      .signal-text { font-family: Arial, sans-serif; font-size: 8px; fill: #059669; font-weight: bold; }
      .wire { stroke: #374151; stroke-width: 1.5; fill: none; }
      .bus { stroke: #059669; stroke-width: 2; fill: none; }
      .processor { fill: #dbeafe; stroke: #3b82f6; stroke-width: 2; }
      .latch { fill: #fef3c7; stroke: #f59e0b; stroke-width: 2; }
      .buffer { fill: #f0fdf4; stroke: #22c55e; stroke-width: 2; }
    </style>
  </defs>
  
  <!-- Title -->
  <text x="350" y="30" text-anchor="middle" class="title-text">8085 Address/Data Bus De-multiplexing</text>
  
  <!-- 8085 Microprocessor -->
  <rect x="50" y="100" width="120" height="120" rx="5" class="processor"/>
  <text x="110" y="130" class="component-text">8085</text>
  <text x="110" y="145" class="component-text">Microprocessor</text>
  
  <!-- Pins -->
  <g class="label-text">
    <rect x="170" y="115" width="20" height="8" fill="#bfdbfe" stroke="#2563eb" stroke-width="1"/>
    <text x="200" y="122">AD0</text>
    <rect x="170" y="128" width="20" height="8" fill="#bfdbfe" stroke="#2563eb" stroke-width="1"/>
    <text x="200" y="135">AD1</text>
    <rect x="170" y="141" width="20" height="8" fill="#bfdbfe" stroke="#2563eb" stroke-width="1"/>
    <text x="200" y="148">AD2</text>
    <rect x="170" y="154" width="20" height="8" fill="#bfdbfe" stroke="#2563eb" stroke-width="1"/>
    <text x="200" y="161">AD3</text>
    <rect x="170" y="167" width="20" height="8" fill="#bfdbfe" stroke="#2563eb" stroke-width="1"/>
    <text x="200" y="174">AD4</text>
    <rect x="170" y="180" width="20" height="8" fill="#bfdbfe" stroke="#2563eb" stroke-width="1"/>
    <text x="200" y="187">AD5</text>
    <rect x="170" y="193" width="20" height="8" fill="#bfdbfe" stroke="#2563eb" stroke-width="1"/>
    <text x="200" y="200">AD6</text>
    <rect x="170" y="206" width="20" height="8" fill="#bfdbfe" stroke="#2563eb" stroke-width="1"/>
    <text x="200" y="213">AD7</text>
    
    <rect x="170" y="250" width="20" height="8" fill="#fecaca" stroke="#dc2626" stroke-width="1"/>
    <text x="200" y="257">ALE</text>
  </g>
  
  <!-- 74LS373 Address Latch -->
  <rect x="300" y="150" width="100" height="80" rx="5" class="latch"/>
  <text x="350" y="175" class="component-text">74LS373</text>
  <text x="350" y="190" class="component-text">Octal Latch</text>
  <text x="350" y="205" class="component-text">with 3-state</text>
  <text x="350" y="220" class="component-text">Output</text>
  
  <!-- 74LS244 Data Buffer -->
  <rect x="300" y="280" width="100" height="60" rx="5" class="buffer"/>
  <text x="350" y="305" class="component-text">74LS244</text>
  <text x="350" y="320" class="component-text">Octal Buffer</text>
  <text x="350" y="335" class="component-text">3-state</text>
  
  <!-- Multiplexed AD Bus -->
  <g class="bus">
    <line x1="190" y1="119" x2="230" y2="119"/>
    <line x1="190" y1="132" x2="230" y2="132"/>
    <line x1="190" y1="145" x2="230" y2="145"/>
    <line x1="190" y1="158" x2="230" y2="158"/>
    <line x1="190" y1="171" x2="230" y2="171"/>
    <line x1="190" y1="184" x2="230" y2="184"/>
    <line x1="190" y1="197" x2="230" y2="197"/>
    <line x1="190" y1="210" x2="230" y2="210"/>
    
    <!-- Bundle representation -->
    <line x1="230" y1="119" x2="230" y2="210" stroke="#059669" stroke-width="4"/>
    <line x1="230" y1="165" x2="300" y2="165" class="bus"/>
    <text x="265" y="160" class="signal-text">AD0-AD7</text>
    
    <!-- To data buffer -->
    <line x1="230" y1="300" x2="300" y2="300" class="bus"/>
    <line x1="230" y1="165" x2="230" y2="300" class="bus"/>
  </g>
  
  <!-- ALE connection -->
  <line x1="190" y1="254" x2="280" y2="254" class="wire"/>
  <line x1="280" y1="254" x2="280" y2="180" class="wire"/>
  <line x1="280" y1="180" x2="300" y2="180" class="wire"/>
  <text x="240" y="250" class="label-text">ALE (Clock)</text>
  
  <!-- Separated Address Bus -->
  <g class="bus">
    <line x1="400" y1="165" x2="500" y2="165" class="bus"/>
    <text x="450" y="160" class="signal-text">A0-A7 (Address)</text>
    
    <!-- Individual address lines -->
    <line x1="500" y1="165" x2="500" y2="120" class="wire"/>
    <line x1="500" y1="120" x2="520" y2="120" class="wire"/>
    <text x="530" y="125" class="label-text">A0</text>
    <line x1="500" y1="130" x2="520" y2="130" class="wire"/>
    <text x="530" y="135" class="label-text">A1</text>
    <line x1="500" y1="140" x2="520" y2="140" class="wire"/>
    <text x="530" y="145" class="label-text">A2</text>
    <line x1="500" y1="150" x2="520" y2="150" class="wire"/>
    <text x="530" y="155" class="label-text">A3</text>
    <line x1="500" y1="160" x2="520" y2="160" class="wire"/>
    <text x="530" y="165" class="label-text">A4</text>
    <line x1="500" y1="170" x2="520" y2="170" class="wire"/>
    <text x="530" y="175" class="label-text">A5</text>
    <line x1="500" y1="180" x2="520" y2="180" class="wire"/>
    <text x="530" y="185" class="label-text">A6</text>
    <line x1="500" y1="190" x2="520" y2="190" class="wire"/>
    <text x="530" y="195" class="label-text">A7</text>
  </g>
  
  <!-- Separated Data Bus -->
  <g class="bus">
    <line x1="400" y1="300" x2="500" y2="300" class="bus"/>
    <text x="450" y="295" class="signal-text">D0-D7 (Data)</text>
    
    <!-- Individual data lines -->
    <line x1="500" y1="300" x2="500" y2="260" class="wire"/>
    <line x1="500" y1="260" x2="520" y2="260" class="wire"/>
    <text x="530" y="265" class="label-text">D0</text>
    <line x1="500" y1="270" x2="520" y2="270" class="wire"/>
    <text x="530" y="275" class="label-text">D1</text>
    <line x1="500" y1="280" x2="520" y2="280" class="wire"/>
    <text x="530" y="285" class="label-text">D2</text>
    <line x1="500" y1="290" x2="520" y2="290" class="wire"/>
    <text x="530" y="295" class="label-text">D3</text>
    <line x1="500" y1="300" x2="520" y2="300" class="wire"/>
    <text x="530" y="305" class="label-text">D4</text>
    <line x1="500" y1="310" x2="520" y2="310" class="wire"/>
    <text x="530" y="315" class="label-text">D5</text>
    <line x1="500" y1="320" x2="520" y2="320" class="wire"/>
    <text x="530" y="325" class="label-text">D6</text>
    <line x1="500" y1="330" x2="520" y2="330" class="wire"/>
    <text x="530" y="335" class="label-text">D7</text>
  </g>
  
  <!-- Enable signals -->
  <line x1="280" y1="320" x2="300" y2="320" class="wire"/>
  <text x="200" y="315" class="label-text">G1, G2 (Enable)</text>
  <line x1="200" y1="320" x2="280" y2="320" class="wire"/>
  
  <!-- Timing Diagram -->
  <rect x="50" y="380" width="600" height="100" rx="5" fill="none" stroke="#6b7280" stroke-width="1" stroke-dasharray="5,5"/>
  <text x="350" y="400" text-anchor="middle" class="component-text">Timing Relationship</text>
  
  <!-- CLK signal -->
  <g stroke="#374151" stroke-width="1.5" fill="none">
    <text x="60" y="420" class="label-text">CLK</text>
    <path d="M80 425 L90 425 L90 415 L100 415 L100 425 L110 425 L110 415 L120 415 L120 425 L140 425"/>
  </g>
  
  <!-- ALE signal -->
  <g stroke="#f59e0b" stroke-width="1.5" fill="none">
    <text x="60" y="440" class="label-text">ALE</text>
    <path d="M80 445 L85 445 L85 435 L95 435 L95 445 L140 445"/>
  </g>
  
  <!-- AD0-AD7 signal -->
  <g stroke="#059669" stroke-width="1.5" fill="none">
    <text x="60" y="460" class="label-text">AD0-AD7</text>
    <path d="M80 465 L85 460 L95 460 L100 465 L110 465 L115 460 L140 460"/>
    <text x="88" y="455" class="signal-text" font-size="7">Addr</text>
    <text x="125" y="455" class="signal-text" font-size="7">Data</text>
  </g>
  
  <!-- Time markers -->
  <line x1="85" y1="475" x2="85" y2="480" stroke="#6b7280" stroke-width="1"/>
  <text x="85" y="485" text-anchor="middle" class="label-text" font-size="7">T1</text>
  <line x1="95" y1="475" x2="95" y2="480" stroke="#6b7280" stroke-width="1"/>
  <text x="95" y="485" text-anchor="middle" class="label-text" font-size="7">T2</text>
  <line x1="115" y1="475" x2="115" y2="480" stroke="#6b7280" stroke-width="1"/>
  <text x="115" y="485" text-anchor="middle" class="label-text" font-size="7">T3</text>
  
  <!-- Function description -->
  <g class="label-text">
    <text x="200" y="420">Function:</text>
    <text x="200" y="435">1. ALE goes HIGH during T1</text>
    <text x="200" y="450">2. AD0-AD7 contains address</text>
    <text x="200" y="465">3. Address latched on ALE falling edge</text>
    
    <text x="400" y="420">Result:</text>
    <text x="400" y="435">• Address held stable on A0-A7</text>
    <text x="400" y="450">• Data can flow on D0-D7</text>
    <text x="400" y="465">• Separate address &amp; data buses</text>
  </g>
</svg>
