<?xml version="1.0" encoding="UTF-8"?>
<svg width="800" height="600" xmlns="http://www.w3.org/2000/svg">
  <!-- Background -->
  <rect width="800" height="600" fill="#f5f5f5"/>
  
  <!-- Title -->
  <text x="400" y="40" font-family="Arial" font-size="24" font-weight="bold" text-anchor="middle" fill="#333">Caesar Cipher</text>
  <text x="400" y="70" font-family="Arial" font-size="16" font-style="italic" text-anchor="middle" fill="#666">Shifting letters by a fixed number of positions</text>
  
  <!-- Caesar's portrait (simplified) -->
  <circle cx="100" cy="120" r="50" fill="#d4a76a" stroke="#8b6b43" stroke-width="2"/>
  <path d="M 80 100 C 90 90, 110 90, 120 100" stroke="#333" stroke-width="2" fill="none"/>
  <circle cx="90" cy="110" r="3" fill="#333"/>
  <circle cx="110" cy="110" r="3" fill="#333"/>
  <path d="M 75 130 C 90 150, 110 150, 125 130" stroke="#333" stroke-width="2" fill="none"/>
  <path d="M 100 70 C 70 80, 70 140, 80 160 C 95 170, 105 170, 120 160 C 130 140, 130 80, 100 70" stroke="#8b6b43" stroke-width="2" fill="none"/>
  
  <!-- Historical note -->
  <rect x="170" y="90" width="200" height="80" rx="10" fill="#fff" stroke="#ccc" stroke-width="1"/>
  <text x="180" y="110" font-family="Arial" font-size="12" fill="#666">Historical Note:</text>
  <text x="180" y="130" font-family="Arial" font-size="11" fill="#333">Used by Julius Caesar to</text>
  <text x="180" y="145" font-family="Arial" font-size="11" fill="#333">communicate with his generals.</text>
  <text x="180" y="160" font-family="Arial" font-size="11" fill="#333">Typically used a shift of 3.</text>
  
  <!-- Alphabet Shift Visualization -->
  <text x="400" y="200" font-family="Arial" font-size="18" font-weight="bold" text-anchor="middle" fill="#333">Alphabet Shift (Key = 3)</text>
  
  <!-- Original Alphabet -->
  <rect x="100" y="220" width="600" height="40" fill="#e6f7ff" stroke="#0099cc" stroke-width="1"/>
  <text x="100" y="245" font-family="Arial" font-size="14" fill="#333">Original:</text>
  <text x="170" y="245" font-family="Courier New" font-size="18" font-weight="bold" fill="#0066cc">A B C D E F G H I J K L M N O P Q R S T U V W X Y Z</text>
  
  <!-- Shifted Alphabet -->
  <rect x="100" y="270" width="600" height="40" fill="#fff2e6" stroke="#ff9933" stroke-width="1"/>
  <text x="100" y="295" font-family="Arial" font-size="14" fill="#333">Shifted:</text>
  <text x="170" y="295" font-family="Courier New" font-size="18" font-weight="bold" fill="#cc6600">D E F G H I J K L M N O P Q R S T U V W X Y Z A B C</text>
  
  <!-- Arrows showing the shift -->
  <path d="M 170 255 L 170 280" stroke="#333" stroke-width="1" marker-end="url(#arrowhead)"/>
  <path d="M 190 255 L 190 280" stroke="#333" stroke-width="1" marker-end="url(#arrowhead)"/>
  <path d="M 210 255 L 210 280" stroke="#333" stroke-width="1" marker-end="url(#arrowhead)"/>
  <path d="M 750 255 L 750 280" stroke="#333" stroke-width="1" marker-end="url(#arrowhead)"/>
  
  <!-- Arrowhead definition -->
  <defs>
    <marker id="arrowhead" markerWidth="10" markerHeight="7" refX="0" refY="3.5" orient="auto">
      <polygon points="0 0, 10 3.5, 0 7" fill="#333"/>
    </marker>
  </defs>
  
  <!-- Example -->
  <rect x="100" y="340" width="600" height="200" rx="10" fill="#ffffff" stroke="#666" stroke-width="2"/>
  <text x="400" y="370" font-family="Arial" font-size="18" font-weight="bold" text-anchor="middle" fill="#333">Encryption Example</text>
  
  <!-- Plaintext -->
  <text x="120" y="400" font-family="Arial" font-size="16" fill="#333">Plaintext:</text>
  <rect x="220" y="385" width="100" height="30" fill="#e6f7ff" stroke="#0099cc" stroke-width="1"/>
  <text x="270" y="405" font-family="Courier New" font-size="18" font-weight="bold" text-anchor="middle" fill="#0066cc">HELLO</text>
  
  <!-- Encryption Process -->
  <path d="M 320 400 L 380 400" stroke="#333" stroke-width="2" marker-end="url(#arrowhead)"/>
  <text x="350" y="390" font-family="Arial" font-size="14" text-anchor="middle" fill="#333">Shift by 3</text>
  
  <!-- Ciphertext -->
  <text x="400" y="400" font-family="Arial" font-size="16" fill="#333">Ciphertext:</text>
  <rect x="500" y="385" width="100" height="30" fill="#fff2e6" stroke="#ff9933" stroke-width="1"/>
  <text x="550" y="405" font-family="Courier New" font-size="18" font-weight="bold" text-anchor="middle" fill="#cc6600">KHOOR</text>
  
  <!-- Letter-by-Letter Breakdown -->
  <line x1="100" y1="430" x2="700" y2="430" stroke="#ccc" stroke-width="1" stroke-dasharray="5,5"/>
  <text x="120" y="450" font-family="Arial" font-size="14" fill="#333">Character-by-Character:</text>
  
  <!-- H → K -->
  <rect x="120" y="460" width="100" height="60" fill="#e6f7ff" stroke="#0099cc" stroke-width="1"/>
  <text x="170" y="480" font-family="Courier New" font-size="16" font-weight="bold" text-anchor="middle" fill="#0066cc">H</text>
  <text x="170" y="500" font-family="Arial" font-size="12" text-anchor="middle" fill="#333">(position 8)</text>
  <path d="M 220 490 L 260 490" stroke="#333" stroke-width="1" marker-end="url(#arrowhead)"/>
  <text x="240" y="480" font-family="Arial" font-size="12" text-anchor="middle" fill="#333">+3</text>
  <rect x="260" y="460" width="100" height="60" fill="#fff2e6" stroke="#ff9933" stroke-width="1"/>
  <text x="310" y="480" font-family="Courier New" font-size="16" font-weight="bold" text-anchor="middle" fill="#cc6600">K</text>
  <text x="310" y="500" font-family="Arial" font-size="12" text-anchor="middle" fill="#333">(position 11)</text>
  
  <!-- E → H -->
  <rect x="380" y="460" width="100" height="60" fill="#e6f7ff" stroke="#0099cc" stroke-width="1"/>
  <text x="430" y="480" font-family="Courier New" font-size="16" font-weight="bold" text-anchor="middle" fill="#0066cc">E</text>
  <text x="430" y="500" font-family="Arial" font-size="12" text-anchor="middle" fill="#333">(position 5)</text>
  <path d="M 480 490 L 520 490" stroke="#333" stroke-width="1" marker-end="url(#arrowhead)"/>
  <text x="500" y="480" font-family="Arial" font-size="12" text-anchor="middle" fill="#333">+3</text>
  <rect x="520" y="460" width="100" height="60" fill="#fff2e6" stroke="#ff9933" stroke-width="1"/>
  <text x="570" y="480" font-family="Courier New" font-size="16" font-weight="bold" text-anchor="middle" fill="#cc6600">H</text>
  <text x="570" y="500" font-family="Arial" font-size="12" text-anchor="middle" fill="#333">(position 8)</text>
  
  <!-- Security Note -->
  <rect x="150" y="540" width="500" height="30" rx="5" fill="#ffe6e6" stroke="#ff6666" stroke-width="1"/>
  <text x="400" y="560" font-family="Arial" font-size="14" text-anchor="middle" fill="#cc0000">
    Security Note: Caesar cipher is easily broken with only 25 possible keys
  </text>
</svg>
