<?xml version="1.0" encoding="UTF-8"?>
<svg width="1000" height="800" viewBox="0 0 1000 800" xmlns="http://www.w3.org/2000/svg">
  <title>firewall types architecture</title>
  <defs>
    <linearGradient id="gradient" x1="0%" y1="0%" x2="100%" y2="100%">
      <stop offset="0%" style="stop-color:#dc2626;stop-opacity:1" />
      <stop offset="100%" style="stop-color:#b91c1c;stop-opacity:1" />
    </linearGradient>
    <filter id="shadow" x="-50%" y="-50%" width="200%" height="200%">
      <feDropShadow dx="2" dy="2" stdDeviation="3" flood-color="#00000040"/>
    </filter>
    <marker id="arrowhead" markerWidth="10" markerHeight="7" refX="9" refY="3.5" orient="auto">
      <polygon points="0 0, 10 3.5, 0 7" fill="#374151" />
    </marker>
    <marker id="blockedArrow" markerWidth="10" markerHeight="7" refX="9" refY="3.5" orient="auto">
      <polygon points="0 0, 10 3.5, 0 7" fill="#dc2626" />
    </marker>
  </defs>
  
  <!-- Background -->
  <rect width="1000" height="800" fill="#f8fafc"/>
  
  <!-- Header -->
  <rect x="50" y="20" width="900" height="60" fill="url(#gradient)" rx="10" filter="url(#shadow)"/>
  <text x="500" y="55" text-anchor="middle" fill="white" font-size="24" font-weight="bold">Firewall Types &amp; Architecture</text>
  
  <!-- Firewall Basic Concept -->
  <rect x="50" y="100" width="900" height="120" fill="white" stroke="#e2e8f0" stroke-width="2" rx="8" filter="url(#shadow)"/>
  <text x="60" y="125" fill="#374151" font-size="18" font-weight="bold">Firewall: Network Security Barrier</text>
  
  <!-- Network Diagram -->
  <g transform="translate(100, 140)">
    <!-- Internet -->
    <circle cx="50" cy="40" r="30" fill="#fecaca" stroke="#dc2626" stroke-width="2"/>
    <text x="50" y="35" text-anchor="middle" fill="#dc2626" font-size="12" font-weight="bold">Internet</text>
    <text x="50" y="50" text-anchor="middle" fill="#dc2626" font-size="12">(Untrusted)</text>
    
    <!-- Firewall -->
    <rect x="150" y="20" width="80" height="40" fill="#fef3c7" stroke="#f59e0b" stroke-width="3" rx="6"/>
    <text x="190" y="35" text-anchor="middle" fill="#92400e" font-size="12" font-weight="bold">FIREWALL</text>
    <text x="190" y="50" text-anchor="middle" fill="#92400e" font-size="12">Security Barrier</text>
    
    <!-- Internal Network -->
    <circle cx="320" cy="40" r="30" fill="#dcfce7" stroke="#16a34a" stroke-width="2"/>
    <text x="320" y="35" text-anchor="middle" fill="#16a34a" font-size="12" font-weight="bold">LAN</text>
    <text x="320" y="50" text-anchor="middle" fill="#16a34a" font-size="12">(Trusted)</text>
    
    <!-- Traffic arrows -->
    <line x1="80" y1="35" x2="145" y2="35" stroke="#374151" stroke-width="2" marker-end="url(#arrowhead)"/>
    <text x="112" y="30" text-anchor="middle" fill="#374151" font-size="12">Incoming</text>
    
    <line x1="235" y1="45" x2="290" y2="45" stroke="#16a34a" stroke-width="2" marker-end="url(#arrowhead)"/>
    <text x="262" y="40" text-anchor="middle" fill="#16a34a" font-size="12">Allowed</text>
    
    <!-- Blocked traffic -->
    <line x1="80" y1="50" x2="145" y2="50" stroke="#dc2626" stroke-width="2" stroke-dasharray="4,4"/>
    <text x="112" y="65" text-anchor="middle" fill="#dc2626" font-size="12">Blocked</text>
    <text x="190" y="75" text-anchor="middle" fill="#dc2626" font-size="12">❌</text>
  </g>
  
  <!-- Functions -->
  <text x="450" y="160" fill="#374151" font-size="14" font-weight="bold">Key Functions:</text>
  <text x="450" y="180" fill="#374151" font-size="12">• Traffic Monitoring &amp; Control • Access Policy Enforcement</text>
  <text x="450" y="195" fill="#374151" font-size="12">• Threat Detection &amp; Prevention • Network Segmentation</text>
  <text x="450" y="210" fill="#374151" font-size="12">• Logging &amp; Reporting • VPN Support</text>
  
  <!-- Firewall Types -->
  <rect x="50" y="240" width="900" height="350" fill="white" stroke="#e2e8f0" stroke-width="2" rx="8" filter="url(#shadow)"/>
  <text x="60" y="265" fill="#374151" font-size="18" font-weight="bold">Types of Firewalls</text>
  
  <!-- Packet Filter Firewall -->
  <rect x="80" y="280" width="260" height="140" fill="#fef9e7" stroke="#d97706" stroke-width="2" rx="6"/>
  <text x="210" y="300" text-anchor="middle" fill="#92400e" font-size="16" font-weight="bold">Packet Filter Firewall</text>
  <text x="210" y="320" text-anchor="middle" fill="#92400e" font-size="12">(Network Layer - Layer 3)</text>
  
  <!-- Packet inspection diagram -->
  <g transform="translate(100, 330)">
    <rect x="0" y="0" width="60" height="20" fill="#fed7d7" stroke="#dc2626" stroke-width="1" rx="2"/>
    <text x="30" y="13" text-anchor="middle" fill="#dc2626" font-size="12">Packet</text>
    
    <rect x="80" y="0" width="40" height="20" fill="#fef3c7" stroke="#f59e0b" stroke-width="2" rx="2"/>
    <text x="100" y="8" text-anchor="middle" fill="#92400e" font-size="12">Filter</text>
    <text x="100" y="16" text-anchor="middle" fill="#92400e" font-size="12">Rules</text>
    
    <rect x="140" y="0" width="60" height="20" fill="#dcfce7" stroke="#16a34a" stroke-width="1" rx="2"/>
    <text x="170" y="8" text-anchor="middle" fill="#16a34a" font-size="12">Allow/</text>
    <text x="170" y="16" text-anchor="middle" fill="#16a34a" font-size="12">Deny</text>
    
    <!-- Arrows -->
    <line x1="65" y1="10" x2="75" y2="10" stroke="#374151" stroke-width="1" marker-end="url(#arrowhead)"/>
    <line x1="125" y1="10" x2="135" y2="10" stroke="#374151" stroke-width="1" marker-end="url(#arrowhead)"/>
  </g>
  
  <text x="90" y="370" fill="#92400e" font-size="12">• Examines packet headers</text>
  <text x="90" y="385" fill="#92400e" font-size="12">• IP addresses, ports, protocols</text>
  <text x="90" y="400" fill="#92400e" font-size="12">• Fast and efficient</text>
  <text x="90" y="415" fill="#92400e" font-size="12">• Basic filtering capabilities</text>
  
  <!-- Application Proxy Firewall -->
  <rect x="360" y="280" width="260" height="140" fill="#e0f2fe" stroke="#0891b2" stroke-width="2" rx="6"/>
  <text x="490" y="300" text-anchor="middle" fill="#0e7490" font-size="16" font-weight="bold">Application Proxy</text>
  <text x="490" y="320" text-anchor="middle" fill="#0e7490" font-size="12">(Application Layer - Layer 7)</text>
  
  <!-- Proxy diagram -->
  <g transform="translate(380, 330)">
    <circle cx="20" cy="10" r="8" fill="#bfdbfe" stroke="#3b82f6" stroke-width="1"/>
    <text x="20" y="13" text-anchor="middle" fill="#1d4ed8" font-size="12">Client</text>
    
    <rect x="50" y="5" width="40" height="10" fill="#0891b2" stroke="#0e7490" stroke-width="2" rx="2"/>
    <text x="70" y="12" text-anchor="middle" fill="white" font-size="12">Proxy</text>
    
    <circle cx="120" cy="10" r="8" fill="#fed7d7" stroke="#dc2626" stroke-width="1"/>
    <text x="120" y="13" text-anchor="middle" fill="#dc2626" font-size="12">Server</text>
    
    <!-- Arrows -->
    <line x1="30" y1="10" x2="45" y2="10" stroke="#374151" stroke-width="1" marker-end="url(#arrowhead)"/>
    <line x1="95" y1="10" x2="110" y2="10" stroke="#374151" stroke-width="1" marker-end="url(#arrowhead)"/>
  </g>
  
  <text x="370" y="370" fill="#0e7490" font-size="12">• Deep packet inspection</text>
  <text x="370" y="385" fill="#0e7490" font-size="12">• Application-aware filtering</text>
  <text x="370" y="400" fill="#0e7490" font-size="12">• Content analysis</text>
  <text x="370" y="415" fill="#0e7490" font-size="12">• High security, slower</text>
  
  <!-- Personal Firewall -->
  <rect x="640" y="280" width="260" height="140" fill="#f0e6ff" stroke="#9f7aea" stroke-width="2" rx="6"/>
  <text x="770" y="300" text-anchor="middle" fill="#553c9a" font-size="16" font-weight="bold">Personal Firewall</text>
  <text x="770" y="320" text-anchor="middle" fill="#553c9a" font-size="12">(Host-based Protection)</text>
  
  <!-- Device protection diagram -->
  <g transform="translate(680, 330)">
    <rect x="0" y="0" width="40" height="30" fill="#e0e7ff" stroke="#6366f1" stroke-width="2" rx="4"/>
    <rect x="5" y="5" width="30" height="20" fill="#6366f1" opacity="0.3"/>
    <text x="20" y="17" text-anchor="middle" fill="#4f46e5" font-size="12">Device</text>
    
    <!-- Shield -->
    <circle cx="70" cy="15" r="12" fill="#9f7aea" opacity="0.3" stroke="#7c3aed" stroke-width="2"/>
    <text x="70" y="18" text-anchor="middle" fill="#7c3aed" font-size="12">🛡️</text>
  </g>
  
  <text x="650" y="370" fill="#553c9a" font-size="12">• Software-based protection</text>
  <text x="650" y="385" fill="#553c9a" font-size="12">• Individual device security</text>
  <text x="650" y="400" fill="#553c9a" font-size="12">• User-configurable rules</text>
  <text x="650" y="415" fill="#553c9a" font-size="12">• Endpoint protection</text>
  
  <!-- Stateful vs Stateless -->
  <rect x="80" y="440" width="260" height="120" fill="#fefce8" stroke="#ca8a04" stroke-width="2" rx="6"/>
  <text x="210" y="460" text-anchor="middle" fill="#a16207" font-size="16" font-weight="bold">Stateful Inspection</text>
  
  <!-- Connection tracking -->
  <g transform="translate(100, 475)">
    <rect x="0" y="0" width="30" height="15" fill="#fbbf24" stroke="#f59e0b" stroke-width="1" rx="2"/>
    <text x="15" y="10" text-anchor="middle" fill="#92400e" font-size="12">Conn1</text>
    
    <rect x="40" y="0" width="30" height="15" fill="#fbbf24" stroke="#f59e0b" stroke-width="1" rx="2"/>
    <text x="55" y="10" text-anchor="middle" fill="#92400e" font-size="12">Conn2</text>
    
    <rect x="80" y="0" width="60" height="15" fill="#ca8a04" stroke="#a16207" stroke-width="2" rx="2"/>
    <text x="110" y="10" text-anchor="middle" fill="white" font-size="12">State Table</text>
    
    <rect x="0" y="25" width="140" height="15" fill="#fef3c7" stroke="#f59e0b" stroke-width="1" rx="2"/>
    <text x="70" y="35" text-anchor="middle" fill="#92400e" font-size="12">Tracks connection state</text>
  </g>
  
  <text x="90" y="515" fill="#a16207" font-size="12">• Tracks connection state</text>
  <text x="90" y="530" fill="#a16207" font-size="12">• Context-aware decisions</text>
  <text x="90" y="545" fill="#a16207" font-size="12">• Better security</text>
  
  <!-- Next-Gen Firewall -->
  <rect x="360" y="440" width="260" height="120" fill="#ecfdf5" stroke="#10b981" stroke-width="2" rx="6"/>
  <text x="490" y="460" text-anchor="middle" fill="#059669" font-size="16" font-weight="bold">Next-Gen Firewall</text>
  <text x="490" y="475" text-anchor="middle" fill="#059669" font-size="12">(NGFW)</text>
  
  <!-- NGFW features -->
  <g transform="translate(380, 485)">
    <rect x="0" y="0" width="40" height="12" fill="#10b981" opacity="0.3" stroke="#059669" stroke-width="1" rx="2"/>
    <text x="20" y="8" text-anchor="middle" fill="#059669" font-size="12">IPS</text>
    
    <rect x="50" y="0" width="40" height="12" fill="#10b981" opacity="0.3" stroke="#059669" stroke-width="1" rx="2"/>
    <text x="70" y="8" text-anchor="middle" fill="#059669" font-size="12">DPI</text>
    
    <rect x="100" y="0" width="40" height="12" fill="#10b981" opacity="0.3" stroke="#059669" stroke-width="1" rx="2"/>
    <text x="120" y="8" text-anchor="middle" fill="#059669" font-size="12">SSL</text>
    
    <rect x="150" y="0" width="40" height="12" fill="#10b981" opacity="0.3" stroke="#059669" stroke-width="1" rx="2"/>
    <text x="170" y="8" text-anchor="middle" fill="#059669" font-size="12">App ID</text>
  </g>
  
  <text x="370" y="515" fill="#059669" font-size="12">• Intrusion prevention (IPS)</text>
  <text x="370" y="530" fill="#059669" font-size="12">• Application identification</text>
  <text x="370" y="545" fill="#059669" font-size="12">• SSL inspection, sandboxing</text>
  
  <!-- Cloud Firewall -->
  <rect x="640" y="440" width="260" height="120" fill="#f0f9ff" stroke="#0284c7" stroke-width="2" rx="6"/>
  <text x="770" y="460" text-anchor="middle" fill="#0369a1" font-size="16" font-weight="bold">Cloud Firewall</text>
  <text x="770" y="475" text-anchor="middle" fill="#0369a1" font-size="12">(FWaaS)</text>
  
  <!-- Cloud diagram -->
  <g transform="translate(680, 485)">
    <path d="M 20 10 Q 15 5 25 5 Q 35 0 45 5 Q 55 0 65 5 Q 75 5 70 10 Q 75 15 65 15 Q 55 20 45 15 Q 35 20 25 15 Q 15 15 20 10" fill="#0284c7" opacity="0.3" stroke="#0369a1" stroke-width="1"/>
    <text x="45" y="13" text-anchor="middle" fill="#0369a1" font-size="12">Cloud</text>
  </g>
  
  <text x="650" y="515" fill="#0369a1" font-size="12">• Cloud-based service</text>
  <text x="650" y="530" fill="#0369a1" font-size="12">• Scalable protection</text>
  <text x="650" y="545" fill="#0369a1" font-size="12">• Remote management</text>
  
  <!-- Comparison Table -->
  <rect x="50" y="610" width="900" height="170" fill="white" stroke="#e2e8f0" stroke-width="2" rx="8" filter="url(#shadow)"/>
  <text x="60" y="635" fill="#374151" font-size="18" font-weight="bold">Firewall Comparison</text>
  
  <!-- Table headers -->
  <g transform="translate(80, 650)">
    <rect x="0" y="0" width="120" height="25" fill="#f1f5f9" stroke="#cbd5e1" stroke-width="1"/>
    <rect x="120" y="0" width="150" height="25" fill="#f1f5f9" stroke="#cbd5e1" stroke-width="1"/>
    <rect x="270" y="0" width="150" height="25" fill="#f1f5f9" stroke="#cbd5e1" stroke-width="1"/>
    <rect x="420" y="0" width="150" height="25" fill="#f1f5f9" stroke="#cbd5e1" stroke-width="1"/>
    <rect x="570" y="0" width="150" height="25" fill="#f1f5f9" stroke="#cbd5e1" stroke-width="1"/>
    
    <text x="60" y="15" text-anchor="middle" fill="#374151" font-size="12" font-weight="bold">Feature</text>
    <text x="195" y="15" text-anchor="middle" fill="#374151" font-size="12" font-weight="bold">Packet Filter</text>
    <text x="345" y="15" text-anchor="middle" fill="#374151" font-size="12" font-weight="bold">Application Proxy</text>
    <text x="495" y="15" text-anchor="middle" fill="#374151" font-size="12" font-weight="bold">Personal</text>
    <text x="645" y="15" text-anchor="middle" fill="#374151" font-size="12" font-weight="bold">Next-Gen</text>
    
    <!-- Rows -->
    <rect x="0" y="25" width="120" height="20" fill="white" stroke="#cbd5e1" stroke-width="1"/>
    <rect x="120" y="25" width="150" height="20" fill="white" stroke="#cbd5e1" stroke-width="1"/>
    <rect x="270" y="25" width="150" height="20" fill="white" stroke="#cbd5e1" stroke-width="1"/>
    <rect x="420" y="25" width="150" height="20" fill="white" stroke="#cbd5e1" stroke-width="1"/>
    <rect x="570" y="25" width="150" height="20" fill="white" stroke="#cbd5e1" stroke-width="1"/>
    
    <text x="10" y="38" fill="#374151" font-size="12">OSI Layer</text>
    <text x="195" y="38" text-anchor="middle" fill="#374151" font-size="12">Layer 3 (Network)</text>
    <text x="345" y="38" text-anchor="middle" fill="#374151" font-size="12">Layer 7 (Application)</text>
    <text x="495" y="38" text-anchor="middle" fill="#374151" font-size="12">All Layers</text>
    <text x="645" y="38" text-anchor="middle" fill="#374151" font-size="12">All Layers</text>
    
    <rect x="0" y="45" width="120" height="20" fill="#f8fafc" stroke="#cbd5e1" stroke-width="1"/>
    <rect x="120" y="45" width="150" height="20" fill="#f8fafc" stroke="#cbd5e1" stroke-width="1"/>
    <rect x="270" y="45" width="150" height="20" fill="#f8fafc" stroke="#cbd5e1" stroke-width="1"/>
    <rect x="420" y="45" width="150" height="20" fill="#f8fafc" stroke="#cbd5e1" stroke-width="1"/>
    <rect x="570" y="45" width="150" height="20" fill="#f8fafc" stroke="#cbd5e1" stroke-width="1"/>
    
    <text x="10" y="58" fill="#374151" font-size="12">Performance</text>
    <text x="195" y="58" text-anchor="middle" fill="#16a34a" font-size="12">Fast</text>
    <text x="345" y="58" text-anchor="middle" fill="#dc2626" font-size="12">Slow</text>
    <text x="495" y="58" text-anchor="middle" fill="#f59e0b" font-size="12">Medium</text>
    <text x="645" y="58" text-anchor="middle" fill="#f59e0b" font-size="12">Medium</text>
    
    <rect x="0" y="65" width="120" height="20" fill="white" stroke="#cbd5e1" stroke-width="1"/>
    <rect x="120" y="65" width="150" height="20" fill="white" stroke="#cbd5e1" stroke-width="1"/>
    <rect x="270" y="65" width="150" height="20" fill="white" stroke="#cbd5e1" stroke-width="1"/>
    <rect x="420" y="65" width="150" height="20" fill="white" stroke="#cbd5e1" stroke-width="1"/>
    <rect x="570" y="65" width="150" height="20" fill="white" stroke="#cbd5e1" stroke-width="1"/>
    
    <text x="10" y="78" fill="#374151" font-size="12">Security Level</text>
    <text x="195" y="78" text-anchor="middle" fill="#f59e0b" font-size="12">Basic</text>
    <text x="345" y="78" text-anchor="middle" fill="#16a34a" font-size="12">High</text>
    <text x="495" y="78" text-anchor="middle" fill="#f59e0b" font-size="12">Medium</text>
    <text x="645" y="78" text-anchor="middle" fill="#16a34a" font-size="12">Very High</text>
    
    <rect x="0" y="85" width="120" height="20" fill="#f8fafc" stroke="#cbd5e1" stroke-width="1"/>
    <rect x="120" y="85" width="150" height="20" fill="#f8fafc" stroke="#cbd5e1" stroke-width="1"/>
    <rect x="270" y="85" width="150" height="20" fill="#f8fafc" stroke="#cbd5e1" stroke-width="1"/>
    <rect x="420" y="85" width="150" height="20" fill="#f8fafc" stroke="#cbd5e1" stroke-width="1"/>
    <rect x="570" y="85" width="150" height="20" fill="#f8fafc" stroke="#cbd5e1" stroke-width="1"/>
    
    <text x="10" y="98" fill="#374151" font-size="12">Deployment</text>
    <text x="195" y="98" text-anchor="middle" fill="#374151" font-size="12">Network Gateway</text>
    <text x="345" y="98" text-anchor="middle" fill="#374151" font-size="12">Network Gateway</text>
    <text x="495" y="98" text-anchor="middle" fill="#374151" font-size="12">Individual Device</text>
    <text x="645" y="98" text-anchor="middle" fill="#374151" font-size="12">Network/Cloud</text>
  </g>
</svg>
