<?xml version="1.0" encoding="UTF-8"?>
<svg width="800" height="600" viewBox="0 0 800 600" xmlns="http://www.w3.org/2000/svg">
  <title>route cipher</title>

  <defs>
    <linearGradient id="gradient" x1="0%" y1="0%" x2="100%" y2="100%">
      <stop offset="0%" style="stop-color:#f59e0b;stop-opacity:1" />
      <stop offset="100%" style="stop-color:#d97706;stop-opacity:1" />
    </linearGradient>
    <filter id="shadow" x="-50%" y="-50%" width="200%" height="200%">
      <feDropShadow dx="2" dy="2" stdDeviation="3" flood-color="#00000040"/>
    </filter>
    <marker id="arrowhead" markerWidth="10" markerHeight="7" refX="9" refY="3.5" orient="auto">
      <polygon points="0 0, 10 3.5, 0 7" fill="#dc2626" />
    </marker>
  </defs>
  
  <!-- Background -->
  <rect width="800" height="600" fill="#f8fafc"/>
  
  <!-- Header -->
  <rect x="50" y="20" width="700" height="60" fill="url(#gradient)" rx="10" filter="url(#shadow)"/>
  <text x="400" y="55" text-anchor="middle" fill="white" font-size="24" font-weight="bold">Route Cipher - Grid-Based Transposition</text>
  
  <!-- Plaintext Section -->
  <rect x="50" y="100" width="700" height="80" fill="white" stroke="#e2e8f0" stroke-width="2" rx="8" filter="url(#shadow)"/>
  <text x="60" y="125" fill="#374151" font-size="18" font-weight="bold">Plaintext: "HELLO WORLD"</text>
  <text x="60" y="150" fill="#374151" font-size="14">Remove spaces: "HELLOWORLD" (10 characters)</text>
  <text x="60" y="170" fill="#374151" font-size="14">Grid dimensions: 5×2 (5 columns, 2 rows)</text>
  
  <!-- Grid Section -->
  <rect x="50" y="200" width="350" height="180" fill="white" stroke="#e2e8f0" stroke-width="2" rx="8" filter="url(#shadow)"/>
  <text x="60" y="225" fill="#374151" font-size="18" font-weight="bold">Step 1: Fill Grid Row by Row</text>
  
  <!-- Grid -->
  <g transform="translate(80, 240)">
    <!-- Grid cells -->
    <rect x="0" y="0" width="50" height="50" fill="#f1f5f9" stroke="#374151" stroke-width="2"/>
    <rect x="50" y="0" width="50" height="50" fill="#f1f5f9" stroke="#374151" stroke-width="2"/>
    <rect x="100" y="0" width="50" height="50" fill="#f1f5f9" stroke="#374151" stroke-width="2"/>
    <rect x="150" y="0" width="50" height="50" fill="#f1f5f9" stroke="#374151" stroke-width="2"/>
    <rect x="200" y="0" width="50" height="50" fill="#f1f5f9" stroke="#374151" stroke-width="2"/>
    
    <rect x="0" y="50" width="50" height="50" fill="#f1f5f9" stroke="#374151" stroke-width="2"/>
    <rect x="50" y="50" width="50" height="50" fill="#f1f5f9" stroke="#374151" stroke-width="2"/>
    <rect x="100" y="50" width="50" height="50" fill="#f1f5f9" stroke="#374151" stroke-width="2"/>
    <rect x="150" y="50" width="50" height="50" fill="#f1f5f9" stroke="#374151" stroke-width="2"/>
    <rect x="200" y="50" width="50" height="50" fill="#f1f5f9" stroke="#374151" stroke-width="2"/>
    
    <!-- Letters -->
    <text x="25" y="32" text-anchor="middle" fill="#374151" font-size="18" font-weight="bold">H</text>
    <text x="75" y="32" text-anchor="middle" fill="#374151" font-size="18" font-weight="bold">E</text>
    <text x="125" y="32" text-anchor="middle" fill="#374151" font-size="18" font-weight="bold">L</text>
    <text x="175" y="32" text-anchor="middle" fill="#374151" font-size="18" font-weight="bold">L</text>
    <text x="225" y="32" text-anchor="middle" fill="#374151" font-size="18" font-weight="bold">O</text>
    
    <text x="25" y="82" text-anchor="middle" fill="#374151" font-size="18" font-weight="bold">W</text>
    <text x="75" y="82" text-anchor="middle" fill="#374151" font-size="18" font-weight="bold">O</text>
    <text x="125" y="82" text-anchor="middle" fill="#374151" font-size="18" font-weight="bold">R</text>
    <text x="175" y="82" text-anchor="middle" fill="#374151" font-size="18" font-weight="bold">L</text>
    <text x="225" y="82" text-anchor="middle" fill="#374151" font-size="18" font-weight="bold">D</text>
    
    <!-- Column numbers -->
    <text x="25" y="120" text-anchor="middle" fill="#64748b" font-size="12">1</text>
    <text x="75" y="120" text-anchor="middle" fill="#64748b" font-size="12">2</text>
    <text x="125" y="120" text-anchor="middle" fill="#64748b" font-size="12">3</text>
    <text x="175" y="120" text-anchor="middle" fill="#64748b" font-size="12">4</text>
    <text x="225" y="120" text-anchor="middle" fill="#64748b" font-size="12">5</text>
  </g>
  
  <!-- Route Examples Section -->
  <rect x="420" y="200" width="330" height="370" fill="white" stroke="#e2e8f0" stroke-width="2" rx="8" filter="url(#shadow)"/>
  <text x="430" y="225" fill="#374151" font-size="18" font-weight="bold">Step 2: Reading Routes</text>
  
  <!-- Route 1: Column by Column -->
  <text x="430" y="255" fill="#374151" font-size="16" font-weight="bold">Route 1: Column by Column</text>
  <g transform="translate(450, 265)">
    <!-- Small grid for route 1 -->
    <rect x="0" y="0" width="25" height="25" fill="#fef3c7" stroke="#f59e0b" stroke-width="2"/>
    <rect x="25" y="0" width="25" height="25" fill="#f1f5f9" stroke="#374151" stroke-width="1"/>
    <rect x="50" y="0" width="25" height="25" fill="#f1f5f9" stroke="#374151" stroke-width="1"/>
    <rect x="75" y="0" width="25" height="25" fill="#f1f5f9" stroke="#374151" stroke-width="1"/>
    <rect x="100" y="0" width="25" height="25" fill="#f1f5f9" stroke="#374151" stroke-width="1"/>
    
    <rect x="0" y="25" width="25" height="25" fill="#fef3c7" stroke="#f59e0b" stroke-width="2"/>
    <rect x="25" y="25" width="25" height="25" fill="#f1f5f9" stroke="#374151" stroke-width="1"/>
    <rect x="50" y="25" width="25" height="25" fill="#f1f5f9" stroke="#374151" stroke-width="1"/>
    <rect x="75" y="25" width="25" height="25" fill="#f1f5f9" stroke="#374151" stroke-width="1"/>
    <rect x="100" y="25" width="25" height="25" fill="#f1f5f9" stroke="#374151" stroke-width="1"/>
    
    <text x="12.5" y="18" text-anchor="middle" fill="#374151" font-size="12" font-weight="bold">H</text>
    <text x="37.5" y="18" text-anchor="middle" fill="#374151" font-size="12" font-weight="bold">E</text>
    <text x="62.5" y="18" text-anchor="middle" fill="#374151" font-size="12" font-weight="bold">L</text>
    <text x="87.5" y="18" text-anchor="middle" fill="#374151" font-size="12" font-weight="bold">L</text>
    <text x="112.5" y="18" text-anchor="middle" fill="#374151" font-size="12" font-weight="bold">O</text>
    
    <text x="12.5" y="43" text-anchor="middle" fill="#374151" font-size="12" font-weight="bold">W</text>
    <text x="37.5" y="43" text-anchor="middle" fill="#374151" font-size="12" font-weight="bold">O</text>
    <text x="62.5" y="43" text-anchor="middle" fill="#374151" font-size="12" font-weight="bold">R</text>
    <text x="87.5" y="43" text-anchor="middle" fill="#374151" font-size="12" font-weight="bold">L</text>
    <text x="112.5" y="43" text-anchor="middle" fill="#374151" font-size="12" font-weight="bold">D</text>
    
    <!-- Arrow showing column 1 -->
    <path d="M 12.5 -10 L 12.5 60" stroke="#dc2626" stroke-width="2" marker-end="url(#arrowhead)" stroke-dasharray="5,5"/>
  </g>
  <text x="430" y="285" fill="#dc2626" font-size="14">Read Column 1: HW</text>
  <text x="430" y="305" fill="#374151" font-size="14">Complete: HWEOLLROLD</text>
  
  <!-- Route 2: Spiral -->
  <text x="430" y="335" fill="#374151" font-size="16" font-weight="bold">Route 2: Clockwise Spiral</text>
  <g transform="translate(450, 345)">
    <!-- Grid with spiral path -->
    <rect x="0" y="0" width="25" height="25" fill="#dcf7dc" stroke="#16a34a" stroke-width="2"/>
    <rect x="25" y="0" width="25" height="25" fill="#dcf7dc" stroke="#16a34a" stroke-width="2"/>
    <rect x="50" y="0" width="25" height="25" fill="#dcf7dc" stroke="#16a34a" stroke-width="2"/>
    <rect x="75" y="0" width="25" height="25" fill="#dcf7dc" stroke="#16a34a" stroke-width="2"/>
    <rect x="100" y="0" width="25" height="25" fill="#dcf7dc" stroke="#16a34a" stroke-width="2"/>
    
    <rect x="0" y="25" width="25" height="25" fill="#dcf7dc" stroke="#16a34a" stroke-width="2"/>
    <rect x="25" y="25" width="25" height="25" fill="#f1f5f9" stroke="#374151" stroke-width="1"/>
    <rect x="50" y="25" width="25" height="25" fill="#f1f5f9" stroke="#374151" stroke-width="1"/>
    <rect x="75" y="25" width="25" height="25" fill="#f1f5f9" stroke="#374151" stroke-width="1"/>
    <rect x="100" y="25" width="25" height="25" fill="#dcf7dc" stroke="#16a34a" stroke-width="2"/>
    
    <text x="12.5" y="18" text-anchor="middle" fill="#374151" font-size="12" font-weight="bold">H</text>
    <text x="37.5" y="18" text-anchor="middle" fill="#374151" font-size="12" font-weight="bold">E</text>
    <text x="62.5" y="18" text-anchor="middle" fill="#374151" font-size="12" font-weight="bold">L</text>
    <text x="87.5" y="18" text-anchor="middle" fill="#374151" font-size="12" font-weight="bold">L</text>
    <text x="112.5" y="18" text-anchor="middle" fill="#374151" font-size="12" font-weight="bold">O</text>
    
    <text x="12.5" y="43" text-anchor="middle" fill="#374151" font-size="12" font-weight="bold">W</text>
    <text x="37.5" y="43" text-anchor="middle" fill="#374151" font-size="12" font-weight="bold">O</text>
    <text x="62.5" y="43" text-anchor="middle" fill="#374151" font-size="12" font-weight="bold">R</text>
    <text x="87.5" y="43" text-anchor="middle" fill="#374151" font-size="12" font-weight="bold">L</text>
    <text x="112.5" y="43" text-anchor="middle" fill="#374151" font-size="12" font-weight="bold">D</text>
    
    <!-- Spiral path with numbers -->
    <text x="12.5" y="5" text-anchor="middle" fill="#dc2626" font-size="12" font-weight="bold">1</text>
    <text x="37.5" y="5" text-anchor="middle" fill="#dc2626" font-size="12" font-weight="bold">2</text>
    <text x="62.5" y="5" text-anchor="middle" fill="#dc2626" font-size="12" font-weight="bold">3</text>
    <text x="87.5" y="5" text-anchor="middle" fill="#dc2626" font-size="12" font-weight="bold">4</text>
    <text x="112.5" y="5" text-anchor="middle" fill="#dc2626" font-size="12" font-weight="bold">5</text>
    <text x="125" y="43" text-anchor="middle" fill="#dc2626" font-size="12" font-weight="bold">6</text>
    <text x="87.5" y="55" text-anchor="middle" fill="#dc2626" font-size="12" font-weight="bold">7</text>
    <text x="62.5" y="55" text-anchor="middle" fill="#dc2626" font-size="12" font-weight="bold">8</text>
    <text x="37.5" y="55" text-anchor="middle" fill="#dc2626" font-size="12" font-weight="bold">9</text>
    <text x="-5" y="43" text-anchor="middle" fill="#dc2626" font-size="12" font-weight="bold">10</text>
  </g>
  <text x="430" y="365" fill="#dc2626" font-size="14">Spiral path: H→E→L→L→O→D→L→R→O→W</text>
  <text x="430" y="385" fill="#374151" font-size="14">Result: HELLODLROW</text>
  
  <!-- Route 3: Zigzag -->
  <text x="430" y="415" fill="#374151" font-size="16" font-weight="bold">Route 3: Zigzag Pattern</text>
  <g transform="translate(450, 425)">
    <!-- Grid with zigzag -->
    <rect x="0" y="0" width="25" height="25" fill="#fce7f3" stroke="#ec4899" stroke-width="2"/>
    <rect x="25" y="0" width="25" height="25" fill="#f1f5f9" stroke="#374151" stroke-width="1"/>
    <rect x="50" y="0" width="25" height="25" fill="#fce7f3" stroke="#ec4899" stroke-width="2"/>
    <rect x="75" y="0" width="25" height="25" fill="#f1f5f9" stroke="#374151" stroke-width="1"/>
    <rect x="100" y="0" width="25" height="25" fill="#fce7f3" stroke="#ec4899" stroke-width="2"/>
    
    <rect x="0" y="25" width="25" height="25" fill="#f1f5f9" stroke="#374151" stroke-width="1"/>
    <rect x="25" y="25" width="25" height="25" fill="#fce7f3" stroke="#ec4899" stroke-width="2"/>
    <rect x="50" y="25" width="25" height="25" fill="#f1f5f9" stroke="#374151" stroke-width="1"/>
    <rect x="75" y="25" width="25" height="25" fill="#fce7f3" stroke="#ec4899" stroke-width="2"/>
    <rect x="100" y="25" width="25" height="25" fill="#f1f5f9" stroke="#374151" stroke-width="1"/>
    
    <text x="12.5" y="18" text-anchor="middle" fill="#374151" font-size="12" font-weight="bold">H</text>
    <text x="37.5" y="18" text-anchor="middle" fill="#374151" font-size="12" font-weight="bold">E</text>
    <text x="62.5" y="18" text-anchor="middle" fill="#374151" font-size="12" font-weight="bold">L</text>
    <text x="87.5" y="18" text-anchor="middle" fill="#374151" font-size="12" font-weight="bold">L</text>
    <text x="112.5" y="18" text-anchor="middle" fill="#374151" font-size="12" font-weight="bold">O</text>
    
    <text x="12.5" y="43" text-anchor="middle" fill="#374151" font-size="12" font-weight="bold">W</text>
    <text x="37.5" y="43" text-anchor="middle" fill="#374151" font-size="12" font-weight="bold">O</text>
    <text x="62.5" y="43" text-anchor="middle" fill="#374151" font-size="12" font-weight="bold">R</text>
    <text x="87.5" y="43" text-anchor="middle" fill="#374151" font-size="12" font-weight="bold">L</text>
    <text x="112.5" y="43" text-anchor="middle" fill="#374151" font-size="12" font-weight="bold">D</text>
  </g>
  <text x="430" y="445" fill="#dc2626" font-size="14">Zigzag: H→L→O→O→L</text>
  <text x="430" y="465" fill="#374151" font-size="14">Result: HLOOL (partial example)</text>
  
  <!-- Key Properties -->
  <rect x="50" y="400" width="350" height="170" fill="white" stroke="#e2e8f0" stroke-width="2" rx="8" filter="url(#shadow)"/>
  <text x="60" y="425" fill="#374151" font-size="18" font-weight="bold">Key Properties</text>
  
  <text x="60" y="450" fill="#374151" font-size="14">• Security depends on:</text>
  <text x="80" y="470" fill="#374151" font-size="14">- Grid dimensions (rows × columns)</text>
  <text x="80" y="490" fill="#374151" font-size="14">- Reading route pattern</text>
  <text x="80" y="510" fill="#374151" font-size="14">- Starting position and direction</text>
  
  <text x="60" y="535" fill="#374151" font-size="14">• Decryption: Reverse the route</text>
  <text x="60" y="555" fill="#374151" font-size="14">• Vulnerable to pattern analysis</text>
</svg>
