<?xml version="1.0" encoding="UTF-8"?>
<svg viewBox="0 0 1800 1400" xmlns="http://www.w3.org/2000/svg">
  <defs>
    <style>
      .title { font-family: Arial, sans-serif; font-size: 28px; font-weight: bold; fill: #2c3e50; }
      .subtitle { font-family: Arial, sans-serif; font-size: 20px; font-weight: bold; fill: #34495e; }
      .text { font-family: Arial, sans-serif; font-size: 14px; fill: #2c3e50; }
      .small-text { font-family: Arial, sans-serif; font-size: 12px; fill: #2c3e50; }
      .code { font-family: 'Courier New', monospace; font-size: 12px; fill: #2c3e50; }
      .highlight { fill: #3498db; }
      .warning { fill: #e74c3c; }
      .success { fill: #27ae60; }
      .info { fill: #f39c12; }
    </style>
  </defs>

  <!-- Background -->
  <rect width="1800" height="1400" fill="#f8f9fa"/>

  <!-- Title -->
  <text x="900" y="40" text-anchor="middle" class="title">Merge Sort - Divide and Conquer Algorithm</text>
  <text x="900" y="70" text-anchor="middle" class="text">Complete Step-by-Step Visualization with Implementation</text>

  <!-- Algorithm Overview -->
  <g transform="translate(50, 100)">
    <text x="0" y="0" class="subtitle">Algorithm Overview</text>

    <rect x="0" y="20" width="800" height="100" fill="#ecf0f1" stroke="#bdc3c7" stroke-width="2" rx="5"/>
    <text x="20" y="45" class="text" font-weight="bold">Merge Sort Strategy:</text>
    <text x="30" y="65" class="text">1. Divide: Split array into two halves recursively until single elements</text>
    <text x="30" y="85" class="text">2. Conquer: Merge sorted subarrays back together in sorted order</text>
    <text x="30" y="105" class="text">3. Time Complexity: O(n log n) - guaranteed for all cases</text>
  </g>

  <!-- Divide Phase Visualization -->
  <g transform="translate(50, 240)">
    <text x="0" y="0" class="subtitle">Phase 1: Divide (Recursive Splitting)</text>

    <g transform="translate(0, 40)">
      <text x="0" y="0" class="text" font-weight="bold">Input Array: [38, 27, 43, 3, 9, 82, 10]</text>

      <!-- Level 0 - Original Array -->
      <g transform="translate(200, 30)">
        <text x="0" y="-10" class="small-text">Level 0:</text>
        <rect x="0" y="0" width="35" height="25" fill="#e74c3c" stroke="#c0392b" stroke-width="2"/>
        <rect x="35" y="0" width="35" height="25" fill="#e74c3c" stroke="#c0392b" stroke-width="2"/>
        <rect x="70" y="0" width="35" height="25" fill="#e74c3c" stroke="#c0392b" stroke-width="2"/>
        <rect x="105" y="0" width="35" height="25" fill="#e74c3c" stroke="#c0392b" stroke-width="2"/>
        <rect x="140" y="0" width="35" height="25" fill="#e74c3c" stroke="#c0392b" stroke-width="2"/>
        <rect x="175" y="0" width="35" height="25" fill="#e74c3c" stroke="#c0392b" stroke-width="2"/>
        <rect x="210" y="0" width="35" height="25" fill="#e74c3c" stroke="#c0392b" stroke-width="2"/>

        <text x="17" y="17" text-anchor="middle" class="small-text" fill="white">38</text>
        <text x="52" y="17" text-anchor="middle" class="small-text" fill="white">27</text>
        <text x="87" y="17" text-anchor="middle" class="small-text" fill="white">43</text>
        <text x="122" y="17" text-anchor="middle" class="small-text" fill="white">3</text>
        <text x="157" y="17" text-anchor="middle" class="small-text" fill="white">9</text>
        <text x="192" y="17" text-anchor="middle" class="small-text" fill="white">82</text>
        <text x="227" y="17" text-anchor="middle" class="small-text" fill="white">10</text>

        <!-- Split arrows -->
        <path d="M 122 35 L 80 65" stroke="#2c3e50" stroke-width="2" marker-end="url(#arrowhead-down)"/>
        <path d="M 122 35 L 170 65" stroke="#2c3e50" stroke-width="2" marker-end="url(#arrowhead-down)"/>
      </g>

      <!-- Level 1 - First Split -->
      <g transform="translate(100, 100)">
        <text x="0" y="-10" class="small-text">Level 1:</text>
        <!-- Left half -->
        <rect x="0" y="0" width="30" height="22" fill="#3498db" stroke="#2980b9" stroke-width="1"/>
        <rect x="30" y="0" width="30" height="22" fill="#3498db" stroke="#2980b9" stroke-width="1"/>
        <rect x="60" y="0" width="30" height="22" fill="#3498db" stroke="#2980b9" stroke-width="1"/>
        <rect x="90" y="0" width="30" height="22" fill="#3498db" stroke="#2980b9" stroke-width="1"/>

        <text x="15" y="15" text-anchor="middle" class="small-text" fill="white">38</text>
        <text x="45" y="15" text-anchor="middle" class="small-text" fill="white">27</text>
        <text x="75" y="15" text-anchor="middle" class="small-text" fill="white">43</text>
        <text x="105" y="15" text-anchor="middle" class="small-text" fill="white">3</text>

        <!-- Right half -->
        <rect x="200" y="0" width="30" height="22" fill="#27ae60" stroke="#229954" stroke-width="1"/>
        <rect x="230" y="0" width="30" height="22" fill="#27ae60" stroke="#229954" stroke-width="1"/>
        <rect x="260" y="0" width="30" height="22" fill="#27ae60" stroke="#229954" stroke-width="1"/>

        <text x="215" y="15" text-anchor="middle" class="small-text" fill="white">9</text>
        <text x="245" y="15" text-anchor="middle" class="small-text" fill="white">82</text>
        <text x="275" y="15" text-anchor="middle" class="small-text" fill="white">10</text>

        <!-- Split arrows for level 2 -->
        <path d="M 60 30 L 30 55" stroke="#2c3e50" stroke-width="1" marker-end="url(#arrowhead-down)"/>
        <path d="M 60 30 L 90 55" stroke="#2c3e50" stroke-width="1" marker-end="url(#arrowhead-down)"/>
        <path d="M 245 30 L 210 55" stroke="#2c3e50" stroke-width="1" marker-end="url(#arrowhead-down)"/>
        <path d="M 245 30 L 275 55" stroke="#2c3e50" stroke-width="1" marker-end="url(#arrowhead-down)"/>
      </g>

      <!-- Level 2 - Second Split -->
      <g transform="translate(50, 170)">
        <text x="0" y="-10" class="small-text">Level 2:</text>
        <!-- Left splits -->
        <rect x="0" y="0" width="25" height="20" fill="#f39c12" stroke="#e67e22" stroke-width="1"/>
        <rect x="25" y="0" width="25" height="20" fill="#f39c12" stroke="#e67e22" stroke-width="1"/>
        <text x="12" y="14" text-anchor="middle" class="small-text" fill="white">38</text>
        <text x="37" y="14" text-anchor="middle" class="small-text" fill="white">27</text>

        <rect x="80" y="0" width="25" height="20" fill="#f39c12" stroke="#e67e22" stroke-width="1"/>
        <rect x="105" y="0" width="25" height="20" fill="#f39c12" stroke="#e67e22" stroke-width="1"/>
        <text x="92" y="14" text-anchor="middle" class="small-text" fill="white">43</text>
        <text x="117" y="14" text-anchor="middle" class="small-text" fill="white">3</text>

        <!-- Right splits -->
        <rect x="200" y="0" width="25" height="20" fill="#9b59b6" stroke="#8e44ad" stroke-width="1"/>
        <rect x="225" y="0" width="25" height="20" fill="#9b59b6" stroke="#8e44ad" stroke-width="1"/>
        <text x="212" y="14" text-anchor="middle" class="small-text" fill="white">9</text>
        <text x="237" y="14" text-anchor="middle" class="small-text" fill="white">82</text>

        <rect x="280" y="0" width="25" height="20" fill="#9b59b6" stroke="#8e44ad" stroke-width="1"/>
        <text x="292" y="14" text-anchor="middle" class="small-text" fill="white">10</text>

        <!-- Split arrows for level 3 -->
        <path d="M 25 25 L 15 45" stroke="#2c3e50" stroke-width="1" marker-end="url(#arrowhead-down)"/>
        <path d="M 25 25 L 35 45" stroke="#2c3e50" stroke-width="1" marker-end="url(#arrowhead-down)"/>
        <path d="M 92 25 L 82 45" stroke="#2c3e50" stroke-width="1" marker-end="url(#arrowhead-down)"/>
        <path d="M 92 25 L 102 45" stroke="#2c3e50" stroke-width="1" marker-end="url(#arrowhead-down)"/>
      </g>

      <!-- Level 3 - Individual Elements -->
      <g transform="translate(30, 230)">
        <text x="0" y="-10" class="small-text">Level 3 (Base Case):</text>
        <rect x="0" y="0" width="20" height="18" fill="#1abc9c" stroke="#16a085" stroke-width="1"/>
        <text x="10" y="13" text-anchor="middle" class="small-text" fill="white">38</text>

        <rect x="30" y="0" width="20" height="18" fill="#1abc9c" stroke="#16a085" stroke-width="1"/>
        <text x="40" y="13" text-anchor="middle" class="small-text" fill="white">27</text>

        <rect x="70" y="0" width="20" height="18" fill="#1abc9c" stroke="#16a085" stroke-width="1"/>
        <text x="80" y="13" text-anchor="middle" class="small-text" fill="white">43</text>

        <rect x="100" y="0" width="20" height="18" fill="#1abc9c" stroke="#16a085" stroke-width="1"/>
        <text x="110" y="13" text-anchor="middle" class="small-text" fill="white">3</text>

        <rect x="140" y="0" width="20" height="18" fill="#1abc9c" stroke="#16a085" stroke-width="1"/>
        <text x="150" y="13" text-anchor="middle" class="small-text" fill="white">9</text>

        <rect x="170" y="0" width="20" height="18" fill="#1abc9c" stroke="#16a085" stroke-width="1"/>
        <text x="180" y="13" text-anchor="middle" class="small-text" fill="white">82</text>

        <rect x="200" y="0" width="20" height="18" fill="#1abc9c" stroke="#16a085" stroke-width="1"/>
        <text x="210" y="13" text-anchor="middle" class="small-text" fill="white">10</text>

        <text x="230" y="12" class="small-text">All single elements - start merging!</text>
      </g>
    </g>
  </g>

  <!-- Arrow markers -->
  <defs>
    <marker id="arrowhead-down" markerWidth="10" markerHeight="7" refX="5" refY="3.5" orient="auto">
      <polygon points="0 0, 10 3.5, 0 7" fill="#2c3e50"/>
    </marker>
    <marker id="arrowhead-up" markerWidth="10" markerHeight="7" refX="5" refY="3.5" orient="auto">
      <polygon points="0 0, 10 3.5, 0 7" fill="#27ae60"/>
    </marker>
  </defs>

  <!-- Merge Phase Visualization -->
  <g transform="translate(50, 550)">
    <text x="0" y="0" class="subtitle">Phase 2: Conquer (Merging Back)</text>

    <g transform="translate(0, 40)">
      <!-- Merge Level 3 to 2 -->
      <g transform="translate(30, 0)">
        <text x="0" y="-10" class="small-text">Merge Level 3 → 2:</text>

        <!-- Show merging process -->
        <g transform="translate(0, 10)">
          <text x="0" y="-5" class="small-text">Merge [38] + [27]:</text>
          <rect x="0" y="0" width="20" height="18" fill="#1abc9c" stroke="#16a085" stroke-width="1"/>
          <rect x="20" y="0" width="20" height="18" fill="#1abc9c" stroke="#16a085" stroke-width="1"/>
          <text x="10" y="13" text-anchor="middle" class="small-text" fill="white">38</text>
          <text x="30" y="13" text-anchor="middle" class="small-text" fill="white">27</text>

          <text x="50" y="12" class="small-text">→</text>

          <rect x="70" y="0" width="25" height="18" fill="#27ae60" stroke="#229954" stroke-width="2"/>
          <rect x="95" y="0" width="25" height="18" fill="#27ae60" stroke="#229954" stroke-width="2"/>
          <text x="82" y="13" text-anchor="middle" class="small-text" fill="white">27</text>
          <text x="107" y="13" text-anchor="middle" class="small-text" fill="white">38</text>
          <text x="82" y="35" text-anchor="middle" class="small-text">Compare: 27 &lt; 38</text>
        </g>

        <g transform="translate(200, 10)">
          <text x="0" y="-5" class="small-text">Merge [43] + [3]:</text>
          <rect x="0" y="0" width="20" height="18" fill="#1abc9c" stroke="#16a085" stroke-width="1"/>
          <rect x="20" y="0" width="20" height="18" fill="#1abc9c" stroke="#16a085" stroke-width="1"/>
          <text x="10" y="13" text-anchor="middle" class="small-text" fill="white">43</text>
          <text x="30" y="13" text-anchor="middle" class="small-text" fill="white">3</text>

          <text x="50" y="12" class="small-text">→</text>

          <rect x="70" y="0" width="25" height="18" fill="#27ae60" stroke="#229954" stroke-width="2"/>
          <rect x="95" y="0" width="25" height="18" fill="#27ae60" stroke="#229954" stroke-width="2"/>
          <text x="82" y="13" text-anchor="middle" class="small-text" fill="white">3</text>
          <text x="107" y="13" text-anchor="middle" class="small-text" fill="white">43</text>
          <text x="82" y="35" text-anchor="middle" class="small-text">Compare: 3 &lt; 43</text>
        </g>
      </g>

      <!-- Merge Level 2 to 1 -->
      <g transform="translate(30, 80)">
        <text x="0" y="-10" class="small-text">Merge Level 2 → 1:</text>

        <g transform="translate(0, 10)">
          <text x="0" y="-5" class="small-text">Merge [27,38] + [3,43]:</text>

          <!-- Left sorted array -->
          <rect x="0" y="0" width="25" height="18" fill="#27ae60" stroke="#229954" stroke-width="1"/>
          <rect x="25" y="0" width="25" height="18" fill="#27ae60" stroke="#229954" stroke-width="1"/>
          <text x="12" y="13" text-anchor="middle" class="small-text" fill="white">27</text>
          <text x="37" y="13" text-anchor="middle" class="small-text" fill="white">38</text>

          <text x="60" y="12" class="small-text">+</text>

          <!-- Right sorted array -->
          <rect x="80" y="0" width="25" height="18" fill="#27ae60" stroke="#229954" stroke-width="1"/>
          <rect x="105" y="0" width="25" height="18" fill="#27ae60" stroke="#229954" stroke-width="1"/>
          <text x="92" y="13" text-anchor="middle" class="small-text" fill="white">3</text>
          <text x="117" y="13" text-anchor="middle" class="small-text" fill="white">43</text>

          <text x="140" y="12" class="small-text">→</text>

          <!-- Merged result -->
          <rect x="160" y="0" width="22" height="18" fill="#3498db" stroke="#2980b9" stroke-width="2"/>
          <rect x="182" y="0" width="22" height="18" fill="#3498db" stroke="#2980b9" stroke-width="2"/>
          <rect x="204" y="0" width="22" height="18" fill="#3498db" stroke="#2980b9" stroke-width="2"/>
          <rect x="226" y="0" width="22" height="18" fill="#3498db" stroke="#2980b9" stroke-width="2"/>

          <text x="171" y="13" text-anchor="middle" class="small-text" fill="white">3</text>
          <text x="193" y="13" text-anchor="middle" class="small-text" fill="white">27</text>
          <text x="215" y="13" text-anchor="middle" class="small-text" fill="white">38</text>
          <text x="237" y="13" text-anchor="middle" class="small-text" fill="white">43</text>
        </g>

        <!-- Merging process explanation -->
        <g transform="translate(0, 40)">
          <rect x="0" y="0" width="400" height="60" fill="#ecf0f1" stroke="#bdc3c7" stroke-width="1" rx="3"/>
          <text x="10" y="18" class="small-text" font-weight="bold">Merging Process:</text>
          <text x="15" y="35" class="small-text">1. Compare 27 vs 3 → take 3</text>
          <text x="15" y="50" class="small-text">2. Compare 27 vs 43 → take 27, then 38, then 43</text>
        </g>
      </g>

      <!-- Final Merge -->
      <g transform="translate(30, 180)">
        <text x="0" y="-10" class="small-text">Final Merge (Level 1 → 0):</text>

        <g transform="translate(0, 10)">
          <text x="0" y="-5" class="small-text">Merge [3,27,38,43] + [9,10,82]:</text>

          <!-- Left final array -->
          <rect x="0" y="0" width="22" height="18" fill="#3498db" stroke="#2980b9" stroke-width="1"/>
          <rect x="22" y="0" width="22" height="18" fill="#3498db" stroke="#2980b9" stroke-width="1"/>
          <rect x="44" y="0" width="22" height="18" fill="#3498db" stroke="#2980b9" stroke-width="1"/>
          <rect x="66" y="0" width="22" height="18" fill="#3498db" stroke="#2980b9" stroke-width="1"/>

          <text x="11" y="13" text-anchor="middle" class="small-text" fill="white">3</text>
          <text x="33" y="13" text-anchor="middle" class="small-text" fill="white">27</text>
          <text x="55" y="13" text-anchor="middle" class="small-text" fill="white">38</text>
          <text x="77" y="13" text-anchor="middle" class="small-text" fill="white">43</text>

          <text x="100" y="12" class="small-text">+</text>

          <!-- Right final array -->
          <rect x="120" y="0" width="22" height="18" fill="#27ae60" stroke="#229954" stroke-width="1"/>
          <rect x="142" y="0" width="22" height="18" fill="#27ae60" stroke="#229954" stroke-width="1"/>
          <rect x="164" y="0" width="22" height="18" fill="#27ae60" stroke="#229954" stroke-width="1"/>

          <text x="131" y="13" text-anchor="middle" class="small-text" fill="white">9</text>
          <text x="153" y="13" text-anchor="middle" class="small-text" fill="white">10</text>
          <text x="175" y="13" text-anchor="middle" class="small-text" fill="white">82</text>

          <text x="200" y="12" class="small-text">→</text>

          <!-- Final sorted result -->
          <rect x="220" y="0" width="25" height="18" fill="#e74c3c" stroke="#c0392b" stroke-width="3"/>
          <rect x="245" y="0" width="25" height="18" fill="#e74c3c" stroke="#c0392b" stroke-width="3"/>
          <rect x="270" y="0" width="25" height="18" fill="#e74c3c" stroke="#c0392b" stroke-width="3"/>
          <rect x="295" y="0" width="25" height="18" fill="#e74c3c" stroke="#c0392b" stroke-width="3"/>
          <rect x="320" y="0" width="25" height="18" fill="#e74c3c" stroke="#c0392b" stroke-width="3"/>
          <rect x="345" y="0" width="25" height="18" fill="#e74c3c" stroke="#c0392b" stroke-width="3"/>
          <rect x="370" y="0" width="25" height="18" fill="#e74c3c" stroke="#c0392b" stroke-width="3"/>

          <text x="232" y="13" text-anchor="middle" class="small-text" fill="white">3</text>
          <text x="257" y="13" text-anchor="middle" class="small-text" fill="white">9</text>
          <text x="282" y="13" text-anchor="middle" class="small-text" fill="white">10</text>
          <text x="307" y="13" text-anchor="middle" class="small-text" fill="white">27</text>
          <text x="332" y="13" text-anchor="middle" class="small-text" fill="white">38</text>
          <text x="357" y="13" text-anchor="middle" class="small-text" fill="white">43</text>
          <text x="382" y="13" text-anchor="middle" class="small-text" fill="white">82</text>

          <text x="310" y="40" text-anchor="middle" class="small-text" font-weight="bold">SORTED ARRAY!</text>
        </g>
      </g>
    </g>
  </g>

  <!-- Implementation Section -->
  <g transform="translate(900, 100)">
    <text x="0" y="0" class="subtitle">Merge Sort Implementation</text>

    <rect x="0" y="30" width="700" height="450" fill="#2c3e50" stroke="#34495e" stroke-width="2" rx="5"/>

    <text x="20" y="55" class="code" fill="#3498db">def merge_sort(arr):</text>
    <text x="40" y="75" class="code" fill="#ecf0f1">"""</text>
    <text x="40" y="95" class="code" fill="#ecf0f1">Merge Sort Algorithm</text>
    <text x="40" y="115" class="code" fill="#ecf0f1">Time: O(n log n), Space: O(n)</text>
    <text x="40" y="135" class="code" fill="#ecf0f1">"""</text>
    <text x="40" y="155" class="code" fill="#ecf0f1">if len(arr) &lt;= 1:</text>
    <text x="60" y="175" class="code" fill="#27ae60">return arr</text>

    <text x="40" y="205" class="code" fill="#f39c12"># Divide</text>
    <text x="40" y="225" class="code" fill="#ecf0f1">mid = len(arr) // 2</text>
    <text x="40" y="245" class="code" fill="#ecf0f1">left = merge_sort(arr[:mid])</text>
    <text x="40" y="265" class="code" fill="#ecf0f1">right = merge_sort(arr[mid:])</text>

    <text x="40" y="295" class="code" fill="#f39c12"># Conquer (Merge)</text>
    <text x="40" y="315" class="code" fill="#27ae60">return merge(left, right)</text>

    <text x="20" y="345" class="code" fill="#3498db">def merge(left, right):</text>
    <text x="40" y="365" class="code" fill="#ecf0f1">result = []</text>
    <text x="40" y="385" class="code" fill="#ecf0f1">i = j = 0</text>

    <text x="40" y="415" class="code" fill="#ecf0f1">while i &lt; len(left) and j &lt; len(right):</text>
    <text x="60" y="435" class="code" fill="#ecf0f1">if left[i] &lt;= right[j]:</text>
    <text x="80" y="455" class="code" fill="#ecf0f1">result.append(left[i])</text>
    <text x="80" y="475" class="code" fill="#ecf0f1">i += 1</text>
  </g>

  <!-- Complexity Analysis -->
  <g transform="translate(900, 600)">
    <text x="0" y="0" class="subtitle">Complexity Analysis</text>

    <rect x="0" y="30" width="700" height="180" fill="#ecf0f1" stroke="#bdc3c7" stroke-width="2" rx="5"/>

    <text x="20" y="55" class="text" font-weight="bold">Time Complexity:</text>
    <text x="30" y="75" class="text">• Best Case: O(n log n)</text>
    <text x="30" y="95" class="text">• Average Case: O(n log n)</text>
    <text x="30" y="115" class="text">• Worst Case: O(n log n)</text>

    <text x="20" y="145" class="text" font-weight="bold">Space Complexity:</text>
    <text x="30" y="165" class="text">• O(n) - requires additional space for temporary arrays</text>

    <text x="20" y="195" class="text" font-weight="bold">Key Advantages:</text>
    <text x="30" y="215" class="text">• Guaranteed O(n log n) performance • Stable sorting algorithm</text>
  </g>

  <!-- Applications -->
  <g transform="translate(50, 950)">
    <text x="0" y="0" class="subtitle">Merge Sort Applications</text>

    <rect x="0" y="20" width="1500" height="120" fill="#ecf0f1" stroke="#bdc3c7" stroke-width="2" rx="5"/>

    <!-- Application 1 -->
    <g transform="translate(50, 50)">
      <rect x="0" y="0" width="200" height="60" fill="#3498db" stroke="#2980b9" stroke-width="1" rx="3"/>
      <text x="100" y="20" text-anchor="middle" class="text" fill="white" font-weight="bold">External Sorting</text>
      <text x="100" y="35" text-anchor="middle" class="small-text" fill="white">Large datasets that don't</text>
      <text x="100" y="50" text-anchor="middle" class="small-text" fill="white">fit in memory</text>
    </g>

    <!-- Application 2 -->
    <g transform="translate(300, 50)">
      <rect x="0" y="0" width="200" height="60" fill="#27ae60" stroke="#229954" stroke-width="1" rx="3"/>
      <text x="100" y="20" text-anchor="middle" class="text" fill="white" font-weight="bold">Stable Sorting</text>
      <text x="100" y="35" text-anchor="middle" class="small-text" fill="white">When relative order of</text>
      <text x="100" y="50" text-anchor="middle" class="small-text" fill="white">equal elements matters</text>
    </g>

    <!-- Application 3 -->
    <g transform="translate(550, 50)">
      <rect x="0" y="0" width="200" height="60" fill="#e74c3c" stroke="#c0392b" stroke-width="1" rx="3"/>
      <text x="100" y="20" text-anchor="middle" class="text" fill="white" font-weight="bold">Parallel Processing</text>
      <text x="100" y="35" text-anchor="middle" class="small-text" fill="white">Divide &amp; conquer nature</text>
      <text x="100" y="50" text-anchor="middle" class="small-text" fill="white">enables parallelization</text>
    </g>

    <!-- Application 4 -->
    <g transform="translate(800, 50)">
      <rect x="0" y="0" width="200" height="60" fill="#f39c12" stroke="#e67e22" stroke-width="1" rx="3"/>
      <text x="100" y="20" text-anchor="middle" class="text" fill="white" font-weight="bold">Database Systems</text>
      <text x="100" y="35" text-anchor="middle" class="small-text" fill="white">JOIN operations and</text>
      <text x="100" y="50" text-anchor="middle" class="small-text" fill="white">query optimization</text>
    </g>

    <!-- Application 5 -->
    <g transform="translate(1050, 50)">
      <rect x="0" y="0" width="200" height="60" fill="#9b59b6" stroke="#8e44ad" stroke-width="1" rx="3"/>
      <text x="100" y="20" text-anchor="middle" class="text" fill="white" font-weight="bold">Version Control</text>
      <text x="100" y="35" text-anchor="middle" class="small-text" fill="white">Merging code changes</text>
      <text x="100" y="50" text-anchor="middle" class="small-text" fill="white">in Git systems</text>
    </g>
  </g>

  <!-- Comparison with Other Sorts -->
  <g transform="translate(50, 1100)">
    <text x="0" y="0" class="subtitle">Merge Sort vs Other Algorithms</text>

    <rect x="0" y="20" width="1500" height="120" fill="#ecf0f1" stroke="#bdc3c7" stroke-width="2" rx="5"/>

    <!-- Headers -->
    <text x="20" y="45" class="text" font-weight="bold">Algorithm</text>
    <text x="150" y="45" class="text" font-weight="bold">Best Case</text>
    <text x="250" y="45" class="text" font-weight="bold">Average</text>
    <text x="350" y="45" class="text" font-weight="bold">Worst Case</text>
    <text x="450" y="45" class="text" font-weight="bold">Space</text>
    <text x="550" y="45" class="text" font-weight="bold">Stable</text>
    <text x="650" y="45" class="text" font-weight="bold">Advantages</text>

    <!-- Merge Sort -->
    <text x="20" y="70" class="text" fill="#27ae60">Merge Sort</text>
    <text x="150" y="70" class="text">O(n log n)</text>
    <text x="250" y="70" class="text">O(n log n)</text>
    <text x="350" y="70" class="text">O(n log n)</text>
    <text x="450" y="70" class="text">O(n)</text>
    <text x="550" y="70" class="text" fill="#27ae60">Yes</text>
    <text x="650" y="70" class="small-text">Guaranteed performance</text>

    <!-- Quick Sort -->
    <text x="20" y="95" class="text">Quick Sort</text>
    <text x="150" y="95" class="text">O(n log n)</text>
    <text x="250" y="95" class="text">O(n log n)</text>
    <text x="350" y="95" class="text" fill="#e74c3c">O(n²)</text>
    <text x="450" y="95" class="text" fill="#27ae60">O(log n)</text>
    <text x="550" y="95" class="text" fill="#e74c3c">No</text>
    <text x="650" y="95" class="small-text">In-place, fast average</text>

    <!-- Heap Sort -->
    <text x="20" y="120" class="text">Heap Sort</text>
    <text x="150" y="120" class="text">O(n log n)</text>
    <text x="250" y="120" class="text">O(n log n)</text>
    <text x="350" y="120" class="text">O(n log n)</text>
    <text x="450" y="120" class="text" fill="#27ae60">O(1)</text>
    <text x="550" y="120" class="text" fill="#e74c3c">No</text>
    <text x="650" y="120" class="small-text">In-place, guaranteed</text>
  </g>

</svg>