<?xml version="1.0" encoding="UTF-8"?>
<svg viewBox="0 0 1800 1400" xmlns="http://www.w3.org/2000/svg">
  <defs>
    <style>
      .title { font-family: Arial, sans-serif; font-size: 28px; font-weight: bold; fill: #2c3e50; }
      .subtitle { font-family: Arial, sans-serif; font-size: 20px; font-weight: bold; fill: #34495e; }
      .text { font-family: Arial, sans-serif; font-size: 14px; fill: #2c3e50; }
      .small-text { font-family: Arial, sans-serif; font-size: 12px; fill: #2c3e50; }
      .code { font-family: 'Courier New', monospace; font-size: 12px; fill: #2c3e50; }
      .highlight { fill: #3498db; }
      .warning { fill: #e74c3c; }
      .success { fill: #27ae60; }
      .info { fill: #f39c12; }
    </style>
  </defs>

  <!-- Background -->
  <rect width="1800" height="1400" fill="#f8f9fa"/>

  <!-- Title -->
  <text x="900" y="40" text-anchor="middle" class="title">Searching Algorithms - Linear &amp; Binary Search</text>
  <text x="900" y="70" text-anchor="middle" class="text">Comprehensive Analysis with Time Complexity &amp; Implementations</text>

  <!-- Linear Search Section -->
  <g transform="translate(50, 100)">
    <text x="0" y="0" class="subtitle">1. Linear Search (Sequential Search)</text>

    <!-- Algorithm Description -->
    <g transform="translate(0, 40)">
      <rect x="0" y="0" width="700" height="60" fill="#ecf0f1" stroke="#bdc3c7" stroke-width="2" rx="5"/>
      <text x="20" y="25" class="text" font-weight="bold">Algorithm:</text>
      <text x="20" y="45" class="text">Search through array elements one by one from start to end until target is found or array ends</text>
    </g>

    <!-- Visual Demonstration -->
    <g transform="translate(0, 120)">
      <text x="0" y="0" class="text" font-weight="bold">Searching for element 7:</text>

      <!-- Array -->
      <g transform="translate(0, 30)">
        <!-- Step 1 -->
        <g transform="translate(0, 0)">
          <text x="0" y="-10" class="small-text">Step 1: Check index 0</text>
          <rect x="0" y="0" width="40" height="30" fill="#e74c3c" stroke="#c0392b" stroke-width="3"/>
          <rect x="40" y="0" width="40" height="30" fill="#ecf0f1" stroke="#bdc3c7" stroke-width="1"/>
          <rect x="80" y="0" width="40" height="30" fill="#ecf0f1" stroke="#bdc3c7" stroke-width="1"/>
          <rect x="120" y="0" width="40" height="30" fill="#ecf0f1" stroke="#bdc3c7" stroke-width="1"/>
          <rect x="160" y="0" width="40" height="30" fill="#ecf0f1" stroke="#bdc3c7" stroke-width="1"/>
          <rect x="200" y="0" width="40" height="30" fill="#ecf0f1" stroke="#bdc3c7" stroke-width="1"/>

          <text x="20" y="20" text-anchor="middle" class="text">3</text>
          <text x="60" y="20" text-anchor="middle" class="text">5</text>
          <text x="100" y="20" text-anchor="middle" class="text">2</text>
          <text x="140" y="20" text-anchor="middle" class="text">7</text>
          <text x="180" y="20" text-anchor="middle" class="text">1</text>
          <text x="220" y="20" text-anchor="middle" class="text">9</text>

          <text x="20" y="50" text-anchor="middle" class="small-text">0</text>
          <text x="60" y="50" text-anchor="middle" class="small-text">1</text>
          <text x="100" y="50" text-anchor="middle" class="small-text">2</text>
          <text x="140" y="50" text-anchor="middle" class="small-text">3</text>
          <text x="180" y="50" text-anchor="middle" class="small-text">4</text>
          <text x="220" y="50" text-anchor="middle" class="small-text">5</text>

          <text x="250" y="15" class="small-text">3 ≠ 7, continue</text>
        </g>

        <!-- Step 2 -->
        <g transform="translate(0, 80)">
          <text x="0" y="-10" class="small-text">Step 2: Check index 1</text>
          <rect x="0" y="0" width="40" height="30" fill="#ecf0f1" stroke="#bdc3c7" stroke-width="1"/>
          <rect x="40" y="0" width="40" height="30" fill="#e74c3c" stroke="#c0392b" stroke-width="3"/>
          <rect x="80" y="0" width="40" height="30" fill="#ecf0f1" stroke="#bdc3c7" stroke-width="1"/>
          <rect x="120" y="0" width="40" height="30" fill="#ecf0f1" stroke="#bdc3c7" stroke-width="1"/>
          <rect x="160" y="0" width="40" height="30" fill="#ecf0f1" stroke="#bdc3c7" stroke-width="1"/>
          <rect x="200" y="0" width="40" height="30" fill="#ecf0f1" stroke="#bdc3c7" stroke-width="1"/>

          <text x="20" y="20" text-anchor="middle" class="text">3</text>
          <text x="60" y="20" text-anchor="middle" class="text">5</text>
          <text x="100" y="20" text-anchor="middle" class="text">2</text>
          <text x="140" y="20" text-anchor="middle" class="text">7</text>
          <text x="180" y="20" text-anchor="middle" class="text">1</text>
          <text x="220" y="20" text-anchor="middle" class="text">9</text>

          <text x="250" y="15" class="small-text">5 ≠ 7, continue</text>
        </g>

        <!-- Step 3 -->
        <g transform="translate(0, 160)">
          <text x="0" y="-10" class="small-text">Step 3: Check index 2</text>
          <rect x="0" y="0" width="40" height="30" fill="#ecf0f1" stroke="#bdc3c7" stroke-width="1"/>
          <rect x="40" y="0" width="40" height="30" fill="#ecf0f1" stroke="#bdc3c7" stroke-width="1"/>
          <rect x="80" y="0" width="40" height="30" fill="#e74c3c" stroke="#c0392b" stroke-width="3"/>
          <rect x="120" y="0" width="40" height="30" fill="#ecf0f1" stroke="#bdc3c7" stroke-width="1"/>
          <rect x="160" y="0" width="40" height="30" fill="#ecf0f1" stroke="#bdc3c7" stroke-width="1"/>
          <rect x="200" y="0" width="40" height="30" fill="#ecf0f1" stroke="#bdc3c7" stroke-width="1"/>

          <text x="20" y="20" text-anchor="middle" class="text">3</text>
          <text x="60" y="20" text-anchor="middle" class="text">5</text>
          <text x="100" y="20" text-anchor="middle" class="text">2</text>
          <text x="140" y="20" text-anchor="middle" class="text">7</text>
          <text x="180" y="20" text-anchor="middle" class="text">1</text>
          <text x="220" y="20" text-anchor="middle" class="text">9</text>

          <text x="250" y="15" class="small-text">2 ≠ 7, continue</text>
        </g>

        <!-- Step 4 - Found -->
        <g transform="translate(0, 240)">
          <text x="0" y="-10" class="small-text">Step 4: Check index 3 - FOUND!</text>
          <rect x="0" y="0" width="40" height="30" fill="#ecf0f1" stroke="#bdc3c7" stroke-width="1"/>
          <rect x="40" y="0" width="40" height="30" fill="#ecf0f1" stroke="#bdc3c7" stroke-width="1"/>
          <rect x="80" y="0" width="40" height="30" fill="#ecf0f1" stroke="#bdc3c7" stroke-width="1"/>
          <rect x="120" y="0" width="40" height="30" fill="#27ae60" stroke="#229954" stroke-width="3"/>
          <rect x="160" y="0" width="40" height="30" fill="#ecf0f1" stroke="#bdc3c7" stroke-width="1"/>
          <rect x="200" y="0" width="40" height="30" fill="#ecf0f1" stroke="#bdc3c7" stroke-width="1"/>

          <text x="20" y="20" text-anchor="middle" class="text">3</text>
          <text x="60" y="20" text-anchor="middle" class="text">5</text>
          <text x="100" y="20" text-anchor="middle" class="text">2</text>
          <text x="140" y="20" text-anchor="middle" class="text" fill="white">7</text>
          <text x="180" y="20" text-anchor="middle" class="text">1</text>
          <text x="220" y="20" text-anchor="middle" class="text">9</text>

          <text x="250" y="15" class="small-text" fill="#27ae60">7 = 7, Return index 3</text>
        </g>
      </g>
    </g>
  </g>

  <!-- Linear Search Implementation -->
  <g transform="translate(800, 100)">
    <text x="0" y="0" class="subtitle">Linear Search Implementation</text>

    <rect x="0" y="30" width="600" height="320" fill="#2c3e50" stroke="#34495e" stroke-width="2" rx="5"/>

    <text x="20" y="55" class="code" fill="#3498db">def linear_search(arr, target):</text>
    <text x="40" y="75" class="code" fill="#ecf0f1">"""</text>
    <text x="40" y="95" class="code" fill="#ecf0f1">Linear search algorithm</text>
    <text x="40" y="115" class="code" fill="#ecf0f1">Time: O(n), Space: O(1)</text>
    <text x="40" y="135" class="code" fill="#ecf0f1">"""</text>
    <text x="40" y="155" class="code" fill="#ecf0f1">for i in range(len(arr)):</text>
    <text x="60" y="175" class="code" fill="#ecf0f1">if arr[i] == target:</text>
    <text x="80" y="195" class="code" fill="#27ae60">return i  # Found at index i</text>
    <text x="40" y="215" class="code" fill="#e74c3c">return -1  # Not found</text>

    <text x="20" y="250" class="code" fill="#f39c12"># Example usage:</text>
    <text x="20" y="270" class="code" fill="#ecf0f1">arr = [3, 5, 2, 7, 1, 9]</text>
    <text x="20" y="290" class="code" fill="#ecf0f1">result = linear_search(arr, 7)</text>
    <text x="20" y="310" class="code" fill="#ecf0f1">print(f"Element found at index: {result}")</text>
    <text x="20" y="330" class="code" fill="#95a5a6"># Output: Element found at index: 3</text>
  </g>

  <!-- Binary Search Section -->
  <g transform="translate(50, 500)">
    <text x="0" y="0" class="subtitle">2. Binary Search</text>

    <!-- Prerequisites -->
    <g transform="translate(0, 40)">
      <rect x="0" y="0" width="800" height="60" fill="#e74c3c" stroke="#c0392b" stroke-width="2" rx="5"/>
      <text x="20" y="25" class="text" font-weight="bold" fill="white">Prerequisite: Array must be SORTED</text>
      <text x="20" y="45" class="text" fill="white">Algorithm: Divide and conquer - repeatedly divide search space in half</text>
    </g>

    <!-- Visual Demonstration -->
    <g transform="translate(0, 120)">
      <text x="0" y="0" class="text" font-weight="bold">Searching for element 7 in sorted array:</text>

      <!-- Initial array -->
      <g transform="translate(0, 30)">
        <text x="0" y="-10" class="small-text">Initial array (sorted):</text>
        <rect x="0" y="0" width="40" height="30" fill="#ecf0f1" stroke="#bdc3c7" stroke-width="1"/>
        <rect x="40" y="0" width="40" height="30" fill="#ecf0f1" stroke="#bdc3c7" stroke-width="1"/>
        <rect x="80" y="0" width="40" height="30" fill="#ecf0f1" stroke="#bdc3c7" stroke-width="1"/>
        <rect x="120" y="0" width="40" height="30" fill="#ecf0f1" stroke="#bdc3c7" stroke-width="1"/>
        <rect x="160" y="0" width="40" height="30" fill="#ecf0f1" stroke="#bdc3c7" stroke-width="1"/>
        <rect x="200" y="0" width="40" height="30" fill="#ecf0f1" stroke="#bdc3c7" stroke-width="1"/>
        <rect x="240" y="0" width="40" height="30" fill="#ecf0f1" stroke="#bdc3c7" stroke-width="1"/>
        <rect x="280" y="0" width="40" height="30" fill="#ecf0f1" stroke="#bdc3c7" stroke-width="1"/>

        <text x="20" y="20" text-anchor="middle" class="text">1</text>
        <text x="60" y="20" text-anchor="middle" class="text">3</text>
        <text x="100" y="20" text-anchor="middle" class="text">5</text>
        <text x="140" y="20" text-anchor="middle" class="text">7</text>
        <text x="180" y="20" text-anchor="middle" class="text">9</text>
        <text x="220" y="20" text-anchor="middle" class="text">11</text>
        <text x="260" y="20" text-anchor="middle" class="text">13</text>
        <text x="300" y="20" text-anchor="middle" class="text">15</text>

        <text x="20" y="50" text-anchor="middle" class="small-text">0</text>
        <text x="60" y="50" text-anchor="middle" class="small-text">1</text>
        <text x="100" y="50" text-anchor="middle" class="small-text">2</text>
        <text x="140" y="50" text-anchor="middle" class="small-text">3</text>
        <text x="180" y="50" text-anchor="middle" class="small-text">4</text>
        <text x="220" y="50" text-anchor="middle" class="small-text">5</text>
        <text x="260" y="50" text-anchor="middle" class="small-text">6</text>
        <text x="300" y="50" text-anchor="middle" class="small-text">7</text>

        <!-- Pointers -->
        <text x="20" y="70" text-anchor="middle" class="small-text" fill="#3498db">left</text>
        <text x="300" y="70" text-anchor="middle" class="small-text" fill="#e74c3c">right</text>
        <text x="160" y="70" text-anchor="middle" class="small-text" fill="#27ae60">mid</text>
      </g>

      <!-- Step 1 -->
      <g transform="translate(0, 120)">
        <text x="0" y="-10" class="small-text">Step 1: left=0, right=7, mid=3, arr[3]=9</text>
        <rect x="0" y="0" width="40" height="30" fill="#ecf0f1" stroke="#bdc3c7" stroke-width="1"/>
        <rect x="40" y="0" width="40" height="30" fill="#ecf0f1" stroke="#bdc3c7" stroke-width="1"/>
        <rect x="80" y="0" width="40" height="30" fill="#ecf0f1" stroke="#bdc3c7" stroke-width="1"/>
        <rect x="120" y="0" width="40" height="30" fill="#f39c12" stroke="#e67e22" stroke-width="3"/>
        <rect x="160" y="0" width="40" height="30" fill="#bdc3c7" stroke="#95a5a6" stroke-width="1"/>
        <rect x="200" y="0" width="40" height="30" fill="#bdc3c7" stroke="#95a5a6" stroke-width="1"/>
        <rect x="240" y="0" width="40" height="30" fill="#bdc3c7" stroke="#95a5a6" stroke-width="1"/>
        <rect x="280" y="0" width="40" height="30" fill="#bdc3c7" stroke="#95a5a6" stroke-width="1"/>

        <text x="20" y="20" text-anchor="middle" class="text">1</text>
        <text x="60" y="20" text-anchor="middle" class="text">3</text>
        <text x="100" y="20" text-anchor="middle" class="text">5</text>
        <text x="140" y="20" text-anchor="middle" class="text">7</text>
        <text x="180" y="20" text-anchor="middle" class="text">9</text>
        <text x="220" y="20" text-anchor="middle" class="text">11</text>
        <text x="260" y="20" text-anchor="middle" class="text">13</text>
        <text x="300" y="20" text-anchor="middle" class="text">15</text>

        <text x="330" y="15" class="small-text">7 &lt; 9, search left half</text>
        <text x="330" y="30" class="small-text">right = mid - 1 = 2</text>
      </g>

      <!-- Step 2 -->
      <g transform="translate(0, 200)">
        <text x="0" y="-10" class="small-text">Step 2: left=0, right=2, mid=1, arr[1]=3</text>
        <rect x="0" y="0" width="40" height="30" fill="#ecf0f1" stroke="#bdc3c7" stroke-width="1"/>
        <rect x="40" y="0" width="40" height="30" fill="#f39c12" stroke="#e67e22" stroke-width="3"/>
        <rect x="80" y="0" width="40" height="30" fill="#ecf0f1" stroke="#bdc3c7" stroke-width="1"/>
        <rect x="120" y="0" width="40" height="30" fill="#bdc3c7" stroke="#95a5a6" stroke-width="1"/>
        <rect x="160" y="0" width="40" height="30" fill="#bdc3c7" stroke="#95a5a6" stroke-width="1"/>
        <rect x="200" y="0" width="40" height="30" fill="#bdc3c7" stroke="#95a5a6" stroke-width="1"/>
        <rect x="240" y="0" width="40" height="30" fill="#bdc3c7" stroke="#95a5a6" stroke-width="1"/>
        <rect x="280" y="0" width="40" height="30" fill="#bdc3c7" stroke="#95a5a6" stroke-width="1"/>

        <text x="20" y="20" text-anchor="middle" class="text">1</text>
        <text x="60" y="20" text-anchor="middle" class="text">3</text>
        <text x="100" y="20" text-anchor="middle" class="text">5</text>
        <text x="140" y="20" text-anchor="middle" class="text">7</text>
        <text x="180" y="20" text-anchor="middle" class="text">9</text>
        <text x="220" y="20" text-anchor="middle" class="text">11</text>
        <text x="260" y="20" text-anchor="middle" class="text">13</text>
        <text x="300" y="20" text-anchor="middle" class="text">15</text>

        <text x="330" y="15" class="small-text">7 > 3, search right half</text>
        <text x="330" y="30" class="small-text">left = mid + 1 = 2</text>
      </g>

      <!-- Step 3 - Found -->
      <g transform="translate(0, 280)">
        <text x="0" y="-10" class="small-text">Step 3: left=2, right=2, mid=2, arr[2]=5</text>
        <rect x="0" y="0" width="40" height="30" fill="#bdc3c7" stroke="#95a5a6" stroke-width="1"/>
        <rect x="40" y="0" width="40" height="30" fill="#bdc3c7" stroke="#95a5a6" stroke-width="1"/>
        <rect x="80" y="0" width="40" height="30" fill="#f39c12" stroke="#e67e22" stroke-width="3"/>
        <rect x="120" y="0" width="40" height="30" fill="#bdc3c7" stroke="#95a5a6" stroke-width="1"/>
        <rect x="160" y="0" width="40" height="30" fill="#bdc3c7" stroke="#95a5a6" stroke-width="1"/>
        <rect x="200" y="0" width="40" height="30" fill="#bdc3c7" stroke="#95a5a6" stroke-width="1"/>
        <rect x="240" y="0" width="40" height="30" fill="#bdc3c7" stroke="#95a5a6" stroke-width="1"/>
        <rect x="280" y="0" width="40" height="30" fill="#bdc3c7" stroke="#95a5a6" stroke-width="1"/>

        <text x="20" y="20" text-anchor="middle" class="text">1</text>
        <text x="60" y="20" text-anchor="middle" class="text">3</text>
        <text x="100" y="20" text-anchor="middle" class="text">5</text>
        <text x="140" y="20" text-anchor="middle" class="text">7</text>
        <text x="180" y="20" text-anchor="middle" class="text">9</text>
        <text x="220" y="20" text-anchor="middle" class="text">11</text>
        <text x="260" y="20" text-anchor="middle" class="text">13</text>
        <text x="300" y="20" text-anchor="middle" class="text">15</text>

        <text x="330" y="15" class="small-text">7 > 5, search right half</text>
        <text x="330" y="30" class="small-text">left = mid + 1 = 3</text>
      </g>

      <!-- Step 4 - Found -->
      <g transform="translate(0, 360)">
        <text x="0" y="-10" class="small-text">Step 4: left=3, right=2 → left > right, element not found!</text>
        <text x="0" y="10" class="small-text">Wait... Let me correct the demonstration for element 7:</text>

        <text x="0" y="40" class="small-text">Corrected Step 3: left=2, right=2, mid=2, arr[2]=5</text>
        <text x="0" y="55" class="small-text">7 > 5, so left = 3, right = 2</text>
        <text x="0" y="70" class="small-text">But 7 is actually at index 3! Let me show correct binary search:</text>
      </g>

      <!-- Corrected demonstration -->
      <g transform="translate(0, 450)">
        <text x="0" y="0" class="small-text" fill="#27ae60">Correct: Binary search finds 7 at index 3 in 3 steps</text>
        <rect x="0" y="20" width="40" height="30" fill="#bdc3c7" stroke="#95a5a6" stroke-width="1"/>
        <rect x="40" y="20" width="40" height="30" fill="#bdc3c7" stroke="#95a5a6" stroke-width="1"/>
        <rect x="80" y="20" width="40" height="30" fill="#bdc3c7" stroke="#95a5a6" stroke-width="1"/>
        <rect x="120" y="20" width="40" height="30" fill="#27ae60" stroke="#229954" stroke-width="3"/>
        <rect x="160" y="20" width="40" height="30" fill="#bdc3c7" stroke="#95a5a6" stroke-width="1"/>
        <rect x="200" y="20" width="40" height="30" fill="#bdc3c7" stroke="#95a5a6" stroke-width="1"/>
        <rect x="240" y="20" width="40" height="30" fill="#bdc3c7" stroke="#95a5a6" stroke-width="1"/>
        <rect x="280" y="20" width="40" height="30" fill="#bdc3c7" stroke="#95a5a6" stroke-width="1"/>

        <text x="20" y="40" text-anchor="middle" class="text">1</text>
        <text x="60" y="40" text-anchor="middle" class="text">3</text>
        <text x="100" y="40" text-anchor="middle" class="text">5</text>
        <text x="140" y="40" text-anchor="middle" class="text" fill="white">7</text>
        <text x="180" y="40" text-anchor="middle" class="text">9</text>
        <text x="220" y="40" text-anchor="middle" class="text">11</text>
        <text x="260" y="40" text-anchor="middle" class="text">13</text>
        <text x="300" y="40" text-anchor="middle" class="text">15</text>

        <text x="330" y="35" class="small-text" fill="#27ae60">Found at index 3!</text>
      </g>
    </g>
  </g>

  <!-- Binary Search Implementation -->
  <g transform="translate(900, 500)">
    <text x="0" y="0" class="subtitle">Binary Search Implementation</text>

    <rect x="0" y="30" width="600" height="400" fill="#2c3e50" stroke="#34495e" stroke-width="2" rx="5"/>

    <text x="20" y="55" class="code" fill="#3498db">def binary_search(arr, target):</text>
    <text x="40" y="75" class="code" fill="#ecf0f1">"""</text>
    <text x="40" y="95" class="code" fill="#ecf0f1">Binary search algorithm</text>
    <text x="40" y="115" class="code" fill="#ecf0f1">Prerequisite: Array must be sorted</text>
    <text x="40" y="135" class="code" fill="#ecf0f1">Time: O(log n), Space: O(1)</text>
    <text x="40" y="155" class="code" fill="#ecf0f1">"""</text>
    <text x="40" y="175" class="code" fill="#ecf0f1">left, right = 0, len(arr) - 1</text>

    <text x="40" y="205" class="code" fill="#ecf0f1">while left &lt;= right:</text>
    <text x="60" y="225" class="code" fill="#ecf0f1">mid = (left + right) // 2</text>

    <text x="60" y="255" class="code" fill="#ecf0f1">if arr[mid] == target:</text>
    <text x="80" y="275" class="code" fill="#27ae60">return mid  # Found</text>
    <text x="60" y="295" class="code" fill="#ecf0f1">elif arr[mid] &lt; target:</text>
    <text x="80" y="315" class="code" fill="#ecf0f1">left = mid + 1  # Search right</text>
    <text x="60" y="335" class="code" fill="#ecf0f1">else:</text>
    <text x="80" y="355" class="code" fill="#ecf0f1">right = mid - 1  # Search left</text>

    <text x="40" y="385" class="code" fill="#e74c3c">return -1  # Not found</text>

    <text x="20" y="415" class="code" fill="#f39c12"># Example usage:</text>
  </g>

  <!-- Comparison Table -->
  <g transform="translate(50, 1050)">
    <text x="0" y="0" class="subtitle">Algorithm Comparison</text>

    <rect x="0" y="20" width="1500" height="200" fill="#ecf0f1" stroke="#bdc3c7" stroke-width="2" rx="5"/>

    <!-- Headers -->
    <text x="20" y="50" class="text" font-weight="bold">Aspect</text>
    <text x="200" y="50" class="text" font-weight="bold">Linear Search</text>
    <text x="450" y="50" class="text" font-weight="bold">Binary Search</text>
    <text x="700" y="50" class="text" font-weight="bold">When to Use</text>

    <!-- Time Complexity -->
    <text x="20" y="80" class="text">Time Complexity</text>
    <text x="200" y="80" class="text" fill="#e74c3c">O(n)</text>
    <text x="450" y="80" class="text" fill="#27ae60">O(log n)</text>
    <text x="700" y="80" class="small-text">Binary for large sorted datasets</text>

    <!-- Space Complexity -->
    <text x="20" y="105" class="text">Space Complexity</text>
    <text x="200" y="105" class="text" fill="#27ae60">O(1)</text>
    <text x="450" y="105" class="text" fill="#27ae60">O(1)</text>
    <text x="700" y="105" class="small-text">Both are space efficient</text>

    <!-- Prerequisite -->
    <text x="20" y="130" class="text">Prerequisite</text>
    <text x="200" y="130" class="text" fill="#27ae60">None</text>
    <text x="450" y="130" class="text" fill="#e74c3c">Sorted array</text>
    <text x="700" y="130" class="small-text">Linear for unsorted data</text>

    <!-- Best Case -->
    <text x="20" y="155" class="text">Best Case</text>
    <text x="200" y="155" class="text">O(1) - first element</text>
    <text x="450" y="155" class="text">O(1) - middle element</text>
    <text x="700" y="155" class="small-text">Both can find immediately</text>

    <!-- Worst Case -->
    <text x="20" y="180" class="text">Worst Case</text>
    <text x="200" y="180" class="text" fill="#e74c3c">O(n) - last/not found</text>
    <text x="450" y="180" class="text" fill="#27ae60">O(log n) - not found</text>
    <text x="700" y="180" class="small-text">Binary much better for large n</text>

    <!-- Use Cases -->
    <text x="20" y="205" class="text">Best Use Case</text>
    <text x="200" y="205" class="small-text">Small/unsorted arrays</text>
    <text x="450" y="205" class="small-text">Large sorted arrays</text>
    <text x="700" y="205" class="small-text">Consider sorting cost vs search frequency</text>
  </g>

  <!-- Performance Analysis -->
  <g transform="translate(50, 1280)">
    <text x="0" y="0" class="subtitle">Performance Analysis Example</text>

    <rect x="0" y="20" width="1500" height="80" fill="#ecf0f1" stroke="#bdc3c7" stroke-width="2" rx="5"/>

    <text x="20" y="45" class="text" font-weight="bold">Array size: 1,000,000 elements</text>
    <text x="20" y="65" class="text">Linear Search: Up to 1,000,000 comparisons</text>
    <text x="20" y="85" class="text">Binary Search: Maximum 20 comparisons (log₂ 1,000,000 ≈ 20)</text>

    <text x="600" y="45" class="text" font-weight="bold">Array size: 1,000 elements</text>
    <text x="600" y="65" class="text">Linear Search: Up to 1,000 comparisons</text>
    <text x="600" y="85" class="text">Binary Search: Maximum 10 comparisons (log₂ 1,000 ≈ 10)</text>
  </g>

</svg>