<?xml version="1.0" encoding="UTF-8"?>
<svg viewBox="0 0 1800 1400" xmlns="http://www.w3.org/2000/svg">
  <defs>
    <style>
      .title { font-family: Arial, sans-serif; font-size: 28px; font-weight: bold; fill: #2c3e50; }
      .subtitle { font-family: Arial, sans-serif; font-size: 20px; font-weight: bold; fill: #34495e; }
      .text { font-family: Arial, sans-serif; font-size: 14px; fill: #2c3e50; }
      .small-text { font-family: Arial, sans-serif; font-size: 12px; fill: #2c3e50; }
      .code { font-family: 'Courier New', monospace; font-size: 12px; fill: #2c3e50; }
      .highlight { fill: #3498db; }
      .warning { fill: #e74c3c; }
      .success { fill: #27ae60; }
      .info { fill: #f39c12; }
    </style>
  </defs>

  <!-- Background -->
  <rect width="1800" height="1400" fill="#f8f9fa"/>

  <!-- Title -->
  <text x="900" y="40" text-anchor="middle" class="title">Sorting Algorithms - Bubble, Selection, Insertion &amp; Quick Sort</text>
  <text x="900" y="70" text-anchor="middle" class="text">Comprehensive Analysis with Step-by-Step Visualization</text>

  <!-- Bubble Sort Section -->
  <g transform="translate(50, 100)">
    <text x="0" y="0" class="subtitle">1. Bubble Sort</text>

    <!-- Algorithm Description -->
    <g transform="translate(0, 40)">
      <rect x="0" y="0" width="700" height="60" fill="#ecf0f1" stroke="#bdc3c7" stroke-width="2" rx="5"/>
      <text x="20" y="25" class="text" font-weight="bold">Algorithm:</text>
      <text x="20" y="45" class="text">Compare adjacent elements and swap if they are in wrong order. Repeat until no swaps needed.</text>
    </g>

    <!-- Visual Demonstration -->
    <g transform="translate(0, 120)">
      <text x="0" y="0" class="text" font-weight="bold">Bubble Sort Example: [64, 34, 25, 12]</text>

      <!-- Pass 1 -->
      <g transform="translate(0, 30)">
        <text x="0" y="-10" class="small-text" font-weight="bold">Pass 1:</text>

        <!-- Step 1 -->
        <g transform="translate(0, 10)">
          <text x="0" y="-5" class="small-text">Compare 64 &amp; 34:</text>
          <rect x="0" y="0" width="40" height="25" fill="#e74c3c" stroke="#c0392b" stroke-width="2"/>
          <rect x="40" y="0" width="40" height="25" fill="#e74c3c" stroke="#c0392b" stroke-width="2"/>
          <rect x="80" y="0" width="40" height="25" fill="#ecf0f1" stroke="#bdc3c7" stroke-width="1"/>
          <rect x="120" y="0" width="40" height="25" fill="#ecf0f1" stroke="#bdc3c7" stroke-width="1"/>

          <text x="20" y="17" text-anchor="middle" class="small-text" fill="white">64</text>
          <text x="60" y="17" text-anchor="middle" class="small-text" fill="white">34</text>
          <text x="100" y="17" text-anchor="middle" class="small-text">25</text>
          <text x="140" y="17" text-anchor="middle" class="small-text">12</text>

          <text x="170" y="12" class="small-text">64 > 34, swap!</text>

          <!-- Arrow showing swap -->
          <path d="M 20 30 Q 40 40 60 30" stroke="#e74c3c" stroke-width="2" fill="none" marker-end="url(#arrowhead)"/>
          <path d="M 60 35 Q 40 45 20 35" stroke="#e74c3c" stroke-width="2" fill="none" marker-end="url(#arrowhead)"/>
        </g>

        <!-- Result after step 1 -->
        <g transform="translate(0, 80)">
          <text x="0" y="-5" class="small-text">After swap:</text>
          <rect x="0" y="0" width="40" height="25" fill="#27ae60" stroke="#229954" stroke-width="1"/>
          <rect x="40" y="0" width="40" height="25" fill="#27ae60" stroke="#229954" stroke-width="1"/>
          <rect x="80" y="0" width="40" height="25" fill="#ecf0f1" stroke="#bdc3c7" stroke-width="1"/>
          <rect x="120" y="0" width="40" height="25" fill="#ecf0f1" stroke="#bdc3c7" stroke-width="1"/>

          <text x="20" y="17" text-anchor="middle" class="small-text" fill="white">34</text>
          <text x="60" y="17" text-anchor="middle" class="small-text" fill="white">64</text>
          <text x="100" y="17" text-anchor="middle" class="small-text">25</text>
          <text x="140" y="17" text-anchor="middle" class="small-text">12</text>

          <text x="170" y="12" class="small-text">Now compare 64 &amp; 25</text>
        </g>

        <!-- Final state after pass 1 -->
        <g transform="translate(0, 130)">
          <text x="0" y="-5" class="small-text">After Pass 1:</text>
          <rect x="0" y="0" width="40" height="25" fill="#ecf0f1" stroke="#bdc3c7" stroke-width="1"/>
          <rect x="40" y="0" width="40" height="25" fill="#ecf0f1" stroke="#bdc3c7" stroke-width="1"/>
          <rect x="80" y="0" width="40" height="25" fill="#ecf0f1" stroke="#bdc3c7" stroke-width="1"/>
          <rect x="120" y="0" width="40" height="25" fill="#f39c12" stroke="#e67e22" stroke-width="3"/>

          <text x="20" y="17" text-anchor="middle" class="small-text">34</text>
          <text x="60" y="17" text-anchor="middle" class="small-text">25</text>
          <text x="100" y="17" text-anchor="middle" class="small-text">12</text>
          <text x="140" y="17" text-anchor="middle" class="small-text" fill="white">64</text>

          <text x="170" y="12" class="small-text">Largest element "bubbled" to end</text>
        </g>
      </g>
    </g>
  </g>

  <!-- Arrow marker -->
  <defs>
    <marker id="arrowhead" markerWidth="10" markerHeight="7" refX="9" refY="3.5" orient="auto">
      <polygon points="0 0, 10 3.5, 0 7" fill="#e74c3c"/>
    </marker>
    <marker id="arrowhead-green" markerWidth="10" markerHeight="7" refX="9" refY="3.5" orient="auto">
      <polygon points="0 0, 10 3.5, 0 7" fill="#27ae60"/>
    </marker>
    <marker id="arrowhead-blue" markerWidth="10" markerHeight="7" refX="9" refY="3.5" orient="auto">
      <polygon points="0 0, 10 3.5, 0 7" fill="#3498db"/>
    </marker>
  </defs>

  <!-- Bubble Sort Implementation -->
  <g transform="translate(800, 100)">
    <text x="0" y="0" class="subtitle">Bubble Sort Implementation</text>

    <rect x="0" y="30" width="600" height="280" fill="#2c3e50" stroke="#34495e" stroke-width="2" rx="5"/>

    <text x="20" y="55" class="code" fill="#3498db">def bubble_sort(arr):</text>
    <text x="40" y="75" class="code" fill="#ecf0f1">"""</text>
    <text x="40" y="95" class="code" fill="#ecf0f1">Bubble Sort Algorithm</text>
    <text x="40" y="115" class="code" fill="#ecf0f1">Time: O(n²), Space: O(1)</text>
    <text x="40" y="135" class="code" fill="#ecf0f1">"""</text>
    <text x="40" y="155" class="code" fill="#ecf0f1">n = len(arr)</text>

    <text x="40" y="185" class="code" fill="#ecf0f1">for i in range(n):</text>
    <text x="60" y="205" class="code" fill="#ecf0f1">swapped = False</text>
    <text x="60" y="225" class="code" fill="#ecf0f1">for j in range(0, n - i - 1):</text>
    <text x="80" y="245" class="code" fill="#ecf0f1">if arr[j] > arr[j + 1]:</text>
    <text x="100" y="265" class="code" fill="#e74c3c">arr[j], arr[j + 1] = arr[j + 1], arr[j]</text>
    <text x="100" y="285" class="code" fill="#ecf0f1">swapped = True</text>
    <text x="60" y="305" class="code" fill="#27ae60">if not swapped: break</text>
  </g>

  <!-- Selection Sort Section -->
  <g transform="translate(50, 450)">
    <text x="0" y="0" class="subtitle">2. Selection Sort</text>

    <!-- Algorithm Description -->
    <g transform="translate(0, 40)">
      <rect x="0" y="0" width="700" height="60" fill="#ecf0f1" stroke="#bdc3c7" stroke-width="2" rx="5"/>
      <text x="20" y="25" class="text" font-weight="bold">Algorithm:</text>
      <text x="20" y="45" class="text">Find minimum element and place it at beginning. Repeat for remaining unsorted portion.</text>
    </g>

    <!-- Visual Demonstration -->
    <g transform="translate(0, 120)">
      <text x="0" y="0" class="text" font-weight="bold">Selection Sort Example: [64, 25, 12, 22]</text>

      <!-- Pass 1 -->
      <g transform="translate(0, 30)">
        <text x="0" y="-10" class="small-text" font-weight="bold">Pass 1: Find minimum in [64, 25, 12, 22]</text>

        <g transform="translate(0, 10)">
          <rect x="0" y="0" width="40" height="25" fill="#ecf0f1" stroke="#bdc3c7" stroke-width="1"/>
          <rect x="40" y="0" width="40" height="25" fill="#f39c12" stroke="#e67e22" stroke-width="2"/>
          <rect x="80" y="0" width="40" height="25" fill="#27ae60" stroke="#229954" stroke-width="3"/>
          <rect x="120" y="0" width="40" height="25" fill="#f39c12" stroke="#e67e22" stroke-width="2"/>

          <text x="20" y="17" text-anchor="middle" class="small-text">64</text>
          <text x="60" y="17" text-anchor="middle" class="small-text" fill="white">25</text>
          <text x="100" y="17" text-anchor="middle" class="small-text" fill="white">12</text>
          <text x="140" y="17" text-anchor="middle" class="small-text" fill="white">22</text>

          <text x="170" y="12" class="small-text">Minimum: 12, swap with position 0</text>
        </g>

        <!-- After swap -->
        <g transform="translate(0, 60)">
          <text x="0" y="-5" class="small-text">After placing minimum at start:</text>
          <rect x="0" y="0" width="40" height="25" fill="#27ae60" stroke="#229954" stroke-width="3"/>
          <rect x="40" y="0" width="40" height="25" fill="#ecf0f1" stroke="#bdc3c7" stroke-width="1"/>
          <rect x="80" y="0" width="40" height="25" fill="#ecf0f1" stroke="#bdc3c7" stroke-width="1"/>
          <rect x="120" y="0" width="40" height="25" fill="#ecf0f1" stroke="#bdc3c7" stroke-width="1"/>

          <text x="20" y="17" text-anchor="middle" class="small-text" fill="white">12</text>
          <text x="60" y="17" text-anchor="middle" class="small-text">25</text>
          <text x="100" y="17" text-anchor="middle" class="small-text">64</text>
          <text x="140" y="17" text-anchor="middle" class="small-text">22</text>

          <text x="170" y="12" class="small-text">Position 0 sorted, continue with [25, 64, 22]</text>
        </g>

        <!-- Final sorted array -->
        <g transform="translate(0, 110)">
          <text x="0" y="-5" class="small-text">Final sorted array:</text>
          <rect x="0" y="0" width="40" height="25" fill="#27ae60" stroke="#229954" stroke-width="1"/>
          <rect x="40" y="0" width="40" height="25" fill="#27ae60" stroke="#229954" stroke-width="1"/>
          <rect x="80" y="0" width="40" height="25" fill="#27ae60" stroke="#229954" stroke-width="1"/>
          <rect x="120" y="0" width="40" height="25" fill="#27ae60" stroke="#229954" stroke-width="1"/>

          <text x="20" y="17" text-anchor="middle" class="small-text" fill="white">12</text>
          <text x="60" y="17" text-anchor="middle" class="small-text" fill="white">22</text>
          <text x="100" y="17" text-anchor="middle" class="small-text" fill="white">25</text>
          <text x="140" y="17" text-anchor="middle" class="small-text" fill="white">64</text>

          <text x="170" y="12" class="small-text">All elements in correct position</text>
        </g>
      </g>
    </g>
  </g>

  <!-- Selection Sort Implementation -->
  <g transform="translate(800, 450)">
    <text x="0" y="0" class="subtitle">Selection Sort Implementation</text>

    <rect x="0" y="30" width="600" height="260" fill="#2c3e50" stroke="#34495e" stroke-width="2" rx="5"/>

    <text x="20" y="55" class="code" fill="#3498db">def selection_sort(arr):</text>
    <text x="40" y="75" class="code" fill="#ecf0f1">"""</text>
    <text x="40" y="95" class="code" fill="#ecf0f1">Selection Sort Algorithm</text>
    <text x="40" y="115" class="code" fill="#ecf0f1">Time: O(n²), Space: O(1)</text>
    <text x="40" y="135" class="code" fill="#ecf0f1">"""</text>
    <text x="40" y="155" class="code" fill="#ecf0f1">n = len(arr)</text>

    <text x="40" y="185" class="code" fill="#ecf0f1">for i in range(n):</text>
    <text x="60" y="205" class="code" fill="#ecf0f1">min_idx = i</text>
    <text x="60" y="225" class="code" fill="#ecf0f1">for j in range(i + 1, n):</text>
    <text x="80" y="245" class="code" fill="#ecf0f1">if arr[j] &lt; arr[min_idx]:</text>
    <text x="100" y="265" class="code" fill="#ecf0f1">min_idx = j</text>
    <text x="60" y="285" class="code" fill="#e74c3c">arr[i], arr[min_idx] = arr[min_idx], arr[i]</text>
  </g>

  <!-- Insertion Sort Section -->
  <g transform="translate(50, 750)">
    <text x="0" y="0" class="subtitle">3. Insertion Sort</text>

    <!-- Algorithm Description -->
    <g transform="translate(0, 40)">
      <rect x="0" y="0" width="700" height="60" fill="#ecf0f1" stroke="#bdc3c7" stroke-width="2" rx="5"/>
      <text x="20" y="25" class="text" font-weight="bold">Algorithm:</text>
      <text x="20" y="45" class="text">Build sorted array one element at a time by inserting each element into its correct position.</text>
    </g>

    <!-- Visual Demonstration -->
    <g transform="translate(0, 120)">
      <text x="0" y="0" class="text" font-weight="bold">Insertion Sort Example: [5, 2, 4, 6, 1]</text>

      <!-- Initial state -->
      <g transform="translate(0, 30)">
        <text x="0" y="-10" class="small-text">Initial: First element is considered sorted</text>

        <g transform="translate(0, 10)">
          <rect x="0" y="0" width="40" height="25" fill="#27ae60" stroke="#229954" stroke-width="2"/>
          <rect x="40" y="0" width="40" height="25" fill="#ecf0f1" stroke="#bdc3c7" stroke-width="1"/>
          <rect x="80" y="0" width="40" height="25" fill="#ecf0f1" stroke="#bdc3c7" stroke-width="1"/>
          <rect x="120" y="0" width="40" height="25" fill="#ecf0f1" stroke="#bdc3c7" stroke-width="1"/>
          <rect x="160" y="0" width="40" height="25" fill="#ecf0f1" stroke="#bdc3c7" stroke-width="1"/>

          <text x="20" y="17" text-anchor="middle" class="small-text" fill="white">5</text>
          <text x="60" y="17" text-anchor="middle" class="small-text">2</text>
          <text x="100" y="17" text-anchor="middle" class="small-text">4</text>
          <text x="140" y="17" text-anchor="middle" class="small-text">6</text>
          <text x="180" y="17" text-anchor="middle" class="small-text">1</text>

          <text x="220" y="12" class="small-text">Sorted | Unsorted</text>
        </g>
      </g>

      <!-- Pass 1: Insert 2 -->
      <g transform="translate(0, 80)">
        <text x="0" y="-10" class="small-text">Insert 2 into sorted portion [5]</text>

        <g transform="translate(0, 10)">
          <rect x="0" y="0" width="40" height="25" fill="#e74c3c" stroke="#c0392b" stroke-width="2"/>
          <rect x="40" y="0" width="40" height="25" fill="#e74c3c" stroke="#c0392b" stroke-width="2"/>
          <rect x="80" y="0" width="40" height="25" fill="#ecf0f1" stroke="#bdc3c7" stroke-width="1"/>
          <rect x="120" y="0" width="40" height="25" fill="#ecf0f1" stroke="#bdc3c7" stroke-width="1"/>
          <rect x="160" y="0" width="40" height="25" fill="#ecf0f1" stroke="#bdc3c7" stroke-width="1"/>

          <text x="20" y="17" text-anchor="middle" class="small-text" fill="white">5</text>
          <text x="60" y="17" text-anchor="middle" class="small-text" fill="white">2</text>
          <text x="100" y="17" text-anchor="middle" class="small-text">4</text>
          <text x="140" y="17" text-anchor="middle" class="small-text">6</text>
          <text x="180" y="17" text-anchor="middle" class="small-text">1</text>

          <text x="220" y="12" class="small-text">2 &lt; 5, shift 5 right and insert 2</text>
        </g>

        <!-- After insertion -->
        <g transform="translate(0, 50)">
          <rect x="0" y="0" width="40" height="25" fill="#27ae60" stroke="#229954" stroke-width="1"/>
          <rect x="40" y="0" width="40" height="25" fill="#27ae60" stroke="#229954" stroke-width="1"/>
          <rect x="80" y="0" width="40" height="25" fill="#ecf0f1" stroke="#bdc3c7" stroke-width="1"/>
          <rect x="120" y="0" width="40" height="25" fill="#ecf0f1" stroke="#bdc3c7" stroke-width="1"/>
          <rect x="160" y="0" width="40" height="25" fill="#ecf0f1" stroke="#bdc3c7" stroke-width="1"/>

          <text x="20" y="17" text-anchor="middle" class="small-text" fill="white">2</text>
          <text x="60" y="17" text-anchor="middle" class="small-text" fill="white">5</text>
          <text x="100" y="17" text-anchor="middle" class="small-text">4</text>
          <text x="140" y="17" text-anchor="middle" class="small-text">6</text>
          <text x="180" y="17" text-anchor="middle" class="small-text">1</text>

          <text x="220" y="12" class="small-text">Sorted: [2, 5] | Unsorted: [4, 6, 1]</text>
        </g>
      </g>
    </g>
  </g>

  <!-- Insertion Sort Implementation -->
  <g transform="translate(800, 750)">
    <text x="0" y="0" class="subtitle">Insertion Sort Implementation</text>

    <rect x="0" y="30" width="600" height="260" fill="#2c3e50" stroke="#34495e" stroke-width="2" rx="5"/>

    <text x="20" y="55" class="code" fill="#3498db">def insertion_sort(arr):</text>
    <text x="40" y="75" class="code" fill="#ecf0f1">"""</text>
    <text x="40" y="95" class="code" fill="#ecf0f1">Insertion Sort Algorithm</text>
    <text x="40" y="115" class="code" fill="#ecf0f1">Time: O(n²), Space: O(1)</text>
    <text x="40" y="135" class="code" fill="#ecf0f1">"""</text>
    <text x="40" y="155" class="code" fill="#ecf0f1">for i in range(1, len(arr)):</text>
    <text x="60" y="175" class="code" fill="#ecf0f1">key = arr[i]</text>
    <text x="60" y="195" class="code" fill="#ecf0f1">j = i - 1</text>
    <text x="60" y="215" class="code" fill="#ecf0f1">while j >= 0 and arr[j] > key:</text>
    <text x="80" y="235" class="code" fill="#ecf0f1">arr[j + 1] = arr[j]</text>
    <text x="80" y="255" class="code" fill="#ecf0f1">j -= 1</text>
    <text x="60" y="275" class="code" fill="#e74c3c">arr[j + 1] = key</text>
  </g>

  <!-- Quick Sort Section -->
  <g transform="translate(50, 1050)">
    <text x="0" y="0" class="subtitle">4. Quick Sort (Divide and Conquer)</text>

    <!-- Algorithm Description -->
    <g transform="translate(0, 40)">
      <rect x="0" y="0" width="700" height="80" fill="#ecf0f1" stroke="#bdc3c7" stroke-width="2" rx="5"/>
      <text x="20" y="25" class="text" font-weight="bold">Algorithm:</text>
      <text x="20" y="45" class="text">Choose a pivot, partition array so elements smaller than pivot are on left,</text>
      <text x="20" y="65" class="text">larger elements on right. Recursively sort both partitions.</text>
    </g>

    <!-- Quick Sort Partitioning -->
    <g transform="translate(0, 140)">
      <text x="0" y="0" class="text" font-weight="bold">Quick Sort Partitioning Example: [3, 6, 8, 10, 1, 2, 1] (pivot = 1)</text>

      <!-- Before partitioning -->
      <g transform="translate(0, 30)">
        <text x="0" y="-10" class="small-text">Before partitioning (pivot = last element = 1):</text>

        <g transform="translate(0, 10)">
          <rect x="0" y="0" width="30" height="25" fill="#ecf0f1" stroke="#bdc3c7" stroke-width="1"/>
          <rect x="30" y="0" width="30" height="25" fill="#ecf0f1" stroke="#bdc3c7" stroke-width="1"/>
          <rect x="60" y="0" width="30" height="25" fill="#ecf0f1" stroke="#bdc3c7" stroke-width="1"/>
          <rect x="90" y="0" width="30" height="25" fill="#ecf0f1" stroke="#bdc3c7" stroke-width="1"/>
          <rect x="120" y="0" width="30" height="25" fill="#ecf0f1" stroke="#bdc3c7" stroke-width="1"/>
          <rect x="150" y="0" width="30" height="25" fill="#ecf0f1" stroke="#bdc3c7" stroke-width="1"/>
          <rect x="180" y="0" width="30" height="25" fill="#f39c12" stroke="#e67e22" stroke-width="3"/>

          <text x="15" y="17" text-anchor="middle" class="small-text">3</text>
          <text x="45" y="17" text-anchor="middle" class="small-text">6</text>
          <text x="75" y="17" text-anchor="middle" class="small-text">8</text>
          <text x="105" y="17" text-anchor="middle" class="small-text">10</text>
          <text x="135" y="17" text-anchor="middle" class="small-text">1</text>
          <text x="165" y="17" text-anchor="middle" class="small-text">2</text>
          <text x="195" y="17" text-anchor="middle" class="small-text" fill="white">1</text>

          <text x="220" y="12" class="small-text">Pivot = 1</text>
        </g>
      </g>

      <!-- After partitioning -->
      <g transform="translate(0, 90)">
        <text x="0" y="-10" class="small-text">After partitioning (elements ≤ pivot on left, > pivot on right):</text>

        <g transform="translate(0, 10)">
          <rect x="0" y="0" width="30" height="25" fill="#27ae60" stroke="#229954" stroke-width="2"/>
          <rect x="30" y="0" width="30" height="25" fill="#f39c12" stroke="#e67e22" stroke-width="3"/>
          <rect x="60" y="0" width="30" height="25" fill="#e74c3c" stroke="#c0392b" stroke-width="1"/>
          <rect x="90" y="0" width="30" height="25" fill="#e74c3c" stroke="#c0392b" stroke-width="1"/>
          <rect x="120" y="0" width="30" height="25" fill="#e74c3c" stroke="#c0392b" stroke-width="1"/>
          <rect x="150" y="0" width="30" height="25" fill="#e74c3c" stroke="#c0392b" stroke-width="1"/>
          <rect x="180" y="0" width="30" height="25" fill="#e74c3c" stroke="#c0392b" stroke-width="1"/>

          <text x="15" y="17" text-anchor="middle" class="small-text" fill="white">1</text>
          <text x="45" y="17" text-anchor="middle" class="small-text" fill="white">1</text>
          <text x="75" y="17" text-anchor="middle" class="small-text" fill="white">3</text>
          <text x="105" y="17" text-anchor="middle" class="small-text" fill="white">6</text>
          <text x="135" y="17" text-anchor="middle" class="small-text" fill="white">8</text>
          <text x="165" y="17" text-anchor="middle" class="small-text" fill="white">10</text>
          <text x="195" y="17" text-anchor="middle" class="small-text" fill="white">2</text>

          <text x="15" y="40" text-anchor="middle" class="small-text">≤ pivot</text>
          <text x="135" y="40" text-anchor="middle" class="small-text">> pivot</text>
        </g>
      </g>
    </g>
  </g>

  <!-- Quick Sort Implementation -->
  <g transform="translate(800, 1050)">
    <text x="0" y="0" class="subtitle">Quick Sort Implementation</text>

    <rect x="0" y="30" width="600" height="300" fill="#2c3e50" stroke="#34495e" stroke-width="2" rx="5"/>

    <text x="20" y="55" class="code" fill="#3498db">def quick_sort(arr, low, high):</text>
    <text x="40" y="75" class="code" fill="#ecf0f1">"""</text>
    <text x="40" y="95" class="code" fill="#ecf0f1">Quick Sort Algorithm</text>
    <text x="40" y="115" class="code" fill="#ecf0f1">Average: O(n log n), Worst: O(n²)</text>
    <text x="40" y="135" class="code" fill="#ecf0f1">"""</text>
    <text x="40" y="155" class="code" fill="#ecf0f1">if low &lt; high:</text>
    <text x="60" y="175" class="code" fill="#ecf0f1">pi = partition(arr, low, high)</text>
    <text x="60" y="195" class="code" fill="#ecf0f1">quick_sort(arr, low, pi - 1)</text>
    <text x="60" y="215" class="code" fill="#ecf0f1">quick_sort(arr, pi + 1, high)</text>

    <text x="20" y="245" class="code" fill="#3498db">def partition(arr, low, high):</text>
    <text x="40" y="265" class="code" fill="#ecf0f1">pivot = arr[high]</text>
    <text x="40" y="285" class="code" fill="#ecf0f1">i = low - 1</text>
    <text x="40" y="305" class="code" fill="#ecf0f1">for j in range(low, high):</text>
    <text x="60" y="325" class="code" fill="#ecf0f1">if arr[j] &lt;= pivot:</text>
  </g>

  <!-- Comparison Table -->
  <g transform="translate(50, 1380)">
    <text x="0" y="-30" class="subtitle">Sorting Algorithms Comparison</text>

    <!-- This will be cut off, but shows the structure -->
    <rect x="0" y="0" width="1500" height="20" fill="#ecf0f1" stroke="#bdc3c7" stroke-width="2" rx="5"/>
    <text x="20" y="15" class="small-text" font-weight="bold">Algorithm | Best Case | Average | Worst | Space | Stable | Notes</text>
  </g>

</svg>